<?xml version="1.0" encoding="UTF-8" standalone="no"?>
<svg
xmlns:svg="http://www.w3.org/2000/svg"
xmlns="http://www.w3.org/2000/svg"
xmlns:xlink="http://www.w3.org/1999/xlink"
width ="640"
height ="708"
viewBox ="0 0 640 708"
>
<defs><polygon points="0,0 6,8, 0,16 20,8" id="m_tmpl2"/><marker id="token_arrow"  markerUnits="userSpaceOnUse" markerWidth="20" markerHeight="16" viewBox="0 0 20 16" refX="14" refY="8" orient="auto"><use xlink:href="#m_tmpl2" fill="#60a0ff"/></marker></defs><defs><polygon points="0,0 0,4 0,8 12,4" id="m_tmpl3"/><marker id="link_arrow" markerUnits="strokeWidth" markerWidth="12" markerHeight="8" viewBox="0 0 12 8" refX="12" refY="4" orient="auto"><use xlink:href="#m_tmpl3" fill="#888888"/></marker></defs><rect x ="0" y="0" width="280" height="220" fill="#ffffff" stroke="#888888" stroke-width="1"/><path fill="#0088e0" d="M 292 110 L 292 90 L 312 110 L 292 130 z" /><g transform="translate(0,0)"><g transform="translate(0,0) scale(1)"><g fill="#ffffff" stroke="#a0a0a0" stroke-width="1"><circle cx="210" cy="100" r="6" /><circle cx="70" cy="120" r="6" /><circle cx="20" cy="100" r="6" /><circle cx="30" cy="180" r="6" /><circle cx="170" cy="40" r="6" /><circle cx="170" cy="100" r="6" /><circle cx="110" cy="80" r="6" /><circle cx="100" cy="30" r="6" /><circle cx="60" cy="50" r="6" /><circle cx="170" cy="145" r="6" /><circle cx="120" cy="120" r="6" /></g><g font-size="8" font-family="sans-serif" fill="#888888"><text x="210" y="88" dominant-baseline="central" text-anchor="middle">0</text><text x="70" y="108" dominant-baseline="central" text-anchor="middle">1</text><text x="20" y="88" dominant-baseline="central" text-anchor="middle">2</text><text x="30" y="168" dominant-baseline="central" text-anchor="middle">3</text><text x="170" y="28" dominant-baseline="central" text-anchor="middle">4</text><text x="170" y="88" dominant-baseline="central" text-anchor="middle">5</text><text x="110" y="68" dominant-baseline="central" text-anchor="middle">6</text><text x="100" y="18" dominant-baseline="central" text-anchor="middle">7</text><text x="60" y="38" dominant-baseline="central" text-anchor="middle">8</text><text x="170" y="133" dominant-baseline="central" text-anchor="middle">9</text><text x="120" y="108" dominant-baseline="central" text-anchor="middle">10</text></g></g><g transform="translate(0,0) scale(1)"><g class="flash_g" fill="#ffffff" stroke="#ff8c00" stroke-width="2"><circle cx="210" cy="100" r="6" /><circle cx="70" cy="120" r="6" /><circle cx="20" cy="100" r="6" /><circle cx="30" cy="180" r="6" /><circle cx="170" cy="40" r="6" /><circle cx="170" cy="100" r="6" /><circle cx="110" cy="80" r="6" /><circle cx="100" cy="30" r="6" /><circle cx="60" cy="50" r="6" /><circle cx="170" cy="145" r="6" /><circle cx="120" cy="120" r="6" /></g></g><g transform="translate(252,28) scale(1)"><g class="flash_g" fill="#ffffff" stroke="#ff8c00" stroke-width="1"  ><path d="M 0 -14 L -14 0 L 0 14 z" fill="#ff8c00" stroke-width="0" /></g><g fill="none" stroke="#a0a0a0" stroke-width="1"><path d="M 0 -14 L 14 0 L 0 14 L -14 0 z"  /></g></g></g><text x="16" y="20" font-size="16" text-anchor="middle" fill="#888888" font-family="sans-serif" >1-1</text><text x="140" y="204" font-size="9" text-anchor="middle" font-family="SimSun, 宋体, serif">寻找最左下的点</text><rect x ="320" y="0" width="280" height="220" fill="#ffffff" stroke="#888888" stroke-width="1"/><path fill="#0088e0" d="M 612 110 L 612 90 L 632 110 L 612 130 z" /><g transform="translate(320,0)"><g transform="translate(0,0) scale(1)"><g stroke="#e0e0ff" stroke-width="1"><line x1="30"  y1="180" x2="170" y2="145" stroke-linecap="round"/><line x1="170"  y1="145" x2="30" y2="180" stroke-linecap="round"/><line x1="30"  y1="180" x2="210" y2="100" stroke-linecap="round"/><line x1="210"  y1="100" x2="30" y2="180" stroke-linecap="round"/><line x1="30"  y1="180" x2="170" y2="100" stroke-linecap="round"/><line x1="170"  y1="100" x2="30" y2="180" stroke-linecap="round"/><line x1="30"  y1="180" x2="120" y2="120" stroke-linecap="round"/><line x1="120"  y1="120" x2="30" y2="180" stroke-linecap="round"/><line x1="30"  y1="180" x2="170" y2="40" stroke-linecap="round"/><line x1="170"  y1="40" x2="30" y2="180" stroke-linecap="round"/><line x1="30"  y1="180" x2="110" y2="80" stroke-linecap="round"/><line x1="110"  y1="80" x2="30" y2="180" stroke-linecap="round"/><line x1="30"  y1="180" x2="70" y2="120" stroke-linecap="round"/><line x1="70"  y1="120" x2="30" y2="180" stroke-linecap="round"/><line x1="30"  y1="180" x2="100" y2="30" stroke-linecap="round"/><line x1="100"  y1="30" x2="30" y2="180" stroke-linecap="round"/><line x1="30"  y1="180" x2="60" y2="50" stroke-linecap="round"/><line x1="60"  y1="50" x2="30" y2="180" stroke-linecap="round"/><line x1="30"  y1="180" x2="20" y2="100" stroke-linecap="round"/></g></g><g transform="translate(0,0) scale(1)"><g fill="#ffffff" stroke="#a0a0a0" stroke-width="1"><circle cx="210" cy="100" r="6" /><circle cx="70" cy="120" r="6" /><circle cx="20" cy="100" r="6" /><circle cx="30" cy="180" r="6" /><circle cx="170" cy="40" r="6" /><circle cx="170" cy="100" r="6" /><circle cx="110" cy="80" r="6" /><circle cx="100" cy="30" r="6" /><circle cx="60" cy="50" r="6" /><circle cx="170" cy="145" r="6" /><circle cx="120" cy="120" r="6" /></g><g font-size="8" font-family="sans-serif" fill="#888888"><text x="210" y="88" dominant-baseline="central" text-anchor="middle">0</text><text x="70" y="108" dominant-baseline="central" text-anchor="middle">1</text><text x="20" y="88" dominant-baseline="central" text-anchor="middle">2</text><text x="30" y="168" dominant-baseline="central" text-anchor="middle">3</text><text x="170" y="28" dominant-baseline="central" text-anchor="middle">4</text><text x="170" y="88" dominant-baseline="central" text-anchor="middle">5</text><text x="110" y="68" dominant-baseline="central" text-anchor="middle">6</text><text x="100" y="18" dominant-baseline="central" text-anchor="middle">7</text><text x="60" y="38" dominant-baseline="central" text-anchor="middle">8</text><text x="170" y="133" dominant-baseline="central" text-anchor="middle">9</text><text x="120" y="108" dominant-baseline="central" text-anchor="middle">10</text></g></g><g transform="translate(0,0) scale(1)"><g class="flash_g" fill="#ff8c00" stroke="#ff8c00" stroke-width="1"><circle cx="210" cy="100" r="6" /><circle cx="70" cy="120" r="6" /><circle cx="20" cy="100" r="6" /><circle cx="30" cy="180" r="6" /><circle cx="170" cy="40" r="6" /><circle cx="170" cy="100" r="6" /><circle cx="110" cy="80" r="6" /><circle cx="100" cy="30" r="6" /><circle cx="60" cy="50" r="6" /><circle cx="170" cy="145" r="6" /><circle cx="120" cy="120" r="6" /></g><g fill="none" stroke="#a0a0a0" stroke-width="1"><circle cx="210" cy="100" r="6" /><circle cx="70" cy="120" r="6" /><circle cx="20" cy="100" r="6" /><circle cx="30" cy="180" r="6" /><circle cx="170" cy="40" r="6" /><circle cx="170" cy="100" r="6" /><circle cx="110" cy="80" r="6" /><circle cx="100" cy="30" r="6" /><circle cx="60" cy="50" r="6" /><circle cx="170" cy="145" r="6" /><circle cx="120" cy="120" r="6" /></g></g><g transform="translate(0,0) scale(1)"><g transform="translate(30,174) rotate(0)" fill="#ff8c00"><path d="M 0 0 L 8 -10 L 4 -10 L 4 -26 L -4 -26 L -4 -10 L -8 -10 z"/></g></g></g><text x="336" y="20" font-size="16" text-anchor="middle" fill="#888888" font-family="sans-serif" >1-2</text><text x="460" y="204" font-size="9" text-anchor="middle" font-family="SimSun, 宋体, serif">以最左下的点为基准，按极角大小对点排序</text><rect x ="0" y="236" width="280" height="220" fill="#ffffff" stroke="#888888" stroke-width="1"/><path fill="#0088e0" d="M 292 346 L 292 326 L 312 346 L 292 366 z" /><g transform="translate(0,236)"><g transform="translate(0,0) scale(1)"><g stroke="#e0e0ff" stroke-width="1"><line x1="30"  y1="180" x2="170" y2="145" stroke-linecap="round"/><line x1="170"  y1="145" x2="30" y2="180" stroke-linecap="round"/><line x1="30"  y1="180" x2="210" y2="100" stroke-linecap="round"/><line x1="210"  y1="100" x2="30" y2="180" stroke-linecap="round"/><line x1="30"  y1="180" x2="170" y2="100" stroke-linecap="round"/><line x1="170"  y1="100" x2="30" y2="180" stroke-linecap="round"/><line x1="30"  y1="180" x2="120" y2="120" stroke-linecap="round"/><line x1="120"  y1="120" x2="30" y2="180" stroke-linecap="round"/><line x1="30"  y1="180" x2="170" y2="40" stroke-linecap="round"/><line x1="170"  y1="40" x2="30" y2="180" stroke-linecap="round"/><line x1="30"  y1="180" x2="110" y2="80" stroke-linecap="round"/><line x1="110"  y1="80" x2="30" y2="180" stroke-linecap="round"/><line x1="30"  y1="180" x2="70" y2="120" stroke-linecap="round"/><line x1="70"  y1="120" x2="30" y2="180" stroke-linecap="round"/><line x1="30"  y1="180" x2="100" y2="30" stroke-linecap="round"/><line x1="100"  y1="30" x2="30" y2="180" stroke-linecap="round"/><line x1="30"  y1="180" x2="60" y2="50" stroke-linecap="round"/><line x1="60"  y1="50" x2="30" y2="180" stroke-linecap="round"/><line x1="30"  y1="180" x2="20" y2="100" stroke-linecap="round"/></g></g><g transform="translate(0,0) scale(1)"><g stroke="#0000ff" stroke-width="1"></g></g><g transform="translate(0,0) scale(1)"><g fill="#ffffff" stroke="#a0a0a0" stroke-width="1"><circle cx="210" cy="100" r="6" /><circle cx="70" cy="120" r="6" /><circle cx="20" cy="100" r="6" /><circle cx="30" cy="180" r="6" /><circle cx="170" cy="40" r="6" /><circle cx="170" cy="100" r="6" /><circle cx="110" cy="80" r="6" /><circle cx="100" cy="30" r="6" /><circle cx="60" cy="50" r="6" /><circle cx="170" cy="145" r="6" /><circle cx="120" cy="120" r="6" /></g><g font-size="8" font-family="sans-serif" fill="#888888"><text x="210" y="88" dominant-baseline="central" text-anchor="middle">0</text><text x="70" y="108" dominant-baseline="central" text-anchor="middle">1</text><text x="20" y="88" dominant-baseline="central" text-anchor="middle">2</text><text x="30" y="168" dominant-baseline="central" text-anchor="middle">3</text><text x="170" y="28" dominant-baseline="central" text-anchor="middle">4</text><text x="170" y="88" dominant-baseline="central" text-anchor="middle">5</text><text x="110" y="68" dominant-baseline="central" text-anchor="middle">6</text><text x="100" y="18" dominant-baseline="central" text-anchor="middle">7</text><text x="60" y="38" dominant-baseline="central" text-anchor="middle">8</text><text x="170" y="133" dominant-baseline="central" text-anchor="middle">9</text><text x="120" y="108" dominant-baseline="central" text-anchor="middle">10</text></g></g><g transform="translate(252,28) scale(1)"><g fill="#ffffff" stroke="#a0a0a0" stroke-width="1"><path d="M -14 0 L 0-14 L 14 0 L 0 14 L -14 0 z" /></g></g><g transform="translate(0,0) scale(1)"><g class="flash_g" fill="#ff1493" stroke="#ff1493" stroke-width="1"><circle cx="30" cy="180" r="6" /></g><g fill="none" stroke="#a0a0a0" stroke-width="1"><circle cx="30" cy="180" r="6" /></g></g><g transform="translate(240,60) scale(0.6)"><g fill="#ffffff" stroke="#a0a0a0" stroke-width="1"><rect x="-14" y="178" width="28" height="28" rx="4" ry="4" /><rect x="-14" y="146" width="28" height="28" rx="4" ry="4" /><rect x="-14" y="114" width="28" height="28" rx="4" ry="4" /><rect x="-14" y="82" width="28" height="28" rx="4" ry="4" /><rect x="-14" y="50" width="28" height="28" rx="4" ry="4" /><rect x="-14" y="18" width="28" height="28" rx="4" ry="4" /><rect x="-14" y="-14" width="28" height="28" rx="4" ry="4" /></g><g font-size="9" font-family="Verdana" fill="#888888"><text id="" x="-22" y="192" dominant-baseline="central" text-anchor="middle">0</text><text id="" x="-22" y="160" dominant-baseline="central" text-anchor="middle">1</text><text id="" x="-22" y="128" dominant-baseline="central" text-anchor="middle">2</text><text id="" x="-22" y="96" dominant-baseline="central" text-anchor="middle">3</text><text id="" x="-22" y="64" dominant-baseline="central" text-anchor="middle">4</text><text id="" x="-22" y="32" dominant-baseline="central" text-anchor="middle">5</text><text id="" x="-22" y="0" dominant-baseline="central" text-anchor="middle">6</text></g></g><g transform="translate(240,60) scale(0.6)"><g class="flash_g" fill="#ff1493" stroke="#ff1493" stroke-width="1"><rect x="-14" y="178" width="28" height="28" rx="4" ry="4" /></g><g fill="none" stroke="#a0a0a0" stroke-width="1"><rect x="-14" y="178" width="28" height="28" rx="4" ry="4" /></g></g><g transform="translate(240,60) scale(0.6)"><g class="flash_g" transform="translate(14,192) rotate(90)" fill="#ff1493"><path d="M 0 0 L 8 -10 L 4 -10 L 4 -26 L -4 -26 L -4 -10 L -8 -10 z"/></g></g><g transform="translate(240,60) scale(0.6)"><g stroke-width="0"><circle cx="0" cy="192" r="10" fill="#d0d0d0" id="var_S_1__0" /></g><g font-size="14" font-family="sans-serif" fill="#888888"><text id="text_S_1__0" x="0" y="192" dominant-baseline="central" text-anchor="middle">3</text></g><animateMotion xlink:href="#var_S_1__0" path="M0 -80 L 0 0" dur="0.9s" repeatCount="1"/><animateMotion xlink:href="#text_S_1__0" path="M0 -80 L 0 0" dur="0.9s" repeatCount="1"/><g fill="none" stroke="#60a0ff" stroke-width="4" stroke-linecap="round" stroke-dasharray="0.1, 8"><path class="for_print" d="M 0 126 L 0 178"  marker-end="url(#token_arrow)"/></g></g></g><text x="16" y="256" font-size="16" text-anchor="middle" fill="#888888" font-family="sans-serif" >1-3</text><text x="140" y="440" font-size="9" text-anchor="middle" font-family="SimSun, 宋体, serif">将第 0 个点 3 压入栈</text><rect x ="320" y="236" width="280" height="220" fill="#ffffff" stroke="#888888" stroke-width="1"/><path fill="#0088e0" d="M 612 346 L 612 326 L 632 346 L 612 366 z" /><g transform="translate(320,236)"><g transform="translate(0,0) scale(1)"><g stroke="#e0e0ff" stroke-width="1"><line x1="30"  y1="180" x2="170" y2="145" stroke-linecap="round"/><line x1="170"  y1="145" x2="30" y2="180" stroke-linecap="round"/><line x1="30"  y1="180" x2="210" y2="100" stroke-linecap="round"/><line x1="210"  y1="100" x2="30" y2="180" stroke-linecap="round"/><line x1="30"  y1="180" x2="170" y2="100" stroke-linecap="round"/><line x1="170"  y1="100" x2="30" y2="180" stroke-linecap="round"/><line x1="30"  y1="180" x2="120" y2="120" stroke-linecap="round"/><line x1="120"  y1="120" x2="30" y2="180" stroke-linecap="round"/><line x1="30"  y1="180" x2="170" y2="40" stroke-linecap="round"/><line x1="170"  y1="40" x2="30" y2="180" stroke-linecap="round"/><line x1="30"  y1="180" x2="110" y2="80" stroke-linecap="round"/><line x1="110"  y1="80" x2="30" y2="180" stroke-linecap="round"/><line x1="30"  y1="180" x2="70" y2="120" stroke-linecap="round"/><line x1="70"  y1="120" x2="30" y2="180" stroke-linecap="round"/><line x1="30"  y1="180" x2="100" y2="30" stroke-linecap="round"/><line x1="100"  y1="30" x2="30" y2="180" stroke-linecap="round"/><line x1="30"  y1="180" x2="60" y2="50" stroke-linecap="round"/><line x1="60"  y1="50" x2="30" y2="180" stroke-linecap="round"/><line x1="30"  y1="180" x2="20" y2="100" stroke-linecap="round"/></g></g><g transform="translate(0,0) scale(1)"><g stroke="#0000ff" stroke-width="1"><line x1="30"  y1="180" x2="170" y2="145" stroke-linecap="round"/></g></g><g transform="translate(0,0) scale(1)"><g fill="#ffffff" stroke="#a0a0a0" stroke-width="1"><circle cx="210" cy="100" r="6" /><circle cx="70" cy="120" r="6" /><circle cx="20" cy="100" r="6" /><circle cx="30" cy="180" r="6" /><circle cx="170" cy="40" r="6" /><circle cx="170" cy="100" r="6" /><circle cx="110" cy="80" r="6" /><circle cx="100" cy="30" r="6" /><circle cx="60" cy="50" r="6" /><circle cx="170" cy="145" r="6" /><circle cx="120" cy="120" r="6" /></g><g font-size="8" font-family="sans-serif" fill="#888888"><text x="210" y="88" dominant-baseline="central" text-anchor="middle">0</text><text x="70" y="108" dominant-baseline="central" text-anchor="middle">1</text><text x="20" y="88" dominant-baseline="central" text-anchor="middle">2</text><text x="30" y="168" dominant-baseline="central" text-anchor="middle">3</text><text x="170" y="28" dominant-baseline="central" text-anchor="middle">4</text><text x="170" y="88" dominant-baseline="central" text-anchor="middle">5</text><text x="110" y="68" dominant-baseline="central" text-anchor="middle">6</text><text x="100" y="18" dominant-baseline="central" text-anchor="middle">7</text><text x="60" y="38" dominant-baseline="central" text-anchor="middle">8</text><text x="170" y="133" dominant-baseline="central" text-anchor="middle">9</text><text x="120" y="108" dominant-baseline="central" text-anchor="middle">10</text></g></g><g transform="translate(252,28) scale(1)"><g fill="#ffffff" stroke="#a0a0a0" stroke-width="1"><path d="M -14 0 L 0-14 L 14 0 L 0 14 L -14 0 z" /></g></g><g transform="translate(0,0) scale(1)"><g class="flash_g" fill="#ff1493" stroke="#ff1493" stroke-width="1"><circle cx="170" cy="145" r="6" /></g><g fill="none" stroke="#a0a0a0" stroke-width="1"><circle cx="170" cy="145" r="6" /></g></g><g transform="translate(240,60) scale(0.6)"><g fill="#ffffff" stroke="#a0a0a0" stroke-width="1"><rect x="-14" y="178" width="28" height="28" rx="4" ry="4" /><rect x="-14" y="146" width="28" height="28" rx="4" ry="4" /><rect x="-14" y="114" width="28" height="28" rx="4" ry="4" /><rect x="-14" y="82" width="28" height="28" rx="4" ry="4" /><rect x="-14" y="50" width="28" height="28" rx="4" ry="4" /><rect x="-14" y="18" width="28" height="28" rx="4" ry="4" /><rect x="-14" y="-14" width="28" height="28" rx="4" ry="4" /></g><g font-size="9" font-family="Verdana" fill="#888888"><text id="" x="-22" y="192" dominant-baseline="central" text-anchor="middle">0</text><text id="" x="-22" y="160" dominant-baseline="central" text-anchor="middle">1</text><text id="" x="-22" y="128" dominant-baseline="central" text-anchor="middle">2</text><text id="" x="-22" y="96" dominant-baseline="central" text-anchor="middle">3</text><text id="" x="-22" y="64" dominant-baseline="central" text-anchor="middle">4</text><text id="" x="-22" y="32" dominant-baseline="central" text-anchor="middle">5</text><text id="" x="-22" y="0" dominant-baseline="central" text-anchor="middle">6</text></g></g><g transform="translate(240,60) scale(0.6)"><g class="flash_g" fill="#ff1493" stroke="#ff1493" stroke-width="1"><rect x="-14" y="146" width="28" height="28" rx="4" ry="4" /></g><g fill="none" stroke="#a0a0a0" stroke-width="1"><rect x="-14" y="146" width="28" height="28" rx="4" ry="4" /></g></g><g transform="translate(240,60) scale(0.6)"><g class="flash_g" transform="translate(14,160) rotate(90)" fill="#ff1493"><path d="M 0 0 L 8 -10 L 4 -10 L 4 -26 L -4 -26 L -4 -10 L -8 -10 z"/></g></g><g transform="translate(240,60) scale(0.6)"><g stroke-width="0"><circle cx="0" cy="192" r="10" fill="#d0d0d0" id="var_S_2__0" /><circle cx="0" cy="160" r="10" fill="#d0d0d0" id="var_S_2__1" /></g><g font-size="14" font-family="sans-serif" fill="#888888"><text id="text_S_2__0" x="0" y="192" dominant-baseline="central" text-anchor="middle">3</text><text id="text_S_2__1" x="0" y="160" dominant-baseline="central" text-anchor="middle">9</text></g><animateMotion xlink:href="#var_S_2__1" path="M0 -80 L 0 0" dur="0.9s" repeatCount="1"/><animateMotion xlink:href="#text_S_2__1" path="M0 -80 L 0 0" dur="0.9s" repeatCount="1"/><g fill="none" stroke="#60a0ff" stroke-width="4" stroke-linecap="round" stroke-dasharray="0.1, 8"><path class="for_print" d="M 0 94 L 0 146"  marker-end="url(#token_arrow)"/></g></g></g><text x="336" y="256" font-size="16" text-anchor="middle" fill="#888888" font-family="sans-serif" >1-4</text><text x="460" y="440" font-size="9" text-anchor="middle" font-family="SimSun, 宋体, serif">将第 1 个点 9 压入栈</text><rect x ="0" y="472" width="280" height="220" fill="#ffffff" stroke="#888888" stroke-width="1"/><g transform="translate(0,472)"><g transform="translate(0,0) scale(1)"><g stroke="#e0e0ff" stroke-width="1"><line x1="30"  y1="180" x2="170" y2="145" stroke-linecap="round"/><line x1="170"  y1="145" x2="30" y2="180" stroke-linecap="round"/><line x1="30"  y1="180" x2="210" y2="100" stroke-linecap="round"/><line x1="210"  y1="100" x2="30" y2="180" stroke-linecap="round"/><line x1="30"  y1="180" x2="170" y2="100" stroke-linecap="round"/><line x1="170"  y1="100" x2="30" y2="180" stroke-linecap="round"/><line x1="30"  y1="180" x2="120" y2="120" stroke-linecap="round"/><line x1="120"  y1="120" x2="30" y2="180" stroke-linecap="round"/><line x1="30"  y1="180" x2="170" y2="40" stroke-linecap="round"/><line x1="170"  y1="40" x2="30" y2="180" stroke-linecap="round"/><line x1="30"  y1="180" x2="110" y2="80" stroke-linecap="round"/><line x1="110"  y1="80" x2="30" y2="180" stroke-linecap="round"/><line x1="30"  y1="180" x2="70" y2="120" stroke-linecap="round"/><line x1="70"  y1="120" x2="30" y2="180" stroke-linecap="round"/><line x1="30"  y1="180" x2="100" y2="30" stroke-linecap="round"/><line x1="100"  y1="30" x2="30" y2="180" stroke-linecap="round"/><line x1="30"  y1="180" x2="60" y2="50" stroke-linecap="round"/><line x1="60"  y1="50" x2="30" y2="180" stroke-linecap="round"/><line x1="30"  y1="180" x2="20" y2="100" stroke-linecap="round"/></g></g><g transform="translate(0,0) scale(1)"><g stroke="#0000ff" stroke-width="1"><line x1="30"  y1="180" x2="170" y2="145" stroke-linecap="round"/><line x1="170"  y1="145" x2="210" y2="100" stroke-linecap="round"/></g></g><g transform="translate(0,0) scale(1)"><g fill="#ffffff" stroke="#a0a0a0" stroke-width="1"><circle cx="210" cy="100" r="6" /><circle cx="70" cy="120" r="6" /><circle cx="20" cy="100" r="6" /><circle cx="30" cy="180" r="6" /><circle cx="170" cy="40" r="6" /><circle cx="170" cy="100" r="6" /><circle cx="110" cy="80" r="6" /><circle cx="100" cy="30" r="6" /><circle cx="60" cy="50" r="6" /><circle cx="170" cy="145" r="6" /><circle cx="120" cy="120" r="6" /></g><g font-size="8" font-family="sans-serif" fill="#888888"><text x="210" y="88" dominant-baseline="central" text-anchor="middle">0</text><text x="70" y="108" dominant-baseline="central" text-anchor="middle">1</text><text x="20" y="88" dominant-baseline="central" text-anchor="middle">2</text><text x="30" y="168" dominant-baseline="central" text-anchor="middle">3</text><text x="170" y="28" dominant-baseline="central" text-anchor="middle">4</text><text x="170" y="88" dominant-baseline="central" text-anchor="middle">5</text><text x="110" y="68" dominant-baseline="central" text-anchor="middle">6</text><text x="100" y="18" dominant-baseline="central" text-anchor="middle">7</text><text x="60" y="38" dominant-baseline="central" text-anchor="middle">8</text><text x="170" y="133" dominant-baseline="central" text-anchor="middle">9</text><text x="120" y="108" dominant-baseline="central" text-anchor="middle">10</text></g></g><g transform="translate(252,28) scale(1)"><g fill="#ffffff" stroke="#a0a0a0" stroke-width="1"><path d="M -14 0 L 0-14 L 14 0 L 0 14 L -14 0 z" /></g></g><g transform="translate(0,0) scale(1)"><g class="flash_g" fill="#ff1493" stroke="#ff1493" stroke-width="1"><circle cx="210" cy="100" r="6" /></g><g fill="none" stroke="#a0a0a0" stroke-width="1"><circle cx="210" cy="100" r="6" /></g></g><g transform="translate(240,60) scale(0.6)"><g fill="#ffffff" stroke="#a0a0a0" stroke-width="1"><rect x="-14" y="178" width="28" height="28" rx="4" ry="4" /><rect x="-14" y="146" width="28" height="28" rx="4" ry="4" /><rect x="-14" y="114" width="28" height="28" rx="4" ry="4" /><rect x="-14" y="82" width="28" height="28" rx="4" ry="4" /><rect x="-14" y="50" width="28" height="28" rx="4" ry="4" /><rect x="-14" y="18" width="28" height="28" rx="4" ry="4" /><rect x="-14" y="-14" width="28" height="28" rx="4" ry="4" /></g><g font-size="9" font-family="Verdana" fill="#888888"><text id="" x="-22" y="192" dominant-baseline="central" text-anchor="middle">0</text><text id="" x="-22" y="160" dominant-baseline="central" text-anchor="middle">1</text><text id="" x="-22" y="128" dominant-baseline="central" text-anchor="middle">2</text><text id="" x="-22" y="96" dominant-baseline="central" text-anchor="middle">3</text><text id="" x="-22" y="64" dominant-baseline="central" text-anchor="middle">4</text><text id="" x="-22" y="32" dominant-baseline="central" text-anchor="middle">5</text><text id="" x="-22" y="0" dominant-baseline="central" text-anchor="middle">6</text></g></g><g transform="translate(240,60) scale(0.6)"><g class="flash_g" fill="#ff1493" stroke="#ff1493" stroke-width="1"><rect x="-14" y="114" width="28" height="28" rx="4" ry="4" /></g><g fill="none" stroke="#a0a0a0" stroke-width="1"><rect x="-14" y="114" width="28" height="28" rx="4" ry="4" /></g></g><g transform="translate(240,60) scale(0.6)"><g class="flash_g" transform="translate(14,128) rotate(90)" fill="#ff1493"><path d="M 0 0 L 8 -10 L 4 -10 L 4 -26 L -4 -26 L -4 -10 L -8 -10 z"/></g></g><g transform="translate(240,60) scale(0.6)"><g stroke-width="0"><circle cx="0" cy="192" r="10" fill="#d0d0d0" id="var_S_3__0" /><circle cx="0" cy="160" r="10" fill="#d0d0d0" id="var_S_3__1" /><circle cx="0" cy="128" r="10" fill="#d0d0d0" id="var_S_3__2" /></g><g font-size="14" font-family="sans-serif" fill="#888888"><text id="text_S_3__0" x="0" y="192" dominant-baseline="central" text-anchor="middle">3</text><text id="text_S_3__1" x="0" y="160" dominant-baseline="central" text-anchor="middle">9</text><text id="text_S_3__2" x="0" y="128" dominant-baseline="central" text-anchor="middle">0</text></g><animateMotion xlink:href="#var_S_3__2" path="M0 -80 L 0 0" dur="0.9s" repeatCount="1"/><animateMotion xlink:href="#text_S_3__2" path="M0 -80 L 0 0" dur="0.9s" repeatCount="1"/><g fill="none" stroke="#60a0ff" stroke-width="4" stroke-linecap="round" stroke-dasharray="0.1, 8"><path class="for_print" d="M 0 62 L 0 114"  marker-end="url(#token_arrow)"/></g></g></g><text x="16" y="492" font-size="16" text-anchor="middle" fill="#888888" font-family="sans-serif" >1-5</text><text x="140" y="676" font-size="9" text-anchor="middle" font-family="SimSun, 宋体, serif">将第 2 个点 0 压入栈</text></svg>

