<?xml version="1.0" encoding="UTF-8" standalone="no"?>
<!--?xml version="1.0" encoding="utf-8"?-->

<!-- Generator: Adobe Illustrator 18.1.1, SVG Export Plug-In . SVG Version: 6.00 Build 0)  -->

<svg
   xmlns:dc="http://purl.org/dc/elements/1.1/"
   xmlns:cc="http://creativecommons.org/ns#"
   xmlns:rdf="http://www.w3.org/1999/02/22-rdf-syntax-ns#"
   xmlns:svg="http://www.w3.org/2000/svg"
   xmlns="http://www.w3.org/2000/svg"
   xmlns:sodipodi="http://sodipodi.sourceforge.net/DTD/sodipodi-0.dtd"
   xmlns:inkscape="http://www.inkscape.org/namespaces/inkscape"
   version="1.1"
   id="_x32_"
   x="0px"
   y="0px"
   viewBox="0 0 512 512"
   style="width: 40px; height: 40px; opacity: 1;"
   xml:space="preserve"
   sodipodi:docname="icon_info.svg"
   inkscape:version="0.92.4 (5da689c313, 2019-01-14)"><metadata
   id="metadata13"><rdf:RDF><cc:Work
       rdf:about=""><dc:format>image/svg+xml</dc:format><dc:type
         rdf:resource="http://purl.org/dc/dcmitype/StillImage" /></cc:Work></rdf:RDF></metadata><defs
   id="defs11">
	
</defs><sodipodi:namedview
   pagecolor="#ffffff"
   bordercolor="#666666"
   borderopacity="1"
   objecttolerance="10"
   gridtolerance="10"
   guidetolerance="10"
   inkscape:pageopacity="0"
   inkscape:pageshadow="2"
   inkscape:window-width="1693"
   inkscape:window-height="1261"
   id="namedview9"
   showgrid="false"
   inkscape:zoom="0.921875"
   inkscape:cx="285.26074"
   inkscape:cy="253.80859"
   inkscape:window-x="0"
   inkscape:window-y="0"
   inkscape:window-maximized="0"
   inkscape:current-layer="_x32_" />
<style
   type="text/css"
   id="style2">
	.st0{fill:#4B4B4B;}
</style>

<path
   style="opacity:1;fill:#b5b5b5;fill-opacity:1;fill-rule:nonzero;stroke:none;stroke-width:0.123;stroke-linecap:butt;stroke-linejoin:miter;stroke-miterlimit:4;stroke-dasharray:none;stroke-dashoffset:0;stroke-opacity:1;paint-order:stroke fill markers"
   d="M 254.71094 0 A 254.37288 256 0 0 0 0.33984375 256 A 254.37288 256 0 0 0 254.71094 512 A 254.37288 256 0 0 0 509.08398 256 A 254.37288 256 0 0 0 254.71094 0 z M 253.5918 83.080078 C 275.5293 83.080078 294.55534 89.309245 310.66992 101.76758 C 330.847 117.20508 340.93555 138.39779 340.93555 165.3457 C 340.93555 182.27279 335.45117 198.52279 324.48242 214.0957 C 318.38867 222.62696 309.85742 232.10612 298.88867 242.5332 C 280.33659 260.00196 271.06055 282.07487 271.06055 308.75195 L 271.06055 311.18945 C 271.06055 324.73112 264.08659 331.50195 250.13867 331.50195 C 236.32617 331.50195 229.41992 323.44466 229.41992 307.33008 C 229.41992 281.60091 235.51367 259.32487 247.70117 240.50195 C 251.89909 234.13737 258.4668 226.01237 267.4043 216.12695 C 283.6543 198.25195 291.7793 181.5957 291.7793 166.1582 C 291.7793 157.62696 289.74805 150.24674 285.68555 144.01758 C 278.64388 133.04882 267.472 127.56445 252.16992 127.56445 C 240.79492 127.56445 231.38347 131.08529 223.93555 138.12695 C 219.33138 142.46029 214.52409 149.23112 209.51367 158.43945 C 205.18034 166.02279 198.88347 169.81445 190.62305 169.81445 C 184.93555 169.81445 179.722 167.7832 174.98242 163.7207 C 170.51367 159.92904 168.2793 154.91862 168.2793 148.68945 C 168.2793 137.58529 173.76367 125.80404 184.73242 113.3457 C 202.60742 93.168623 225.56055 83.080078 253.5918 83.080078 z M 250.13867 364.00195 C 259.34701 364.00195 267.53972 367.38737 274.7168 374.1582 C 282.0293 381.06446 285.68555 389.59571 285.68555 399.75195 C 285.68555 405.71029 284.26367 411.33007 281.41992 416.61133 C 274.51367 429.20507 263.95117 435.50195 249.73242 435.50195 C 241.20117 435.50195 233.61784 432.72591 226.98242 427.17383 C 218.45117 419.99674 214.18555 410.78841 214.18555 399.54883 C 214.18555 387.76757 218.99284 378.28841 228.60742 371.11133 C 234.972 366.37174 242.14909 364.00195 250.13867 364.00195 z "
   id="path820" /><g
   aria-label="?"
   style="font-style:normal;font-weight:normal;font-size:40px;line-height:1.25;font-family:sans-serif;letter-spacing:0px;word-spacing:0px;fill:#000000;fill-opacity:1;stroke:none"
   id="text825"
   transform="translate(-346.94915,-167.05084)" /></svg>