<!--?xml version="1.0" encoding="utf-8"?-->
<!-- Generator: Adobe Illustrator 15.1.0, SVG Export Plug-In . SVG Version: 6.00 Build 0)  -->

<svg version="1.1" id="_x32_" xmlns="http://www.w3.org/2000/svg" xmlns:xlink="http://www.w3.org/1999/xlink" x="0px" y="0px" width="512px" height="512px" viewBox="0 0 512 512" style="width: 40px; height: 40px; opacity: 1;" xml:space="preserve">
<style type="text/css">

	.st0{fill:#4B4B4B;}

</style>
<g>
	<path class="st0" d="M464,56v40h-40V56H88v40H48V56H0v400h48v-40h40v40h336v-40h40v40h48V56H464z M88,354.672H48v-64h40V354.672z
		 M88,221.328H48v-64h40V221.328z M308.094,266.047l-101.734,60.734c-0.75,0.438-1.656,0.469-2.406,0.031
		c-0.734-0.422-1.203-1.219-1.203-2.094V264v-60.719c0-0.859,0.469-1.656,1.203-2.094c0.75-0.406,1.656-0.391,2.406,0.031
		l101.734,60.75c0.719,0.406,1.156,1.203,1.156,2.031C309.25,264.844,308.813,265.625,308.094,266.047z M464,354.672h-40v-64h40
		V354.672z M464,221.328h-40v-64h40V221.328z" style="fill: rgb(255, 255, 255);"></path>
</g>
</svg>
