<?xml version="1.0" encoding="UTF-8" standalone="no"?>
<svg
xmlns:svg="http://www.w3.org/2000/svg"
xmlns="http://www.w3.org/2000/svg"
xmlns:xlink="http://www.w3.org/1999/xlink"
width ="640"
height ="648"
viewBox ="0 0 640 648"
>
<defs><polygon points="0,0 6,8, 0,16 20,8" id="m_tmpl2"/><marker id="token_arrow"  markerUnits="userSpaceOnUse" markerWidth="20" markerHeight="16" viewBox="0 0 20 16" refX="14" refY="8" orient="auto"><use xlink:href="#m_tmpl2" fill="#60a0ff"/></marker></defs><defs><polygon points="0,0 0,4 0,8 12,4" id="m_tmpl3"/><marker id="link_arrow" markerUnits="strokeWidth" markerWidth="12" markerHeight="8" viewBox="0 0 12 8" refX="12" refY="4" orient="auto"><use xlink:href="#m_tmpl3" fill="#888888"/></marker></defs><rect x ="0" y="0" width="280" height="200" fill="#ffffff" stroke="#888888" stroke-width="1"/><path fill="#0088e0" d="M 292 100 L 292 80 L 312 100 L 292 120 z" /><g transform="translate(0,0)"><g transform="translate(56,120) scale(1)"><g fill="#F0F8FF" stroke-width="0"><rect x="-19" y="-19" width="38" height="38" /></g></g><g transform="translate(56,120) scale(1)"><g fill="#ffffff" stroke="#a0a0a0" stroke-width="1"><rect x="-14" y="-14" width="28" height="28" rx="4" ry="4" /><rect x="18" y="-14" width="28" height="28" rx="4" ry="4" /><rect x="50" y="-14" width="28" height="28" rx="4" ry="4" /><rect x="82" y="-14" width="28" height="28" rx="4" ry="4" /><rect x="114" y="-14" width="28" height="28" rx="4" ry="4" /><rect x="146" y="-14" width="28" height="28" rx="4" ry="4" /><rect x="178" y="-14" width="28" height="28" rx="4" ry="4" /></g><g font-size="9" font-family="Verdana" fill="#888888"><text id="" x="0" y="-22" dominant-baseline="central" text-anchor="middle">0</text><text id="" x="32" y="-22" dominant-baseline="central" text-anchor="middle">1</text><text id="" x="64" y="-22" dominant-baseline="central" text-anchor="middle">2</text><text id="" x="96" y="-22" dominant-baseline="central" text-anchor="middle">3</text><text id="" x="128" y="-22" dominant-baseline="central" text-anchor="middle">4</text><text id="" x="160" y="-22" dominant-baseline="central" text-anchor="middle">5</text><text id="" x="192" y="-22" dominant-baseline="central" text-anchor="middle">6</text></g></g><g transform="translate(56,120) scale(1)"><g class="flash_g" fill="#ff1493" stroke="#ff1493" stroke-width="1"><rect x="-14" y="-14" width="28" height="28" rx="4" ry="4" /><rect x="18" y="-14" width="28" height="28" rx="4" ry="4" /></g><g fill="none" stroke="#a0a0a0" stroke-width="1"><rect x="-14" y="-14" width="28" height="28" rx="4" ry="4" /><rect x="18" y="-14" width="28" height="28" rx="4" ry="4" /></g></g><g transform="translate(56,120) scale(1)"><g stroke-width="0"><circle cx="0" cy="0" r="10" fill="#5797FF" id="var_A_2__0" /><circle cx="32" cy="0" r="10" fill="#4787F7" id="var_A_2__1" /><circle cx="64" cy="0" r="10" fill="#7FBFFF" id="var_A_2__2" /><circle cx="96" cy="0" r="10" fill="#4F8FFF" id="var_A_2__3" /><circle cx="128" cy="0" r="10" fill="#6FAFFF" id="var_A_2__4" /><circle cx="160" cy="0" r="10" fill="#77B7FF" id="var_A_2__5" /><circle cx="192" cy="0" r="10" fill="#87C7FF" id="var_A_2__6" /></g><g font-size="14" font-family="sans-serif" fill="#ffffff"><text id="text_A_2__0" x="0" y="0" dominant-baseline="central" text-anchor="middle">7</text><text id="text_A_2__1" x="32" y="0" dominant-baseline="central" text-anchor="middle">9</text><text id="text_A_2__2" x="64" y="0" dominant-baseline="central" text-anchor="middle">2</text><text id="text_A_2__3" x="96" y="0" dominant-baseline="central" text-anchor="middle">8</text><text id="text_A_2__4" x="128" y="0" dominant-baseline="central" text-anchor="middle">4</text><text id="text_A_2__5" x="160" y="0" dominant-baseline="central" text-anchor="middle">3</text><text id="text_A_2__6" x="192" y="0" dominant-baseline="central" text-anchor="middle">1</text></g><g font-size="14" font-family="sans-serif" fill="#4080f0"><text id="" x="-28" y="0" dominant-baseline="central" text-anchor="end">A</text></g><animateMotion xlink:href="#var_A_2__1" path="M-32 0 L 0 0" dur="0.9s" repeatCount="1"/><animateMotion xlink:href="#text_A_2__1" path="M-32 0 L 0 0" dur="0.9s" repeatCount="1"/><g fill="none" stroke="#60a0ff" stroke-width="4" stroke-linecap="round" stroke-dasharray="0.1, 8"><path class="for_print" d="M 14 0 L 18 0"  marker-end="url(#token_arrow)"/></g><animateMotion xlink:href="#var_A_2__0" path="M 32,0 Q 16,-16 0,0" dur="0.9s" repeatCount="1"/><animateMotion xlink:href="#text_A_2__0" path="M 32,0 Q 16,-16 0,0" dur="0.9s" repeatCount="1"/><g fill="none" stroke="#60a0ff" stroke-width="4" stroke-linecap="round" stroke-dasharray="0.1, 8"><path class="for_print" d="M 22.1005 -9.89949 Q 16 -16 9.89949 -9.89949"  marker-end="url(#token_arrow)"/></g></g><g transform="translate(56,120) scale(1)"><g fill="#4080f0" stroke-width="0"><rect x="-10" y="-85" width="20" height="49" opacity="0.7" rx="2" ry="2" id="bar_A_0" /><rect x="22" y="-99" width="20" height="63" opacity="0.9" rx="2" ry="2" id="bar_A_1" /><rect x="54" y="-50" width="20" height="14" opacity="0.2" rx="2" ry="2" id="bar_A_2" /><rect x="86" y="-92" width="20" height="56" opacity="0.8" rx="2" ry="2" id="bar_A_3" /><rect x="118" y="-64" width="20" height="28" opacity="0.4" rx="2" ry="2" id="bar_A_4" /><rect x="150" y="-57" width="20" height="21" opacity="0.3" rx="2" ry="2" id="bar_A_5" /><rect x="182" y="-43" width="20" height="7" opacity="0.1" rx="2" ry="2" id="bar_A_6" /><animateMotion xlink:href="#bar_A_1" path="M-32 0 L 0 0" dur="0.9s" repeatCount="1"/><animateMotion xlink:href="#bar_A_0" path="M32 0 L 0 0" dur="0.9s" repeatCount="1"/></g></g></g><text x="16" y="20" font-size="16" text-anchor="middle" fill="#888888" font-family="sans-serif" >2-1</text><text x="140" y="184" font-size="9" text-anchor="middle" font-family="SimSun, 宋体, serif">insertion(A, 1)</text><rect x ="320" y="0" width="280" height="200" fill="#ffffff" stroke="#888888" stroke-width="1"/><path fill="#0088e0" d="M 612 100 L 612 80 L 632 100 L 612 120 z" /><g transform="translate(320,0)"><g transform="translate(56,120) scale(1)"><g fill="#F0F8FF" stroke-width="0"><rect x="-19" y="-19" width="70" height="38" /></g></g><g transform="translate(56,120) scale(1)"><g fill="#ffffff" stroke="#a0a0a0" stroke-width="1"><rect x="-14" y="-14" width="28" height="28" rx="4" ry="4" /><rect x="18" y="-14" width="28" height="28" rx="4" ry="4" /><rect x="50" y="-14" width="28" height="28" rx="4" ry="4" /><rect x="82" y="-14" width="28" height="28" rx="4" ry="4" /><rect x="114" y="-14" width="28" height="28" rx="4" ry="4" /><rect x="146" y="-14" width="28" height="28" rx="4" ry="4" /><rect x="178" y="-14" width="28" height="28" rx="4" ry="4" /></g><g font-size="9" font-family="Verdana" fill="#888888"><text id="" x="0" y="-22" dominant-baseline="central" text-anchor="middle">0</text><text id="" x="32" y="-22" dominant-baseline="central" text-anchor="middle">1</text><text id="" x="64" y="-22" dominant-baseline="central" text-anchor="middle">2</text><text id="" x="96" y="-22" dominant-baseline="central" text-anchor="middle">3</text><text id="" x="128" y="-22" dominant-baseline="central" text-anchor="middle">4</text><text id="" x="160" y="-22" dominant-baseline="central" text-anchor="middle">5</text><text id="" x="192" y="-22" dominant-baseline="central" text-anchor="middle">6</text></g></g><g transform="translate(56,120) scale(1)"><g class="flash_g" fill="#ff1493" stroke="#ff1493" stroke-width="1"><rect x="-14" y="-14" width="28" height="28" rx="4" ry="4" /><rect x="18" y="-14" width="28" height="28" rx="4" ry="4" /><rect x="50" y="-14" width="28" height="28" rx="4" ry="4" /></g><g fill="none" stroke="#a0a0a0" stroke-width="1"><rect x="-14" y="-14" width="28" height="28" rx="4" ry="4" /><rect x="18" y="-14" width="28" height="28" rx="4" ry="4" /><rect x="50" y="-14" width="28" height="28" rx="4" ry="4" /></g></g><g transform="translate(56,120) scale(1)"><g stroke-width="0"><circle cx="0" cy="0" r="10" fill="#7FBFFF" id="var_A_3__0" /><circle cx="32" cy="0" r="10" fill="#5797FF" id="var_A_3__1" /><circle cx="64" cy="0" r="10" fill="#4787F7" id="var_A_3__2" /><circle cx="96" cy="0" r="10" fill="#4F8FFF" id="var_A_3__3" /><circle cx="128" cy="0" r="10" fill="#6FAFFF" id="var_A_3__4" /><circle cx="160" cy="0" r="10" fill="#77B7FF" id="var_A_3__5" /><circle cx="192" cy="0" r="10" fill="#87C7FF" id="var_A_3__6" /></g><g font-size="14" font-family="sans-serif" fill="#ffffff"><text id="text_A_3__0" x="0" y="0" dominant-baseline="central" text-anchor="middle">2</text><text id="text_A_3__1" x="32" y="0" dominant-baseline="central" text-anchor="middle">7</text><text id="text_A_3__2" x="64" y="0" dominant-baseline="central" text-anchor="middle">9</text><text id="text_A_3__3" x="96" y="0" dominant-baseline="central" text-anchor="middle">8</text><text id="text_A_3__4" x="128" y="0" dominant-baseline="central" text-anchor="middle">4</text><text id="text_A_3__5" x="160" y="0" dominant-baseline="central" text-anchor="middle">3</text><text id="text_A_3__6" x="192" y="0" dominant-baseline="central" text-anchor="middle">1</text></g><g font-size="14" font-family="sans-serif" fill="#4080f0"><text id="" x="-28" y="0" dominant-baseline="central" text-anchor="end">A</text></g><animateMotion xlink:href="#var_A_3__2" path="M-32 0 L 0 0" dur="0.9s" repeatCount="1"/><animateMotion xlink:href="#text_A_3__2" path="M-32 0 L 0 0" dur="0.9s" repeatCount="1"/><g fill="none" stroke="#60a0ff" stroke-width="4" stroke-linecap="round" stroke-dasharray="0.1, 8"><path class="for_print" d="M 46 0 L 50 0"  marker-end="url(#token_arrow)"/></g><animateMotion xlink:href="#var_A_3__1" path="M-32 0 L 0 0" dur="0.9s" repeatCount="1"/><animateMotion xlink:href="#text_A_3__1" path="M-32 0 L 0 0" dur="0.9s" repeatCount="1"/><g fill="none" stroke="#60a0ff" stroke-width="4" stroke-linecap="round" stroke-dasharray="0.1, 8"><path class="for_print" d="M 14 0 L 18 0"  marker-end="url(#token_arrow)"/></g><animateMotion xlink:href="#var_A_3__0" path="M 64,0 Q 32,-32 0,0" dur="0.9s" repeatCount="1"/><animateMotion xlink:href="#text_A_3__0" path="M 64,0 Q 32,-32 0,0" dur="0.9s" repeatCount="1"/><g fill="none" stroke="#60a0ff" stroke-width="4" stroke-linecap="round" stroke-dasharray="0.1, 8"><path class="for_print" d="M 54.1005 -9.89949 Q 32 -32 9.89949 -9.89949"  marker-end="url(#token_arrow)"/></g></g><g transform="translate(56,120) scale(1)"><g fill="#4080f0" stroke-width="0"><rect x="-10" y="-50" width="20" height="14" opacity="0.2" rx="2" ry="2" id="bar_A_0" /><rect x="22" y="-85" width="20" height="49" opacity="0.7" rx="2" ry="2" id="bar_A_1" /><rect x="54" y="-99" width="20" height="63" opacity="0.9" rx="2" ry="2" id="bar_A_2" /><rect x="86" y="-92" width="20" height="56" opacity="0.8" rx="2" ry="2" id="bar_A_3" /><rect x="118" y="-64" width="20" height="28" opacity="0.4" rx="2" ry="2" id="bar_A_4" /><rect x="150" y="-57" width="20" height="21" opacity="0.3" rx="2" ry="2" id="bar_A_5" /><rect x="182" y="-43" width="20" height="7" opacity="0.1" rx="2" ry="2" id="bar_A_6" /><animateMotion xlink:href="#bar_A_2" path="M-32 0 L 0 0" dur="0.9s" repeatCount="1"/><animateMotion xlink:href="#bar_A_1" path="M-32 0 L 0 0" dur="0.9s" repeatCount="1"/><animateMotion xlink:href="#bar_A_0" path="M64 0 L 0 0" dur="0.9s" repeatCount="1"/></g></g></g><text x="336" y="20" font-size="16" text-anchor="middle" fill="#888888" font-family="sans-serif" >2-2</text><text x="460" y="184" font-size="9" text-anchor="middle" font-family="SimSun, 宋体, serif">insertion(A, 2)</text><rect x ="0" y="216" width="280" height="200" fill="#ffffff" stroke="#888888" stroke-width="1"/><path fill="#0088e0" d="M 292 316 L 292 296 L 312 316 L 292 336 z" /><g transform="translate(0,216)"><g transform="translate(56,120) scale(1)"><g fill="#F0F8FF" stroke-width="0"><rect x="-19" y="-19" width="102" height="38" /></g></g><g transform="translate(56,120) scale(1)"><g fill="#ffffff" stroke="#a0a0a0" stroke-width="1"><rect x="-14" y="-14" width="28" height="28" rx="4" ry="4" /><rect x="18" y="-14" width="28" height="28" rx="4" ry="4" /><rect x="50" y="-14" width="28" height="28" rx="4" ry="4" /><rect x="82" y="-14" width="28" height="28" rx="4" ry="4" /><rect x="114" y="-14" width="28" height="28" rx="4" ry="4" /><rect x="146" y="-14" width="28" height="28" rx="4" ry="4" /><rect x="178" y="-14" width="28" height="28" rx="4" ry="4" /></g><g font-size="9" font-family="Verdana" fill="#888888"><text id="" x="0" y="-22" dominant-baseline="central" text-anchor="middle">0</text><text id="" x="32" y="-22" dominant-baseline="central" text-anchor="middle">1</text><text id="" x="64" y="-22" dominant-baseline="central" text-anchor="middle">2</text><text id="" x="96" y="-22" dominant-baseline="central" text-anchor="middle">3</text><text id="" x="128" y="-22" dominant-baseline="central" text-anchor="middle">4</text><text id="" x="160" y="-22" dominant-baseline="central" text-anchor="middle">5</text><text id="" x="192" y="-22" dominant-baseline="central" text-anchor="middle">6</text></g></g><g transform="translate(56,120) scale(1)"><g class="flash_g" fill="#ff1493" stroke="#ff1493" stroke-width="1"><rect x="-14" y="-14" width="28" height="28" rx="4" ry="4" /><rect x="18" y="-14" width="28" height="28" rx="4" ry="4" /><rect x="50" y="-14" width="28" height="28" rx="4" ry="4" /><rect x="82" y="-14" width="28" height="28" rx="4" ry="4" /></g><g fill="none" stroke="#a0a0a0" stroke-width="1"><rect x="-14" y="-14" width="28" height="28" rx="4" ry="4" /><rect x="18" y="-14" width="28" height="28" rx="4" ry="4" /><rect x="50" y="-14" width="28" height="28" rx="4" ry="4" /><rect x="82" y="-14" width="28" height="28" rx="4" ry="4" /></g></g><g transform="translate(56,120) scale(1)"><g stroke-width="0"><circle cx="0" cy="0" r="10" fill="#7FBFFF" id="var_A_4__0" /><circle cx="32" cy="0" r="10" fill="#5797FF" id="var_A_4__1" /><circle cx="64" cy="0" r="10" fill="#4F8FFF" id="var_A_4__2" /><circle cx="96" cy="0" r="10" fill="#4787F7" id="var_A_4__3" /><circle cx="128" cy="0" r="10" fill="#6FAFFF" id="var_A_4__4" /><circle cx="160" cy="0" r="10" fill="#77B7FF" id="var_A_4__5" /><circle cx="192" cy="0" r="10" fill="#87C7FF" id="var_A_4__6" /></g><g font-size="14" font-family="sans-serif" fill="#ffffff"><text id="text_A_4__0" x="0" y="0" dominant-baseline="central" text-anchor="middle">2</text><text id="text_A_4__1" x="32" y="0" dominant-baseline="central" text-anchor="middle">7</text><text id="text_A_4__2" x="64" y="0" dominant-baseline="central" text-anchor="middle">8</text><text id="text_A_4__3" x="96" y="0" dominant-baseline="central" text-anchor="middle">9</text><text id="text_A_4__4" x="128" y="0" dominant-baseline="central" text-anchor="middle">4</text><text id="text_A_4__5" x="160" y="0" dominant-baseline="central" text-anchor="middle">3</text><text id="text_A_4__6" x="192" y="0" dominant-baseline="central" text-anchor="middle">1</text></g><g font-size="14" font-family="sans-serif" fill="#4080f0"><text id="" x="-28" y="0" dominant-baseline="central" text-anchor="end">A</text></g><animateMotion xlink:href="#var_A_4__3" path="M-32 0 L 0 0" dur="0.9s" repeatCount="1"/><animateMotion xlink:href="#text_A_4__3" path="M-32 0 L 0 0" dur="0.9s" repeatCount="1"/><g fill="none" stroke="#60a0ff" stroke-width="4" stroke-linecap="round" stroke-dasharray="0.1, 8"><path class="for_print" d="M 78 0 L 82 0"  marker-end="url(#token_arrow)"/></g><animateMotion xlink:href="#var_A_4__2" path="M 32,0 Q 16,-16 0,0" dur="0.9s" repeatCount="1"/><animateMotion xlink:href="#text_A_4__2" path="M 32,0 Q 16,-16 0,0" dur="0.9s" repeatCount="1"/><g fill="none" stroke="#60a0ff" stroke-width="4" stroke-linecap="round" stroke-dasharray="0.1, 8"><path class="for_print" d="M 86.1005 -9.89949 Q 80 -16 73.8995 -9.89949"  marker-end="url(#token_arrow)"/></g></g><g transform="translate(56,120) scale(1)"><g fill="#4080f0" stroke-width="0"><rect x="-10" y="-50" width="20" height="14" opacity="0.2" rx="2" ry="2" id="bar_A_0" /><rect x="22" y="-85" width="20" height="49" opacity="0.7" rx="2" ry="2" id="bar_A_1" /><rect x="54" y="-92" width="20" height="56" opacity="0.8" rx="2" ry="2" id="bar_A_2" /><rect x="86" y="-99" width="20" height="63" opacity="0.9" rx="2" ry="2" id="bar_A_3" /><rect x="118" y="-64" width="20" height="28" opacity="0.4" rx="2" ry="2" id="bar_A_4" /><rect x="150" y="-57" width="20" height="21" opacity="0.3" rx="2" ry="2" id="bar_A_5" /><rect x="182" y="-43" width="20" height="7" opacity="0.1" rx="2" ry="2" id="bar_A_6" /><animateMotion xlink:href="#bar_A_3" path="M-32 0 L 0 0" dur="0.9s" repeatCount="1"/><animateMotion xlink:href="#bar_A_2" path="M32 0 L 0 0" dur="0.9s" repeatCount="1"/></g></g></g><text x="16" y="236" font-size="16" text-anchor="middle" fill="#888888" font-family="sans-serif" >2-3</text><text x="140" y="400" font-size="9" text-anchor="middle" font-family="SimSun, 宋体, serif">insertion(A, 3)</text><rect x ="320" y="216" width="280" height="200" fill="#ffffff" stroke="#888888" stroke-width="1"/><path fill="#0088e0" d="M 612 316 L 612 296 L 632 316 L 612 336 z" /><g transform="translate(320,216)"><g transform="translate(56,120) scale(1)"><g fill="#F0F8FF" stroke-width="0"><rect x="-19" y="-19" width="134" height="38" /></g></g><g transform="translate(56,120) scale(1)"><g fill="#ffffff" stroke="#a0a0a0" stroke-width="1"><rect x="-14" y="-14" width="28" height="28" rx="4" ry="4" /><rect x="18" y="-14" width="28" height="28" rx="4" ry="4" /><rect x="50" y="-14" width="28" height="28" rx="4" ry="4" /><rect x="82" y="-14" width="28" height="28" rx="4" ry="4" /><rect x="114" y="-14" width="28" height="28" rx="4" ry="4" /><rect x="146" y="-14" width="28" height="28" rx="4" ry="4" /><rect x="178" y="-14" width="28" height="28" rx="4" ry="4" /></g><g font-size="9" font-family="Verdana" fill="#888888"><text id="" x="0" y="-22" dominant-baseline="central" text-anchor="middle">0</text><text id="" x="32" y="-22" dominant-baseline="central" text-anchor="middle">1</text><text id="" x="64" y="-22" dominant-baseline="central" text-anchor="middle">2</text><text id="" x="96" y="-22" dominant-baseline="central" text-anchor="middle">3</text><text id="" x="128" y="-22" dominant-baseline="central" text-anchor="middle">4</text><text id="" x="160" y="-22" dominant-baseline="central" text-anchor="middle">5</text><text id="" x="192" y="-22" dominant-baseline="central" text-anchor="middle">6</text></g></g><g transform="translate(56,120) scale(1)"><g class="flash_g" fill="#ff1493" stroke="#ff1493" stroke-width="1"><rect x="-14" y="-14" width="28" height="28" rx="4" ry="4" /><rect x="18" y="-14" width="28" height="28" rx="4" ry="4" /><rect x="50" y="-14" width="28" height="28" rx="4" ry="4" /><rect x="82" y="-14" width="28" height="28" rx="4" ry="4" /><rect x="114" y="-14" width="28" height="28" rx="4" ry="4" /></g><g fill="none" stroke="#a0a0a0" stroke-width="1"><rect x="-14" y="-14" width="28" height="28" rx="4" ry="4" /><rect x="18" y="-14" width="28" height="28" rx="4" ry="4" /><rect x="50" y="-14" width="28" height="28" rx="4" ry="4" /><rect x="82" y="-14" width="28" height="28" rx="4" ry="4" /><rect x="114" y="-14" width="28" height="28" rx="4" ry="4" /></g></g><g transform="translate(56,120) scale(1)"><g stroke-width="0"><circle cx="0" cy="0" r="10" fill="#7FBFFF" id="var_A_5__0" /><circle cx="32" cy="0" r="10" fill="#6FAFFF" id="var_A_5__1" /><circle cx="64" cy="0" r="10" fill="#5797FF" id="var_A_5__2" /><circle cx="96" cy="0" r="10" fill="#4F8FFF" id="var_A_5__3" /><circle cx="128" cy="0" r="10" fill="#4787F7" id="var_A_5__4" /><circle cx="160" cy="0" r="10" fill="#77B7FF" id="var_A_5__5" /><circle cx="192" cy="0" r="10" fill="#87C7FF" id="var_A_5__6" /></g><g font-size="14" font-family="sans-serif" fill="#ffffff"><text id="text_A_5__0" x="0" y="0" dominant-baseline="central" text-anchor="middle">2</text><text id="text_A_5__1" x="32" y="0" dominant-baseline="central" text-anchor="middle">4</text><text id="text_A_5__2" x="64" y="0" dominant-baseline="central" text-anchor="middle">7</text><text id="text_A_5__3" x="96" y="0" dominant-baseline="central" text-anchor="middle">8</text><text id="text_A_5__4" x="128" y="0" dominant-baseline="central" text-anchor="middle">9</text><text id="text_A_5__5" x="160" y="0" dominant-baseline="central" text-anchor="middle">3</text><text id="text_A_5__6" x="192" y="0" dominant-baseline="central" text-anchor="middle">1</text></g><g font-size="14" font-family="sans-serif" fill="#4080f0"><text id="" x="-28" y="0" dominant-baseline="central" text-anchor="end">A</text></g><animateMotion xlink:href="#var_A_5__4" path="M-32 0 L 0 0" dur="0.9s" repeatCount="1"/><animateMotion xlink:href="#text_A_5__4" path="M-32 0 L 0 0" dur="0.9s" repeatCount="1"/><g fill="none" stroke="#60a0ff" stroke-width="4" stroke-linecap="round" stroke-dasharray="0.1, 8"><path class="for_print" d="M 110 0 L 114 0"  marker-end="url(#token_arrow)"/></g><animateMotion xlink:href="#var_A_5__3" path="M-32 0 L 0 0" dur="0.9s" repeatCount="1"/><animateMotion xlink:href="#text_A_5__3" path="M-32 0 L 0 0" dur="0.9s" repeatCount="1"/><g fill="none" stroke="#60a0ff" stroke-width="4" stroke-linecap="round" stroke-dasharray="0.1, 8"><path class="for_print" d="M 78 0 L 82 0"  marker-end="url(#token_arrow)"/></g><animateMotion xlink:href="#var_A_5__2" path="M-32 0 L 0 0" dur="0.9s" repeatCount="1"/><animateMotion xlink:href="#text_A_5__2" path="M-32 0 L 0 0" dur="0.9s" repeatCount="1"/><g fill="none" stroke="#60a0ff" stroke-width="4" stroke-linecap="round" stroke-dasharray="0.1, 8"><path class="for_print" d="M 46 0 L 50 0"  marker-end="url(#token_arrow)"/></g><animateMotion xlink:href="#var_A_5__1" path="M 96,0 Q 48,-48 0,0" dur="0.9s" repeatCount="1"/><animateMotion xlink:href="#text_A_5__1" path="M 96,0 Q 48,-48 0,0" dur="0.9s" repeatCount="1"/><g fill="none" stroke="#60a0ff" stroke-width="4" stroke-linecap="round" stroke-dasharray="0.1, 8"><path class="for_print" d="M 118.101 -9.89949 Q 80 -48 41.8995 -9.89949"  marker-end="url(#token_arrow)"/></g></g><g transform="translate(56,120) scale(1)"><g fill="#4080f0" stroke-width="0"><rect x="-10" y="-50" width="20" height="14" opacity="0.2" rx="2" ry="2" id="bar_A_0" /><rect x="22" y="-64" width="20" height="28" opacity="0.4" rx="2" ry="2" id="bar_A_1" /><rect x="54" y="-85" width="20" height="49" opacity="0.7" rx="2" ry="2" id="bar_A_2" /><rect x="86" y="-92" width="20" height="56" opacity="0.8" rx="2" ry="2" id="bar_A_3" /><rect x="118" y="-99" width="20" height="63" opacity="0.9" rx="2" ry="2" id="bar_A_4" /><rect x="150" y="-57" width="20" height="21" opacity="0.3" rx="2" ry="2" id="bar_A_5" /><rect x="182" y="-43" width="20" height="7" opacity="0.1" rx="2" ry="2" id="bar_A_6" /><animateMotion xlink:href="#bar_A_4" path="M-32 0 L 0 0" dur="0.9s" repeatCount="1"/><animateMotion xlink:href="#bar_A_3" path="M-32 0 L 0 0" dur="0.9s" repeatCount="1"/><animateMotion xlink:href="#bar_A_2" path="M-32 0 L 0 0" dur="0.9s" repeatCount="1"/><animateMotion xlink:href="#bar_A_1" path="M96 0 L 0 0" dur="0.9s" repeatCount="1"/></g></g></g><text x="336" y="236" font-size="16" text-anchor="middle" fill="#888888" font-family="sans-serif" >2-4</text><text x="460" y="400" font-size="9" text-anchor="middle" font-family="SimSun, 宋体, serif">insertion(A, 4)</text><rect x ="0" y="432" width="280" height="200" fill="#ffffff" stroke="#888888" stroke-width="1"/><path fill="#0088e0" d="M 292 532 L 292 512 L 312 532 L 292 552 z" /><g transform="translate(0,432)"><g transform="translate(56,120) scale(1)"><g fill="#F0F8FF" stroke-width="0"><rect x="-19" y="-19" width="166" height="38" /></g></g><g transform="translate(56,120) scale(1)"><g fill="#ffffff" stroke="#a0a0a0" stroke-width="1"><rect x="-14" y="-14" width="28" height="28" rx="4" ry="4" /><rect x="18" y="-14" width="28" height="28" rx="4" ry="4" /><rect x="50" y="-14" width="28" height="28" rx="4" ry="4" /><rect x="82" y="-14" width="28" height="28" rx="4" ry="4" /><rect x="114" y="-14" width="28" height="28" rx="4" ry="4" /><rect x="146" y="-14" width="28" height="28" rx="4" ry="4" /><rect x="178" y="-14" width="28" height="28" rx="4" ry="4" /></g><g font-size="9" font-family="Verdana" fill="#888888"><text id="" x="0" y="-22" dominant-baseline="central" text-anchor="middle">0</text><text id="" x="32" y="-22" dominant-baseline="central" text-anchor="middle">1</text><text id="" x="64" y="-22" dominant-baseline="central" text-anchor="middle">2</text><text id="" x="96" y="-22" dominant-baseline="central" text-anchor="middle">3</text><text id="" x="128" y="-22" dominant-baseline="central" text-anchor="middle">4</text><text id="" x="160" y="-22" dominant-baseline="central" text-anchor="middle">5</text><text id="" x="192" y="-22" dominant-baseline="central" text-anchor="middle">6</text></g></g><g transform="translate(56,120) scale(1)"><g class="flash_g" fill="#ff1493" stroke="#ff1493" stroke-width="1"><rect x="-14" y="-14" width="28" height="28" rx="4" ry="4" /><rect x="18" y="-14" width="28" height="28" rx="4" ry="4" /><rect x="50" y="-14" width="28" height="28" rx="4" ry="4" /><rect x="82" y="-14" width="28" height="28" rx="4" ry="4" /><rect x="114" y="-14" width="28" height="28" rx="4" ry="4" /><rect x="146" y="-14" width="28" height="28" rx="4" ry="4" /></g><g fill="none" stroke="#a0a0a0" stroke-width="1"><rect x="-14" y="-14" width="28" height="28" rx="4" ry="4" /><rect x="18" y="-14" width="28" height="28" rx="4" ry="4" /><rect x="50" y="-14" width="28" height="28" rx="4" ry="4" /><rect x="82" y="-14" width="28" height="28" rx="4" ry="4" /><rect x="114" y="-14" width="28" height="28" rx="4" ry="4" /><rect x="146" y="-14" width="28" height="28" rx="4" ry="4" /></g></g><g transform="translate(56,120) scale(1)"><g stroke-width="0"><circle cx="0" cy="0" r="10" fill="#7FBFFF" id="var_A_6__0" /><circle cx="32" cy="0" r="10" fill="#77B7FF" id="var_A_6__1" /><circle cx="64" cy="0" r="10" fill="#6FAFFF" id="var_A_6__2" /><circle cx="96" cy="0" r="10" fill="#5797FF" id="var_A_6__3" /><circle cx="128" cy="0" r="10" fill="#4F8FFF" id="var_A_6__4" /><circle cx="160" cy="0" r="10" fill="#4787F7" id="var_A_6__5" /><circle cx="192" cy="0" r="10" fill="#87C7FF" id="var_A_6__6" /></g><g font-size="14" font-family="sans-serif" fill="#ffffff"><text id="text_A_6__0" x="0" y="0" dominant-baseline="central" text-anchor="middle">2</text><text id="text_A_6__1" x="32" y="0" dominant-baseline="central" text-anchor="middle">3</text><text id="text_A_6__2" x="64" y="0" dominant-baseline="central" text-anchor="middle">4</text><text id="text_A_6__3" x="96" y="0" dominant-baseline="central" text-anchor="middle">7</text><text id="text_A_6__4" x="128" y="0" dominant-baseline="central" text-anchor="middle">8</text><text id="text_A_6__5" x="160" y="0" dominant-baseline="central" text-anchor="middle">9</text><text id="text_A_6__6" x="192" y="0" dominant-baseline="central" text-anchor="middle">1</text></g><g font-size="14" font-family="sans-serif" fill="#4080f0"><text id="" x="-28" y="0" dominant-baseline="central" text-anchor="end">A</text></g><animateMotion xlink:href="#var_A_6__5" path="M-32 0 L 0 0" dur="0.9s" repeatCount="1"/><animateMotion xlink:href="#text_A_6__5" path="M-32 0 L 0 0" dur="0.9s" repeatCount="1"/><g fill="none" stroke="#60a0ff" stroke-width="4" stroke-linecap="round" stroke-dasharray="0.1, 8"><path class="for_print" d="M 142 0 L 146 0"  marker-end="url(#token_arrow)"/></g><animateMotion xlink:href="#var_A_6__4" path="M-32 0 L 0 0" dur="0.9s" repeatCount="1"/><animateMotion xlink:href="#text_A_6__4" path="M-32 0 L 0 0" dur="0.9s" repeatCount="1"/><g fill="none" stroke="#60a0ff" stroke-width="4" stroke-linecap="round" stroke-dasharray="0.1, 8"><path class="for_print" d="M 110 0 L 114 0"  marker-end="url(#token_arrow)"/></g><animateMotion xlink:href="#var_A_6__3" path="M-32 0 L 0 0" dur="0.9s" repeatCount="1"/><animateMotion xlink:href="#text_A_6__3" path="M-32 0 L 0 0" dur="0.9s" repeatCount="1"/><g fill="none" stroke="#60a0ff" stroke-width="4" stroke-linecap="round" stroke-dasharray="0.1, 8"><path class="for_print" d="M 78 0 L 82 0"  marker-end="url(#token_arrow)"/></g><animateMotion xlink:href="#var_A_6__2" path="M-32 0 L 0 0" dur="0.9s" repeatCount="1"/><animateMotion xlink:href="#text_A_6__2" path="M-32 0 L 0 0" dur="0.9s" repeatCount="1"/><g fill="none" stroke="#60a0ff" stroke-width="4" stroke-linecap="round" stroke-dasharray="0.1, 8"><path class="for_print" d="M 46 0 L 50 0"  marker-end="url(#token_arrow)"/></g><animateMotion xlink:href="#var_A_6__1" path="M 128,0 Q 64,-64 0,0" dur="0.9s" repeatCount="1"/><animateMotion xlink:href="#text_A_6__1" path="M 128,0 Q 64,-64 0,0" dur="0.9s" repeatCount="1"/><g fill="none" stroke="#60a0ff" stroke-width="4" stroke-linecap="round" stroke-dasharray="0.1, 8"><path class="for_print" d="M 150.101 -9.89949 Q 96 -64 41.8995 -9.89949"  marker-end="url(#token_arrow)"/></g></g><g transform="translate(56,120) scale(1)"><g fill="#4080f0" stroke-width="0"><rect x="-10" y="-50" width="20" height="14" opacity="0.2" rx="2" ry="2" id="bar_A_0" /><rect x="22" y="-57" width="20" height="21" opacity="0.3" rx="2" ry="2" id="bar_A_1" /><rect x="54" y="-64" width="20" height="28" opacity="0.4" rx="2" ry="2" id="bar_A_2" /><rect x="86" y="-85" width="20" height="49" opacity="0.7" rx="2" ry="2" id="bar_A_3" /><rect x="118" y="-92" width="20" height="56" opacity="0.8" rx="2" ry="2" id="bar_A_4" /><rect x="150" y="-99" width="20" height="63" opacity="0.9" rx="2" ry="2" id="bar_A_5" /><rect x="182" y="-43" width="20" height="7" opacity="0.1" rx="2" ry="2" id="bar_A_6" /><animateMotion xlink:href="#bar_A_5" path="M-32 0 L 0 0" dur="0.9s" repeatCount="1"/><animateMotion xlink:href="#bar_A_4" path="M-32 0 L 0 0" dur="0.9s" repeatCount="1"/><animateMotion xlink:href="#bar_A_3" path="M-32 0 L 0 0" dur="0.9s" repeatCount="1"/><animateMotion xlink:href="#bar_A_2" path="M-32 0 L 0 0" dur="0.9s" repeatCount="1"/><animateMotion xlink:href="#bar_A_1" path="M128 0 L 0 0" dur="0.9s" repeatCount="1"/></g></g></g><text x="16" y="452" font-size="16" text-anchor="middle" fill="#888888" font-family="sans-serif" >2-5</text><text x="140" y="616" font-size="9" text-anchor="middle" font-family="SimSun, 宋体, serif">insertion(A, 5)</text><rect x ="320" y="432" width="280" height="200" fill="#ffffff" stroke="#888888" stroke-width="1"/><g transform="translate(320,432)"><g transform="translate(56,120) scale(1)"><g fill="#F0F8FF" stroke-width="0"><rect x="-19" y="-19" width="198" height="38" /></g></g><g transform="translate(56,120) scale(1)"><g fill="#ffffff" stroke="#a0a0a0" stroke-width="1"><rect x="-14" y="-14" width="28" height="28" rx="4" ry="4" /><rect x="18" y="-14" width="28" height="28" rx="4" ry="4" /><rect x="50" y="-14" width="28" height="28" rx="4" ry="4" /><rect x="82" y="-14" width="28" height="28" rx="4" ry="4" /><rect x="114" y="-14" width="28" height="28" rx="4" ry="4" /><rect x="146" y="-14" width="28" height="28" rx="4" ry="4" /><rect x="178" y="-14" width="28" height="28" rx="4" ry="4" /></g><g font-size="9" font-family="Verdana" fill="#888888"><text id="" x="0" y="-22" dominant-baseline="central" text-anchor="middle">0</text><text id="" x="32" y="-22" dominant-baseline="central" text-anchor="middle">1</text><text id="" x="64" y="-22" dominant-baseline="central" text-anchor="middle">2</text><text id="" x="96" y="-22" dominant-baseline="central" text-anchor="middle">3</text><text id="" x="128" y="-22" dominant-baseline="central" text-anchor="middle">4</text><text id="" x="160" y="-22" dominant-baseline="central" text-anchor="middle">5</text><text id="" x="192" y="-22" dominant-baseline="central" text-anchor="middle">6</text></g></g><g transform="translate(56,120) scale(1)"><g class="flash_g" fill="#ff1493" stroke="#ff1493" stroke-width="1"><rect x="-14" y="-14" width="28" height="28" rx="4" ry="4" /><rect x="18" y="-14" width="28" height="28" rx="4" ry="4" /><rect x="50" y="-14" width="28" height="28" rx="4" ry="4" /><rect x="82" y="-14" width="28" height="28" rx="4" ry="4" /><rect x="114" y="-14" width="28" height="28" rx="4" ry="4" /><rect x="146" y="-14" width="28" height="28" rx="4" ry="4" /><rect x="178" y="-14" width="28" height="28" rx="4" ry="4" /></g><g fill="none" stroke="#a0a0a0" stroke-width="1"><rect x="-14" y="-14" width="28" height="28" rx="4" ry="4" /><rect x="18" y="-14" width="28" height="28" rx="4" ry="4" /><rect x="50" y="-14" width="28" height="28" rx="4" ry="4" /><rect x="82" y="-14" width="28" height="28" rx="4" ry="4" /><rect x="114" y="-14" width="28" height="28" rx="4" ry="4" /><rect x="146" y="-14" width="28" height="28" rx="4" ry="4" /><rect x="178" y="-14" width="28" height="28" rx="4" ry="4" /></g></g><g transform="translate(56,120) scale(1)"><g stroke-width="0"><circle cx="0" cy="0" r="10" fill="#87C7FF" id="var_A_7__0" /><circle cx="32" cy="0" r="10" fill="#7FBFFF" id="var_A_7__1" /><circle cx="64" cy="0" r="10" fill="#77B7FF" id="var_A_7__2" /><circle cx="96" cy="0" r="10" fill="#6FAFFF" id="var_A_7__3" /><circle cx="128" cy="0" r="10" fill="#5797FF" id="var_A_7__4" /><circle cx="160" cy="0" r="10" fill="#4F8FFF" id="var_A_7__5" /><circle cx="192" cy="0" r="10" fill="#4787F7" id="var_A_7__6" /></g><g font-size="14" font-family="sans-serif" fill="#ffffff"><text id="text_A_7__0" x="0" y="0" dominant-baseline="central" text-anchor="middle">1</text><text id="text_A_7__1" x="32" y="0" dominant-baseline="central" text-anchor="middle">2</text><text id="text_A_7__2" x="64" y="0" dominant-baseline="central" text-anchor="middle">3</text><text id="text_A_7__3" x="96" y="0" dominant-baseline="central" text-anchor="middle">4</text><text id="text_A_7__4" x="128" y="0" dominant-baseline="central" text-anchor="middle">7</text><text id="text_A_7__5" x="160" y="0" dominant-baseline="central" text-anchor="middle">8</text><text id="text_A_7__6" x="192" y="0" dominant-baseline="central" text-anchor="middle">9</text></g><g font-size="14" font-family="sans-serif" fill="#4080f0"><text id="" x="-28" y="0" dominant-baseline="central" text-anchor="end">A</text></g><animateMotion xlink:href="#var_A_7__6" path="M-32 0 L 0 0" dur="0.9s" repeatCount="1"/><animateMotion xlink:href="#text_A_7__6" path="M-32 0 L 0 0" dur="0.9s" repeatCount="1"/><g fill="none" stroke="#60a0ff" stroke-width="4" stroke-linecap="round" stroke-dasharray="0.1, 8"><path class="for_print" d="M 174 0 L 178 0"  marker-end="url(#token_arrow)"/></g><animateMotion xlink:href="#var_A_7__5" path="M-32 0 L 0 0" dur="0.9s" repeatCount="1"/><animateMotion xlink:href="#text_A_7__5" path="M-32 0 L 0 0" dur="0.9s" repeatCount="1"/><g fill="none" stroke="#60a0ff" stroke-width="4" stroke-linecap="round" stroke-dasharray="0.1, 8"><path class="for_print" d="M 142 0 L 146 0"  marker-end="url(#token_arrow)"/></g><animateMotion xlink:href="#var_A_7__4" path="M-32 0 L 0 0" dur="0.9s" repeatCount="1"/><animateMotion xlink:href="#text_A_7__4" path="M-32 0 L 0 0" dur="0.9s" repeatCount="1"/><g fill="none" stroke="#60a0ff" stroke-width="4" stroke-linecap="round" stroke-dasharray="0.1, 8"><path class="for_print" d="M 110 0 L 114 0"  marker-end="url(#token_arrow)"/></g><animateMotion xlink:href="#var_A_7__3" path="M-32 0 L 0 0" dur="0.9s" repeatCount="1"/><animateMotion xlink:href="#text_A_7__3" path="M-32 0 L 0 0" dur="0.9s" repeatCount="1"/><g fill="none" stroke="#60a0ff" stroke-width="4" stroke-linecap="round" stroke-dasharray="0.1, 8"><path class="for_print" d="M 78 0 L 82 0"  marker-end="url(#token_arrow)"/></g><animateMotion xlink:href="#var_A_7__2" path="M-32 0 L 0 0" dur="0.9s" repeatCount="1"/><animateMotion xlink:href="#text_A_7__2" path="M-32 0 L 0 0" dur="0.9s" repeatCount="1"/><g fill="none" stroke="#60a0ff" stroke-width="4" stroke-linecap="round" stroke-dasharray="0.1, 8"><path class="for_print" d="M 46 0 L 50 0"  marker-end="url(#token_arrow)"/></g><animateMotion xlink:href="#var_A_7__1" path="M-32 0 L 0 0" dur="0.9s" repeatCount="1"/><animateMotion xlink:href="#text_A_7__1" path="M-32 0 L 0 0" dur="0.9s" repeatCount="1"/><g fill="none" stroke="#60a0ff" stroke-width="4" stroke-linecap="round" stroke-dasharray="0.1, 8"><path class="for_print" d="M 14 0 L 18 0"  marker-end="url(#token_arrow)"/></g><animateMotion xlink:href="#var_A_7__0" path="M 192,0 Q 96,-96 0,0" dur="0.9s" repeatCount="1"/><animateMotion xlink:href="#text_A_7__0" path="M 192,0 Q 96,-96 0,0" dur="0.9s" repeatCount="1"/><g fill="none" stroke="#60a0ff" stroke-width="4" stroke-linecap="round" stroke-dasharray="0.1, 8"><path class="for_print" d="M 182.101 -9.89949 Q 96 -96 9.89949 -9.89949"  marker-end="url(#token_arrow)"/></g></g><g transform="translate(56,120) scale(1)"><g fill="#4080f0" stroke-width="0"><rect x="-10" y="-43" width="20" height="7" opacity="0.1" rx="2" ry="2" id="bar_A_0" /><rect x="22" y="-50" width="20" height="14" opacity="0.2" rx="2" ry="2" id="bar_A_1" /><rect x="54" y="-57" width="20" height="21" opacity="0.3" rx="2" ry="2" id="bar_A_2" /><rect x="86" y="-64" width="20" height="28" opacity="0.4" rx="2" ry="2" id="bar_A_3" /><rect x="118" y="-85" width="20" height="49" opacity="0.7" rx="2" ry="2" id="bar_A_4" /><rect x="150" y="-92" width="20" height="56" opacity="0.8" rx="2" ry="2" id="bar_A_5" /><rect x="182" y="-99" width="20" height="63" opacity="0.9" rx="2" ry="2" id="bar_A_6" /><animateMotion xlink:href="#bar_A_6" path="M-32 0 L 0 0" dur="0.9s" repeatCount="1"/><animateMotion xlink:href="#bar_A_5" path="M-32 0 L 0 0" dur="0.9s" repeatCount="1"/><animateMotion xlink:href="#bar_A_4" path="M-32 0 L 0 0" dur="0.9s" repeatCount="1"/><animateMotion xlink:href="#bar_A_3" path="M-32 0 L 0 0" dur="0.9s" repeatCount="1"/><animateMotion xlink:href="#bar_A_2" path="M-32 0 L 0 0" dur="0.9s" repeatCount="1"/><animateMotion xlink:href="#bar_A_1" path="M-32 0 L 0 0" dur="0.9s" repeatCount="1"/><animateMotion xlink:href="#bar_A_0" path="M192 0 L 0 0" dur="0.9s" repeatCount="1"/></g></g></g><text x="336" y="452" font-size="16" text-anchor="middle" fill="#888888" font-family="sans-serif" >2-6</text><text x="460" y="616" font-size="9" text-anchor="middle" font-family="SimSun, 宋体, serif">insertion(A, 6)</text></svg>

