<?xml version="1.0" encoding="UTF-8" standalone="no"?>
<svg
xmlns:svg="http://www.w3.org/2000/svg"
xmlns="http://www.w3.org/2000/svg"
xmlns:xlink="http://www.w3.org/1999/xlink"
width ="640"
height ="864"
viewBox ="0 0 640 864"
>
<defs><polygon points="0,0 6,8, 0,16 20,8" id="m_tmpl2"/><marker id="token_arrow"  markerUnits="userSpaceOnUse" markerWidth="20" markerHeight="16" viewBox="0 0 20 16" refX="14" refY="8" orient="auto"><use xlink:href="#m_tmpl2" fill="#60a0ff"/></marker></defs><defs><polygon points="0,0 0,4 0,8 12,4" id="m_tmpl3"/><marker id="link_arrow" markerUnits="strokeWidth" markerWidth="12" markerHeight="8" viewBox="0 0 12 8" refX="12" refY="4" orient="auto"><use xlink:href="#m_tmpl3" fill="#888888"/></marker></defs><rect x ="0" y="0" width="280" height="200" fill="#ffffff" stroke="#888888" stroke-width="1"/><path fill="#0088e0" d="M 292 100 L 292 80 L 312 100 L 292 120 z" /><g transform="translate(0,0)"><g transform="translate(80,140) scale(1)"><g fill="#ffffff" stroke="#a0a0a0" stroke-width="1"><rect x="-14" y="-14" width="28" height="28" rx="4" ry="4" /></g></g><g transform="translate(140,140) scale(1)"><g fill="#ffffff" stroke="#a0a0a0" stroke-width="1"><rect x="-14" y="-14" width="28" height="28" rx="4" ry="4" /></g></g><g transform="translate(200,140) scale(1)"><g fill="#ffffff" stroke="#a0a0a0" stroke-width="1"><rect x="-14" y="-14" width="28" height="28" rx="4" ry="4" /></g></g><g transform="translate(200,140) scale(1)"><g class="flash_g" fill="#ff1493" stroke="#ff1493" stroke-width="1"><rect x="-14" y="-14" width="28" height="28" rx="4" ry="4" /></g><g fill="none" stroke="#a0a0a0" stroke-width="1"><rect x="-14" y="-14" width="28" height="28" rx="4" ry="4" /></g></g><g transform="translate(80,140) scale(1)"><g class="flash_g" fill="#ffffff" stroke="#ff1493" stroke-width="2"><rect x="-14" y="-14" width="28" height="28" rx="4" ry="4" /></g></g><g transform="translate(140,140) scale(1)"><g class="flash_g" fill="#ffffff" stroke="#ff1493" stroke-width="2"><rect x="-14" y="-14" width="28" height="28" rx="4" ry="4" /></g></g><g transform="translate(80,140) scale(1)"><g stroke-width="0"><circle cx="0" cy="0" r="10" fill="#69A9FF" id="var_a_3__0" /></g><g font-size="14" font-family="sans-serif" fill="#ffffff"><text id="text_a_3__0" x="0" y="0" dominant-baseline="central" text-anchor="middle">38</text></g><g font-size="14" font-family="sans-serif" fill="#4080f0"><text id="" x="0" y="-28" dominant-baseline="central" text-anchor="middle">a</text></g></g><g transform="translate(140,140) scale(1)"><g stroke-width="0"><circle cx="0" cy="0" r="10" fill="#7FBFFF" id="var_b_3__0" /></g><g font-size="14" font-family="sans-serif" fill="#ffffff"><text id="text_b_3__0" x="0" y="0" dominant-baseline="central" text-anchor="middle">16</text></g><g font-size="14" font-family="sans-serif" fill="#4080f0"><text id="" x="0" y="-28" dominant-baseline="central" text-anchor="middle">b</text></g></g><g transform="translate(200,140) scale(1)"><g stroke-width="0"><circle cx="0" cy="0" r="10" fill="#89C9FF" id="var_r_2__0" /></g><g font-size="14" font-family="sans-serif" fill="#ffffff"><text id="text_r_2__0" x="0" y="0" dominant-baseline="central" text-anchor="middle">6</text></g><g font-size="14" font-family="sans-serif" fill="#4080f0"><text id="" x="0" y="-28" dominant-baseline="central" text-anchor="middle">r</text></g></g><g fill="#b0ffd0" stroke="#80b090" stroke-width="1" ><rect x="40" y="20" width="190" height="80" /></g><g fill="#c0e0ff" stroke="#8080b0" stroke-width="1" ><rect x="40" y="20" width="80" height="80" /><rect x="120" y="20" width="80" height="80" /></g></g><text x="16" y="20" font-size="16" text-anchor="middle" fill="#888888" font-family="sans-serif" >2-1</text><text x="140" y="184" font-size="9" text-anchor="middle" font-family="SimSun, 宋体, serif">试着用 16 &#215; 16 的正方形铺满</text><rect x ="320" y="0" width="280" height="200" fill="#ffffff" stroke="#888888" stroke-width="1"/><path fill="#0088e0" d="M 612 100 L 612 80 L 632 100 L 612 120 z" /><g transform="translate(320,0)"><g transform="translate(80,140) scale(1)"><g fill="#ffffff" stroke="#a0a0a0" stroke-width="1"><rect x="-14" y="-14" width="28" height="28" rx="4" ry="4" /></g></g><g transform="translate(140,140) scale(1)"><g fill="#ffffff" stroke="#a0a0a0" stroke-width="1"><rect x="-14" y="-14" width="28" height="28" rx="4" ry="4" /></g></g><g transform="translate(200,140) scale(1)"><g fill="#ffffff" stroke="#a0a0a0" stroke-width="1"><rect x="-14" y="-14" width="28" height="28" rx="4" ry="4" /></g></g><g transform="translate(80,140) scale(1)"><g class="flash_g" fill="#ff8c00" stroke="#ff8c00" stroke-width="1"><rect x="-14" y="-14" width="28" height="28" rx="4" ry="4" /></g><g fill="none" stroke="#a0a0a0" stroke-width="1"><rect x="-14" y="-14" width="28" height="28" rx="4" ry="4" /></g></g><g transform="translate(140,140) scale(1)"><g class="flash_g" fill="#ff8c00" stroke="#ff8c00" stroke-width="1"><rect x="-14" y="-14" width="28" height="28" rx="4" ry="4" /></g><g fill="none" stroke="#a0a0a0" stroke-width="1"><rect x="-14" y="-14" width="28" height="28" rx="4" ry="4" /></g></g><g transform="translate(200,140) scale(1)"><g class="flash_g" fill="#ffffff" stroke="#ff8c00" stroke-width="2"><rect x="-14" y="-14" width="28" height="28" rx="4" ry="4" /></g></g><g transform="translate(80,140) scale(1)"><g stroke-width="0"><circle cx="0" cy="0" r="10" fill="#7FBFFF" id="var_a_4__0" /></g><g font-size="14" font-family="sans-serif" fill="#ffffff"><text id="text_a_4__0" x="0" y="0" dominant-baseline="central" text-anchor="middle">16</text></g><g font-size="14" font-family="sans-serif" fill="#4080f0"><text id="" x="0" y="-28" dominant-baseline="central" text-anchor="middle">a</text></g><animateMotion xlink:href="#var_a_4__0" path="M60 0 L 0 0" dur="0.9s" repeatCount="1"/><animateMotion xlink:href="#text_a_4__0" path="M60 0 L 0 0" dur="0.9s" repeatCount="1"/><g fill="none" stroke="#60a0ff" stroke-width="4" stroke-linecap="round" stroke-dasharray="0.1, 8"><path class="for_print" d="M 46 0 L 14 0"  marker-end="url(#token_arrow)"/></g></g><g transform="translate(140,140) scale(1)"><g stroke-width="0"><circle cx="0" cy="0" r="10" fill="#89C9FF" id="var_b_4__0" /></g><g font-size="14" font-family="sans-serif" fill="#ffffff"><text id="text_b_4__0" x="0" y="0" dominant-baseline="central" text-anchor="middle">6</text></g><g font-size="14" font-family="sans-serif" fill="#4080f0"><text id="" x="0" y="-28" dominant-baseline="central" text-anchor="middle">b</text></g><animateMotion xlink:href="#var_b_4__0" path="M60 0 L 0 0" dur="0.9s" repeatCount="1"/><animateMotion xlink:href="#text_b_4__0" path="M60 0 L 0 0" dur="0.9s" repeatCount="1"/><g fill="none" stroke="#60a0ff" stroke-width="4" stroke-linecap="round" stroke-dasharray="0.1, 8"><path class="for_print" d="M 46 0 L 14 0"  marker-end="url(#token_arrow)"/></g></g><g transform="translate(200,140) scale(1)"><g stroke-width="0"><circle cx="0" cy="0" r="10" fill="#89C9FF" id="var_r_3__0" /></g><g font-size="14" font-family="sans-serif" fill="#ffffff"><text id="text_r_3__0" x="0" y="0" dominant-baseline="central" text-anchor="middle">6</text></g><g font-size="14" font-family="sans-serif" fill="#4080f0"><text id="" x="0" y="-28" dominant-baseline="central" text-anchor="middle">r</text></g></g><g fill="#b0ffd0" stroke="#80b090" stroke-width="1" ><rect x="40" y="20" width="190" height="80" /></g><g fill="#c0e0ff" stroke="#8080b0" stroke-width="1" ><rect x="40" y="20" width="80" height="80" /><rect x="120" y="20" width="80" height="80" /></g></g><text x="336" y="20" font-size="16" text-anchor="middle" fill="#888888" font-family="sans-serif" >2-2</text><text x="460" y="184" font-size="9" text-anchor="middle" font-family="SimSun, 宋体, serif">未被铺满的区域是 16 &#215; 6 的矩形</text><rect x ="0" y="216" width="280" height="200" fill="#ffffff" stroke="#888888" stroke-width="1"/><path fill="#0088e0" d="M 292 316 L 292 296 L 312 316 L 292 336 z" /><g transform="translate(0,216)"><g transform="translate(80,140) scale(1)"><g fill="#ffffff" stroke="#a0a0a0" stroke-width="1"><rect x="-14" y="-14" width="28" height="28" rx="4" ry="4" /></g></g><g transform="translate(140,140) scale(1)"><g fill="#ffffff" stroke="#a0a0a0" stroke-width="1"><rect x="-14" y="-14" width="28" height="28" rx="4" ry="4" /></g></g><g transform="translate(200,140) scale(1)"><g fill="#ffffff" stroke="#a0a0a0" stroke-width="1"><rect x="-14" y="-14" width="28" height="28" rx="4" ry="4" /></g></g><g transform="translate(200,140) scale(1)"><g class="flash_g" fill="#ff1493" stroke="#ff1493" stroke-width="1"><rect x="-14" y="-14" width="28" height="28" rx="4" ry="4" /></g><g fill="none" stroke="#a0a0a0" stroke-width="1"><rect x="-14" y="-14" width="28" height="28" rx="4" ry="4" /></g></g><g transform="translate(80,140) scale(1)"><g class="flash_g" fill="#ffffff" stroke="#ff1493" stroke-width="2"><rect x="-14" y="-14" width="28" height="28" rx="4" ry="4" /></g></g><g transform="translate(140,140) scale(1)"><g class="flash_g" fill="#ffffff" stroke="#ff1493" stroke-width="2"><rect x="-14" y="-14" width="28" height="28" rx="4" ry="4" /></g></g><g transform="translate(80,140) scale(1)"><g stroke-width="0"><circle cx="0" cy="0" r="10" fill="#7FBFFF" id="var_a_5__0" /></g><g font-size="14" font-family="sans-serif" fill="#ffffff"><text id="text_a_5__0" x="0" y="0" dominant-baseline="central" text-anchor="middle">16</text></g><g font-size="14" font-family="sans-serif" fill="#4080f0"><text id="" x="0" y="-28" dominant-baseline="central" text-anchor="middle">a</text></g></g><g transform="translate(140,140) scale(1)"><g stroke-width="0"><circle cx="0" cy="0" r="10" fill="#89C9FF" id="var_b_5__0" /></g><g font-size="14" font-family="sans-serif" fill="#ffffff"><text id="text_b_5__0" x="0" y="0" dominant-baseline="central" text-anchor="middle">6</text></g><g font-size="14" font-family="sans-serif" fill="#4080f0"><text id="" x="0" y="-28" dominant-baseline="central" text-anchor="middle">b</text></g></g><g transform="translate(200,140) scale(1)"><g stroke-width="0"><circle cx="0" cy="0" r="10" fill="#8BCBFF" id="var_r_4__0" /></g><g font-size="14" font-family="sans-serif" fill="#ffffff"><text id="text_r_4__0" x="0" y="0" dominant-baseline="central" text-anchor="middle">4</text></g><g font-size="14" font-family="sans-serif" fill="#4080f0"><text id="" x="0" y="-28" dominant-baseline="central" text-anchor="middle">r</text></g></g><g fill="#b0ffd0" stroke="#80b090" stroke-width="1" ><rect x="40" y="20" width="190" height="80" /></g><g fill="#c0e0ff" stroke="#8080b0" stroke-width="1" ><rect x="40" y="20" width="80" height="80" /><rect x="120" y="20" width="80" height="80" /><rect x="200" y="20" width="30" height="30" /><rect x="200" y="50" width="30" height="30" /></g></g><text x="16" y="236" font-size="16" text-anchor="middle" fill="#888888" font-family="sans-serif" >2-3</text><text x="140" y="400" font-size="9" text-anchor="middle" font-family="SimSun, 宋体, serif">试着用 6 &#215; 6 的正方形铺满</text><rect x ="320" y="216" width="280" height="200" fill="#ffffff" stroke="#888888" stroke-width="1"/><path fill="#0088e0" d="M 612 316 L 612 296 L 632 316 L 612 336 z" /><g transform="translate(320,216)"><g transform="translate(80,140) scale(1)"><g fill="#ffffff" stroke="#a0a0a0" stroke-width="1"><rect x="-14" y="-14" width="28" height="28" rx="4" ry="4" /></g></g><g transform="translate(140,140) scale(1)"><g fill="#ffffff" stroke="#a0a0a0" stroke-width="1"><rect x="-14" y="-14" width="28" height="28" rx="4" ry="4" /></g></g><g transform="translate(200,140) scale(1)"><g fill="#ffffff" stroke="#a0a0a0" stroke-width="1"><rect x="-14" y="-14" width="28" height="28" rx="4" ry="4" /></g></g><g transform="translate(80,140) scale(1)"><g class="flash_g" fill="#ff8c00" stroke="#ff8c00" stroke-width="1"><rect x="-14" y="-14" width="28" height="28" rx="4" ry="4" /></g><g fill="none" stroke="#a0a0a0" stroke-width="1"><rect x="-14" y="-14" width="28" height="28" rx="4" ry="4" /></g></g><g transform="translate(140,140) scale(1)"><g class="flash_g" fill="#ff8c00" stroke="#ff8c00" stroke-width="1"><rect x="-14" y="-14" width="28" height="28" rx="4" ry="4" /></g><g fill="none" stroke="#a0a0a0" stroke-width="1"><rect x="-14" y="-14" width="28" height="28" rx="4" ry="4" /></g></g><g transform="translate(200,140) scale(1)"><g class="flash_g" fill="#ffffff" stroke="#ff8c00" stroke-width="2"><rect x="-14" y="-14" width="28" height="28" rx="4" ry="4" /></g></g><g transform="translate(80,140) scale(1)"><g stroke-width="0"><circle cx="0" cy="0" r="10" fill="#89C9FF" id="var_a_6__0" /></g><g font-size="14" font-family="sans-serif" fill="#ffffff"><text id="text_a_6__0" x="0" y="0" dominant-baseline="central" text-anchor="middle">6</text></g><g font-size="14" font-family="sans-serif" fill="#4080f0"><text id="" x="0" y="-28" dominant-baseline="central" text-anchor="middle">a</text></g><animateMotion xlink:href="#var_a_6__0" path="M60 0 L 0 0" dur="0.9s" repeatCount="1"/><animateMotion xlink:href="#text_a_6__0" path="M60 0 L 0 0" dur="0.9s" repeatCount="1"/><g fill="none" stroke="#60a0ff" stroke-width="4" stroke-linecap="round" stroke-dasharray="0.1, 8"><path class="for_print" d="M 46 0 L 14 0"  marker-end="url(#token_arrow)"/></g></g><g transform="translate(140,140) scale(1)"><g stroke-width="0"><circle cx="0" cy="0" r="10" fill="#8BCBFF" id="var_b_6__0" /></g><g font-size="14" font-family="sans-serif" fill="#ffffff"><text id="text_b_6__0" x="0" y="0" dominant-baseline="central" text-anchor="middle">4</text></g><g font-size="14" font-family="sans-serif" fill="#4080f0"><text id="" x="0" y="-28" dominant-baseline="central" text-anchor="middle">b</text></g><animateMotion xlink:href="#var_b_6__0" path="M60 0 L 0 0" dur="0.9s" repeatCount="1"/><animateMotion xlink:href="#text_b_6__0" path="M60 0 L 0 0" dur="0.9s" repeatCount="1"/><g fill="none" stroke="#60a0ff" stroke-width="4" stroke-linecap="round" stroke-dasharray="0.1, 8"><path class="for_print" d="M 46 0 L 14 0"  marker-end="url(#token_arrow)"/></g></g><g transform="translate(200,140) scale(1)"><g stroke-width="0"><circle cx="0" cy="0" r="10" fill="#8BCBFF" id="var_r_5__0" /></g><g font-size="14" font-family="sans-serif" fill="#ffffff"><text id="text_r_5__0" x="0" y="0" dominant-baseline="central" text-anchor="middle">4</text></g><g font-size="14" font-family="sans-serif" fill="#4080f0"><text id="" x="0" y="-28" dominant-baseline="central" text-anchor="middle">r</text></g></g><g fill="#b0ffd0" stroke="#80b090" stroke-width="1" ><rect x="40" y="20" width="190" height="80" /></g><g fill="#c0e0ff" stroke="#8080b0" stroke-width="1" ><rect x="40" y="20" width="80" height="80" /><rect x="120" y="20" width="80" height="80" /><rect x="200" y="20" width="30" height="30" /><rect x="200" y="50" width="30" height="30" /></g></g><text x="336" y="236" font-size="16" text-anchor="middle" fill="#888888" font-family="sans-serif" >2-4</text><text x="460" y="400" font-size="9" text-anchor="middle" font-family="SimSun, 宋体, serif">未被铺满的区域是 6 &#215; 4 的矩形</text><rect x ="0" y="432" width="280" height="200" fill="#ffffff" stroke="#888888" stroke-width="1"/><path fill="#0088e0" d="M 292 532 L 292 512 L 312 532 L 292 552 z" /><g transform="translate(0,432)"><g transform="translate(80,140) scale(1)"><g fill="#ffffff" stroke="#a0a0a0" stroke-width="1"><rect x="-14" y="-14" width="28" height="28" rx="4" ry="4" /></g></g><g transform="translate(140,140) scale(1)"><g fill="#ffffff" stroke="#a0a0a0" stroke-width="1"><rect x="-14" y="-14" width="28" height="28" rx="4" ry="4" /></g></g><g transform="translate(200,140) scale(1)"><g fill="#ffffff" stroke="#a0a0a0" stroke-width="1"><rect x="-14" y="-14" width="28" height="28" rx="4" ry="4" /></g></g><g transform="translate(200,140) scale(1)"><g class="flash_g" fill="#ff1493" stroke="#ff1493" stroke-width="1"><rect x="-14" y="-14" width="28" height="28" rx="4" ry="4" /></g><g fill="none" stroke="#a0a0a0" stroke-width="1"><rect x="-14" y="-14" width="28" height="28" rx="4" ry="4" /></g></g><g transform="translate(80,140) scale(1)"><g class="flash_g" fill="#ffffff" stroke="#ff1493" stroke-width="2"><rect x="-14" y="-14" width="28" height="28" rx="4" ry="4" /></g></g><g transform="translate(140,140) scale(1)"><g class="flash_g" fill="#ffffff" stroke="#ff1493" stroke-width="2"><rect x="-14" y="-14" width="28" height="28" rx="4" ry="4" /></g></g><g transform="translate(80,140) scale(1)"><g stroke-width="0"><circle cx="0" cy="0" r="10" fill="#89C9FF" id="var_a_7__0" /></g><g font-size="14" font-family="sans-serif" fill="#ffffff"><text id="text_a_7__0" x="0" y="0" dominant-baseline="central" text-anchor="middle">6</text></g><g font-size="14" font-family="sans-serif" fill="#4080f0"><text id="" x="0" y="-28" dominant-baseline="central" text-anchor="middle">a</text></g></g><g transform="translate(140,140) scale(1)"><g stroke-width="0"><circle cx="0" cy="0" r="10" fill="#8BCBFF" id="var_b_7__0" /></g><g font-size="14" font-family="sans-serif" fill="#ffffff"><text id="text_b_7__0" x="0" y="0" dominant-baseline="central" text-anchor="middle">4</text></g><g font-size="14" font-family="sans-serif" fill="#4080f0"><text id="" x="0" y="-28" dominant-baseline="central" text-anchor="middle">b</text></g></g><g transform="translate(200,140) scale(1)"><g stroke-width="0"><circle cx="0" cy="0" r="10" fill="#8DCDFF" id="var_r_6__0" /></g><g font-size="14" font-family="sans-serif" fill="#ffffff"><text id="text_r_6__0" x="0" y="0" dominant-baseline="central" text-anchor="middle">2</text></g><g font-size="14" font-family="sans-serif" fill="#4080f0"><text id="" x="0" y="-28" dominant-baseline="central" text-anchor="middle">r</text></g></g><g fill="#b0ffd0" stroke="#80b090" stroke-width="1" ><rect x="40" y="20" width="190" height="80" /></g><g fill="#c0e0ff" stroke="#8080b0" stroke-width="1" ><rect x="40" y="20" width="80" height="80" /><rect x="120" y="20" width="80" height="80" /><rect x="200" y="20" width="30" height="30" /><rect x="200" y="50" width="30" height="30" /><rect x="200" y="80" width="20" height="20" /></g></g><text x="16" y="452" font-size="16" text-anchor="middle" fill="#888888" font-family="sans-serif" >2-5</text><text x="140" y="616" font-size="9" text-anchor="middle" font-family="SimSun, 宋体, serif">试着用 4 &#215; 4 的正方形铺满</text><rect x ="320" y="432" width="280" height="200" fill="#ffffff" stroke="#888888" stroke-width="1"/><path fill="#0088e0" d="M 612 532 L 612 512 L 632 532 L 612 552 z" /><g transform="translate(320,432)"><g transform="translate(80,140) scale(1)"><g fill="#ffffff" stroke="#a0a0a0" stroke-width="1"><rect x="-14" y="-14" width="28" height="28" rx="4" ry="4" /></g></g><g transform="translate(140,140) scale(1)"><g fill="#ffffff" stroke="#a0a0a0" stroke-width="1"><rect x="-14" y="-14" width="28" height="28" rx="4" ry="4" /></g></g><g transform="translate(200,140) scale(1)"><g fill="#ffffff" stroke="#a0a0a0" stroke-width="1"><rect x="-14" y="-14" width="28" height="28" rx="4" ry="4" /></g></g><g transform="translate(80,140) scale(1)"><g class="flash_g" fill="#ff8c00" stroke="#ff8c00" stroke-width="1"><rect x="-14" y="-14" width="28" height="28" rx="4" ry="4" /></g><g fill="none" stroke="#a0a0a0" stroke-width="1"><rect x="-14" y="-14" width="28" height="28" rx="4" ry="4" /></g></g><g transform="translate(140,140) scale(1)"><g class="flash_g" fill="#ff8c00" stroke="#ff8c00" stroke-width="1"><rect x="-14" y="-14" width="28" height="28" rx="4" ry="4" /></g><g fill="none" stroke="#a0a0a0" stroke-width="1"><rect x="-14" y="-14" width="28" height="28" rx="4" ry="4" /></g></g><g transform="translate(200,140) scale(1)"><g class="flash_g" fill="#ffffff" stroke="#ff8c00" stroke-width="2"><rect x="-14" y="-14" width="28" height="28" rx="4" ry="4" /></g></g><g transform="translate(80,140) scale(1)"><g stroke-width="0"><circle cx="0" cy="0" r="10" fill="#8BCBFF" id="var_a_8__0" /></g><g font-size="14" font-family="sans-serif" fill="#ffffff"><text id="text_a_8__0" x="0" y="0" dominant-baseline="central" text-anchor="middle">4</text></g><g font-size="14" font-family="sans-serif" fill="#4080f0"><text id="" x="0" y="-28" dominant-baseline="central" text-anchor="middle">a</text></g><animateMotion xlink:href="#var_a_8__0" path="M60 0 L 0 0" dur="0.9s" repeatCount="1"/><animateMotion xlink:href="#text_a_8__0" path="M60 0 L 0 0" dur="0.9s" repeatCount="1"/><g fill="none" stroke="#60a0ff" stroke-width="4" stroke-linecap="round" stroke-dasharray="0.1, 8"><path class="for_print" d="M 46 0 L 14 0"  marker-end="url(#token_arrow)"/></g></g><g transform="translate(140,140) scale(1)"><g stroke-width="0"><circle cx="0" cy="0" r="10" fill="#8DCDFF" id="var_b_8__0" /></g><g font-size="14" font-family="sans-serif" fill="#ffffff"><text id="text_b_8__0" x="0" y="0" dominant-baseline="central" text-anchor="middle">2</text></g><g font-size="14" font-family="sans-serif" fill="#4080f0"><text id="" x="0" y="-28" dominant-baseline="central" text-anchor="middle">b</text></g><animateMotion xlink:href="#var_b_8__0" path="M60 0 L 0 0" dur="0.9s" repeatCount="1"/><animateMotion xlink:href="#text_b_8__0" path="M60 0 L 0 0" dur="0.9s" repeatCount="1"/><g fill="none" stroke="#60a0ff" stroke-width="4" stroke-linecap="round" stroke-dasharray="0.1, 8"><path class="for_print" d="M 46 0 L 14 0"  marker-end="url(#token_arrow)"/></g></g><g transform="translate(200,140) scale(1)"><g stroke-width="0"><circle cx="0" cy="0" r="10" fill="#8DCDFF" id="var_r_7__0" /></g><g font-size="14" font-family="sans-serif" fill="#ffffff"><text id="text_r_7__0" x="0" y="0" dominant-baseline="central" text-anchor="middle">2</text></g><g font-size="14" font-family="sans-serif" fill="#4080f0"><text id="" x="0" y="-28" dominant-baseline="central" text-anchor="middle">r</text></g></g><g fill="#b0ffd0" stroke="#80b090" stroke-width="1" ><rect x="40" y="20" width="190" height="80" /></g><g fill="#c0e0ff" stroke="#8080b0" stroke-width="1" ><rect x="40" y="20" width="80" height="80" /><rect x="120" y="20" width="80" height="80" /><rect x="200" y="20" width="30" height="30" /><rect x="200" y="50" width="30" height="30" /><rect x="200" y="80" width="20" height="20" /></g></g><text x="336" y="452" font-size="16" text-anchor="middle" fill="#888888" font-family="sans-serif" >2-6</text><text x="460" y="616" font-size="9" text-anchor="middle" font-family="SimSun, 宋体, serif">未被铺满的区域是 4 &#215; 2 的矩形</text><rect x ="0" y="648" width="280" height="200" fill="#ffffff" stroke="#888888" stroke-width="1"/><path fill="#0088e0" d="M 292 748 L 292 728 L 312 748 L 292 768 z" /><g transform="translate(0,648)"><g transform="translate(80,140) scale(1)"><g fill="#ffffff" stroke="#a0a0a0" stroke-width="1"><rect x="-14" y="-14" width="28" height="28" rx="4" ry="4" /></g></g><g transform="translate(140,140) scale(1)"><g fill="#ffffff" stroke="#a0a0a0" stroke-width="1"><rect x="-14" y="-14" width="28" height="28" rx="4" ry="4" /></g></g><g transform="translate(200,140) scale(1)"><g fill="#ffffff" stroke="#a0a0a0" stroke-width="1"><rect x="-14" y="-14" width="28" height="28" rx="4" ry="4" /></g></g><g transform="translate(200,140) scale(1)"><g class="flash_g" fill="#ff1493" stroke="#ff1493" stroke-width="1"><rect x="-14" y="-14" width="28" height="28" rx="4" ry="4" /></g><g fill="none" stroke="#a0a0a0" stroke-width="1"><rect x="-14" y="-14" width="28" height="28" rx="4" ry="4" /></g></g><g transform="translate(80,140) scale(1)"><g class="flash_g" fill="#ffffff" stroke="#ff1493" stroke-width="2"><rect x="-14" y="-14" width="28" height="28" rx="4" ry="4" /></g></g><g transform="translate(140,140) scale(1)"><g class="flash_g" fill="#ffffff" stroke="#ff1493" stroke-width="2"><rect x="-14" y="-14" width="28" height="28" rx="4" ry="4" /></g></g><g transform="translate(80,140) scale(1)"><g stroke-width="0"><circle cx="0" cy="0" r="10" fill="#8BCBFF" id="var_a_9__0" /></g><g font-size="14" font-family="sans-serif" fill="#ffffff"><text id="text_a_9__0" x="0" y="0" dominant-baseline="central" text-anchor="middle">4</text></g><g font-size="14" font-family="sans-serif" fill="#4080f0"><text id="" x="0" y="-28" dominant-baseline="central" text-anchor="middle">a</text></g></g><g transform="translate(140,140) scale(1)"><g stroke-width="0"><circle cx="0" cy="0" r="10" fill="#8DCDFF" id="var_b_9__0" /></g><g font-size="14" font-family="sans-serif" fill="#ffffff"><text id="text_b_9__0" x="0" y="0" dominant-baseline="central" text-anchor="middle">2</text></g><g font-size="14" font-family="sans-serif" fill="#4080f0"><text id="" x="0" y="-28" dominant-baseline="central" text-anchor="middle">b</text></g></g><g transform="translate(200,140) scale(1)"><g stroke-width="0"><circle cx="0" cy="0" r="10" fill="#8FCFFF" id="var_r_8__0" /></g><g font-size="14" font-family="sans-serif" fill="#ffffff"><text id="text_r_8__0" x="0" y="0" dominant-baseline="central" text-anchor="middle">0</text></g><g font-size="14" font-family="sans-serif" fill="#4080f0"><text id="" x="0" y="-28" dominant-baseline="central" text-anchor="middle">r</text></g></g><g fill="#b0ffd0" stroke="#80b090" stroke-width="1" ><rect x="40" y="20" width="190" height="80" /></g><g fill="#c0e0ff" stroke="#8080b0" stroke-width="1" ><rect x="40" y="20" width="80" height="80" /><rect x="120" y="20" width="80" height="80" /><rect x="200" y="20" width="30" height="30" /><rect x="200" y="50" width="30" height="30" /><rect x="200" y="80" width="20" height="20" /><rect x="220" y="80" width="10" height="10" /><rect x="220" y="90" width="10" height="10" /></g></g><text x="16" y="668" font-size="16" text-anchor="middle" fill="#888888" font-family="sans-serif" >2-7</text><text x="140" y="832" font-size="9" text-anchor="middle" font-family="SimSun, 宋体, serif">试着用 2 &#215; 2 的正方形铺满</text><rect x ="320" y="648" width="280" height="200" fill="#ffffff" stroke="#888888" stroke-width="1"/><g transform="translate(320,648)"><g transform="translate(80,140) scale(1)"><g fill="#ffffff" stroke="#a0a0a0" stroke-width="1"><rect x="-14" y="-14" width="28" height="28" rx="4" ry="4" /></g></g><g transform="translate(140,140) scale(1)"><g fill="#ffffff" stroke="#a0a0a0" stroke-width="1"><rect x="-14" y="-14" width="28" height="28" rx="4" ry="4" /></g></g><g transform="translate(200,140) scale(1)"><g fill="#ffffff" stroke="#a0a0a0" stroke-width="1"><rect x="-14" y="-14" width="28" height="28" rx="4" ry="4" /></g></g><g transform="translate(80,140) scale(1)"><g class="flash_g" fill="#ff8c00" stroke="#ff8c00" stroke-width="1"><rect x="-14" y="-14" width="28" height="28" rx="4" ry="4" /></g><g fill="none" stroke="#a0a0a0" stroke-width="1"><rect x="-14" y="-14" width="28" height="28" rx="4" ry="4" /></g></g><g transform="translate(140,140) scale(1)"><g class="flash_g" fill="#ff8c00" stroke="#ff8c00" stroke-width="1"><rect x="-14" y="-14" width="28" height="28" rx="4" ry="4" /></g><g fill="none" stroke="#a0a0a0" stroke-width="1"><rect x="-14" y="-14" width="28" height="28" rx="4" ry="4" /></g></g><g transform="translate(200,140) scale(1)"><g class="flash_g" fill="#ffffff" stroke="#ff8c00" stroke-width="2"><rect x="-14" y="-14" width="28" height="28" rx="4" ry="4" /></g></g><g transform="translate(80,140) scale(1)"><g stroke-width="0"><circle cx="0" cy="0" r="10" fill="#8DCDFF" id="var_a_10__0" /></g><g font-size="14" font-family="sans-serif" fill="#ffffff"><text id="text_a_10__0" x="0" y="0" dominant-baseline="central" text-anchor="middle">2</text></g><g font-size="14" font-family="sans-serif" fill="#4080f0"><text id="" x="0" y="-28" dominant-baseline="central" text-anchor="middle">a</text></g><animateMotion xlink:href="#var_a_10__0" path="M60 0 L 0 0" dur="0.9s" repeatCount="1"/><animateMotion xlink:href="#text_a_10__0" path="M60 0 L 0 0" dur="0.9s" repeatCount="1"/><g fill="none" stroke="#60a0ff" stroke-width="4" stroke-linecap="round" stroke-dasharray="0.1, 8"><path class="for_print" d="M 46 0 L 14 0"  marker-end="url(#token_arrow)"/></g></g><g transform="translate(140,140) scale(1)"><g stroke-width="0"><circle cx="0" cy="0" r="10" fill="#8FCFFF" id="var_b_10__0" /></g><g font-size="14" font-family="sans-serif" fill="#ffffff"><text id="text_b_10__0" x="0" y="0" dominant-baseline="central" text-anchor="middle">0</text></g><g font-size="14" font-family="sans-serif" fill="#4080f0"><text id="" x="0" y="-28" dominant-baseline="central" text-anchor="middle">b</text></g><animateMotion xlink:href="#var_b_10__0" path="M60 0 L 0 0" dur="0.9s" repeatCount="1"/><animateMotion xlink:href="#text_b_10__0" path="M60 0 L 0 0" dur="0.9s" repeatCount="1"/><g fill="none" stroke="#60a0ff" stroke-width="4" stroke-linecap="round" stroke-dasharray="0.1, 8"><path class="for_print" d="M 46 0 L 14 0"  marker-end="url(#token_arrow)"/></g></g><g transform="translate(200,140) scale(1)"><g stroke-width="0"><circle cx="0" cy="0" r="10" fill="#8FCFFF" id="var_r_9__0" /></g><g font-size="14" font-family="sans-serif" fill="#ffffff"><text id="text_r_9__0" x="0" y="0" dominant-baseline="central" text-anchor="middle">0</text></g><g font-size="14" font-family="sans-serif" fill="#4080f0"><text id="" x="0" y="-28" dominant-baseline="central" text-anchor="middle">r</text></g></g><g fill="#b0ffd0" stroke="#80b090" stroke-width="1" ><rect x="40" y="20" width="190" height="80" /></g><g fill="#c0e0ff" stroke="#8080b0" stroke-width="1" ><rect x="40" y="20" width="80" height="80" /><rect x="120" y="20" width="80" height="80" /><rect x="200" y="20" width="30" height="30" /><rect x="200" y="50" width="30" height="30" /><rect x="200" y="80" width="20" height="20" /><rect x="220" y="80" width="10" height="10" /><rect x="220" y="90" width="10" height="10" /></g></g><text x="336" y="668" font-size="16" text-anchor="middle" fill="#888888" font-family="sans-serif" >2-8</text><text x="460" y="832" font-size="9" text-anchor="middle" font-family="SimSun, 宋体, serif">未被铺满的区域是 2 &#215; 0 的矩形</text></svg>

