<?xml version='1.0' encoding='UTF-8'?>
<svg width="45mm" height="45mm" version="1.1" viewBox="0 0 45 45" xmlns="http://www.w3.org/2000/svg"><path d="M4,4H5V5H4zM5,4H6V5H5zM6,4H7V5H6zM7,4H8V5H7zM8,4H9V5H8zM9,4H10V5H9zM10,4H11V5H10zM12,4H13V5H12zM13,4H14V5H13zM19,4H20V5H19zM20,4H21V5H20zM21,4H22V5H21zM22,4H23V5H22zM27,4H28V5H27zM29,4H30V5H29zM30,4H31V5H30zM31,4H32V5H31zM34,4H35V5H34zM35,4H36V5H35zM36,4H37V5H36zM37,4H38V5H37zM38,4H39V5H38zM39,4H40V5H39zM40,4H41V5H40zM4,5H5V6H4zM10,5H11V6H10zM13,5H14V6H13zM14,5H15V6H14zM17,5H18V6H17zM19,5H20V6H19zM20,5H21V6H20zM21,5H22V6H21zM23,5H24V6H23zM24,5H25V6H24zM25,5H26V6H25zM30,5H31V6H30zM32,5H33V6H32zM34,5H35V6H34zM40,5H41V6H40zM4,6H5V7H4zM6,6H7V7H6zM7,6H8V7H7zM8,6H9V7H8zM10,6H11V7H10zM14,6H15V7H14zM15,6H16V7H15zM16,6H17V7H16zM17,6H18V7H17zM21,6H22V7H21zM22,6H23V7H22zM24,6H25V7H24zM25,6H26V7H25zM28,6H29V7H28zM32,6H33V7H32zM34,6H35V7H34zM36,6H37V7H36zM37,6H38V7H37zM38,6H39V7H38zM40,6H41V7H40zM4,7H5V8H4zM6,7H7V8H6zM7,7H8V8H7zM8,7H9V8H8zM10,7H11V8H10zM12,7H13V8H12zM13,7H14V8H13zM17,7H18V8H17zM22,7H23V8H22zM29,7H30V8H29zM30,7H31V8H30zM31,7H32V8H31zM34,7H35V8H34zM36,7H37V8H36zM37,7H38V8H37zM38,7H39V8H38zM40,7H41V8H40zM4,8H5V9H4zM6,8H7V9H6zM7,8H8V9H7zM8,8H9V9H8zM10,8H11V9H10zM12,8H13V9H12zM14,8H15V9H14zM15,8H16V9H15zM21,8H22V9H21zM22,8H23V9H22zM24,8H25V9H24zM25,8H26V9H25zM27,8H28V9H27zM30,8H31V9H30zM31,8H32V9H31zM32,8H33V9H32zM34,8H35V9H34zM36,8H37V9H36zM37,8H38V9H37zM38,8H39V9H38zM40,8H41V9H40zM4,9H5V10H4zM10,9H11V10H10zM12,9H13V10H12zM13,9H14V10H13zM17,9H18V10H17zM18,9H19V10H18zM23,9H24V10H23zM25,9H26V10H25zM26,9H27V10H26zM28,9H29V10H28zM32,9H33V10H32zM34,9H35V10H34zM40,9H41V10H40zM4,10H5V11H4zM5,10H6V11H5zM6,10H7V11H6zM7,10H8V11H7zM8,10H9V11H8zM9,10H10V11H9zM10,10H11V11H10zM12,10H13V11H12zM14,10H15V11H14zM16,10H17V11H16zM18,10H19V11H18zM20,10H21V11H20zM22,10H23V11H22zM24,10H25V11H24zM26,10H27V11H26zM28,10H29V11H28zM30,10H31V11H30zM32,10H33V11H32zM34,10H35V11H34zM35,10H36V11H35zM36,10H37V11H36zM37,10H38V11H37zM38,10H39V11H38zM39,10H40V11H39zM40,10H41V11H40zM12,11H13V12H12zM14,11H15V12H14zM16,11H17V12H16zM17,11H18V12H17zM18,11H19V12H18zM19,11H20V12H19zM20,11H21V12H20zM21,11H22V12H21zM22,11H23V12H22zM23,11H24V12H23zM25,11H26V12H25zM26,11H27V12H26zM28,11H29V12H28zM30,11H31V12H30zM31,11H32V12H31zM4,12H5V13H4zM8,12H9V13H8zM10,12H11V13H10zM11,12H12V13H11zM12,12H13V13H12zM13,12H14V13H13zM16,12H17V13H16zM18,12H19V13H18zM19,12H20V13H19zM20,12H21V13H20zM21,12H22V13H21zM23,12H24V13H23zM25,12H26V13H25zM27,12H28V13H27zM28,12H29V13H28zM32,12H33V13H32zM33,12H34V13H33zM34,12H35V13H34zM35,12H36V13H35zM36,12H37V13H36zM37,12H38V13H37zM40,12H41V13H40zM5,13H6V14H5zM6,13H7V14H6zM7,13H8V14H7zM8,13H9V14H8zM9,13H10V14H9zM11,13H12V14H11zM15,13H16V14H15zM17,13H18V14H17zM18,13H19V14H18zM22,13H23V14H22zM25,13H26V14H25zM27,13H28V14H27zM31,13H32V14H31zM32,13H33V14H32zM36,13H37V14H36zM39,13H40V14H39zM10,14H11V15H10zM11,14H12V15H11zM14,14H15V15H14zM15,14H16V15H15zM17,14H18V15H17zM19,14H20V15H19zM27,14H28V15H27zM28,14H29V15H28zM31,14H32V15H31zM35,14H36V15H35zM36,14H37V15H36zM38,14H39V15H38zM4,15H5V16H4zM6,15H7V16H6zM7,15H8V16H7zM8,15H9V16H8zM9,15H10V16H9zM11,15H12V16H11zM13,15H14V16H13zM14,15H15V16H14zM15,15H16V16H15zM19,15H20V16H19zM20,15H21V16H20zM21,15H22V16H21zM25,15H26V16H25zM26,15H27V16H26zM27,15H28V16H27zM30,15H31V16H30zM31,15H32V16H31zM34,15H35V16H34zM35,15H36V16H35zM37,15H38V16H37zM38,15H39V16H38zM39,15H40V16H39zM4,16H5V17H4zM6,16H7V17H6zM7,16H8V17H7zM9,16H10V17H9zM10,16H11V17H10zM14,16H15V17H14zM15,16H16V17H15zM20,16H21V17H20zM21,16H22V17H21zM24,16H25V17H24zM25,16H26V17H25zM27,16H28V17H27zM28,16H29V17H28zM31,16H32V17H31zM32,16H33V17H32zM33,16H34V17H33zM34,16H35V17H34zM38,16H39V17H38zM39,16H40V17H39zM40,16H41V17H40zM4,17H5V18H4zM5,17H6V18H5zM12,17H13V18H12zM15,17H16V18H15zM18,17H19V18H18zM19,17H20V18H19zM21,17H22V18H21zM22,17H23V18H22zM25,17H26V18H25zM27,17H28V18H27zM28,17H29V18H28zM29,17H30V18H29zM30,17H31V18H30zM31,17H32V18H31zM32,17H33V18H32zM33,17H34V18H33zM36,17H37V18H36zM37,17H38V18H37zM39,17H40V18H39zM4,18H5V19H4zM5,18H6V19H5zM6,18H7V19H6zM7,18H8V19H7zM9,18H10V19H9zM10,18H11V19H10zM11,18H12V19H11zM15,18H16V19H15zM17,18H18V19H17zM18,18H19V19H18zM19,18H20V19H19zM21,18H22V19H21zM22,18H23V19H22zM24,18H25V19H24zM27,18H28V19H27zM28,18H29V19H28zM31,18H32V19H31zM32,18H33V19H32zM34,18H35V19H34zM35,18H36V19H35zM36,18H37V19H36zM37,18H38V19H37zM38,18H39V19H38zM39,18H40V19H39zM5,19H6V20H5zM6,19H7V20H6zM7,19H8V20H7zM13,19H14V20H13zM16,19H17V20H16zM17,19H18V20H17zM19,19H20V20H19zM20,19H21V20H20zM21,19H22V20H21zM25,19H26V20H25zM27,19H28V20H27zM28,19H29V20H28zM31,19H32V20H31zM34,19H35V20H34zM35,19H36V20H35zM36,19H37V20H36zM38,19H39V20H38zM40,19H41V20H40zM4,20H5V21H4zM6,20H7V21H6zM8,20H9V21H8zM10,20H11V21H10zM16,20H17V21H16zM19,20H20V21H19zM22,20H23V21H22zM24,20H25V21H24zM25,20H26V21H25zM26,20H27V21H26zM27,20H28V21H27zM28,20H29V21H28zM33,20H34V21H33zM34,20H35V21H34zM35,20H36V21H35zM37,20H38V21H37zM38,20H39V21H38zM39,20H40V21H39zM5,21H6V22H5zM7,21H8V22H7zM8,21H9V22H8zM9,21H10V22H9zM11,21H12V22H11zM12,21H13V22H12zM14,21H15V22H14zM15,21H16V22H15zM16,21H17V22H16zM20,21H21V22H20zM21,21H22V22H21zM22,21H23V22H22zM25,21H26V22H25zM27,21H28V22H27zM30,21H31V22H30zM31,21H32V22H31zM32,21H33V22H32zM33,21H34V22H33zM36,21H37V22H36zM37,21H38V22H37zM38,21H39V22H38zM39,21H40V22H39zM4,22H5V23H4zM7,22H8V23H7zM8,22H9V23H8zM9,22H10V23H9zM10,22H11V23H10zM11,22H12V23H11zM13,22H14V23H13zM15,22H16V23H15zM16,22H17V23H16zM17,22H18V23H17zM20,22H21V23H20zM22,22H23V23H22zM27,22H28V23H27zM29,22H30V23H29zM30,22H31V23H30zM31,22H32V23H31zM32,22H33V23H32zM37,22H38V23H37zM4,23H5V24H4zM6,23H7V24H6zM8,23H9V24H8zM9,23H10V24H9zM12,23H13V24H12zM14,23H15V24H14zM16,23H17V24H16zM17,23H18V24H17zM18,23H19V24H18zM21,23H22V24H21zM22,23H23V24H22zM23,23H24V24H23zM24,23H25V24H24zM25,23H26V24H25zM27,23H28V24H27zM28,23H29V24H28zM31,23H32V24H31zM32,23H33V24H32zM34,23H35V24H34zM35,23H36V24H35zM36,23H37V24H36zM37,23H38V24H37zM38,23H39V24H38zM39,23H40V24H39zM5,24H6V25H5zM6,24H7V25H6zM8,24H9V25H8zM9,24H10V25H9zM10,24H11V25H10zM12,24H13V25H12zM13,24H14V25H13zM16,24H17V25H16zM17,24H18V25H17zM18,24H19V25H18zM19,24H20V25H19zM20,24H21V25H20zM21,24H22V25H21zM24,24H25V25H24zM25,24H26V25H25zM26,24H27V25H26zM28,24H29V25H28zM31,24H32V25H31zM32,24H33V25H32zM33,24H34V25H33zM34,24H35V25H34zM35,24H36V25H35zM37,24H38V25H37zM38,24H39V25H38zM6,25H7V26H6zM7,25H8V26H7zM12,25H13V26H12zM13,25H14V26H13zM14,25H15V26H14zM15,25H16V26H15zM16,25H17V26H16zM19,25H20V26H19zM21,25H22V26H21zM22,25H23V26H22zM26,25H27V26H26zM27,25H28V26H27zM29,25H30V26H29zM30,25H31V26H30zM31,25H32V26H31zM32,25H33V26H32zM33,25H34V26H33zM35,25H36V26H35zM36,25H37V26H36zM4,26H5V27H4zM5,26H6V27H5zM6,26H7V27H6zM8,26H9V27H8zM9,26H10V27H9zM10,26H11V27H10zM12,26H13V27H12zM13,26H14V27H13zM18,26H19V27H18zM19,26H20V27H19zM20,26H21V27H20zM22,26H23V27H22zM25,26H26V27H25zM26,26H27V27H26zM27,26H28V27H27zM28,26H29V27H28zM31,26H32V27H31zM33,26H34V27H33zM35,26H36V27H35zM36,26H37V27H36zM37,26H38V27H37zM38,26H39V27H38zM39,26H40V27H39zM4,27H5V28H4zM5,27H6V28H5zM6,27H7V28H6zM7,27H8V28H7zM8,27H9V28H8zM11,27H12V28H11zM13,27H14V28H13zM14,27H15V28H14zM17,27H18V28H17zM20,27H21V28H20zM24,27H25V28H24zM25,27H26V28H25zM28,27H29V28H28zM30,27H31V28H30zM31,27H32V28H31zM32,27H33V28H32zM33,27H34V28H33zM34,27H35V28H34zM35,27H36V28H35zM36,27H37V28H36zM38,27H39V28H38zM39,27H40V28H39zM5,28H6V29H5zM6,28H7V29H6zM8,28H9V29H8zM10,28H11V29H10zM12,28H13V29H12zM16,28H17V29H16zM18,28H19V29H18zM20,28H21V29H20zM23,28H24V29H23zM24,28H25V29H24zM25,28H26V29H25zM26,28H27V29H26zM27,28H28V29H27zM31,28H32V29H31zM33,28H34V29H33zM34,28H35V29H34zM35,28H36V29H35zM37,28H38V29H37zM38,28H39V29H38zM39,28H40V29H39zM40,28H41V29H40zM4,29H5V30H4zM6,29H7V30H6zM9,29H10V30H9zM11,29H12V30H11zM12,29H13V30H12zM13,29H14V30H13zM15,29H16V30H15zM16,29H17V30H16zM21,29H22V30H21zM22,29H23V30H22zM24,29H25V30H24zM27,29H28V30H27zM29,29H30V30H29zM31,29H32V30H31zM32,29H33V30H32zM36,29H37V30H36zM6,30H7V31H6zM7,30H8V31H7zM8,30H9V31H8zM9,30H10V31H9zM10,30H11V31H10zM16,30H17V31H16zM18,30H19V31H18zM19,30H20V31H19zM22,30H23V31H22zM24,30H25V31H24zM26,30H27V31H26zM27,30H28V31H27zM28,30H29V31H28zM29,30H30V31H29zM30,30H31V31H30zM31,30H32V31H31zM32,30H33V31H32zM35,30H36V31H35zM37,30H38V31H37zM38,30H39V31H38zM9,31H10V32H9zM12,31H13V32H12zM15,31H16V32H15zM18,31H19V32H18zM19,31H20V32H19zM20,31H21V32H20zM21,31H22V32H21zM22,31H23V32H22zM24,31H25V32H24zM25,31H26V32H25zM27,31H28V32H27zM30,31H31V32H30zM31,31H32V32H31zM34,31H35V32H34zM37,31H38V32H37zM38,31H39V32H38zM39,31H40V32H39zM40,31H41V32H40zM4,32H5V33H4zM5,32H6V33H5zM10,32H11V33H10zM13,32H14V33H13zM14,32H15V33H14zM15,32H16V33H15zM18,32H19V33H18zM20,32H21V33H20zM21,32H22V33H21zM25,32H26V33H25zM26,32H27V33H26zM27,32H28V33H27zM28,32H29V33H28zM30,32H31V33H30zM32,32H33V33H32zM33,32H34V33H33zM34,32H35V33H34zM35,32H36V33H35zM36,32H37V33H36zM38,32H39V33H38zM39,32H40V33H39zM12,33H13V34H12zM13,33H14V34H13zM14,33H15V34H14zM15,33H16V34H15zM17,33H18V34H17zM19,33H20V34H19zM22,33H23V34H22zM25,33H26V34H25zM26,33H27V34H26zM27,33H28V34H27zM29,33H30V34H29zM30,33H31V34H30zM32,33H33V34H32zM36,33H37V34H36zM39,33H40V34H39zM4,34H5V35H4zM5,34H6V35H5zM6,34H7V35H6zM7,34H8V35H7zM8,34H9V35H8zM9,34H10V35H9zM10,34H11V35H10zM12,34H13V35H12zM14,34H15V35H14zM16,34H17V35H16zM17,34H18V35H17zM18,34H19V35H18zM19,34H20V35H19zM21,34H22V35H21zM24,34H25V35H24zM27,34H28V35H27zM28,34H29V35H28zM29,34H30V35H29zM32,34H33V35H32zM34,34H35V35H34zM36,34H37V35H36zM39,34H40V35H39zM4,35H5V36H4zM10,35H11V36H10zM13,35H14V36H13zM15,35H16V36H15zM16,35H17V36H16zM17,35H18V36H17zM21,35H22V36H21zM22,35H23V36H22zM25,35H26V36H25zM26,35H27V36H26zM32,35H33V36H32zM36,35H37V36H36zM37,35H38V36H37zM38,35H39V36H38zM4,36H5V37H4zM6,36H7V37H6zM7,36H8V37H7zM8,36H9V37H8zM10,36H11V37H10zM12,36H13V37H12zM16,36H17V37H16zM19,36H20V37H19zM22,36H23V37H22zM23,36H24V37H23zM24,36H25V37H24zM25,36H26V37H25zM26,36H27V37H26zM28,36H29V37H28zM32,36H33V37H32zM33,36H34V37H33zM34,36H35V37H34zM35,36H36V37H35zM36,36H37V37H36zM37,36H38V37H37zM38,36H39V37H38zM39,36H40V37H39zM40,36H41V37H40zM4,37H5V38H4zM6,37H7V38H6zM7,37H8V38H7zM8,37H9V38H8zM10,37H11V38H10zM13,37H14V38H13zM15,37H16V38H15zM20,37H21V38H20zM21,37H22V38H21zM27,37H28V38H27zM32,37H33V38H32zM34,37H35V38H34zM35,37H36V38H35zM37,37H38V38H37zM38,37H39V38H38zM40,37H41V38H40zM4,38H5V39H4zM6,38H7V39H6zM7,38H8V39H7zM8,38H9V39H8zM10,38H11V39H10zM14,38H15V39H14zM16,38H17V39H16zM18,38H19V39H18zM20,38H21V39H20zM24,38H25V39H24zM25,38H26V39H25zM27,38H28V39H27zM29,38H30V39H29zM30,38H31V39H30zM33,38H34V39H33zM34,38H35V39H34zM4,39H5V40H4zM10,39H11V40H10zM14,39H15V40H14zM15,39H16V40H15zM16,39H17V40H16zM21,39H22V40H21zM22,39H23V40H22zM25,39H26V40H25zM26,39H27V40H26zM27,39H28V40H27zM28,39H29V40H28zM33,39H34V40H33zM34,39H35V40H34zM36,39H37V40H36zM38,39H39V40H38zM39,39H40V40H39zM4,40H5V41H4zM5,40H6V41H5zM6,40H7V41H6zM7,40H8V41H7zM8,40H9V41H8zM9,40H10V41H9zM10,40H11V41H10zM12,40H13V41H12zM16,40H17V41H16zM17,40H18V41H17zM18,40H19V41H18zM19,40H20V41H19zM21,40H22V41H21zM22,40H23V41H22zM24,40H25V41H24zM25,40H26V41H25zM26,40H27V41H26zM28,40H29V41H28zM31,40H32V41H31zM33,40H34V41H33zM34,40H35V41H34zM35,40H36V41H35zM38,40H39V41H38zM39,40H40V41H39zM40,40H41V41H40z" id="qr-path" fill="#000000" fill-opacity="1" fill-rule="nonzero" stroke="none"/></svg>