<?xml version="1.0" encoding="UTF-8" standalone="no"?>
<svg
xmlns:svg="http://www.w3.org/2000/svg"
xmlns="http://www.w3.org/2000/svg"
xmlns:xlink="http://www.w3.org/1999/xlink"
width ="640"
height ="216"
viewBox ="0 0 640 216"
>
<defs><polygon points="0,0 6,8, 0,16 20,8" id="m_tmpl2"/><marker id="token_arrow"  markerUnits="userSpaceOnUse" markerWidth="20" markerHeight="16" viewBox="0 0 20 16" refX="14" refY="8" orient="auto"><use xlink:href="#m_tmpl2" fill="#60a0ff"/></marker></defs><defs><polygon points="0,0 0,4 0,8 12,4" id="m_tmpl3"/><marker id="link_arrow" markerUnits="strokeWidth" markerWidth="12" markerHeight="8" viewBox="0 0 12 8" refX="12" refY="4" orient="auto"><use xlink:href="#m_tmpl3" fill="#888888"/></marker></defs><rect x ="0" y="0" width="600" height="200" fill="#ffffff" stroke="#888888" stroke-width="1"/><g transform="translate(0,0)"><g transform="translate(40,150) scale(1)"><g fill="#ffffff" stroke="#a0a0a0" stroke-width="1"><rect x="-14" y="-14" width="28" height="28" rx="4" ry="4" /><rect x="18" y="-14" width="28" height="28" rx="4" ry="4" /><rect x="50" y="-14" width="28" height="28" rx="4" ry="4" /><rect x="82" y="-14" width="28" height="28" rx="4" ry="4" /><rect x="114" y="-14" width="28" height="28" rx="4" ry="4" /><rect x="146" y="-14" width="28" height="28" rx="4" ry="4" /><rect x="178" y="-14" width="28" height="28" rx="4" ry="4" /><rect x="210" y="-14" width="28" height="28" rx="4" ry="4" /></g><g font-size="9" font-family="Verdana" fill="#888888"><text id="" x="0" y="-22" dominant-baseline="central" text-anchor="middle">0</text><text id="" x="32" y="-22" dominant-baseline="central" text-anchor="middle">1</text><text id="" x="64" y="-22" dominant-baseline="central" text-anchor="middle">2</text><text id="" x="96" y="-22" dominant-baseline="central" text-anchor="middle">3</text><text id="" x="128" y="-22" dominant-baseline="central" text-anchor="middle">4</text><text id="" x="160" y="-22" dominant-baseline="central" text-anchor="middle">5</text><text id="" x="192" y="-22" dominant-baseline="central" text-anchor="middle">6</text><text id="" x="224" y="-22" dominant-baseline="central" text-anchor="middle">7</text></g></g><g transform="translate(300,40) scale(1)"><g fill="#ffffff" stroke="#a0a0a0" stroke-width="1"><line x1="140" y1="0" x2="70" y2="36" /><line x1="140" y1="0" x2="210" y2="36" /><circle cx="140" cy="0" r="8" /><line x1="70" y1="36" x2="35" y2="72" /><line x1="70" y1="36" x2="105" y2="72" /><circle cx="70" cy="36" r="8" /><line x1="35" y1="72" x2="18" y2="108" /><line x1="35" y1="72" x2="52" y2="108" /><circle cx="35" cy="72" r="8" /><circle cx="18" cy="108" r="8" /><circle cx="52" cy="108" r="8" /><line x1="105" y1="72" x2="88" y2="108" /><line x1="105" y1="72" x2="122" y2="108" /><circle cx="105" cy="72" r="8" /><circle cx="88" cy="108" r="8" /><circle cx="122" cy="108" r="8" /><line x1="210" y1="36" x2="175" y2="72" /><line x1="210" y1="36" x2="245" y2="72" /><circle cx="210" cy="36" r="8" /><line x1="175" y1="72" x2="158" y2="108" /><line x1="175" y1="72" x2="192" y2="108" /><circle cx="175" cy="72" r="8" /><circle cx="158" cy="108" r="8" /><circle cx="192" cy="108" r="8" /><line x1="245" y1="72" x2="228" y2="108" /><line x1="245" y1="72" x2="262" y2="108" /><circle cx="245" cy="72" r="8" /><circle cx="228" cy="108" r="8" /><circle cx="262" cy="108" r="8" /></g></g>
<g transform="translate(40,150) scale(1)"><g class="flash_g" fill="#ffffff" stroke="#ffd700" stroke-width="2"><rect x="-14" y="-14" width="28" height="28" rx="4" ry="4" /><rect x="18" y="-14" width="28" height="28" rx="4" ry="4" /><rect x="50" y="-14" width="28" height="28" rx="4" ry="4" /><rect x="82" y="-14" width="28" height="28" rx="4" ry="4" /><rect x="114" y="-14" width="28" height="28" rx="4" ry="4" /><rect x="146" y="-14" width="28" height="28" rx="4" ry="4" /><rect x="178" y="-14" width="28" height="28" rx="4" ry="4" /><rect x="210" y="-14" width="28" height="28" rx="4" ry="4" /></g></g><g transform="translate(40,150) scale(1)"><g stroke-width="0"><circle cx="0" cy="0" r="10" fill="#88C8FF" id="var_A_17__0" /><circle cx="32" cy="0" r="10" fill="#81C1FF" id="var_A_17__1" /><circle cx="64" cy="0" r="10" fill="#7BBBFF" id="var_A_17__2" /><circle cx="96" cy="0" r="10" fill="#74B4FF" id="var_A_17__3" /><circle cx="128" cy="0" r="10" fill="#6EAEFF" id="var_A_17__4" /><circle cx="160" cy="0" r="10" fill="#5393FF" id="var_A_17__5" /><circle cx="192" cy="0" r="10" fill="#4686F6" id="var_A_17__6" /><circle cx="224" cy="0" r="10" fill="#4080F0" id="var_A_17__7" /></g><g font-size="14" font-family="sans-serif" fill="#ffffff"><text id="text_A_17__0" x="0" y="0" dominant-baseline="central" text-anchor="middle">1</text><text id="text_A_17__1" x="32" y="0" dominant-baseline="central" text-anchor="middle">2</text><text id="text_A_17__2" x="64" y="0" dominant-baseline="central" text-anchor="middle">3</text><text id="text_A_17__3" x="96" y="0" dominant-baseline="central" text-anchor="middle">4</text><text id="text_A_17__4" x="128" y="0" dominant-baseline="central" text-anchor="middle">5</text><text id="text_A_17__5" x="160" y="0" dominant-baseline="central" text-anchor="middle">9</text><text id="text_A_17__6" x="192" y="0" dominant-baseline="central" text-anchor="middle">11</text><text id="text_A_17__7" x="224" y="0" dominant-baseline="central" text-anchor="middle">12</text></g><g font-size="14" font-family="sans-serif" fill="#4080f0"><text id="" x="-28" y="0" dominant-baseline="central" text-anchor="end">A</text></g></g><g transform="translate(40,150) scale(1)"><g fill="#4080f0" stroke-width="0"><rect x="-10" y="-41" width="20" height="5" opacity="0.0833333" rx="2" ry="2" id="bar_A_0" /><rect x="22" y="-47" width="20" height="11" opacity="0.166667" rx="2" ry="2" id="bar_A_1" /><rect x="54" y="-53" width="20" height="17" opacity="0.25" rx="2" ry="2" id="bar_A_2" /><rect x="86" y="-59" width="20" height="23" opacity="0.333333" rx="2" ry="2" id="bar_A_3" /><rect x="118" y="-65" width="20" height="29" opacity="0.416667" rx="2" ry="2" id="bar_A_4" /><rect x="150" y="-88" width="20" height="52" opacity="0.75" rx="2" ry="2" id="bar_A_5" /><rect x="182" y="-100" width="20" height="64" opacity="0.916667" rx="2" ry="2" id="bar_A_6" /><rect x="214" y="-106" width="20" height="70" opacity="1" rx="2" ry="2" id="bar_A_7" /></g></g></g><text x="16" y="20" font-size="16" text-anchor="middle" fill="#888888" font-family="sans-serif" >3-1</text><text x="300" y="184" font-size="9" text-anchor="middle" font-family="SimSun, 宋体, serif">输出已排序的整数列</text></svg>

