<?xml version="1.0" encoding="UTF-8" standalone="no"?>
<svg
xmlns:svg="http://www.w3.org/2000/svg"
xmlns="http://www.w3.org/2000/svg"
xmlns:xlink="http://www.w3.org/1999/xlink"
width ="640"
height ="1080"
viewBox ="0 0 640 1080"
>
<defs><polygon points="0,0 6,8, 0,16 20,8" id="m_tmpl2"/><marker id="token_arrow"  markerUnits="userSpaceOnUse" markerWidth="20" markerHeight="16" viewBox="0 0 20 16" refX="14" refY="8" orient="auto"><use xlink:href="#m_tmpl2" fill="#60a0ff"/></marker></defs><defs><polygon points="0,0 0,4 0,8 12,4" id="m_tmpl3"/><marker id="link_arrow" markerUnits="strokeWidth" markerWidth="12" markerHeight="8" viewBox="0 0 12 8" refX="12" refY="4" orient="auto"><use xlink:href="#m_tmpl3" fill="#888888"/></marker></defs><rect x ="0" y="0" width="280" height="200" fill="#ffffff" stroke="#888888" stroke-width="1"/><path fill="#0088e0" d="M 292 100 L 292 80 L 312 100 L 292 120 z" /><g transform="translate(0,0)"><g transform="translate(70,80) scale(1)"><g fill="#e8e8e8" stroke-width="0"><rect x="-19" y="-19" width="38" height="38" /></g></g><g transform="translate(70,80) scale(1)"><g fill="#ffffff" stroke="#a0a0a0" stroke-width="1"><rect x="-14" y="-14" width="28" height="28" rx="4" ry="4" /><rect x="18" y="-14" width="28" height="28" rx="4" ry="4" /><rect x="50" y="-14" width="28" height="28" rx="4" ry="4" /><rect x="82" y="-14" width="28" height="28" rx="4" ry="4" /><rect x="114" y="-14" width="28" height="28" rx="4" ry="4" /><rect x="146" y="-14" width="28" height="28" rx="4" ry="4" /></g><g font-size="9" font-family="Verdana" fill="#888888"><text id="" x="0" y="-22" dominant-baseline="central" text-anchor="middle">0</text><text id="" x="32" y="-22" dominant-baseline="central" text-anchor="middle">1</text><text id="" x="64" y="-22" dominant-baseline="central" text-anchor="middle">2</text><text id="" x="96" y="-22" dominant-baseline="central" text-anchor="middle">3</text><text id="" x="128" y="-22" dominant-baseline="central" text-anchor="middle">4</text><text id="" x="160" y="-22" dominant-baseline="central" text-anchor="middle">5</text></g></g><g transform="translate(140,140) scale(1)"><g fill="#ffffff" stroke="#a0a0a0" stroke-width="1"><rect x="-14" y="-14" width="28" height="28" rx="4" ry="4" /></g></g><g transform="translate(260,20) scale(1)"><g fill="#ffffff" stroke="#a0a0a0" stroke-width="1"><path d="M -14 0 L 0-14 L 14 0 L 0 14 L -14 0 z" /></g></g><g transform="translate(70,80) scale(1)"><g class="flash_g" fill="#ffffff" stroke="#ff1493" stroke-width="2"><rect x="-14" y="-14" width="28" height="28" rx="4" ry="4" /></g></g><g transform="translate(260,20) scale(1)"><g class="flash_g" fill="#ffffff" stroke="#ff1493" stroke-width="1"  ><path d="M 0 -14 L -14 0 L 0 14 z" fill="#ff1493" stroke-width="0" /></g><g fill="none" stroke="#a0a0a0" stroke-width="1"><path d="M 0 -14 L 14 0 L 0 14 L -14 0 z"  /></g></g><g transform="translate(140,140) scale(1)"><g class="flash_g" fill="#ffffff" stroke="#ff1493" stroke-width="2"><rect x="-14" y="-14" width="28" height="28" rx="4" ry="4" /></g></g><g transform="translate(70,80) scale(1)"><g stroke-width="0"><circle cx="0" cy="0" r="10" fill="#85C5FF" id="var_A_2__0" /><circle cx="32" cy="0" r="10" fill="#7FBFFF" id="var_A_2__1" /><circle cx="64" cy="0" r="10" fill="#88C8FF" id="var_A_2__2" /><circle cx="96" cy="0" r="10" fill="#82C2FF" id="var_A_2__3" /><circle cx="128" cy="0" r="10" fill="#8BCBFF" id="var_A_2__4" /><circle cx="160" cy="0" r="10" fill="#75B5FF" id="var_A_2__5" /></g><g font-size="14" font-family="sans-serif" fill="#ffffff"><text id="text_A_2__0" x="0" y="0" dominant-baseline="central" text-anchor="middle">3</text><text id="text_A_2__1" x="32" y="0" dominant-baseline="central" text-anchor="middle">5</text><text id="text_A_2__2" x="64" y="0" dominant-baseline="central" text-anchor="middle">2</text><text id="text_A_2__3" x="96" y="0" dominant-baseline="central" text-anchor="middle">4</text><text id="text_A_2__4" x="128" y="0" dominant-baseline="central" text-anchor="middle">1</text><text id="text_A_2__5" x="160" y="0" dominant-baseline="central" text-anchor="middle">8</text></g><g font-size="14" font-family="sans-serif" fill="#4080f0"><text id="" x="-28" y="0" dominant-baseline="central" text-anchor="end">A</text></g></g><g transform="translate(140,140) scale(1)"><g stroke-width="0"><circle cx="0" cy="0" r="10" fill="#4080f0" id="var_minv_2__0" /></g><g font-size="14" font-family="sans-serif" fill="#ffffff"><text id="text_minv_2__0" x="0" y="0" dominant-baseline="central" text-anchor="middle">∞</text></g><g font-size="14" font-family="sans-serif" fill="#4080f0"><text id="" x="-28" y="0" dominant-baseline="central" text-anchor="end">minv</text></g></g></g><text x="16" y="20" font-size="16" text-anchor="middle" fill="#888888" font-family="sans-serif" >2-1</text><text x="140" y="184" font-size="9" text-anchor="middle" font-family="SimSun, 宋体, serif">if A[0] &lt; minv:</text><rect x ="320" y="0" width="280" height="200" fill="#ffffff" stroke="#888888" stroke-width="1"/><path fill="#0088e0" d="M 612 100 L 612 80 L 632 100 L 612 120 z" /><g transform="translate(320,0)"><g transform="translate(70,80) scale(1)"><g fill="#e8e8e8" stroke-width="0"><rect x="-19" y="-19" width="38" height="38" /></g></g><g transform="translate(70,80) scale(1)"><g fill="#ffffff" stroke="#a0a0a0" stroke-width="1"><rect x="-14" y="-14" width="28" height="28" rx="4" ry="4" /><rect x="18" y="-14" width="28" height="28" rx="4" ry="4" /><rect x="50" y="-14" width="28" height="28" rx="4" ry="4" /><rect x="82" y="-14" width="28" height="28" rx="4" ry="4" /><rect x="114" y="-14" width="28" height="28" rx="4" ry="4" /><rect x="146" y="-14" width="28" height="28" rx="4" ry="4" /></g><g font-size="9" font-family="Verdana" fill="#888888"><text id="" x="0" y="-22" dominant-baseline="central" text-anchor="middle">0</text><text id="" x="32" y="-22" dominant-baseline="central" text-anchor="middle">1</text><text id="" x="64" y="-22" dominant-baseline="central" text-anchor="middle">2</text><text id="" x="96" y="-22" dominant-baseline="central" text-anchor="middle">3</text><text id="" x="128" y="-22" dominant-baseline="central" text-anchor="middle">4</text><text id="" x="160" y="-22" dominant-baseline="central" text-anchor="middle">5</text></g></g><g transform="translate(140,140) scale(1)"><g fill="#ffffff" stroke="#a0a0a0" stroke-width="1"><rect x="-14" y="-14" width="28" height="28" rx="4" ry="4" /></g></g><g transform="translate(260,20) scale(1)"><g fill="#ffffff" stroke="#a0a0a0" stroke-width="1"><path d="M -14 0 L 0-14 L 14 0 L 0 14 L -14 0 z" /></g></g><g transform="translate(70,80) scale(1)"><g class="flash_g" fill="#ffffff" stroke="#ff1493" stroke-width="2"><rect x="-14" y="-14" width="28" height="28" rx="4" ry="4" /></g></g><g transform="translate(140,140) scale(1)"><g class="flash_g" fill="#ff1493" stroke="#ff1493" stroke-width="1"><rect x="-14" y="-14" width="28" height="28" rx="4" ry="4" /></g><g fill="none" stroke="#a0a0a0" stroke-width="1"><rect x="-14" y="-14" width="28" height="28" rx="4" ry="4" /></g></g><g transform="translate(70,80) scale(1)"><g class="flash_g" transform="translate(0,-14) rotate(0)" fill="#ff4040"><path d="M 0 0 L 8 -10 L 4 -10 L 4 -26 L -4 -26 L -4 -10 L -8 -10 z"/></g></g><g transform="translate(70,80) scale(1)"><g stroke-width="0"><circle cx="0" cy="0" r="10" fill="#85C5FF" id="var_A_3__0" /><circle cx="32" cy="0" r="10" fill="#7FBFFF" id="var_A_3__1" /><circle cx="64" cy="0" r="10" fill="#88C8FF" id="var_A_3__2" /><circle cx="96" cy="0" r="10" fill="#82C2FF" id="var_A_3__3" /><circle cx="128" cy="0" r="10" fill="#8BCBFF" id="var_A_3__4" /><circle cx="160" cy="0" r="10" fill="#75B5FF" id="var_A_3__5" /></g><g font-size="14" font-family="sans-serif" fill="#ffffff"><text id="text_A_3__0" x="0" y="0" dominant-baseline="central" text-anchor="middle">3</text><text id="text_A_3__1" x="32" y="0" dominant-baseline="central" text-anchor="middle">5</text><text id="text_A_3__2" x="64" y="0" dominant-baseline="central" text-anchor="middle">2</text><text id="text_A_3__3" x="96" y="0" dominant-baseline="central" text-anchor="middle">4</text><text id="text_A_3__4" x="128" y="0" dominant-baseline="central" text-anchor="middle">1</text><text id="text_A_3__5" x="160" y="0" dominant-baseline="central" text-anchor="middle">8</text></g><g font-size="14" font-family="sans-serif" fill="#4080f0"><text id="" x="-28" y="0" dominant-baseline="central" text-anchor="end">A</text></g></g><g transform="translate(140,140) scale(1)"><g stroke-width="0"><circle cx="0" cy="0" r="10" fill="#71B1FF" id="var_minv_3__0" /></g><g font-size="14" font-family="sans-serif" fill="#ffffff"><text id="text_minv_3__0" x="0" y="0" dominant-baseline="central" text-anchor="middle">3</text></g><g font-size="14" font-family="sans-serif" fill="#4080f0"><text id="" x="-28" y="0" dominant-baseline="central" text-anchor="end">minv</text></g><animateMotion xlink:href="#var_minv_3__0" path="M-70 -60 L 0 0" dur="0.9s" repeatCount="1"/><animateMotion xlink:href="#text_minv_3__0" path="M-70 -60 L 0 0" dur="0.9s" repeatCount="1"/><g fill="none" stroke="#60a0ff" stroke-width="4" stroke-linecap="round" stroke-dasharray="0.1, 8"><path class="for_print" d="M -59.3704 -50.8889 L -10.6296 -9.11108"  marker-end="url(#token_arrow)"/></g></g></g><text x="336" y="20" font-size="16" text-anchor="middle" fill="#888888" font-family="sans-serif" >2-2</text><text x="460" y="184" font-size="9" text-anchor="middle" font-family="SimSun, 宋体, serif">Yes!    minv &#8592; A[0] (= 3)</text><rect x ="0" y="216" width="280" height="200" fill="#ffffff" stroke="#888888" stroke-width="1"/><path fill="#0088e0" d="M 292 316 L 292 296 L 312 316 L 292 336 z" /><g transform="translate(0,216)"><g transform="translate(70,80) scale(1)"><g fill="#e8e8e8" stroke-width="0"><rect x="-19" y="-19" width="70" height="38" /></g></g><g transform="translate(70,80) scale(1)"><g fill="#ffffff" stroke="#a0a0a0" stroke-width="1"><rect x="-14" y="-14" width="28" height="28" rx="4" ry="4" /><rect x="18" y="-14" width="28" height="28" rx="4" ry="4" /><rect x="50" y="-14" width="28" height="28" rx="4" ry="4" /><rect x="82" y="-14" width="28" height="28" rx="4" ry="4" /><rect x="114" y="-14" width="28" height="28" rx="4" ry="4" /><rect x="146" y="-14" width="28" height="28" rx="4" ry="4" /></g><g font-size="9" font-family="Verdana" fill="#888888"><text id="" x="0" y="-22" dominant-baseline="central" text-anchor="middle">0</text><text id="" x="32" y="-22" dominant-baseline="central" text-anchor="middle">1</text><text id="" x="64" y="-22" dominant-baseline="central" text-anchor="middle">2</text><text id="" x="96" y="-22" dominant-baseline="central" text-anchor="middle">3</text><text id="" x="128" y="-22" dominant-baseline="central" text-anchor="middle">4</text><text id="" x="160" y="-22" dominant-baseline="central" text-anchor="middle">5</text></g></g><g transform="translate(140,140) scale(1)"><g fill="#ffffff" stroke="#a0a0a0" stroke-width="1"><rect x="-14" y="-14" width="28" height="28" rx="4" ry="4" /></g></g><g transform="translate(260,20) scale(1)"><g fill="#ffffff" stroke="#a0a0a0" stroke-width="1"><path d="M -14 0 L 0-14 L 14 0 L 0 14 L -14 0 z" /></g></g><g transform="translate(70,80) scale(1)"><g class="flash_g" fill="#ffffff" stroke="#ff1493" stroke-width="2"><rect x="18" y="-14" width="28" height="28" rx="4" ry="4" /></g></g><g transform="translate(260,20) scale(1)"><g class="flash_g" fill="#ffffff" stroke="#ff1493" stroke-width="1"  ><path d="M 0 -14 L -14 0 L 0 14 z" fill="#ff1493" stroke-width="0" /></g><g fill="none" stroke="#a0a0a0" stroke-width="1"><path d="M 0 -14 L 14 0 L 0 14 L -14 0 z"  /></g></g><g transform="translate(140,140) scale(1)"><g class="flash_g" fill="#ffffff" stroke="#ff1493" stroke-width="2"><rect x="-14" y="-14" width="28" height="28" rx="4" ry="4" /></g></g><g transform="translate(70,80) scale(1)"><g stroke-width="0"><circle cx="0" cy="0" r="10" fill="#85C5FF" id="var_A_4__0" /><circle cx="32" cy="0" r="10" fill="#7FBFFF" id="var_A_4__1" /><circle cx="64" cy="0" r="10" fill="#88C8FF" id="var_A_4__2" /><circle cx="96" cy="0" r="10" fill="#82C2FF" id="var_A_4__3" /><circle cx="128" cy="0" r="10" fill="#8BCBFF" id="var_A_4__4" /><circle cx="160" cy="0" r="10" fill="#75B5FF" id="var_A_4__5" /></g><g font-size="14" font-family="sans-serif" fill="#ffffff"><text id="text_A_4__0" x="0" y="0" dominant-baseline="central" text-anchor="middle">3</text><text id="text_A_4__1" x="32" y="0" dominant-baseline="central" text-anchor="middle">5</text><text id="text_A_4__2" x="64" y="0" dominant-baseline="central" text-anchor="middle">2</text><text id="text_A_4__3" x="96" y="0" dominant-baseline="central" text-anchor="middle">4</text><text id="text_A_4__4" x="128" y="0" dominant-baseline="central" text-anchor="middle">1</text><text id="text_A_4__5" x="160" y="0" dominant-baseline="central" text-anchor="middle">8</text></g><g font-size="14" font-family="sans-serif" fill="#4080f0"><text id="" x="-28" y="0" dominant-baseline="central" text-anchor="end">A</text></g></g><g transform="translate(140,140) scale(1)"><g stroke-width="0"><circle cx="0" cy="0" r="10" fill="#71B1FF" id="var_minv_4__0" /></g><g font-size="14" font-family="sans-serif" fill="#ffffff"><text id="text_minv_4__0" x="0" y="0" dominant-baseline="central" text-anchor="middle">3</text></g><g font-size="14" font-family="sans-serif" fill="#4080f0"><text id="" x="-28" y="0" dominant-baseline="central" text-anchor="end">minv</text></g></g></g><text x="16" y="236" font-size="16" text-anchor="middle" fill="#888888" font-family="sans-serif" >2-3</text><text x="140" y="400" font-size="9" text-anchor="middle" font-family="SimSun, 宋体, serif">if A[1] &lt; minv:</text><rect x ="320" y="216" width="280" height="200" fill="#ffffff" stroke="#888888" stroke-width="1"/><path fill="#0088e0" d="M 612 316 L 612 296 L 632 316 L 612 336 z" /><g transform="translate(320,216)"><g transform="translate(70,80) scale(1)"><g fill="#e8e8e8" stroke-width="0"><rect x="-19" y="-19" width="102" height="38" /></g></g><g transform="translate(70,80) scale(1)"><g fill="#ffffff" stroke="#a0a0a0" stroke-width="1"><rect x="-14" y="-14" width="28" height="28" rx="4" ry="4" /><rect x="18" y="-14" width="28" height="28" rx="4" ry="4" /><rect x="50" y="-14" width="28" height="28" rx="4" ry="4" /><rect x="82" y="-14" width="28" height="28" rx="4" ry="4" /><rect x="114" y="-14" width="28" height="28" rx="4" ry="4" /><rect x="146" y="-14" width="28" height="28" rx="4" ry="4" /></g><g font-size="9" font-family="Verdana" fill="#888888"><text id="" x="0" y="-22" dominant-baseline="central" text-anchor="middle">0</text><text id="" x="32" y="-22" dominant-baseline="central" text-anchor="middle">1</text><text id="" x="64" y="-22" dominant-baseline="central" text-anchor="middle">2</text><text id="" x="96" y="-22" dominant-baseline="central" text-anchor="middle">3</text><text id="" x="128" y="-22" dominant-baseline="central" text-anchor="middle">4</text><text id="" x="160" y="-22" dominant-baseline="central" text-anchor="middle">5</text></g></g><g transform="translate(140,140) scale(1)"><g fill="#ffffff" stroke="#a0a0a0" stroke-width="1"><rect x="-14" y="-14" width="28" height="28" rx="4" ry="4" /></g></g><g transform="translate(260,20) scale(1)"><g fill="#ffffff" stroke="#a0a0a0" stroke-width="1"><path d="M -14 0 L 0-14 L 14 0 L 0 14 L -14 0 z" /></g></g><g transform="translate(70,80) scale(1)"><g class="flash_g" fill="#ffffff" stroke="#ff1493" stroke-width="2"><rect x="50" y="-14" width="28" height="28" rx="4" ry="4" /></g></g><g transform="translate(260,20) scale(1)"><g class="flash_g" fill="#ffffff" stroke="#ff1493" stroke-width="1"  ><path d="M 0 -14 L -14 0 L 0 14 z" fill="#ff1493" stroke-width="0" /></g><g fill="none" stroke="#a0a0a0" stroke-width="1"><path d="M 0 -14 L 14 0 L 0 14 L -14 0 z"  /></g></g><g transform="translate(140,140) scale(1)"><g class="flash_g" fill="#ffffff" stroke="#ff1493" stroke-width="2"><rect x="-14" y="-14" width="28" height="28" rx="4" ry="4" /></g></g><g transform="translate(70,80) scale(1)"><g stroke-width="0"><circle cx="0" cy="0" r="10" fill="#85C5FF" id="var_A_5__0" /><circle cx="32" cy="0" r="10" fill="#7FBFFF" id="var_A_5__1" /><circle cx="64" cy="0" r="10" fill="#88C8FF" id="var_A_5__2" /><circle cx="96" cy="0" r="10" fill="#82C2FF" id="var_A_5__3" /><circle cx="128" cy="0" r="10" fill="#8BCBFF" id="var_A_5__4" /><circle cx="160" cy="0" r="10" fill="#75B5FF" id="var_A_5__5" /></g><g font-size="14" font-family="sans-serif" fill="#ffffff"><text id="text_A_5__0" x="0" y="0" dominant-baseline="central" text-anchor="middle">3</text><text id="text_A_5__1" x="32" y="0" dominant-baseline="central" text-anchor="middle">5</text><text id="text_A_5__2" x="64" y="0" dominant-baseline="central" text-anchor="middle">2</text><text id="text_A_5__3" x="96" y="0" dominant-baseline="central" text-anchor="middle">4</text><text id="text_A_5__4" x="128" y="0" dominant-baseline="central" text-anchor="middle">1</text><text id="text_A_5__5" x="160" y="0" dominant-baseline="central" text-anchor="middle">8</text></g><g font-size="14" font-family="sans-serif" fill="#4080f0"><text id="" x="-28" y="0" dominant-baseline="central" text-anchor="end">A</text></g></g><g transform="translate(140,140) scale(1)"><g stroke-width="0"><circle cx="0" cy="0" r="10" fill="#71B1FF" id="var_minv_5__0" /></g><g font-size="14" font-family="sans-serif" fill="#ffffff"><text id="text_minv_5__0" x="0" y="0" dominant-baseline="central" text-anchor="middle">3</text></g><g font-size="14" font-family="sans-serif" fill="#4080f0"><text id="" x="-28" y="0" dominant-baseline="central" text-anchor="end">minv</text></g></g></g><text x="336" y="236" font-size="16" text-anchor="middle" fill="#888888" font-family="sans-serif" >2-4</text><text x="460" y="400" font-size="9" text-anchor="middle" font-family="SimSun, 宋体, serif">if A[2] &lt; minv:</text><rect x ="0" y="432" width="280" height="200" fill="#ffffff" stroke="#888888" stroke-width="1"/><path fill="#0088e0" d="M 292 532 L 292 512 L 312 532 L 292 552 z" /><g transform="translate(0,432)"><g transform="translate(70,80) scale(1)"><g fill="#e8e8e8" stroke-width="0"><rect x="-19" y="-19" width="102" height="38" /></g></g><g transform="translate(70,80) scale(1)"><g fill="#ffffff" stroke="#a0a0a0" stroke-width="1"><rect x="-14" y="-14" width="28" height="28" rx="4" ry="4" /><rect x="18" y="-14" width="28" height="28" rx="4" ry="4" /><rect x="50" y="-14" width="28" height="28" rx="4" ry="4" /><rect x="82" y="-14" width="28" height="28" rx="4" ry="4" /><rect x="114" y="-14" width="28" height="28" rx="4" ry="4" /><rect x="146" y="-14" width="28" height="28" rx="4" ry="4" /></g><g font-size="9" font-family="Verdana" fill="#888888"><text id="" x="0" y="-22" dominant-baseline="central" text-anchor="middle">0</text><text id="" x="32" y="-22" dominant-baseline="central" text-anchor="middle">1</text><text id="" x="64" y="-22" dominant-baseline="central" text-anchor="middle">2</text><text id="" x="96" y="-22" dominant-baseline="central" text-anchor="middle">3</text><text id="" x="128" y="-22" dominant-baseline="central" text-anchor="middle">4</text><text id="" x="160" y="-22" dominant-baseline="central" text-anchor="middle">5</text></g></g><g transform="translate(140,140) scale(1)"><g fill="#ffffff" stroke="#a0a0a0" stroke-width="1"><rect x="-14" y="-14" width="28" height="28" rx="4" ry="4" /></g></g><g transform="translate(260,20) scale(1)"><g fill="#ffffff" stroke="#a0a0a0" stroke-width="1"><path d="M -14 0 L 0-14 L 14 0 L 0 14 L -14 0 z" /></g></g><g transform="translate(70,80) scale(1)"><g class="flash_g" fill="#ffffff" stroke="#ff1493" stroke-width="2"><rect x="50" y="-14" width="28" height="28" rx="4" ry="4" /></g></g><g transform="translate(140,140) scale(1)"><g class="flash_g" fill="#ff1493" stroke="#ff1493" stroke-width="1"><rect x="-14" y="-14" width="28" height="28" rx="4" ry="4" /></g><g fill="none" stroke="#a0a0a0" stroke-width="1"><rect x="-14" y="-14" width="28" height="28" rx="4" ry="4" /></g></g><g transform="translate(70,80) scale(1)"><g class="flash_g" transform="translate(64,-14) rotate(0)" fill="#ff4040"><path d="M 0 0 L 8 -10 L 4 -10 L 4 -26 L -4 -26 L -4 -10 L -8 -10 z"/></g></g><g transform="translate(70,80) scale(1)"><g stroke-width="0"><circle cx="0" cy="0" r="10" fill="#85C5FF" id="var_A_6__0" /><circle cx="32" cy="0" r="10" fill="#7FBFFF" id="var_A_6__1" /><circle cx="64" cy="0" r="10" fill="#88C8FF" id="var_A_6__2" /><circle cx="96" cy="0" r="10" fill="#82C2FF" id="var_A_6__3" /><circle cx="128" cy="0" r="10" fill="#8BCBFF" id="var_A_6__4" /><circle cx="160" cy="0" r="10" fill="#75B5FF" id="var_A_6__5" /></g><g font-size="14" font-family="sans-serif" fill="#ffffff"><text id="text_A_6__0" x="0" y="0" dominant-baseline="central" text-anchor="middle">3</text><text id="text_A_6__1" x="32" y="0" dominant-baseline="central" text-anchor="middle">5</text><text id="text_A_6__2" x="64" y="0" dominant-baseline="central" text-anchor="middle">2</text><text id="text_A_6__3" x="96" y="0" dominant-baseline="central" text-anchor="middle">4</text><text id="text_A_6__4" x="128" y="0" dominant-baseline="central" text-anchor="middle">1</text><text id="text_A_6__5" x="160" y="0" dominant-baseline="central" text-anchor="middle">8</text></g><g font-size="14" font-family="sans-serif" fill="#4080f0"><text id="" x="-28" y="0" dominant-baseline="central" text-anchor="end">A</text></g></g><g transform="translate(140,140) scale(1)"><g stroke-width="0"><circle cx="0" cy="0" r="10" fill="#7BBBFF" id="var_minv_6__0" /></g><g font-size="14" font-family="sans-serif" fill="#ffffff"><text id="text_minv_6__0" x="0" y="0" dominant-baseline="central" text-anchor="middle">2</text></g><g font-size="14" font-family="sans-serif" fill="#4080f0"><text id="" x="-28" y="0" dominant-baseline="central" text-anchor="end">minv</text></g><animateMotion xlink:href="#var_minv_6__0" path="M-6 -60 L 0 0" dur="0.9s" repeatCount="1"/><animateMotion xlink:href="#text_minv_6__0" path="M-6 -60 L 0 0" dur="0.9s" repeatCount="1"/><g fill="none" stroke="#60a0ff" stroke-width="4" stroke-linecap="round" stroke-dasharray="0.1, 8"><path class="for_print" d="M -4.60695 -46.0695 L -1.39305 -13.9305"  marker-end="url(#token_arrow)"/></g></g></g><text x="16" y="452" font-size="16" text-anchor="middle" fill="#888888" font-family="sans-serif" >2-5</text><text x="140" y="616" font-size="9" text-anchor="middle" font-family="SimSun, 宋体, serif">Yes!    minv &#8592; A[2] (= 2)</text><rect x ="320" y="432" width="280" height="200" fill="#ffffff" stroke="#888888" stroke-width="1"/><path fill="#0088e0" d="M 612 532 L 612 512 L 632 532 L 612 552 z" /><g transform="translate(320,432)"><g transform="translate(70,80) scale(1)"><g fill="#e8e8e8" stroke-width="0"><rect x="-19" y="-19" width="134" height="38" /></g></g><g transform="translate(70,80) scale(1)"><g fill="#ffffff" stroke="#a0a0a0" stroke-width="1"><rect x="-14" y="-14" width="28" height="28" rx="4" ry="4" /><rect x="18" y="-14" width="28" height="28" rx="4" ry="4" /><rect x="50" y="-14" width="28" height="28" rx="4" ry="4" /><rect x="82" y="-14" width="28" height="28" rx="4" ry="4" /><rect x="114" y="-14" width="28" height="28" rx="4" ry="4" /><rect x="146" y="-14" width="28" height="28" rx="4" ry="4" /></g><g font-size="9" font-family="Verdana" fill="#888888"><text id="" x="0" y="-22" dominant-baseline="central" text-anchor="middle">0</text><text id="" x="32" y="-22" dominant-baseline="central" text-anchor="middle">1</text><text id="" x="64" y="-22" dominant-baseline="central" text-anchor="middle">2</text><text id="" x="96" y="-22" dominant-baseline="central" text-anchor="middle">3</text><text id="" x="128" y="-22" dominant-baseline="central" text-anchor="middle">4</text><text id="" x="160" y="-22" dominant-baseline="central" text-anchor="middle">5</text></g></g><g transform="translate(140,140) scale(1)"><g fill="#ffffff" stroke="#a0a0a0" stroke-width="1"><rect x="-14" y="-14" width="28" height="28" rx="4" ry="4" /></g></g><g transform="translate(260,20) scale(1)"><g fill="#ffffff" stroke="#a0a0a0" stroke-width="1"><path d="M -14 0 L 0-14 L 14 0 L 0 14 L -14 0 z" /></g></g><g transform="translate(70,80) scale(1)"><g class="flash_g" fill="#ffffff" stroke="#ff1493" stroke-width="2"><rect x="82" y="-14" width="28" height="28" rx="4" ry="4" /></g></g><g transform="translate(260,20) scale(1)"><g class="flash_g" fill="#ffffff" stroke="#ff1493" stroke-width="1"  ><path d="M 0 -14 L -14 0 L 0 14 z" fill="#ff1493" stroke-width="0" /></g><g fill="none" stroke="#a0a0a0" stroke-width="1"><path d="M 0 -14 L 14 0 L 0 14 L -14 0 z"  /></g></g><g transform="translate(140,140) scale(1)"><g class="flash_g" fill="#ffffff" stroke="#ff1493" stroke-width="2"><rect x="-14" y="-14" width="28" height="28" rx="4" ry="4" /></g></g><g transform="translate(70,80) scale(1)"><g stroke-width="0"><circle cx="0" cy="0" r="10" fill="#85C5FF" id="var_A_7__0" /><circle cx="32" cy="0" r="10" fill="#7FBFFF" id="var_A_7__1" /><circle cx="64" cy="0" r="10" fill="#88C8FF" id="var_A_7__2" /><circle cx="96" cy="0" r="10" fill="#82C2FF" id="var_A_7__3" /><circle cx="128" cy="0" r="10" fill="#8BCBFF" id="var_A_7__4" /><circle cx="160" cy="0" r="10" fill="#75B5FF" id="var_A_7__5" /></g><g font-size="14" font-family="sans-serif" fill="#ffffff"><text id="text_A_7__0" x="0" y="0" dominant-baseline="central" text-anchor="middle">3</text><text id="text_A_7__1" x="32" y="0" dominant-baseline="central" text-anchor="middle">5</text><text id="text_A_7__2" x="64" y="0" dominant-baseline="central" text-anchor="middle">2</text><text id="text_A_7__3" x="96" y="0" dominant-baseline="central" text-anchor="middle">4</text><text id="text_A_7__4" x="128" y="0" dominant-baseline="central" text-anchor="middle">1</text><text id="text_A_7__5" x="160" y="0" dominant-baseline="central" text-anchor="middle">8</text></g><g font-size="14" font-family="sans-serif" fill="#4080f0"><text id="" x="-28" y="0" dominant-baseline="central" text-anchor="end">A</text></g></g><g transform="translate(140,140) scale(1)"><g stroke-width="0"><circle cx="0" cy="0" r="10" fill="#7BBBFF" id="var_minv_7__0" /></g><g font-size="14" font-family="sans-serif" fill="#ffffff"><text id="text_minv_7__0" x="0" y="0" dominant-baseline="central" text-anchor="middle">2</text></g><g font-size="14" font-family="sans-serif" fill="#4080f0"><text id="" x="-28" y="0" dominant-baseline="central" text-anchor="end">minv</text></g></g></g><text x="336" y="452" font-size="16" text-anchor="middle" fill="#888888" font-family="sans-serif" >2-6</text><text x="460" y="616" font-size="9" text-anchor="middle" font-family="SimSun, 宋体, serif">if A[3] &lt; minv:</text><rect x ="0" y="648" width="280" height="200" fill="#ffffff" stroke="#888888" stroke-width="1"/><path fill="#0088e0" d="M 292 748 L 292 728 L 312 748 L 292 768 z" /><g transform="translate(0,648)"><g transform="translate(70,80) scale(1)"><g fill="#e8e8e8" stroke-width="0"><rect x="-19" y="-19" width="166" height="38" /></g></g><g transform="translate(70,80) scale(1)"><g fill="#ffffff" stroke="#a0a0a0" stroke-width="1"><rect x="-14" y="-14" width="28" height="28" rx="4" ry="4" /><rect x="18" y="-14" width="28" height="28" rx="4" ry="4" /><rect x="50" y="-14" width="28" height="28" rx="4" ry="4" /><rect x="82" y="-14" width="28" height="28" rx="4" ry="4" /><rect x="114" y="-14" width="28" height="28" rx="4" ry="4" /><rect x="146" y="-14" width="28" height="28" rx="4" ry="4" /></g><g font-size="9" font-family="Verdana" fill="#888888"><text id="" x="0" y="-22" dominant-baseline="central" text-anchor="middle">0</text><text id="" x="32" y="-22" dominant-baseline="central" text-anchor="middle">1</text><text id="" x="64" y="-22" dominant-baseline="central" text-anchor="middle">2</text><text id="" x="96" y="-22" dominant-baseline="central" text-anchor="middle">3</text><text id="" x="128" y="-22" dominant-baseline="central" text-anchor="middle">4</text><text id="" x="160" y="-22" dominant-baseline="central" text-anchor="middle">5</text></g></g><g transform="translate(140,140) scale(1)"><g fill="#ffffff" stroke="#a0a0a0" stroke-width="1"><rect x="-14" y="-14" width="28" height="28" rx="4" ry="4" /></g></g><g transform="translate(260,20) scale(1)"><g fill="#ffffff" stroke="#a0a0a0" stroke-width="1"><path d="M -14 0 L 0-14 L 14 0 L 0 14 L -14 0 z" /></g></g><g transform="translate(70,80) scale(1)"><g class="flash_g" fill="#ffffff" stroke="#ff1493" stroke-width="2"><rect x="114" y="-14" width="28" height="28" rx="4" ry="4" /></g></g><g transform="translate(260,20) scale(1)"><g class="flash_g" fill="#ffffff" stroke="#ff1493" stroke-width="1"  ><path d="M 0 -14 L -14 0 L 0 14 z" fill="#ff1493" stroke-width="0" /></g><g fill="none" stroke="#a0a0a0" stroke-width="1"><path d="M 0 -14 L 14 0 L 0 14 L -14 0 z"  /></g></g><g transform="translate(140,140) scale(1)"><g class="flash_g" fill="#ffffff" stroke="#ff1493" stroke-width="2"><rect x="-14" y="-14" width="28" height="28" rx="4" ry="4" /></g></g><g transform="translate(70,80) scale(1)"><g stroke-width="0"><circle cx="0" cy="0" r="10" fill="#85C5FF" id="var_A_8__0" /><circle cx="32" cy="0" r="10" fill="#7FBFFF" id="var_A_8__1" /><circle cx="64" cy="0" r="10" fill="#88C8FF" id="var_A_8__2" /><circle cx="96" cy="0" r="10" fill="#82C2FF" id="var_A_8__3" /><circle cx="128" cy="0" r="10" fill="#8BCBFF" id="var_A_8__4" /><circle cx="160" cy="0" r="10" fill="#75B5FF" id="var_A_8__5" /></g><g font-size="14" font-family="sans-serif" fill="#ffffff"><text id="text_A_8__0" x="0" y="0" dominant-baseline="central" text-anchor="middle">3</text><text id="text_A_8__1" x="32" y="0" dominant-baseline="central" text-anchor="middle">5</text><text id="text_A_8__2" x="64" y="0" dominant-baseline="central" text-anchor="middle">2</text><text id="text_A_8__3" x="96" y="0" dominant-baseline="central" text-anchor="middle">4</text><text id="text_A_8__4" x="128" y="0" dominant-baseline="central" text-anchor="middle">1</text><text id="text_A_8__5" x="160" y="0" dominant-baseline="central" text-anchor="middle">8</text></g><g font-size="14" font-family="sans-serif" fill="#4080f0"><text id="" x="-28" y="0" dominant-baseline="central" text-anchor="end">A</text></g></g><g transform="translate(140,140) scale(1)"><g stroke-width="0"><circle cx="0" cy="0" r="10" fill="#7BBBFF" id="var_minv_8__0" /></g><g font-size="14" font-family="sans-serif" fill="#ffffff"><text id="text_minv_8__0" x="0" y="0" dominant-baseline="central" text-anchor="middle">2</text></g><g font-size="14" font-family="sans-serif" fill="#4080f0"><text id="" x="-28" y="0" dominant-baseline="central" text-anchor="end">minv</text></g></g></g><text x="16" y="668" font-size="16" text-anchor="middle" fill="#888888" font-family="sans-serif" >2-7</text><text x="140" y="832" font-size="9" text-anchor="middle" font-family="SimSun, 宋体, serif">if A[4] &lt; minv:</text><rect x ="320" y="648" width="280" height="200" fill="#ffffff" stroke="#888888" stroke-width="1"/><path fill="#0088e0" d="M 612 748 L 612 728 L 632 748 L 612 768 z" /><g transform="translate(320,648)"><g transform="translate(70,80) scale(1)"><g fill="#e8e8e8" stroke-width="0"><rect x="-19" y="-19" width="166" height="38" /></g></g><g transform="translate(70,80) scale(1)"><g fill="#ffffff" stroke="#a0a0a0" stroke-width="1"><rect x="-14" y="-14" width="28" height="28" rx="4" ry="4" /><rect x="18" y="-14" width="28" height="28" rx="4" ry="4" /><rect x="50" y="-14" width="28" height="28" rx="4" ry="4" /><rect x="82" y="-14" width="28" height="28" rx="4" ry="4" /><rect x="114" y="-14" width="28" height="28" rx="4" ry="4" /><rect x="146" y="-14" width="28" height="28" rx="4" ry="4" /></g><g font-size="9" font-family="Verdana" fill="#888888"><text id="" x="0" y="-22" dominant-baseline="central" text-anchor="middle">0</text><text id="" x="32" y="-22" dominant-baseline="central" text-anchor="middle">1</text><text id="" x="64" y="-22" dominant-baseline="central" text-anchor="middle">2</text><text id="" x="96" y="-22" dominant-baseline="central" text-anchor="middle">3</text><text id="" x="128" y="-22" dominant-baseline="central" text-anchor="middle">4</text><text id="" x="160" y="-22" dominant-baseline="central" text-anchor="middle">5</text></g></g><g transform="translate(140,140) scale(1)"><g fill="#ffffff" stroke="#a0a0a0" stroke-width="1"><rect x="-14" y="-14" width="28" height="28" rx="4" ry="4" /></g></g><g transform="translate(260,20) scale(1)"><g fill="#ffffff" stroke="#a0a0a0" stroke-width="1"><path d="M -14 0 L 0-14 L 14 0 L 0 14 L -14 0 z" /></g></g><g transform="translate(70,80) scale(1)"><g class="flash_g" fill="#ffffff" stroke="#ff1493" stroke-width="2"><rect x="114" y="-14" width="28" height="28" rx="4" ry="4" /></g></g><g transform="translate(140,140) scale(1)"><g class="flash_g" fill="#ff1493" stroke="#ff1493" stroke-width="1"><rect x="-14" y="-14" width="28" height="28" rx="4" ry="4" /></g><g fill="none" stroke="#a0a0a0" stroke-width="1"><rect x="-14" y="-14" width="28" height="28" rx="4" ry="4" /></g></g><g transform="translate(70,80) scale(1)"><g class="flash_g" transform="translate(128,-14) rotate(0)" fill="#ff4040"><path d="M 0 0 L 8 -10 L 4 -10 L 4 -26 L -4 -26 L -4 -10 L -8 -10 z"/></g></g><g transform="translate(70,80) scale(1)"><g stroke-width="0"><circle cx="0" cy="0" r="10" fill="#85C5FF" id="var_A_9__0" /><circle cx="32" cy="0" r="10" fill="#7FBFFF" id="var_A_9__1" /><circle cx="64" cy="0" r="10" fill="#88C8FF" id="var_A_9__2" /><circle cx="96" cy="0" r="10" fill="#82C2FF" id="var_A_9__3" /><circle cx="128" cy="0" r="10" fill="#8BCBFF" id="var_A_9__4" /><circle cx="160" cy="0" r="10" fill="#75B5FF" id="var_A_9__5" /></g><g font-size="14" font-family="sans-serif" fill="#ffffff"><text id="text_A_9__0" x="0" y="0" dominant-baseline="central" text-anchor="middle">3</text><text id="text_A_9__1" x="32" y="0" dominant-baseline="central" text-anchor="middle">5</text><text id="text_A_9__2" x="64" y="0" dominant-baseline="central" text-anchor="middle">2</text><text id="text_A_9__3" x="96" y="0" dominant-baseline="central" text-anchor="middle">4</text><text id="text_A_9__4" x="128" y="0" dominant-baseline="central" text-anchor="middle">1</text><text id="text_A_9__5" x="160" y="0" dominant-baseline="central" text-anchor="middle">8</text></g><g font-size="14" font-family="sans-serif" fill="#4080f0"><text id="" x="-28" y="0" dominant-baseline="central" text-anchor="end">A</text></g></g><g transform="translate(140,140) scale(1)"><g stroke-width="0"><circle cx="0" cy="0" r="10" fill="#85C5FF" id="var_minv_9__0" /></g><g font-size="14" font-family="sans-serif" fill="#ffffff"><text id="text_minv_9__0" x="0" y="0" dominant-baseline="central" text-anchor="middle">1</text></g><g font-size="14" font-family="sans-serif" fill="#4080f0"><text id="" x="-28" y="0" dominant-baseline="central" text-anchor="end">minv</text></g><animateMotion xlink:href="#var_minv_9__0" path="M58 -60 L 0 0" dur="0.9s" repeatCount="1"/><animateMotion xlink:href="#text_minv_9__0" path="M58 -60 L 0 0" dur="0.9s" repeatCount="1"/><g fill="none" stroke="#60a0ff" stroke-width="4" stroke-linecap="round" stroke-dasharray="0.1, 8"><path class="for_print" d="M 48.2697 -49.9342 L 9.73031 -10.0658"  marker-end="url(#token_arrow)"/></g></g></g><text x="336" y="668" font-size="16" text-anchor="middle" fill="#888888" font-family="sans-serif" >2-8</text><text x="460" y="832" font-size="9" text-anchor="middle" font-family="SimSun, 宋体, serif">Yes!    minv &#8592; A[4] (= 1)</text><rect x ="0" y="864" width="280" height="200" fill="#ffffff" stroke="#888888" stroke-width="1"/><g transform="translate(0,864)"><g transform="translate(70,80) scale(1)"><g fill="#e8e8e8" stroke-width="0"><rect x="-19" y="-19" width="198" height="38" /></g></g><g transform="translate(70,80) scale(1)"><g fill="#ffffff" stroke="#a0a0a0" stroke-width="1"><rect x="-14" y="-14" width="28" height="28" rx="4" ry="4" /><rect x="18" y="-14" width="28" height="28" rx="4" ry="4" /><rect x="50" y="-14" width="28" height="28" rx="4" ry="4" /><rect x="82" y="-14" width="28" height="28" rx="4" ry="4" /><rect x="114" y="-14" width="28" height="28" rx="4" ry="4" /><rect x="146" y="-14" width="28" height="28" rx="4" ry="4" /></g><g font-size="9" font-family="Verdana" fill="#888888"><text id="" x="0" y="-22" dominant-baseline="central" text-anchor="middle">0</text><text id="" x="32" y="-22" dominant-baseline="central" text-anchor="middle">1</text><text id="" x="64" y="-22" dominant-baseline="central" text-anchor="middle">2</text><text id="" x="96" y="-22" dominant-baseline="central" text-anchor="middle">3</text><text id="" x="128" y="-22" dominant-baseline="central" text-anchor="middle">4</text><text id="" x="160" y="-22" dominant-baseline="central" text-anchor="middle">5</text></g></g><g transform="translate(140,140) scale(1)"><g fill="#ffffff" stroke="#a0a0a0" stroke-width="1"><rect x="-14" y="-14" width="28" height="28" rx="4" ry="4" /></g></g><g transform="translate(260,20) scale(1)"><g fill="#ffffff" stroke="#a0a0a0" stroke-width="1"><path d="M -14 0 L 0-14 L 14 0 L 0 14 L -14 0 z" /></g></g><g transform="translate(70,80) scale(1)"><g class="flash_g" fill="#ffffff" stroke="#ff1493" stroke-width="2"><rect x="146" y="-14" width="28" height="28" rx="4" ry="4" /></g></g><g transform="translate(260,20) scale(1)"><g class="flash_g" fill="#ffffff" stroke="#ff1493" stroke-width="1"  ><path d="M 0 -14 L -14 0 L 0 14 z" fill="#ff1493" stroke-width="0" /></g><g fill="none" stroke="#a0a0a0" stroke-width="1"><path d="M 0 -14 L 14 0 L 0 14 L -14 0 z"  /></g></g><g transform="translate(140,140) scale(1)"><g class="flash_g" fill="#ffffff" stroke="#ff1493" stroke-width="2"><rect x="-14" y="-14" width="28" height="28" rx="4" ry="4" /></g></g><g transform="translate(70,80) scale(1)"><g stroke-width="0"><circle cx="0" cy="0" r="10" fill="#85C5FF" id="var_A_10__0" /><circle cx="32" cy="0" r="10" fill="#7FBFFF" id="var_A_10__1" /><circle cx="64" cy="0" r="10" fill="#88C8FF" id="var_A_10__2" /><circle cx="96" cy="0" r="10" fill="#82C2FF" id="var_A_10__3" /><circle cx="128" cy="0" r="10" fill="#8BCBFF" id="var_A_10__4" /><circle cx="160" cy="0" r="10" fill="#75B5FF" id="var_A_10__5" /></g><g font-size="14" font-family="sans-serif" fill="#ffffff"><text id="text_A_10__0" x="0" y="0" dominant-baseline="central" text-anchor="middle">3</text><text id="text_A_10__1" x="32" y="0" dominant-baseline="central" text-anchor="middle">5</text><text id="text_A_10__2" x="64" y="0" dominant-baseline="central" text-anchor="middle">2</text><text id="text_A_10__3" x="96" y="0" dominant-baseline="central" text-anchor="middle">4</text><text id="text_A_10__4" x="128" y="0" dominant-baseline="central" text-anchor="middle">1</text><text id="text_A_10__5" x="160" y="0" dominant-baseline="central" text-anchor="middle">8</text></g><g font-size="14" font-family="sans-serif" fill="#4080f0"><text id="" x="-28" y="0" dominant-baseline="central" text-anchor="end">A</text></g></g><g transform="translate(140,140) scale(1)"><g stroke-width="0"><circle cx="0" cy="0" r="10" fill="#85C5FF" id="var_minv_10__0" /></g><g font-size="14" font-family="sans-serif" fill="#ffffff"><text id="text_minv_10__0" x="0" y="0" dominant-baseline="central" text-anchor="middle">1</text></g><g font-size="14" font-family="sans-serif" fill="#4080f0"><text id="" x="-28" y="0" dominant-baseline="central" text-anchor="end">minv</text></g></g></g><text x="16" y="884" font-size="16" text-anchor="middle" fill="#888888" font-family="sans-serif" >2-9</text><text x="140" y="1048" font-size="9" text-anchor="middle" font-family="SimSun, 宋体, serif">if A[5] &lt; minv:</text></svg>

