<?xml version="1.0" encoding="UTF-8" standalone="no"?>
<svg
        xmlns="http://www.w3.org/2000/svg"
        xmlns:xlink="http://www.w3.org/1999/xlink"
        width="640"
        height="216"
        viewBox="0 0 640 216"
>
    <defs>
        <polygon points="0,0 6,8, 0,16 20,8" id="m_tmpl2"/>
        <marker id="token_arrow" markerUnits="userSpaceOnUse" markerWidth="20" markerHeight="16" viewBox="0 0 20 16"
                refX="14" refY="8" orient="auto">
            <use xlink:href="#m_tmpl2" fill="#60a0ff"/>
        </marker>
    </defs>
    <defs>
        <polygon points="0,0 0,4 0,8 12,4" id="m_tmpl3"/>
        <marker id="link_arrow" markerUnits="strokeWidth" markerWidth="12" markerHeight="8" viewBox="0 0 12 8" refX="12"
                refY="4" orient="auto">
            <use xlink:href="#m_tmpl3" fill="#888888"/>
        </marker>
    </defs>
    <rect x="0" y="0" width="280" height="200" fill="#ffffff" stroke="#888888" stroke-width="1"/>
    <path fill="#0088e0" d="M 292 100 L 292 80 L 312 100 L 292 120 z"/>
    <g transform="translate(0,0)">
        <g transform="translate(56,66) scale(1)">
            <g fill="#ffffff" stroke="#a0a0a0" stroke-width="1">
                <rect x="-14" y="-14" width="28" height="28" rx="4" ry="4"/>
                <rect x="18" y="-14" width="28" height="28" rx="4" ry="4"/>
                <rect x="50" y="-14" width="28" height="28" rx="4" ry="4"/>
                <rect x="82" y="-14" width="28" height="28" rx="4" ry="4"/>
                <rect x="114" y="-14" width="28" height="28" rx="4" ry="4"/>
                <rect x="146" y="-14" width="28" height="28" rx="4" ry="4"/>
                <rect x="178" y="-14" width="28" height="28" rx="4" ry="4"/>
            </g>
            <g font-size="9" font-family="Verdana" fill="#888888">
                <text id="" x="0" y="-22" dominant-baseline="central" text-anchor="middle">0</text>
                <text id="" x="32" y="-22" dominant-baseline="central" text-anchor="middle">1</text>
                <text id="" x="64" y="-22" dominant-baseline="central" text-anchor="middle">2</text>
                <text id="" x="96" y="-22" dominant-baseline="central" text-anchor="middle">3</text>
                <text id="" x="128" y="-22" dominant-baseline="central" text-anchor="middle">4</text>
                <text id="" x="160" y="-22" dominant-baseline="central" text-anchor="middle">5</text>
                <text id="" x="192" y="-22" dominant-baseline="central" text-anchor="middle">6</text>
            </g>
        </g>
        <g transform="translate(260,20) scale(1)">
            <g fill="#ffffff" stroke="#a0a0a0" stroke-width="1">
                <path d="M -14 0 L 0-14 L 14 0 L 0 14 L -14 0 z"/>
            </g>
        </g>
        <g transform="translate(56,126) scale(1)">
            <g fill="#ffffff" stroke="#a0a0a0" stroke-width="1">
                <rect x="-14" y="-14" width="28" height="28" rx="4" ry="4"/>
                <rect x="18" y="-14" width="28" height="28" rx="4" ry="4"/>
                <rect x="50" y="-14" width="28" height="28" rx="4" ry="4"/>
                <rect x="82" y="-14" width="28" height="28" rx="4" ry="4"/>
                <rect x="114" y="-14" width="28" height="28" rx="4" ry="4"/>
                <rect x="146" y="-14" width="28" height="28" rx="4" ry="4"/>
                <rect x="178" y="-14" width="28" height="28" rx="4" ry="4"/>
            </g>
            <g font-size="9" font-family="Verdana" fill="#888888">
                <text id="" x="0" y="-22" dominant-baseline="central" text-anchor="middle">0</text>
                <text id="" x="32" y="-22" dominant-baseline="central" text-anchor="middle">1</text>
                <text id="" x="64" y="-22" dominant-baseline="central" text-anchor="middle">2</text>
                <text id="" x="96" y="-22" dominant-baseline="central" text-anchor="middle">3</text>
                <text id="" x="128" y="-22" dominant-baseline="central" text-anchor="middle">4</text>
                <text id="" x="160" y="-22" dominant-baseline="central" text-anchor="middle">5</text>
                <text id="" x="192" y="-22" dominant-baseline="central" text-anchor="middle">6</text>
            </g>
        </g>
        <g transform="translate(56,126) scale(1)">
            <g class="flash_g" fill="#ffd700" stroke="#ffd700" stroke-width="1">
                <rect x="-14" y="-14" width="28" height="28" rx="4" ry="4"/>
                <rect x="18" y="-14" width="28" height="28" rx="4" ry="4"/>
                <rect x="50" y="-14" width="28" height="28" rx="4" ry="4"/>
                <rect x="82" y="-14" width="28" height="28" rx="4" ry="4"/>
                <rect x="114" y="-14" width="28" height="28" rx="4" ry="4"/>
                <rect x="146" y="-14" width="28" height="28" rx="4" ry="4"/>
                <rect x="178" y="-14" width="28" height="28" rx="4" ry="4"/>
            </g>
            <g fill="none" stroke="#a0a0a0" stroke-width="1">
                <rect x="-14" y="-14" width="28" height="28" rx="4" ry="4"/>
                <rect x="18" y="-14" width="28" height="28" rx="4" ry="4"/>
                <rect x="50" y="-14" width="28" height="28" rx="4" ry="4"/>
                <rect x="82" y="-14" width="28" height="28" rx="4" ry="4"/>
                <rect x="114" y="-14" width="28" height="28" rx="4" ry="4"/>
                <rect x="146" y="-14" width="28" height="28" rx="4" ry="4"/>
                <rect x="178" y="-14" width="28" height="28" rx="4" ry="4"/>
            </g>
        </g>
        <g transform="translate(56,66) scale(1)">
            <g stroke-width="0">
                <circle cx="0" cy="0" r="10" fill="#88C8FF" id="var_A_1__0"/>
                <circle cx="32" cy="0" r="10" fill="#6EAEFF" id="var_A_1__1"/>
                <circle cx="64" cy="0" r="10" fill="#4686F6" id="var_A_1__2"/>
                <circle cx="96" cy="0" r="10" fill="#81C1FF" id="var_A_1__3"/>
                <circle cx="128" cy="0" r="10" fill="#74B4FF" id="var_A_1__4"/>
                <circle cx="160" cy="0" r="10" fill="#5393FF" id="var_A_1__5"/>
                <circle cx="192" cy="0" r="10" fill="#4080F0" id="var_A_1__6"/>
            </g>
            <g font-size="14" font-family="sans-serif" fill="#ffffff">
                <text id="text_A_1__0" x="0" y="0" dominant-baseline="central" text-anchor="middle">1</text>
                <text id="text_A_1__1" x="32" y="0" dominant-baseline="central" text-anchor="middle">5</text>
                <text id="text_A_1__2" x="64" y="0" dominant-baseline="central" text-anchor="middle">11</text>
                <text id="text_A_1__3" x="96" y="0" dominant-baseline="central" text-anchor="middle">2</text>
                <text id="text_A_1__4" x="128" y="0" dominant-baseline="central" text-anchor="middle">4</text>
                <text id="text_A_1__5" x="160" y="0" dominant-baseline="central" text-anchor="middle">9</text>
                <text id="text_A_1__6" x="192" y="0" dominant-baseline="central" text-anchor="middle">12</text>
            </g>
            <g font-size="14" font-family="sans-serif" fill="#4080f0">
                <text id="" x="-28" y="0" dominant-baseline="central" text-anchor="end">A</text>
            </g>
        </g>
        <g transform="translate(56,126) scale(1)">
            <g stroke-width="0">
                <circle cx="0" cy="0" r="10" fill="#88C8FF" id="var_T_1__0"/>
                <circle cx="32" cy="0" r="10" fill="#6EAEFF" id="var_T_1__1"/>
                <circle cx="64" cy="0" r="10" fill="#4686F6" id="var_T_1__2"/>
                <circle cx="96" cy="0" r="10" fill="#81C1FF" id="var_T_1__3"/>
                <circle cx="128" cy="0" r="10" fill="#74B4FF" id="var_T_1__4"/>
                <circle cx="160" cy="0" r="10" fill="#5393FF" id="var_T_1__5"/>
                <circle cx="192" cy="0" r="10" fill="#4080F0" id="var_T_1__6"/>
            </g>
            <g font-size="14" font-family="sans-serif" fill="#ffffff">
                <text id="text_T_1__0" x="0" y="0" dominant-baseline="central" text-anchor="middle">1</text>
                <text id="text_T_1__1" x="32" y="0" dominant-baseline="central" text-anchor="middle">5</text>
                <text id="text_T_1__2" x="64" y="0" dominant-baseline="central" text-anchor="middle">11</text>
                <text id="text_T_1__3" x="96" y="0" dominant-baseline="central" text-anchor="middle">2</text>
                <text id="text_T_1__4" x="128" y="0" dominant-baseline="central" text-anchor="middle">4</text>
                <text id="text_T_1__5" x="160" y="0" dominant-baseline="central" text-anchor="middle">9</text>
                <text id="text_T_1__6" x="192" y="0" dominant-baseline="central" text-anchor="middle">12</text>
            </g>
            <g font-size="14" font-family="sans-serif" fill="#4080f0">
                <text id="" x="-28" y="0" dominant-baseline="central" text-anchor="end">T</text>
            </g>
            <animateMotion xlink:href="#var_T_1__0" path="M0 -60 L 0 0" dur="0.9s" repeatCount="1"/>
            <animateMotion xlink:href="#text_T_1__0" path="M0 -60 L 0 0" dur="0.9s" repeatCount="1"/>
            <g fill="none" stroke="#60a0ff" stroke-width="4" stroke-linecap="round" stroke-dasharray="0.1, 8">
                <path class="for_print" d="M 0 -46 L 0 -14" marker-end="url(#token_arrow)"/>
            </g>
            <animateMotion xlink:href="#var_T_1__1" path="M0 -60 L 0 0" dur="0.9s" repeatCount="1"/>
            <animateMotion xlink:href="#text_T_1__1" path="M0 -60 L 0 0" dur="0.9s" repeatCount="1"/>
            <g fill="none" stroke="#60a0ff" stroke-width="4" stroke-linecap="round" stroke-dasharray="0.1, 8">
                <path class="for_print" d="M 32 -46 L 32 -14" marker-end="url(#token_arrow)"/>
            </g>
            <animateMotion xlink:href="#var_T_1__2" path="M0 -60 L 0 0" dur="0.9s" repeatCount="1"/>
            <animateMotion xlink:href="#text_T_1__2" path="M0 -60 L 0 0" dur="0.9s" repeatCount="1"/>
            <g fill="none" stroke="#60a0ff" stroke-width="4" stroke-linecap="round" stroke-dasharray="0.1, 8">
                <path class="for_print" d="M 64 -46 L 64 -14" marker-end="url(#token_arrow)"/>
            </g>
            <animateMotion xlink:href="#var_T_1__3" path="M0 -60 L 0 0" dur="0.9s" repeatCount="1"/>
            <animateMotion xlink:href="#text_T_1__3" path="M0 -60 L 0 0" dur="0.9s" repeatCount="1"/>
            <g fill="none" stroke="#60a0ff" stroke-width="4" stroke-linecap="round" stroke-dasharray="0.1, 8">
                <path class="for_print" d="M 96 -46 L 96 -14" marker-end="url(#token_arrow)"/>
            </g>
            <animateMotion xlink:href="#var_T_1__4" path="M0 -60 L 0 0" dur="0.9s" repeatCount="1"/>
            <animateMotion xlink:href="#text_T_1__4" path="M0 -60 L 0 0" dur="0.9s" repeatCount="1"/>
            <g fill="none" stroke="#60a0ff" stroke-width="4" stroke-linecap="round" stroke-dasharray="0.1, 8">
                <path class="for_print" d="M 128 -46 L 128 -14" marker-end="url(#token_arrow)"/>
            </g>
            <animateMotion xlink:href="#var_T_1__5" path="M0 -60 L 0 0" dur="0.9s" repeatCount="1"/>
            <animateMotion xlink:href="#text_T_1__5" path="M0 -60 L 0 0" dur="0.9s" repeatCount="1"/>
            <g fill="none" stroke="#60a0ff" stroke-width="4" stroke-linecap="round" stroke-dasharray="0.1, 8">
                <path class="for_print" d="M 160 -46 L 160 -14" marker-end="url(#token_arrow)"/>
            </g>
            <animateMotion xlink:href="#var_T_1__6" path="M0 -60 L 0 0" dur="0.9s" repeatCount="1"/>
            <animateMotion xlink:href="#text_T_1__6" path="M0 -60 L 0 0" dur="0.9s" repeatCount="1"/>
            <g fill="none" stroke="#60a0ff" stroke-width="4" stroke-linecap="round" stroke-dasharray="0.1, 8">
                <path class="for_print" d="M 192 -46 L 192 -14" marker-end="url(#token_arrow)"/>
            </g>
        </g>
    </g>
    <text x="16" y="20" font-size="16" text-anchor="middle" fill="#888888" font-family="sans-serif">1-1</text>
    <text x="140" y="184" font-size="9" text-anchor="middle" font-family="SimSun, 宋体, serif">临时保存输入数据</text>
    <rect x="320" y="0" width="280" height="200" fill="#ffffff" stroke="#888888" stroke-width="1"/>
    <g transform="translate(320,0)">
        <g transform="translate(56,66) scale(1)">
            <g fill="#ffffff" stroke="#a0a0a0" stroke-width="1">
                <rect x="-14" y="-14" width="28" height="28" rx="4" ry="4"/>
                <rect x="18" y="-14" width="28" height="28" rx="4" ry="4"/>
                <rect x="50" y="-14" width="28" height="28" rx="4" ry="4"/>
                <rect x="82" y="-14" width="28" height="28" rx="4" ry="4"/>
                <rect x="114" y="-14" width="28" height="28" rx="4" ry="4"/>
                <rect x="146" y="-14" width="28" height="28" rx="4" ry="4"/>
                <rect x="178" y="-14" width="28" height="28" rx="4" ry="4"/>
            </g>
            <g font-size="9" font-family="Verdana" fill="#888888">
                <text id="" x="0" y="-22" dominant-baseline="central" text-anchor="middle">0</text>
                <text id="" x="32" y="-22" dominant-baseline="central" text-anchor="middle">1</text>
                <text id="" x="64" y="-22" dominant-baseline="central" text-anchor="middle">2</text>
                <text id="" x="96" y="-22" dominant-baseline="central" text-anchor="middle">3</text>
                <text id="" x="128" y="-22" dominant-baseline="central" text-anchor="middle">4</text>
                <text id="" x="160" y="-22" dominant-baseline="central" text-anchor="middle">5</text>
                <text id="" x="192" y="-22" dominant-baseline="central" text-anchor="middle">6</text>
            </g>
        </g>
        <g transform="translate(260,20) scale(1)">
            <g fill="#ffffff" stroke="#a0a0a0" stroke-width="1">
                <path d="M -14 0 L 0-14 L 14 0 L 0 14 L -14 0 z"/>
            </g>
        </g>
        <g transform="translate(56,126) scale(1)">
            <g fill="#ffffff" stroke="#a0a0a0" stroke-width="1">
                <rect x="-14" y="-14" width="28" height="28" rx="4" ry="4"/>
                <rect x="18" y="-14" width="28" height="28" rx="4" ry="4"/>
                <rect x="50" y="-14" width="28" height="28" rx="4" ry="4"/>
                <rect x="82" y="-14" width="28" height="28" rx="4" ry="4"/>
                <rect x="114" y="-14" width="28" height="28" rx="4" ry="4"/>
                <rect x="146" y="-14" width="28" height="28" rx="4" ry="4"/>
                <rect x="178" y="-14" width="28" height="28" rx="4" ry="4"/>
            </g>
            <g font-size="9" font-family="Verdana" fill="#888888">
                <text id="" x="0" y="-22" dominant-baseline="central" text-anchor="middle">0</text>
                <text id="" x="32" y="-22" dominant-baseline="central" text-anchor="middle">1</text>
                <text id="" x="64" y="-22" dominant-baseline="central" text-anchor="middle">2</text>
                <text id="" x="96" y="-22" dominant-baseline="central" text-anchor="middle">3</text>
                <text id="" x="128" y="-22" dominant-baseline="central" text-anchor="middle">4</text>
                <text id="" x="160" y="-22" dominant-baseline="central" text-anchor="middle">5</text>
                <text id="" x="192" y="-22" dominant-baseline="central" text-anchor="middle">6</text>
            </g>
        </g>
        <g transform="translate(56,126) scale(1)">
            <g class="flash_g" fill="#ff8c00" stroke="#ff8c00" stroke-width="1">
                <rect x="82" y="-14" width="28" height="28" rx="4" ry="4"/>
                <rect x="114" y="-14" width="28" height="28" rx="4" ry="4"/>
                <rect x="146" y="-14" width="28" height="28" rx="4" ry="4"/>
                <rect x="178" y="-14" width="28" height="28" rx="4" ry="4"/>
            </g>
            <g fill="none" stroke="#a0a0a0" stroke-width="1">
                <rect x="82" y="-14" width="28" height="28" rx="4" ry="4"/>
                <rect x="114" y="-14" width="28" height="28" rx="4" ry="4"/>
                <rect x="146" y="-14" width="28" height="28" rx="4" ry="4"/>
                <rect x="178" y="-14" width="28" height="28" rx="4" ry="4"/>
            </g>
        </g>
        <g transform="translate(56,66) scale(1)">
            <g stroke-width="0">
                <circle cx="0" cy="0" r="10" fill="#88C8FF" id="var_A_2__0"/>
                <circle cx="32" cy="0" r="10" fill="#6EAEFF" id="var_A_2__1"/>
                <circle cx="64" cy="0" r="10" fill="#4686F6" id="var_A_2__2"/>
                <circle cx="96" cy="0" r="10" fill="#81C1FF" id="var_A_2__3"/>
                <circle cx="128" cy="0" r="10" fill="#74B4FF" id="var_A_2__4"/>
                <circle cx="160" cy="0" r="10" fill="#5393FF" id="var_A_2__5"/>
                <circle cx="192" cy="0" r="10" fill="#4080F0" id="var_A_2__6"/>
            </g>
            <g font-size="14" font-family="sans-serif" fill="#ffffff">
                <text id="text_A_2__0" x="0" y="0" dominant-baseline="central" text-anchor="middle">1</text>
                <text id="text_A_2__1" x="32" y="0" dominant-baseline="central" text-anchor="middle">5</text>
                <text id="text_A_2__2" x="64" y="0" dominant-baseline="central" text-anchor="middle">11</text>
                <text id="text_A_2__3" x="96" y="0" dominant-baseline="central" text-anchor="middle">2</text>
                <text id="text_A_2__4" x="128" y="0" dominant-baseline="central" text-anchor="middle">4</text>
                <text id="text_A_2__5" x="160" y="0" dominant-baseline="central" text-anchor="middle">9</text>
                <text id="text_A_2__6" x="192" y="0" dominant-baseline="central" text-anchor="middle">12</text>
            </g>
            <g font-size="14" font-family="sans-serif" fill="#4080f0">
                <text id="" x="-28" y="0" dominant-baseline="central" text-anchor="end">A</text>
            </g>
        </g>
        <g transform="translate(56,126) scale(1)">
            <g stroke-width="0">
                <circle cx="0" cy="0" r="10" fill="#88C8FF" id="var_T_2__0"/>
                <circle cx="32" cy="0" r="10" fill="#6EAEFF" id="var_T_2__1"/>
                <circle cx="64" cy="0" r="10" fill="#4686F6" id="var_T_2__2"/>
                <circle cx="96" cy="0" r="10" fill="#4080F0" id="var_T_2__3"/>
                <circle cx="128" cy="0" r="10" fill="#5393FF" id="var_T_2__4"/>
                <circle cx="160" cy="0" r="10" fill="#74B4FF" id="var_T_2__5"/>
                <circle cx="192" cy="0" r="10" fill="#81C1FF" id="var_T_2__6"/>
            </g>
            <g font-size="14" font-family="sans-serif" fill="#ffffff">
                <text id="text_T_2__0" x="0" y="0" dominant-baseline="central" text-anchor="middle">1</text>
                <text id="text_T_2__1" x="32" y="0" dominant-baseline="central" text-anchor="middle">5</text>
                <text id="text_T_2__2" x="64" y="0" dominant-baseline="central" text-anchor="middle">11</text>
                <text id="text_T_2__3" x="96" y="0" dominant-baseline="central" text-anchor="middle">12</text>
                <text id="text_T_2__4" x="128" y="0" dominant-baseline="central" text-anchor="middle">9</text>
                <text id="text_T_2__5" x="160" y="0" dominant-baseline="central" text-anchor="middle">4</text>
                <text id="text_T_2__6" x="192" y="0" dominant-baseline="central" text-anchor="middle">2</text>
            </g>
            <g font-size="14" font-family="sans-serif" fill="#4080f0">
                <text id="" x="-28" y="0" dominant-baseline="central" text-anchor="end">T</text>
            </g>
            <animateMotion xlink:href="#var_T_2__6" path="M -96,0 Q -48,48 0,0" dur="0.9s" repeatCount="1"/>
            <animateMotion xlink:href="#text_T_2__6" path="M -96,0 Q -48,48 0,0" dur="0.9s" repeatCount="1"/>
            <g fill="none" stroke="#60a0ff" stroke-width="4" stroke-linecap="round" stroke-dasharray="0.1, 8">
                <path class="for_print" d="M 105.899 9.89949 Q 144 48 182.101 9.89949" marker-end="url(#token_arrow)"/>
            </g>
            <animateMotion xlink:href="#var_T_2__3" path="M 96,0 Q 48,-48 0,0" dur="0.9s" repeatCount="1"/>
            <animateMotion xlink:href="#text_T_2__3" path="M 96,0 Q 48,-48 0,0" dur="0.9s" repeatCount="1"/>
            <g fill="none" stroke="#60a0ff" stroke-width="4" stroke-linecap="round" stroke-dasharray="0.1, 8">
                <path class="for_print" d="M 182.101 -9.89949 Q 144 -48 105.899 -9.89949"
                      marker-end="url(#token_arrow)"/>
            </g>
            <animateMotion xlink:href="#var_T_2__5" path="M -32,0 Q -16,16 0,0" dur="0.9s" repeatCount="1"/>
            <animateMotion xlink:href="#text_T_2__5" path="M -32,0 Q -16,16 0,0" dur="0.9s" repeatCount="1"/>
            <g fill="none" stroke="#60a0ff" stroke-width="4" stroke-linecap="round" stroke-dasharray="0.1, 8">
                <path class="for_print" d="M 137.899 9.89949 Q 144 16 150.101 9.89949" marker-end="url(#token_arrow)"/>
            </g>
            <animateMotion xlink:href="#var_T_2__4" path="M 32,0 Q 16,-16 0,0" dur="0.9s" repeatCount="1"/>
            <animateMotion xlink:href="#text_T_2__4" path="M 32,0 Q 16,-16 0,0" dur="0.9s" repeatCount="1"/>
            <g fill="none" stroke="#60a0ff" stroke-width="4" stroke-linecap="round" stroke-dasharray="0.1, 8">
                <path class="for_print" d="M 150.101 -9.89949 Q 144 -16 137.899 -9.89949"
                      marker-end="url(#token_arrow)"/>
            </g>
        </g>
    </g>
    <text x="336" y="20" font-size="16" text-anchor="middle" fill="#888888" font-family="sans-serif">1-2</text>
    <text x="460" y="184" font-size="9" text-anchor="middle" font-family="SimSun, 宋体, serif">反转后半部分</text>
</svg>

