<?xml version="1.0" encoding="UTF-8" standalone="no"?>
<svg
xmlns:svg="http://www.w3.org/2000/svg"
xmlns="http://www.w3.org/2000/svg"
xmlns:xlink="http://www.w3.org/1999/xlink"
width ="1080"
height ="236"
viewBox ="0 0 1080 236"
>
<defs><polygon points="0,0 6,8, 0,16 20,8" id="m_tmpl2"/><marker id="token_arrow"  markerUnits="userSpaceOnUse" markerWidth="20" markerHeight="16" viewBox="0 0 20 16" refX="14" refY="8" orient="auto"><use xlink:href="#m_tmpl2" fill="#60a0ff"/></marker></defs><defs><polygon points="0,0 0,4 0,8 12,4" id="m_tmpl3"/><marker id="link_arrow" markerUnits="strokeWidth" markerWidth="12" markerHeight="8" viewBox="0 0 12 8" refX="12" refY="4" orient="auto"><use xlink:href="#m_tmpl3" fill="#888888"/></marker></defs><rect x ="0" y="0" width="500" height="220" fill="#ffffff" stroke="#888888" stroke-width="1"/><path fill="#0088e0" d="M 512 110 L 512 90 L 532 110 L 512 130 z" /><g transform="translate(0,0)"><g transform="translate(20,0) scale(1)"><g fill="#ffffff" stroke="#a0a0a0" stroke-width="1"><line x1="40" y1="100" x2="110" y2="50" stroke-linecap="round"/><line x1="40" y1="100" x2="110" y2="150" stroke-linecap="round"/><line x1="110" y1="50" x2="40" y2="100" stroke-linecap="round"/><line x1="110" y1="50" x2="210" y2="50" stroke-linecap="round"/><line x1="110" y1="50" x2="110" y2="150" stroke-linecap="round"/><line x1="110" y1="150" x2="40" y2="100" stroke-linecap="round"/><line x1="110" y1="150" x2="110" y2="50" stroke-linecap="round"/><line x1="110" y1="150" x2="210" y2="50" stroke-linecap="round"/><line x1="110" y1="150" x2="210" y2="150" stroke-linecap="round"/><line x1="210" y1="50" x2="110" y2="50" stroke-linecap="round"/><line x1="210" y1="50" x2="110" y2="150" stroke-linecap="round"/><line x1="210" y1="50" x2="210" y2="150" stroke-linecap="round"/><line x1="210" y1="150" x2="110" y2="150" stroke-linecap="round"/><line x1="210" y1="150" x2="210" y2="50" stroke-linecap="round"/><circle cx="40" cy="100" r="14" /><circle cx="110" cy="50" r="14" /><circle cx="110" cy="150" r="14" /><circle cx="210" cy="50" r="14" /><circle cx="210" cy="150" r="14" /><rect x="69" y="69" width="12" height="12" rx="2" ry="2" /><rect x="69" y="119" width="12" height="12" rx="2" ry="2" /><rect x="69" y="69" width="12" height="12" rx="2" ry="2" /><rect x="154" y="44" width="12" height="12" rx="2" ry="2" /><rect x="104" y="94" width="12" height="12" rx="2" ry="2" /><rect x="69" y="119" width="12" height="12" rx="2" ry="2" /><rect x="104" y="94" width="12" height="12" rx="2" ry="2" /><rect x="154" y="94" width="12" height="12" rx="2" ry="2" /><rect x="154" y="144" width="12" height="12" rx="2" ry="2" /><rect x="154" y="44" width="12" height="12" rx="2" ry="2" /><rect x="154" y="94" width="12" height="12" rx="2" ry="2" /><rect x="204" y="94" width="12" height="12" rx="2" ry="2" /><rect x="154" y="144" width="12" height="12" rx="2" ry="2" /><rect x="204" y="94" width="12" height="12" rx="2" ry="2" /></g><g font-size="9" font-family="Verdana" fill="#888888"><text id="" x="40" y="74" dominant-baseline="central" text-anchor="middle">0</text><text id="" x="110" y="24" dominant-baseline="central" text-anchor="middle">1</text><text id="" x="110" y="124" dominant-baseline="central" text-anchor="middle">2</text><text id="" x="210" y="24" dominant-baseline="central" text-anchor="middle">3</text><text id="" x="210" y="124" dominant-baseline="central" text-anchor="middle">4</text></g></g><g transform="translate(20,0) scale(1)"><g class="flash_g" fill="#ffd700" stroke="#ffd700" stroke-width="1"><circle cx="40" cy="100" r="14" /></g><g fill="none" stroke="#a0a0a0" stroke-width="1"><circle cx="40" cy="100" r="14" /></g></g><g transform="translate(20,0) scale(1)"><g class="flash_g" fill="#ff8c00" stroke="#ff8c00" stroke-width="1"><circle cx="110" cy="50" r="14" /><circle cx="110" cy="150" r="14" /><circle cx="210" cy="50" r="14" /><circle cx="210" cy="150" r="14" /></g><g fill="none" stroke="#a0a0a0" stroke-width="1"><circle cx="110" cy="50" r="14" /><circle cx="110" cy="150" r="14" /><circle cx="210" cy="50" r="14" /><circle cx="210" cy="150" r="14" /></g></g><g transform="translate(20,0) scale(1)"><g stroke-width="0"><circle cx="40" cy="100" r="10" fill="#8FCFFF" id="var_dist_1__0" /><circle cx="110" cy="50" r="10" fill="#4080f0" id="var_dist_1__1" /><circle cx="110" cy="150" r="10" fill="#4080f0" id="var_dist_1__2" /><circle cx="210" cy="50" r="10" fill="#4080f0" id="var_dist_1__3" /><circle cx="210" cy="150" r="10" fill="#4080f0" id="var_dist_1__4" /></g><g font-size="14" font-family="sans-serif" fill="#ffffff"><text id="text_dist_1__0" x="40" y="100" dominant-baseline="central" text-anchor="middle">0</text><text id="text_dist_1__1" x="110" y="50" dominant-baseline="central" text-anchor="middle">∞</text><text id="text_dist_1__2" x="110" y="150" dominant-baseline="central" text-anchor="middle">∞</text><text id="text_dist_1__3" x="210" y="50" dominant-baseline="central" text-anchor="middle">∞</text><text id="text_dist_1__4" x="210" y="150" dominant-baseline="central" text-anchor="middle">∞</text></g></g><g transform="translate(20,0) scale(1)"><g font-size="11" font-family="sans-serif" fill="#888888"><text id="" x="75" y="75" dominant-baseline="central" text-anchor="middle">4</text><text id="" x="75" y="125" dominant-baseline="central" text-anchor="middle">2</text><text id="" x="75" y="75" dominant-baseline="central" text-anchor="middle">4</text><text id="" x="160" y="50" dominant-baseline="central" text-anchor="middle">2</text><text id="" x="110" y="100" dominant-baseline="central" text-anchor="middle">1</text><text id="" x="75" y="125" dominant-baseline="central" text-anchor="middle">2</text><text id="" x="110" y="100" dominant-baseline="central" text-anchor="middle">1</text><text id="" x="160" y="100" dominant-baseline="central" text-anchor="middle">6</text><text id="" x="160" y="150" dominant-baseline="central" text-anchor="middle">8</text><text id="" x="160" y="50" dominant-baseline="central" text-anchor="middle">2</text><text id="" x="160" y="100" dominant-baseline="central" text-anchor="middle">6</text><text id="" x="210" y="100" dominant-baseline="central" text-anchor="middle">2</text><text id="" x="160" y="150" dominant-baseline="central" text-anchor="middle">8</text><text id="" x="210" y="100" dominant-baseline="central" text-anchor="middle">2</text></g></g></g><text x="16" y="20" font-size="16" text-anchor="middle" fill="#888888" font-family="sans-serif" >1-1</text><text x="250" y="204" font-size="9" text-anchor="middle" font-family="SimSun, 宋体, serif">将起点的最短距离初始化为 0</text><rect x ="540" y="0" width="500" height="220" fill="#ffffff" stroke="#888888" stroke-width="1"/><g transform="translate(540,0)"><g transform="translate(20,0) scale(1)"><g fill="#ffffff" stroke="#a0a0a0" stroke-width="1"><line x1="40" y1="100" x2="110" y2="50" stroke-linecap="round"/><line x1="40" y1="100" x2="110" y2="150" stroke-linecap="round"/><line x1="110" y1="50" x2="40" y2="100" stroke-linecap="round"/><line x1="110" y1="50" x2="210" y2="50" stroke-linecap="round"/><line x1="110" y1="50" x2="110" y2="150" stroke-linecap="round"/><line x1="110" y1="150" x2="40" y2="100" stroke-linecap="round"/><line x1="110" y1="150" x2="110" y2="50" stroke-linecap="round"/><line x1="110" y1="150" x2="210" y2="50" stroke-linecap="round"/><line x1="110" y1="150" x2="210" y2="150" stroke-linecap="round"/><line x1="210" y1="50" x2="110" y2="50" stroke-linecap="round"/><line x1="210" y1="50" x2="110" y2="150" stroke-linecap="round"/><line x1="210" y1="50" x2="210" y2="150" stroke-linecap="round"/><line x1="210" y1="150" x2="110" y2="150" stroke-linecap="round"/><line x1="210" y1="150" x2="210" y2="50" stroke-linecap="round"/><circle cx="40" cy="100" r="14" /><circle cx="110" cy="50" r="14" /><circle cx="110" cy="150" r="14" /><circle cx="210" cy="50" r="14" /><circle cx="210" cy="150" r="14" /><rect x="69" y="69" width="12" height="12" rx="2" ry="2" /><rect x="69" y="119" width="12" height="12" rx="2" ry="2" /><rect x="69" y="69" width="12" height="12" rx="2" ry="2" /><rect x="154" y="44" width="12" height="12" rx="2" ry="2" /><rect x="104" y="94" width="12" height="12" rx="2" ry="2" /><rect x="69" y="119" width="12" height="12" rx="2" ry="2" /><rect x="104" y="94" width="12" height="12" rx="2" ry="2" /><rect x="154" y="94" width="12" height="12" rx="2" ry="2" /><rect x="154" y="144" width="12" height="12" rx="2" ry="2" /><rect x="154" y="44" width="12" height="12" rx="2" ry="2" /><rect x="154" y="94" width="12" height="12" rx="2" ry="2" /><rect x="204" y="94" width="12" height="12" rx="2" ry="2" /><rect x="154" y="144" width="12" height="12" rx="2" ry="2" /><rect x="204" y="94" width="12" height="12" rx="2" ry="2" /></g><g font-size="9" font-family="Verdana" fill="#888888"><text id="" x="40" y="74" dominant-baseline="central" text-anchor="middle">0</text><text id="" x="110" y="24" dominant-baseline="central" text-anchor="middle">1</text><text id="" x="110" y="124" dominant-baseline="central" text-anchor="middle">2</text><text id="" x="210" y="24" dominant-baseline="central" text-anchor="middle">3</text><text id="" x="210" y="124" dominant-baseline="central" text-anchor="middle">4</text></g></g><g transform="translate(20,0) scale(1)"><g stroke-width="0"><circle cx="40" cy="100" r="10" fill="#8FCFFF" id="var_dist_2__0" /><circle cx="110" cy="50" r="10" fill="#4080f0" id="var_dist_2__1" /><circle cx="110" cy="150" r="10" fill="#4080f0" id="var_dist_2__2" /><circle cx="210" cy="50" r="10" fill="#4080f0" id="var_dist_2__3" /><circle cx="210" cy="150" r="10" fill="#4080f0" id="var_dist_2__4" /></g><g font-size="14" font-family="sans-serif" fill="#ffffff"><text id="text_dist_2__0" x="40" y="100" dominant-baseline="central" text-anchor="middle">0</text><text id="text_dist_2__1" x="110" y="50" dominant-baseline="central" text-anchor="middle">∞</text><text id="text_dist_2__2" x="110" y="150" dominant-baseline="central" text-anchor="middle">∞</text><text id="text_dist_2__3" x="210" y="50" dominant-baseline="central" text-anchor="middle">∞</text><text id="text_dist_2__4" x="210" y="150" dominant-baseline="central" text-anchor="middle">∞</text></g></g><g transform="translate(20,0) scale(1)"><g font-size="11" font-family="sans-serif" fill="#888888"><text id="" x="75" y="75" dominant-baseline="central" text-anchor="middle">4</text><text id="" x="75" y="125" dominant-baseline="central" text-anchor="middle">2</text><text id="" x="75" y="75" dominant-baseline="central" text-anchor="middle">4</text><text id="" x="160" y="50" dominant-baseline="central" text-anchor="middle">2</text><text id="" x="110" y="100" dominant-baseline="central" text-anchor="middle">1</text><text id="" x="75" y="125" dominant-baseline="central" text-anchor="middle">2</text><text id="" x="110" y="100" dominant-baseline="central" text-anchor="middle">1</text><text id="" x="160" y="100" dominant-baseline="central" text-anchor="middle">6</text><text id="" x="160" y="150" dominant-baseline="central" text-anchor="middle">8</text><text id="" x="160" y="50" dominant-baseline="central" text-anchor="middle">2</text><text id="" x="160" y="100" dominant-baseline="central" text-anchor="middle">6</text><text id="" x="210" y="100" dominant-baseline="central" text-anchor="middle">2</text><text id="" x="160" y="150" dominant-baseline="central" text-anchor="middle">8</text><text id="" x="210" y="100" dominant-baseline="central" text-anchor="middle">2</text></g></g><g transform="translate(270,30) scale(1)"><g stroke="#F0F8FF" stroke-width="0" fill="#F0F8FF"></g><g stroke="#F0F8FF" stroke-width="57.6" fill="#F0F8FF"></g></g><g transform="translate(270,30) scale(1)"><g fill="#ffffff" stroke="#a0a0a0" stroke-width="1"><line x1="140" y1="112" x2="168" y2="70" stroke-linecap="round"/><rect x="122" y="94" width="36" height="36" rx="4" ry="4" /><line x1="84" y1="112" x2="56" y2="70" stroke-linecap="round"/><rect x="66" y="94" width="36" height="36" rx="4" ry="4" /><line x1="28" y1="112" x2="56" y2="70" stroke-linecap="round"/><rect x="10" y="94" width="36" height="36" rx="4" ry="4" /><line x1="168" y1="70" x2="112" y2="28" stroke-linecap="round"/><rect x="150" y="52" width="36" height="36" rx="4" ry="4" /><line x1="56" y1="70" x2="112" y2="28" stroke-linecap="round"/><rect x="38" y="52" width="36" height="36" rx="4" ry="4" /><rect x="94" y="10" width="36" height="36" rx="4" ry="4" /></g></g><g transform="translate(472,28) scale(1)"><g fill="#ffffff" stroke="#a0a0a0" stroke-width="1"><path d="M -14 0 L 0-14 L 14 0 L 0 14 L -14 0 z" /></g></g><g transform="translate(270,30) scale(1)"><g class="flash_g" fill="#ffd700" stroke="#ffd700" stroke-width="1"><rect x="94" y="10" width="36" height="36" rx="4" ry="4" /></g><g fill="none" stroke="#a0a0a0" stroke-width="1"><rect x="94" y="10" width="36" height="36" rx="4" ry="4" /></g></g><g transform="translate(270,30) scale(1)"><g stroke-width="0"><path d="M 125,28 a 13 13 0 0 0 -26,0 z" fill="#8FCFFF" id="var_A_1__0"/></g><g font-size="11" font-family="sans-serif" fill="#ffffff"><text id="text_A_1__0" x="112" y="22" dominant-baseline="central" text-anchor="middle">0</text></g><animateMotion xlink:href="#var_A_1__0" path="M80 0 L 0 0" dur="0.9s" repeatCount="1"/><animateMotion xlink:href="#text_A_1__0" path="M80 0 L 0 0" dur="0.9s" repeatCount="1"/><g fill="none" stroke="#60a0ff" stroke-width="4" stroke-linecap="round" stroke-dasharray="0.1, 8"><path class="for_print" d="M 178 28 L 126 28"  marker-end="url(#token_arrow)"/></g></g><g transform="translate(270,30) scale(1)"><g stroke-width="0"><path d="M 125,28 a 13 13 0 0 1 -26,0 z" fill="#aaaaaa" id="var_nodeId_1__0"/></g><g font-size="11" font-family="sans-serif" fill="#ffffff"><text id="text_nodeId_1__0" x="112" y="34" dominant-baseline="central" text-anchor="middle">0</text></g><animateMotion xlink:href="#var_nodeId_1__0" path="M80 0 L 0 0" dur="0.9s" repeatCount="1"/><animateMotion xlink:href="#text_nodeId_1__0" path="M80 0 L 0 0" dur="0.9s" repeatCount="1"/><g fill="none" stroke="#60a0ff" stroke-width="4" stroke-linecap="round" stroke-dasharray="0.1, 8"><path class="for_print" d="M 178 28 L 126 28"  marker-end="url(#token_arrow)"/></g></g></g><text x="556" y="20" font-size="16" text-anchor="middle" fill="#888888" font-family="sans-serif" >1-2</text><text x="790" y="204" font-size="9" text-anchor="middle" font-family="SimSun, 宋体, serif">将起点插入优先队列</text></svg>

