<?xml version="1.0" encoding="UTF-8" standalone="no"?>
<svg
xmlns:svg="http://www.w3.org/2000/svg"
xmlns="http://www.w3.org/2000/svg"
xmlns:xlink="http://www.w3.org/1999/xlink"
width ="1080"
height ="236"
viewBox ="0 0 1080 236"
>
<defs><polygon points="0,0 6,8, 0,16 20,8" id="m_tmpl2"/><marker id="token_arrow"  markerUnits="userSpaceOnUse" markerWidth="20" markerHeight="16" viewBox="0 0 20 16" refX="14" refY="8" orient="auto"><use xlink:href="#m_tmpl2" fill="#60a0ff"/></marker></defs><defs><polygon points="0,0 0,4 0,8 12,4" id="m_tmpl3"/><marker id="link_arrow" markerUnits="strokeWidth" markerWidth="12" markerHeight="8" viewBox="0 0 12 8" refX="12" refY="4" orient="auto"><use xlink:href="#m_tmpl3" fill="#888888"/></marker></defs><rect x ="0" y="0" width="500" height="220" fill="#ffffff" stroke="#888888" stroke-width="1"/><g transform="translate(0,0)"><g transform="translate(20,0) scale(1)"><g stroke="#aae0ff" stroke-width="0" fill="#aae0ff"><circle cx="40" cy="100" r="22" /><circle cx="110" cy="50" r="22" /><circle cx="110" cy="150" r="22" /><circle cx="210" cy="50" r="22" /><circle cx="210" cy="150" r="22" /></g><g stroke="#aae0ff" stroke-width="44.8" fill="#aae0ff"><line x1="40" y1="100" x2="110" y2="50" stroke-linecap="round"/><line x1="40" y1="100" x2="110" y2="150" stroke-linecap="round"/><line x1="110" y1="50" x2="40" y2="100" stroke-linecap="round"/><line x1="110" y1="50" x2="210" y2="50" stroke-linecap="round"/><line x1="110" y1="50" x2="110" y2="150" stroke-linecap="round"/><line x1="110" y1="150" x2="40" y2="100" stroke-linecap="round"/><line x1="110" y1="150" x2="110" y2="50" stroke-linecap="round"/><line x1="110" y1="150" x2="210" y2="50" stroke-linecap="round"/><line x1="110" y1="150" x2="210" y2="150" stroke-linecap="round"/><line x1="210" y1="50" x2="110" y2="50" stroke-linecap="round"/><line x1="210" y1="50" x2="110" y2="150" stroke-linecap="round"/><line x1="210" y1="50" x2="210" y2="150" stroke-linecap="round"/><line x1="210" y1="150" x2="110" y2="150" stroke-linecap="round"/><line x1="210" y1="150" x2="210" y2="50" stroke-linecap="round"/></g></g><g transform="translate(20,0) scale(1)"><g stroke="#888888" stroke-width="8"><line x1="110" y1="150" x2="110" y2="50" stroke-linecap="round"/><line x1="40" y1="100" x2="110" y2="150" stroke-linecap="round"/><line x1="110" y1="50" x2="210" y2="50" stroke-linecap="round"/><line x1="210" y1="50" x2="210" y2="150" stroke-linecap="round"/></g></g><g transform="translate(20,0) scale(1)"><g fill="#ffffff" stroke="#a0a0a0" stroke-width="1"><line x1="40" y1="100" x2="110" y2="50" stroke-linecap="round"/><line x1="40" y1="100" x2="110" y2="150" stroke-linecap="round"/><line x1="110" y1="50" x2="40" y2="100" stroke-linecap="round"/><line x1="110" y1="50" x2="210" y2="50" stroke-linecap="round"/><line x1="110" y1="50" x2="110" y2="150" stroke-linecap="round"/><line x1="110" y1="150" x2="40" y2="100" stroke-linecap="round"/><line x1="110" y1="150" x2="110" y2="50" stroke-linecap="round"/><line x1="110" y1="150" x2="210" y2="50" stroke-linecap="round"/><line x1="110" y1="150" x2="210" y2="150" stroke-linecap="round"/><line x1="210" y1="50" x2="110" y2="50" stroke-linecap="round"/><line x1="210" y1="50" x2="110" y2="150" stroke-linecap="round"/><line x1="210" y1="50" x2="210" y2="150" stroke-linecap="round"/><line x1="210" y1="150" x2="110" y2="150" stroke-linecap="round"/><line x1="210" y1="150" x2="210" y2="50" stroke-linecap="round"/><circle cx="40" cy="100" r="14" /><circle cx="110" cy="50" r="14" /><circle cx="110" cy="150" r="14" /><circle cx="210" cy="50" r="14" /><circle cx="210" cy="150" r="14" /><rect x="69" y="69" width="12" height="12" rx="2" ry="2" /><rect x="69" y="119" width="12" height="12" rx="2" ry="2" /><rect x="69" y="69" width="12" height="12" rx="2" ry="2" /><rect x="154" y="44" width="12" height="12" rx="2" ry="2" /><rect x="104" y="94" width="12" height="12" rx="2" ry="2" /><rect x="69" y="119" width="12" height="12" rx="2" ry="2" /><rect x="104" y="94" width="12" height="12" rx="2" ry="2" /><rect x="154" y="94" width="12" height="12" rx="2" ry="2" /><rect x="154" y="144" width="12" height="12" rx="2" ry="2" /><rect x="154" y="44" width="12" height="12" rx="2" ry="2" /><rect x="154" y="94" width="12" height="12" rx="2" ry="2" /><rect x="204" y="94" width="12" height="12" rx="2" ry="2" /><rect x="154" y="144" width="12" height="12" rx="2" ry="2" /><rect x="204" y="94" width="12" height="12" rx="2" ry="2" /></g><g font-size="9" font-family="Verdana" fill="#888888"><text id="" x="40" y="74" dominant-baseline="central" text-anchor="middle">0</text><text id="" x="110" y="24" dominant-baseline="central" text-anchor="middle">1</text><text id="" x="110" y="124" dominant-baseline="central" text-anchor="middle">2</text><text id="" x="210" y="24" dominant-baseline="central" text-anchor="middle">3</text><text id="" x="210" y="124" dominant-baseline="central" text-anchor="middle">4</text></g></g><g transform="translate(20,0) scale(1)"><g class="flash_g" fill="#ffffff" stroke="#ffd700" stroke-width="2"><circle cx="40" cy="100" r="14" /><circle cx="110" cy="50" r="14" /><circle cx="110" cy="150" r="14" /><circle cx="210" cy="50" r="14" /><circle cx="210" cy="150" r="14" /></g></g><g transform="translate(20,0) scale(1)"><g font-size="11" font-family="sans-serif" fill="#888888"><text id="" x="75" y="75" dominant-baseline="central" text-anchor="middle">4</text><text id="" x="75" y="125" dominant-baseline="central" text-anchor="middle">2</text><text id="" x="75" y="75" dominant-baseline="central" text-anchor="middle">4</text><text id="" x="160" y="50" dominant-baseline="central" text-anchor="middle">2</text><text id="" x="110" y="100" dominant-baseline="central" text-anchor="middle">1</text><text id="" x="75" y="125" dominant-baseline="central" text-anchor="middle">2</text><text id="" x="110" y="100" dominant-baseline="central" text-anchor="middle">1</text><text id="" x="160" y="100" dominant-baseline="central" text-anchor="middle">6</text><text id="" x="160" y="150" dominant-baseline="central" text-anchor="middle">8</text><text id="" x="160" y="50" dominant-baseline="central" text-anchor="middle">2</text><text id="" x="160" y="100" dominant-baseline="central" text-anchor="middle">6</text><text id="" x="210" y="100" dominant-baseline="central" text-anchor="middle">2</text><text id="" x="160" y="150" dominant-baseline="central" text-anchor="middle">8</text><text id="" x="210" y="100" dominant-baseline="central" text-anchor="middle">2</text></g></g><g transform="translate(20,0) scale(1)"><g stroke-width="0"><circle cx="110" cy="50" r="10" fill="#66c088" id="var_parent_1__1" /><circle cx="110" cy="150" r="10" fill="#66c088" id="var_parent_1__2" /><circle cx="210" cy="50" r="10" fill="#66c088" id="var_parent_1__3" /><circle cx="210" cy="150" r="10" fill="#66c088" id="var_parent_1__4" /></g><g font-size="14" font-family="sans-serif" fill="#ffffff"><text id="text_parent_1__1" x="110" y="50" dominant-baseline="central" text-anchor="middle">2</text><text id="text_parent_1__2" x="110" y="150" dominant-baseline="central" text-anchor="middle">0</text><text id="text_parent_1__3" x="210" y="50" dominant-baseline="central" text-anchor="middle">1</text><text id="text_parent_1__4" x="210" y="150" dominant-baseline="central" text-anchor="middle">3</text></g></g></g><text x="16" y="20" font-size="16" text-anchor="middle" fill="#888888" font-family="sans-serif" >3-1</text><text x="250" y="204" font-size="9" text-anchor="middle" font-family="SimSun, 宋体, serif">使用 parent 构建最短路径树</text></svg>

