<?xml version="1.0" encoding="UTF-8" standalone="no"?>
<svg
xmlns:svg="http://www.w3.org/2000/svg"
xmlns="http://www.w3.org/2000/svg"
xmlns:xlink="http://www.w3.org/1999/xlink"
width ="640"
height ="864"
viewBox ="0 0 640 864"
>
<defs><polygon points="0,0 6,8, 0,16 20,8" id="m_tmpl2"/><marker id="token_arrow"  markerUnits="userSpaceOnUse" markerWidth="20" markerHeight="16" viewBox="0 0 20 16" refX="14" refY="8" orient="auto"><use xlink:href="#m_tmpl2" fill="#60a0ff"/></marker></defs><defs><polygon points="0,0 0,4 0,8 12,4" id="m_tmpl3"/><marker id="link_arrow" markerUnits="strokeWidth" markerWidth="12" markerHeight="8" viewBox="0 0 12 8" refX="12" refY="4" orient="auto"><use xlink:href="#m_tmpl3" fill="#888888"/></marker></defs><rect x ="0" y="0" width="280" height="200" fill="#ffffff" stroke="#888888" stroke-width="1"/><path fill="#0088e0" d="M 292 100 L 292 80 L 312 100 L 292 120 z" /><g transform="translate(0,0)"><g transform="translate(70,100) scale(1)"><g fill="#ffffff" stroke="#a0a0a0" stroke-width="1"><rect x="-14" y="-14" width="28" height="28" rx="4" ry="4" /><rect x="18" y="-14" width="28" height="28" rx="4" ry="4" /><rect x="50" y="-14" width="28" height="28" rx="4" ry="4" /><rect x="82" y="-14" width="28" height="28" rx="4" ry="4" /><rect x="114" y="-14" width="28" height="28" rx="4" ry="4" /><rect x="146" y="-14" width="28" height="28" rx="4" ry="4" /></g><g font-size="9" font-family="Verdana" fill="#888888"><text id="" x="0" y="-22" dominant-baseline="central" text-anchor="middle">0</text><text id="" x="32" y="-22" dominant-baseline="central" text-anchor="middle">1</text><text id="" x="64" y="-22" dominant-baseline="central" text-anchor="middle">2</text><text id="" x="96" y="-22" dominant-baseline="central" text-anchor="middle">3</text><text id="" x="128" y="-22" dominant-baseline="central" text-anchor="middle">4</text><text id="" x="160" y="-22" dominant-baseline="central" text-anchor="middle">5</text></g></g><g transform="translate(70,100) scale(1)"><g class="flash_g" fill="#ff1493" stroke="#ff1493" stroke-width="1"><rect x="-14" y="-14" width="28" height="28" rx="4" ry="4" /></g><g fill="none" stroke="#a0a0a0" stroke-width="1"><rect x="-14" y="-14" width="28" height="28" rx="4" ry="4" /></g></g><g transform="translate(70,100) scale(1)"><g transform="translate(0,-14) rotate(0)" fill="#ff8c00"><path d="M 0 0 L 8 -10 L 4 -10 L 4 -26 L -4 -26 L -4 -10 L -8 -10 z"/></g></g><g transform="translate(70,100) scale(1)"><g class="flash_g" transform="translate(0,-14) rotate(0)" fill="#ff1493"><path d="M 0 0 L 8 -10 L 4 -10 L 4 -26 L -4 -26 L -4 -10 L -8 -10 z"/></g></g><g transform="translate(70,100) scale(1)"><g stroke-width="0"><circle cx="0" cy="0" r="10" fill="#e8d0ff" id="var_Q_1__0" /></g><g font-size="14" font-family="sans-serif" fill="#888888"><text id="text_Q_1__0" x="0" y="0" dominant-baseline="central" text-anchor="middle">4</text></g><g font-size="14" font-family="sans-serif" fill="#ffffff"><text id="" x="-28" y="0" dominant-baseline="central" text-anchor="end">Q</text></g><animateMotion xlink:href="#var_Q_1__0" path="M80 0 L 0 0" dur="0.9s" repeatCount="1"/><animateMotion xlink:href="#text_Q_1__0" path="M80 0 L 0 0" dur="0.9s" repeatCount="1"/><g fill="none" stroke="#60a0ff" stroke-width="4" stroke-linecap="round" stroke-dasharray="0.1, 8"><path class="for_print" d="M 66 0 L 14 0"  marker-end="url(#token_arrow)"/></g></g></g><text x="16" y="20" font-size="16" text-anchor="middle" fill="#888888" font-family="sans-serif" >1-1</text><text x="140" y="184" font-size="9" text-anchor="middle" font-family="SimSun, 宋体, serif">enqueue(4): Q[0] &#8592; 4</text><rect x ="320" y="0" width="280" height="200" fill="#ffffff" stroke="#888888" stroke-width="1"/><path fill="#0088e0" d="M 612 100 L 612 80 L 632 100 L 612 120 z" /><g transform="translate(320,0)"><g transform="translate(70,100) scale(1)"><g fill="#ffffff" stroke="#a0a0a0" stroke-width="1"><rect x="-14" y="-14" width="28" height="28" rx="4" ry="4" /><rect x="18" y="-14" width="28" height="28" rx="4" ry="4" /><rect x="50" y="-14" width="28" height="28" rx="4" ry="4" /><rect x="82" y="-14" width="28" height="28" rx="4" ry="4" /><rect x="114" y="-14" width="28" height="28" rx="4" ry="4" /><rect x="146" y="-14" width="28" height="28" rx="4" ry="4" /></g><g font-size="9" font-family="Verdana" fill="#888888"><text id="" x="0" y="-22" dominant-baseline="central" text-anchor="middle">0</text><text id="" x="32" y="-22" dominant-baseline="central" text-anchor="middle">1</text><text id="" x="64" y="-22" dominant-baseline="central" text-anchor="middle">2</text><text id="" x="96" y="-22" dominant-baseline="central" text-anchor="middle">3</text><text id="" x="128" y="-22" dominant-baseline="central" text-anchor="middle">4</text><text id="" x="160" y="-22" dominant-baseline="central" text-anchor="middle">5</text></g></g><g transform="translate(70,100) scale(1)"><g class="flash_g" fill="#ff1493" stroke="#ff1493" stroke-width="1"><rect x="18" y="-14" width="28" height="28" rx="4" ry="4" /></g><g fill="none" stroke="#a0a0a0" stroke-width="1"><rect x="18" y="-14" width="28" height="28" rx="4" ry="4" /></g></g><g transform="translate(70,100) scale(1)"><g transform="translate(0,-14) rotate(0)" fill="#ff8c00"><path d="M 0 0 L 8 -10 L 4 -10 L 4 -26 L -4 -26 L -4 -10 L -8 -10 z"/></g></g><g transform="translate(70,100) scale(1)"><g class="flash_g" transform="translate(32,-14) rotate(0)" fill="#ff1493"><path d="M 0 0 L 8 -10 L 4 -10 L 4 -26 L -4 -26 L -4 -10 L -8 -10 z"/></g></g><g transform="translate(70,100) scale(1)"><g stroke-width="0"><circle cx="0" cy="0" r="10" fill="#e8d0ff" id="var_Q_2__0" /><circle cx="32" cy="0" r="10" fill="#f0f080" id="var_Q_2__1" /></g><g font-size="14" font-family="sans-serif" fill="#888888"><text id="text_Q_2__0" x="0" y="0" dominant-baseline="central" text-anchor="middle">4</text><text id="text_Q_2__1" x="32" y="0" dominant-baseline="central" text-anchor="middle">8</text></g><g font-size="14" font-family="sans-serif" fill="#ffffff"><text id="" x="-28" y="0" dominant-baseline="central" text-anchor="end">Q</text></g><animateMotion xlink:href="#var_Q_2__1" path="M80 0 L 0 0" dur="0.9s" repeatCount="1"/><animateMotion xlink:href="#text_Q_2__1" path="M80 0 L 0 0" dur="0.9s" repeatCount="1"/><g fill="none" stroke="#60a0ff" stroke-width="4" stroke-linecap="round" stroke-dasharray="0.1, 8"><path class="for_print" d="M 98 0 L 46 0"  marker-end="url(#token_arrow)"/></g></g></g><text x="336" y="20" font-size="16" text-anchor="middle" fill="#888888" font-family="sans-serif" >1-2</text><text x="460" y="184" font-size="9" text-anchor="middle" font-family="SimSun, 宋体, serif">enqueue(8): Q[1] &#8592; 8</text><rect x ="0" y="216" width="280" height="200" fill="#ffffff" stroke="#888888" stroke-width="1"/><path fill="#0088e0" d="M 292 316 L 292 296 L 312 316 L 292 336 z" /><g transform="translate(0,216)"><g transform="translate(70,100) scale(1)"><g fill="#ffffff" stroke="#a0a0a0" stroke-width="1"><rect x="-14" y="-14" width="28" height="28" rx="4" ry="4" /><rect x="18" y="-14" width="28" height="28" rx="4" ry="4" /><rect x="50" y="-14" width="28" height="28" rx="4" ry="4" /><rect x="82" y="-14" width="28" height="28" rx="4" ry="4" /><rect x="114" y="-14" width="28" height="28" rx="4" ry="4" /><rect x="146" y="-14" width="28" height="28" rx="4" ry="4" /></g><g font-size="9" font-family="Verdana" fill="#888888"><text id="" x="0" y="-22" dominant-baseline="central" text-anchor="middle">0</text><text id="" x="32" y="-22" dominant-baseline="central" text-anchor="middle">1</text><text id="" x="64" y="-22" dominant-baseline="central" text-anchor="middle">2</text><text id="" x="96" y="-22" dominant-baseline="central" text-anchor="middle">3</text><text id="" x="128" y="-22" dominant-baseline="central" text-anchor="middle">4</text><text id="" x="160" y="-22" dominant-baseline="central" text-anchor="middle">5</text></g></g><g transform="translate(70,100) scale(1)"><g class="flash_g" fill="#ff1493" stroke="#ff1493" stroke-width="1"><rect x="50" y="-14" width="28" height="28" rx="4" ry="4" /></g><g fill="none" stroke="#a0a0a0" stroke-width="1"><rect x="50" y="-14" width="28" height="28" rx="4" ry="4" /></g></g><g transform="translate(70,100) scale(1)"><g transform="translate(0,-14) rotate(0)" fill="#ff8c00"><path d="M 0 0 L 8 -10 L 4 -10 L 4 -26 L -4 -26 L -4 -10 L -8 -10 z"/></g></g><g transform="translate(70,100) scale(1)"><g class="flash_g" transform="translate(64,-14) rotate(0)" fill="#ff1493"><path d="M 0 0 L 8 -10 L 4 -10 L 4 -26 L -4 -26 L -4 -10 L -8 -10 z"/></g></g><g transform="translate(70,100) scale(1)"><g stroke-width="0"><circle cx="0" cy="0" r="10" fill="#e8d0ff" id="var_Q_3__0" /><circle cx="32" cy="0" r="10" fill="#f0f080" id="var_Q_3__1" /><circle cx="64" cy="0" r="10" fill="#b8e8ff" id="var_Q_3__2" /></g><g font-size="14" font-family="sans-serif" fill="#888888"><text id="text_Q_3__0" x="0" y="0" dominant-baseline="central" text-anchor="middle">4</text><text id="text_Q_3__1" x="32" y="0" dominant-baseline="central" text-anchor="middle">8</text><text id="text_Q_3__2" x="64" y="0" dominant-baseline="central" text-anchor="middle">1</text></g><g font-size="14" font-family="sans-serif" fill="#ffffff"><text id="" x="-28" y="0" dominant-baseline="central" text-anchor="end">Q</text></g><animateMotion xlink:href="#var_Q_3__2" path="M80 0 L 0 0" dur="0.9s" repeatCount="1"/><animateMotion xlink:href="#text_Q_3__2" path="M80 0 L 0 0" dur="0.9s" repeatCount="1"/><g fill="none" stroke="#60a0ff" stroke-width="4" stroke-linecap="round" stroke-dasharray="0.1, 8"><path class="for_print" d="M 130 0 L 78 0"  marker-end="url(#token_arrow)"/></g></g></g><text x="16" y="236" font-size="16" text-anchor="middle" fill="#888888" font-family="sans-serif" >1-3</text><text x="140" y="400" font-size="9" text-anchor="middle" font-family="SimSun, 宋体, serif">enqueue(1): Q[2] &#8592; 1</text><rect x ="320" y="216" width="280" height="200" fill="#ffffff" stroke="#888888" stroke-width="1"/><path fill="#0088e0" d="M 612 316 L 612 296 L 632 316 L 612 336 z" /><g transform="translate(320,216)"><g transform="translate(70,100) scale(1)"><g fill="#ffffff" stroke="#a0a0a0" stroke-width="1"><rect x="-14" y="-14" width="28" height="28" rx="4" ry="4" /><rect x="18" y="-14" width="28" height="28" rx="4" ry="4" /><rect x="50" y="-14" width="28" height="28" rx="4" ry="4" /><rect x="82" y="-14" width="28" height="28" rx="4" ry="4" /><rect x="114" y="-14" width="28" height="28" rx="4" ry="4" /><rect x="146" y="-14" width="28" height="28" rx="4" ry="4" /></g><g font-size="9" font-family="Verdana" fill="#888888"><text id="" x="0" y="-22" dominant-baseline="central" text-anchor="middle">0</text><text id="" x="32" y="-22" dominant-baseline="central" text-anchor="middle">1</text><text id="" x="64" y="-22" dominant-baseline="central" text-anchor="middle">2</text><text id="" x="96" y="-22" dominant-baseline="central" text-anchor="middle">3</text><text id="" x="128" y="-22" dominant-baseline="central" text-anchor="middle">4</text><text id="" x="160" y="-22" dominant-baseline="central" text-anchor="middle">5</text></g></g><g transform="translate(70,100) scale(1)"><g class="flash_g" fill="#ffffff" stroke="#ff8c00" stroke-width="2"><rect x="-14" y="-14" width="28" height="28" rx="4" ry="4" /></g></g><g transform="translate(70,100) scale(1)"><g class="flash_g" transform="translate(0,-14) rotate(0)" fill="#ff8c00"><path d="M 0 0 L 8 -10 L 4 -10 L 4 -26 L -4 -26 L -4 -10 L -8 -10 z"/></g></g><g transform="translate(70,100) scale(1)"><g transform="translate(96,-14) rotate(0)" fill="#ff1493"><path d="M 0 0 L 8 -10 L 4 -10 L 4 -26 L -4 -26 L -4 -10 L -8 -10 z"/></g></g><g transform="translate(70,100) scale(1)"><g stroke-width="0"><circle cx="0" cy="0" r="10" fill="#e8d0ff" id="var_Q_5__0" /><circle cx="32" cy="0" r="10" fill="#f0f080" id="var_Q_5__1" /><circle cx="64" cy="0" r="10" fill="#b8e8ff" id="var_Q_5__2" /></g><g font-size="14" font-family="sans-serif" fill="#888888"><text id="text_Q_5__0" x="0" y="0" dominant-baseline="central" text-anchor="middle">4</text><text id="text_Q_5__1" x="32" y="0" dominant-baseline="central" text-anchor="middle">8</text><text id="text_Q_5__2" x="64" y="0" dominant-baseline="central" text-anchor="middle">1</text></g><g font-size="14" font-family="sans-serif" fill="#ffffff"><text id="" x="-28" y="0" dominant-baseline="central" text-anchor="end">Q</text></g><animateMotion xlink:href="#var_Q_5__0" fill="freeze" begin="0s;accumulate.end" path="M0 0 L -80 0" dur="0.9s" repeatCount="1"/><animateMotion xlink:href="#text_Q_5__0"  fill="freeze" begin="0s;accumulate.end"  path="M0 0 L -80 0" dur="0.9s" repeatCount="1"/><animate xlink:href="#var_Q_5__0"  fill="freeze" begin="0s;accumulate.end" from="1" to="0" attributeName="opacity" dur="0.9s" repeatCount="1"/><animate xlink:href="#text_Q_5__0"  fill="freeze" begin="0s;accumulate.end" from="1" to="0" attributeName="opacity" dur="0.9s" repeatCount="1"/></g></g><text x="336" y="236" font-size="16" text-anchor="middle" fill="#888888" font-family="sans-serif" >1-4</text><text x="460" y="400" font-size="9" text-anchor="middle" font-family="SimSun, 宋体, serif">dequeue(): return Q[0] (= 4)</text><rect x ="0" y="432" width="280" height="200" fill="#ffffff" stroke="#888888" stroke-width="1"/><path fill="#0088e0" d="M 292 532 L 292 512 L 312 532 L 292 552 z" /><g transform="translate(0,432)"><g transform="translate(70,100) scale(1)"><g fill="#ffffff" stroke="#a0a0a0" stroke-width="1"><rect x="-14" y="-14" width="28" height="28" rx="4" ry="4" /><rect x="18" y="-14" width="28" height="28" rx="4" ry="4" /><rect x="50" y="-14" width="28" height="28" rx="4" ry="4" /><rect x="82" y="-14" width="28" height="28" rx="4" ry="4" /><rect x="114" y="-14" width="28" height="28" rx="4" ry="4" /><rect x="146" y="-14" width="28" height="28" rx="4" ry="4" /></g><g font-size="9" font-family="Verdana" fill="#888888"><text id="" x="0" y="-22" dominant-baseline="central" text-anchor="middle">0</text><text id="" x="32" y="-22" dominant-baseline="central" text-anchor="middle">1</text><text id="" x="64" y="-22" dominant-baseline="central" text-anchor="middle">2</text><text id="" x="96" y="-22" dominant-baseline="central" text-anchor="middle">3</text><text id="" x="128" y="-22" dominant-baseline="central" text-anchor="middle">4</text><text id="" x="160" y="-22" dominant-baseline="central" text-anchor="middle">5</text></g></g><g transform="translate(70,100) scale(1)"><g class="flash_g" fill="#ff1493" stroke="#ff1493" stroke-width="1"><rect x="82" y="-14" width="28" height="28" rx="4" ry="4" /></g><g fill="none" stroke="#a0a0a0" stroke-width="1"><rect x="82" y="-14" width="28" height="28" rx="4" ry="4" /></g></g><g transform="translate(70,100) scale(1)"><g transform="translate(32,-14) rotate(0)" fill="#ff8c00"><path d="M 0 0 L 8 -10 L 4 -10 L 4 -26 L -4 -26 L -4 -10 L -8 -10 z"/></g></g><g transform="translate(70,100) scale(1)"><g class="flash_g" transform="translate(96,-14) rotate(0)" fill="#ff1493"><path d="M 0 0 L 8 -10 L 4 -10 L 4 -26 L -4 -26 L -4 -10 L -8 -10 z"/></g></g><g transform="translate(70,100) scale(1)"><g stroke-width="0"><circle cx="32" cy="0" r="10" fill="#f0f080" id="var_Q_6__1" /><circle cx="64" cy="0" r="10" fill="#b8e8ff" id="var_Q_6__2" /><circle cx="96" cy="0" r="10" fill="#c0e040" id="var_Q_6__3" /></g><g font-size="14" font-family="sans-serif" fill="#888888"><text id="text_Q_6__1" x="32" y="0" dominant-baseline="central" text-anchor="middle">8</text><text id="text_Q_6__2" x="64" y="0" dominant-baseline="central" text-anchor="middle">1</text><text id="text_Q_6__3" x="96" y="0" dominant-baseline="central" text-anchor="middle">7</text></g><g font-size="14" font-family="sans-serif" fill="#ffffff"><text id="" x="-28" y="0" dominant-baseline="central" text-anchor="end">Q</text></g><animateMotion xlink:href="#var_Q_6__3" path="M80 0 L 0 0" dur="0.9s" repeatCount="1"/><animateMotion xlink:href="#text_Q_6__3" path="M80 0 L 0 0" dur="0.9s" repeatCount="1"/><g fill="none" stroke="#60a0ff" stroke-width="4" stroke-linecap="round" stroke-dasharray="0.1, 8"><path class="for_print" d="M 162 0 L 110 0"  marker-end="url(#token_arrow)"/></g></g></g><text x="16" y="452" font-size="16" text-anchor="middle" fill="#888888" font-family="sans-serif" >1-5</text><text x="140" y="616" font-size="9" text-anchor="middle" font-family="SimSun, 宋体, serif">enqueue(7): Q[3] &#8592; 7</text><rect x ="320" y="432" width="280" height="200" fill="#ffffff" stroke="#888888" stroke-width="1"/><path fill="#0088e0" d="M 612 532 L 612 512 L 632 532 L 612 552 z" /><g transform="translate(320,432)"><g transform="translate(70,100) scale(1)"><g fill="#ffffff" stroke="#a0a0a0" stroke-width="1"><rect x="-14" y="-14" width="28" height="28" rx="4" ry="4" /><rect x="18" y="-14" width="28" height="28" rx="4" ry="4" /><rect x="50" y="-14" width="28" height="28" rx="4" ry="4" /><rect x="82" y="-14" width="28" height="28" rx="4" ry="4" /><rect x="114" y="-14" width="28" height="28" rx="4" ry="4" /><rect x="146" y="-14" width="28" height="28" rx="4" ry="4" /></g><g font-size="9" font-family="Verdana" fill="#888888"><text id="" x="0" y="-22" dominant-baseline="central" text-anchor="middle">0</text><text id="" x="32" y="-22" dominant-baseline="central" text-anchor="middle">1</text><text id="" x="64" y="-22" dominant-baseline="central" text-anchor="middle">2</text><text id="" x="96" y="-22" dominant-baseline="central" text-anchor="middle">3</text><text id="" x="128" y="-22" dominant-baseline="central" text-anchor="middle">4</text><text id="" x="160" y="-22" dominant-baseline="central" text-anchor="middle">5</text></g></g><g transform="translate(70,100) scale(1)"><g class="flash_g" fill="#ffffff" stroke="#ff8c00" stroke-width="2"><rect x="18" y="-14" width="28" height="28" rx="4" ry="4" /></g></g><g transform="translate(70,100) scale(1)"><g class="flash_g" transform="translate(32,-14) rotate(0)" fill="#ff8c00"><path d="M 0 0 L 8 -10 L 4 -10 L 4 -26 L -4 -26 L -4 -10 L -8 -10 z"/></g></g><g transform="translate(70,100) scale(1)"><g transform="translate(128,-14) rotate(0)" fill="#ff1493"><path d="M 0 0 L 8 -10 L 4 -10 L 4 -26 L -4 -26 L -4 -10 L -8 -10 z"/></g></g><g transform="translate(70,100) scale(1)"><g stroke-width="0"><circle cx="32" cy="0" r="10" fill="#f0f080" id="var_Q_7__1" /><circle cx="64" cy="0" r="10" fill="#b8e8ff" id="var_Q_7__2" /><circle cx="96" cy="0" r="10" fill="#c0e040" id="var_Q_7__3" /></g><g font-size="14" font-family="sans-serif" fill="#888888"><text id="text_Q_7__1" x="32" y="0" dominant-baseline="central" text-anchor="middle">8</text><text id="text_Q_7__2" x="64" y="0" dominant-baseline="central" text-anchor="middle">1</text><text id="text_Q_7__3" x="96" y="0" dominant-baseline="central" text-anchor="middle">7</text></g><g font-size="14" font-family="sans-serif" fill="#ffffff"><text id="" x="-28" y="0" dominant-baseline="central" text-anchor="end">Q</text></g><animateMotion xlink:href="#var_Q_7__1" fill="freeze" begin="0s;accumulate.end" path="M0 0 L -80 0" dur="0.9s" repeatCount="1"/><animateMotion xlink:href="#text_Q_7__1"  fill="freeze" begin="0s;accumulate.end"  path="M0 0 L -80 0" dur="0.9s" repeatCount="1"/><animate xlink:href="#var_Q_7__1"  fill="freeze" begin="0s;accumulate.end" from="1" to="0" attributeName="opacity" dur="0.9s" repeatCount="1"/><animate xlink:href="#text_Q_7__1"  fill="freeze" begin="0s;accumulate.end" from="1" to="0" attributeName="opacity" dur="0.9s" repeatCount="1"/></g></g><text x="336" y="452" font-size="16" text-anchor="middle" fill="#888888" font-family="sans-serif" >1-6</text><text x="460" y="616" font-size="9" text-anchor="middle" font-family="SimSun, 宋体, serif">dequeue(): return Q[1] (= 8)</text><rect x ="0" y="648" width="280" height="200" fill="#ffffff" stroke="#888888" stroke-width="1"/><g transform="translate(0,648)"><g transform="translate(70,100) scale(1)"><g fill="#ffffff" stroke="#a0a0a0" stroke-width="1"><rect x="-14" y="-14" width="28" height="28" rx="4" ry="4" /><rect x="18" y="-14" width="28" height="28" rx="4" ry="4" /><rect x="50" y="-14" width="28" height="28" rx="4" ry="4" /><rect x="82" y="-14" width="28" height="28" rx="4" ry="4" /><rect x="114" y="-14" width="28" height="28" rx="4" ry="4" /><rect x="146" y="-14" width="28" height="28" rx="4" ry="4" /></g><g font-size="9" font-family="Verdana" fill="#888888"><text id="" x="0" y="-22" dominant-baseline="central" text-anchor="middle">0</text><text id="" x="32" y="-22" dominant-baseline="central" text-anchor="middle">1</text><text id="" x="64" y="-22" dominant-baseline="central" text-anchor="middle">2</text><text id="" x="96" y="-22" dominant-baseline="central" text-anchor="middle">3</text><text id="" x="128" y="-22" dominant-baseline="central" text-anchor="middle">4</text><text id="" x="160" y="-22" dominant-baseline="central" text-anchor="middle">5</text></g></g><g transform="translate(70,100) scale(1)"><g class="flash_g" fill="#ffffff" stroke="#ff8c00" stroke-width="2"><rect x="50" y="-14" width="28" height="28" rx="4" ry="4" /></g></g><g transform="translate(70,100) scale(1)"><g class="flash_g" transform="translate(64,-14) rotate(0)" fill="#ff8c00"><path d="M 0 0 L 8 -10 L 4 -10 L 4 -26 L -4 -26 L -4 -10 L -8 -10 z"/></g></g><g transform="translate(70,100) scale(1)"><g transform="translate(128,-14) rotate(0)" fill="#ff1493"><path d="M 0 0 L 8 -10 L 4 -10 L 4 -26 L -4 -26 L -4 -10 L -8 -10 z"/></g></g><g transform="translate(70,100) scale(1)"><g stroke-width="0"><circle cx="64" cy="0" r="10" fill="#b8e8ff" id="var_Q_8__2" /><circle cx="96" cy="0" r="10" fill="#c0e040" id="var_Q_8__3" /></g><g font-size="14" font-family="sans-serif" fill="#888888"><text id="text_Q_8__2" x="64" y="0" dominant-baseline="central" text-anchor="middle">1</text><text id="text_Q_8__3" x="96" y="0" dominant-baseline="central" text-anchor="middle">7</text></g><g font-size="14" font-family="sans-serif" fill="#ffffff"><text id="" x="-28" y="0" dominant-baseline="central" text-anchor="end">Q</text></g><animateMotion xlink:href="#var_Q_8__2" fill="freeze" begin="0s;accumulate.end" path="M0 0 L -80 0" dur="0.9s" repeatCount="1"/><animateMotion xlink:href="#text_Q_8__2"  fill="freeze" begin="0s;accumulate.end"  path="M0 0 L -80 0" dur="0.9s" repeatCount="1"/><animate xlink:href="#var_Q_8__2"  fill="freeze" begin="0s;accumulate.end" from="1" to="0" attributeName="opacity" dur="0.9s" repeatCount="1"/><animate xlink:href="#text_Q_8__2"  fill="freeze" begin="0s;accumulate.end" from="1" to="0" attributeName="opacity" dur="0.9s" repeatCount="1"/></g></g><text x="16" y="668" font-size="16" text-anchor="middle" fill="#888888" font-family="sans-serif" >1-7</text><text x="140" y="832" font-size="9" text-anchor="middle" font-family="SimSun, 宋体, serif">dequeue(): return Q[2] (= 1)</text></svg>

