<?xml version="1.0" encoding="UTF-8" standalone="no"?>
<!-- Created with Inkscape (http://www.inkscape.org/) -->

<svg
   xmlns:dc="http://purl.org/dc/elements/1.1/"
   xmlns:cc="http://creativecommons.org/ns#"
   xmlns:rdf="http://www.w3.org/1999/02/22-rdf-syntax-ns#"
   xmlns:svg="http://www.w3.org/2000/svg"
   xmlns="http://www.w3.org/2000/svg"
   xmlns:sodipodi="http://sodipodi.sourceforge.net/DTD/sodipodi-0.dtd"
   xmlns:inkscape="http://www.inkscape.org/namespaces/inkscape"
   width="360pt"
   height="240pt"
   viewBox="0 0 127 84.66666"
   version="1.1"
   id="svg8"
   inkscape:version="0.92.4 (5da689c313, 2019-01-14)"
   sodipodi:docname="input.svg">
  <defs
     id="defs2" />
  <sodipodi:namedview
     id="base"
     pagecolor="#ffffff"
     bordercolor="#666666"
     borderopacity="1.0"
     inkscape:pageopacity="0.0"
     inkscape:pageshadow="2"
     inkscape:zoom="1.6612501"
     inkscape:cx="78.762139"
     inkscape:cy="128.09441"
     inkscape:document-units="pt"
     inkscape:current-layer="layer1"
     showgrid="true"
     units="pt"
     inkscape:window-width="2361"
     inkscape:window-height="1212"
     inkscape:window-x="6"
     inkscape:window-y="68"
     inkscape:window-maximized="0">
    <inkscape:grid
       type="xygrid"
       id="grid4518" />
  </sodipodi:namedview>
  <metadata
     id="metadata5">
    <rdf:RDF>
      <cc:Work
         rdf:about="">
        <dc:format>image/svg+xml</dc:format>
        <dc:type
           rdf:resource="http://purl.org/dc/dcmitype/StillImage" />
        <dc:title />
      </cc:Work>
    </rdf:RDF>
  </metadata>
  <g
     inkscape:label="Layer 1"
     inkscape:groupmode="layer"
     id="layer1"
     transform="translate(0,-212.33335)"
     style="opacity:0.99">
    <path
       style="fill:#207bee;fill-opacity:1;stroke:none;stroke-width:0.26458332px;stroke-linecap:butt;stroke-linejoin:miter;stroke-opacity:1"
       d="m 100.54168,240.11462 5.29168,3.96873 -1e-5,-2.64583 9.26041,-5e-5 -1e-5,-2.64583 -9.26042,4e-5 -1e-5,-2.64583 z"
       id="path1016"
       inkscape:connector-curvature="0"
       sodipodi:nodetypes="cccccccc" />
    <rect
       style="opacity:1;fill:#ffffff;fill-opacity:1;fill-rule:nonzero;stroke:#505050;stroke-width:0.35277775;stroke-linecap:round;stroke-linejoin:round;stroke-miterlimit:4;stroke-dasharray:none;stroke-dashoffset:0;stroke-opacity:1;paint-order:normal"
       id="rect840"
       width="37.041672"
       height="47.625008"
       x="54.239582"
       y="228.20834" />
    <path
       style="fill:#e1e1e1;fill-opacity:1;stroke:#000000;stroke-width:0.35277775;stroke-linecap:butt;stroke-linejoin:miter;stroke-miterlimit:4;stroke-dasharray:none;stroke-opacity:1"
       d="m 54.239581,228.20835 -25.135415,13.22917 v 47.62499 l 25.135415,-13.22916 z"
       id="path842"
       inkscape:connector-curvature="0"
       sodipodi:nodetypes="ccccc" />
    <rect
       style="opacity:1;fill:#f0f0f0;fill-opacity:1;fill-rule:nonzero;stroke:#505050;stroke-width:0.35277775;stroke-linecap:round;stroke-linejoin:round;stroke-miterlimit:4;stroke-dasharray:none;stroke-dashoffset:0;stroke-opacity:1;paint-order:normal"
       id="rect844"
       width="2.6458318"
       height="47.624996"
       x="26.458334"
       y="241.43752" />
    <path
       style="fill:#e1e1e1;fill-opacity:1;stroke:#000000;stroke-width:0.35277775;stroke-linecap:butt;stroke-linejoin:miter;stroke-miterlimit:4;stroke-dasharray:none;stroke-opacity:1"
       d="m 54.239581,228.20835 2.645834,-1.32292 h 31.749999 l 2.645832,1.32292 z"
       id="path848"
       inkscape:connector-curvature="0"
       sodipodi:nodetypes="ccccc" />
    <path
       style="fill:none;stroke:#000000;stroke-width:0.35277775;stroke-linecap:butt;stroke-linejoin:miter;stroke-miterlimit:4;stroke-dasharray:none;stroke-opacity:1"
       d="m 26.458333,241.43752 25.135415,-13.22917 h 2.645833 l -25.135415,13.22917 z"
       id="path850"
       inkscape:connector-curvature="0" />
    <path
       style="opacity:0.98999999;fill:#4ed574;fill-opacity:1;stroke:none;stroke-width:0.26458332px;stroke-linecap:butt;stroke-linejoin:miter;stroke-opacity:1"
       d="m 83.343747,237.46877 c 0,0 0,-1.32291 1.322916,-1.32291 1.322917,0 11.90625,0 11.90625,0 0,0 1.322917,0 1.322917,1.32291 0,1.32292 0,5.29167 0,5.29167 0,0 0,1.32291 -1.322917,1.32291 -1.322916,0 -11.90625,0 -11.90625,0 0,0 -1.322916,0 -1.322916,-1.32291 0,-1.32292 0,-5.29167 0,-5.29167 z"
       id="path884-9-8"
       inkscape:connector-curvature="0" />
    <path
       style="opacity:0.98999999;fill:none;stroke:#b4b4b4;stroke-width:0.41322628;stroke-linecap:butt;stroke-linejoin:miter;stroke-miterlimit:4;stroke-dasharray:none;stroke-opacity:1"
       d="m 61.138426,256.9335 5.423594,-7.74798 6.198394,-7.748 h 0.774799 l 6.973189,7.748 4.648794,7.74798 -3.099191,7.74799"
       id="path871"
       inkscape:connector-curvature="0" />
    <path
       style="opacity:0.98999999;fill:none;stroke:#b4b4b4;stroke-width:0.41322628;stroke-linecap:butt;stroke-linejoin:miter;stroke-miterlimit:4;stroke-dasharray:none;stroke-opacity:1"
       d="m 66.56202,249.18552 4.648795,7.74798"
       id="path873"
       inkscape:connector-curvature="0" />
    <path
       style="opacity:0.98999999;fill:#e8bdab;fill-opacity:1;stroke:none;stroke-width:0.15495984px;stroke-linecap:butt;stroke-linejoin:miter;stroke-opacity:1"
       d="m 68.886419,239.88792 c 0,0 0,-0.77479 0.774798,-0.77479 0.774799,0 6.973191,0 6.973191,0 0,0 0.774802,0 0.774802,0.77479 0,0.77481 0,3.0992 0,3.0992 0,0 0,0.7748 -0.774802,0.7748 -0.774797,0 -6.973191,0 -6.973191,0 0,0 -0.774798,0 -0.774798,-0.7748 0,-0.7748 0,-3.0992 0,-3.0992 z"
       id="path884-4"
       inkscape:connector-curvature="0" />
    <path
       style="opacity:0.98999999;fill:#4ed5b9;fill-opacity:1;stroke:none;stroke-width:0.15495984px;stroke-linecap:butt;stroke-linejoin:miter;stroke-opacity:1"
       d="m 75.859612,247.63592 c 0,0 0,-0.77479 0.774803,-0.77479 0.774801,0 6.973194,0 6.973194,0 0,0 0.774797,0 0.774797,0.77479 0,0.7748 0,3.09919 0,3.09919 0,0 0,0.77481 -0.774797,0.77481 -0.774803,0 -6.973194,0 -6.973194,0 0,0 -0.774803,0 -0.774803,-0.77481 0,-0.77479 0,-3.09919 0,-3.09919 z"
       id="path884-9-2"
       inkscape:connector-curvature="0" />
    <path
       style="opacity:0.98999999;fill:#d5e674;fill-opacity:1;stroke:none;stroke-width:0.15495984px;stroke-linecap:butt;stroke-linejoin:miter;stroke-opacity:1"
       d="m 77.40921,263.1319 c 0,0 0,-0.7748 0.7748,-0.7748 0.774802,0 6.973196,0 6.973196,0 0,0 0.7748,0 0.7748,0.7748 0,0.7748 0,3.0992 0,3.0992 0,0 0,0.77479 -0.7748,0.77479 -0.7748,0 -6.973196,0 -6.973196,0 0,0 -0.7748,0 -0.7748,-0.77479 0,-0.7748 0,-3.0992 0,-3.0992 z"
       id="path884-99-9"
       inkscape:connector-curvature="0" />
    <path
       style="opacity:0.98999999;fill:#79d5e5;fill-opacity:1;stroke:none;stroke-width:0.15495984px;stroke-linecap:butt;stroke-linejoin:miter;stroke-opacity:1"
       d="m 56.489631,255.3839 c 0,0 0,-0.77479 0.774799,-0.77479 0.774799,0 6.973193,0 6.973193,0 0,0 0.774801,0 0.774801,0.77479 0,0.77481 0,3.09921 0,3.09921 0,0 0,0.77479 -0.774801,0.77479 -0.774801,0 -6.973193,0 -6.973193,0 0,0 -0.774799,0 -0.774799,-0.77479 0,-0.77481 0,-3.09921 0,-3.09921 z"
       id="path884-6-4"
       inkscape:connector-curvature="0" />
    <path
       style="opacity:0.98999999;fill:#e5c374;fill-opacity:1;stroke:none;stroke-width:0.15495984px;stroke-linecap:butt;stroke-linejoin:miter;stroke-opacity:1"
       d="m 81.283204,255.3839 c 0,0 0,-0.77479 0.774801,-0.77479 0.774801,0 6.973191,0 6.973191,0 0,0 0.7748,0 0.7748,0.77479 0,0.77481 0,3.09921 0,3.09921 0,0 0,0.77479 -0.7748,0.77479 -0.7748,0 -6.973191,0 -6.973191,0 0,0 -0.774801,0 -0.774801,-0.77479 0,-0.77481 0,-3.09921 0,-3.09921 z"
       id="path884-9-0-9"
       inkscape:connector-curvature="0" />
    <path
       style="opacity:0.98999999;fill:#c49cbb;fill-opacity:1;stroke:none;stroke-width:0.15495984px;stroke-linecap:butt;stroke-linejoin:miter;stroke-opacity:1"
       d="m 67.33682,255.3839 c 0,0 0,-0.77479 0.774798,-0.77479 0.7748,0 6.973194,0 6.973194,0 0,0 0.774802,0 0.774802,0.77479 0,0.77481 0,3.09921 0,3.09921 0,0 0,0.77479 -0.774802,0.77479 -0.7748,0 -6.973194,0 -6.973194,0 0,0 -0.774798,0 -0.774798,-0.77479 0,-0.77481 0,-3.09921 0,-3.09921 z"
       id="path884-5-6"
       inkscape:connector-curvature="0" />
    <path
       style="opacity:0.98999999;fill:#cdcbca;fill-opacity:1;stroke:none;stroke-width:0.15495984px;stroke-linecap:butt;stroke-linejoin:miter;stroke-opacity:1"
       d="m 61.913225,247.63592 c 0,0 0,-0.77479 0.7748,-0.77479 0.774798,0 6.973193,0 6.973193,0 0,0 0.774801,0 0.774801,0.77479 0,0.7748 0,3.09919 0,3.09919 0,0 0,0.77481 -0.774801,0.77481 -0.774802,0 -6.973193,0 -6.973193,0 0,0 -0.7748,0 -0.7748,-0.77481 0,-0.77479 0,-3.09919 0,-3.09919 z"
       id="path884-9-03-7"
       inkscape:connector-curvature="0" />
  </g>
</svg>
