<?xml version="1.0" encoding="UTF-8" standalone="no"?>
<!-- Created with Inkscape (http://www.inkscape.org/) -->

<svg
   xmlns:dc="http://purl.org/dc/elements/1.1/"
   xmlns:cc="http://creativecommons.org/ns#"
   xmlns:rdf="http://www.w3.org/1999/02/22-rdf-syntax-ns#"
   xmlns:svg="http://www.w3.org/2000/svg"
   xmlns="http://www.w3.org/2000/svg"
   xmlns:sodipodi="http://sodipodi.sourceforge.net/DTD/sodipodi-0.dtd"
   xmlns:inkscape="http://www.inkscape.org/namespaces/inkscape"
   width="360pt"
   height="240pt"
   viewBox="0 0 127 84.66666"
   version="1.1"
   id="svg8"
   inkscape:version="0.92.4 (5da689c313, 2019-01-14)"
   sodipodi:docname="output.svg">
  <defs
     id="defs2" />
  <sodipodi:namedview
     id="base"
     pagecolor="#ffffff"
     bordercolor="#666666"
     borderopacity="1.0"
     inkscape:pageopacity="0.0"
     inkscape:pageshadow="2"
     inkscape:zoom="4.6987248"
     inkscape:cx="306.57856"
     inkscape:cy="161.12126"
     inkscape:document-units="pt"
     inkscape:current-layer="layer1"
     showgrid="true"
     units="pt"
     inkscape:window-width="2361"
     inkscape:window-height="1212"
     inkscape:window-x="175"
     inkscape:window-y="94"
     inkscape:window-maximized="0">
    <inkscape:grid
       type="xygrid"
       id="grid4518" />
  </sodipodi:namedview>
  <metadata
     id="metadata5">
    <rdf:RDF>
      <cc:Work
         rdf:about="">
        <dc:format>image/svg+xml</dc:format>
        <dc:type
           rdf:resource="http://purl.org/dc/dcmitype/StillImage" />
        <dc:title />
      </cc:Work>
    </rdf:RDF>
  </metadata>
  <g
     inkscape:label="Layer 1"
     inkscape:groupmode="layer"
     id="layer1"
     transform="translate(0,-212.33335)"
     style="opacity:0.99">
    <rect
       style="opacity:1;fill:#ffffff;fill-opacity:1;fill-rule:nonzero;stroke:#505050;stroke-width:0.35277775;stroke-linecap:round;stroke-linejoin:round;stroke-miterlimit:4;stroke-dasharray:none;stroke-dashoffset:0;stroke-opacity:1;paint-order:normal"
       id="rect840"
       width="37.041672"
       height="47.625008"
       x="54.239582"
       y="228.20834" />
    <path
       style="fill:#e1e1e1;fill-opacity:1;stroke:#000000;stroke-width:0.35277775;stroke-linecap:butt;stroke-linejoin:miter;stroke-miterlimit:4;stroke-dasharray:none;stroke-opacity:1"
       d="m 54.239581,228.20835 -25.135415,13.22917 v 47.62499 l 25.135415,-13.22916 z"
       id="path842"
       inkscape:connector-curvature="0"
       sodipodi:nodetypes="ccccc" />
    <rect
       style="opacity:1;fill:#f0f0f0;fill-opacity:1;fill-rule:nonzero;stroke:#505050;stroke-width:0.35277775;stroke-linecap:round;stroke-linejoin:round;stroke-miterlimit:4;stroke-dasharray:none;stroke-dashoffset:0;stroke-opacity:1;paint-order:normal"
       id="rect844"
       width="2.6458318"
       height="47.624996"
       x="26.458334"
       y="241.43752" />
    <path
       style="fill:#e1e1e1;fill-opacity:1;stroke:#000000;stroke-width:0.35277775;stroke-linecap:butt;stroke-linejoin:miter;stroke-miterlimit:4;stroke-dasharray:none;stroke-opacity:1"
       d="m 54.239581,228.20835 2.645834,-1.32292 h 31.749999 l 2.645832,1.32292 z"
       id="path848"
       inkscape:connector-curvature="0"
       sodipodi:nodetypes="ccccc" />
    <path
       style="fill:none;stroke:#000000;stroke-width:0.35277775;stroke-linecap:butt;stroke-linejoin:miter;stroke-miterlimit:4;stroke-dasharray:none;stroke-opacity:1"
       d="m 26.458333,241.43752 25.135415,-13.22917 h 2.645833 l -25.135415,13.22917 z"
       id="path850"
       inkscape:connector-curvature="0" />
    <path
       style="opacity:0.98999999;fill:#4ed574;fill-opacity:1;stroke:none;stroke-width:0.26458332px;stroke-linecap:butt;stroke-linejoin:miter;stroke-opacity:1"
       d="m 100.54166,244.08335 c 0,0 0,-1.32291 1.32291,-1.32291 1.32292,0 11.90625,0 11.90625,0 0,0 1.32292,0 1.32292,1.32291 0,1.32292 0,5.29167 0,5.29167 0,0 0,1.32291 -1.32292,1.32291 -1.32291,0 -11.90625,0 -11.90625,0 0,0 -1.32291,0 -1.32291,-1.32291 0,-1.32292 0,-5.29167 0,-5.29167 z"
       id="path884-9-8"
       inkscape:connector-curvature="0" />
    <path
       sodipodi:nodetypes="cccccccc"
       inkscape:connector-curvature="0"
       id="path827"
       d="m 99.21875,246.72918 -5.291674,-3.96874 v 2.64583 l -9.260415,2e-5 10e-6,2.64583 9.260425,-1e-5 v 2.64583 z"
       style="fill:#ff0000;fill-opacity:1;stroke:none;stroke-width:0.26458332px;stroke-linecap:butt;stroke-linejoin:miter;stroke-opacity:1" />
    <path
       sodipodi:nodetypes="cccccccc"
       inkscape:connector-curvature="0"
       id="path827-6"
       d="m 100.65836,275.21851 -3.46938,-5.63171 -0.96949,2.4618 -8.616336,-3.39324 -0.969491,2.46181 8.616333,3.39326 -0.969494,2.4618 z"
       style="opacity:0.98999999;fill:#207bee;fill-opacity:1;stroke:none;stroke-width:0.26458332px;stroke-linecap:butt;stroke-linejoin:miter;stroke-opacity:1" />
    <path
       sodipodi:nodetypes="cccccccc"
       inkscape:connector-curvature="0"
       id="path827-6-7"
       d="m 82.58534,245.6993 6.61436,-0.055 -1.60505,-2.10338 7.36186,-5.61769 -1.60506,-2.10338 -7.36187,5.61767 -1.60504,-2.10337 z"
       style="opacity:0.98999999;fill:#e2c3ee;fill-opacity:1;stroke:none;stroke-width:0.26458332px;stroke-linecap:butt;stroke-linejoin:miter;stroke-opacity:1" />
    <path
       inkscape:connector-curvature="0"
       id="path889"
       d="m 101.86458,275.83335 c 0,0 0,-1.32291 1.32292,-1.32291 1.32291,0 11.90625,0 11.90625,0 0,0 1.32291,0 1.32291,1.32291 0,1.32292 0,5.29167 0,5.29167 0,0 0,1.32291 -1.32291,1.32291 -1.32292,0 -11.90625,0 -11.90625,0 0,0 -1.32292,0 -1.32292,-1.32291 0,-1.32292 0,-5.29167 0,-5.29167 z"
       style="opacity:0.98999999;fill:#d5e674;fill-opacity:1;stroke:none;stroke-width:0.26458332px;stroke-linecap:butt;stroke-linejoin:miter;stroke-opacity:1" />
    <path
       style="fill:none;stroke:#b4b4b4;stroke-width:0.41322628;stroke-linecap:butt;stroke-linejoin:miter;stroke-miterlimit:4;stroke-dasharray:none;stroke-opacity:1"
       d="m 61.101251,257.50201 5.423594,-7.74798 6.198394,-7.748 h 0.774799 l 6.973189,7.748 4.648796,7.74798 -3.099193,7.74799"
       id="path871"
       inkscape:connector-curvature="0" />
    <path
       style="fill:none;stroke:#b4b4b4;stroke-width:0.41322628;stroke-linecap:butt;stroke-linejoin:miter;stroke-miterlimit:4;stroke-dasharray:none;stroke-opacity:1"
       d="m 66.524845,249.75403 4.648795,7.74798"
       id="path873"
       inkscape:connector-curvature="0" />
    <path
       style="opacity:0.98999999;fill:#e8bdab;fill-opacity:1;stroke:none;stroke-width:0.15495984px;stroke-linecap:butt;stroke-linejoin:miter;stroke-opacity:1"
       d="m 68.849244,240.45643 c 0,0 0,-0.77479 0.774798,-0.77479 0.774799,0 6.973191,0 6.973191,0 0,0 0.774802,0 0.774802,0.77479 0,0.77481 0,3.0992 0,3.0992 0,0 0,0.7748 -0.774802,0.7748 -0.774797,0 -6.973191,0 -6.973191,0 0,0 -0.774798,0 -0.774798,-0.7748 0,-0.7748 0,-3.0992 0,-3.0992 z"
       id="path884-4"
       inkscape:connector-curvature="0" />
    <path
       style="opacity:0.98999999;fill:#4ed5b9;fill-opacity:1;stroke:none;stroke-width:0.15495984px;stroke-linecap:butt;stroke-linejoin:miter;stroke-opacity:1"
       d="m 75.822437,248.20443 c 0,0 0,-0.77479 0.774803,-0.77479 0.774801,0 6.973193,0 6.973193,0 0,0 0.774801,0 0.774801,0.77479 0,0.7748 0,3.09919 0,3.09919 0,0 0,0.77481 -0.774801,0.77481 -0.774802,0 -6.973193,0 -6.973193,0 0,0 -0.774803,0 -0.774803,-0.77481 0,-0.77479 0,-3.09919 0,-3.09919 z"
       id="path884-9-2"
       inkscape:connector-curvature="0" />
    <path
       style="opacity:0.98999999;fill:#d5e674;fill-opacity:1;stroke:none;stroke-width:0.15495984px;stroke-linecap:butt;stroke-linejoin:miter;stroke-opacity:1"
       d="m 77.372035,263.70041 c 0,0 0,-0.7748 0.7748,-0.7748 0.774802,0 6.973194,0 6.973194,0 0,0 0.774801,0 0.774801,0.7748 0,0.7748 0,3.0992 0,3.0992 0,0 0,0.77479 -0.774801,0.77479 -0.774801,0 -6.973194,0 -6.973194,0 0,0 -0.7748,0 -0.7748,-0.77479 0,-0.7748 0,-3.0992 0,-3.0992 z"
       id="path884-99-9"
       inkscape:connector-curvature="0" />
    <path
       style="opacity:0.98999999;fill:#79d5e5;fill-opacity:1;stroke:none;stroke-width:0.15495984px;stroke-linecap:butt;stroke-linejoin:miter;stroke-opacity:1"
       d="m 56.452456,255.95241 c 0,0 0,-0.77479 0.774799,-0.77479 0.774799,0 6.973193,0 6.973193,0 0,0 0.774801,0 0.774801,0.77479 0,0.77481 0,3.09921 0,3.09921 0,0 0,0.77479 -0.774801,0.77479 -0.774801,0 -6.973193,0 -6.973193,0 0,0 -0.774799,0 -0.774799,-0.77479 0,-0.77481 0,-3.09921 0,-3.09921 z"
       id="path884-6-4"
       inkscape:connector-curvature="0" />
    <path
       style="opacity:0.98999999;fill:#e5c374;fill-opacity:1;stroke:none;stroke-width:0.15495984px;stroke-linecap:butt;stroke-linejoin:miter;stroke-opacity:1"
       d="m 81.246029,255.95241 c 0,0 0,-0.77479 0.774801,-0.77479 0.774801,0 6.973194,0 6.973194,0 0,0 0.774801,0 0.774801,0.77479 0,0.77481 0,3.09921 0,3.09921 0,0 0,0.77479 -0.774801,0.77479 -0.774802,0 -6.973194,0 -6.973194,0 0,0 -0.774801,0 -0.774801,-0.77479 0,-0.77481 0,-3.09921 0,-3.09921 z"
       id="path884-9-0-9"
       inkscape:connector-curvature="0" />
    <path
       style="opacity:0.98999999;fill:#c49cbb;fill-opacity:1;stroke:none;stroke-width:0.15495984px;stroke-linecap:butt;stroke-linejoin:miter;stroke-opacity:1"
       d="m 67.299645,255.95241 c 0,0 0,-0.77479 0.774798,-0.77479 0.7748,0 6.973194,0 6.973194,0 0,0 0.774802,0 0.774802,0.77479 0,0.77481 0,3.09921 0,3.09921 0,0 0,0.77479 -0.774802,0.77479 -0.7748,0 -6.973194,0 -6.973194,0 0,0 -0.774798,0 -0.774798,-0.77479 0,-0.77481 0,-3.09921 0,-3.09921 z"
       id="path884-5-6"
       inkscape:connector-curvature="0" />
    <path
       style="opacity:0.98999999;fill:#cdcbca;fill-opacity:1;stroke:none;stroke-width:0.15495984px;stroke-linecap:butt;stroke-linejoin:miter;stroke-opacity:1"
       d="m 61.87605,248.20443 c 0,0 0,-0.77479 0.7748,-0.77479 0.774798,0 6.973193,0 6.973193,0 0,0 0.774801,0 0.774801,0.77479 0,0.7748 0,3.09919 0,3.09919 0,0 0,0.77481 -0.774801,0.77481 -0.774802,0 -6.973193,0 -6.973193,0 0,0 -0.7748,0 -0.7748,-0.77481 0,-0.77479 0,-3.09919 0,-3.09919 z"
       id="path884-9-03-7"
       inkscape:connector-curvature="0" />
    <path
       sodipodi:nodetypes="cccccccc"
       inkscape:connector-curvature="0"
       id="path827-6-7-5"
       d="m 82.303186,268.73131 6.61436,-0.055 -1.60505,-2.10338 7.361861,-5.61769 -1.60506,-2.10338 -7.361871,5.61767 -1.60504,-2.10337 z"
       style="opacity:0.98999999;fill:#88c3ee;fill-opacity:1;stroke:none;stroke-width:0.26458332px;stroke-linecap:butt;stroke-linejoin:miter;stroke-opacity:1" />
  </g>
</svg>
