<?xml version="1.0" encoding="UTF-8" standalone="no"?>
<!-- Created with Inkscape (http://www.inkscape.org/) -->

<svg
   xmlns:dc="http://purl.org/dc/elements/1.1/"
   xmlns:cc="http://creativecommons.org/ns#"
   xmlns:rdf="http://www.w3.org/1999/02/22-rdf-syntax-ns#"
   xmlns:svg="http://www.w3.org/2000/svg"
   xmlns="http://www.w3.org/2000/svg"
   xmlns:sodipodi="http://sodipodi.sourceforge.net/DTD/sodipodi-0.dtd"
   xmlns:inkscape="http://www.inkscape.org/namespaces/inkscape"
   width="360pt"
   height="240pt"
   viewBox="0 0 127 84.66666"
   version="1.1"
   id="svg8"
   inkscape:version="0.92.4 (5da689c313, 2019-01-14)"
   sodipodi:docname="input.svg">
  <defs
     id="defs2" />
  <sodipodi:namedview
     id="base"
     pagecolor="#ffffff"
     bordercolor="#666666"
     borderopacity="1.0"
     inkscape:pageopacity="0.0"
     inkscape:pageshadow="2"
     inkscape:zoom="1.6612501"
     inkscape:cx="153.60708"
     inkscape:cy="126.59207"
     inkscape:document-units="pt"
     inkscape:current-layer="layer1"
     showgrid="true"
     units="pt"
     inkscape:window-width="2382"
     inkscape:window-height="1138"
     inkscape:window-x="72"
     inkscape:window-y="144"
     inkscape:window-maximized="0">
    <inkscape:grid
       type="xygrid"
       id="grid4518" />
  </sodipodi:namedview>
  <metadata
     id="metadata5">
    <rdf:RDF>
      <cc:Work
         rdf:about="">
        <dc:format>image/svg+xml</dc:format>
        <dc:type
           rdf:resource="http://purl.org/dc/dcmitype/StillImage" />
        <dc:title />
      </cc:Work>
    </rdf:RDF>
  </metadata>
  <g
     inkscape:label="Layer 1"
     inkscape:groupmode="layer"
     id="layer1"
     transform="translate(0,-212.33335)"
     style="opacity:0.99">
    <path
       style="fill:#207bee;fill-opacity:1;stroke:none;stroke-width:0.26458332px;stroke-linecap:butt;stroke-linejoin:miter;stroke-opacity:1"
       d="m 27.78125,248.0521 3.968749,-5.29166 h -2.645833 v -5.29167 c 0,0 0,-2.64583 2.645834,-2.64583 h 7.937499 V 232.1771 H 31.75 c 0,0 -5.291667,0 -5.291667,5.29167 v 5.29167 h -2.645834 z"
       id="path879"
       inkscape:connector-curvature="0"
       sodipodi:nodetypes="ccccscccsccc" />
    <path
       style="fill:#207bee;fill-opacity:1;stroke:none;stroke-width:0.26458332px;stroke-linecap:butt;stroke-linejoin:miter;stroke-opacity:1"
       d="m 72.760423,255.98959 5.291657,3.96875 v -2.64583 h 9.26042 v -2.64584 h -9.26042 v -2.64583 z"
       id="path876"
       inkscape:connector-curvature="0" />
    <path
       style="opacity:0.98999999;fill:#505050;fill-opacity:1;stroke:none;stroke-width:0.26458332px;stroke-linecap:butt;stroke-linejoin:miter;stroke-opacity:1"
       d="m 30.427083,253.87293 -2.645833,-1.5875 v 1.05834 h -6.614583 v 1.05833 h 6.614583 v 1.05833 z"
       id="path829-2"
       inkscape:connector-curvature="0"
       sodipodi:nodetypes="cccccccc" />
    <path
       sodipodi:nodetypes="cccccccc"
       inkscape:connector-curvature="0"
       id="path831-2"
       d="m 21.16667,258.10628 2.645828,1.5875 3e-6,-1.05834 6.614583,2e-5 4e-6,-1.05833 -6.614583,-2e-5 3e-6,-1.05833 z"
       style="opacity:0.98999999;fill:#505050;fill-opacity:1;stroke:none;stroke-width:0.26458332px;stroke-linecap:butt;stroke-linejoin:miter;stroke-opacity:1" />
    <path
       sodipodi:nodetypes="cccccccc"
       inkscape:connector-curvature="0"
       id="path847"
       d="m 55.562498,253.87293 -2.645833,-1.5875 v 1.05834 h -6.614583 v 1.05833 h 6.614583 v 1.05833 z"
       style="opacity:0.98999999;fill:#505050;fill-opacity:1;stroke:none;stroke-width:0.26458332px;stroke-linecap:butt;stroke-linejoin:miter;stroke-opacity:1" />
    <path
       style="opacity:0.98999999;fill:#505050;fill-opacity:1;stroke:none;stroke-width:0.26458332px;stroke-linecap:butt;stroke-linejoin:miter;stroke-opacity:1"
       d="m 46.302085,258.10628 2.645828,1.5875 2e-6,-1.05834 6.614583,2e-5 6e-6,-1.05833 -6.614583,-2e-5 2e-6,-1.05833 z"
       id="path849"
       inkscape:connector-curvature="0"
       sodipodi:nodetypes="cccccccc" />
    <path
       style="opacity:0.98999999;fill:#7bc5e3;fill-opacity:1;stroke:none;stroke-width:0.26458332px;stroke-linecap:butt;stroke-linejoin:miter;stroke-opacity:1"
       d="m 6.6145831,253.34377 c 0,0 0,-1.32291 1.322917,-1.32291 1.322917,0 10.5833339,0 10.5833339,0 0,0 1.322917,0 1.322917,1.32291 0,1.32292 0,5.29167 0,5.29167 0,0 0,1.32292 -1.322917,1.32292 -1.322916,0 -10.5833339,0 -10.5833339,0 0,0 -1.322917,0 -1.322917,-1.32292 0,-1.32292 0,-5.29167 0,-5.29167"
       id="path854"
       inkscape:connector-curvature="0" />
    <path
       inkscape:connector-curvature="0"
       id="path858"
       d="m 31.749999,253.34377 c 0,0 0,-1.32291 1.322917,-1.32291 1.322917,0 10.583333,0 10.583333,0 0,0 1.322916,0 1.322916,1.32291 0,1.32292 0,5.29167 0,5.29167 0,0 0,1.32292 -1.322916,1.32292 -1.322917,0 -10.583333,0 -10.583333,0 0,0 -1.322917,0 -1.322917,-1.32292 0,-1.32292 0,-5.29167 0,-5.29167"
       style="opacity:0.98999999;fill:#e5e587;fill-opacity:1;stroke:none;stroke-width:0.26458332px;stroke-linecap:butt;stroke-linejoin:miter;stroke-opacity:1" />
    <path
       style="opacity:0.98999999;fill:#b4b4e7;fill-opacity:1;stroke:none;stroke-width:0.26458332px;stroke-linecap:butt;stroke-linejoin:miter;stroke-opacity:1"
       d="m 56.885415,253.34377 c 0,0 0,-1.32291 1.322917,-1.32291 1.322916,0 10.583333,0 10.583333,0 0,0 1.322916,0 1.322916,1.32291 0,1.32292 0,5.29167 0,5.29167 0,0 0,1.32292 -1.322916,1.32292 -1.322917,0 -10.583333,0 -10.583333,0 0,0 -1.322917,0 -1.322917,-1.32292 0,-1.32292 0,-5.29167 0,-5.29167"
       id="path860"
       inkscape:connector-curvature="0" />
    <path
       inkscape:connector-curvature="0"
       id="path856"
       d="m 42.333332,230.85418 c 0,0 0,-1.32291 1.322917,-1.32291 1.322916,0 10.583332,0 10.583332,0 0,0 1.322917,0 1.322917,1.32291 0,1.32292 0,5.29167 0,5.29167 0,0 0,1.32292 -1.322917,1.32292 -1.322916,0 -10.583332,0 -10.583332,0 0,0 -1.322917,0 -1.322917,-1.32292 0,-1.32292 0,-5.29167 0,-5.29167"
       style="opacity:0.98999999;fill:#4ed574;fill-opacity:0.47058824;stroke:none;stroke-width:0.26458332px;stroke-linecap:butt;stroke-linejoin:miter;stroke-opacity:1" />
    <path
       style="opacity:0.98999999;fill:#ec8a99;fill-opacity:0.47058824;stroke:none;stroke-width:0.26458332px;stroke-linecap:butt;stroke-linejoin:miter;stroke-opacity:1"
       d="m 89.95833,253.34377 c 0,0 0,-1.32291 1.32291,-1.32291 1.32292,0 10.58334,0 10.58334,0 0,0 1.32291,0 1.32291,1.32291 0,1.32292 0,5.29167 0,5.29167 0,0 0,1.32292 -1.32291,1.32292 -1.32292,0 -10.58334,0 -10.58334,0 0,0 -1.32291,0 -1.32291,-1.32292 0,-1.32292 0,-5.29167 0,-5.29167"
       id="path862"
       inkscape:connector-curvature="0" />
  </g>
</svg>
