<?xml version="1.0" encoding="UTF-8" standalone="no"?>
<!-- Created with Inkscape (http://www.inkscape.org/) -->

<svg
   xmlns:dc="http://purl.org/dc/elements/1.1/"
   xmlns:cc="http://creativecommons.org/ns#"
   xmlns:rdf="http://www.w3.org/1999/02/22-rdf-syntax-ns#"
   xmlns:svg="http://www.w3.org/2000/svg"
   xmlns="http://www.w3.org/2000/svg"
   xmlns:sodipodi="http://sodipodi.sourceforge.net/DTD/sodipodi-0.dtd"
   xmlns:inkscape="http://www.inkscape.org/namespaces/inkscape"
   width="360pt"
   height="240pt"
   viewBox="0 0 127 84.66666"
   version="1.1"
   id="svg8"
   inkscape:version="0.92.4 (5da689c313, 2019-01-14)"
   sodipodi:docname="output.svg">
  <defs
     id="defs2" />
  <sodipodi:namedview
     id="base"
     pagecolor="#ffffff"
     bordercolor="#666666"
     borderopacity="1.0"
     inkscape:pageopacity="0.0"
     inkscape:pageshadow="2"
     inkscape:zoom="6.6450004"
     inkscape:cx="310.29294"
     inkscape:cy="159.1176"
     inkscape:document-units="pt"
     inkscape:current-layer="layer1"
     showgrid="true"
     units="pt"
     inkscape:window-width="2170"
     inkscape:window-height="1138"
     inkscape:window-x="352"
     inkscape:window-y="99"
     inkscape:window-maximized="0">
    <inkscape:grid
       type="xygrid"
       id="grid4518" />
  </sodipodi:namedview>
  <metadata
     id="metadata5">
    <rdf:RDF>
      <cc:Work
         rdf:about="">
        <dc:format>image/svg+xml</dc:format>
        <dc:type
           rdf:resource="http://purl.org/dc/dcmitype/StillImage" />
        <dc:title />
      </cc:Work>
    </rdf:RDF>
  </metadata>
  <g
     inkscape:label="Layer 1"
     inkscape:groupmode="layer"
     id="layer1"
     transform="translate(0,-212.33335)"
     style="opacity:0.99">
    <path
       style="fill:#505050;fill-opacity:1;stroke:none;stroke-width:0.26458332px;stroke-linecap:butt;stroke-linejoin:miter;stroke-opacity:1"
       d="m 30.427082,253.87293 -2.645833,-1.5875 v 1.05834 h -6.614583 v 1.05833 h 6.614583 v 1.05833 z"
       id="path829"
       inkscape:connector-curvature="0"
       sodipodi:nodetypes="cccccccc" />
    <path
       sodipodi:nodetypes="cccccccc"
       inkscape:connector-curvature="0"
       id="path831"
       d="m 21.166669,258.10628 2.645828,1.5875 3e-6,-1.05834 6.614583,2e-5 4e-6,-1.05833 -6.614583,-2e-5 3e-6,-1.05833 z"
       style="fill:#505050;fill-opacity:1;stroke:none;stroke-width:0.26458332px;stroke-linecap:butt;stroke-linejoin:miter;stroke-opacity:1" />
    <path
       sodipodi:nodetypes="cccccccc"
       inkscape:connector-curvature="0"
       id="path841"
       d="m 55.562498,253.87293 -2.645833,-1.5875 v 1.05834 h -6.614583 v 1.05833 h 6.614583 v 1.05833 z"
       style="fill:#505050;fill-opacity:1;stroke:none;stroke-width:0.26458332px;stroke-linecap:butt;stroke-linejoin:miter;stroke-opacity:1" />
    <path
       style="fill:#505050;fill-opacity:1;stroke:none;stroke-width:0.26458332px;stroke-linecap:butt;stroke-linejoin:miter;stroke-opacity:1"
       d="m 46.302085,258.10628 2.645828,1.5875 3e-6,-1.05834 6.614583,2e-5 4e-6,-1.05833 -6.614583,-2e-5 3e-6,-1.05833 z"
       id="path843"
       inkscape:connector-curvature="0"
       sodipodi:nodetypes="cccccccc" />
    <path
       sodipodi:nodetypes="cccccccc"
       inkscape:connector-curvature="0"
       id="path847"
       d="m 80.697913,253.87293 -2.645833,-1.5875 v 1.05834 h -6.614583 v 1.05833 h 6.614583 v 1.05833 z"
       style="fill:#505050;fill-opacity:1;stroke:none;stroke-width:0.26458332px;stroke-linecap:butt;stroke-linejoin:miter;stroke-opacity:1" />
    <path
       style="fill:#505050;fill-opacity:1;stroke:none;stroke-width:0.26458332px;stroke-linecap:butt;stroke-linejoin:miter;stroke-opacity:1"
       d="m 71.4375,258.10628 2.645828,1.5875 3e-6,-1.05834 6.614583,2e-5 4e-6,-1.05833 -6.614583,-2e-5 3e-6,-1.05833 z"
       id="path849"
       inkscape:connector-curvature="0"
       sodipodi:nodetypes="cccccccc" />
    <path
       style="fill:#b4b4b4;fill-opacity:1;stroke:none;stroke-width:0.26458332px;stroke-linecap:butt;stroke-linejoin:miter;stroke-opacity:1"
       d="m 29.104165,240.1146 6.614583,-3.96875 v 2.64583 h 48.947915 v 2.64583 H 35.718748 v 2.64584 z"
       id="path827"
       inkscape:connector-curvature="0"
       sodipodi:nodetypes="cccccccc" />
    <path
       sodipodi:nodetypes="cccccccc"
       inkscape:connector-curvature="0"
       id="path838"
       d="m 84.666373,271.86314 -6.613713,3.9702 -5.8e-4,-2.64583 -48.947914,0.0107 -5.79e-4,-2.64583 48.947914,-0.0107 -5.8e-4,-2.64584 z"
       style="fill:#b4b4b4;fill-opacity:1;stroke:none;stroke-width:0.26458332px;stroke-linecap:butt;stroke-linejoin:miter;stroke-opacity:1" />
    <path
       style="fill:#505050;fill-opacity:1;stroke:none;stroke-width:0.26458332px;stroke-linecap:butt;stroke-linejoin:miter;stroke-opacity:1"
       d="m 105.83333,253.87293 -2.64583,-1.5875 v 1.05834 h -6.614587 v 1.05833 h 6.614587 v 1.05833 z"
       id="path840"
       inkscape:connector-curvature="0"
       sodipodi:nodetypes="cccccccc" />
    <path
       sodipodi:nodetypes="cccccccc"
       inkscape:connector-curvature="0"
       id="path842"
       d="m 96.572913,258.10628 2.645834,1.5875 v -1.05834 l 6.614583,2e-5 1e-5,-1.05833 -6.614593,-2e-5 1e-5,-1.05833 z"
       style="fill:#505050;fill-opacity:1;stroke:none;stroke-width:0.26458332px;stroke-linecap:butt;stroke-linejoin:miter;stroke-opacity:1" />
    <path
       style="fill:#7bc5e3;fill-opacity:1;stroke:none;stroke-width:0.26458332px;stroke-linecap:butt;stroke-linejoin:miter;stroke-opacity:1"
       d="m 6.6145831,253.34377 c 0,0 0,-1.32291 1.3229167,-1.32291 1.322917,0 10.5833332,0 10.5833332,0 0,0 1.322917,0 1.322917,1.32291 0,1.32292 0,5.29167 0,5.29167 0,0 0,1.32292 -1.322917,1.32292 -1.322916,0 -10.5833332,0 -10.5833332,0 0,0 -1.3229167,0 -1.3229167,-1.32292 0,-1.32292 0,-5.29167 0,-5.29167"
       id="path854"
       inkscape:connector-curvature="0" />
    <path
       inkscape:connector-curvature="0"
       id="path856"
       d="m 31.749999,253.34377 c 0,0 0,-1.32291 1.322917,-1.32291 1.322916,0 10.583332,0 10.583332,0 0,0 1.322917,0 1.322917,1.32291 0,1.32292 0,5.29167 0,5.29167 0,0 0,1.32292 -1.322917,1.32292 -1.322916,0 -10.583332,0 -10.583332,0 0,0 -1.322917,0 -1.322917,-1.32292 0,-1.32292 0,-5.29167 0,-5.29167"
       style="fill:#4ed574;fill-opacity:1;stroke:none;stroke-width:0.26458332px;stroke-linecap:butt;stroke-linejoin:miter;stroke-opacity:1" />
    <path
       inkscape:connector-curvature="0"
       id="path858"
       d="m 56.885415,253.34377 c 0,0 0,-1.32291 1.322917,-1.32291 1.322916,0 10.583332,0 10.583332,0 0,0 1.322917,0 1.322917,1.32291 0,1.32292 0,5.29167 0,5.29167 0,0 0,1.32292 -1.322917,1.32292 -1.322916,0 -10.583332,0 -10.583332,0 0,0 -1.322917,0 -1.322917,-1.32292 0,-1.32292 0,-5.29167 0,-5.29167"
       style="fill:#e5e587;fill-opacity:1;stroke:none;stroke-width:0.26458332px;stroke-linecap:butt;stroke-linejoin:miter;stroke-opacity:1" />
    <path
       style="fill:#b4b4e7;fill-opacity:0.47058824;stroke:none;stroke-width:0.26458332px;stroke-linecap:butt;stroke-linejoin:miter;stroke-opacity:1"
       d="m 82.02083,253.34377 c 0,0 0,-1.32291 1.322917,-1.32291 1.322916,0 10.583332,0 10.583332,0 0,0 1.322917,0 1.322917,1.32291 0,1.32292 0,5.29167 0,5.29167 0,0 0,1.32292 -1.322917,1.32292 -1.322916,0 -10.583332,0 -10.583332,0 0,0 -1.322917,0 -1.322917,-1.32292 0,-1.32292 0,-5.29167 0,-5.29167"
       id="path860"
       inkscape:connector-curvature="0" />
    <path
       style="fill:#ec8a99;fill-opacity:1;stroke:none;stroke-width:0.26458332px;stroke-linecap:butt;stroke-linejoin:miter;stroke-opacity:1"
       d="m 107.15625,253.34377 c 0,0 0,-1.32291 1.32291,-1.32291 1.32292,0 10.58334,0 10.58334,0 0,0 1.32291,0 1.32291,1.32291 0,1.32292 0,5.29167 0,5.29167 0,0 0,1.32292 -1.32291,1.32292 -1.32292,0 -10.58334,0 -10.58334,0 0,0 -1.32291,0 -1.32291,-1.32292 0,-1.32292 0,-5.29167 0,-5.29167"
       id="path862"
       inkscape:connector-curvature="0" />
    <g
       style="opacity:0.98999999"
       id="g838"
       transform="rotate(45,70.477759,256.54534)">
      <rect
         y="242.76044"
         x="70.114578"
         height="1.5874889"
         width="26.458338"
         id="rect832"
         style="opacity:1;fill:#f00000;fill-opacity:1;fill-rule:nonzero;stroke:none;stroke-width:0.43206131;stroke-linecap:round;stroke-linejoin:miter;stroke-miterlimit:4.0999999;stroke-dasharray:none;stroke-dashoffset:0;stroke-opacity:1;paint-order:fill markers stroke" />
      <rect
         transform="rotate(-90)"
         style="opacity:1;fill:#f00000;fill-opacity:1;fill-rule:nonzero;stroke:none;stroke-width:0.43206131;stroke-linecap:round;stroke-linejoin:miter;stroke-miterlimit:4.0999999;stroke-dasharray:none;stroke-dashoffset:0;stroke-opacity:1;paint-order:fill markers stroke"
         id="rect834"
         width="26.458338"
         height="1.5874889"
         x="-256.78336"
         y="82.550011" />
    </g>
  </g>
</svg>
