<?xml version="1.0" encoding="UTF-8" standalone="no"?>
<svg
xmlns:svg="http://www.w3.org/2000/svg"
xmlns="http://www.w3.org/2000/svg"
xmlns:xlink="http://www.w3.org/1999/xlink"
width ="640"
height ="1512"
viewBox ="0 0 640 1512"
>
<defs><polygon points="0,0 6,8, 0,16 20,8" id="m_tmpl2"/><marker id="token_arrow"  markerUnits="userSpaceOnUse" markerWidth="20" markerHeight="16" viewBox="0 0 20 16" refX="14" refY="8" orient="auto"><use xlink:href="#m_tmpl2" fill="#60a0ff"/></marker></defs><defs><polygon points="0,0 0,4 0,8 12,4" id="m_tmpl3"/><marker id="link_arrow" markerUnits="strokeWidth" markerWidth="12" markerHeight="8" viewBox="0 0 12 8" refX="12" refY="4" orient="auto"><use xlink:href="#m_tmpl3" fill="#888888"/></marker></defs><rect x ="0" y="0" width="280" height="200" fill="#ffffff" stroke="#888888" stroke-width="1"/><path fill="#0088e0" d="M 292 100 L 292 80 L 312 100 L 292 120 z" /><g transform="translate(0,0)"><g transform="translate(30,100) scale(1)"><g fill="none" stroke="#a0a0a0" stroke-width="1"><rect x="42" y="-14" width="28" height="28" rx="4" ry="4" /><g fill="#d0d0d0"><rect x="-14" y="-14" width="28" height="28" rx="4" ry="4" /></g><path d="M 42 7 Q 28 7 14 7"  marker-end="url(#link_arrow)"/><path d="M 65.0601 -14.3102 Q 28 -37 -9.06008 -14.3102"  marker-end="url(#link_arrow)"/></g></g>
<g transform="translate(30,100) scale(1)"><g class="flash_g" fill="#ff8c00" stroke="#ff8c00" stroke-width="1"><rect x="42" y="-14" width="28" height="28" rx="4" ry="4" /></g><g fill="none" stroke="#a0a0a0" stroke-width="1"><rect x="42" y="-14" width="28" height="28" rx="4" ry="4" /></g></g><g transform="translate(30,100) scale(1)"><g fill="#ffffff" stroke-width="0"><g stroke-width="1" stroke="#c0c0c0"><circle cx="56" cy="0" r="11" fill="#FFFFFF" opacity="1" /></g></g><g font-size="14" font-family="sans-serif" fill="#888888"><text id="" x="56" y="0" dominant-baseline="central" text-anchor="middle">8</text></g></g></g><text x="16" y="20" font-size="16" text-anchor="middle" fill="#888888" font-family="sans-serif" >1-1</text><text x="140" y="184" font-size="9" text-anchor="middle" font-family="SimSun, 宋体, serif">生成节点，将其配置在列表的开头</text><rect x ="320" y="0" width="280" height="200" fill="#ffffff" stroke="#888888" stroke-width="1"/><path fill="#0088e0" d="M 612 100 L 612 80 L 632 100 L 612 120 z" /><g transform="translate(320,0)"><g transform="translate(30,100) scale(1)"><g fill="none" stroke="#a0a0a0" stroke-width="1"><rect x="42" y="-14" width="28" height="28" rx="4" ry="4" /><g fill="#d0d0d0"><rect x="-14" y="-14" width="28" height="28" rx="4" ry="4" /></g><path d="M 42 7 Q 28 7 14 7"  marker-end="url(#link_arrow)"/><path d="M 65.0601 -14.3102 Q 28 -37 -9.06008 -14.3102"  marker-end="url(#link_arrow)"/><path d="M -9.06008 14.3102 Q 28 37 65.0601 14.3102"  marker-end="url(#link_arrow)"/><path d="M 14 -7 Q 28 -7 42 -7"  marker-end="url(#link_arrow)"/></g></g>
<g transform="translate(30,100) scale(1)"><g class="flash_g" fill="#ff1493" stroke="#ff1493" stroke-width="1"><rect x="-14" y="-14" width="28" height="28" rx="4" ry="4" /></g><g fill="none" stroke="#a0a0a0" stroke-width="1"><rect x="-14" y="-14" width="28" height="28" rx="4" ry="4" /></g></g><g transform="translate(30,100) scale(1)"><g class="flash_g" fill="#ff1493" stroke="#ff1493" stroke-width="1"><rect x="-14" y="-14" width="28" height="28" rx="4" ry="4" /></g><g fill="none" stroke="#a0a0a0" stroke-width="1"><rect x="-14" y="-14" width="28" height="28" rx="4" ry="4" /></g></g><g transform="translate(30,100) scale(1)"><g fill="#ffffff" stroke-width="0"><g stroke-width="1" stroke="#c0c0c0"><circle cx="56" cy="0" r="11" fill="#FFFFFF" opacity="1" /></g></g><g font-size="14" font-family="sans-serif" fill="#888888"><text id="" x="56" y="0" dominant-baseline="central" text-anchor="middle">8</text></g></g></g><text x="336" y="20" font-size="16" text-anchor="middle" fill="#888888" font-family="sans-serif" >1-2</text><text x="460" y="184" font-size="9" text-anchor="middle" font-family="SimSun, 宋体, serif">修改前后指针以完成插入</text><rect x ="0" y="216" width="280" height="200" fill="#ffffff" stroke="#888888" stroke-width="1"/><path fill="#0088e0" d="M 292 316 L 292 296 L 312 316 L 292 336 z" /><g transform="translate(0,216)"><g transform="translate(30,100) scale(1)"><g fill="none" stroke="#a0a0a0" stroke-width="1"><rect x="42" y="-14" width="28" height="28" rx="4" ry="4" /><g fill="#d0d0d0"><rect x="-14" y="-14" width="28" height="28" rx="4" ry="4" /></g><rect x="98" y="-14" width="28" height="28" rx="4" ry="4" /><path d="M 42 7 Q 28 7 14 7"  marker-end="url(#link_arrow)"/><path d="M 70 -7 Q 84 -7 98 -7"  marker-end="url(#link_arrow)"/><path d="M -8.8446 13.9459 Q 56 51 120.845 13.9459"  marker-end="url(#link_arrow)"/><path d="M 9.89949 2.89949 Q 56 49 102.101 2.89949"  marker-end="url(#link_arrow)"/><path d="M 102.101 -2.89949 Q 56 -49 9.89949 -2.89949"  marker-end="url(#link_arrow)"/><path d="M 120.845 -13.9459 Q 56 -51 -8.8446 -13.9459"  marker-end="url(#link_arrow)"/></g></g>
<g transform="translate(30,100) scale(1)"><g class="flash_g" fill="#ff8c00" stroke="#ff8c00" stroke-width="1"><rect x="42" y="-14" width="28" height="28" rx="4" ry="4" /></g><g fill="none" stroke="#a0a0a0" stroke-width="1"><rect x="42" y="-14" width="28" height="28" rx="4" ry="4" /></g></g><g transform="translate(30,100) scale(1)"><g fill="#ffffff" stroke-width="0"><g stroke-width="1" stroke="#c0c0c0"><circle cx="112" cy="0" r="11" fill="#FFFFFF" opacity="1" /></g><g stroke-width="1" stroke="#c0c0c0"><circle cx="56" cy="0" r="11" fill="#FFFFFF" opacity="1" /></g></g><g font-size="14" font-family="sans-serif" fill="#888888"><text id="" x="112" y="0" dominant-baseline="central" text-anchor="middle">8</text><text id="" x="56" y="0" dominant-baseline="central" text-anchor="middle">1</text></g></g></g><text x="16" y="236" font-size="16" text-anchor="middle" fill="#888888" font-family="sans-serif" >1-3</text><text x="140" y="400" font-size="9" text-anchor="middle" font-family="SimSun, 宋体, serif">生成节点，将其配置在列表的开头</text><rect x ="320" y="216" width="280" height="200" fill="#ffffff" stroke="#888888" stroke-width="1"/><path fill="#0088e0" d="M 612 316 L 612 296 L 632 316 L 612 336 z" /><g transform="translate(320,216)"><g transform="translate(30,100) scale(1)"><g fill="none" stroke="#a0a0a0" stroke-width="1"><rect x="42" y="-14" width="28" height="28" rx="4" ry="4" /><g fill="#d0d0d0"><rect x="-14" y="-14" width="28" height="28" rx="4" ry="4" /></g><rect x="98" y="-14" width="28" height="28" rx="4" ry="4" /><path d="M 42 7 Q 28 7 14 7"  marker-end="url(#link_arrow)"/><path d="M 70 -7 Q 84 -7 98 -7"  marker-end="url(#link_arrow)"/><path d="M -8.8446 13.9459 Q 56 51 120.845 13.9459"  marker-end="url(#link_arrow)"/><path d="M 14 -7 Q 28 -7 42 -7"  marker-end="url(#link_arrow)"/><path d="M 98 7 Q 84 7 70 7"  marker-end="url(#link_arrow)"/><path d="M 120.845 -13.9459 Q 56 -51 -8.8446 -13.9459"  marker-end="url(#link_arrow)"/></g></g>
<g transform="translate(30,100) scale(1)"><g class="flash_g" fill="#ff1493" stroke="#ff1493" stroke-width="1"><rect x="-14" y="-14" width="28" height="28" rx="4" ry="4" /></g><g fill="none" stroke="#a0a0a0" stroke-width="1"><rect x="-14" y="-14" width="28" height="28" rx="4" ry="4" /></g></g><g transform="translate(30,100) scale(1)"><g class="flash_g" fill="#ff1493" stroke="#ff1493" stroke-width="1"><rect x="98" y="-14" width="28" height="28" rx="4" ry="4" /></g><g fill="none" stroke="#a0a0a0" stroke-width="1"><rect x="98" y="-14" width="28" height="28" rx="4" ry="4" /></g></g><g transform="translate(30,100) scale(1)"><g fill="#ffffff" stroke-width="0"><g stroke-width="1" stroke="#c0c0c0"><circle cx="56" cy="0" r="11" fill="#FFFFFF" opacity="1" /></g><g stroke-width="1" stroke="#c0c0c0"><circle cx="112" cy="0" r="11" fill="#FFFFFF" opacity="1" /></g></g><g font-size="14" font-family="sans-serif" fill="#888888"><text id="" x="56" y="0" dominant-baseline="central" text-anchor="middle">1</text><text id="" x="112" y="0" dominant-baseline="central" text-anchor="middle">8</text></g></g></g><text x="336" y="236" font-size="16" text-anchor="middle" fill="#888888" font-family="sans-serif" >1-4</text><text x="460" y="400" font-size="9" text-anchor="middle" font-family="SimSun, 宋体, serif">修改前后指针以完成插入</text><rect x ="0" y="432" width="280" height="200" fill="#ffffff" stroke="#888888" stroke-width="1"/><path fill="#0088e0" d="M 292 532 L 292 512 L 312 532 L 292 552 z" /><g transform="translate(0,432)"><g transform="translate(30,100) scale(1)"><g fill="none" stroke="#a0a0a0" stroke-width="1"><rect x="42" y="-14" width="28" height="28" rx="4" ry="4" /><rect x="98" y="-14" width="28" height="28" rx="4" ry="4" /><g fill="#d0d0d0"><rect x="-14" y="-14" width="28" height="28" rx="4" ry="4" /></g><rect x="154" y="-14" width="28" height="28" rx="4" ry="4" /><path d="M 42 7 Q 28 7 14 7"  marker-end="url(#link_arrow)"/><path d="M 70 -7 Q 84 -7 98 -7"  marker-end="url(#link_arrow)"/><path d="M 102.101 -2.89949 Q 56 -49 9.89949 -2.89949"  marker-end="url(#link_arrow)"/><path d="M 126 -7 Q 140 -7 154 -7"  marker-end="url(#link_arrow)"/><path d="M -8.74532 13.7693 Q 84 65 176.745 13.7693"  marker-end="url(#link_arrow)"/><path d="M 9.89949 2.89949 Q 56 49 102.101 2.89949"  marker-end="url(#link_arrow)"/><path d="M 154 7 Q 140 7 126 7"  marker-end="url(#link_arrow)"/><path d="M 176.745 -13.7693 Q 84 -65 -8.74532 -13.7693"  marker-end="url(#link_arrow)"/></g></g>
<g transform="translate(30,100) scale(1)"><g class="flash_g" fill="#ff8c00" stroke="#ff8c00" stroke-width="1"><rect x="42" y="-14" width="28" height="28" rx="4" ry="4" /></g><g fill="none" stroke="#a0a0a0" stroke-width="1"><rect x="42" y="-14" width="28" height="28" rx="4" ry="4" /></g></g><g transform="translate(30,100) scale(1)"><g fill="#ffffff" stroke-width="0"><g stroke-width="1" stroke="#c0c0c0"><circle cx="112" cy="0" r="11" fill="#FFFFFF" opacity="1" /></g><g stroke-width="1" stroke="#c0c0c0"><circle cx="168" cy="0" r="11" fill="#FFFFFF" opacity="1" /></g><g stroke-width="1" stroke="#c0c0c0"><circle cx="56" cy="0" r="11" fill="#FFFFFF" opacity="1" /></g></g><g font-size="14" font-family="sans-serif" fill="#888888"><text id="" x="112" y="0" dominant-baseline="central" text-anchor="middle">1</text><text id="" x="168" y="0" dominant-baseline="central" text-anchor="middle">8</text><text id="" x="56" y="0" dominant-baseline="central" text-anchor="middle">5</text></g></g></g><text x="16" y="452" font-size="16" text-anchor="middle" fill="#888888" font-family="sans-serif" >1-5</text><text x="140" y="616" font-size="9" text-anchor="middle" font-family="SimSun, 宋体, serif">生成节点，将其配置在列表的开头</text><rect x ="320" y="432" width="280" height="200" fill="#ffffff" stroke="#888888" stroke-width="1"/><path fill="#0088e0" d="M 612 532 L 612 512 L 632 532 L 612 552 z" /><g transform="translate(320,432)"><g transform="translate(30,100) scale(1)"><g fill="none" stroke="#a0a0a0" stroke-width="1"><rect x="42" y="-14" width="28" height="28" rx="4" ry="4" /><rect x="98" y="-14" width="28" height="28" rx="4" ry="4" /><g fill="#d0d0d0"><rect x="-14" y="-14" width="28" height="28" rx="4" ry="4" /></g><rect x="154" y="-14" width="28" height="28" rx="4" ry="4" /><path d="M 42 7 Q 28 7 14 7"  marker-end="url(#link_arrow)"/><path d="M 70 -7 Q 84 -7 98 -7"  marker-end="url(#link_arrow)"/><path d="M 98 7 Q 84 7 70 7"  marker-end="url(#link_arrow)"/><path d="M 126 -7 Q 140 -7 154 -7"  marker-end="url(#link_arrow)"/><path d="M -8.74532 13.7693 Q 84 65 176.745 13.7693"  marker-end="url(#link_arrow)"/><path d="M 14 -7 Q 28 -7 42 -7"  marker-end="url(#link_arrow)"/><path d="M 154 7 Q 140 7 126 7"  marker-end="url(#link_arrow)"/><path d="M 176.745 -13.7693 Q 84 -65 -8.74532 -13.7693"  marker-end="url(#link_arrow)"/></g></g>
<g transform="translate(30,100) scale(1)"><g class="flash_g" fill="#ff1493" stroke="#ff1493" stroke-width="1"><rect x="-14" y="-14" width="28" height="28" rx="4" ry="4" /></g><g fill="none" stroke="#a0a0a0" stroke-width="1"><rect x="-14" y="-14" width="28" height="28" rx="4" ry="4" /></g></g><g transform="translate(30,100) scale(1)"><g class="flash_g" fill="#ff1493" stroke="#ff1493" stroke-width="1"><rect x="98" y="-14" width="28" height="28" rx="4" ry="4" /></g><g fill="none" stroke="#a0a0a0" stroke-width="1"><rect x="98" y="-14" width="28" height="28" rx="4" ry="4" /></g></g><g transform="translate(30,100) scale(1)"><g fill="#ffffff" stroke-width="0"><g stroke-width="1" stroke="#c0c0c0"><circle cx="56" cy="0" r="11" fill="#FFFFFF" opacity="1" /></g><g stroke-width="1" stroke="#c0c0c0"><circle cx="112" cy="0" r="11" fill="#FFFFFF" opacity="1" /></g><g stroke-width="1" stroke="#c0c0c0"><circle cx="168" cy="0" r="11" fill="#FFFFFF" opacity="1" /></g></g><g font-size="14" font-family="sans-serif" fill="#888888"><text id="" x="56" y="0" dominant-baseline="central" text-anchor="middle">5</text><text id="" x="112" y="0" dominant-baseline="central" text-anchor="middle">1</text><text id="" x="168" y="0" dominant-baseline="central" text-anchor="middle">8</text></g></g></g><text x="336" y="452" font-size="16" text-anchor="middle" fill="#888888" font-family="sans-serif" >1-6</text><text x="460" y="616" font-size="9" text-anchor="middle" font-family="SimSun, 宋体, serif">修改前后指针以完成插入</text><rect x ="0" y="648" width="280" height="200" fill="#ffffff" stroke="#888888" stroke-width="1"/><path fill="#0088e0" d="M 292 748 L 292 728 L 312 748 L 292 768 z" /><g transform="translate(0,648)"><g transform="translate(30,100) scale(1)"><g fill="none" stroke="#a0a0a0" stroke-width="1"><rect x="42" y="-14" width="28" height="28" rx="4" ry="4" /><rect x="98" y="-14" width="28" height="28" rx="4" ry="4" /><rect x="154" y="-14" width="28" height="28" rx="4" ry="4" /><g fill="#d0d0d0"><rect x="-14" y="-14" width="28" height="28" rx="4" ry="4" /></g><rect x="210" y="-14" width="28" height="28" rx="4" ry="4" /><path d="M 42 7 Q 28 7 14 7"  marker-end="url(#link_arrow)"/><path d="M 70 -7 Q 84 -7 98 -7"  marker-end="url(#link_arrow)"/><path d="M 102.101 -2.89949 Q 56 -49 9.89949 -2.89949"  marker-end="url(#link_arrow)"/><path d="M 126 -7 Q 140 -7 154 -7"  marker-end="url(#link_arrow)"/><path d="M 154 7 Q 140 7 126 7"  marker-end="url(#link_arrow)"/><path d="M 182 -7 Q 196 -7 210 -7"  marker-end="url(#link_arrow)"/><path d="M -8.6883 13.665 Q 112 79 232.688 13.665"  marker-end="url(#link_arrow)"/><path d="M 9.89949 2.89949 Q 56 49 102.101 2.89949"  marker-end="url(#link_arrow)"/><path d="M 210 7 Q 196 7 182 7"  marker-end="url(#link_arrow)"/><path d="M 232.688 -13.665 Q 112 -79 -8.6883 -13.665"  marker-end="url(#link_arrow)"/></g></g>
<g transform="translate(30,100) scale(1)"><g class="flash_g" fill="#ff8c00" stroke="#ff8c00" stroke-width="1"><rect x="42" y="-14" width="28" height="28" rx="4" ry="4" /></g><g fill="none" stroke="#a0a0a0" stroke-width="1"><rect x="42" y="-14" width="28" height="28" rx="4" ry="4" /></g></g><g transform="translate(30,100) scale(1)"><g fill="#ffffff" stroke-width="0"><g stroke-width="1" stroke="#c0c0c0"><circle cx="112" cy="0" r="11" fill="#FFFFFF" opacity="1" /></g><g stroke-width="1" stroke="#c0c0c0"><circle cx="168" cy="0" r="11" fill="#FFFFFF" opacity="1" /></g><g stroke-width="1" stroke="#c0c0c0"><circle cx="224" cy="0" r="11" fill="#FFFFFF" opacity="1" /></g><g stroke-width="1" stroke="#c0c0c0"><circle cx="56" cy="0" r="11" fill="#FFFFFF" opacity="1" /></g></g><g font-size="14" font-family="sans-serif" fill="#888888"><text id="" x="112" y="0" dominant-baseline="central" text-anchor="middle">5</text><text id="" x="168" y="0" dominant-baseline="central" text-anchor="middle">1</text><text id="" x="224" y="0" dominant-baseline="central" text-anchor="middle">8</text><text id="" x="56" y="0" dominant-baseline="central" text-anchor="middle">3</text></g></g></g><text x="16" y="668" font-size="16" text-anchor="middle" fill="#888888" font-family="sans-serif" >1-7</text><text x="140" y="832" font-size="9" text-anchor="middle" font-family="SimSun, 宋体, serif">生成节点，将其配置在列表的开头</text><rect x ="320" y="648" width="280" height="200" fill="#ffffff" stroke="#888888" stroke-width="1"/><path fill="#0088e0" d="M 612 748 L 612 728 L 632 748 L 612 768 z" /><g transform="translate(320,648)"><g transform="translate(30,100) scale(1)"><g fill="none" stroke="#a0a0a0" stroke-width="1"><rect x="42" y="-14" width="28" height="28" rx="4" ry="4" /><rect x="98" y="-14" width="28" height="28" rx="4" ry="4" /><rect x="154" y="-14" width="28" height="28" rx="4" ry="4" /><g fill="#d0d0d0"><rect x="-14" y="-14" width="28" height="28" rx="4" ry="4" /></g><rect x="210" y="-14" width="28" height="28" rx="4" ry="4" /><path d="M 42 7 Q 28 7 14 7"  marker-end="url(#link_arrow)"/><path d="M 70 -7 Q 84 -7 98 -7"  marker-end="url(#link_arrow)"/><path d="M 98 7 Q 84 7 70 7"  marker-end="url(#link_arrow)"/><path d="M 126 -7 Q 140 -7 154 -7"  marker-end="url(#link_arrow)"/><path d="M 154 7 Q 140 7 126 7"  marker-end="url(#link_arrow)"/><path d="M 182 -7 Q 196 -7 210 -7"  marker-end="url(#link_arrow)"/><path d="M -8.6883 13.665 Q 112 79 232.688 13.665"  marker-end="url(#link_arrow)"/><path d="M 14 -7 Q 28 -7 42 -7"  marker-end="url(#link_arrow)"/><path d="M 210 7 Q 196 7 182 7"  marker-end="url(#link_arrow)"/><path d="M 232.688 -13.665 Q 112 -79 -8.6883 -13.665"  marker-end="url(#link_arrow)"/></g></g>
<g transform="translate(30,100) scale(1)"><g class="flash_g" fill="#ff1493" stroke="#ff1493" stroke-width="1"><rect x="-14" y="-14" width="28" height="28" rx="4" ry="4" /></g><g fill="none" stroke="#a0a0a0" stroke-width="1"><rect x="-14" y="-14" width="28" height="28" rx="4" ry="4" /></g></g><g transform="translate(30,100) scale(1)"><g class="flash_g" fill="#ff1493" stroke="#ff1493" stroke-width="1"><rect x="98" y="-14" width="28" height="28" rx="4" ry="4" /></g><g fill="none" stroke="#a0a0a0" stroke-width="1"><rect x="98" y="-14" width="28" height="28" rx="4" ry="4" /></g></g><g transform="translate(30,100) scale(1)"><g fill="#ffffff" stroke-width="0"><g stroke-width="1" stroke="#c0c0c0"><circle cx="56" cy="0" r="11" fill="#FFFFFF" opacity="1" /></g><g stroke-width="1" stroke="#c0c0c0"><circle cx="112" cy="0" r="11" fill="#FFFFFF" opacity="1" /></g><g stroke-width="1" stroke="#c0c0c0"><circle cx="168" cy="0" r="11" fill="#FFFFFF" opacity="1" /></g><g stroke-width="1" stroke="#c0c0c0"><circle cx="224" cy="0" r="11" fill="#FFFFFF" opacity="1" /></g></g><g font-size="14" font-family="sans-serif" fill="#888888"><text id="" x="56" y="0" dominant-baseline="central" text-anchor="middle">3</text><text id="" x="112" y="0" dominant-baseline="central" text-anchor="middle">5</text><text id="" x="168" y="0" dominant-baseline="central" text-anchor="middle">1</text><text id="" x="224" y="0" dominant-baseline="central" text-anchor="middle">8</text></g></g></g><text x="336" y="668" font-size="16" text-anchor="middle" fill="#888888" font-family="sans-serif" >1-8</text><text x="460" y="832" font-size="9" text-anchor="middle" font-family="SimSun, 宋体, serif">修改前后指针以完成插入</text><rect x ="0" y="864" width="280" height="200" fill="#ffffff" stroke="#888888" stroke-width="1"/><path fill="#0088e0" d="M 292 964 L 292 944 L 312 964 L 292 984 z" /><g transform="translate(0,864)"><g transform="translate(30,100) scale(1)"><g fill="none" stroke="#a0a0a0" stroke-width="1"><rect x="42" y="-14" width="28" height="28" rx="4" ry="4" /><rect x="98" y="-14" width="28" height="28" rx="4" ry="4" /><rect x="154" y="-14" width="28" height="28" rx="4" ry="4" /><g fill="#d0d0d0"><rect x="-14" y="-14" width="28" height="28" rx="4" ry="4" /></g><rect x="210" y="-14" width="28" height="28" rx="4" ry="4" /><path d="M 42 7 Q 28 7 14 7"  marker-end="url(#link_arrow)"/><path d="M 70 -7 Q 84 -7 98 -7"  marker-end="url(#link_arrow)"/><path d="M 98 7 Q 84 7 70 7"  marker-end="url(#link_arrow)"/><path d="M 126 -7 Q 140 -7 154 -7"  marker-end="url(#link_arrow)"/><path d="M 154 7 Q 140 7 126 7"  marker-end="url(#link_arrow)"/><path d="M 182 -7 Q 196 -7 210 -7"  marker-end="url(#link_arrow)"/><path d="M -8.6883 13.665 Q 112 79 232.688 13.665"  marker-end="url(#link_arrow)"/><path d="M 14 -7 Q 28 -7 42 -7"  marker-end="url(#link_arrow)"/><path d="M 210 7 Q 196 7 182 7"  marker-end="url(#link_arrow)"/><path d="M 232.688 -13.665 Q 112 -79 -8.6883 -13.665"  marker-end="url(#link_arrow)"/></g></g>
<g transform="translate(30,100) scale(1)"><g fill="#ffffff" stroke-width="0"><g stroke-width="1" stroke="#c0c0c0"><circle cx="56" cy="0" r="11" fill="#FFFFFF" opacity="1" /></g><g stroke-width="1" stroke="#c0c0c0"><circle cx="112" cy="0" r="11" fill="#FFFFFF" opacity="1" /></g><g stroke-width="1" stroke="#c0c0c0"><circle cx="168" cy="0" r="11" fill="#FFFFFF" opacity="1" /></g><g stroke-width="1" stroke="#c0c0c0"><circle cx="224" cy="0" r="11" fill="#FFFFFF" opacity="1" /></g></g><g font-size="14" font-family="sans-serif" fill="#888888"><text id="" x="56" y="0" dominant-baseline="central" text-anchor="middle">3</text><text id="" x="112" y="0" dominant-baseline="central" text-anchor="middle">5</text><text id="" x="168" y="0" dominant-baseline="central" text-anchor="middle">1</text><text id="" x="224" y="0" dominant-baseline="central" text-anchor="middle">8</text></g></g></g><text x="16" y="884" font-size="16" text-anchor="middle" fill="#888888" font-family="sans-serif" >1-9</text><text x="140" y="1048" font-size="9" text-anchor="middle" font-family="SimSun, 宋体, serif">搜索数据值为 1 的节点并删除</text><rect x ="320" y="864" width="280" height="200" fill="#ffffff" stroke="#888888" stroke-width="1"/><path fill="#0088e0" d="M 612 964 L 612 944 L 632 964 L 612 984 z" /><g transform="translate(320,864)"><g transform="translate(30,100) scale(1)"><g fill="none" stroke="#a0a0a0" stroke-width="1"><rect x="42" y="-14" width="28" height="28" rx="4" ry="4" /><rect x="98" y="-14" width="28" height="28" rx="4" ry="4" /><rect x="154" y="-14" width="28" height="28" rx="4" ry="4" /><g fill="#d0d0d0"><rect x="-14" y="-14" width="28" height="28" rx="4" ry="4" /></g><rect x="210" y="-14" width="28" height="28" rx="4" ry="4" /><path d="M 42 7 Q 28 7 14 7"  marker-end="url(#link_arrow)"/><path d="M 70 -7 Q 84 -7 98 -7"  marker-end="url(#link_arrow)"/><path d="M 98 7 Q 84 7 70 7"  marker-end="url(#link_arrow)"/><path d="M 126 -7 Q 140 -7 154 -7"  marker-end="url(#link_arrow)"/><path d="M 154 7 Q 140 7 126 7"  marker-end="url(#link_arrow)"/><path d="M 182 -7 Q 196 -7 210 -7"  marker-end="url(#link_arrow)"/><path d="M -8.6883 13.665 Q 112 79 232.688 13.665"  marker-end="url(#link_arrow)"/><path d="M 14 -7 Q 28 -7 42 -7"  marker-end="url(#link_arrow)"/><path d="M 210 7 Q 196 7 182 7"  marker-end="url(#link_arrow)"/><path d="M 232.688 -13.665 Q 112 -79 -8.6883 -13.665"  marker-end="url(#link_arrow)"/></g></g>
<g transform="translate(30,100) scale(1)"><g class="flash_g" fill="#ffffff" stroke="#ff8c00" stroke-width="2"><rect x="42" y="-14" width="28" height="28" rx="4" ry="4" /></g></g><g transform="translate(30,100) scale(1)"><g fill="#ffffff" stroke-width="0"><g stroke-width="1" stroke="#c0c0c0"><circle cx="56" cy="0" r="11" fill="#FFFFFF" opacity="1" /></g><g stroke-width="1" stroke="#c0c0c0"><circle cx="112" cy="0" r="11" fill="#FFFFFF" opacity="1" /></g><g stroke-width="1" stroke="#c0c0c0"><circle cx="168" cy="0" r="11" fill="#FFFFFF" opacity="1" /></g><g stroke-width="1" stroke="#c0c0c0"><circle cx="224" cy="0" r="11" fill="#FFFFFF" opacity="1" /></g></g><g font-size="14" font-family="sans-serif" fill="#888888"><text id="" x="56" y="0" dominant-baseline="central" text-anchor="middle">3</text><text id="" x="112" y="0" dominant-baseline="central" text-anchor="middle">5</text><text id="" x="168" y="0" dominant-baseline="central" text-anchor="middle">1</text><text id="" x="224" y="0" dominant-baseline="central" text-anchor="middle">8</text></g></g></g><text x="336" y="884" font-size="16" text-anchor="middle" fill="#888888" font-family="sans-serif" >1-10</text><rect x ="0" y="1080" width="280" height="200" fill="#ffffff" stroke="#888888" stroke-width="1"/><path fill="#0088e0" d="M 292 1180 L 292 1160 L 312 1180 L 292 1200 z" /><g transform="translate(0,1080)"><g transform="translate(30,100) scale(1)"><g fill="none" stroke="#a0a0a0" stroke-width="1"><rect x="42" y="-14" width="28" height="28" rx="4" ry="4" /><rect x="98" y="-14" width="28" height="28" rx="4" ry="4" /><rect x="154" y="-14" width="28" height="28" rx="4" ry="4" /><g fill="#d0d0d0"><rect x="-14" y="-14" width="28" height="28" rx="4" ry="4" /></g><rect x="210" y="-14" width="28" height="28" rx="4" ry="4" /><path d="M 42 7 Q 28 7 14 7"  marker-end="url(#link_arrow)"/><path d="M 70 -7 Q 84 -7 98 -7"  marker-end="url(#link_arrow)"/><path d="M 98 7 Q 84 7 70 7"  marker-end="url(#link_arrow)"/><path d="M 126 -7 Q 140 -7 154 -7"  marker-end="url(#link_arrow)"/><path d="M 154 7 Q 140 7 126 7"  marker-end="url(#link_arrow)"/><path d="M 182 -7 Q 196 -7 210 -7"  marker-end="url(#link_arrow)"/><path d="M -8.6883 13.665 Q 112 79 232.688 13.665"  marker-end="url(#link_arrow)"/><path d="M 14 -7 Q 28 -7 42 -7"  marker-end="url(#link_arrow)"/><path d="M 210 7 Q 196 7 182 7"  marker-end="url(#link_arrow)"/><path d="M 232.688 -13.665 Q 112 -79 -8.6883 -13.665"  marker-end="url(#link_arrow)"/></g></g>
<g transform="translate(30,100) scale(1)"><g class="flash_g" fill="#ffffff" stroke="#ff8c00" stroke-width="2"><rect x="98" y="-14" width="28" height="28" rx="4" ry="4" /></g></g><g transform="translate(30,100) scale(1)"><g fill="#ffffff" stroke-width="0"><g stroke-width="1" stroke="#c0c0c0"><circle cx="56" cy="0" r="11" fill="#FFFFFF" opacity="1" /></g><g stroke-width="1" stroke="#c0c0c0"><circle cx="112" cy="0" r="11" fill="#FFFFFF" opacity="1" /></g><g stroke-width="1" stroke="#c0c0c0"><circle cx="168" cy="0" r="11" fill="#FFFFFF" opacity="1" /></g><g stroke-width="1" stroke="#c0c0c0"><circle cx="224" cy="0" r="11" fill="#FFFFFF" opacity="1" /></g></g><g font-size="14" font-family="sans-serif" fill="#888888"><text id="" x="56" y="0" dominant-baseline="central" text-anchor="middle">3</text><text id="" x="112" y="0" dominant-baseline="central" text-anchor="middle">5</text><text id="" x="168" y="0" dominant-baseline="central" text-anchor="middle">1</text><text id="" x="224" y="0" dominant-baseline="central" text-anchor="middle">8</text></g></g></g><text x="16" y="1100" font-size="16" text-anchor="middle" fill="#888888" font-family="sans-serif" >1-11</text><rect x ="320" y="1080" width="280" height="200" fill="#ffffff" stroke="#888888" stroke-width="1"/><path fill="#0088e0" d="M 612 1180 L 612 1160 L 632 1180 L 612 1200 z" /><g transform="translate(320,1080)"><g transform="translate(30,100) scale(1)"><g fill="none" stroke="#a0a0a0" stroke-width="1"><rect x="42" y="-14" width="28" height="28" rx="4" ry="4" /><rect x="98" y="-14" width="28" height="28" rx="4" ry="4" /><rect x="154" y="-14" width="28" height="28" rx="4" ry="4" /><g fill="#d0d0d0"><rect x="-14" y="-14" width="28" height="28" rx="4" ry="4" /></g><rect x="210" y="-14" width="28" height="28" rx="4" ry="4" /><path d="M 42 7 Q 28 7 14 7"  marker-end="url(#link_arrow)"/><path d="M 70 -7 Q 84 -7 98 -7"  marker-end="url(#link_arrow)"/><path d="M 98 7 Q 84 7 70 7"  marker-end="url(#link_arrow)"/><path d="M 126 -7 Q 140 -7 154 -7"  marker-end="url(#link_arrow)"/><path d="M 154 7 Q 140 7 126 7"  marker-end="url(#link_arrow)"/><path d="M 182 -7 Q 196 -7 210 -7"  marker-end="url(#link_arrow)"/><path d="M -8.6883 13.665 Q 112 79 232.688 13.665"  marker-end="url(#link_arrow)"/><path d="M 14 -7 Q 28 -7 42 -7"  marker-end="url(#link_arrow)"/><path d="M 210 7 Q 196 7 182 7"  marker-end="url(#link_arrow)"/><path d="M 232.688 -13.665 Q 112 -79 -8.6883 -13.665"  marker-end="url(#link_arrow)"/></g></g>
<g transform="translate(30,100) scale(1)"><g class="flash_g" fill="#ffffff" stroke="#ff8c00" stroke-width="2"><rect x="154" y="-14" width="28" height="28" rx="4" ry="4" /></g></g><g transform="translate(30,100) scale(1)"><g fill="#ffffff" stroke-width="0"><g stroke-width="1" stroke="#c0c0c0"><circle cx="56" cy="0" r="11" fill="#FFFFFF" opacity="1" /></g><g stroke-width="1" stroke="#c0c0c0"><circle cx="112" cy="0" r="11" fill="#FFFFFF" opacity="1" /></g><g stroke-width="1" stroke="#c0c0c0"><circle cx="168" cy="0" r="11" fill="#FFFFFF" opacity="1" /></g><g stroke-width="1" stroke="#c0c0c0"><circle cx="224" cy="0" r="11" fill="#FFFFFF" opacity="1" /></g></g><g font-size="14" font-family="sans-serif" fill="#888888"><text id="" x="56" y="0" dominant-baseline="central" text-anchor="middle">3</text><text id="" x="112" y="0" dominant-baseline="central" text-anchor="middle">5</text><text id="" x="168" y="0" dominant-baseline="central" text-anchor="middle">1</text><text id="" x="224" y="0" dominant-baseline="central" text-anchor="middle">8</text></g></g></g><text x="336" y="1100" font-size="16" text-anchor="middle" fill="#888888" font-family="sans-serif" >1-12</text><rect x ="0" y="1296" width="280" height="200" fill="#ffffff" stroke="#888888" stroke-width="1"/><path fill="#0088e0" d="M 292 1396 L 292 1376 L 312 1396 L 292 1416 z" /><g transform="translate(0,1296)"><g transform="translate(30,100) scale(1)"><g fill="none" stroke="#a0a0a0" stroke-width="1"><rect x="42" y="-14" width="28" height="28" rx="4" ry="4" /><rect x="98" y="-14" width="28" height="28" rx="4" ry="4" /><rect x="154" y="-14" width="28" height="28" rx="4" ry="4" /><g fill="#d0d0d0"><rect x="-14" y="-14" width="28" height="28" rx="4" ry="4" /></g><rect x="210" y="-14" width="28" height="28" rx="4" ry="4" /><path d="M 42 7 Q 28 7 14 7"  marker-end="url(#link_arrow)"/><path d="M 70 -7 Q 84 -7 98 -7"  marker-end="url(#link_arrow)"/><path d="M 98 7 Q 84 7 70 7"  marker-end="url(#link_arrow)"/><path d="M 121.899 2.89949 Q 168 49 214.101 2.89949"  marker-end="url(#link_arrow)"/><path d="M 154 7 Q 140 7 126 7"  marker-end="url(#link_arrow)"/><path d="M 182 -7 Q 196 -7 210 -7"  marker-end="url(#link_arrow)"/><path d="M -8.6883 13.665 Q 112 79 232.688 13.665"  marker-end="url(#link_arrow)"/><path d="M 14 -7 Q 28 -7 42 -7"  marker-end="url(#link_arrow)"/><path d="M 214.101 -2.89949 Q 168 -49 121.899 -2.89949"  marker-end="url(#link_arrow)"/><path d="M 232.688 -13.665 Q 112 -79 -8.6883 -13.665"  marker-end="url(#link_arrow)"/></g></g>
<g transform="translate(30,100) scale(1)"><g class="flash_g" fill="#da70d6" stroke="#da70d6" stroke-width="1"><rect x="98" y="-14" width="28" height="28" rx="4" ry="4" /></g><g fill="none" stroke="#a0a0a0" stroke-width="1"><rect x="98" y="-14" width="28" height="28" rx="4" ry="4" /></g></g><g transform="translate(30,100) scale(1)"><g class="flash_g" fill="#da70d6" stroke="#da70d6" stroke-width="1"><rect x="210" y="-14" width="28" height="28" rx="4" ry="4" /></g><g fill="none" stroke="#a0a0a0" stroke-width="1"><rect x="210" y="-14" width="28" height="28" rx="4" ry="4" /></g></g><g transform="translate(30,100) scale(1)"><g fill="#ffffff" stroke-width="0"><g stroke-width="1" stroke="#c0c0c0"><circle cx="56" cy="0" r="11" fill="#FFFFFF" opacity="1" /></g><g stroke-width="1" stroke="#c0c0c0"><circle cx="112" cy="0" r="11" fill="#FFFFFF" opacity="1" /></g><g stroke-width="1" stroke="#c0c0c0"><circle cx="224" cy="0" r="11" fill="#FFFFFF" opacity="1" /></g></g><g font-size="14" font-family="sans-serif" fill="#888888"><text id="" x="56" y="0" dominant-baseline="central" text-anchor="middle">3</text><text id="" x="112" y="0" dominant-baseline="central" text-anchor="middle">5</text><text id="" x="224" y="0" dominant-baseline="central" text-anchor="middle">8</text></g></g></g><text x="16" y="1316" font-size="16" text-anchor="middle" fill="#888888" font-family="sans-serif" >1-13</text><text x="140" y="1480" font-size="9" text-anchor="middle" font-family="SimSun, 宋体, serif">修改指针，删除节点</text><rect x ="320" y="1296" width="280" height="200" fill="#ffffff" stroke="#888888" stroke-width="1"/><g transform="translate(320,1296)"><g transform="translate(30,100) scale(1)"><g fill="none" stroke="#a0a0a0" stroke-width="1"><rect x="42" y="-14" width="28" height="28" rx="4" ry="4" /><rect x="98" y="-14" width="28" height="28" rx="4" ry="4" /><rect x="154" y="-14" width="28" height="28" rx="4" ry="4" /><g fill="#d0d0d0"><rect x="-14" y="-14" width="28" height="28" rx="4" ry="4" /></g><rect x="154" y="-14" width="28" height="28" rx="4" ry="4" /><path d="M 42 7 Q 28 7 14 7"  marker-end="url(#link_arrow)"/><path d="M 70 -7 Q 84 -7 98 -7"  marker-end="url(#link_arrow)"/><path d="M 98 7 Q 84 7 70 7"  marker-end="url(#link_arrow)"/><path d="M 126 -7 Q 140 -7 154 -7"  marker-end="url(#link_arrow)"/><path d="M 154 7 Q 140 7 126 7"  marker-end="url(#link_arrow)"/><path d="M -nan -nan Q -nan -nan -nan -nan"  marker-end="url(#link_arrow)"/><path d="M -8.74532 13.7693 Q 84 65 176.745 13.7693"  marker-end="url(#link_arrow)"/><path d="M 14 -7 Q 28 -7 42 -7"  marker-end="url(#link_arrow)"/><path d="M 154 7 Q 140 7 126 7"  marker-end="url(#link_arrow)"/><path d="M 176.745 -13.7693 Q 84 -65 -8.74532 -13.7693"  marker-end="url(#link_arrow)"/></g></g>
<g transform="translate(30,100) scale(1)"><g fill="#ffffff" stroke-width="0"><g stroke-width="1" stroke="#c0c0c0"><circle cx="56" cy="0" r="11" fill="#FFFFFF" opacity="1" /></g><g stroke-width="1" stroke="#c0c0c0"><circle cx="112" cy="0" r="11" fill="#FFFFFF" opacity="1" /></g><g stroke-width="1" stroke="#c0c0c0"><circle cx="168" cy="0" r="11" fill="#FFFFFF" opacity="1" /></g></g><g font-size="14" font-family="sans-serif" fill="#888888"><text id="" x="56" y="0" dominant-baseline="central" text-anchor="middle">3</text><text id="" x="112" y="0" dominant-baseline="central" text-anchor="middle">5</text><text id="" x="168" y="0" dominant-baseline="central" text-anchor="middle">8</text></g></g></g><text x="336" y="1316" font-size="16" text-anchor="middle" fill="#888888" font-family="sans-serif" >1-14</text></svg>

