<?xml version="1.0" encoding="UTF-8" standalone="no"?>
<svg
xmlns:svg="http://www.w3.org/2000/svg"
xmlns="http://www.w3.org/2000/svg"
xmlns:xlink="http://www.w3.org/1999/xlink"
width ="600"
height ="472"
viewBox ="0 0 600 472"
>
<defs><polygon points="0,0 6,8, 0,16 20,8" id="m_tmpl2"/><marker id="token_arrow"  markerUnits="userSpaceOnUse" markerWidth="20" markerHeight="16" viewBox="0 0 20 16" refX="14" refY="8" orient="auto"><use xlink:href="#m_tmpl2" fill="#60a0ff"/></marker></defs><defs><polygon points="0,0 0,4 0,8 12,4" id="m_tmpl3"/><marker id="link_arrow" markerUnits="strokeWidth" markerWidth="12" markerHeight="8" viewBox="0 0 12 8" refX="12" refY="4" orient="auto"><use xlink:href="#m_tmpl3" fill="#888888"/></marker></defs><rect x ="0" y="0" width="560" height="220" fill="#ffffff" stroke="#888888" stroke-width="1"/><path fill="#0088e0" d="M 572 110 L 572 90 L 592 110 L 572 130 z" /><g transform="translate(0,0)"><g transform="translate(0,0) scale(1)"><g fill="#ffffff" stroke="#a0a0a0" stroke-width="1"><line x1="50" y1="50" x2="120" y2="30" stroke-linecap="round"/><line x1="50" y1="50" x2="100" y2="100" stroke-linecap="round"/><line x1="50" y1="50" x2="80" y2="170" stroke-linecap="round"/><line x1="50" y1="50" x2="30" y2="140" stroke-linecap="round"/><line x1="120" y1="30" x2="50" y2="50" stroke-linecap="round"/><line x1="120" y1="30" x2="100" y2="100" stroke-linecap="round"/><line x1="120" y1="30" x2="170" y2="100" stroke-linecap="round"/><line x1="100" y1="100" x2="50" y2="50" stroke-linecap="round"/><line x1="100" y1="100" x2="120" y2="30" stroke-linecap="round"/><line x1="100" y1="100" x2="80" y2="170" stroke-linecap="round"/><line x1="100" y1="100" x2="170" y2="100" stroke-linecap="round"/><line x1="100" y1="100" x2="220" y2="170" stroke-linecap="round"/><line x1="30" y1="140" x2="50" y2="50" stroke-linecap="round"/><line x1="30" y1="140" x2="80" y2="170" stroke-linecap="round"/><line x1="80" y1="170" x2="50" y2="50" stroke-linecap="round"/><line x1="80" y1="170" x2="100" y2="100" stroke-linecap="round"/><line x1="80" y1="170" x2="30" y2="140" stroke-linecap="round"/><line x1="80" y1="170" x2="220" y2="170" stroke-linecap="round"/><line x1="170" y1="100" x2="120" y2="30" stroke-linecap="round"/><line x1="170" y1="100" x2="100" y2="100" stroke-linecap="round"/><line x1="170" y1="100" x2="220" y2="170" stroke-linecap="round"/><line x1="220" y1="170" x2="100" y2="100" stroke-linecap="round"/><line x1="220" y1="170" x2="80" y2="170" stroke-linecap="round"/><line x1="220" y1="170" x2="170" y2="100" stroke-linecap="round"/><circle cx="50" cy="50" r="14" /><circle cx="120" cy="30" r="14" /><circle cx="100" cy="100" r="14" /><circle cx="30" cy="140" r="14" /><circle cx="80" cy="170" r="14" /><circle cx="170" cy="100" r="14" /><circle cx="220" cy="170" r="14" /><rect x="79" y="34" width="12" height="12" rx="2" ry="2" /><rect x="69" y="69" width="12" height="12" rx="2" ry="2" /><rect x="59" y="104" width="12" height="12" rx="2" ry="2" /><rect x="34" y="89" width="12" height="12" rx="2" ry="2" /><rect x="79" y="34" width="12" height="12" rx="2" ry="2" /><rect x="104" y="59" width="12" height="12" rx="2" ry="2" /><rect x="139" y="59" width="12" height="12" rx="2" ry="2" /><rect x="69" y="69" width="12" height="12" rx="2" ry="2" /><rect x="104" y="59" width="12" height="12" rx="2" ry="2" /><rect x="84" y="129" width="12" height="12" rx="2" ry="2" /><rect x="129" y="94" width="12" height="12" rx="2" ry="2" /><rect x="154" y="129" width="12" height="12" rx="2" ry="2" /><rect x="34" y="89" width="12" height="12" rx="2" ry="2" /><rect x="49" y="149" width="12" height="12" rx="2" ry="2" /><rect x="59" y="104" width="12" height="12" rx="2" ry="2" /><rect x="84" y="129" width="12" height="12" rx="2" ry="2" /><rect x="49" y="149" width="12" height="12" rx="2" ry="2" /><rect x="144" y="164" width="12" height="12" rx="2" ry="2" /><rect x="139" y="59" width="12" height="12" rx="2" ry="2" /><rect x="129" y="94" width="12" height="12" rx="2" ry="2" /><rect x="189" y="129" width="12" height="12" rx="2" ry="2" /><rect x="154" y="129" width="12" height="12" rx="2" ry="2" /><rect x="144" y="164" width="12" height="12" rx="2" ry="2" /><rect x="189" y="129" width="12" height="12" rx="2" ry="2" /></g><g font-size="9" font-family="Verdana" fill="#888888"><text id="" x="50" y="24" dominant-baseline="central" text-anchor="middle">0</text><text id="" x="120" y="4" dominant-baseline="central" text-anchor="middle">1</text><text id="" x="100" y="74" dominant-baseline="central" text-anchor="middle">2</text><text id="" x="30" y="114" dominant-baseline="central" text-anchor="middle">3</text><text id="" x="80" y="144" dominant-baseline="central" text-anchor="middle">4</text><text id="" x="170" y="74" dominant-baseline="central" text-anchor="middle">5</text><text id="" x="220" y="144" dominant-baseline="central" text-anchor="middle">6</text></g></g><g transform="translate(0,0) scale(1)"><g font-size="11" font-family="sans-serif" fill="#888888"><text id="" x="85" y="40" dominant-baseline="central" text-anchor="middle">3</text><text id="" x="75" y="75" dominant-baseline="central" text-anchor="middle">1</text><text id="" x="65" y="110" dominant-baseline="central" text-anchor="middle">11</text><text id="" x="40" y="95" dominant-baseline="central" text-anchor="middle">9</text><text id="" x="85" y="40" dominant-baseline="central" text-anchor="middle">3</text><text id="" x="110" y="65" dominant-baseline="central" text-anchor="middle">1</text><text id="" x="145" y="65" dominant-baseline="central" text-anchor="middle">4</text><text id="" x="75" y="75" dominant-baseline="central" text-anchor="middle">1</text><text id="" x="110" y="65" dominant-baseline="central" text-anchor="middle">1</text><text id="" x="90" y="135" dominant-baseline="central" text-anchor="middle">2</text><text id="" x="135" y="100" dominant-baseline="central" text-anchor="middle">8</text><text id="" x="160" y="135" dominant-baseline="central" text-anchor="middle">7</text><text id="" x="40" y="95" dominant-baseline="central" text-anchor="middle">9</text><text id="" x="55" y="155" dominant-baseline="central" text-anchor="middle">2</text><text id="" x="65" y="110" dominant-baseline="central" text-anchor="middle">11</text><text id="" x="90" y="135" dominant-baseline="central" text-anchor="middle">2</text><text id="" x="55" y="155" dominant-baseline="central" text-anchor="middle">2</text><text id="" x="150" y="170" dominant-baseline="central" text-anchor="middle">3</text><text id="" x="145" y="65" dominant-baseline="central" text-anchor="middle">4</text><text id="" x="135" y="100" dominant-baseline="central" text-anchor="middle">8</text><text id="" x="195" y="135" dominant-baseline="central" text-anchor="middle">1</text><text id="" x="160" y="135" dominant-baseline="central" text-anchor="middle">7</text><text id="" x="150" y="170" dominant-baseline="central" text-anchor="middle">3</text><text id="" x="195" y="135" dominant-baseline="central" text-anchor="middle">1</text></g></g><g transform="translate(240,80) scale(1)"><g stroke="#FFCCCC" stroke-width="0" fill="#FFCCCC"><circle cx="42" cy="0" r="16" /></g><g stroke="#FFE5CC" stroke-width="0" fill="#FFE5CC"><circle cx="84" cy="0" r="16" /></g><g stroke="#FFFFCC" stroke-width="0" fill="#FFFFCC"><circle cx="126" cy="0" r="16" /></g><g stroke="#E5FFCC" stroke-width="0" fill="#E5FFCC"><circle cx="168" cy="0" r="16" /></g><g stroke="#CCFFCC" stroke-width="0" fill="#CCFFCC"><circle cx="210" cy="0" r="16" /></g><g stroke="#CCFFE5" stroke-width="0" fill="#CCFFE5"><circle cx="252" cy="0" r="16" /></g><g stroke="#CCFFFF" stroke-width="0" fill="#CCFFFF"><circle cx="294" cy="0" r="16" /></g><g stroke="#FFCCCC" stroke-width="32" fill="#FFCCCC"><line x1="42" y1="0" x2="42" y2="0" stroke-linecap="round"/></g><g stroke="#FFE5CC" stroke-width="32" fill="#FFE5CC"><line x1="84" y1="0" x2="84" y2="0" stroke-linecap="round"/></g><g stroke="#FFFFCC" stroke-width="32" fill="#FFFFCC"><line x1="126" y1="0" x2="126" y2="0" stroke-linecap="round"/></g><g stroke="#E5FFCC" stroke-width="32" fill="#E5FFCC"><line x1="168" y1="0" x2="168" y2="0" stroke-linecap="round"/></g><g stroke="#CCFFCC" stroke-width="32" fill="#CCFFCC"><line x1="210" y1="0" x2="210" y2="0" stroke-linecap="round"/></g><g stroke="#CCFFE5" stroke-width="32" fill="#CCFFE5"><line x1="252" y1="0" x2="252" y2="0" stroke-linecap="round"/></g><g stroke="#CCFFFF" stroke-width="32" fill="#CCFFFF"><line x1="294" y1="0" x2="294" y2="0" stroke-linecap="round"/></g></g><defs><polygon points="0,0 6,6 0,12 18,6" id="m_tmpl2"/><marker id="m_o1" markerUnits="strokeWidth" markerWidth="10" markerHeight="10" viewBox="0 0 18 12" refX="18" refY="6" orient="auto"><use xlink:href="#m_tmpl2" fill="#a0a0a0"/></marker></defs><g transform="translate(240,80) scale(1)"><g fill="#ffffff" stroke="#a0a0a0" stroke-width="1"><circle cx="42" cy="0" r="10" /><circle cx="84" cy="0" r="10" /><circle cx="126" cy="0" r="10" /><circle cx="168" cy="0" r="10" /><circle cx="210" cy="0" r="10" /><circle cx="252" cy="0" r="10" /><circle cx="294" cy="0" r="10" /></g><g font-size="9" font-family="Verdana" fill="#888888"><text x="42" y="-16" dominant-baseline="central" text-anchor="middle">0</text><text x="84" y="-16" dominant-baseline="central" text-anchor="middle">1</text><text x="126" y="-16" dominant-baseline="central" text-anchor="middle">2</text><text x="168" y="-16" dominant-baseline="central" text-anchor="middle">3</text><text x="210" y="-16" dominant-baseline="central" text-anchor="middle">4</text><text x="252" y="-16" dominant-baseline="central" text-anchor="middle">5</text><text x="294" y="-16" dominant-baseline="central" text-anchor="middle">6</text></g></g></g><text x="16" y="20" font-size="16" text-anchor="middle" fill="#888888" font-family="sans-serif" >1-1</text><text x="280" y="204" font-size="9" text-anchor="middle" font-family="SimSun, 宋体, serif">生成与节点对应的不相交集合</text><rect x ="0" y="236" width="560" height="220" fill="#ffffff" stroke="#888888" stroke-width="1"/><g transform="translate(0,236)"><g transform="translate(0,0) scale(1)"><g fill="#ffffff" stroke="#a0a0a0" stroke-width="1"><line x1="50" y1="50" x2="120" y2="30" stroke-linecap="round"/><line x1="50" y1="50" x2="100" y2="100" stroke-linecap="round"/><line x1="50" y1="50" x2="80" y2="170" stroke-linecap="round"/><line x1="50" y1="50" x2="30" y2="140" stroke-linecap="round"/><line x1="120" y1="30" x2="50" y2="50" stroke-linecap="round"/><line x1="120" y1="30" x2="100" y2="100" stroke-linecap="round"/><line x1="120" y1="30" x2="170" y2="100" stroke-linecap="round"/><line x1="100" y1="100" x2="50" y2="50" stroke-linecap="round"/><line x1="100" y1="100" x2="120" y2="30" stroke-linecap="round"/><line x1="100" y1="100" x2="80" y2="170" stroke-linecap="round"/><line x1="100" y1="100" x2="170" y2="100" stroke-linecap="round"/><line x1="100" y1="100" x2="220" y2="170" stroke-linecap="round"/><line x1="30" y1="140" x2="50" y2="50" stroke-linecap="round"/><line x1="30" y1="140" x2="80" y2="170" stroke-linecap="round"/><line x1="80" y1="170" x2="50" y2="50" stroke-linecap="round"/><line x1="80" y1="170" x2="100" y2="100" stroke-linecap="round"/><line x1="80" y1="170" x2="30" y2="140" stroke-linecap="round"/><line x1="80" y1="170" x2="220" y2="170" stroke-linecap="round"/><line x1="170" y1="100" x2="120" y2="30" stroke-linecap="round"/><line x1="170" y1="100" x2="100" y2="100" stroke-linecap="round"/><line x1="170" y1="100" x2="220" y2="170" stroke-linecap="round"/><line x1="220" y1="170" x2="100" y2="100" stroke-linecap="round"/><line x1="220" y1="170" x2="80" y2="170" stroke-linecap="round"/><line x1="220" y1="170" x2="170" y2="100" stroke-linecap="round"/><circle cx="50" cy="50" r="14" /><circle cx="120" cy="30" r="14" /><circle cx="100" cy="100" r="14" /><circle cx="30" cy="140" r="14" /><circle cx="80" cy="170" r="14" /><circle cx="170" cy="100" r="14" /><circle cx="220" cy="170" r="14" /><rect x="79" y="34" width="12" height="12" rx="2" ry="2" /><rect x="69" y="69" width="12" height="12" rx="2" ry="2" /><rect x="59" y="104" width="12" height="12" rx="2" ry="2" /><rect x="34" y="89" width="12" height="12" rx="2" ry="2" /><rect x="79" y="34" width="12" height="12" rx="2" ry="2" /><rect x="104" y="59" width="12" height="12" rx="2" ry="2" /><rect x="139" y="59" width="12" height="12" rx="2" ry="2" /><rect x="69" y="69" width="12" height="12" rx="2" ry="2" /><rect x="104" y="59" width="12" height="12" rx="2" ry="2" /><rect x="84" y="129" width="12" height="12" rx="2" ry="2" /><rect x="129" y="94" width="12" height="12" rx="2" ry="2" /><rect x="154" y="129" width="12" height="12" rx="2" ry="2" /><rect x="34" y="89" width="12" height="12" rx="2" ry="2" /><rect x="49" y="149" width="12" height="12" rx="2" ry="2" /><rect x="59" y="104" width="12" height="12" rx="2" ry="2" /><rect x="84" y="129" width="12" height="12" rx="2" ry="2" /><rect x="49" y="149" width="12" height="12" rx="2" ry="2" /><rect x="144" y="164" width="12" height="12" rx="2" ry="2" /><rect x="139" y="59" width="12" height="12" rx="2" ry="2" /><rect x="129" y="94" width="12" height="12" rx="2" ry="2" /><rect x="189" y="129" width="12" height="12" rx="2" ry="2" /><rect x="154" y="129" width="12" height="12" rx="2" ry="2" /><rect x="144" y="164" width="12" height="12" rx="2" ry="2" /><rect x="189" y="129" width="12" height="12" rx="2" ry="2" /></g><g font-size="9" font-family="Verdana" fill="#888888"><text id="" x="50" y="24" dominant-baseline="central" text-anchor="middle">0</text><text id="" x="120" y="4" dominant-baseline="central" text-anchor="middle">1</text><text id="" x="100" y="74" dominant-baseline="central" text-anchor="middle">2</text><text id="" x="30" y="114" dominant-baseline="central" text-anchor="middle">3</text><text id="" x="80" y="144" dominant-baseline="central" text-anchor="middle">4</text><text id="" x="170" y="74" dominant-baseline="central" text-anchor="middle">5</text><text id="" x="220" y="144" dominant-baseline="central" text-anchor="middle">6</text></g></g><g transform="translate(0,0) scale(1)"><g class="flash_g" fill="#ff8c00" stroke="#a0a0a0" stroke-width="1"><rect x="79" y="34" width="12" height="12" rx="2" ry="2" /><rect x="69" y="69" width="12" height="12" rx="2" ry="2" /><rect x="59" y="104" width="12" height="12" rx="2" ry="2" /><rect x="34" y="89" width="12" height="12" rx="2" ry="2" /><rect x="79" y="34" width="12" height="12" rx="2" ry="2" /><rect x="104" y="59" width="12" height="12" rx="2" ry="2" /><rect x="139" y="59" width="12" height="12" rx="2" ry="2" /><rect x="69" y="69" width="12" height="12" rx="2" ry="2" /><rect x="104" y="59" width="12" height="12" rx="2" ry="2" /><rect x="84" y="129" width="12" height="12" rx="2" ry="2" /><rect x="129" y="94" width="12" height="12" rx="2" ry="2" /><rect x="154" y="129" width="12" height="12" rx="2" ry="2" /><rect x="34" y="89" width="12" height="12" rx="2" ry="2" /><rect x="49" y="149" width="12" height="12" rx="2" ry="2" /><rect x="59" y="104" width="12" height="12" rx="2" ry="2" /><rect x="84" y="129" width="12" height="12" rx="2" ry="2" /><rect x="49" y="149" width="12" height="12" rx="2" ry="2" /><rect x="144" y="164" width="12" height="12" rx="2" ry="2" /><rect x="139" y="59" width="12" height="12" rx="2" ry="2" /><rect x="129" y="94" width="12" height="12" rx="2" ry="2" /><rect x="189" y="129" width="12" height="12" rx="2" ry="2" /><rect x="154" y="129" width="12" height="12" rx="2" ry="2" /><rect x="144" y="164" width="12" height="12" rx="2" ry="2" /><rect x="189" y="129" width="12" height="12" rx="2" ry="2" /></g></g><g transform="translate(0,0) scale(1)"><g font-size="11" font-family="sans-serif" fill="#888888"><text id="" x="85" y="40" dominant-baseline="central" text-anchor="middle">3</text><text id="" x="75" y="75" dominant-baseline="central" text-anchor="middle">1</text><text id="" x="65" y="110" dominant-baseline="central" text-anchor="middle">11</text><text id="" x="40" y="95" dominant-baseline="central" text-anchor="middle">9</text><text id="" x="85" y="40" dominant-baseline="central" text-anchor="middle">3</text><text id="" x="110" y="65" dominant-baseline="central" text-anchor="middle">1</text><text id="" x="145" y="65" dominant-baseline="central" text-anchor="middle">4</text><text id="" x="75" y="75" dominant-baseline="central" text-anchor="middle">1</text><text id="" x="110" y="65" dominant-baseline="central" text-anchor="middle">1</text><text id="" x="90" y="135" dominant-baseline="central" text-anchor="middle">2</text><text id="" x="135" y="100" dominant-baseline="central" text-anchor="middle">8</text><text id="" x="160" y="135" dominant-baseline="central" text-anchor="middle">7</text><text id="" x="40" y="95" dominant-baseline="central" text-anchor="middle">9</text><text id="" x="55" y="155" dominant-baseline="central" text-anchor="middle">2</text><text id="" x="65" y="110" dominant-baseline="central" text-anchor="middle">11</text><text id="" x="90" y="135" dominant-baseline="central" text-anchor="middle">2</text><text id="" x="55" y="155" dominant-baseline="central" text-anchor="middle">2</text><text id="" x="150" y="170" dominant-baseline="central" text-anchor="middle">3</text><text id="" x="145" y="65" dominant-baseline="central" text-anchor="middle">4</text><text id="" x="135" y="100" dominant-baseline="central" text-anchor="middle">8</text><text id="" x="195" y="135" dominant-baseline="central" text-anchor="middle">1</text><text id="" x="160" y="135" dominant-baseline="central" text-anchor="middle">7</text><text id="" x="150" y="170" dominant-baseline="central" text-anchor="middle">3</text><text id="" x="195" y="135" dominant-baseline="central" text-anchor="middle">1</text></g></g><g transform="translate(240,80) scale(1)"><g stroke="#FFCCCC" stroke-width="0" fill="#FFCCCC"><circle cx="42" cy="0" r="16" /></g><g stroke="#FFE5CC" stroke-width="0" fill="#FFE5CC"><circle cx="84" cy="0" r="16" /></g><g stroke="#FFFFCC" stroke-width="0" fill="#FFFFCC"><circle cx="126" cy="0" r="16" /></g><g stroke="#E5FFCC" stroke-width="0" fill="#E5FFCC"><circle cx="168" cy="0" r="16" /></g><g stroke="#CCFFCC" stroke-width="0" fill="#CCFFCC"><circle cx="210" cy="0" r="16" /></g><g stroke="#CCFFE5" stroke-width="0" fill="#CCFFE5"><circle cx="252" cy="0" r="16" /></g><g stroke="#CCFFFF" stroke-width="0" fill="#CCFFFF"><circle cx="294" cy="0" r="16" /></g><g stroke="#FFCCCC" stroke-width="32" fill="#FFCCCC"><line x1="42" y1="0" x2="42" y2="0" stroke-linecap="round"/></g><g stroke="#FFE5CC" stroke-width="32" fill="#FFE5CC"><line x1="84" y1="0" x2="84" y2="0" stroke-linecap="round"/></g><g stroke="#FFFFCC" stroke-width="32" fill="#FFFFCC"><line x1="126" y1="0" x2="126" y2="0" stroke-linecap="round"/></g><g stroke="#E5FFCC" stroke-width="32" fill="#E5FFCC"><line x1="168" y1="0" x2="168" y2="0" stroke-linecap="round"/></g><g stroke="#CCFFCC" stroke-width="32" fill="#CCFFCC"><line x1="210" y1="0" x2="210" y2="0" stroke-linecap="round"/></g><g stroke="#CCFFE5" stroke-width="32" fill="#CCFFE5"><line x1="252" y1="0" x2="252" y2="0" stroke-linecap="round"/></g><g stroke="#CCFFFF" stroke-width="32" fill="#CCFFFF"><line x1="294" y1="0" x2="294" y2="0" stroke-linecap="round"/></g></g><defs><polygon points="0,0 6,6 0,12 18,6" id="m_tmpl2"/><marker id="m_o1" markerUnits="strokeWidth" markerWidth="10" markerHeight="10" viewBox="0 0 18 12" refX="18" refY="6" orient="auto"><use xlink:href="#m_tmpl2" fill="#a0a0a0"/></marker></defs><g transform="translate(240,80) scale(1)"><g fill="#ffffff" stroke="#a0a0a0" stroke-width="1"><circle cx="42" cy="0" r="10" /><circle cx="84" cy="0" r="10" /><circle cx="126" cy="0" r="10" /><circle cx="168" cy="0" r="10" /><circle cx="210" cy="0" r="10" /><circle cx="252" cy="0" r="10" /><circle cx="294" cy="0" r="10" /></g><g font-size="9" font-family="Verdana" fill="#888888"><text x="42" y="-16" dominant-baseline="central" text-anchor="middle">0</text><text x="84" y="-16" dominant-baseline="central" text-anchor="middle">1</text><text x="126" y="-16" dominant-baseline="central" text-anchor="middle">2</text><text x="168" y="-16" dominant-baseline="central" text-anchor="middle">3</text><text x="210" y="-16" dominant-baseline="central" text-anchor="middle">4</text><text x="252" y="-16" dominant-baseline="central" text-anchor="middle">5</text><text x="294" y="-16" dominant-baseline="central" text-anchor="middle">6</text></g></g></g><text x="16" y="256" font-size="16" text-anchor="middle" fill="#888888" font-family="sans-serif" >1-2</text><text x="280" y="440" font-size="9" text-anchor="middle" font-family="SimSun, 宋体, serif">按权重的升序对边排序</text></svg>

