<?xml version="1.0" encoding="UTF-8" standalone="no"?>
<svg
xmlns:svg="http://www.w3.org/2000/svg"
xmlns="http://www.w3.org/2000/svg"
xmlns:xlink="http://www.w3.org/1999/xlink"
width ="640"
height ="316"
viewBox ="0 0 640 316"
>
<defs><polygon points="0,0 6,8, 0,16 20,8" id="m_tmpl2"/><marker id="token_arrow"  markerUnits="userSpaceOnUse" markerWidth="20" markerHeight="16" viewBox="0 0 20 16" refX="14" refY="8" orient="auto"><use xlink:href="#m_tmpl2" fill="#60a0ff"/></marker></defs><defs><polygon points="0,0 0,4 0,8 12,4" id="m_tmpl3"/><marker id="link_arrow" markerUnits="strokeWidth" markerWidth="12" markerHeight="8" viewBox="0 0 12 8" refX="12" refY="4" orient="auto"><use xlink:href="#m_tmpl3" fill="#888888"/></marker></defs><rect x ="0" y="0" width="280" height="300" fill="#ffffff" stroke="#888888" stroke-width="1"/><g transform="translate(0,0)"><g transform="translate(20,60) scale(0.8)"><g stroke="#c8e8ff" stroke-width="0" fill="#c8e8ff"><rect x="-22" y="-22" width="44" height="44" /><rect x="10" y="-22" width="44" height="44" /><rect x="42" y="-22" width="44" height="44" /><rect x="74" y="-22" width="44" height="44" /><rect x="106" y="-22" width="44" height="44" /></g><g stroke="#c8e8ff" stroke-width="44.8" fill="#c8e8ff"></g></g><g transform="translate(20,60) scale(0.8)"><g fill="#ffffff" stroke="#a0a0a0" stroke-width="1"><rect x="-14" y="-14" width="28" height="28" rx="4" ry="4" /><rect x="18" y="-14" width="28" height="28" rx="4" ry="4" /><rect x="50" y="-14" width="28" height="28" rx="4" ry="4" /><rect x="82" y="-14" width="28" height="28" rx="4" ry="4" /><rect x="114" y="-14" width="28" height="28" rx="4" ry="4" /><rect x="146" y="-14" width="28" height="28" rx="4" ry="4" /><rect x="178" y="-14" width="28" height="28" rx="4" ry="4" /><rect x="210" y="-14" width="28" height="28" rx="4" ry="4" /><rect x="242" y="-14" width="28" height="28" rx="4" ry="4" /><rect x="274" y="-14" width="28" height="28" rx="4" ry="4" /><rect x="-14" y="43" width="28" height="28" rx="4" ry="4" /><rect x="18" y="43" width="28" height="28" rx="4" ry="4" /><rect x="50" y="43" width="28" height="28" rx="4" ry="4" /><rect x="82" y="43" width="28" height="28" rx="4" ry="4" /><rect x="114" y="43" width="28" height="28" rx="4" ry="4" /><rect x="146" y="43" width="28" height="28" rx="4" ry="4" /><rect x="178" y="43" width="28" height="28" rx="4" ry="4" /><rect x="210" y="43" width="28" height="28" rx="4" ry="4" /><rect x="242" y="43" width="28" height="28" rx="4" ry="4" /><rect x="274" y="43" width="28" height="28" rx="4" ry="4" /><rect x="-14" y="100" width="28" height="28" rx="4" ry="4" /><rect x="18" y="100" width="28" height="28" rx="4" ry="4" /><rect x="50" y="100" width="28" height="28" rx="4" ry="4" /><rect x="82" y="100" width="28" height="28" rx="4" ry="4" /><rect x="114" y="100" width="28" height="28" rx="4" ry="4" /><rect x="146" y="100" width="28" height="28" rx="4" ry="4" /><rect x="178" y="100" width="28" height="28" rx="4" ry="4" /><rect x="210" y="100" width="28" height="28" rx="4" ry="4" /><rect x="242" y="100" width="28" height="28" rx="4" ry="4" /><rect x="274" y="100" width="28" height="28" rx="4" ry="4" /><rect x="-14" y="157" width="28" height="28" rx="4" ry="4" /><rect x="18" y="157" width="28" height="28" rx="4" ry="4" /><rect x="50" y="157" width="28" height="28" rx="4" ry="4" /><rect x="82" y="157" width="28" height="28" rx="4" ry="4" /><rect x="114" y="157" width="28" height="28" rx="4" ry="4" /><rect x="146" y="157" width="28" height="28" rx="4" ry="4" /><rect x="178" y="157" width="28" height="28" rx="4" ry="4" /><rect x="210" y="157" width="28" height="28" rx="4" ry="4" /><rect x="242" y="157" width="28" height="28" rx="4" ry="4" /><rect x="274" y="157" width="28" height="28" rx="4" ry="4" /><rect x="-14" y="214" width="28" height="28" rx="4" ry="4" /><rect x="18" y="214" width="28" height="28" rx="4" ry="4" /><rect x="50" y="214" width="28" height="28" rx="4" ry="4" /><rect x="82" y="214" width="28" height="28" rx="4" ry="4" /><rect x="114" y="214" width="28" height="28" rx="4" ry="4" /><rect x="146" y="214" width="28" height="28" rx="4" ry="4" /><rect x="178" y="214" width="28" height="28" rx="4" ry="4" /><rect x="210" y="214" width="28" height="28" rx="4" ry="4" /><rect x="242" y="214" width="28" height="28" rx="4" ry="4" /><rect x="274" y="214" width="28" height="28" rx="4" ry="4" /></g><g font-size="9" font-family="Verdana" fill="#888888"><text id="" x="0" y="-22" dominant-baseline="central" text-anchor="middle">0</text><text id="" x="32" y="-22" dominant-baseline="central" text-anchor="middle">1</text><text id="" x="64" y="-22" dominant-baseline="central" text-anchor="middle">2</text><text id="" x="96" y="-22" dominant-baseline="central" text-anchor="middle">3</text><text id="" x="128" y="-22" dominant-baseline="central" text-anchor="middle">4</text><text id="" x="160" y="-22" dominant-baseline="central" text-anchor="middle">5</text><text id="" x="192" y="-22" dominant-baseline="central" text-anchor="middle">6</text><text id="" x="224" y="-22" dominant-baseline="central" text-anchor="middle">7</text><text id="" x="256" y="-22" dominant-baseline="central" text-anchor="middle">8</text><text id="" x="288" y="-22" dominant-baseline="central" text-anchor="middle">9</text><text id="" x="0" y="34" dominant-baseline="central" text-anchor="middle">10</text><text id="" x="32" y="34" dominant-baseline="central" text-anchor="middle">11</text><text id="" x="64" y="34" dominant-baseline="central" text-anchor="middle">12</text><text id="" x="96" y="34" dominant-baseline="central" text-anchor="middle">13</text><text id="" x="128" y="34" dominant-baseline="central" text-anchor="middle">14</text><text id="" x="160" y="34" dominant-baseline="central" text-anchor="middle">15</text><text id="" x="192" y="34" dominant-baseline="central" text-anchor="middle">16</text><text id="" x="224" y="34" dominant-baseline="central" text-anchor="middle">17</text><text id="" x="256" y="34" dominant-baseline="central" text-anchor="middle">18</text><text id="" x="288" y="34" dominant-baseline="central" text-anchor="middle">19</text><text id="" x="0" y="91" dominant-baseline="central" text-anchor="middle">20</text><text id="" x="32" y="91" dominant-baseline="central" text-anchor="middle">21</text><text id="" x="64" y="91" dominant-baseline="central" text-anchor="middle">22</text><text id="" x="96" y="91" dominant-baseline="central" text-anchor="middle">23</text><text id="" x="128" y="91" dominant-baseline="central" text-anchor="middle">24</text><text id="" x="160" y="91" dominant-baseline="central" text-anchor="middle">25</text><text id="" x="192" y="91" dominant-baseline="central" text-anchor="middle">26</text><text id="" x="224" y="91" dominant-baseline="central" text-anchor="middle">27</text><text id="" x="256" y="91" dominant-baseline="central" text-anchor="middle">28</text><text id="" x="288" y="91" dominant-baseline="central" text-anchor="middle">29</text><text id="" x="0" y="148" dominant-baseline="central" text-anchor="middle">30</text><text id="" x="32" y="148" dominant-baseline="central" text-anchor="middle">31</text><text id="" x="64" y="148" dominant-baseline="central" text-anchor="middle">32</text><text id="" x="96" y="148" dominant-baseline="central" text-anchor="middle">33</text><text id="" x="128" y="148" dominant-baseline="central" text-anchor="middle">34</text><text id="" x="160" y="148" dominant-baseline="central" text-anchor="middle">35</text><text id="" x="192" y="148" dominant-baseline="central" text-anchor="middle">36</text><text id="" x="224" y="148" dominant-baseline="central" text-anchor="middle">37</text><text id="" x="256" y="148" dominant-baseline="central" text-anchor="middle">38</text><text id="" x="288" y="148" dominant-baseline="central" text-anchor="middle">39</text><text id="" x="0" y="205" dominant-baseline="central" text-anchor="middle">40</text><text id="" x="32" y="205" dominant-baseline="central" text-anchor="middle">41</text><text id="" x="64" y="205" dominant-baseline="central" text-anchor="middle">42</text><text id="" x="96" y="205" dominant-baseline="central" text-anchor="middle">43</text><text id="" x="128" y="205" dominant-baseline="central" text-anchor="middle">44</text><text id="" x="160" y="205" dominant-baseline="central" text-anchor="middle">45</text><text id="" x="192" y="205" dominant-baseline="central" text-anchor="middle">46</text><text id="" x="224" y="205" dominant-baseline="central" text-anchor="middle">47</text><text id="" x="256" y="205" dominant-baseline="central" text-anchor="middle">48</text><text id="" x="288" y="205" dominant-baseline="central" text-anchor="middle">49</text></g></g><g transform="translate(20,60) scale(0.8)"><g class="flash_g" fill="#ff1493" stroke="#ff1493" stroke-width="1"><rect x="114" y="-14" width="28" height="28" rx="4" ry="4" /><rect x="178" y="-14" width="28" height="28" rx="4" ry="4" /><rect x="242" y="-14" width="28" height="28" rx="4" ry="4" /><rect x="-14" y="43" width="28" height="28" rx="4" ry="4" /><rect x="50" y="43" width="28" height="28" rx="4" ry="4" /><rect x="114" y="43" width="28" height="28" rx="4" ry="4" /><rect x="178" y="43" width="28" height="28" rx="4" ry="4" /><rect x="242" y="43" width="28" height="28" rx="4" ry="4" /><rect x="-14" y="100" width="28" height="28" rx="4" ry="4" /><rect x="50" y="100" width="28" height="28" rx="4" ry="4" /><rect x="114" y="100" width="28" height="28" rx="4" ry="4" /><rect x="178" y="100" width="28" height="28" rx="4" ry="4" /><rect x="242" y="100" width="28" height="28" rx="4" ry="4" /><rect x="-14" y="157" width="28" height="28" rx="4" ry="4" /><rect x="50" y="157" width="28" height="28" rx="4" ry="4" /><rect x="114" y="157" width="28" height="28" rx="4" ry="4" /><rect x="178" y="157" width="28" height="28" rx="4" ry="4" /><rect x="242" y="157" width="28" height="28" rx="4" ry="4" /><rect x="-14" y="214" width="28" height="28" rx="4" ry="4" /><rect x="50" y="214" width="28" height="28" rx="4" ry="4" /><rect x="114" y="214" width="28" height="28" rx="4" ry="4" /><rect x="178" y="214" width="28" height="28" rx="4" ry="4" /><rect x="242" y="214" width="28" height="28" rx="4" ry="4" /></g><g fill="none" stroke="#a0a0a0" stroke-width="1"><rect x="114" y="-14" width="28" height="28" rx="4" ry="4" /><rect x="178" y="-14" width="28" height="28" rx="4" ry="4" /><rect x="242" y="-14" width="28" height="28" rx="4" ry="4" /><rect x="-14" y="43" width="28" height="28" rx="4" ry="4" /><rect x="50" y="43" width="28" height="28" rx="4" ry="4" /><rect x="114" y="43" width="28" height="28" rx="4" ry="4" /><rect x="178" y="43" width="28" height="28" rx="4" ry="4" /><rect x="242" y="43" width="28" height="28" rx="4" ry="4" /><rect x="-14" y="100" width="28" height="28" rx="4" ry="4" /><rect x="50" y="100" width="28" height="28" rx="4" ry="4" /><rect x="114" y="100" width="28" height="28" rx="4" ry="4" /><rect x="178" y="100" width="28" height="28" rx="4" ry="4" /><rect x="242" y="100" width="28" height="28" rx="4" ry="4" /><rect x="-14" y="157" width="28" height="28" rx="4" ry="4" /><rect x="50" y="157" width="28" height="28" rx="4" ry="4" /><rect x="114" y="157" width="28" height="28" rx="4" ry="4" /><rect x="178" y="157" width="28" height="28" rx="4" ry="4" /><rect x="242" y="157" width="28" height="28" rx="4" ry="4" /><rect x="-14" y="214" width="28" height="28" rx="4" ry="4" /><rect x="50" y="214" width="28" height="28" rx="4" ry="4" /><rect x="114" y="214" width="28" height="28" rx="4" ry="4" /><rect x="178" y="214" width="28" height="28" rx="4" ry="4" /><rect x="242" y="214" width="28" height="28" rx="4" ry="4" /></g></g><g transform="translate(20,60) scale(0.8)"><g class="flash_g" fill="#ffffff" stroke="#ff1493" stroke-width="2"><rect x="50" y="-14" width="28" height="28" rx="4" ry="4" /></g></g><g transform="translate(20,60) scale(0.8)"><g class="flash_g" transform="translate(64,14) rotate(180)" fill="#ff1493"><path d="M 0 0 L 8 -10 L 4 -10 L 4 -26 L -4 -26 L -4 -10 L -8 -10 z"/></g></g><g transform="translate(20,60) scale(0.8)"><g stroke-width="0"><circle cx="64" cy="0" r="10" fill="#66c088" id="var_P_2__2" /><circle cx="96" cy="0" r="10" fill="#66c088" id="var_P_2__3" /><circle cx="160" cy="0" r="10" fill="#66c088" id="var_P_2__5" /><circle cx="224" cy="0" r="10" fill="#66c088" id="var_P_2__7" /><circle cx="288" cy="0" r="10" fill="#66c088" id="var_P_2__9" /><circle cx="32" cy="57" r="10" fill="#66c088" id="var_P_2__11" /><circle cx="96" cy="57" r="10" fill="#66c088" id="var_P_2__13" /><circle cx="160" cy="57" r="10" fill="#66c088" id="var_P_2__15" /><circle cx="224" cy="57" r="10" fill="#66c088" id="var_P_2__17" /><circle cx="288" cy="57" r="10" fill="#66c088" id="var_P_2__19" /><circle cx="32" cy="114" r="10" fill="#66c088" id="var_P_2__21" /><circle cx="96" cy="114" r="10" fill="#66c088" id="var_P_2__23" /><circle cx="160" cy="114" r="10" fill="#66c088" id="var_P_2__25" /><circle cx="224" cy="114" r="10" fill="#66c088" id="var_P_2__27" /><circle cx="288" cy="114" r="10" fill="#66c088" id="var_P_2__29" /><circle cx="32" cy="171" r="10" fill="#66c088" id="var_P_2__31" /><circle cx="96" cy="171" r="10" fill="#66c088" id="var_P_2__33" /><circle cx="160" cy="171" r="10" fill="#66c088" id="var_P_2__35" /><circle cx="224" cy="171" r="10" fill="#66c088" id="var_P_2__37" /><circle cx="288" cy="171" r="10" fill="#66c088" id="var_P_2__39" /><circle cx="32" cy="228" r="10" fill="#66c088" id="var_P_2__41" /><circle cx="96" cy="228" r="10" fill="#66c088" id="var_P_2__43" /><circle cx="160" cy="228" r="10" fill="#66c088" id="var_P_2__45" /><circle cx="224" cy="228" r="10" fill="#66c088" id="var_P_2__47" /><circle cx="288" cy="228" r="10" fill="#66c088" id="var_P_2__49" /></g><g font-size="14" font-family="sans-serif" fill="#ffffff"><text id="text_P_2__2" x="64" y="0" dominant-baseline="central" text-anchor="middle">1</text><text id="text_P_2__3" x="96" y="0" dominant-baseline="central" text-anchor="middle">1</text><text id="text_P_2__5" x="160" y="0" dominant-baseline="central" text-anchor="middle">1</text><text id="text_P_2__7" x="224" y="0" dominant-baseline="central" text-anchor="middle">1</text><text id="text_P_2__9" x="288" y="0" dominant-baseline="central" text-anchor="middle">1</text><text id="text_P_2__11" x="32" y="57" dominant-baseline="central" text-anchor="middle">1</text><text id="text_P_2__13" x="96" y="57" dominant-baseline="central" text-anchor="middle">1</text><text id="text_P_2__15" x="160" y="57" dominant-baseline="central" text-anchor="middle">1</text><text id="text_P_2__17" x="224" y="57" dominant-baseline="central" text-anchor="middle">1</text><text id="text_P_2__19" x="288" y="57" dominant-baseline="central" text-anchor="middle">1</text><text id="text_P_2__21" x="32" y="114" dominant-baseline="central" text-anchor="middle">1</text><text id="text_P_2__23" x="96" y="114" dominant-baseline="central" text-anchor="middle">1</text><text id="text_P_2__25" x="160" y="114" dominant-baseline="central" text-anchor="middle">1</text><text id="text_P_2__27" x="224" y="114" dominant-baseline="central" text-anchor="middle">1</text><text id="text_P_2__29" x="288" y="114" dominant-baseline="central" text-anchor="middle">1</text><text id="text_P_2__31" x="32" y="171" dominant-baseline="central" text-anchor="middle">1</text><text id="text_P_2__33" x="96" y="171" dominant-baseline="central" text-anchor="middle">1</text><text id="text_P_2__35" x="160" y="171" dominant-baseline="central" text-anchor="middle">1</text><text id="text_P_2__37" x="224" y="171" dominant-baseline="central" text-anchor="middle">1</text><text id="text_P_2__39" x="288" y="171" dominant-baseline="central" text-anchor="middle">1</text><text id="text_P_2__41" x="32" y="228" dominant-baseline="central" text-anchor="middle">1</text><text id="text_P_2__43" x="96" y="228" dominant-baseline="central" text-anchor="middle">1</text><text id="text_P_2__45" x="160" y="228" dominant-baseline="central" text-anchor="middle">1</text><text id="text_P_2__47" x="224" y="228" dominant-baseline="central" text-anchor="middle">1</text><text id="text_P_2__49" x="288" y="228" dominant-baseline="central" text-anchor="middle">1</text></g><g font-size="14" font-family="sans-serif" fill="#66c088"><text id="" x="-28" y="0" dominant-baseline="central" text-anchor="end">P</text></g></g></g><text x="16" y="20" font-size="16" text-anchor="middle" fill="#888888" font-family="sans-serif" >2-1</text><text x="140" y="284" font-size="9" text-anchor="middle" font-family="SimSun, 宋体, serif">将 2 的倍数从候选中移出</text></svg>

