<?xml version="1.0" encoding="UTF-8" standalone="no"?>
<svg
xmlns:svg="http://www.w3.org/2000/svg"
xmlns="http://www.w3.org/2000/svg"
xmlns:xlink="http://www.w3.org/1999/xlink"
width ="640"
height ="276"
viewBox ="0 0 640 276"
>
<defs><polygon points="0,0 6,8, 0,16 20,8" id="m_tmpl2"/><marker id="token_arrow"  markerUnits="userSpaceOnUse" markerWidth="20" markerHeight="16" viewBox="0 0 20 16" refX="14" refY="8" orient="auto"><use xlink:href="#m_tmpl2" fill="#60a0ff"/></marker></defs><defs><polygon points="0,0 0,4 0,8 12,4" id="m_tmpl3"/><marker id="link_arrow" markerUnits="strokeWidth" markerWidth="12" markerHeight="8" viewBox="0 0 12 8" refX="12" refY="4" orient="auto"><use xlink:href="#m_tmpl3" fill="#888888"/></marker></defs><rect x ="0" y="0" width="280" height="260" fill="#ffffff" stroke="#888888" stroke-width="1"/><g transform="translate(0,0)"><g transform="translate(44,40) scale(1)"><g fill="#ffffff" stroke="#a0a0a0" stroke-width="1"><line x1="96" y1="0" x2="24" y2="36" /><line x1="96" y1="0" x2="192" y2="36" /><circle cx="96" cy="0" r="14" /><line x1="24" y1="36" x2="0" y2="72" /><line x1="24" y1="36" x2="72" y2="72" /><circle cx="24" cy="36" r="14" /><circle cx="0" cy="72" r="14" /><line x1="72" y1="72" x2="48" y2="108" /><circle cx="72" cy="72" r="14" /><circle cx="48" cy="108" r="14" /><line x1="192" y1="36" x2="168" y2="72" /><circle cx="192" cy="36" r="14" /><line x1="168" y1="72" x2="120" y2="108" /><circle cx="168" cy="72" r="14" /><line x1="120" y1="108" x2="144" y2="144" /><circle cx="120" cy="108" r="14" /><circle cx="144" cy="144" r="14" /></g></g>
<g transform="translate(44,40) scale(1)"><g class="flash_g" fill="#ffffff" stroke="#ffd700" stroke-width="2"><circle cx="96" cy="0" r="14" /><circle cx="24" cy="36" r="14" /><circle cx="192" cy="36" r="14" /><circle cx="72" cy="72" r="14" /><circle cx="0" cy="72" r="14" /><circle cx="168" cy="72" r="14" /><circle cx="120" cy="108" r="14" /><circle cx="144" cy="144" r="14" /><circle cx="48" cy="108" r="14" /></g></g><g transform="translate(44,40) scale(1)"><g fill="#4080f0" stroke-width="0"><circle cx="96" cy="0" r="11" fill="#77B7FF" opacity="1" /><circle cx="24" cy="36" r="11" fill="#83C3FF" opacity="1" /><circle cx="0" cy="72" r="11" fill="#8BCBFF" opacity="1" /><circle cx="72" cy="72" r="11" fill="#7BBBFF" opacity="1" /><circle cx="48" cy="108" r="11" fill="#7FBFFF" opacity="1" /><circle cx="192" cy="36" r="11" fill="#4383F3" opacity="1" /><circle cx="168" cy="72" r="11" fill="#5393FF" opacity="1" /><circle cx="120" cy="108" r="11" fill="#73B3FF" opacity="1" /><circle cx="144" cy="144" r="11" fill="#63A3FF" opacity="1" /></g><g font-size="14" font-family="sans-serif" fill="#ffffff"><text id="" x="96" y="0" dominant-baseline="central" text-anchor="middle">6</text><text id="" x="24" y="36" dominant-baseline="central" text-anchor="middle">3</text><text id="" x="0" y="72" dominant-baseline="central" text-anchor="middle">1</text><text id="" x="72" y="72" dominant-baseline="central" text-anchor="middle">5</text><text id="" x="48" y="108" dominant-baseline="central" text-anchor="middle">4</text><text id="" x="192" y="36" dominant-baseline="central" text-anchor="middle">19</text><text id="" x="168" y="72" dominant-baseline="central" text-anchor="middle">15</text><text id="" x="120" y="108" dominant-baseline="central" text-anchor="middle">7</text><text id="" x="144" y="144" dominant-baseline="central" text-anchor="middle">11</text></g></g></g><text x="16" y="20" font-size="16" text-anchor="middle" fill="#888888" font-family="sans-serif" >2-1</text><text x="140" y="244" font-size="9" text-anchor="middle" font-family="SimSun, 宋体, serif">使用中序遍历，依次输出键</text></svg>

