<?xml version='1.0' encoding='UTF-8'?>
<svg width="49mm" height="49mm" version="1.1" viewBox="0 0 49 49" xmlns="http://www.w3.org/2000/svg"><path d="M4,4H5V5H4zM5,4H6V5H5zM6,4H7V5H6zM7,4H8V5H7zM8,4H9V5H8zM9,4H10V5H9zM10,4H11V5H10zM12,4H13V5H12zM13,4H14V5H13zM18,4H19V5H18zM20,4H21V5H20zM21,4H22V5H21zM22,4H23V5H22zM26,4H27V5H26zM31,4H32V5H31zM32,4H33V5H32zM38,4H39V5H38zM39,4H40V5H39zM40,4H41V5H40zM41,4H42V5H41zM42,4H43V5H42zM43,4H44V5H43zM44,4H45V5H44zM4,5H5V6H4zM10,5H11V6H10zM13,5H14V6H13zM14,5H15V6H14zM16,5H17V6H16zM17,5H18V6H17zM19,5H20V6H19zM21,5H22V6H21zM23,5H24V6H23zM32,5H33V6H32zM35,5H36V6H35zM36,5H37V6H36zM38,5H39V6H38zM44,5H45V6H44zM4,6H5V7H4zM6,6H7V7H6zM7,6H8V7H7zM8,6H9V7H8zM10,6H11V7H10zM13,6H14V7H13zM15,6H16V7H15zM16,6H17V7H16zM18,6H19V7H18zM24,6H25V7H24zM25,6H26V7H25zM27,6H28V7H27zM28,6H29V7H28zM29,6H30V7H29zM33,6H34V7H33zM35,6H36V7H35zM38,6H39V7H38zM40,6H41V7H40zM41,6H42V7H41zM42,6H43V7H42zM44,6H45V7H44zM4,7H5V8H4zM6,7H7V8H6zM7,7H8V8H7zM8,7H9V8H8zM10,7H11V8H10zM12,7H13V8H12zM13,7H14V8H13zM14,7H15V8H14zM15,7H16V8H15zM17,7H18V8H17zM20,7H21V8H20zM21,7H22V8H21zM22,7H23V8H22zM23,7H24V8H23zM25,7H26V8H25zM26,7H27V8H26zM27,7H28V8H27zM30,7H31V8H30zM34,7H35V8H34zM38,7H39V8H38zM40,7H41V8H40zM41,7H42V8H41zM42,7H43V8H42zM44,7H45V8H44zM4,8H5V9H4zM6,8H7V9H6zM7,8H8V9H7zM8,8H9V9H8zM10,8H11V9H10zM12,8H13V9H12zM13,8H14V9H13zM15,8H16V9H15zM16,8H17V9H16zM17,8H18V9H17zM19,8H20V9H19zM21,8H22V9H21zM22,8H23V9H22zM26,8H27V9H26zM27,8H28V9H27zM28,8H29V9H28zM29,8H30V9H29zM30,8H31V9H30zM31,8H32V9H31zM34,8H35V9H34zM38,8H39V9H38zM40,8H41V9H40zM41,8H42V9H41zM42,8H43V9H42zM44,8H45V9H44zM4,9H5V10H4zM10,9H11V10H10zM12,9H13V10H12zM13,9H14V10H13zM15,9H16V10H15zM16,9H17V10H16zM20,9H21V10H20zM21,9H22V10H21zM23,9H24V10H23zM24,9H25V10H24zM25,9H26V10H25zM26,9H27V10H26zM29,9H30V10H29zM33,9H34V10H33zM35,9H36V10H35zM36,9H37V10H36zM38,9H39V10H38zM44,9H45V10H44zM4,10H5V11H4zM5,10H6V11H5zM6,10H7V11H6zM7,10H8V11H7zM8,10H9V11H8zM9,10H10V11H9zM10,10H11V11H10zM12,10H13V11H12zM14,10H15V11H14zM16,10H17V11H16zM18,10H19V11H18zM20,10H21V11H20zM22,10H23V11H22zM24,10H25V11H24zM26,10H27V11H26zM28,10H29V11H28zM30,10H31V11H30zM32,10H33V11H32zM34,10H35V11H34zM36,10H37V11H36zM38,10H39V11H38zM39,10H40V11H39zM40,10H41V11H40zM41,10H42V11H41zM42,10H43V11H42zM43,10H44V11H43zM44,10H45V11H44zM12,11H13V12H12zM13,11H14V12H13zM16,11H17V12H16zM17,11H18V12H17zM18,11H19V12H18zM19,11H20V12H19zM21,11H22V12H21zM24,11H25V12H24zM25,11H26V12H25zM27,11H28V12H27zM32,11H33V12H32zM33,11H34V12H33zM34,11H35V12H34zM35,11H36V12H35zM4,12H5V13H4zM8,12H9V13H8zM10,12H11V13H10zM11,12H12V13H11zM12,12H13V13H12zM13,12H14V13H13zM16,12H17V13H16zM17,12H18V13H17zM19,12H20V13H19zM21,12H22V13H21zM24,12H25V13H24zM25,12H26V13H25zM28,12H29V13H28zM32,12H33V13H32zM33,12H34V13H33zM35,12H36V13H35zM37,12H38V13H37zM38,12H39V13H38zM39,12H40V13H39zM40,12H41V13H40zM41,12H42V13H41zM44,12H45V13H44zM6,13H7V14H6zM7,13H8V14H7zM8,13H9V14H8zM9,13H10V14H9zM12,13H13V14H12zM14,13H15V14H14zM15,13H16V14H15zM16,13H17V14H16zM18,13H19V14H18zM22,13H23V14H22zM24,13H25V14H24zM25,13H26V14H25zM27,13H28V14H27zM31,13H32V14H31zM32,13H33V14H32zM33,13H34V14H33zM38,13H39V14H38zM40,13H41V14H40zM41,13H42V14H41zM44,13H45V14H44zM4,14H5V15H4zM5,14H6V15H5zM9,14H10V15H9zM10,14H11V15H10zM16,14H17V15H16zM19,14H20V15H19zM22,14H23V15H22zM24,14H25V15H24zM27,14H28V15H27zM31,14H32V15H31zM34,14H35V15H34zM36,14H37V15H36zM37,14H38V15H37zM40,14H41V15H40zM43,14H44V15H43zM44,14H45V15H44zM6,15H7V16H6zM8,15H9V16H8zM11,15H12V16H11zM12,15H13V16H12zM14,15H15V16H14zM17,15H18V16H17zM19,15H20V16H19zM21,15H22V16H21zM22,15H23V16H22zM24,15H25V16H24zM25,15H26V16H25zM26,15H27V16H26zM28,15H29V16H28zM30,15H31V16H30zM31,15H32V16H31zM32,15H33V16H32zM33,15H34V16H33zM34,15H35V16H34zM35,15H36V16H35zM36,15H37V16H36zM38,15H39V16H38zM39,15H40V16H39zM41,15H42V16H41zM4,16H5V17H4zM8,16H9V17H8zM10,16H11V17H10zM14,16H15V17H14zM16,16H17V17H16zM17,16H18V17H17zM21,16H22V17H21zM25,16H26V17H25zM27,16H28V17H27zM28,16H29V17H28zM30,16H31V17H30zM31,16H32V17H31zM32,16H33V17H32zM33,16H34V17H33zM37,16H38V17H37zM4,17H5V18H4zM8,17H9V18H8zM12,17H13V18H12zM13,17H14V18H13zM14,17H15V18H14zM16,17H17V18H16zM17,17H18V18H17zM22,17H23V18H22zM23,17H24V18H23zM24,17H25V18H24zM25,17H26V18H25zM26,17H27V18H26zM29,17H30V18H29zM34,17H35V18H34zM38,17H39V18H38zM39,17H40V18H39zM40,17H41V18H40zM41,17H42V18H41zM42,17H43V18H42zM43,17H44V18H43zM44,17H45V18H44zM5,18H6V19H5zM7,18H8V19H7zM8,18H9V19H8zM10,18H11V19H10zM17,18H18V19H17zM20,18H21V19H20zM21,18H22V19H21zM22,18H23V19H22zM24,18H25V19H24zM30,18H31V19H30zM31,18H32V19H31zM33,18H34V19H33zM34,18H35V19H34zM37,18H38V19H37zM38,18H39V19H38zM39,18H40V19H39zM41,18H42V19H41zM42,18H43V19H42zM44,18H45V19H44zM4,19H5V20H4zM5,19H6V20H5zM6,19H7V20H6zM8,19H9V20H8zM12,19H13V20H12zM16,19H17V20H16zM19,19H20V20H19zM20,19H21V20H20zM21,19H22V20H21zM22,19H23V20H22zM25,19H26V20H25zM28,19H29V20H28zM31,19H32V20H31zM32,19H33V20H32zM33,19H34V20H33zM41,19H42V20H41zM44,19H45V20H44zM7,20H8V21H7zM9,20H10V21H9zM10,20H11V21H10zM12,20H13V21H12zM13,20H14V21H13zM14,20H15V21H14zM15,20H16V21H15zM20,20H21V21H20zM21,20H22V21H21zM23,20H24V21H23zM24,20H25V21H24zM25,20H26V21H25zM26,20H27V21H26zM27,20H28V21H27zM28,20H29V21H28zM32,20H33V21H32zM33,20H34V21H33zM39,20H40V21H39zM44,20H45V21H44zM4,21H5V22H4zM6,21H7V22H6zM9,21H10V22H9zM11,21H12V22H11zM13,21H14V22H13zM15,21H16V22H15zM16,21H17V22H16zM20,21H21V22H20zM22,21H23V22H22zM25,21H26V22H25zM27,21H28V22H27zM29,21H30V22H29zM30,21H31V22H30zM32,21H33V22H32zM33,21H34V22H33zM34,21H35V22H34zM37,21H38V22H37zM38,21H39V22H38zM39,21H40V22H39zM40,21H41V22H40zM42,21H43V22H42zM43,21H44V22H43zM44,21H45V22H44zM8,22H9V23H8zM10,22H11V23H10zM11,22H12V23H11zM12,22H13V23H12zM16,22H17V23H16zM19,22H20V23H19zM21,22H22V23H21zM24,22H25V23H24zM27,22H28V23H27zM28,22H29V23H28zM31,22H32V23H31zM33,22H34V23H33zM34,22H35V23H34zM36,22H37V23H36zM37,22H38V23H37zM39,22H40V23H39zM44,22H45V23H44zM5,23H6V24H5zM6,23H7V24H6zM8,23H9V24H8zM11,23H12V24H11zM12,23H13V24H12zM15,23H16V24H15zM16,23H17V24H16zM18,23H19V24H18zM19,23H20V24H19zM21,23H22V24H21zM22,23H23V24H22zM24,23H25V24H24zM26,23H27V24H26zM27,23H28V24H27zM28,23H29V24H28zM30,23H31V24H30zM33,23H34V24H33zM34,23H35V24H34zM35,23H36V24H35zM36,23H37V24H36zM38,23H39V24H38zM39,23H40V24H39zM41,23H42V24H41zM4,24H5V25H4zM6,24H7V25H6zM7,24H8V25H7zM8,24H9V25H8zM10,24H11V25H10zM12,24H13V25H12zM13,24H14V25H13zM14,24H15V25H14zM16,24H17V25H16zM17,24H18V25H17zM22,24H23V25H22zM23,24H24V25H23zM24,24H25V25H24zM26,24H27V25H26zM29,24H30V25H29zM30,24H31V25H30zM32,24H33V25H32zM33,24H34V25H33zM36,24H37V25H36zM37,24H38V25H37zM41,24H42V25H41zM43,24H44V25H43zM44,24H45V25H44zM6,25H7V26H6zM11,25H12V26H11zM12,25H13V26H12zM13,25H14V26H13zM15,25H16V26H15zM17,25H18V26H17zM19,25H20V26H19zM20,25H21V26H20zM25,25H26V26H25zM27,25H28V26H27zM28,25H29V26H28zM29,25H30V26H29zM31,25H32V26H31zM34,25H35V26H34zM38,25H39V26H38zM39,25H40V26H39zM40,25H41V26H40zM44,25H45V26H44zM4,26H5V27H4zM7,26H8V27H7zM8,26H9V27H8zM9,26H10V27H9zM10,26H11V27H10zM12,26H13V27H12zM16,26H17V27H16zM17,26H18V27H17zM18,26H19V27H18zM19,26H20V27H19zM20,26H21V27H20zM24,26H25V27H24zM27,26H28V27H27zM28,26H29V27H28zM30,26H31V27H30zM31,26H32V27H31zM34,26H35V27H34zM36,26H37V27H36zM39,26H40V27H39zM40,26H41V27H40zM41,26H42V27H41zM42,26H43V27H42zM44,26H45V27H44zM5,27H6V28H5zM6,27H7V28H6zM11,27H12V28H11zM13,27H14V28H13zM14,27H15V28H14zM21,27H22V28H21zM22,27H23V28H22zM25,27H26V28H25zM26,27H27V28H26zM28,27H29V28H28zM30,27H31V28H30zM33,27H34V28H33zM34,27H35V28H34zM35,27H36V28H35zM36,27H37V28H36zM40,27H41V28H40zM41,27H42V28H41zM6,28H7V29H6zM8,28H9V29H8zM9,28H10V29H9zM10,28H11V29H10zM12,28H13V29H12zM15,28H16V29H15zM16,28H17V29H16zM17,28H18V29H17zM19,28H20V29H19zM21,28H22V29H21zM23,28H24V29H23zM24,28H25V29H24zM25,28H26V29H25zM26,28H27V29H26zM27,28H28V29H27zM28,28H29V29H28zM31,28H32V29H31zM33,28H34V29H33zM36,28H37V29H36zM37,28H38V29H37zM39,28H40V29H39zM41,28H42V29H41zM44,28H45V29H44zM4,29H5V30H4zM6,29H7V30H6zM7,29H8V30H7zM8,29H9V30H8zM9,29H10V30H9zM12,29H13V30H12zM13,29H14V30H13zM15,29H16V30H15zM16,29H17V30H16zM18,29H19V30H18zM19,29H20V30H19zM21,29H22V30H21zM22,29H23V30H22zM27,29H28V30H27zM29,29H30V30H29zM31,29H32V30H31zM32,29H33V30H32zM33,29H34V30H33zM36,29H37V30H36zM37,29H38V30H37zM38,29H39V30H38zM39,29H40V30H39zM40,29H41V30H40zM42,29H43V30H42zM43,29H44V30H43zM44,29H45V30H44zM4,30H5V31H4zM9,30H10V31H9zM10,30H11V31H10zM12,30H13V31H12zM13,30H14V31H13zM14,30H15V31H14zM15,30H16V31H15zM16,30H17V31H16zM18,30H19V31H18zM19,30H20V31H19zM20,30H21V31H20zM22,30H23V31H22zM24,30H25V31H24zM25,30H26V31H25zM26,30H27V31H26zM27,30H28V31H27zM28,30H29V31H28zM30,30H31V31H30zM31,30H32V31H31zM32,30H33V31H32zM34,30H35V31H34zM36,30H37V31H36zM44,30H45V31H44zM4,31H5V32H4zM7,31H8V32H7zM8,31H9V32H8zM12,31H13V32H12zM15,31H16V32H15zM19,31H20V32H19zM20,31H21V32H20zM21,31H22V32H21zM22,31H23V32H22zM23,31H24V32H23zM24,31H25V32H24zM25,31H26V32H25zM26,31H27V32H26zM27,31H28V32H27zM30,31H31V32H30zM33,31H34V32H33zM34,31H35V32H34zM35,31H36V32H35zM36,31H37V32H36zM38,31H39V32H38zM40,31H41V32H40zM41,31H42V32H41zM43,31H44V32H43zM44,31H45V32H44zM4,32H5V33H4zM5,32H6V33H5zM6,32H7V33H6zM7,32H8V33H7zM10,32H11V33H10zM11,32H12V33H11zM13,32H14V33H13zM16,32H17V33H16zM17,32H18V33H17zM18,32H19V33H18zM19,32H20V33H19zM21,32H22V33H21zM24,32H25V33H24zM25,32H26V33H25zM27,32H28V33H27zM30,32H31V33H30zM31,32H32V33H31zM33,32H34V33H33zM36,32H37V33H36zM39,32H40V33H39zM43,32H44V33H43zM4,33H5V34H4zM6,33H7V34H6zM7,33H8V34H7zM9,33H10V34H9zM11,33H12V34H11zM16,33H17V34H16zM21,33H22V34H21zM23,33H24V34H23zM28,33H29V34H28zM32,33H33V34H32zM33,33H34V34H33zM34,33H35V34H34zM38,33H39V34H38zM39,33H40V34H39zM40,33H41V34H40zM42,33H43V34H42zM44,33H45V34H44zM6,34H7V35H6zM7,34H8V35H7zM8,34H9V35H8zM10,34H11V35H10zM11,34H12V35H11zM12,34H13V35H12zM15,34H16V35H15zM17,34H18V35H17zM19,34H20V35H19zM20,34H21V35H20zM22,34H23V35H22zM23,34H24V35H23zM25,34H26V35H25zM27,34H28V35H27zM28,34H29V35H28zM32,34H33V35H32zM33,34H34V35H33zM37,34H38V35H37zM44,34H45V35H44zM6,35H7V36H6zM8,35H9V36H8zM9,35H10V36H9zM12,35H13V36H12zM15,35H16V36H15zM17,35H18V36H17zM19,35H20V36H19zM21,35H22V36H21zM23,35H24V36H23zM24,35H25V36H24zM25,35H26V36H25zM27,35H28V36H27zM33,35H34V36H33zM34,35H35V36H34zM35,35H36V36H35zM36,35H37V36H36zM37,35H38V36H37zM39,35H40V36H39zM41,35H42V36H41zM43,35H44V36H43zM4,36H5V37H4zM5,36H6V37H5zM6,36H7V37H6zM10,36H11V37H10zM11,36H12V37H11zM12,36H13V37H12zM15,36H16V37H15zM16,36H17V37H16zM17,36H18V37H17zM18,36H19V37H18zM21,36H22V37H21zM24,36H25V37H24zM25,36H26V37H25zM26,36H27V37H26zM28,36H29V37H28zM31,36H32V37H31zM33,36H34V37H33zM36,36H37V37H36zM37,36H38V37H37zM38,36H39V37H38zM39,36H40V37H39zM40,36H41V37H40zM41,36H42V37H41zM12,37H13V38H12zM14,37H15V38H14zM16,37H17V38H16zM17,37H18V38H17zM18,37H19V38H18zM20,37H21V38H20zM21,37H22V38H21zM27,37H28V38H27zM31,37H32V38H31zM32,37H33V38H32zM33,37H34V38H33zM34,37H35V38H34zM35,37H36V38H35zM36,37H37V38H36zM40,37H41V38H40zM41,37H42V38H41zM44,37H45V38H44zM4,38H5V39H4zM5,38H6V39H5zM6,38H7V39H6zM7,38H8V39H7zM8,38H9V39H8zM9,38H10V39H9zM10,38H11V39H10zM12,38H13V39H12zM14,38H15V39H14zM18,38H19V39H18zM22,38H23V39H22zM25,38H26V39H25zM26,38H27V39H26zM27,38H28V39H27zM29,38H30V39H29zM30,38H31V39H30zM31,38H32V39H31zM32,38H33V39H32zM33,38H34V39H33zM34,38H35V39H34zM35,38H36V39H35zM36,38H37V39H36zM38,38H39V39H38zM40,38H41V39H40zM43,38H44V39H43zM44,38H45V39H44zM4,39H5V40H4zM10,39H11V40H10zM13,39H14V40H13zM15,39H16V40H15zM18,39H19V40H18zM19,39H20V40H19zM24,39H25V40H24zM25,39H26V40H25zM29,39H30V40H29zM33,39H34V40H33zM35,39H36V40H35zM36,39H37V40H36zM40,39H41V40H40zM41,39H42V40H41zM43,39H44V40H43zM4,40H5V41H4zM6,40H7V41H6zM7,40H8V41H7zM8,40H9V41H8zM10,40H11V41H10zM12,40H13V41H12zM13,40H14V41H13zM14,40H15V41H14zM16,40H17V41H16zM19,40H20V41H19zM20,40H21V41H20zM24,40H25V41H24zM28,40H29V41H28zM29,40H30V41H29zM31,40H32V41H31zM34,40H35V41H34zM35,40H36V41H35zM36,40H37V41H36zM37,40H38V41H37zM38,40H39V41H38zM39,40H40V41H39zM40,40H41V41H40zM41,40H42V41H41zM43,40H44V41H43zM44,40H45V41H44zM4,41H5V42H4zM6,41H7V42H6zM7,41H8V42H7zM8,41H9V42H8zM10,41H11V42H10zM19,41H20V42H19zM20,41H21V42H20zM21,41H22V42H21zM22,41H23V42H22zM26,41H27V42H26zM27,41H28V42H27zM28,41H29V42H28zM29,41H30V42H29zM30,41H31V42H30zM31,41H32V42H31zM34,41H35V42H34zM39,41H40V42H39zM41,41H42V42H41zM42,41H43V42H42zM43,41H44V42H43zM4,42H5V43H4zM6,42H7V43H6zM7,42H8V43H7zM8,42H9V43H8zM10,42H11V43H10zM14,42H15V43H14zM15,42H16V43H15zM18,42H19V43H18zM20,42H21V43H20zM22,42H23V43H22zM24,42H25V43H24zM26,42H27V43H26zM27,42H28V43H27zM29,42H30V43H29zM31,42H32V43H31zM34,42H35V43H34zM37,42H38V43H37zM41,42H42V43H41zM44,42H45V43H44zM4,43H5V44H4zM10,43H11V44H10zM15,43H16V44H15zM16,43H17V44H16zM17,43H18V44H17zM18,43H19V44H18zM19,43H20V44H19zM21,43H22V44H21zM23,43H24V44H23zM24,43H25V44H24zM25,43H26V44H25zM27,43H28V44H27zM28,43H29V44H28zM32,43H33V44H32zM33,43H34V44H33zM34,43H35V44H34zM36,43H37V44H36zM37,43H38V44H37zM38,43H39V44H38zM39,43H40V44H39zM41,43H42V44H41zM43,43H44V44H43zM44,43H45V44H44zM4,44H5V45H4zM5,44H6V45H5zM6,44H7V45H6zM7,44H8V45H7zM8,44H9V45H8zM9,44H10V45H9zM10,44H11V45H10zM12,44H13V45H12zM14,44H15V45H14zM15,44H16V45H15zM17,44H18V45H17zM18,44H19V45H18zM19,44H20V45H19zM20,44H21V45H20zM21,44H22V45H21zM24,44H25V45H24zM25,44H26V45H25zM26,44H27V45H26zM28,44H29V45H28zM31,44H32V45H31zM33,44H34V45H33zM34,44H35V45H34zM35,44H36V45H35zM36,44H37V45H36zM37,44H38V45H37zM38,44H39V45H38zM39,44H40V45H39zM40,44H41V45H40zM41,44H42V45H41zM43,44H44V45H43z" id="qr-path" fill="#000000" fill-opacity="1" fill-rule="nonzero" stroke="none"/></svg>