<?xml version="1.0" encoding="UTF-8" standalone="no"?>
<!-- Created with Inkscape (http://www.inkscape.org/) -->

<svg
   xmlns:dc="http://purl.org/dc/elements/1.1/"
   xmlns:cc="http://creativecommons.org/ns#"
   xmlns:rdf="http://www.w3.org/1999/02/22-rdf-syntax-ns#"
   xmlns:svg="http://www.w3.org/2000/svg"
   xmlns="http://www.w3.org/2000/svg"
   xmlns:sodipodi="http://sodipodi.sourceforge.net/DTD/sodipodi-0.dtd"
   xmlns:inkscape="http://www.inkscape.org/namespaces/inkscape"
   width="64"
   height="64"
   viewBox="0 0 16.933333 16.933332"
   version="1.1"
   id="svg8"
   inkscape:version="0.92.4 (5da689c313, 2019-01-14)"
   sodipodi:docname="ACBT.svg">
  <defs
     id="defs2" />
  <sodipodi:namedview
     id="base"
     pagecolor="#ffffff"
     bordercolor="#666666"
     borderopacity="1.0"
     inkscape:pageopacity="0.0"
     inkscape:pageshadow="2"
     inkscape:zoom="15.206941"
     inkscape:cx="33.822029"
     inkscape:cy="31.186989"
     inkscape:document-units="px"
     inkscape:current-layer="layer1"
     showgrid="true"
     units="px"
     inkscape:window-width="2273"
     inkscape:window-height="1138"
     inkscape:window-x="108"
     inkscape:window-y="103"
     inkscape:window-maximized="0"
     showguides="false">
    <inkscape:grid
       type="xygrid"
       id="grid4518" />
  </sodipodi:namedview>
  <metadata
     id="metadata5">
    <rdf:RDF>
      <cc:Work
         rdf:about="">
        <dc:format>image/svg+xml</dc:format>
        <dc:type
           rdf:resource="http://purl.org/dc/dcmitype/StillImage" />
        <dc:title />
      </cc:Work>
    </rdf:RDF>
  </metadata>
  <g
     inkscape:label="Layer 1"
     inkscape:groupmode="layer"
     id="layer1"
     transform="translate(0,-280.06668)"
     style="opacity:0.98000004">
    <rect
       style="opacity:1;fill:#b4b4b4;fill-opacity:1;fill-rule:nonzero;stroke:none;stroke-width:1.12888837;stroke-linecap:round;stroke-linejoin:miter;stroke-miterlimit:4;stroke-dasharray:none;stroke-dashoffset:0;stroke-opacity:1;paint-order:fill markers stroke"
       id="rect824"
       width="1.0583333"
       height="16.933319"
       x="-1.7763568e-15"
       y="280.06668" />
    <rect
       y="280.06668"
       x="15.874999"
       height="16.933319"
       width="1.0583333"
       id="rect831"
       style="opacity:1;fill:#b4b4b4;fill-opacity:1;fill-rule:nonzero;stroke:none;stroke-width:1.12888837;stroke-linecap:round;stroke-linejoin:miter;stroke-miterlimit:4;stroke-dasharray:none;stroke-dashoffset:0;stroke-opacity:1;paint-order:fill markers stroke" />
    <rect
       y="-16.933319"
       x="280.06668"
       height="16.933319"
       width="1.0583333"
       id="rect833"
       style="opacity:1;fill:#b4b4b4;fill-opacity:1;fill-rule:nonzero;stroke:none;stroke-width:1.12888837;stroke-linecap:round;stroke-linejoin:miter;stroke-miterlimit:4;stroke-dasharray:none;stroke-dashoffset:0;stroke-opacity:1;paint-order:fill markers stroke"
       transform="rotate(90)" />
    <rect
       transform="rotate(90)"
       style="opacity:1;fill:#b4b4b4;fill-opacity:1;fill-rule:nonzero;stroke:none;stroke-width:1.12888837;stroke-linecap:round;stroke-linejoin:miter;stroke-miterlimit:4;stroke-dasharray:none;stroke-dashoffset:0;stroke-opacity:1;paint-order:fill markers stroke"
       id="rect835"
       width="1.0583333"
       height="16.933319"
       x="295.94168"
       y="-16.933319" />
    <rect
       style="opacity:1;fill:#ffffff;fill-opacity:1;fill-rule:nonzero;stroke:none;stroke-width:0.17638889;stroke-linecap:round;stroke-linejoin:miter;stroke-miterlimit:4;stroke-dasharray:none;stroke-dashoffset:0;stroke-opacity:1;paint-order:fill markers stroke"
       id="rect837"
       width="14.816666"
       height="14.816666"
       x="1.0583333"
       y="281.125" />
    <path
       style="fill:none;stroke:#787878;stroke-width:0.26458332px;stroke-linecap:butt;stroke-linejoin:miter;stroke-opacity:1"
       d="m 11.641666,288.53335 -3.1749998,-3.175 -3.1749998,3.175 -1.5874999,3.175"
       id="path845"
       inkscape:connector-curvature="0" />
    <path
       style="fill:none;stroke:#787878;stroke-width:0.26458332px;stroke-linecap:butt;stroke-linejoin:miter;stroke-opacity:1"
       d="m 5.2916664,288.53335 1.5874999,3.175"
       id="path847"
       inkscape:connector-curvature="0" />
    <path
       style="fill:none;stroke:#787878;stroke-width:0.26458332px;stroke-linecap:butt;stroke-linejoin:miter;stroke-opacity:1"
       d="m 11.641666,288.53335 -1.5875,3.175"
       id="path849"
       inkscape:connector-curvature="0" />
    <path
       style="fill:#787878;fill-opacity:1;stroke:none;stroke-width:0.26458332px;stroke-linecap:butt;stroke-linejoin:miter;stroke-opacity:1"
       d="m 7.408333,284.5646 c 0,0 0,-0.26458 0.2645833,-0.26458 0.2645833,0 1.5874999,0 1.5874999,0 0,0 0.2645832,0 0.2645832,0.26458 0,0.26459 0,1.5875 0,1.5875 0,0 0,0.26459 -0.2645832,0.26459 -0.2645833,0 -1.5874999,0 -1.5874999,0 0,0 -0.2645833,0 -0.2645833,-0.26459 0,-0.26458 0,-1.5875 0,-1.5875 z"
       id="path829"
       inkscape:connector-curvature="0" />
    <path
       inkscape:connector-curvature="0"
       id="path831"
       d="m 4.2333331,287.7396 c 0,0 0,-0.26458 0.2645833,-0.26458 0.2645833,0 1.5874999,0 1.5874999,0 0,0 0.2645832,0 0.2645832,0.26458 0,0.26459 0,1.5875 0,1.5875 0,0 0,0.26459 -0.2645832,0.26459 -0.2645833,0 -1.5874999,0 -1.5874999,0 0,0 -0.2645833,0 -0.2645833,-0.26459 0,-0.26458 0,-1.5875 0,-1.5875 z"
       style="fill:#787878;fill-opacity:1;stroke:none;stroke-width:0.26458332px;stroke-linecap:butt;stroke-linejoin:miter;stroke-opacity:1" />
    <path
       inkscape:connector-curvature="0"
       id="path833"
       d="m 5.820833,290.9146 c 0,0 0,-0.26458 0.2645833,-0.26458 0.2645833,0 1.5874999,0 1.5874999,0 0,0 0.2645832,0 0.2645832,0.26458 0,0.26459 0,1.5875 0,1.5875 0,0 0,0.26459 -0.2645832,0.26459 -0.2645833,0 -1.5874999,0 -1.5874999,0 0,0 -0.2645833,0 -0.2645833,-0.26459 0,-0.26458 0,-1.5875 0,-1.5875 z"
       style="fill:#787878;fill-opacity:1;stroke:none;stroke-width:0.26458332px;stroke-linecap:butt;stroke-linejoin:miter;stroke-opacity:1" />
    <path
       style="fill:#787878;fill-opacity:1;stroke:none;stroke-width:0.26458332px;stroke-linecap:butt;stroke-linejoin:miter;stroke-opacity:1"
       d="m 2.6458332,290.9146 c 0,0 0,-0.26458 0.2645833,-0.26458 0.2645833,0 1.5874999,0 1.5874999,0 0,0 0.2645832,0 0.2645832,0.26458 0,0.26459 0,1.5875 0,1.5875 0,0 0,0.26459 -0.2645832,0.26459 -0.2645833,0 -1.5874999,0 -1.5874999,0 0,0 -0.2645833,0 -0.2645833,-0.26459 0,-0.26458 0,-1.5875 0,-1.5875 z"
       id="path835"
       inkscape:connector-curvature="0" />
    <path
       inkscape:connector-curvature="0"
       id="path837"
       d="m 10.583333,287.7396 c 0,0 0,-0.26458 0.264583,-0.26458 0.264583,0 1.587499,0 1.587499,0 0,0 0.264584,0 0.264584,0.26458 0,0.26459 0,1.5875 0,1.5875 0,0 0,0.26459 -0.264584,0.26459 -0.264583,0 -1.587499,0 -1.587499,0 0,0 -0.264583,0 -0.264583,-0.26459 0,-0.26458 0,-1.5875 0,-1.5875 z"
       style="fill:#787878;fill-opacity:1;stroke:none;stroke-width:0.26458332px;stroke-linecap:butt;stroke-linejoin:miter;stroke-opacity:1" />
    <path
       style="fill:#787878;fill-opacity:1;stroke:none;stroke-width:0.26458332px;stroke-linecap:butt;stroke-linejoin:miter;stroke-opacity:1"
       d="m 8.9958329,290.9146 c 0,0 0,-0.26458 0.2645831,-0.26458 0.264583,0 1.5875,0 1.5875,0 0,0 0.264583,0 0.264583,0.26458 0,0.26459 0,1.5875 0,1.5875 0,0 0,0.26459 -0.264583,0.26459 -0.264583,0 -1.5875,0 -1.5875,0 0,0 -0.2645831,0 -0.2645831,-0.26459 0,-0.26458 0,-1.5875 0,-1.5875 z"
       id="path839"
       inkscape:connector-curvature="0" />
  </g>
</svg>
