<?xml version="1.0" encoding="UTF-8" standalone="no"?>
<!-- Created with Inkscape (http://www.inkscape.org/) -->

<svg
   xmlns:dc="http://purl.org/dc/elements/1.1/"
   xmlns:cc="http://creativecommons.org/ns#"
   xmlns:rdf="http://www.w3.org/1999/02/22-rdf-syntax-ns#"
   xmlns:svg="http://www.w3.org/2000/svg"
   xmlns="http://www.w3.org/2000/svg"
   xmlns:sodipodi="http://sodipodi.sourceforge.net/DTD/sodipodi-0.dtd"
   xmlns:inkscape="http://www.inkscape.org/namespaces/inkscape"
   width="360pt"
   height="240pt"
   viewBox="0 0 127 84.66666"
   version="1.1"
   id="svg8"
   inkscape:version="0.92.4 (5da689c313, 2019-01-14)"
   sodipodi:docname="input.svg">
  <defs
     id="defs2" />
  <sodipodi:namedview
     id="base"
     pagecolor="#ffffff"
     bordercolor="#666666"
     borderopacity="1.0"
     inkscape:pageopacity="0.0"
     inkscape:pageshadow="2"
     inkscape:zoom="3.3225002"
     inkscape:cx="204.77057"
     inkscape:cy="138.04536"
     inkscape:document-units="pt"
     inkscape:current-layer="layer1"
     showgrid="true"
     units="pt"
     inkscape:window-width="2361"
     inkscape:window-height="1212"
     inkscape:window-x="108"
     inkscape:window-y="103"
     inkscape:window-maximized="0">
    <inkscape:grid
       type="xygrid"
       id="grid4518" />
  </sodipodi:namedview>
  <metadata
     id="metadata5">
    <rdf:RDF>
      <cc:Work
         rdf:about="">
        <dc:format>image/svg+xml</dc:format>
        <dc:type
           rdf:resource="http://purl.org/dc/dcmitype/StillImage" />
        <dc:title />
      </cc:Work>
    </rdf:RDF>
  </metadata>
  <g
     inkscape:label="Layer 1"
     inkscape:groupmode="layer"
     id="layer1"
     transform="translate(0,-212.33335)"
     style="opacity:0.99">
    <path
       style="fill:#207bee;fill-opacity:1;stroke:none;stroke-width:0.26458332px;stroke-linecap:butt;stroke-linejoin:miter;stroke-opacity:1"
       d="m 97.89583,246.7292 5.29168,3.96873 -1e-5,-2.64583 9.26041,-5e-5 -10e-6,-2.64583 -9.26042,4e-5 -10e-6,-2.64583 z"
       id="path1016"
       inkscape:connector-curvature="0"
       sodipodi:nodetypes="cccccccc" />
    <rect
       style="opacity:1;fill:#ffffff;fill-opacity:1;fill-rule:nonzero;stroke:#505050;stroke-width:0.35277775;stroke-linecap:round;stroke-linejoin:round;stroke-miterlimit:4;stroke-dasharray:none;stroke-dashoffset:0;stroke-opacity:1;paint-order:normal"
       id="rect840"
       width="37.041672"
       height="47.625008"
       x="54.239582"
       y="228.20834" />
    <path
       style="fill:#e1e1e1;fill-opacity:1;stroke:#000000;stroke-width:0.35277775;stroke-linecap:butt;stroke-linejoin:miter;stroke-miterlimit:4;stroke-dasharray:none;stroke-opacity:1"
       d="m 54.239581,228.20835 -25.135415,13.22917 v 47.62499 l 25.135415,-13.22916 z"
       id="path842"
       inkscape:connector-curvature="0"
       sodipodi:nodetypes="ccccc" />
    <rect
       style="opacity:1;fill:#f0f0f0;fill-opacity:1;fill-rule:nonzero;stroke:#505050;stroke-width:0.35277775;stroke-linecap:round;stroke-linejoin:round;stroke-miterlimit:4;stroke-dasharray:none;stroke-dashoffset:0;stroke-opacity:1;paint-order:normal"
       id="rect844"
       width="2.6458318"
       height="47.624996"
       x="26.458334"
       y="241.43752" />
    <path
       style="fill:#e1e1e1;fill-opacity:1;stroke:#000000;stroke-width:0.35277775;stroke-linecap:butt;stroke-linejoin:miter;stroke-miterlimit:4;stroke-dasharray:none;stroke-opacity:1"
       d="m 54.239581,228.20835 2.645834,-1.32292 h 31.749999 l 2.645832,1.32292 z"
       id="path848"
       inkscape:connector-curvature="0"
       sodipodi:nodetypes="ccccc" />
    <path
       style="fill:none;stroke:#000000;stroke-width:0.35277775;stroke-linecap:butt;stroke-linejoin:miter;stroke-miterlimit:4;stroke-dasharray:none;stroke-opacity:1"
       d="m 26.458333,241.43752 25.135415,-13.22917 h 2.645833 l -25.135415,13.22917 z"
       id="path850"
       inkscape:connector-curvature="0" />
    <path
       style="fill:#e8bdab;fill-opacity:1;stroke:none;stroke-width:0.26458332px;stroke-linecap:butt;stroke-linejoin:miter;stroke-opacity:1"
       d="m 56.885414,233.50001 c 0,0 0,-1.32291 1.322916,-1.32291 1.322917,0 11.90625,0 11.90625,0 0,0 1.322916,0 1.322916,1.32291 0,1.32292 0,5.29167 0,5.29167 0,0 0,1.32291 -1.322916,1.32291 -1.322917,0 -11.90625,0 -11.90625,0 0,0 -1.322916,0 -1.322916,-1.32291 0,-1.32292 0,-5.29167 0,-5.29167 z"
       id="path884"
       inkscape:connector-curvature="0" />
    <path
       style="opacity:0.98999999;fill:#4ed5b9;fill-opacity:1;stroke:none;stroke-width:0.26458332px;stroke-linecap:butt;stroke-linejoin:miter;stroke-opacity:1"
       d="m 74.08333,233.50001 c 0,0 0,-1.32291 1.322916,-1.32291 1.322917,0 11.90625,0 11.90625,0 0,0 1.322916,0 1.322916,1.32291 0,1.32292 0,5.29167 0,5.29167 0,0 0,1.32291 -1.322916,1.32291 -1.322917,0 -11.90625,0 -11.90625,0 0,0 -1.322916,0 -1.322916,-1.32291 0,-1.32292 0,-5.29167 0,-5.29167 z"
       id="path884-9"
       inkscape:connector-curvature="0" />
    <path
       style="opacity:0.98999999;fill:#d5e674;fill-opacity:1;stroke:none;stroke-width:0.26458332px;stroke-linecap:butt;stroke-linejoin:miter;stroke-opacity:1"
       d="m 74.08333,265.25001 c 0,0 0,-1.32291 1.322916,-1.32291 1.322917,0 11.90625,0 11.90625,0 0,0 1.322916,0 1.322916,1.32291 0,1.32292 0,5.29167 0,5.29167 0,0 0,1.32291 -1.322916,1.32291 -1.322917,0 -11.90625,0 -11.90625,0 0,0 -1.322916,0 -1.322916,-1.32291 0,-1.32292 0,-5.29167 0,-5.29167 z"
       id="path884-99"
       inkscape:connector-curvature="0" />
    <path
       style="opacity:0.98999999;fill:#4ed574;fill-opacity:1;stroke:none;stroke-width:0.26458332px;stroke-linecap:butt;stroke-linejoin:miter;stroke-opacity:1"
       d="m 79.374997,244.08335 c 0,0 0,-1.32291 1.322916,-1.32291 1.322917,0 11.90625,0 11.90625,0 0,0 1.322917,0 1.322917,1.32291 0,1.32292 0,5.29167 0,5.29167 0,0 0,1.32291 -1.322917,1.32291 -1.322916,0 -11.90625,0 -11.90625,0 0,0 -1.322916,0 -1.322916,-1.32291 0,-1.32292 0,-5.29167 0,-5.29167 z"
       id="path884-9-8"
       inkscape:connector-curvature="0" />
    <path
       style="opacity:0.98999999;fill:#79d5e5;fill-opacity:1;stroke:none;stroke-width:0.26458332px;stroke-linecap:butt;stroke-linejoin:miter;stroke-opacity:1"
       d="m 56.885414,254.66668 c 0,0 0,-1.32291 1.322916,-1.32291 1.322917,0 11.90625,0 11.90625,0 0,0 1.322916,0 1.322916,1.32291 0,1.32292 0,5.29167 0,5.29167 0,0 0,1.32291 -1.322916,1.32291 -1.322917,0 -11.90625,0 -11.90625,0 0,0 -1.322916,0 -1.322916,-1.32291 0,-1.32292 0,-5.29167 0,-5.29167 z"
       id="path884-6"
       inkscape:connector-curvature="0" />
    <path
       style="opacity:0.98999999;fill:#e5c374;fill-opacity:1;stroke:none;stroke-width:0.26458332px;stroke-linecap:butt;stroke-linejoin:miter;stroke-opacity:1"
       d="m 74.08333,254.66668 c 0,0 0,-1.32291 1.322916,-1.32291 1.322917,0 11.90625,0 11.90625,0 0,0 1.322917,0 1.322917,1.32291 0,1.32292 0,5.29167 0,5.29167 0,0 0,1.32291 -1.322917,1.32291 -1.322916,0 -11.90625,0 -11.90625,0 0,0 -1.322916,0 -1.322916,-1.32291 0,-1.32292 0,-5.29167 0,-5.29167 z"
       id="path884-9-0"
       inkscape:connector-curvature="0" />
    <path
       style="opacity:0.98999999;fill:#c49cbb;fill-opacity:1;stroke:none;stroke-width:0.26458332px;stroke-linecap:butt;stroke-linejoin:miter;stroke-opacity:1"
       d="m 56.885414,265.25001 c 0,0 0,-1.32291 1.322916,-1.32291 1.322917,0 11.90625,0 11.90625,0 0,0 1.322916,0 1.322916,1.32291 0,1.32292 0,5.29167 0,5.29167 0,0 0,1.32291 -1.322916,1.32291 -1.322917,0 -11.90625,0 -11.90625,0 0,0 -1.322916,0 -1.322916,-1.32291 0,-1.32292 0,-5.29167 0,-5.29167 z"
       id="path884-5"
       inkscape:connector-curvature="0" />
    <path
       style="opacity:0.98999999;fill:#cdcbca;fill-opacity:1;stroke:none;stroke-width:0.26458332px;stroke-linecap:butt;stroke-linejoin:miter;stroke-opacity:1"
       d="m 56.885414,244.08335 c 0,0 0,-1.32291 1.322916,-1.32291 1.322917,0 11.90625,0 11.90625,0 0,0 1.322917,0 1.322917,1.32291 0,1.32292 0,5.29167 0,5.29167 0,0 0,1.32291 -1.322917,1.32291 -1.322916,0 -11.90625,0 -11.90625,0 0,0 -1.322916,0 -1.322916,-1.32291 0,-1.32292 0,-5.29167 0,-5.29167 z"
       id="path884-9-03"
       inkscape:connector-curvature="0" />
  </g>
</svg>
