<?xml version='1.0' encoding='UTF-8'?>
<svg width="45mm" height="45mm" version="1.1" viewBox="0 0 45 45" xmlns="http://www.w3.org/2000/svg"><path d="M4,4H5V5H4zM5,4H6V5H5zM6,4H7V5H6zM7,4H8V5H7zM8,4H9V5H8zM9,4H10V5H9zM10,4H11V5H10zM13,4H14V5H13zM16,4H17V5H16zM18,4H19V5H18zM19,4H20V5H19zM21,4H22V5H21zM23,4H24V5H23zM24,4H25V5H24zM25,4H26V5H25zM27,4H28V5H27zM34,4H35V5H34zM35,4H36V5H35zM36,4H37V5H36zM37,4H38V5H37zM38,4H39V5H38zM39,4H40V5H39zM40,4H41V5H40zM4,5H5V6H4zM10,5H11V6H10zM15,5H16V6H15zM17,5H18V6H17zM18,5H19V6H18zM21,5H22V6H21zM29,5H30V6H29zM31,5H32V6H31zM32,5H33V6H32zM34,5H35V6H34zM40,5H41V6H40zM4,6H5V7H4zM6,6H7V7H6zM7,6H8V7H7zM8,6H9V7H8zM10,6H11V7H10zM12,6H13V7H12zM14,6H15V7H14zM15,6H16V7H15zM16,6H17V7H16zM17,6H18V7H17zM20,6H21V7H20zM25,6H26V7H25zM26,6H27V7H26zM34,6H35V7H34zM36,6H37V7H36zM37,6H38V7H37zM38,6H39V7H38zM40,6H41V7H40zM4,7H5V8H4zM6,7H7V8H6zM7,7H8V8H7zM8,7H9V8H8zM10,7H11V8H10zM12,7H13V8H12zM14,7H15V8H14zM16,7H17V8H16zM19,7H20V8H19zM20,7H21V8H20zM21,7H22V8H21zM23,7H24V8H23zM26,7H27V8H26zM28,7H29V8H28zM29,7H30V8H29zM30,7H31V8H30zM31,7H32V8H31zM32,7H33V8H32zM34,7H35V8H34zM36,7H37V8H36zM37,7H38V8H37zM38,7H39V8H38zM40,7H41V8H40zM4,8H5V9H4zM6,8H7V9H6zM7,8H8V9H7zM8,8H9V9H8zM10,8H11V9H10zM12,8H13V9H12zM14,8H15V9H14zM15,8H16V9H15zM19,8H20V9H19zM20,8H21V9H20zM22,8H23V9H22zM23,8H24V9H23zM25,8H26V9H25zM27,8H28V9H27zM29,8H30V9H29zM32,8H33V9H32zM34,8H35V9H34zM36,8H37V9H36zM37,8H38V9H37zM38,8H39V9H38zM40,8H41V9H40zM4,9H5V10H4zM10,9H11V10H10zM12,9H13V10H12zM13,9H14V10H13zM16,9H17V10H16zM17,9H18V10H17zM18,9H19V10H18zM19,9H20V10H19zM20,9H21V10H20zM24,9H25V10H24zM25,9H26V10H25zM28,9H29V10H28zM29,9H30V10H29zM30,9H31V10H30zM31,9H32V10H31zM32,9H33V10H32zM34,9H35V10H34zM40,9H41V10H40zM4,10H5V11H4zM5,10H6V11H5zM6,10H7V11H6zM7,10H8V11H7zM8,10H9V11H8zM9,10H10V11H9zM10,10H11V11H10zM12,10H13V11H12zM14,10H15V11H14zM16,10H17V11H16zM18,10H19V11H18zM20,10H21V11H20zM22,10H23V11H22zM24,10H25V11H24zM26,10H27V11H26zM28,10H29V11H28zM30,10H31V11H30zM32,10H33V11H32zM34,10H35V11H34zM35,10H36V11H35zM36,10H37V11H36zM37,10H38V11H37zM38,10H39V11H38zM39,10H40V11H39zM40,10H41V11H40zM12,11H13V12H12zM14,11H15V12H14zM15,11H16V12H15zM18,11H19V12H18zM22,11H23V12H22zM23,11H24V12H23zM25,11H26V12H25zM26,11H27V12H26zM27,11H28V12H27zM30,11H31V12H30zM31,11H32V12H31zM32,11H33V12H32zM4,12H5V13H4zM6,12H7V13H6zM7,12H8V13H7zM8,12H9V13H8zM9,12H10V13H9zM10,12H11V13H10zM19,12H20V13H19zM21,12H22V13H21zM26,12H27V13H26zM27,12H28V13H27zM28,12H29V13H28zM29,12H30V13H29zM30,12H31V13H30zM31,12H32V13H31zM32,12H33V13H32zM34,12H35V13H34zM35,12H36V13H35zM36,12H37V13H36zM37,12H38V13H37zM38,12H39V13H38zM6,13H7V14H6zM8,13H9V14H8zM9,13H10V14H9zM12,13H13V14H12zM16,13H17V14H16zM17,13H18V14H17zM18,13H19V14H18zM19,13H20V14H19zM20,13H21V14H20zM22,13H23V14H22zM23,13H24V14H23zM24,13H25V14H24zM26,13H27V14H26zM27,13H28V14H27zM29,13H30V14H29zM32,13H33V14H32zM35,13H36V14H35zM37,13H38V14H37zM39,13H40V14H39zM4,14H5V15H4zM5,14H6V15H5zM6,14H7V15H6zM7,14H8V15H7zM8,14H9V15H8zM9,14H10V15H9zM10,14H11V15H10zM13,14H14V15H13zM14,14H15V15H14zM16,14H17V15H16zM17,14H18V15H17zM21,14H22V15H21zM22,14H23V15H22zM26,14H27V15H26zM28,14H29V15H28zM31,14H32V15H31zM32,14H33V15H32zM33,14H34V15H33zM34,14H35V15H34zM35,14H36V15H35zM36,14H37V15H36zM39,14H40V15H39zM40,14H41V15H40zM7,15H8V16H7zM8,15H9V16H8zM11,15H12V16H11zM13,15H14V16H13zM14,15H15V16H14zM15,15H16V16H15zM18,15H19V16H18zM20,15H21V16H20zM22,15H23V16H22zM23,15H24V16H23zM24,15H25V16H24zM25,15H26V16H25zM28,15H29V16H28zM30,15H31V16H30zM31,15H32V16H31zM32,15H33V16H32zM33,15H34V16H33zM35,15H36V16H35zM37,15H38V16H37zM40,15H41V16H40zM5,16H6V17H5zM8,16H9V17H8zM10,16H11V17H10zM11,16H12V17H11zM15,16H16V17H15zM16,16H17V17H16zM17,16H18V17H17zM20,16H21V17H20zM21,16H22V17H21zM23,16H24V17H23zM28,16H29V17H28zM29,16H30V17H29zM30,16H31V17H30zM32,16H33V17H32zM33,16H34V17H33zM34,16H35V17H34zM35,16H36V17H35zM36,16H37V17H36zM37,16H38V17H37zM38,16H39V17H38zM39,16H40V17H39zM40,16H41V17H40zM8,17H9V18H8zM12,17H13V18H12zM13,17H14V18H13zM15,17H16V18H15zM17,17H18V18H17zM18,17H19V18H18zM21,17H22V18H21zM22,17H23V18H22zM23,17H24V18H23zM24,17H25V18H24zM25,17H26V18H25zM27,17H28V18H27zM28,17H29V18H28zM32,17H33V18H32zM33,17H34V18H33zM35,17H36V18H35zM39,17H40V18H39zM5,18H6V19H5zM8,18H9V19H8zM10,18H11V19H10zM12,18H13V19H12zM13,18H14V19H13zM16,18H17V19H16zM19,18H20V19H19zM20,18H21V19H20zM24,18H25V19H24zM25,18H26V19H25zM26,18H27V19H26zM30,18H31V19H30zM31,18H32V19H31zM33,18H34V19H33zM35,18H36V19H35zM36,18H37V19H36zM37,18H38V19H37zM40,18H41V19H40zM4,19H5V20H4zM6,19H7V20H6zM8,19H9V20H8zM9,19H10V20H9zM13,19H14V20H13zM14,19H15V20H14zM18,19H19V20H18zM19,19H20V20H19zM25,19H26V20H25zM31,19H32V20H31zM32,19H33V20H32zM33,19H34V20H33zM35,19H36V20H35zM36,19H37V20H36zM39,19H40V20H39zM4,20H5V21H4zM6,20H7V21H6zM7,20H8V21H7zM8,20H9V21H8zM10,20H11V21H10zM11,20H12V21H11zM13,20H14V21H13zM15,20H16V21H15zM18,20H19V21H18zM20,20H21V21H20zM21,20H22V21H21zM23,20H24V21H23zM27,20H28V21H27zM29,20H30V21H29zM30,20H31V21H30zM31,20H32V21H31zM33,20H34V21H33zM34,20H35V21H34zM36,20H37V21H36zM38,20H39V21H38zM39,20H40V21H39zM6,21H7V22H6zM11,21H12V22H11zM16,21H17V22H16zM19,21H20V22H19zM21,21H22V22H21zM22,21H23V22H22zM23,21H24V22H23zM27,21H28V22H27zM29,21H30V22H29zM32,21H33V22H32zM33,21H34V22H33zM35,21H36V22H35zM38,21H39V22H38zM39,21H40V22H39zM4,22H5V23H4zM9,22H10V23H9zM10,22H11V23H10zM11,22H12V23H11zM12,22H13V23H12zM13,22H14V23H13zM14,22H15V23H14zM16,22H17V23H16zM19,22H20V23H19zM20,22H21V23H20zM21,22H22V23H21zM24,22H25V23H24zM26,22H27V23H26zM29,22H30V23H29zM30,22H31V23H30zM31,22H32V23H31zM33,22H34V23H33zM34,22H35V23H34zM37,22H38V23H37zM38,22H39V23H38zM39,22H40V23H39zM40,22H41V23H40zM4,23H5V24H4zM5,23H6V24H5zM7,23H8V24H7zM11,23H12V24H11zM14,23H15V24H14zM17,23H18V24H17zM19,23H20V24H19zM24,23H25V24H24zM25,23H26V24H25zM26,23H27V24H26zM31,23H32V24H31zM33,23H34V24H33zM35,23H36V24H35zM36,23H37V24H36zM37,23H38V24H37zM40,23H41V24H40zM7,24H8V25H7zM10,24H11V25H10zM11,24H12V25H11zM12,24H13V25H12zM13,24H14V25H13zM14,24H15V25H14zM17,24H18V25H17zM18,24H19V25H18zM19,24H20V25H19zM20,24H21V25H20zM21,24H22V25H21zM23,24H24V25H23zM26,24H27V25H26zM28,24H29V25H28zM29,24H30V25H29zM30,24H31V25H30zM32,24H33V25H32zM33,24H34V25H33zM34,24H35V25H34zM36,24H37V25H36zM38,24H39V25H38zM6,25H7V26H6zM7,25H8V26H7zM9,25H10V26H9zM11,25H12V26H11zM13,25H14V26H13zM21,25H22V26H21zM22,25H23V26H22zM23,25H24V26H23zM24,25H25V26H24zM26,25H27V26H26zM27,25H28V26H27zM32,25H33V26H32zM33,25H34V26H33zM37,25H38V26H37zM4,26H5V27H4zM5,26H6V27H5zM6,26H7V27H6zM8,26H9V27H8zM10,26H11V27H10zM12,26H13V27H12zM13,26H14V27H13zM15,26H16V27H15zM17,26H18V27H17zM18,26H19V27H18zM19,26H20V27H19zM26,26H27V27H26zM29,26H30V27H29zM30,26H31V27H30zM31,26H32V27H31zM32,26H33V27H32zM34,26H35V27H34zM35,26H36V27H35zM36,26H37V27H36zM37,26H38V27H37zM40,26H41V27H40zM4,27H5V28H4zM5,27H6V28H5zM6,27H7V28H6zM8,27H9V28H8zM9,27H10V28H9zM12,27H13V28H12zM13,27H14V28H13zM14,27H15V28H14zM15,27H16V28H15zM18,27H19V28H18zM22,27H23V28H22zM24,27H25V28H24zM25,27H26V28H25zM26,27H27V28H26zM27,27H28V28H27zM31,27H32V28H31zM35,27H36V28H35zM36,27H37V28H36zM40,27H41V28H40zM5,28H6V29H5zM7,28H8V29H7zM8,28H9V29H8zM9,28H10V29H9zM10,28H11V29H10zM11,28H12V29H11zM13,28H14V29H13zM14,28H15V29H14zM15,28H16V29H15zM16,28H17V29H16zM19,28H20V29H19zM22,28H23V29H22zM26,28H27V29H26zM27,28H28V29H27zM28,28H29V29H28zM29,28H30V29H29zM30,28H31V29H30zM33,28H34V29H33zM34,28H35V29H34zM36,28H37V29H36zM38,28H39V29H38zM39,28H40V29H39zM40,28H41V29H40zM4,29H5V30H4zM5,29H6V30H5zM9,29H10V30H9zM12,29H13V30H12zM13,29H14V30H13zM14,29H15V30H14zM15,29H16V30H15zM17,29H18V30H17zM18,29H19V30H18zM19,29H20V30H19zM20,29H21V30H20zM21,29H22V30H21zM22,29H23V30H22zM23,29H24V30H23zM24,29H25V30H24zM25,29H26V30H25zM27,29H28V30H27zM30,29H31V30H30zM32,29H33V30H32zM35,29H36V30H35zM37,29H38V30H37zM4,30H5V31H4zM6,30H7V31H6zM10,30H11V31H10zM11,30H12V31H11zM13,30H14V31H13zM15,30H16V31H15zM16,30H17V31H16zM21,30H22V31H21zM24,30H25V31H24zM28,30H29V31H28zM29,30H30V31H29zM30,30H31V31H30zM31,30H32V31H31zM33,30H34V31H33zM34,30H35V31H34zM35,30H36V31H35zM37,30H38V31H37zM39,30H40V31H39zM40,30H41V31H40zM4,31H5V32H4zM6,31H7V32H6zM7,31H8V32H7zM8,31H9V32H8zM9,31H10V32H9zM11,31H12V32H11zM12,31H13V32H12zM16,31H17V32H16zM18,31H19V32H18zM20,31H21V32H20zM25,31H26V32H25zM26,31H27V32H26zM27,31H28V32H27zM28,31H29V32H28zM30,31H31V32H30zM31,31H32V32H31zM32,31H33V32H32zM33,31H34V32H33zM37,31H38V32H37zM39,31H40V32H39zM4,32H5V33H4zM8,32H9V33H8zM9,32H10V33H9zM10,32H11V33H10zM13,32H14V33H13zM18,32H19V33H18zM20,32H21V33H20zM21,32H22V33H21zM23,32H24V33H23zM24,32H25V33H24zM26,32H27V33H26zM28,32H29V33H28zM29,32H30V33H29zM31,32H32V33H31zM32,32H33V33H32zM33,32H34V33H33zM34,32H35V33H34zM35,32H36V33H35zM36,32H37V33H36zM37,32H38V33H37zM38,32H39V33H38zM39,32H40V33H39zM12,33H13V34H12zM13,33H14V34H13zM14,33H15V34H14zM17,33H18V34H17zM21,33H22V34H21zM22,33H23V34H22zM23,33H24V34H23zM24,33H25V34H24zM25,33H26V34H25zM26,33H27V34H26zM27,33H28V34H27zM31,33H32V34H31zM32,33H33V34H32zM36,33H37V34H36zM37,33H38V34H37zM39,33H40V34H39zM4,34H5V35H4zM5,34H6V35H5zM6,34H7V35H6zM7,34H8V35H7zM8,34H9V35H8zM9,34H10V35H9zM10,34H11V35H10zM17,34H18V35H17zM18,34H19V35H18zM19,34H20V35H19zM20,34H21V35H20zM21,34H22V35H21zM24,34H25V35H24zM25,34H26V35H25zM29,34H30V35H29zM32,34H33V35H32zM34,34H35V35H34zM36,34H37V35H36zM38,34H39V35H38zM40,34H41V35H40zM4,35H5V36H4zM10,35H11V36H10zM12,35H13V36H12zM14,35H15V36H14zM15,35H16V36H15zM17,35H18V36H17zM18,35H19V36H18zM20,35H21V36H20zM21,35H22V36H21zM22,35H23V36H22zM25,35H26V36H25zM26,35H27V36H26zM27,35H28V36H27zM28,35H29V36H28zM30,35H31V36H30zM32,35H33V36H32zM36,35H37V36H36zM37,35H38V36H37zM39,35H40V36H39zM40,35H41V36H40zM4,36H5V37H4zM6,36H7V37H6zM7,36H8V37H7zM8,36H9V37H8zM10,36H11V37H10zM12,36H13V37H12zM13,36H14V37H13zM15,36H16V37H15zM17,36H18V37H17zM18,36H19V37H18zM20,36H21V37H20zM26,36H27V37H26zM30,36H31V37H30zM31,36H32V37H31zM32,36H33V37H32zM33,36H34V37H33zM34,36H35V37H34zM35,36H36V37H35zM36,36H37V37H36zM38,36H39V37H38zM39,36H40V37H39zM40,36H41V37H40zM4,37H5V38H4zM6,37H7V38H6zM7,37H8V38H7zM8,37H9V38H8zM10,37H11V38H10zM12,37H13V38H12zM13,37H14V38H13zM14,37H15V38H14zM15,37H16V38H15zM16,37H17V38H16zM17,37H18V38H17zM18,37H19V38H18zM19,37H20V38H19zM21,37H22V38H21zM22,37H23V38H22zM23,37H24V38H23zM24,37H25V38H24zM25,37H26V38H25zM27,37H28V38H27zM29,37H30V38H29zM30,37H31V38H30zM31,37H32V38H31zM32,37H33V38H32zM34,37H35V38H34zM36,37H37V38H36zM38,37H39V38H38zM40,37H41V38H40zM4,38H5V39H4zM6,38H7V39H6zM7,38H8V39H7zM8,38H9V39H8zM10,38H11V39H10zM12,38H13V39H12zM13,38H14V39H13zM15,38H16V39H15zM16,38H17V39H16zM18,38H19V39H18zM19,38H20V39H19zM20,38H21V39H20zM21,38H22V39H21zM22,38H23V39H22zM25,38H26V39H25zM26,38H27V39H26zM29,38H30V39H29zM30,38H31V39H30zM32,38H33V39H32zM38,38H39V39H38zM39,38H40V39H39zM40,38H41V39H40zM4,39H5V40H4zM10,39H11V40H10zM14,39H15V40H14zM16,39H17V40H16zM17,39H18V40H17zM18,39H19V40H18zM19,39H20V40H19zM23,39H24V40H23zM24,39H25V40H24zM25,39H26V40H25zM27,39H28V40H27zM32,39H33V40H32zM36,39H37V40H36zM40,39H41V40H40zM4,40H5V41H4zM5,40H6V41H5zM6,40H7V41H6zM7,40H8V41H7zM8,40H9V41H8zM9,40H10V41H9zM10,40H11V41H10zM12,40H13V41H12zM17,40H18V41H17zM19,40H20V41H19zM21,40H22V41H21zM22,40H23V41H22zM23,40H24V41H23zM26,40H27V41H26zM27,40H28V41H27zM28,40H29V41H28zM29,40H30V41H29zM30,40H31V41H30zM33,40H34V41H33zM34,40H35V41H34zM36,40H37V41H36zM37,40H38V41H37zM38,40H39V41H38zM39,40H40V41H39zM40,40H41V41H40z" id="qr-path" fill="#000000" fill-opacity="1" fill-rule="nonzero" stroke="none"/></svg>