<?xml version="1.0" encoding="UTF-8" standalone="no"?>
<svg
xmlns:svg="http://www.w3.org/2000/svg"
xmlns="http://www.w3.org/2000/svg"
xmlns:xlink="http://www.w3.org/1999/xlink"
width ="640"
height ="1380"
viewBox ="0 0 640 1380"
>
<defs><polygon points="0,0 6,8, 0,16 20,8" id="m_tmpl2"/><marker id="token_arrow"  markerUnits="userSpaceOnUse" markerWidth="20" markerHeight="16" viewBox="0 0 20 16" refX="14" refY="8" orient="auto"><use xlink:href="#m_tmpl2" fill="#60a0ff"/></marker></defs><defs><polygon points="0,0 0,4 0,8 12,4" id="m_tmpl3"/><marker id="link_arrow" markerUnits="strokeWidth" markerWidth="12" markerHeight="8" viewBox="0 0 12 8" refX="12" refY="4" orient="auto"><use xlink:href="#m_tmpl3" fill="#888888"/></marker></defs><rect x ="0" y="0" width="280" height="260" fill="#ffffff" stroke="#888888" stroke-width="1"/><path fill="#0088e0" d="M 292 130 L 292 110 L 312 130 L 292 150 z" /><g transform="translate(0,0)"><defs><polygon points="0,0 6,6 0,12 18,6" id="m_tmpl2"/><marker id="m_o1" markerUnits="strokeWidth" markerWidth="10" markerHeight="10" viewBox="0 0 18 12" refX="18" refY="6" orient="auto"><use xlink:href="#m_tmpl2" fill="#a0a0a0"/></marker></defs><g transform="translate(0,70) scale(1)"><g fill="#ffffff" stroke="#a0a0a0" stroke-width="1"><circle cx="42" cy="0" r="14" /><circle cx="84" cy="0" r="14" /><circle cx="126" cy="0" r="14" /><circle cx="168" cy="0" r="14" /><circle cx="210" cy="0" r="14" /><circle cx="252" cy="0" r="14" /></g><g font-size="9" font-family="Verdana" fill="#888888"><text x="42" y="-22" dominant-baseline="central" text-anchor="middle">0</text><text x="84" y="-22" dominant-baseline="central" text-anchor="middle">1</text><text x="126" y="-22" dominant-baseline="central" text-anchor="middle">2</text><text x="168" y="-22" dominant-baseline="central" text-anchor="middle">3</text><text x="210" y="-22" dominant-baseline="central" text-anchor="middle">4</text><text x="252" y="-22" dominant-baseline="central" text-anchor="middle">5</text></g></g><g transform="translate(252,28) scale(1)"><g fill="#ffffff" stroke="#a0a0a0" stroke-width="1"><path d="M -14 0 L 0-14 L 14 0 L 0 14 L -14 0 z" /></g></g><g transform="translate(252,28) scale(1)"><g class="flash_g" fill="#ffffff" stroke="#ff1493" stroke-width="1"  ><path d="M 0 -14 L -14 0 L 0 14 z" fill="#ff1493" stroke-width="0" /></g><g fill="none" stroke="#a0a0a0" stroke-width="1"><path d="M 0 -14 L 14 0 L 0 14 L -14 0 z"  /></g></g><g transform="translate(0,70) scale(1)"><g class="flash_g" fill="#ffffff" stroke="#ff1493" stroke-width="2"><circle cx="42" cy="0" r="14" /></g></g><g transform="translate(0,70) scale(1)"><g class="flash_g" fill="#ffffff" stroke="#ff1493" stroke-width="2"><circle cx="84" cy="0" r="14" /></g></g><g transform="translate(0,70) scale(1)"><g stroke-width="0"><circle cx="42" cy="0" r="10" fill="#8FCFFF" id="var_rank_1__0" /><circle cx="84" cy="0" r="10" fill="#8FCFFF" id="var_rank_1__1" /><circle cx="126" cy="0" r="10" fill="#8FCFFF" id="var_rank_1__2" /><circle cx="168" cy="0" r="10" fill="#8FCFFF" id="var_rank_1__3" /><circle cx="210" cy="0" r="10" fill="#8FCFFF" id="var_rank_1__4" /><circle cx="252" cy="0" r="10" fill="#8FCFFF" id="var_rank_1__5" /></g><g font-size="14" font-family="sans-serif" fill="#ffffff"><text id="text_rank_1__0" x="42" y="0" dominant-baseline="central" text-anchor="middle">0</text><text id="text_rank_1__1" x="84" y="0" dominant-baseline="central" text-anchor="middle">0</text><text id="text_rank_1__2" x="126" y="0" dominant-baseline="central" text-anchor="middle">0</text><text id="text_rank_1__3" x="168" y="0" dominant-baseline="central" text-anchor="middle">0</text><text id="text_rank_1__4" x="210" y="0" dominant-baseline="central" text-anchor="middle">0</text><text id="text_rank_1__5" x="252" y="0" dominant-baseline="central" text-anchor="middle">0</text></g></g></g><text x="16" y="20" font-size="16" text-anchor="middle" fill="#888888" font-family="sans-serif" >1-1</text><text x="140" y="244" font-size="9" text-anchor="middle" font-family="SimSun, 宋体, serif">合并 0 和 1。比较秩</text><rect x ="320" y="0" width="280" height="260" fill="#ffffff" stroke="#888888" stroke-width="1"/><path fill="#0088e0" d="M 612 130 L 612 110 L 632 130 L 612 150 z" /><g transform="translate(320,0)"><defs><polygon points="0,0 6,6 0,12 18,6" id="m_tmpl2"/><marker id="m_o1" markerUnits="strokeWidth" markerWidth="10" markerHeight="10" viewBox="0 0 18 12" refX="18" refY="6" orient="auto"><use xlink:href="#m_tmpl2" fill="#a0a0a0"/></marker></defs><g transform="translate(0,70) scale(1)"><g fill="#ffffff" stroke="#a0a0a0" stroke-width="1"><path d="M 42 56 Q 42 35 42 14"  marker-end="url(#link_arrow)"/><circle cx="42" cy="70" r="14" /><circle cx="42" cy="0" r="14" /><circle cx="84" cy="0" r="14" /><circle cx="126" cy="0" r="14" /><circle cx="168" cy="0" r="14" /><circle cx="210" cy="0" r="14" /></g><g font-size="9" font-family="Verdana" fill="#888888"><text x="42" y="47" dominant-baseline="central" text-anchor="middle">0</text><text x="42" y="-22" dominant-baseline="central" text-anchor="middle">1</text><text x="84" y="-22" dominant-baseline="central" text-anchor="middle">2</text><text x="126" y="-22" dominant-baseline="central" text-anchor="middle">3</text><text x="168" y="-22" dominant-baseline="central" text-anchor="middle">4</text><text x="210" y="-22" dominant-baseline="central" text-anchor="middle">5</text></g></g><g transform="translate(252,28) scale(1)"><g fill="#ffffff" stroke="#a0a0a0" stroke-width="1"><path d="M -14 0 L 0-14 L 14 0 L 0 14 L -14 0 z" /></g></g><g transform="translate(0,70) scale(1)"><g class="flash_g" fill="#ff1493" stroke="#ff1493" stroke-width="1"><circle cx="42" cy="0" r="14" /></g><g fill="none" stroke="#a0a0a0" stroke-width="1"><circle cx="42" cy="0" r="14" /></g></g><g transform="translate(0,70) scale(1)"><g class="flash_g" fill="#ff8c00" stroke="#ff8c00" stroke-width="1"><circle cx="42" cy="70" r="14" /></g><g fill="none" stroke="#a0a0a0" stroke-width="1"><circle cx="42" cy="70" r="14" /></g></g><g transform="translate(0,70) scale(1)"><g stroke-width="0"><circle cx="42" cy="70" r="10" fill="#8FCFFF" id="var_rank_2__0" /><circle cx="42" cy="0" r="10" fill="#67A7FF" id="var_rank_2__1" /><circle cx="84" cy="0" r="10" fill="#8FCFFF" id="var_rank_2__2" /><circle cx="126" cy="0" r="10" fill="#8FCFFF" id="var_rank_2__3" /><circle cx="168" cy="0" r="10" fill="#8FCFFF" id="var_rank_2__4" /><circle cx="210" cy="0" r="10" fill="#8FCFFF" id="var_rank_2__5" /></g><g font-size="14" font-family="sans-serif" fill="#ffffff"><text id="text_rank_2__0" x="42" y="70" dominant-baseline="central" text-anchor="middle">0</text><text id="text_rank_2__1" x="42" y="0" dominant-baseline="central" text-anchor="middle">1</text><text id="text_rank_2__2" x="84" y="0" dominant-baseline="central" text-anchor="middle">0</text><text id="text_rank_2__3" x="126" y="0" dominant-baseline="central" text-anchor="middle">0</text><text id="text_rank_2__4" x="168" y="0" dominant-baseline="central" text-anchor="middle">0</text><text id="text_rank_2__5" x="210" y="0" dominant-baseline="central" text-anchor="middle">0</text></g></g></g><text x="336" y="20" font-size="16" text-anchor="middle" fill="#888888" font-family="sans-serif" >1-2</text><text x="460" y="244" font-size="9" text-anchor="middle" font-family="SimSun, 宋体, serif">将 1 作为代表，更新 0 的父节点。1 的秩加 1</text><rect x ="0" y="276" width="280" height="260" fill="#ffffff" stroke="#888888" stroke-width="1"/><path fill="#0088e0" d="M 292 406 L 292 386 L 312 406 L 292 426 z" /><g transform="translate(0,276)"><defs><polygon points="0,0 6,6 0,12 18,6" id="m_tmpl2"/><marker id="m_o1" markerUnits="strokeWidth" markerWidth="10" markerHeight="10" viewBox="0 0 18 12" refX="18" refY="6" orient="auto"><use xlink:href="#m_tmpl2" fill="#a0a0a0"/></marker></defs><g transform="translate(0,70) scale(1)"><g fill="#ffffff" stroke="#a0a0a0" stroke-width="1"><path d="M 42 56 Q 42 35 42 14"  marker-end="url(#link_arrow)"/><circle cx="42" cy="70" r="14" /><circle cx="42" cy="0" r="14" /><circle cx="84" cy="0" r="14" /><circle cx="126" cy="0" r="14" /><circle cx="168" cy="0" r="14" /><circle cx="210" cy="0" r="14" /></g><g font-size="9" font-family="Verdana" fill="#888888"><text x="42" y="47" dominant-baseline="central" text-anchor="middle">0</text><text x="42" y="-22" dominant-baseline="central" text-anchor="middle">1</text><text x="84" y="-22" dominant-baseline="central" text-anchor="middle">2</text><text x="126" y="-22" dominant-baseline="central" text-anchor="middle">3</text><text x="168" y="-22" dominant-baseline="central" text-anchor="middle">4</text><text x="210" y="-22" dominant-baseline="central" text-anchor="middle">5</text></g></g><g transform="translate(252,28) scale(1)"><g fill="#ffffff" stroke="#a0a0a0" stroke-width="1"><path d="M -14 0 L 0-14 L 14 0 L 0 14 L -14 0 z" /></g></g><g transform="translate(252,28) scale(1)"><g class="flash_g" fill="#ffffff" stroke="#ff1493" stroke-width="1"  ><path d="M 0 -14 L -14 0 L 0 14 z" fill="#ff1493" stroke-width="0" /></g><g fill="none" stroke="#a0a0a0" stroke-width="1"><path d="M 0 -14 L 14 0 L 0 14 L -14 0 z"  /></g></g><g transform="translate(0,70) scale(1)"><g class="flash_g" fill="#ffffff" stroke="#ff1493" stroke-width="2"><circle cx="84" cy="0" r="14" /></g></g><g transform="translate(0,70) scale(1)"><g class="flash_g" fill="#ffffff" stroke="#ff1493" stroke-width="2"><circle cx="126" cy="0" r="14" /></g></g><g transform="translate(0,70) scale(1)"><g stroke-width="0"><circle cx="42" cy="70" r="10" fill="#8FCFFF" id="var_rank_3__0" /><circle cx="42" cy="0" r="10" fill="#67A7FF" id="var_rank_3__1" /><circle cx="84" cy="0" r="10" fill="#8FCFFF" id="var_rank_3__2" /><circle cx="126" cy="0" r="10" fill="#8FCFFF" id="var_rank_3__3" /><circle cx="168" cy="0" r="10" fill="#8FCFFF" id="var_rank_3__4" /><circle cx="210" cy="0" r="10" fill="#8FCFFF" id="var_rank_3__5" /></g><g font-size="14" font-family="sans-serif" fill="#ffffff"><text id="text_rank_3__0" x="42" y="70" dominant-baseline="central" text-anchor="middle">0</text><text id="text_rank_3__1" x="42" y="0" dominant-baseline="central" text-anchor="middle">1</text><text id="text_rank_3__2" x="84" y="0" dominant-baseline="central" text-anchor="middle">0</text><text id="text_rank_3__3" x="126" y="0" dominant-baseline="central" text-anchor="middle">0</text><text id="text_rank_3__4" x="168" y="0" dominant-baseline="central" text-anchor="middle">0</text><text id="text_rank_3__5" x="210" y="0" dominant-baseline="central" text-anchor="middle">0</text></g></g></g><text x="16" y="296" font-size="16" text-anchor="middle" fill="#888888" font-family="sans-serif" >1-3</text><text x="140" y="520" font-size="9" text-anchor="middle" font-family="SimSun, 宋体, serif">合并 2 和 3。比较秩</text><rect x ="320" y="276" width="280" height="260" fill="#ffffff" stroke="#888888" stroke-width="1"/><path fill="#0088e0" d="M 612 406 L 612 386 L 632 406 L 612 426 z" /><g transform="translate(320,276)"><defs><polygon points="0,0 6,6 0,12 18,6" id="m_tmpl2"/><marker id="m_o1" markerUnits="strokeWidth" markerWidth="10" markerHeight="10" viewBox="0 0 18 12" refX="18" refY="6" orient="auto"><use xlink:href="#m_tmpl2" fill="#a0a0a0"/></marker></defs><g transform="translate(0,70) scale(1)"><g fill="#ffffff" stroke="#a0a0a0" stroke-width="1"><path d="M 42 56 Q 42 35 42 14"  marker-end="url(#link_arrow)"/><path d="M 84 56 Q 84 35 84 14"  marker-end="url(#link_arrow)"/><circle cx="42" cy="70" r="14" /><circle cx="42" cy="0" r="14" /><circle cx="84" cy="70" r="14" /><circle cx="84" cy="0" r="14" /><circle cx="126" cy="0" r="14" /><circle cx="168" cy="0" r="14" /></g><g font-size="9" font-family="Verdana" fill="#888888"><text x="42" y="47" dominant-baseline="central" text-anchor="middle">0</text><text x="42" y="-22" dominant-baseline="central" text-anchor="middle">1</text><text x="84" y="47" dominant-baseline="central" text-anchor="middle">2</text><text x="84" y="-22" dominant-baseline="central" text-anchor="middle">3</text><text x="126" y="-22" dominant-baseline="central" text-anchor="middle">4</text><text x="168" y="-22" dominant-baseline="central" text-anchor="middle">5</text></g></g><g transform="translate(252,28) scale(1)"><g fill="#ffffff" stroke="#a0a0a0" stroke-width="1"><path d="M -14 0 L 0-14 L 14 0 L 0 14 L -14 0 z" /></g></g><g transform="translate(0,70) scale(1)"><g class="flash_g" fill="#ff1493" stroke="#ff1493" stroke-width="1"><circle cx="84" cy="0" r="14" /></g><g fill="none" stroke="#a0a0a0" stroke-width="1"><circle cx="84" cy="0" r="14" /></g></g><g transform="translate(0,70) scale(1)"><g class="flash_g" fill="#ff8c00" stroke="#ff8c00" stroke-width="1"><circle cx="84" cy="70" r="14" /></g><g fill="none" stroke="#a0a0a0" stroke-width="1"><circle cx="84" cy="70" r="14" /></g></g><g transform="translate(0,70) scale(1)"><g stroke-width="0"><circle cx="42" cy="70" r="10" fill="#8FCFFF" id="var_rank_4__0" /><circle cx="42" cy="0" r="10" fill="#67A7FF" id="var_rank_4__1" /><circle cx="84" cy="70" r="10" fill="#8FCFFF" id="var_rank_4__2" /><circle cx="84" cy="0" r="10" fill="#67A7FF" id="var_rank_4__3" /><circle cx="126" cy="0" r="10" fill="#8FCFFF" id="var_rank_4__4" /><circle cx="168" cy="0" r="10" fill="#8FCFFF" id="var_rank_4__5" /></g><g font-size="14" font-family="sans-serif" fill="#ffffff"><text id="text_rank_4__0" x="42" y="70" dominant-baseline="central" text-anchor="middle">0</text><text id="text_rank_4__1" x="42" y="0" dominant-baseline="central" text-anchor="middle">1</text><text id="text_rank_4__2" x="84" y="70" dominant-baseline="central" text-anchor="middle">0</text><text id="text_rank_4__3" x="84" y="0" dominant-baseline="central" text-anchor="middle">1</text><text id="text_rank_4__4" x="126" y="0" dominant-baseline="central" text-anchor="middle">0</text><text id="text_rank_4__5" x="168" y="0" dominant-baseline="central" text-anchor="middle">0</text></g></g></g><text x="336" y="296" font-size="16" text-anchor="middle" fill="#888888" font-family="sans-serif" >1-4</text><text x="460" y="520" font-size="9" text-anchor="middle" font-family="SimSun, 宋体, serif">将 3 作为代表，更新 2 的父节点。3 的秩加 1</text><rect x ="0" y="552" width="280" height="260" fill="#ffffff" stroke="#888888" stroke-width="1"/><path fill="#0088e0" d="M 292 682 L 292 662 L 312 682 L 292 702 z" /><g transform="translate(0,552)"><defs><polygon points="0,0 6,6 0,12 18,6" id="m_tmpl2"/><marker id="m_o1" markerUnits="strokeWidth" markerWidth="10" markerHeight="10" viewBox="0 0 18 12" refX="18" refY="6" orient="auto"><use xlink:href="#m_tmpl2" fill="#a0a0a0"/></marker></defs><g transform="translate(0,70) scale(1)"><g fill="#ffffff" stroke="#a0a0a0" stroke-width="1"><path d="M 42 56 Q 42 35 42 14"  marker-end="url(#link_arrow)"/><path d="M 84 56 Q 84 35 84 14"  marker-end="url(#link_arrow)"/><circle cx="42" cy="70" r="14" /><circle cx="42" cy="0" r="14" /><circle cx="84" cy="70" r="14" /><circle cx="84" cy="0" r="14" /><circle cx="126" cy="0" r="14" /><circle cx="168" cy="0" r="14" /></g><g font-size="9" font-family="Verdana" fill="#888888"><text x="42" y="47" dominant-baseline="central" text-anchor="middle">0</text><text x="42" y="-22" dominant-baseline="central" text-anchor="middle">1</text><text x="84" y="47" dominant-baseline="central" text-anchor="middle">2</text><text x="84" y="-22" dominant-baseline="central" text-anchor="middle">3</text><text x="126" y="-22" dominant-baseline="central" text-anchor="middle">4</text><text x="168" y="-22" dominant-baseline="central" text-anchor="middle">5</text></g></g><g transform="translate(252,28) scale(1)"><g fill="#ffffff" stroke="#a0a0a0" stroke-width="1"><path d="M -14 0 L 0-14 L 14 0 L 0 14 L -14 0 z" /></g></g><g transform="translate(252,28) scale(1)"><g class="flash_g" fill="#ffffff" stroke="#ff1493" stroke-width="1"  ><path d="M 0 -14 L -14 0 L 0 14 z" fill="#ff1493" stroke-width="0" /></g><g fill="none" stroke="#a0a0a0" stroke-width="1"><path d="M 0 -14 L 14 0 L 0 14 L -14 0 z"  /></g></g><g transform="translate(0,70) scale(1)"><g class="flash_g" fill="#ffffff" stroke="#ff1493" stroke-width="2"><circle cx="42" cy="0" r="14" /></g></g><g transform="translate(0,70) scale(1)"><g class="flash_g" fill="#ffffff" stroke="#ff1493" stroke-width="2"><circle cx="84" cy="0" r="14" /></g></g><g transform="translate(0,70) scale(1)"><g stroke-width="0"><circle cx="42" cy="70" r="10" fill="#8FCFFF" id="var_rank_5__0" /><circle cx="42" cy="0" r="10" fill="#67A7FF" id="var_rank_5__1" /><circle cx="84" cy="70" r="10" fill="#8FCFFF" id="var_rank_5__2" /><circle cx="84" cy="0" r="10" fill="#67A7FF" id="var_rank_5__3" /><circle cx="126" cy="0" r="10" fill="#8FCFFF" id="var_rank_5__4" /><circle cx="168" cy="0" r="10" fill="#8FCFFF" id="var_rank_5__5" /></g><g font-size="14" font-family="sans-serif" fill="#ffffff"><text id="text_rank_5__0" x="42" y="70" dominant-baseline="central" text-anchor="middle">0</text><text id="text_rank_5__1" x="42" y="0" dominant-baseline="central" text-anchor="middle">1</text><text id="text_rank_5__2" x="84" y="70" dominant-baseline="central" text-anchor="middle">0</text><text id="text_rank_5__3" x="84" y="0" dominant-baseline="central" text-anchor="middle">1</text><text id="text_rank_5__4" x="126" y="0" dominant-baseline="central" text-anchor="middle">0</text><text id="text_rank_5__5" x="168" y="0" dominant-baseline="central" text-anchor="middle">0</text></g></g></g><text x="16" y="572" font-size="16" text-anchor="middle" fill="#888888" font-family="sans-serif" >1-5</text><text x="140" y="796" font-size="9" text-anchor="middle" font-family="SimSun, 宋体, serif">合并 1 和 3。比较秩</text><rect x ="320" y="552" width="280" height="260" fill="#ffffff" stroke="#888888" stroke-width="1"/><path fill="#0088e0" d="M 612 682 L 612 662 L 632 682 L 612 702 z" /><g transform="translate(320,552)"><defs><polygon points="0,0 6,6 0,12 18,6" id="m_tmpl2"/><marker id="m_o1" markerUnits="strokeWidth" markerWidth="10" markerHeight="10" viewBox="0 0 18 12" refX="18" refY="6" orient="auto"><use xlink:href="#m_tmpl2" fill="#a0a0a0"/></marker></defs><g transform="translate(0,70) scale(1)"><g fill="#ffffff" stroke="#a0a0a0" stroke-width="1"><path d="M 42 126 Q 42 105 42 84"  marker-end="url(#link_arrow)"/><path d="M 46.0229 56.5904 Q 52.5 35 58.9771 13.4096"  marker-end="url(#link_arrow)"/><path d="M 79.9771 56.5904 Q 73.5 35 67.0229 13.4096"  marker-end="url(#link_arrow)"/><circle cx="42" cy="140" r="14" /><circle cx="42" cy="70" r="14" /><circle cx="84" cy="70" r="14" /><circle cx="63" cy="0" r="14" /><circle cx="126" cy="0" r="14" /><circle cx="168" cy="0" r="14" /></g><g font-size="9" font-family="Verdana" fill="#888888"><text x="42" y="117" dominant-baseline="central" text-anchor="middle">0</text><text x="42" y="47" dominant-baseline="central" text-anchor="middle">1</text><text x="84" y="47" dominant-baseline="central" text-anchor="middle">2</text><text x="63" y="-22" dominant-baseline="central" text-anchor="middle">3</text><text x="126" y="-22" dominant-baseline="central" text-anchor="middle">4</text><text x="168" y="-22" dominant-baseline="central" text-anchor="middle">5</text></g></g><g transform="translate(252,28) scale(1)"><g fill="#ffffff" stroke="#a0a0a0" stroke-width="1"><path d="M -14 0 L 0-14 L 14 0 L 0 14 L -14 0 z" /></g></g><g transform="translate(0,70) scale(1)"><g class="flash_g" fill="#ff1493" stroke="#ff1493" stroke-width="1"><circle cx="63" cy="0" r="14" /></g><g fill="none" stroke="#a0a0a0" stroke-width="1"><circle cx="63" cy="0" r="14" /></g></g><g transform="translate(0,70) scale(1)"><g class="flash_g" fill="#ff8c00" stroke="#ff8c00" stroke-width="1"><circle cx="42" cy="70" r="14" /></g><g fill="none" stroke="#a0a0a0" stroke-width="1"><circle cx="42" cy="70" r="14" /></g></g><g transform="translate(0,70) scale(1)"><g stroke-width="0"><circle cx="42" cy="140" r="10" fill="#8FCFFF" id="var_rank_6__0" /><circle cx="42" cy="70" r="10" fill="#67A7FF" id="var_rank_6__1" /><circle cx="84" cy="70" r="10" fill="#8FCFFF" id="var_rank_6__2" /><circle cx="63" cy="0" r="10" fill="#4080F0" id="var_rank_6__3" /><circle cx="126" cy="0" r="10" fill="#8FCFFF" id="var_rank_6__4" /><circle cx="168" cy="0" r="10" fill="#8FCFFF" id="var_rank_6__5" /></g><g font-size="14" font-family="sans-serif" fill="#ffffff"><text id="text_rank_6__0" x="42" y="140" dominant-baseline="central" text-anchor="middle">0</text><text id="text_rank_6__1" x="42" y="70" dominant-baseline="central" text-anchor="middle">1</text><text id="text_rank_6__2" x="84" y="70" dominant-baseline="central" text-anchor="middle">0</text><text id="text_rank_6__3" x="63" y="0" dominant-baseline="central" text-anchor="middle">2</text><text id="text_rank_6__4" x="126" y="0" dominant-baseline="central" text-anchor="middle">0</text><text id="text_rank_6__5" x="168" y="0" dominant-baseline="central" text-anchor="middle">0</text></g></g></g><text x="336" y="572" font-size="16" text-anchor="middle" fill="#888888" font-family="sans-serif" >1-6</text><text x="460" y="796" font-size="9" text-anchor="middle" font-family="SimSun, 宋体, serif">将 3 作为代表，更新 1 的父节点。3 的秩加 1</text><rect x ="0" y="828" width="280" height="260" fill="#ffffff" stroke="#888888" stroke-width="1"/><path fill="#0088e0" d="M 292 958 L 292 938 L 312 958 L 292 978 z" /><g transform="translate(0,828)"><defs><polygon points="0,0 6,6 0,12 18,6" id="m_tmpl2"/><marker id="m_o1" markerUnits="strokeWidth" markerWidth="10" markerHeight="10" viewBox="0 0 18 12" refX="18" refY="6" orient="auto"><use xlink:href="#m_tmpl2" fill="#a0a0a0"/></marker></defs><g transform="translate(0,70) scale(1)"><g fill="#ffffff" stroke="#a0a0a0" stroke-width="1"><path d="M 42 126 Q 42 105 42 84"  marker-end="url(#link_arrow)"/><path d="M 46.0229 56.5904 Q 52.5 35 58.9771 13.4096"  marker-end="url(#link_arrow)"/><path d="M 79.9771 56.5904 Q 73.5 35 67.0229 13.4096"  marker-end="url(#link_arrow)"/><circle cx="42" cy="140" r="14" /><circle cx="42" cy="70" r="14" /><circle cx="84" cy="70" r="14" /><circle cx="63" cy="0" r="14" /><circle cx="126" cy="0" r="14" /><circle cx="168" cy="0" r="14" /></g><g font-size="9" font-family="Verdana" fill="#888888"><text x="42" y="117" dominant-baseline="central" text-anchor="middle">0</text><text x="42" y="47" dominant-baseline="central" text-anchor="middle">1</text><text x="84" y="47" dominant-baseline="central" text-anchor="middle">2</text><text x="63" y="-22" dominant-baseline="central" text-anchor="middle">3</text><text x="126" y="-22" dominant-baseline="central" text-anchor="middle">4</text><text x="168" y="-22" dominant-baseline="central" text-anchor="middle">5</text></g></g><g transform="translate(252,28) scale(1)"><g fill="#ffffff" stroke="#a0a0a0" stroke-width="1"><path d="M -14 0 L 0-14 L 14 0 L 0 14 L -14 0 z" /></g></g><g transform="translate(252,28) scale(1)"><g class="flash_g" fill="#ffffff" stroke="#ff1493" stroke-width="1"  ><path d="M 0 -14 L -14 0 L 0 14 z" fill="#ff1493" stroke-width="0" /></g><g fill="none" stroke="#a0a0a0" stroke-width="1"><path d="M 0 -14 L 14 0 L 0 14 L -14 0 z"  /></g></g><g transform="translate(0,70) scale(1)"><g class="flash_g" fill="#ffffff" stroke="#ff1493" stroke-width="2"><circle cx="126" cy="0" r="14" /></g></g><g transform="translate(0,70) scale(1)"><g class="flash_g" fill="#ffffff" stroke="#ff1493" stroke-width="2"><circle cx="168" cy="0" r="14" /></g></g><g transform="translate(0,70) scale(1)"><g stroke-width="0"><circle cx="42" cy="140" r="10" fill="#8FCFFF" id="var_rank_7__0" /><circle cx="42" cy="70" r="10" fill="#67A7FF" id="var_rank_7__1" /><circle cx="84" cy="70" r="10" fill="#8FCFFF" id="var_rank_7__2" /><circle cx="63" cy="0" r="10" fill="#4080F0" id="var_rank_7__3" /><circle cx="126" cy="0" r="10" fill="#8FCFFF" id="var_rank_7__4" /><circle cx="168" cy="0" r="10" fill="#8FCFFF" id="var_rank_7__5" /></g><g font-size="14" font-family="sans-serif" fill="#ffffff"><text id="text_rank_7__0" x="42" y="140" dominant-baseline="central" text-anchor="middle">0</text><text id="text_rank_7__1" x="42" y="70" dominant-baseline="central" text-anchor="middle">1</text><text id="text_rank_7__2" x="84" y="70" dominant-baseline="central" text-anchor="middle">0</text><text id="text_rank_7__3" x="63" y="0" dominant-baseline="central" text-anchor="middle">2</text><text id="text_rank_7__4" x="126" y="0" dominant-baseline="central" text-anchor="middle">0</text><text id="text_rank_7__5" x="168" y="0" dominant-baseline="central" text-anchor="middle">0</text></g></g></g><text x="16" y="848" font-size="16" text-anchor="middle" fill="#888888" font-family="sans-serif" >1-7</text><text x="140" y="1072" font-size="9" text-anchor="middle" font-family="SimSun, 宋体, serif">合并 4 和 5。比较秩</text><rect x ="320" y="828" width="280" height="260" fill="#ffffff" stroke="#888888" stroke-width="1"/><path fill="#0088e0" d="M 612 958 L 612 938 L 632 958 L 612 978 z" /><g transform="translate(320,828)"><defs><polygon points="0,0 6,6 0,12 18,6" id="m_tmpl2"/><marker id="m_o1" markerUnits="strokeWidth" markerWidth="10" markerHeight="10" viewBox="0 0 18 12" refX="18" refY="6" orient="auto"><use xlink:href="#m_tmpl2" fill="#a0a0a0"/></marker></defs><g transform="translate(0,70) scale(1)"><g fill="#ffffff" stroke="#a0a0a0" stroke-width="1"><path d="M 42 126 Q 42 105 42 84"  marker-end="url(#link_arrow)"/><path d="M 46.0229 56.5904 Q 52.5 35 58.9771 13.4096"  marker-end="url(#link_arrow)"/><path d="M 79.9771 56.5904 Q 73.5 35 67.0229 13.4096"  marker-end="url(#link_arrow)"/><path d="M 126 56 Q 126 35 126 14"  marker-end="url(#link_arrow)"/><circle cx="42" cy="140" r="14" /><circle cx="42" cy="70" r="14" /><circle cx="84" cy="70" r="14" /><circle cx="63" cy="0" r="14" /><circle cx="126" cy="70" r="14" /><circle cx="126" cy="0" r="14" /></g><g font-size="9" font-family="Verdana" fill="#888888"><text x="42" y="117" dominant-baseline="central" text-anchor="middle">0</text><text x="42" y="47" dominant-baseline="central" text-anchor="middle">1</text><text x="84" y="47" dominant-baseline="central" text-anchor="middle">2</text><text x="63" y="-22" dominant-baseline="central" text-anchor="middle">3</text><text x="126" y="47" dominant-baseline="central" text-anchor="middle">4</text><text x="126" y="-22" dominant-baseline="central" text-anchor="middle">5</text></g></g><g transform="translate(252,28) scale(1)"><g fill="#ffffff" stroke="#a0a0a0" stroke-width="1"><path d="M -14 0 L 0-14 L 14 0 L 0 14 L -14 0 z" /></g></g><g transform="translate(0,70) scale(1)"><g class="flash_g" fill="#ff1493" stroke="#ff1493" stroke-width="1"><circle cx="126" cy="0" r="14" /></g><g fill="none" stroke="#a0a0a0" stroke-width="1"><circle cx="126" cy="0" r="14" /></g></g><g transform="translate(0,70) scale(1)"><g class="flash_g" fill="#ff8c00" stroke="#ff8c00" stroke-width="1"><circle cx="126" cy="70" r="14" /></g><g fill="none" stroke="#a0a0a0" stroke-width="1"><circle cx="126" cy="70" r="14" /></g></g><g transform="translate(0,70) scale(1)"><g stroke-width="0"><circle cx="42" cy="140" r="10" fill="#8FCFFF" id="var_rank_8__0" /><circle cx="42" cy="70" r="10" fill="#67A7FF" id="var_rank_8__1" /><circle cx="84" cy="70" r="10" fill="#8FCFFF" id="var_rank_8__2" /><circle cx="63" cy="0" r="10" fill="#4080F0" id="var_rank_8__3" /><circle cx="126" cy="70" r="10" fill="#8FCFFF" id="var_rank_8__4" /><circle cx="126" cy="0" r="10" fill="#67A7FF" id="var_rank_8__5" /></g><g font-size="14" font-family="sans-serif" fill="#ffffff"><text id="text_rank_8__0" x="42" y="140" dominant-baseline="central" text-anchor="middle">0</text><text id="text_rank_8__1" x="42" y="70" dominant-baseline="central" text-anchor="middle">1</text><text id="text_rank_8__2" x="84" y="70" dominant-baseline="central" text-anchor="middle">0</text><text id="text_rank_8__3" x="63" y="0" dominant-baseline="central" text-anchor="middle">2</text><text id="text_rank_8__4" x="126" y="70" dominant-baseline="central" text-anchor="middle">0</text><text id="text_rank_8__5" x="126" y="0" dominant-baseline="central" text-anchor="middle">1</text></g></g></g><text x="336" y="848" font-size="16" text-anchor="middle" fill="#888888" font-family="sans-serif" >1-8</text><text x="460" y="1072" font-size="9" text-anchor="middle" font-family="SimSun, 宋体, serif">将 5 作为代表，更新 4 的父节点。5 的秩加 1</text><rect x ="0" y="1104" width="280" height="260" fill="#ffffff" stroke="#888888" stroke-width="1"/><path fill="#0088e0" d="M 292 1234 L 292 1214 L 312 1234 L 292 1254 z" /><g transform="translate(0,1104)"><defs><polygon points="0,0 6,6 0,12 18,6" id="m_tmpl2"/><marker id="m_o1" markerUnits="strokeWidth" markerWidth="10" markerHeight="10" viewBox="0 0 18 12" refX="18" refY="6" orient="auto"><use xlink:href="#m_tmpl2" fill="#a0a0a0"/></marker></defs><g transform="translate(0,70) scale(1)"><g fill="#ffffff" stroke="#a0a0a0" stroke-width="1"><path d="M 42 126 Q 42 105 42 84"  marker-end="url(#link_arrow)"/><path d="M 46.0229 56.5904 Q 52.5 35 58.9771 13.4096"  marker-end="url(#link_arrow)"/><path d="M 79.9771 56.5904 Q 73.5 35 67.0229 13.4096"  marker-end="url(#link_arrow)"/><path d="M 126 56 Q 126 35 126 14"  marker-end="url(#link_arrow)"/><circle cx="42" cy="140" r="14" /><circle cx="42" cy="70" r="14" /><circle cx="84" cy="70" r="14" /><circle cx="63" cy="0" r="14" /><circle cx="126" cy="70" r="14" /><circle cx="126" cy="0" r="14" /></g><g font-size="9" font-family="Verdana" fill="#888888"><text x="42" y="117" dominant-baseline="central" text-anchor="middle">0</text><text x="42" y="47" dominant-baseline="central" text-anchor="middle">1</text><text x="84" y="47" dominant-baseline="central" text-anchor="middle">2</text><text x="63" y="-22" dominant-baseline="central" text-anchor="middle">3</text><text x="126" y="47" dominant-baseline="central" text-anchor="middle">4</text><text x="126" y="-22" dominant-baseline="central" text-anchor="middle">5</text></g></g><g transform="translate(252,28) scale(1)"><g fill="#ffffff" stroke="#a0a0a0" stroke-width="1"><path d="M -14 0 L 0-14 L 14 0 L 0 14 L -14 0 z" /></g></g><g transform="translate(252,28) scale(1)"><g class="flash_g" fill="#ffffff" stroke="#ff1493" stroke-width="1"  ><path d="M 0 -14 L -14 0 L 0 14 z" fill="#ff1493" stroke-width="0" /></g><g fill="none" stroke="#a0a0a0" stroke-width="1"><path d="M 0 -14 L 14 0 L 0 14 L -14 0 z"  /></g></g><g transform="translate(0,70) scale(1)"><g class="flash_g" fill="#ffffff" stroke="#ff1493" stroke-width="2"><circle cx="63" cy="0" r="14" /></g></g><g transform="translate(0,70) scale(1)"><g class="flash_g" fill="#ffffff" stroke="#ff1493" stroke-width="2"><circle cx="126" cy="0" r="14" /></g></g><g transform="translate(0,70) scale(1)"><g stroke-width="0"><circle cx="42" cy="140" r="10" fill="#8FCFFF" id="var_rank_10__0" /><circle cx="42" cy="70" r="10" fill="#67A7FF" id="var_rank_10__1" /><circle cx="84" cy="70" r="10" fill="#8FCFFF" id="var_rank_10__2" /><circle cx="63" cy="0" r="10" fill="#4080F0" id="var_rank_10__3" /><circle cx="126" cy="70" r="10" fill="#8FCFFF" id="var_rank_10__4" /><circle cx="126" cy="0" r="10" fill="#67A7FF" id="var_rank_10__5" /></g><g font-size="14" font-family="sans-serif" fill="#ffffff"><text id="text_rank_10__0" x="42" y="140" dominant-baseline="central" text-anchor="middle">0</text><text id="text_rank_10__1" x="42" y="70" dominant-baseline="central" text-anchor="middle">1</text><text id="text_rank_10__2" x="84" y="70" dominant-baseline="central" text-anchor="middle">0</text><text id="text_rank_10__3" x="63" y="0" dominant-baseline="central" text-anchor="middle">2</text><text id="text_rank_10__4" x="126" y="70" dominant-baseline="central" text-anchor="middle">0</text><text id="text_rank_10__5" x="126" y="0" dominant-baseline="central" text-anchor="middle">1</text></g></g></g><text x="16" y="1124" font-size="16" text-anchor="middle" fill="#888888" font-family="sans-serif" >1-9</text><text x="140" y="1348" font-size="9" text-anchor="middle" font-family="SimSun, 宋体, serif">合并 3 和 5。比较秩</text><rect x ="320" y="1104" width="280" height="260" fill="#ffffff" stroke="#888888" stroke-width="1"/><g transform="translate(320,1104)"><defs><polygon points="0,0 6,6 0,12 18,6" id="m_tmpl2"/><marker id="m_o1" markerUnits="strokeWidth" markerWidth="10" markerHeight="10" viewBox="0 0 18 12" refX="18" refY="6" orient="auto"><use xlink:href="#m_tmpl2" fill="#a0a0a0"/></marker></defs><g transform="translate(0,70) scale(1)"><g fill="#ffffff" stroke="#a0a0a0" stroke-width="1"><path d="M 42 126 Q 42 105 42 84"  marker-end="url(#link_arrow)"/><path d="M 49.2029 57.9951 Q 63 35 76.7971 12.0049"  marker-end="url(#link_arrow)"/><path d="M 84 56 Q 84 35 84 14"  marker-end="url(#link_arrow)"/><path d="M 126 126 Q 126 105 126 84"  marker-end="url(#link_arrow)"/><path d="M 118.797 57.9951 Q 105 35 91.2029 12.0049"  marker-end="url(#link_arrow)"/><circle cx="42" cy="140" r="14" /><circle cx="42" cy="70" r="14" /><circle cx="84" cy="70" r="14" /><circle cx="84" cy="0" r="14" /><circle cx="126" cy="140" r="14" /><circle cx="126" cy="70" r="14" /></g><g font-size="9" font-family="Verdana" fill="#888888"><text x="42" y="117" dominant-baseline="central" text-anchor="middle">0</text><text x="42" y="47" dominant-baseline="central" text-anchor="middle">1</text><text x="84" y="47" dominant-baseline="central" text-anchor="middle">2</text><text x="84" y="-22" dominant-baseline="central" text-anchor="middle">3</text><text x="126" y="117" dominant-baseline="central" text-anchor="middle">4</text><text x="126" y="47" dominant-baseline="central" text-anchor="middle">5</text></g></g><g transform="translate(252,28) scale(1)"><g fill="#ffffff" stroke="#a0a0a0" stroke-width="1"><path d="M -14 0 L 0-14 L 14 0 L 0 14 L -14 0 z" /></g></g><g transform="translate(0,70) scale(1)"><g class="flash_g" fill="#ff1493" stroke="#ff1493" stroke-width="1"></g><g fill="none" stroke="#a0a0a0" stroke-width="1"></g></g><g transform="translate(0,70) scale(1)"><g class="flash_g" fill="#ff8c00" stroke="#ff8c00" stroke-width="1"><circle cx="126" cy="70" r="14" /></g><g fill="none" stroke="#a0a0a0" stroke-width="1"><circle cx="126" cy="70" r="14" /></g></g><g transform="translate(0,70) scale(1)"><g stroke-width="0"><circle cx="42" cy="140" r="10" fill="#8FCFFF" id="var_rank_11__0" /><circle cx="42" cy="70" r="10" fill="#67A7FF" id="var_rank_11__1" /><circle cx="84" cy="70" r="10" fill="#8FCFFF" id="var_rank_11__2" /><circle cx="84" cy="0" r="10" fill="#4080F0" id="var_rank_11__3" /><circle cx="126" cy="140" r="10" fill="#8FCFFF" id="var_rank_11__4" /><circle cx="126" cy="70" r="10" fill="#67A7FF" id="var_rank_11__5" /></g><g font-size="14" font-family="sans-serif" fill="#ffffff"><text id="text_rank_11__0" x="42" y="140" dominant-baseline="central" text-anchor="middle">0</text><text id="text_rank_11__1" x="42" y="70" dominant-baseline="central" text-anchor="middle">1</text><text id="text_rank_11__2" x="84" y="70" dominant-baseline="central" text-anchor="middle">0</text><text id="text_rank_11__3" x="84" y="0" dominant-baseline="central" text-anchor="middle">2</text><text id="text_rank_11__4" x="126" y="140" dominant-baseline="central" text-anchor="middle">0</text><text id="text_rank_11__5" x="126" y="70" dominant-baseline="central" text-anchor="middle">1</text></g></g></g><text x="336" y="1124" font-size="16" text-anchor="middle" fill="#888888" font-family="sans-serif" >1-10</text><text x="460" y="1348" font-size="9" text-anchor="middle" font-family="SimSun, 宋体, serif">将 3 作为代表，更新 5 的父节点。秩不变</text></svg>

