<?xml version="1.0" encoding="UTF-8" standalone="no"?>
<svg
xmlns:svg="http://www.w3.org/2000/svg"
xmlns="http://www.w3.org/2000/svg"
xmlns:xlink="http://www.w3.org/1999/xlink"
width ="640"
height ="632"
viewBox ="0 0 640 632"
>
<defs><polygon points="0,0 6,8, 0,16 20,8" id="m_tmpl2"/><marker id="token_arrow"  markerUnits="userSpaceOnUse" markerWidth="20" markerHeight="16" viewBox="0 0 20 16" refX="14" refY="8" orient="auto"><use xlink:href="#m_tmpl2" fill="#60a0ff"/></marker></defs><defs><polygon points="0,0 0,4 0,8 12,4" id="m_tmpl3"/><marker id="link_arrow" markerUnits="strokeWidth" markerWidth="12" markerHeight="8" viewBox="0 0 12 8" refX="12" refY="4" orient="auto"><use xlink:href="#m_tmpl3" fill="#888888"/></marker></defs><rect x ="0" y="0" width="280" height="300" fill="#ffffff" stroke="#888888" stroke-width="1"/><path fill="#0088e0" d="M 292 150 L 292 130 L 312 150 L 292 170 z" /><g transform="translate(0,0)"><g transform="translate(20,60) scale(0.8)"><g stroke="#c8e8ff" stroke-width="0" fill="#c8e8ff"><rect x="-22" y="-22" width="44" height="44" /><rect x="10" y="-22" width="44" height="44" /><rect x="42" y="-22" width="44" height="44" /><rect x="74" y="-22" width="44" height="44" /><rect x="106" y="-22" width="44" height="44" /><rect x="138" y="-22" width="44" height="44" /><rect x="170" y="-22" width="44" height="44" /><rect x="202" y="-22" width="44" height="44" /><rect x="234" y="-22" width="44" height="44" /><rect x="266" y="-22" width="44" height="44" /></g><g stroke="#c8e8ff" stroke-width="44.8" fill="#c8e8ff"></g></g><g transform="translate(20,60) scale(0.8)"><g fill="#ffffff" stroke="#a0a0a0" stroke-width="1"><rect x="-14" y="-14" width="28" height="28" rx="4" ry="4" /><rect x="18" y="-14" width="28" height="28" rx="4" ry="4" /><rect x="50" y="-14" width="28" height="28" rx="4" ry="4" /><rect x="82" y="-14" width="28" height="28" rx="4" ry="4" /><rect x="114" y="-14" width="28" height="28" rx="4" ry="4" /><rect x="146" y="-14" width="28" height="28" rx="4" ry="4" /><rect x="178" y="-14" width="28" height="28" rx="4" ry="4" /><rect x="210" y="-14" width="28" height="28" rx="4" ry="4" /><rect x="242" y="-14" width="28" height="28" rx="4" ry="4" /><rect x="274" y="-14" width="28" height="28" rx="4" ry="4" /><rect x="-14" y="43" width="28" height="28" rx="4" ry="4" /><rect x="18" y="43" width="28" height="28" rx="4" ry="4" /><rect x="50" y="43" width="28" height="28" rx="4" ry="4" /><rect x="82" y="43" width="28" height="28" rx="4" ry="4" /><rect x="114" y="43" width="28" height="28" rx="4" ry="4" /><rect x="146" y="43" width="28" height="28" rx="4" ry="4" /><rect x="178" y="43" width="28" height="28" rx="4" ry="4" /><rect x="210" y="43" width="28" height="28" rx="4" ry="4" /><rect x="242" y="43" width="28" height="28" rx="4" ry="4" /><rect x="274" y="43" width="28" height="28" rx="4" ry="4" /><rect x="-14" y="100" width="28" height="28" rx="4" ry="4" /><rect x="18" y="100" width="28" height="28" rx="4" ry="4" /><rect x="50" y="100" width="28" height="28" rx="4" ry="4" /><rect x="82" y="100" width="28" height="28" rx="4" ry="4" /><rect x="114" y="100" width="28" height="28" rx="4" ry="4" /><rect x="146" y="100" width="28" height="28" rx="4" ry="4" /><rect x="178" y="100" width="28" height="28" rx="4" ry="4" /><rect x="210" y="100" width="28" height="28" rx="4" ry="4" /><rect x="242" y="100" width="28" height="28" rx="4" ry="4" /><rect x="274" y="100" width="28" height="28" rx="4" ry="4" /><rect x="-14" y="157" width="28" height="28" rx="4" ry="4" /><rect x="18" y="157" width="28" height="28" rx="4" ry="4" /><rect x="50" y="157" width="28" height="28" rx="4" ry="4" /><rect x="82" y="157" width="28" height="28" rx="4" ry="4" /><rect x="114" y="157" width="28" height="28" rx="4" ry="4" /><rect x="146" y="157" width="28" height="28" rx="4" ry="4" /><rect x="178" y="157" width="28" height="28" rx="4" ry="4" /><rect x="210" y="157" width="28" height="28" rx="4" ry="4" /><rect x="242" y="157" width="28" height="28" rx="4" ry="4" /><rect x="274" y="157" width="28" height="28" rx="4" ry="4" /><rect x="-14" y="214" width="28" height="28" rx="4" ry="4" /><rect x="18" y="214" width="28" height="28" rx="4" ry="4" /><rect x="50" y="214" width="28" height="28" rx="4" ry="4" /><rect x="82" y="214" width="28" height="28" rx="4" ry="4" /><rect x="114" y="214" width="28" height="28" rx="4" ry="4" /><rect x="146" y="214" width="28" height="28" rx="4" ry="4" /><rect x="178" y="214" width="28" height="28" rx="4" ry="4" /><rect x="210" y="214" width="28" height="28" rx="4" ry="4" /><rect x="242" y="214" width="28" height="28" rx="4" ry="4" /><rect x="274" y="214" width="28" height="28" rx="4" ry="4" /></g><g font-size="9" font-family="Verdana" fill="#888888"><text id="" x="0" y="-22" dominant-baseline="central" text-anchor="middle">0</text><text id="" x="32" y="-22" dominant-baseline="central" text-anchor="middle">1</text><text id="" x="64" y="-22" dominant-baseline="central" text-anchor="middle">2</text><text id="" x="96" y="-22" dominant-baseline="central" text-anchor="middle">3</text><text id="" x="128" y="-22" dominant-baseline="central" text-anchor="middle">4</text><text id="" x="160" y="-22" dominant-baseline="central" text-anchor="middle">5</text><text id="" x="192" y="-22" dominant-baseline="central" text-anchor="middle">6</text><text id="" x="224" y="-22" dominant-baseline="central" text-anchor="middle">7</text><text id="" x="256" y="-22" dominant-baseline="central" text-anchor="middle">8</text><text id="" x="288" y="-22" dominant-baseline="central" text-anchor="middle">9</text><text id="" x="0" y="34" dominant-baseline="central" text-anchor="middle">10</text><text id="" x="32" y="34" dominant-baseline="central" text-anchor="middle">11</text><text id="" x="64" y="34" dominant-baseline="central" text-anchor="middle">12</text><text id="" x="96" y="34" dominant-baseline="central" text-anchor="middle">13</text><text id="" x="128" y="34" dominant-baseline="central" text-anchor="middle">14</text><text id="" x="160" y="34" dominant-baseline="central" text-anchor="middle">15</text><text id="" x="192" y="34" dominant-baseline="central" text-anchor="middle">16</text><text id="" x="224" y="34" dominant-baseline="central" text-anchor="middle">17</text><text id="" x="256" y="34" dominant-baseline="central" text-anchor="middle">18</text><text id="" x="288" y="34" dominant-baseline="central" text-anchor="middle">19</text><text id="" x="0" y="91" dominant-baseline="central" text-anchor="middle">20</text><text id="" x="32" y="91" dominant-baseline="central" text-anchor="middle">21</text><text id="" x="64" y="91" dominant-baseline="central" text-anchor="middle">22</text><text id="" x="96" y="91" dominant-baseline="central" text-anchor="middle">23</text><text id="" x="128" y="91" dominant-baseline="central" text-anchor="middle">24</text><text id="" x="160" y="91" dominant-baseline="central" text-anchor="middle">25</text><text id="" x="192" y="91" dominant-baseline="central" text-anchor="middle">26</text><text id="" x="224" y="91" dominant-baseline="central" text-anchor="middle">27</text><text id="" x="256" y="91" dominant-baseline="central" text-anchor="middle">28</text><text id="" x="288" y="91" dominant-baseline="central" text-anchor="middle">29</text><text id="" x="0" y="148" dominant-baseline="central" text-anchor="middle">30</text><text id="" x="32" y="148" dominant-baseline="central" text-anchor="middle">31</text><text id="" x="64" y="148" dominant-baseline="central" text-anchor="middle">32</text><text id="" x="96" y="148" dominant-baseline="central" text-anchor="middle">33</text><text id="" x="128" y="148" dominant-baseline="central" text-anchor="middle">34</text><text id="" x="160" y="148" dominant-baseline="central" text-anchor="middle">35</text><text id="" x="192" y="148" dominant-baseline="central" text-anchor="middle">36</text><text id="" x="224" y="148" dominant-baseline="central" text-anchor="middle">37</text><text id="" x="256" y="148" dominant-baseline="central" text-anchor="middle">38</text><text id="" x="288" y="148" dominant-baseline="central" text-anchor="middle">39</text><text id="" x="0" y="205" dominant-baseline="central" text-anchor="middle">40</text><text id="" x="32" y="205" dominant-baseline="central" text-anchor="middle">41</text><text id="" x="64" y="205" dominant-baseline="central" text-anchor="middle">42</text><text id="" x="96" y="205" dominant-baseline="central" text-anchor="middle">43</text><text id="" x="128" y="205" dominant-baseline="central" text-anchor="middle">44</text><text id="" x="160" y="205" dominant-baseline="central" text-anchor="middle">45</text><text id="" x="192" y="205" dominant-baseline="central" text-anchor="middle">46</text><text id="" x="224" y="205" dominant-baseline="central" text-anchor="middle">47</text><text id="" x="256" y="205" dominant-baseline="central" text-anchor="middle">48</text><text id="" x="288" y="205" dominant-baseline="central" text-anchor="middle">49</text></g></g><g transform="translate(20,60) scale(0.8)"><g class="flash_g" fill="#ff1493" stroke="#ff1493" stroke-width="1"><rect x="178" y="-14" width="28" height="28" rx="4" ry="4" /><rect x="274" y="-14" width="28" height="28" rx="4" ry="4" /><rect x="50" y="43" width="28" height="28" rx="4" ry="4" /><rect x="146" y="43" width="28" height="28" rx="4" ry="4" /><rect x="242" y="43" width="28" height="28" rx="4" ry="4" /><rect x="18" y="100" width="28" height="28" rx="4" ry="4" /><rect x="114" y="100" width="28" height="28" rx="4" ry="4" /><rect x="210" y="100" width="28" height="28" rx="4" ry="4" /><rect x="-14" y="157" width="28" height="28" rx="4" ry="4" /><rect x="82" y="157" width="28" height="28" rx="4" ry="4" /><rect x="178" y="157" width="28" height="28" rx="4" ry="4" /><rect x="274" y="157" width="28" height="28" rx="4" ry="4" /><rect x="50" y="214" width="28" height="28" rx="4" ry="4" /><rect x="146" y="214" width="28" height="28" rx="4" ry="4" /><rect x="242" y="214" width="28" height="28" rx="4" ry="4" /></g><g fill="none" stroke="#a0a0a0" stroke-width="1"><rect x="178" y="-14" width="28" height="28" rx="4" ry="4" /><rect x="274" y="-14" width="28" height="28" rx="4" ry="4" /><rect x="50" y="43" width="28" height="28" rx="4" ry="4" /><rect x="146" y="43" width="28" height="28" rx="4" ry="4" /><rect x="242" y="43" width="28" height="28" rx="4" ry="4" /><rect x="18" y="100" width="28" height="28" rx="4" ry="4" /><rect x="114" y="100" width="28" height="28" rx="4" ry="4" /><rect x="210" y="100" width="28" height="28" rx="4" ry="4" /><rect x="-14" y="157" width="28" height="28" rx="4" ry="4" /><rect x="82" y="157" width="28" height="28" rx="4" ry="4" /><rect x="178" y="157" width="28" height="28" rx="4" ry="4" /><rect x="274" y="157" width="28" height="28" rx="4" ry="4" /><rect x="50" y="214" width="28" height="28" rx="4" ry="4" /><rect x="146" y="214" width="28" height="28" rx="4" ry="4" /><rect x="242" y="214" width="28" height="28" rx="4" ry="4" /></g></g><g transform="translate(20,60) scale(0.8)"><g class="flash_g" fill="#ffffff" stroke="#ff1493" stroke-width="2"><rect x="82" y="-14" width="28" height="28" rx="4" ry="4" /></g></g><g transform="translate(20,60) scale(0.8)"><g class="flash_g" transform="translate(96,14) rotate(180)" fill="#ff1493"><path d="M 0 0 L 8 -10 L 4 -10 L 4 -26 L -4 -26 L -4 -10 L -8 -10 z"/></g></g><g transform="translate(20,60) scale(0.8)"><g stroke-width="0"><circle cx="64" cy="0" r="10" fill="#66c088" id="var_P_3__2" /><circle cx="96" cy="0" r="10" fill="#66c088" id="var_P_3__3" /><circle cx="160" cy="0" r="10" fill="#66c088" id="var_P_3__5" /><circle cx="224" cy="0" r="10" fill="#66c088" id="var_P_3__7" /><circle cx="32" cy="57" r="10" fill="#66c088" id="var_P_3__11" /><circle cx="96" cy="57" r="10" fill="#66c088" id="var_P_3__13" /><circle cx="224" cy="57" r="10" fill="#66c088" id="var_P_3__17" /><circle cx="288" cy="57" r="10" fill="#66c088" id="var_P_3__19" /><circle cx="96" cy="114" r="10" fill="#66c088" id="var_P_3__23" /><circle cx="160" cy="114" r="10" fill="#66c088" id="var_P_3__25" /><circle cx="288" cy="114" r="10" fill="#66c088" id="var_P_3__29" /><circle cx="32" cy="171" r="10" fill="#66c088" id="var_P_3__31" /><circle cx="160" cy="171" r="10" fill="#66c088" id="var_P_3__35" /><circle cx="224" cy="171" r="10" fill="#66c088" id="var_P_3__37" /><circle cx="32" cy="228" r="10" fill="#66c088" id="var_P_3__41" /><circle cx="96" cy="228" r="10" fill="#66c088" id="var_P_3__43" /><circle cx="224" cy="228" r="10" fill="#66c088" id="var_P_3__47" /><circle cx="288" cy="228" r="10" fill="#66c088" id="var_P_3__49" /></g><g font-size="14" font-family="sans-serif" fill="#ffffff"><text id="text_P_3__2" x="64" y="0" dominant-baseline="central" text-anchor="middle">1</text><text id="text_P_3__3" x="96" y="0" dominant-baseline="central" text-anchor="middle">1</text><text id="text_P_3__5" x="160" y="0" dominant-baseline="central" text-anchor="middle">1</text><text id="text_P_3__7" x="224" y="0" dominant-baseline="central" text-anchor="middle">1</text><text id="text_P_3__11" x="32" y="57" dominant-baseline="central" text-anchor="middle">1</text><text id="text_P_3__13" x="96" y="57" dominant-baseline="central" text-anchor="middle">1</text><text id="text_P_3__17" x="224" y="57" dominant-baseline="central" text-anchor="middle">1</text><text id="text_P_3__19" x="288" y="57" dominant-baseline="central" text-anchor="middle">1</text><text id="text_P_3__23" x="96" y="114" dominant-baseline="central" text-anchor="middle">1</text><text id="text_P_3__25" x="160" y="114" dominant-baseline="central" text-anchor="middle">1</text><text id="text_P_3__29" x="288" y="114" dominant-baseline="central" text-anchor="middle">1</text><text id="text_P_3__31" x="32" y="171" dominant-baseline="central" text-anchor="middle">1</text><text id="text_P_3__35" x="160" y="171" dominant-baseline="central" text-anchor="middle">1</text><text id="text_P_3__37" x="224" y="171" dominant-baseline="central" text-anchor="middle">1</text><text id="text_P_3__41" x="32" y="228" dominant-baseline="central" text-anchor="middle">1</text><text id="text_P_3__43" x="96" y="228" dominant-baseline="central" text-anchor="middle">1</text><text id="text_P_3__47" x="224" y="228" dominant-baseline="central" text-anchor="middle">1</text><text id="text_P_3__49" x="288" y="228" dominant-baseline="central" text-anchor="middle">1</text></g><g font-size="14" font-family="sans-serif" fill="#66c088"><text id="" x="-28" y="0" dominant-baseline="central" text-anchor="end">P</text></g></g></g><text x="16" y="20" font-size="16" text-anchor="middle" fill="#888888" font-family="sans-serif" >3-1</text><text x="140" y="284" font-size="9" text-anchor="middle" font-family="SimSun, 宋体, serif">将 3 的倍数从候选中移出</text><rect x ="320" y="0" width="280" height="300" fill="#ffffff" stroke="#888888" stroke-width="1"/><path fill="#0088e0" d="M 612 150 L 612 130 L 632 150 L 612 170 z" /><g transform="translate(320,0)"><g transform="translate(20,60) scale(0.8)"><g stroke="#c8e8ff" stroke-width="0" fill="#c8e8ff"><rect x="-22" y="-22" width="44" height="44" /><rect x="10" y="-22" width="44" height="44" /><rect x="42" y="-22" width="44" height="44" /><rect x="74" y="-22" width="44" height="44" /><rect x="106" y="-22" width="44" height="44" /><rect x="138" y="-22" width="44" height="44" /><rect x="170" y="-22" width="44" height="44" /><rect x="202" y="-22" width="44" height="44" /><rect x="234" y="-22" width="44" height="44" /><rect x="266" y="-22" width="44" height="44" /><rect x="-22" y="35" width="44" height="44" /><rect x="10" y="35" width="44" height="44" /><rect x="42" y="35" width="44" height="44" /><rect x="74" y="35" width="44" height="44" /><rect x="106" y="35" width="44" height="44" /><rect x="138" y="35" width="44" height="44" /><rect x="170" y="35" width="44" height="44" /><rect x="202" y="35" width="44" height="44" /><rect x="234" y="35" width="44" height="44" /><rect x="266" y="35" width="44" height="44" /><rect x="-22" y="92" width="44" height="44" /><rect x="10" y="92" width="44" height="44" /><rect x="42" y="92" width="44" height="44" /><rect x="74" y="92" width="44" height="44" /><rect x="106" y="92" width="44" height="44" /><rect x="138" y="92" width="44" height="44" /></g><g stroke="#c8e8ff" stroke-width="44.8" fill="#c8e8ff"></g></g><g transform="translate(20,60) scale(0.8)"><g fill="#ffffff" stroke="#a0a0a0" stroke-width="1"><rect x="-14" y="-14" width="28" height="28" rx="4" ry="4" /><rect x="18" y="-14" width="28" height="28" rx="4" ry="4" /><rect x="50" y="-14" width="28" height="28" rx="4" ry="4" /><rect x="82" y="-14" width="28" height="28" rx="4" ry="4" /><rect x="114" y="-14" width="28" height="28" rx="4" ry="4" /><rect x="146" y="-14" width="28" height="28" rx="4" ry="4" /><rect x="178" y="-14" width="28" height="28" rx="4" ry="4" /><rect x="210" y="-14" width="28" height="28" rx="4" ry="4" /><rect x="242" y="-14" width="28" height="28" rx="4" ry="4" /><rect x="274" y="-14" width="28" height="28" rx="4" ry="4" /><rect x="-14" y="43" width="28" height="28" rx="4" ry="4" /><rect x="18" y="43" width="28" height="28" rx="4" ry="4" /><rect x="50" y="43" width="28" height="28" rx="4" ry="4" /><rect x="82" y="43" width="28" height="28" rx="4" ry="4" /><rect x="114" y="43" width="28" height="28" rx="4" ry="4" /><rect x="146" y="43" width="28" height="28" rx="4" ry="4" /><rect x="178" y="43" width="28" height="28" rx="4" ry="4" /><rect x="210" y="43" width="28" height="28" rx="4" ry="4" /><rect x="242" y="43" width="28" height="28" rx="4" ry="4" /><rect x="274" y="43" width="28" height="28" rx="4" ry="4" /><rect x="-14" y="100" width="28" height="28" rx="4" ry="4" /><rect x="18" y="100" width="28" height="28" rx="4" ry="4" /><rect x="50" y="100" width="28" height="28" rx="4" ry="4" /><rect x="82" y="100" width="28" height="28" rx="4" ry="4" /><rect x="114" y="100" width="28" height="28" rx="4" ry="4" /><rect x="146" y="100" width="28" height="28" rx="4" ry="4" /><rect x="178" y="100" width="28" height="28" rx="4" ry="4" /><rect x="210" y="100" width="28" height="28" rx="4" ry="4" /><rect x="242" y="100" width="28" height="28" rx="4" ry="4" /><rect x="274" y="100" width="28" height="28" rx="4" ry="4" /><rect x="-14" y="157" width="28" height="28" rx="4" ry="4" /><rect x="18" y="157" width="28" height="28" rx="4" ry="4" /><rect x="50" y="157" width="28" height="28" rx="4" ry="4" /><rect x="82" y="157" width="28" height="28" rx="4" ry="4" /><rect x="114" y="157" width="28" height="28" rx="4" ry="4" /><rect x="146" y="157" width="28" height="28" rx="4" ry="4" /><rect x="178" y="157" width="28" height="28" rx="4" ry="4" /><rect x="210" y="157" width="28" height="28" rx="4" ry="4" /><rect x="242" y="157" width="28" height="28" rx="4" ry="4" /><rect x="274" y="157" width="28" height="28" rx="4" ry="4" /><rect x="-14" y="214" width="28" height="28" rx="4" ry="4" /><rect x="18" y="214" width="28" height="28" rx="4" ry="4" /><rect x="50" y="214" width="28" height="28" rx="4" ry="4" /><rect x="82" y="214" width="28" height="28" rx="4" ry="4" /><rect x="114" y="214" width="28" height="28" rx="4" ry="4" /><rect x="146" y="214" width="28" height="28" rx="4" ry="4" /><rect x="178" y="214" width="28" height="28" rx="4" ry="4" /><rect x="210" y="214" width="28" height="28" rx="4" ry="4" /><rect x="242" y="214" width="28" height="28" rx="4" ry="4" /><rect x="274" y="214" width="28" height="28" rx="4" ry="4" /></g><g font-size="9" font-family="Verdana" fill="#888888"><text id="" x="0" y="-22" dominant-baseline="central" text-anchor="middle">0</text><text id="" x="32" y="-22" dominant-baseline="central" text-anchor="middle">1</text><text id="" x="64" y="-22" dominant-baseline="central" text-anchor="middle">2</text><text id="" x="96" y="-22" dominant-baseline="central" text-anchor="middle">3</text><text id="" x="128" y="-22" dominant-baseline="central" text-anchor="middle">4</text><text id="" x="160" y="-22" dominant-baseline="central" text-anchor="middle">5</text><text id="" x="192" y="-22" dominant-baseline="central" text-anchor="middle">6</text><text id="" x="224" y="-22" dominant-baseline="central" text-anchor="middle">7</text><text id="" x="256" y="-22" dominant-baseline="central" text-anchor="middle">8</text><text id="" x="288" y="-22" dominant-baseline="central" text-anchor="middle">9</text><text id="" x="0" y="34" dominant-baseline="central" text-anchor="middle">10</text><text id="" x="32" y="34" dominant-baseline="central" text-anchor="middle">11</text><text id="" x="64" y="34" dominant-baseline="central" text-anchor="middle">12</text><text id="" x="96" y="34" dominant-baseline="central" text-anchor="middle">13</text><text id="" x="128" y="34" dominant-baseline="central" text-anchor="middle">14</text><text id="" x="160" y="34" dominant-baseline="central" text-anchor="middle">15</text><text id="" x="192" y="34" dominant-baseline="central" text-anchor="middle">16</text><text id="" x="224" y="34" dominant-baseline="central" text-anchor="middle">17</text><text id="" x="256" y="34" dominant-baseline="central" text-anchor="middle">18</text><text id="" x="288" y="34" dominant-baseline="central" text-anchor="middle">19</text><text id="" x="0" y="91" dominant-baseline="central" text-anchor="middle">20</text><text id="" x="32" y="91" dominant-baseline="central" text-anchor="middle">21</text><text id="" x="64" y="91" dominant-baseline="central" text-anchor="middle">22</text><text id="" x="96" y="91" dominant-baseline="central" text-anchor="middle">23</text><text id="" x="128" y="91" dominant-baseline="central" text-anchor="middle">24</text><text id="" x="160" y="91" dominant-baseline="central" text-anchor="middle">25</text><text id="" x="192" y="91" dominant-baseline="central" text-anchor="middle">26</text><text id="" x="224" y="91" dominant-baseline="central" text-anchor="middle">27</text><text id="" x="256" y="91" dominant-baseline="central" text-anchor="middle">28</text><text id="" x="288" y="91" dominant-baseline="central" text-anchor="middle">29</text><text id="" x="0" y="148" dominant-baseline="central" text-anchor="middle">30</text><text id="" x="32" y="148" dominant-baseline="central" text-anchor="middle">31</text><text id="" x="64" y="148" dominant-baseline="central" text-anchor="middle">32</text><text id="" x="96" y="148" dominant-baseline="central" text-anchor="middle">33</text><text id="" x="128" y="148" dominant-baseline="central" text-anchor="middle">34</text><text id="" x="160" y="148" dominant-baseline="central" text-anchor="middle">35</text><text id="" x="192" y="148" dominant-baseline="central" text-anchor="middle">36</text><text id="" x="224" y="148" dominant-baseline="central" text-anchor="middle">37</text><text id="" x="256" y="148" dominant-baseline="central" text-anchor="middle">38</text><text id="" x="288" y="148" dominant-baseline="central" text-anchor="middle">39</text><text id="" x="0" y="205" dominant-baseline="central" text-anchor="middle">40</text><text id="" x="32" y="205" dominant-baseline="central" text-anchor="middle">41</text><text id="" x="64" y="205" dominant-baseline="central" text-anchor="middle">42</text><text id="" x="96" y="205" dominant-baseline="central" text-anchor="middle">43</text><text id="" x="128" y="205" dominant-baseline="central" text-anchor="middle">44</text><text id="" x="160" y="205" dominant-baseline="central" text-anchor="middle">45</text><text id="" x="192" y="205" dominant-baseline="central" text-anchor="middle">46</text><text id="" x="224" y="205" dominant-baseline="central" text-anchor="middle">47</text><text id="" x="256" y="205" dominant-baseline="central" text-anchor="middle">48</text><text id="" x="288" y="205" dominant-baseline="central" text-anchor="middle">49</text></g></g><g transform="translate(20,60) scale(0.8)"><g class="flash_g" fill="#ff1493" stroke="#ff1493" stroke-width="1"><rect x="-14" y="43" width="28" height="28" rx="4" ry="4" /><rect x="146" y="43" width="28" height="28" rx="4" ry="4" /><rect x="-14" y="100" width="28" height="28" rx="4" ry="4" /><rect x="146" y="100" width="28" height="28" rx="4" ry="4" /><rect x="-14" y="157" width="28" height="28" rx="4" ry="4" /><rect x="146" y="157" width="28" height="28" rx="4" ry="4" /><rect x="-14" y="214" width="28" height="28" rx="4" ry="4" /><rect x="146" y="214" width="28" height="28" rx="4" ry="4" /></g><g fill="none" stroke="#a0a0a0" stroke-width="1"><rect x="-14" y="43" width="28" height="28" rx="4" ry="4" /><rect x="146" y="43" width="28" height="28" rx="4" ry="4" /><rect x="-14" y="100" width="28" height="28" rx="4" ry="4" /><rect x="146" y="100" width="28" height="28" rx="4" ry="4" /><rect x="-14" y="157" width="28" height="28" rx="4" ry="4" /><rect x="146" y="157" width="28" height="28" rx="4" ry="4" /><rect x="-14" y="214" width="28" height="28" rx="4" ry="4" /><rect x="146" y="214" width="28" height="28" rx="4" ry="4" /></g></g><g transform="translate(20,60) scale(0.8)"><g class="flash_g" fill="#ffffff" stroke="#ff1493" stroke-width="2"><rect x="146" y="-14" width="28" height="28" rx="4" ry="4" /></g></g><g transform="translate(20,60) scale(0.8)"><g class="flash_g" transform="translate(160,14) rotate(180)" fill="#ff1493"><path d="M 0 0 L 8 -10 L 4 -10 L 4 -26 L -4 -26 L -4 -10 L -8 -10 z"/></g></g><g transform="translate(20,60) scale(0.8)"><g stroke-width="0"><circle cx="64" cy="0" r="10" fill="#66c088" id="var_P_4__2" /><circle cx="96" cy="0" r="10" fill="#66c088" id="var_P_4__3" /><circle cx="160" cy="0" r="10" fill="#66c088" id="var_P_4__5" /><circle cx="224" cy="0" r="10" fill="#66c088" id="var_P_4__7" /><circle cx="32" cy="57" r="10" fill="#66c088" id="var_P_4__11" /><circle cx="96" cy="57" r="10" fill="#66c088" id="var_P_4__13" /><circle cx="224" cy="57" r="10" fill="#66c088" id="var_P_4__17" /><circle cx="288" cy="57" r="10" fill="#66c088" id="var_P_4__19" /><circle cx="96" cy="114" r="10" fill="#66c088" id="var_P_4__23" /><circle cx="288" cy="114" r="10" fill="#66c088" id="var_P_4__29" /><circle cx="32" cy="171" r="10" fill="#66c088" id="var_P_4__31" /><circle cx="224" cy="171" r="10" fill="#66c088" id="var_P_4__37" /><circle cx="32" cy="228" r="10" fill="#66c088" id="var_P_4__41" /><circle cx="96" cy="228" r="10" fill="#66c088" id="var_P_4__43" /><circle cx="224" cy="228" r="10" fill="#66c088" id="var_P_4__47" /><circle cx="288" cy="228" r="10" fill="#66c088" id="var_P_4__49" /></g><g font-size="14" font-family="sans-serif" fill="#ffffff"><text id="text_P_4__2" x="64" y="0" dominant-baseline="central" text-anchor="middle">1</text><text id="text_P_4__3" x="96" y="0" dominant-baseline="central" text-anchor="middle">1</text><text id="text_P_4__5" x="160" y="0" dominant-baseline="central" text-anchor="middle">1</text><text id="text_P_4__7" x="224" y="0" dominant-baseline="central" text-anchor="middle">1</text><text id="text_P_4__11" x="32" y="57" dominant-baseline="central" text-anchor="middle">1</text><text id="text_P_4__13" x="96" y="57" dominant-baseline="central" text-anchor="middle">1</text><text id="text_P_4__17" x="224" y="57" dominant-baseline="central" text-anchor="middle">1</text><text id="text_P_4__19" x="288" y="57" dominant-baseline="central" text-anchor="middle">1</text><text id="text_P_4__23" x="96" y="114" dominant-baseline="central" text-anchor="middle">1</text><text id="text_P_4__29" x="288" y="114" dominant-baseline="central" text-anchor="middle">1</text><text id="text_P_4__31" x="32" y="171" dominant-baseline="central" text-anchor="middle">1</text><text id="text_P_4__37" x="224" y="171" dominant-baseline="central" text-anchor="middle">1</text><text id="text_P_4__41" x="32" y="228" dominant-baseline="central" text-anchor="middle">1</text><text id="text_P_4__43" x="96" y="228" dominant-baseline="central" text-anchor="middle">1</text><text id="text_P_4__47" x="224" y="228" dominant-baseline="central" text-anchor="middle">1</text><text id="text_P_4__49" x="288" y="228" dominant-baseline="central" text-anchor="middle">1</text></g><g font-size="14" font-family="sans-serif" fill="#66c088"><text id="" x="-28" y="0" dominant-baseline="central" text-anchor="end">P</text></g></g></g><text x="336" y="20" font-size="16" text-anchor="middle" fill="#888888" font-family="sans-serif" >3-2</text><text x="460" y="284" font-size="9" text-anchor="middle" font-family="SimSun, 宋体, serif">将 5 的倍数从候选中移出</text><rect x ="0" y="316" width="280" height="300" fill="#ffffff" stroke="#888888" stroke-width="1"/><g transform="translate(0,316)"><g transform="translate(20,60) scale(0.8)"><g stroke="#c8e8ff" stroke-width="0" fill="#c8e8ff"><rect x="-22" y="-22" width="44" height="44" /><rect x="10" y="-22" width="44" height="44" /><rect x="42" y="-22" width="44" height="44" /><rect x="74" y="-22" width="44" height="44" /><rect x="106" y="-22" width="44" height="44" /><rect x="138" y="-22" width="44" height="44" /><rect x="170" y="-22" width="44" height="44" /><rect x="202" y="-22" width="44" height="44" /><rect x="234" y="-22" width="44" height="44" /><rect x="266" y="-22" width="44" height="44" /><rect x="-22" y="35" width="44" height="44" /><rect x="10" y="35" width="44" height="44" /><rect x="42" y="35" width="44" height="44" /><rect x="74" y="35" width="44" height="44" /><rect x="106" y="35" width="44" height="44" /><rect x="138" y="35" width="44" height="44" /><rect x="170" y="35" width="44" height="44" /><rect x="202" y="35" width="44" height="44" /><rect x="234" y="35" width="44" height="44" /><rect x="266" y="35" width="44" height="44" /><rect x="-22" y="92" width="44" height="44" /><rect x="10" y="92" width="44" height="44" /><rect x="42" y="92" width="44" height="44" /><rect x="74" y="92" width="44" height="44" /><rect x="106" y="92" width="44" height="44" /><rect x="138" y="92" width="44" height="44" /><rect x="170" y="92" width="44" height="44" /><rect x="202" y="92" width="44" height="44" /><rect x="234" y="92" width="44" height="44" /><rect x="266" y="92" width="44" height="44" /><rect x="-22" y="149" width="44" height="44" /><rect x="10" y="149" width="44" height="44" /><rect x="42" y="149" width="44" height="44" /><rect x="74" y="149" width="44" height="44" /><rect x="106" y="149" width="44" height="44" /><rect x="138" y="149" width="44" height="44" /><rect x="170" y="149" width="44" height="44" /><rect x="202" y="149" width="44" height="44" /><rect x="234" y="149" width="44" height="44" /><rect x="266" y="149" width="44" height="44" /><rect x="-22" y="206" width="44" height="44" /><rect x="10" y="206" width="44" height="44" /><rect x="42" y="206" width="44" height="44" /><rect x="74" y="206" width="44" height="44" /><rect x="106" y="206" width="44" height="44" /><rect x="138" y="206" width="44" height="44" /><rect x="170" y="206" width="44" height="44" /><rect x="202" y="206" width="44" height="44" /><rect x="234" y="206" width="44" height="44" /><rect x="266" y="206" width="44" height="44" /></g><g stroke="#c8e8ff" stroke-width="44.8" fill="#c8e8ff"></g></g><g transform="translate(20,60) scale(0.8)"><g fill="#ffffff" stroke="#a0a0a0" stroke-width="1"><rect x="-14" y="-14" width="28" height="28" rx="4" ry="4" /><rect x="18" y="-14" width="28" height="28" rx="4" ry="4" /><rect x="50" y="-14" width="28" height="28" rx="4" ry="4" /><rect x="82" y="-14" width="28" height="28" rx="4" ry="4" /><rect x="114" y="-14" width="28" height="28" rx="4" ry="4" /><rect x="146" y="-14" width="28" height="28" rx="4" ry="4" /><rect x="178" y="-14" width="28" height="28" rx="4" ry="4" /><rect x="210" y="-14" width="28" height="28" rx="4" ry="4" /><rect x="242" y="-14" width="28" height="28" rx="4" ry="4" /><rect x="274" y="-14" width="28" height="28" rx="4" ry="4" /><rect x="-14" y="43" width="28" height="28" rx="4" ry="4" /><rect x="18" y="43" width="28" height="28" rx="4" ry="4" /><rect x="50" y="43" width="28" height="28" rx="4" ry="4" /><rect x="82" y="43" width="28" height="28" rx="4" ry="4" /><rect x="114" y="43" width="28" height="28" rx="4" ry="4" /><rect x="146" y="43" width="28" height="28" rx="4" ry="4" /><rect x="178" y="43" width="28" height="28" rx="4" ry="4" /><rect x="210" y="43" width="28" height="28" rx="4" ry="4" /><rect x="242" y="43" width="28" height="28" rx="4" ry="4" /><rect x="274" y="43" width="28" height="28" rx="4" ry="4" /><rect x="-14" y="100" width="28" height="28" rx="4" ry="4" /><rect x="18" y="100" width="28" height="28" rx="4" ry="4" /><rect x="50" y="100" width="28" height="28" rx="4" ry="4" /><rect x="82" y="100" width="28" height="28" rx="4" ry="4" /><rect x="114" y="100" width="28" height="28" rx="4" ry="4" /><rect x="146" y="100" width="28" height="28" rx="4" ry="4" /><rect x="178" y="100" width="28" height="28" rx="4" ry="4" /><rect x="210" y="100" width="28" height="28" rx="4" ry="4" /><rect x="242" y="100" width="28" height="28" rx="4" ry="4" /><rect x="274" y="100" width="28" height="28" rx="4" ry="4" /><rect x="-14" y="157" width="28" height="28" rx="4" ry="4" /><rect x="18" y="157" width="28" height="28" rx="4" ry="4" /><rect x="50" y="157" width="28" height="28" rx="4" ry="4" /><rect x="82" y="157" width="28" height="28" rx="4" ry="4" /><rect x="114" y="157" width="28" height="28" rx="4" ry="4" /><rect x="146" y="157" width="28" height="28" rx="4" ry="4" /><rect x="178" y="157" width="28" height="28" rx="4" ry="4" /><rect x="210" y="157" width="28" height="28" rx="4" ry="4" /><rect x="242" y="157" width="28" height="28" rx="4" ry="4" /><rect x="274" y="157" width="28" height="28" rx="4" ry="4" /><rect x="-14" y="214" width="28" height="28" rx="4" ry="4" /><rect x="18" y="214" width="28" height="28" rx="4" ry="4" /><rect x="50" y="214" width="28" height="28" rx="4" ry="4" /><rect x="82" y="214" width="28" height="28" rx="4" ry="4" /><rect x="114" y="214" width="28" height="28" rx="4" ry="4" /><rect x="146" y="214" width="28" height="28" rx="4" ry="4" /><rect x="178" y="214" width="28" height="28" rx="4" ry="4" /><rect x="210" y="214" width="28" height="28" rx="4" ry="4" /><rect x="242" y="214" width="28" height="28" rx="4" ry="4" /><rect x="274" y="214" width="28" height="28" rx="4" ry="4" /></g><g font-size="9" font-family="Verdana" fill="#888888"><text id="" x="0" y="-22" dominant-baseline="central" text-anchor="middle">0</text><text id="" x="32" y="-22" dominant-baseline="central" text-anchor="middle">1</text><text id="" x="64" y="-22" dominant-baseline="central" text-anchor="middle">2</text><text id="" x="96" y="-22" dominant-baseline="central" text-anchor="middle">3</text><text id="" x="128" y="-22" dominant-baseline="central" text-anchor="middle">4</text><text id="" x="160" y="-22" dominant-baseline="central" text-anchor="middle">5</text><text id="" x="192" y="-22" dominant-baseline="central" text-anchor="middle">6</text><text id="" x="224" y="-22" dominant-baseline="central" text-anchor="middle">7</text><text id="" x="256" y="-22" dominant-baseline="central" text-anchor="middle">8</text><text id="" x="288" y="-22" dominant-baseline="central" text-anchor="middle">9</text><text id="" x="0" y="34" dominant-baseline="central" text-anchor="middle">10</text><text id="" x="32" y="34" dominant-baseline="central" text-anchor="middle">11</text><text id="" x="64" y="34" dominant-baseline="central" text-anchor="middle">12</text><text id="" x="96" y="34" dominant-baseline="central" text-anchor="middle">13</text><text id="" x="128" y="34" dominant-baseline="central" text-anchor="middle">14</text><text id="" x="160" y="34" dominant-baseline="central" text-anchor="middle">15</text><text id="" x="192" y="34" dominant-baseline="central" text-anchor="middle">16</text><text id="" x="224" y="34" dominant-baseline="central" text-anchor="middle">17</text><text id="" x="256" y="34" dominant-baseline="central" text-anchor="middle">18</text><text id="" x="288" y="34" dominant-baseline="central" text-anchor="middle">19</text><text id="" x="0" y="91" dominant-baseline="central" text-anchor="middle">20</text><text id="" x="32" y="91" dominant-baseline="central" text-anchor="middle">21</text><text id="" x="64" y="91" dominant-baseline="central" text-anchor="middle">22</text><text id="" x="96" y="91" dominant-baseline="central" text-anchor="middle">23</text><text id="" x="128" y="91" dominant-baseline="central" text-anchor="middle">24</text><text id="" x="160" y="91" dominant-baseline="central" text-anchor="middle">25</text><text id="" x="192" y="91" dominant-baseline="central" text-anchor="middle">26</text><text id="" x="224" y="91" dominant-baseline="central" text-anchor="middle">27</text><text id="" x="256" y="91" dominant-baseline="central" text-anchor="middle">28</text><text id="" x="288" y="91" dominant-baseline="central" text-anchor="middle">29</text><text id="" x="0" y="148" dominant-baseline="central" text-anchor="middle">30</text><text id="" x="32" y="148" dominant-baseline="central" text-anchor="middle">31</text><text id="" x="64" y="148" dominant-baseline="central" text-anchor="middle">32</text><text id="" x="96" y="148" dominant-baseline="central" text-anchor="middle">33</text><text id="" x="128" y="148" dominant-baseline="central" text-anchor="middle">34</text><text id="" x="160" y="148" dominant-baseline="central" text-anchor="middle">35</text><text id="" x="192" y="148" dominant-baseline="central" text-anchor="middle">36</text><text id="" x="224" y="148" dominant-baseline="central" text-anchor="middle">37</text><text id="" x="256" y="148" dominant-baseline="central" text-anchor="middle">38</text><text id="" x="288" y="148" dominant-baseline="central" text-anchor="middle">39</text><text id="" x="0" y="205" dominant-baseline="central" text-anchor="middle">40</text><text id="" x="32" y="205" dominant-baseline="central" text-anchor="middle">41</text><text id="" x="64" y="205" dominant-baseline="central" text-anchor="middle">42</text><text id="" x="96" y="205" dominant-baseline="central" text-anchor="middle">43</text><text id="" x="128" y="205" dominant-baseline="central" text-anchor="middle">44</text><text id="" x="160" y="205" dominant-baseline="central" text-anchor="middle">45</text><text id="" x="192" y="205" dominant-baseline="central" text-anchor="middle">46</text><text id="" x="224" y="205" dominant-baseline="central" text-anchor="middle">47</text><text id="" x="256" y="205" dominant-baseline="central" text-anchor="middle">48</text><text id="" x="288" y="205" dominant-baseline="central" text-anchor="middle">49</text></g></g><g transform="translate(20,60) scale(0.8)"><g class="flash_g" fill="#ff1493" stroke="#ff1493" stroke-width="1"><rect x="114" y="43" width="28" height="28" rx="4" ry="4" /><rect x="18" y="100" width="28" height="28" rx="4" ry="4" /><rect x="242" y="100" width="28" height="28" rx="4" ry="4" /><rect x="146" y="157" width="28" height="28" rx="4" ry="4" /><rect x="50" y="214" width="28" height="28" rx="4" ry="4" /><rect x="274" y="214" width="28" height="28" rx="4" ry="4" /></g><g fill="none" stroke="#a0a0a0" stroke-width="1"><rect x="114" y="43" width="28" height="28" rx="4" ry="4" /><rect x="18" y="100" width="28" height="28" rx="4" ry="4" /><rect x="242" y="100" width="28" height="28" rx="4" ry="4" /><rect x="146" y="157" width="28" height="28" rx="4" ry="4" /><rect x="50" y="214" width="28" height="28" rx="4" ry="4" /><rect x="274" y="214" width="28" height="28" rx="4" ry="4" /></g></g><g transform="translate(20,60) scale(0.8)"><g class="flash_g" fill="#ffffff" stroke="#ff1493" stroke-width="2"><rect x="210" y="-14" width="28" height="28" rx="4" ry="4" /></g></g><g transform="translate(20,60) scale(0.8)"><g class="flash_g" transform="translate(224,14) rotate(180)" fill="#ff1493"><path d="M 0 0 L 8 -10 L 4 -10 L 4 -26 L -4 -26 L -4 -10 L -8 -10 z"/></g></g><g transform="translate(20,60) scale(0.8)"><g stroke-width="0"><circle cx="64" cy="0" r="10" fill="#66c088" id="var_P_5__2" /><circle cx="96" cy="0" r="10" fill="#66c088" id="var_P_5__3" /><circle cx="160" cy="0" r="10" fill="#66c088" id="var_P_5__5" /><circle cx="224" cy="0" r="10" fill="#66c088" id="var_P_5__7" /><circle cx="32" cy="57" r="10" fill="#66c088" id="var_P_5__11" /><circle cx="96" cy="57" r="10" fill="#66c088" id="var_P_5__13" /><circle cx="224" cy="57" r="10" fill="#66c088" id="var_P_5__17" /><circle cx="288" cy="57" r="10" fill="#66c088" id="var_P_5__19" /><circle cx="96" cy="114" r="10" fill="#66c088" id="var_P_5__23" /><circle cx="288" cy="114" r="10" fill="#66c088" id="var_P_5__29" /><circle cx="32" cy="171" r="10" fill="#66c088" id="var_P_5__31" /><circle cx="224" cy="171" r="10" fill="#66c088" id="var_P_5__37" /><circle cx="32" cy="228" r="10" fill="#66c088" id="var_P_5__41" /><circle cx="96" cy="228" r="10" fill="#66c088" id="var_P_5__43" /><circle cx="224" cy="228" r="10" fill="#66c088" id="var_P_5__47" /></g><g font-size="14" font-family="sans-serif" fill="#ffffff"><text id="text_P_5__2" x="64" y="0" dominant-baseline="central" text-anchor="middle">1</text><text id="text_P_5__3" x="96" y="0" dominant-baseline="central" text-anchor="middle">1</text><text id="text_P_5__5" x="160" y="0" dominant-baseline="central" text-anchor="middle">1</text><text id="text_P_5__7" x="224" y="0" dominant-baseline="central" text-anchor="middle">1</text><text id="text_P_5__11" x="32" y="57" dominant-baseline="central" text-anchor="middle">1</text><text id="text_P_5__13" x="96" y="57" dominant-baseline="central" text-anchor="middle">1</text><text id="text_P_5__17" x="224" y="57" dominant-baseline="central" text-anchor="middle">1</text><text id="text_P_5__19" x="288" y="57" dominant-baseline="central" text-anchor="middle">1</text><text id="text_P_5__23" x="96" y="114" dominant-baseline="central" text-anchor="middle">1</text><text id="text_P_5__29" x="288" y="114" dominant-baseline="central" text-anchor="middle">1</text><text id="text_P_5__31" x="32" y="171" dominant-baseline="central" text-anchor="middle">1</text><text id="text_P_5__37" x="224" y="171" dominant-baseline="central" text-anchor="middle">1</text><text id="text_P_5__41" x="32" y="228" dominant-baseline="central" text-anchor="middle">1</text><text id="text_P_5__43" x="96" y="228" dominant-baseline="central" text-anchor="middle">1</text><text id="text_P_5__47" x="224" y="228" dominant-baseline="central" text-anchor="middle">1</text></g><g font-size="14" font-family="sans-serif" fill="#66c088"><text id="" x="-28" y="0" dominant-baseline="central" text-anchor="end">P</text></g></g></g><text x="16" y="336" font-size="16" text-anchor="middle" fill="#888888" font-family="sans-serif" >3-3</text><text x="140" y="600" font-size="9" text-anchor="middle" font-family="SimSun, 宋体, serif">将 7 的倍数从候选中移出</text></svg>

