<?xml version="1.0" encoding="UTF-8" standalone="no"?>
<svg
xmlns:svg="http://www.w3.org/2000/svg"
xmlns="http://www.w3.org/2000/svg"
xmlns:xlink="http://www.w3.org/1999/xlink"
width ="640"
height ="316"
viewBox ="0 0 640 316"
>
<defs><polygon points="0,0 6,8, 0,16 20,8" id="m_tmpl2"/><marker id="token_arrow"  markerUnits="userSpaceOnUse" markerWidth="20" markerHeight="16" viewBox="0 0 20 16" refX="14" refY="8" orient="auto"><use xlink:href="#m_tmpl2" fill="#60a0ff"/></marker></defs><defs><polygon points="0,0 0,4 0,8 12,4" id="m_tmpl3"/><marker id="link_arrow" markerUnits="strokeWidth" markerWidth="12" markerHeight="8" viewBox="0 0 12 8" refX="12" refY="4" orient="auto"><use xlink:href="#m_tmpl3" fill="#888888"/></marker></defs><rect x ="0" y="0" width="280" height="300" fill="#ffffff" stroke="#888888" stroke-width="1"/><g transform="translate(0,0)"><g transform="translate(20,60) scale(0.8)"><g fill="#ffffff" stroke="#a0a0a0" stroke-width="1"><rect x="-14" y="-14" width="28" height="28" rx="4" ry="4" /><rect x="18" y="-14" width="28" height="28" rx="4" ry="4" /><rect x="50" y="-14" width="28" height="28" rx="4" ry="4" /><rect x="82" y="-14" width="28" height="28" rx="4" ry="4" /><rect x="114" y="-14" width="28" height="28" rx="4" ry="4" /><rect x="146" y="-14" width="28" height="28" rx="4" ry="4" /><rect x="178" y="-14" width="28" height="28" rx="4" ry="4" /><rect x="210" y="-14" width="28" height="28" rx="4" ry="4" /><rect x="242" y="-14" width="28" height="28" rx="4" ry="4" /><rect x="274" y="-14" width="28" height="28" rx="4" ry="4" /><rect x="-14" y="43" width="28" height="28" rx="4" ry="4" /><rect x="18" y="43" width="28" height="28" rx="4" ry="4" /><rect x="50" y="43" width="28" height="28" rx="4" ry="4" /><rect x="82" y="43" width="28" height="28" rx="4" ry="4" /><rect x="114" y="43" width="28" height="28" rx="4" ry="4" /><rect x="146" y="43" width="28" height="28" rx="4" ry="4" /><rect x="178" y="43" width="28" height="28" rx="4" ry="4" /><rect x="210" y="43" width="28" height="28" rx="4" ry="4" /><rect x="242" y="43" width="28" height="28" rx="4" ry="4" /><rect x="274" y="43" width="28" height="28" rx="4" ry="4" /><rect x="-14" y="100" width="28" height="28" rx="4" ry="4" /><rect x="18" y="100" width="28" height="28" rx="4" ry="4" /><rect x="50" y="100" width="28" height="28" rx="4" ry="4" /><rect x="82" y="100" width="28" height="28" rx="4" ry="4" /><rect x="114" y="100" width="28" height="28" rx="4" ry="4" /><rect x="146" y="100" width="28" height="28" rx="4" ry="4" /><rect x="178" y="100" width="28" height="28" rx="4" ry="4" /><rect x="210" y="100" width="28" height="28" rx="4" ry="4" /><rect x="242" y="100" width="28" height="28" rx="4" ry="4" /><rect x="274" y="100" width="28" height="28" rx="4" ry="4" /><rect x="-14" y="157" width="28" height="28" rx="4" ry="4" /><rect x="18" y="157" width="28" height="28" rx="4" ry="4" /><rect x="50" y="157" width="28" height="28" rx="4" ry="4" /><rect x="82" y="157" width="28" height="28" rx="4" ry="4" /><rect x="114" y="157" width="28" height="28" rx="4" ry="4" /><rect x="146" y="157" width="28" height="28" rx="4" ry="4" /><rect x="178" y="157" width="28" height="28" rx="4" ry="4" /><rect x="210" y="157" width="28" height="28" rx="4" ry="4" /><rect x="242" y="157" width="28" height="28" rx="4" ry="4" /><rect x="274" y="157" width="28" height="28" rx="4" ry="4" /><rect x="-14" y="214" width="28" height="28" rx="4" ry="4" /><rect x="18" y="214" width="28" height="28" rx="4" ry="4" /><rect x="50" y="214" width="28" height="28" rx="4" ry="4" /><rect x="82" y="214" width="28" height="28" rx="4" ry="4" /><rect x="114" y="214" width="28" height="28" rx="4" ry="4" /><rect x="146" y="214" width="28" height="28" rx="4" ry="4" /><rect x="178" y="214" width="28" height="28" rx="4" ry="4" /><rect x="210" y="214" width="28" height="28" rx="4" ry="4" /><rect x="242" y="214" width="28" height="28" rx="4" ry="4" /><rect x="274" y="214" width="28" height="28" rx="4" ry="4" /></g><g font-size="9" font-family="Verdana" fill="#888888"><text id="" x="0" y="-22" dominant-baseline="central" text-anchor="middle">0</text><text id="" x="32" y="-22" dominant-baseline="central" text-anchor="middle">1</text><text id="" x="64" y="-22" dominant-baseline="central" text-anchor="middle">2</text><text id="" x="96" y="-22" dominant-baseline="central" text-anchor="middle">3</text><text id="" x="128" y="-22" dominant-baseline="central" text-anchor="middle">4</text><text id="" x="160" y="-22" dominant-baseline="central" text-anchor="middle">5</text><text id="" x="192" y="-22" dominant-baseline="central" text-anchor="middle">6</text><text id="" x="224" y="-22" dominant-baseline="central" text-anchor="middle">7</text><text id="" x="256" y="-22" dominant-baseline="central" text-anchor="middle">8</text><text id="" x="288" y="-22" dominant-baseline="central" text-anchor="middle">9</text><text id="" x="0" y="34" dominant-baseline="central" text-anchor="middle">10</text><text id="" x="32" y="34" dominant-baseline="central" text-anchor="middle">11</text><text id="" x="64" y="34" dominant-baseline="central" text-anchor="middle">12</text><text id="" x="96" y="34" dominant-baseline="central" text-anchor="middle">13</text><text id="" x="128" y="34" dominant-baseline="central" text-anchor="middle">14</text><text id="" x="160" y="34" dominant-baseline="central" text-anchor="middle">15</text><text id="" x="192" y="34" dominant-baseline="central" text-anchor="middle">16</text><text id="" x="224" y="34" dominant-baseline="central" text-anchor="middle">17</text><text id="" x="256" y="34" dominant-baseline="central" text-anchor="middle">18</text><text id="" x="288" y="34" dominant-baseline="central" text-anchor="middle">19</text><text id="" x="0" y="91" dominant-baseline="central" text-anchor="middle">20</text><text id="" x="32" y="91" dominant-baseline="central" text-anchor="middle">21</text><text id="" x="64" y="91" dominant-baseline="central" text-anchor="middle">22</text><text id="" x="96" y="91" dominant-baseline="central" text-anchor="middle">23</text><text id="" x="128" y="91" dominant-baseline="central" text-anchor="middle">24</text><text id="" x="160" y="91" dominant-baseline="central" text-anchor="middle">25</text><text id="" x="192" y="91" dominant-baseline="central" text-anchor="middle">26</text><text id="" x="224" y="91" dominant-baseline="central" text-anchor="middle">27</text><text id="" x="256" y="91" dominant-baseline="central" text-anchor="middle">28</text><text id="" x="288" y="91" dominant-baseline="central" text-anchor="middle">29</text><text id="" x="0" y="148" dominant-baseline="central" text-anchor="middle">30</text><text id="" x="32" y="148" dominant-baseline="central" text-anchor="middle">31</text><text id="" x="64" y="148" dominant-baseline="central" text-anchor="middle">32</text><text id="" x="96" y="148" dominant-baseline="central" text-anchor="middle">33</text><text id="" x="128" y="148" dominant-baseline="central" text-anchor="middle">34</text><text id="" x="160" y="148" dominant-baseline="central" text-anchor="middle">35</text><text id="" x="192" y="148" dominant-baseline="central" text-anchor="middle">36</text><text id="" x="224" y="148" dominant-baseline="central" text-anchor="middle">37</text><text id="" x="256" y="148" dominant-baseline="central" text-anchor="middle">38</text><text id="" x="288" y="148" dominant-baseline="central" text-anchor="middle">39</text><text id="" x="0" y="205" dominant-baseline="central" text-anchor="middle">40</text><text id="" x="32" y="205" dominant-baseline="central" text-anchor="middle">41</text><text id="" x="64" y="205" dominant-baseline="central" text-anchor="middle">42</text><text id="" x="96" y="205" dominant-baseline="central" text-anchor="middle">43</text><text id="" x="128" y="205" dominant-baseline="central" text-anchor="middle">44</text><text id="" x="160" y="205" dominant-baseline="central" text-anchor="middle">45</text><text id="" x="192" y="205" dominant-baseline="central" text-anchor="middle">46</text><text id="" x="224" y="205" dominant-baseline="central" text-anchor="middle">47</text><text id="" x="256" y="205" dominant-baseline="central" text-anchor="middle">48</text><text id="" x="288" y="205" dominant-baseline="central" text-anchor="middle">49</text></g></g><g transform="translate(20,60) scale(0.8)"><g class="flash_g" fill="#ffd700" stroke="#ffd700" stroke-width="1"><rect x="50" y="-14" width="28" height="28" rx="4" ry="4" /><rect x="82" y="-14" width="28" height="28" rx="4" ry="4" /><rect x="114" y="-14" width="28" height="28" rx="4" ry="4" /><rect x="146" y="-14" width="28" height="28" rx="4" ry="4" /><rect x="178" y="-14" width="28" height="28" rx="4" ry="4" /><rect x="210" y="-14" width="28" height="28" rx="4" ry="4" /><rect x="242" y="-14" width="28" height="28" rx="4" ry="4" /><rect x="274" y="-14" width="28" height="28" rx="4" ry="4" /><rect x="-14" y="43" width="28" height="28" rx="4" ry="4" /><rect x="18" y="43" width="28" height="28" rx="4" ry="4" /><rect x="50" y="43" width="28" height="28" rx="4" ry="4" /><rect x="82" y="43" width="28" height="28" rx="4" ry="4" /><rect x="114" y="43" width="28" height="28" rx="4" ry="4" /><rect x="146" y="43" width="28" height="28" rx="4" ry="4" /><rect x="178" y="43" width="28" height="28" rx="4" ry="4" /><rect x="210" y="43" width="28" height="28" rx="4" ry="4" /><rect x="242" y="43" width="28" height="28" rx="4" ry="4" /><rect x="274" y="43" width="28" height="28" rx="4" ry="4" /><rect x="-14" y="100" width="28" height="28" rx="4" ry="4" /><rect x="18" y="100" width="28" height="28" rx="4" ry="4" /><rect x="50" y="100" width="28" height="28" rx="4" ry="4" /><rect x="82" y="100" width="28" height="28" rx="4" ry="4" /><rect x="114" y="100" width="28" height="28" rx="4" ry="4" /><rect x="146" y="100" width="28" height="28" rx="4" ry="4" /><rect x="178" y="100" width="28" height="28" rx="4" ry="4" /><rect x="210" y="100" width="28" height="28" rx="4" ry="4" /><rect x="242" y="100" width="28" height="28" rx="4" ry="4" /><rect x="274" y="100" width="28" height="28" rx="4" ry="4" /><rect x="-14" y="157" width="28" height="28" rx="4" ry="4" /><rect x="18" y="157" width="28" height="28" rx="4" ry="4" /><rect x="50" y="157" width="28" height="28" rx="4" ry="4" /><rect x="82" y="157" width="28" height="28" rx="4" ry="4" /><rect x="114" y="157" width="28" height="28" rx="4" ry="4" /><rect x="146" y="157" width="28" height="28" rx="4" ry="4" /><rect x="178" y="157" width="28" height="28" rx="4" ry="4" /><rect x="210" y="157" width="28" height="28" rx="4" ry="4" /><rect x="242" y="157" width="28" height="28" rx="4" ry="4" /><rect x="274" y="157" width="28" height="28" rx="4" ry="4" /><rect x="-14" y="214" width="28" height="28" rx="4" ry="4" /><rect x="18" y="214" width="28" height="28" rx="4" ry="4" /><rect x="50" y="214" width="28" height="28" rx="4" ry="4" /><rect x="82" y="214" width="28" height="28" rx="4" ry="4" /><rect x="114" y="214" width="28" height="28" rx="4" ry="4" /><rect x="146" y="214" width="28" height="28" rx="4" ry="4" /><rect x="178" y="214" width="28" height="28" rx="4" ry="4" /><rect x="210" y="214" width="28" height="28" rx="4" ry="4" /><rect x="242" y="214" width="28" height="28" rx="4" ry="4" /><rect x="274" y="214" width="28" height="28" rx="4" ry="4" /></g><g fill="none" stroke="#a0a0a0" stroke-width="1"><rect x="50" y="-14" width="28" height="28" rx="4" ry="4" /><rect x="82" y="-14" width="28" height="28" rx="4" ry="4" /><rect x="114" y="-14" width="28" height="28" rx="4" ry="4" /><rect x="146" y="-14" width="28" height="28" rx="4" ry="4" /><rect x="178" y="-14" width="28" height="28" rx="4" ry="4" /><rect x="210" y="-14" width="28" height="28" rx="4" ry="4" /><rect x="242" y="-14" width="28" height="28" rx="4" ry="4" /><rect x="274" y="-14" width="28" height="28" rx="4" ry="4" /><rect x="-14" y="43" width="28" height="28" rx="4" ry="4" /><rect x="18" y="43" width="28" height="28" rx="4" ry="4" /><rect x="50" y="43" width="28" height="28" rx="4" ry="4" /><rect x="82" y="43" width="28" height="28" rx="4" ry="4" /><rect x="114" y="43" width="28" height="28" rx="4" ry="4" /><rect x="146" y="43" width="28" height="28" rx="4" ry="4" /><rect x="178" y="43" width="28" height="28" rx="4" ry="4" /><rect x="210" y="43" width="28" height="28" rx="4" ry="4" /><rect x="242" y="43" width="28" height="28" rx="4" ry="4" /><rect x="274" y="43" width="28" height="28" rx="4" ry="4" /><rect x="-14" y="100" width="28" height="28" rx="4" ry="4" /><rect x="18" y="100" width="28" height="28" rx="4" ry="4" /><rect x="50" y="100" width="28" height="28" rx="4" ry="4" /><rect x="82" y="100" width="28" height="28" rx="4" ry="4" /><rect x="114" y="100" width="28" height="28" rx="4" ry="4" /><rect x="146" y="100" width="28" height="28" rx="4" ry="4" /><rect x="178" y="100" width="28" height="28" rx="4" ry="4" /><rect x="210" y="100" width="28" height="28" rx="4" ry="4" /><rect x="242" y="100" width="28" height="28" rx="4" ry="4" /><rect x="274" y="100" width="28" height="28" rx="4" ry="4" /><rect x="-14" y="157" width="28" height="28" rx="4" ry="4" /><rect x="18" y="157" width="28" height="28" rx="4" ry="4" /><rect x="50" y="157" width="28" height="28" rx="4" ry="4" /><rect x="82" y="157" width="28" height="28" rx="4" ry="4" /><rect x="114" y="157" width="28" height="28" rx="4" ry="4" /><rect x="146" y="157" width="28" height="28" rx="4" ry="4" /><rect x="178" y="157" width="28" height="28" rx="4" ry="4" /><rect x="210" y="157" width="28" height="28" rx="4" ry="4" /><rect x="242" y="157" width="28" height="28" rx="4" ry="4" /><rect x="274" y="157" width="28" height="28" rx="4" ry="4" /><rect x="-14" y="214" width="28" height="28" rx="4" ry="4" /><rect x="18" y="214" width="28" height="28" rx="4" ry="4" /><rect x="50" y="214" width="28" height="28" rx="4" ry="4" /><rect x="82" y="214" width="28" height="28" rx="4" ry="4" /><rect x="114" y="214" width="28" height="28" rx="4" ry="4" /><rect x="146" y="214" width="28" height="28" rx="4" ry="4" /><rect x="178" y="214" width="28" height="28" rx="4" ry="4" /><rect x="210" y="214" width="28" height="28" rx="4" ry="4" /><rect x="242" y="214" width="28" height="28" rx="4" ry="4" /><rect x="274" y="214" width="28" height="28" rx="4" ry="4" /></g></g><g transform="translate(20,60) scale(0.8)"><g stroke-width="0"><circle cx="64" cy="0" r="10" fill="#66c088" id="var_P_1__2" /><circle cx="96" cy="0" r="10" fill="#66c088" id="var_P_1__3" /><circle cx="128" cy="0" r="10" fill="#66c088" id="var_P_1__4" /><circle cx="160" cy="0" r="10" fill="#66c088" id="var_P_1__5" /><circle cx="192" cy="0" r="10" fill="#66c088" id="var_P_1__6" /><circle cx="224" cy="0" r="10" fill="#66c088" id="var_P_1__7" /><circle cx="256" cy="0" r="10" fill="#66c088" id="var_P_1__8" /><circle cx="288" cy="0" r="10" fill="#66c088" id="var_P_1__9" /><circle cx="0" cy="57" r="10" fill="#66c088" id="var_P_1__10" /><circle cx="32" cy="57" r="10" fill="#66c088" id="var_P_1__11" /><circle cx="64" cy="57" r="10" fill="#66c088" id="var_P_1__12" /><circle cx="96" cy="57" r="10" fill="#66c088" id="var_P_1__13" /><circle cx="128" cy="57" r="10" fill="#66c088" id="var_P_1__14" /><circle cx="160" cy="57" r="10" fill="#66c088" id="var_P_1__15" /><circle cx="192" cy="57" r="10" fill="#66c088" id="var_P_1__16" /><circle cx="224" cy="57" r="10" fill="#66c088" id="var_P_1__17" /><circle cx="256" cy="57" r="10" fill="#66c088" id="var_P_1__18" /><circle cx="288" cy="57" r="10" fill="#66c088" id="var_P_1__19" /><circle cx="0" cy="114" r="10" fill="#66c088" id="var_P_1__20" /><circle cx="32" cy="114" r="10" fill="#66c088" id="var_P_1__21" /><circle cx="64" cy="114" r="10" fill="#66c088" id="var_P_1__22" /><circle cx="96" cy="114" r="10" fill="#66c088" id="var_P_1__23" /><circle cx="128" cy="114" r="10" fill="#66c088" id="var_P_1__24" /><circle cx="160" cy="114" r="10" fill="#66c088" id="var_P_1__25" /><circle cx="192" cy="114" r="10" fill="#66c088" id="var_P_1__26" /><circle cx="224" cy="114" r="10" fill="#66c088" id="var_P_1__27" /><circle cx="256" cy="114" r="10" fill="#66c088" id="var_P_1__28" /><circle cx="288" cy="114" r="10" fill="#66c088" id="var_P_1__29" /><circle cx="0" cy="171" r="10" fill="#66c088" id="var_P_1__30" /><circle cx="32" cy="171" r="10" fill="#66c088" id="var_P_1__31" /><circle cx="64" cy="171" r="10" fill="#66c088" id="var_P_1__32" /><circle cx="96" cy="171" r="10" fill="#66c088" id="var_P_1__33" /><circle cx="128" cy="171" r="10" fill="#66c088" id="var_P_1__34" /><circle cx="160" cy="171" r="10" fill="#66c088" id="var_P_1__35" /><circle cx="192" cy="171" r="10" fill="#66c088" id="var_P_1__36" /><circle cx="224" cy="171" r="10" fill="#66c088" id="var_P_1__37" /><circle cx="256" cy="171" r="10" fill="#66c088" id="var_P_1__38" /><circle cx="288" cy="171" r="10" fill="#66c088" id="var_P_1__39" /><circle cx="0" cy="228" r="10" fill="#66c088" id="var_P_1__40" /><circle cx="32" cy="228" r="10" fill="#66c088" id="var_P_1__41" /><circle cx="64" cy="228" r="10" fill="#66c088" id="var_P_1__42" /><circle cx="96" cy="228" r="10" fill="#66c088" id="var_P_1__43" /><circle cx="128" cy="228" r="10" fill="#66c088" id="var_P_1__44" /><circle cx="160" cy="228" r="10" fill="#66c088" id="var_P_1__45" /><circle cx="192" cy="228" r="10" fill="#66c088" id="var_P_1__46" /><circle cx="224" cy="228" r="10" fill="#66c088" id="var_P_1__47" /><circle cx="256" cy="228" r="10" fill="#66c088" id="var_P_1__48" /><circle cx="288" cy="228" r="10" fill="#66c088" id="var_P_1__49" /></g><g font-size="14" font-family="sans-serif" fill="#ffffff"><text id="text_P_1__2" x="64" y="0" dominant-baseline="central" text-anchor="middle">1</text><text id="text_P_1__3" x="96" y="0" dominant-baseline="central" text-anchor="middle">1</text><text id="text_P_1__4" x="128" y="0" dominant-baseline="central" text-anchor="middle">1</text><text id="text_P_1__5" x="160" y="0" dominant-baseline="central" text-anchor="middle">1</text><text id="text_P_1__6" x="192" y="0" dominant-baseline="central" text-anchor="middle">1</text><text id="text_P_1__7" x="224" y="0" dominant-baseline="central" text-anchor="middle">1</text><text id="text_P_1__8" x="256" y="0" dominant-baseline="central" text-anchor="middle">1</text><text id="text_P_1__9" x="288" y="0" dominant-baseline="central" text-anchor="middle">1</text><text id="text_P_1__10" x="0" y="57" dominant-baseline="central" text-anchor="middle">1</text><text id="text_P_1__11" x="32" y="57" dominant-baseline="central" text-anchor="middle">1</text><text id="text_P_1__12" x="64" y="57" dominant-baseline="central" text-anchor="middle">1</text><text id="text_P_1__13" x="96" y="57" dominant-baseline="central" text-anchor="middle">1</text><text id="text_P_1__14" x="128" y="57" dominant-baseline="central" text-anchor="middle">1</text><text id="text_P_1__15" x="160" y="57" dominant-baseline="central" text-anchor="middle">1</text><text id="text_P_1__16" x="192" y="57" dominant-baseline="central" text-anchor="middle">1</text><text id="text_P_1__17" x="224" y="57" dominant-baseline="central" text-anchor="middle">1</text><text id="text_P_1__18" x="256" y="57" dominant-baseline="central" text-anchor="middle">1</text><text id="text_P_1__19" x="288" y="57" dominant-baseline="central" text-anchor="middle">1</text><text id="text_P_1__20" x="0" y="114" dominant-baseline="central" text-anchor="middle">1</text><text id="text_P_1__21" x="32" y="114" dominant-baseline="central" text-anchor="middle">1</text><text id="text_P_1__22" x="64" y="114" dominant-baseline="central" text-anchor="middle">1</text><text id="text_P_1__23" x="96" y="114" dominant-baseline="central" text-anchor="middle">1</text><text id="text_P_1__24" x="128" y="114" dominant-baseline="central" text-anchor="middle">1</text><text id="text_P_1__25" x="160" y="114" dominant-baseline="central" text-anchor="middle">1</text><text id="text_P_1__26" x="192" y="114" dominant-baseline="central" text-anchor="middle">1</text><text id="text_P_1__27" x="224" y="114" dominant-baseline="central" text-anchor="middle">1</text><text id="text_P_1__28" x="256" y="114" dominant-baseline="central" text-anchor="middle">1</text><text id="text_P_1__29" x="288" y="114" dominant-baseline="central" text-anchor="middle">1</text><text id="text_P_1__30" x="0" y="171" dominant-baseline="central" text-anchor="middle">1</text><text id="text_P_1__31" x="32" y="171" dominant-baseline="central" text-anchor="middle">1</text><text id="text_P_1__32" x="64" y="171" dominant-baseline="central" text-anchor="middle">1</text><text id="text_P_1__33" x="96" y="171" dominant-baseline="central" text-anchor="middle">1</text><text id="text_P_1__34" x="128" y="171" dominant-baseline="central" text-anchor="middle">1</text><text id="text_P_1__35" x="160" y="171" dominant-baseline="central" text-anchor="middle">1</text><text id="text_P_1__36" x="192" y="171" dominant-baseline="central" text-anchor="middle">1</text><text id="text_P_1__37" x="224" y="171" dominant-baseline="central" text-anchor="middle">1</text><text id="text_P_1__38" x="256" y="171" dominant-baseline="central" text-anchor="middle">1</text><text id="text_P_1__39" x="288" y="171" dominant-baseline="central" text-anchor="middle">1</text><text id="text_P_1__40" x="0" y="228" dominant-baseline="central" text-anchor="middle">1</text><text id="text_P_1__41" x="32" y="228" dominant-baseline="central" text-anchor="middle">1</text><text id="text_P_1__42" x="64" y="228" dominant-baseline="central" text-anchor="middle">1</text><text id="text_P_1__43" x="96" y="228" dominant-baseline="central" text-anchor="middle">1</text><text id="text_P_1__44" x="128" y="228" dominant-baseline="central" text-anchor="middle">1</text><text id="text_P_1__45" x="160" y="228" dominant-baseline="central" text-anchor="middle">1</text><text id="text_P_1__46" x="192" y="228" dominant-baseline="central" text-anchor="middle">1</text><text id="text_P_1__47" x="224" y="228" dominant-baseline="central" text-anchor="middle">1</text><text id="text_P_1__48" x="256" y="228" dominant-baseline="central" text-anchor="middle">1</text><text id="text_P_1__49" x="288" y="228" dominant-baseline="central" text-anchor="middle">1</text></g><g font-size="14" font-family="sans-serif" fill="#66c088"><text id="" x="-28" y="0" dominant-baseline="central" text-anchor="end">P</text></g></g></g><text x="16" y="20" font-size="16" text-anchor="middle" fill="#888888" font-family="sans-serif" >1-1</text><text x="140" y="284" font-size="9" text-anchor="middle" font-family="SimSun, 宋体, serif">列举候选素数</text></svg>

