<?xml version="1.0" encoding="UTF-8" standalone="no"?>
<svg
xmlns:svg="http://www.w3.org/2000/svg"
xmlns="http://www.w3.org/2000/svg"
xmlns:xlink="http://www.w3.org/1999/xlink"
width ="640"
height ="432"
viewBox ="0 0 640 432"
>
<defs><polygon points="0,0 6,8, 0,16 20,8" id="m_tmpl2"/><marker id="token_arrow"  markerUnits="userSpaceOnUse" markerWidth="20" markerHeight="16" viewBox="0 0 20 16" refX="14" refY="8" orient="auto"><use xlink:href="#m_tmpl2" fill="#60a0ff"/></marker></defs><defs><polygon points="0,0 0,4 0,8 12,4" id="m_tmpl3"/><marker id="link_arrow" markerUnits="strokeWidth" markerWidth="12" markerHeight="8" viewBox="0 0 12 8" refX="12" refY="4" orient="auto"><use xlink:href="#m_tmpl3" fill="#888888"/></marker></defs><rect x ="0" y="0" width="280" height="200" fill="#ffffff" stroke="#888888" stroke-width="1"/><path fill="#0088e0" d="M 292 100 L 292 80 L 312 100 L 292 120 z" /><g transform="translate(0,0)"><g transform="translate(56,33) scale(0.86)"><g fill="#ffc0c0" stroke-width="0"><rect x="44" y="-19" width="103" height="38" /></g></g><g transform="translate(56,33) scale(0.86)"><g fill="#ffffff" stroke="#a0a0a0" stroke-width="1"><rect x="-14" y="-14" width="28" height="28" rx="4" ry="4" /><rect x="18" y="-14" width="28" height="28" rx="4" ry="4" /><rect x="50" y="-14" width="28" height="28" rx="4" ry="4" /><rect x="82" y="-14" width="28" height="28" rx="4" ry="4" /><rect x="114" y="-14" width="28" height="28" rx="4" ry="4" /><rect x="146" y="-14" width="28" height="28" rx="4" ry="4" /><rect x="178" y="-14" width="28" height="28" rx="4" ry="4" /><rect x="210" y="-14" width="28" height="28" rx="4" ry="4" /></g><g font-size="9" font-family="Verdana" fill="#888888"><text id="" x="0" y="-22" dominant-baseline="central" text-anchor="middle">0</text><text id="" x="32" y="-22" dominant-baseline="central" text-anchor="middle">1</text><text id="" x="64" y="-22" dominant-baseline="central" text-anchor="middle">2</text><text id="" x="96" y="-22" dominant-baseline="central" text-anchor="middle">3</text><text id="" x="128" y="-22" dominant-baseline="central" text-anchor="middle">4</text><text id="" x="160" y="-22" dominant-baseline="central" text-anchor="middle">5</text><text id="" x="192" y="-22" dominant-baseline="central" text-anchor="middle">6</text><text id="" x="224" y="-22" dominant-baseline="central" text-anchor="middle">7</text></g></g><g transform="translate(56,93) scale(0.86)"><g fill="#ffffff" stroke="#a0a0a0" stroke-width="1"><rect x="-14" y="-14" width="28" height="28" rx="4" ry="4" /><rect x="18" y="-14" width="28" height="28" rx="4" ry="4" /><rect x="50" y="-14" width="28" height="28" rx="4" ry="4" /><rect x="82" y="-14" width="28" height="28" rx="4" ry="4" /><rect x="114" y="-14" width="28" height="28" rx="4" ry="4" /><rect x="146" y="-14" width="28" height="28" rx="4" ry="4" /><rect x="178" y="-14" width="28" height="28" rx="4" ry="4" /><rect x="210" y="-14" width="28" height="28" rx="4" ry="4" /></g><g font-size="9" font-family="Verdana" fill="#888888"><text id="" x="0" y="-22" dominant-baseline="central" text-anchor="middle">0</text><text id="" x="32" y="-22" dominant-baseline="central" text-anchor="middle">1</text><text id="" x="64" y="-22" dominant-baseline="central" text-anchor="middle">2</text><text id="" x="96" y="-22" dominant-baseline="central" text-anchor="middle">3</text><text id="" x="128" y="-22" dominant-baseline="central" text-anchor="middle">4</text><text id="" x="160" y="-22" dominant-baseline="central" text-anchor="middle">5</text><text id="" x="192" y="-22" dominant-baseline="central" text-anchor="middle">6</text><text id="" x="224" y="-22" dominant-baseline="central" text-anchor="middle">7</text></g></g><g transform="translate(56,93) scale(0.86)"><g class="flash_g" fill="#ffffff" stroke="#ff1493" stroke-width="2"><rect x="18" y="-14" width="28" height="28" rx="4" ry="4" /></g></g><g transform="translate(56,93) scale(0.86)"><g class="flash_g" fill="#ffffff" stroke="#ff1493" stroke-width="2"><rect x="114" y="-14" width="28" height="28" rx="4" ry="4" /></g></g><g transform="translate(140,153) scale(0.86)"><g class="flash_g" fill="#ff1493" stroke="#ff1493" stroke-width="1"><rect x="-14" y="-14" width="28" height="28" rx="4" ry="4" /></g><g fill="none" stroke="#a0a0a0" stroke-width="1"><rect x="-14" y="-14" width="28" height="28" rx="4" ry="4" /></g></g><g transform="translate(56,93) scale(0.86)"><g class="flash_g" transform="translate(64,14) rotate(180)" fill="#00a0ff"><path d="M 0 0 L 8 -10 L 4 -10 L 4 -26 L -4 -26 L -4 -10 L -8 -10 z"/></g></g><g transform="translate(56,93) scale(0.86)"><g class="flash_g" transform="translate(128,14) rotate(180)" fill="#0000ff"><path d="M 0 0 L 8 -10 L 4 -10 L 4 -26 L -4 -26 L -4 -10 L -8 -10 z"/></g></g><g transform="translate(56,33) scale(0.86)"><g stroke-width="0"><circle cx="32" cy="0" r="10" fill="#87C7FF" id="var_A_9__1" /><circle cx="64" cy="0" r="10" fill="#81C1FF" id="var_A_9__2" /><circle cx="96" cy="0" r="10" fill="#89C9FF" id="var_A_9__3" /><circle cx="128" cy="0" r="10" fill="#79B9FF" id="var_A_9__4" /><circle cx="160" cy="0" r="10" fill="#84C4FF" id="var_A_9__5" /><circle cx="192" cy="0" r="10" fill="#8CCCFF" id="var_A_9__6" /><circle cx="224" cy="0" r="10" fill="#7CBCFF" id="var_A_9__7" /></g><g font-size="14" font-family="sans-serif" fill="#ffffff"><text id="text_A_9__1" x="32" y="0" dominant-baseline="central" text-anchor="middle">3</text><text id="text_A_9__2" x="64" y="0" dominant-baseline="central" text-anchor="middle">5</text><text id="text_A_9__3" x="96" y="0" dominant-baseline="central" text-anchor="middle">2</text><text id="text_A_9__4" x="128" y="0" dominant-baseline="central" text-anchor="middle">8</text><text id="text_A_9__5" x="160" y="0" dominant-baseline="central" text-anchor="middle">4</text><text id="text_A_9__6" x="192" y="0" dominant-baseline="central" text-anchor="middle">1</text><text id="text_A_9__7" x="224" y="0" dominant-baseline="central" text-anchor="middle">7</text></g><g font-size="14" font-family="sans-serif" fill="#4080f0"><text id="" x="-28" y="0" dominant-baseline="central" text-anchor="end">A</text></g></g><g transform="translate(56,93) scale(0.86)"><g stroke-width="0"><circle cx="0" cy="0" r="10" fill="#8FCFFF" id="var_AC_9__0" /><circle cx="32" cy="0" r="10" fill="#87C7FF" id="var_AC_9__1" /><circle cx="64" cy="0" r="10" fill="#79B9FF" id="var_AC_9__2" /><circle cx="96" cy="0" r="10" fill="#74B4FF" id="var_AC_9__3" /><circle cx="128" cy="0" r="10" fill="#5F9FFF" id="var_AC_9__4" /><circle cx="160" cy="0" r="10" fill="#5595FF" id="var_AC_9__5" /><circle cx="192" cy="0" r="10" fill="#5292FF" id="var_AC_9__6" /><circle cx="224" cy="0" r="10" fill="#4080F0" id="var_AC_9__7" /></g><g font-size="14" font-family="sans-serif" fill="#ffffff"><text id="text_AC_9__0" x="0" y="0" dominant-baseline="central" text-anchor="middle">0</text><text id="text_AC_9__1" x="32" y="0" dominant-baseline="central" text-anchor="middle">3</text><text id="text_AC_9__2" x="64" y="0" dominant-baseline="central" text-anchor="middle">8</text><text id="text_AC_9__3" x="96" y="0" dominant-baseline="central" text-anchor="middle">10</text><text id="text_AC_9__4" x="128" y="0" dominant-baseline="central" text-anchor="middle">18</text><text id="text_AC_9__5" x="160" y="0" dominant-baseline="central" text-anchor="middle">22</text><text id="text_AC_9__6" x="192" y="0" dominant-baseline="central" text-anchor="middle">23</text><text id="text_AC_9__7" x="224" y="0" dominant-baseline="central" text-anchor="middle">30</text></g><g font-size="14" font-family="sans-serif" fill="#4080f0"><text id="" x="-28" y="0" dominant-baseline="central" text-anchor="end">AC</text></g></g><g transform="translate(140,153) scale(0.86)"><g stroke-width="0"><circle cx="0" cy="0" r="10" fill="#67A7FF" id="var_sum_1__0" /></g><g font-size="14" font-family="sans-serif" fill="#ffffff"><text id="text_sum_1__0" x="0" y="0" dominant-baseline="central" text-anchor="middle">15</text></g><g font-size="14" font-family="sans-serif" fill="#4080f0"><text id="" x="-28" y="0" dominant-baseline="central" text-anchor="end">sum</text></g></g></g><text x="16" y="20" font-size="16" text-anchor="middle" fill="#888888" font-family="sans-serif" >3-1</text><text x="140" y="184" font-size="9" text-anchor="middle" font-family="SimSun, 宋体, serif">区间 [2, 4] 的和为AC[4] - AC[1] = 15</text><rect x ="320" y="0" width="280" height="200" fill="#ffffff" stroke="#888888" stroke-width="1"/><path fill="#0088e0" d="M 612 100 L 612 80 L 632 100 L 612 120 z" /><g transform="translate(320,0)"><g transform="translate(56,33) scale(0.86)"><g fill="#ffc0c0" stroke-width="0"><rect x="108" y="-19" width="71" height="38" /></g></g><g transform="translate(56,33) scale(0.86)"><g fill="#ffffff" stroke="#a0a0a0" stroke-width="1"><rect x="-14" y="-14" width="28" height="28" rx="4" ry="4" /><rect x="18" y="-14" width="28" height="28" rx="4" ry="4" /><rect x="50" y="-14" width="28" height="28" rx="4" ry="4" /><rect x="82" y="-14" width="28" height="28" rx="4" ry="4" /><rect x="114" y="-14" width="28" height="28" rx="4" ry="4" /><rect x="146" y="-14" width="28" height="28" rx="4" ry="4" /><rect x="178" y="-14" width="28" height="28" rx="4" ry="4" /><rect x="210" y="-14" width="28" height="28" rx="4" ry="4" /></g><g font-size="9" font-family="Verdana" fill="#888888"><text id="" x="0" y="-22" dominant-baseline="central" text-anchor="middle">0</text><text id="" x="32" y="-22" dominant-baseline="central" text-anchor="middle">1</text><text id="" x="64" y="-22" dominant-baseline="central" text-anchor="middle">2</text><text id="" x="96" y="-22" dominant-baseline="central" text-anchor="middle">3</text><text id="" x="128" y="-22" dominant-baseline="central" text-anchor="middle">4</text><text id="" x="160" y="-22" dominant-baseline="central" text-anchor="middle">5</text><text id="" x="192" y="-22" dominant-baseline="central" text-anchor="middle">6</text><text id="" x="224" y="-22" dominant-baseline="central" text-anchor="middle">7</text></g></g><g transform="translate(56,93) scale(0.86)"><g fill="#ffffff" stroke="#a0a0a0" stroke-width="1"><rect x="-14" y="-14" width="28" height="28" rx="4" ry="4" /><rect x="18" y="-14" width="28" height="28" rx="4" ry="4" /><rect x="50" y="-14" width="28" height="28" rx="4" ry="4" /><rect x="82" y="-14" width="28" height="28" rx="4" ry="4" /><rect x="114" y="-14" width="28" height="28" rx="4" ry="4" /><rect x="146" y="-14" width="28" height="28" rx="4" ry="4" /><rect x="178" y="-14" width="28" height="28" rx="4" ry="4" /><rect x="210" y="-14" width="28" height="28" rx="4" ry="4" /></g><g font-size="9" font-family="Verdana" fill="#888888"><text id="" x="0" y="-22" dominant-baseline="central" text-anchor="middle">0</text><text id="" x="32" y="-22" dominant-baseline="central" text-anchor="middle">1</text><text id="" x="64" y="-22" dominant-baseline="central" text-anchor="middle">2</text><text id="" x="96" y="-22" dominant-baseline="central" text-anchor="middle">3</text><text id="" x="128" y="-22" dominant-baseline="central" text-anchor="middle">4</text><text id="" x="160" y="-22" dominant-baseline="central" text-anchor="middle">5</text><text id="" x="192" y="-22" dominant-baseline="central" text-anchor="middle">6</text><text id="" x="224" y="-22" dominant-baseline="central" text-anchor="middle">7</text></g></g><g transform="translate(56,93) scale(0.86)"><g class="flash_g" fill="#ffffff" stroke="#ff1493" stroke-width="2"><rect x="82" y="-14" width="28" height="28" rx="4" ry="4" /></g></g><g transform="translate(56,93) scale(0.86)"><g class="flash_g" fill="#ffffff" stroke="#ff1493" stroke-width="2"><rect x="146" y="-14" width="28" height="28" rx="4" ry="4" /></g></g><g transform="translate(140,153) scale(0.86)"><g class="flash_g" fill="#ff1493" stroke="#ff1493" stroke-width="1"><rect x="-14" y="-14" width="28" height="28" rx="4" ry="4" /></g><g fill="none" stroke="#a0a0a0" stroke-width="1"><rect x="-14" y="-14" width="28" height="28" rx="4" ry="4" /></g></g><g transform="translate(56,93) scale(0.86)"><g class="flash_g" transform="translate(128,14) rotate(180)" fill="#00a0ff"><path d="M 0 0 L 8 -10 L 4 -10 L 4 -26 L -4 -26 L -4 -10 L -8 -10 z"/></g></g><g transform="translate(56,93) scale(0.86)"><g class="flash_g" transform="translate(160,14) rotate(180)" fill="#0000ff"><path d="M 0 0 L 8 -10 L 4 -10 L 4 -26 L -4 -26 L -4 -10 L -8 -10 z"/></g></g><g transform="translate(56,33) scale(0.86)"><g stroke-width="0"><circle cx="32" cy="0" r="10" fill="#87C7FF" id="var_A_10__1" /><circle cx="64" cy="0" r="10" fill="#81C1FF" id="var_A_10__2" /><circle cx="96" cy="0" r="10" fill="#89C9FF" id="var_A_10__3" /><circle cx="128" cy="0" r="10" fill="#79B9FF" id="var_A_10__4" /><circle cx="160" cy="0" r="10" fill="#84C4FF" id="var_A_10__5" /><circle cx="192" cy="0" r="10" fill="#8CCCFF" id="var_A_10__6" /><circle cx="224" cy="0" r="10" fill="#7CBCFF" id="var_A_10__7" /></g><g font-size="14" font-family="sans-serif" fill="#ffffff"><text id="text_A_10__1" x="32" y="0" dominant-baseline="central" text-anchor="middle">3</text><text id="text_A_10__2" x="64" y="0" dominant-baseline="central" text-anchor="middle">5</text><text id="text_A_10__3" x="96" y="0" dominant-baseline="central" text-anchor="middle">2</text><text id="text_A_10__4" x="128" y="0" dominant-baseline="central" text-anchor="middle">8</text><text id="text_A_10__5" x="160" y="0" dominant-baseline="central" text-anchor="middle">4</text><text id="text_A_10__6" x="192" y="0" dominant-baseline="central" text-anchor="middle">1</text><text id="text_A_10__7" x="224" y="0" dominant-baseline="central" text-anchor="middle">7</text></g><g font-size="14" font-family="sans-serif" fill="#4080f0"><text id="" x="-28" y="0" dominant-baseline="central" text-anchor="end">A</text></g></g><g transform="translate(56,93) scale(0.86)"><g stroke-width="0"><circle cx="0" cy="0" r="10" fill="#8FCFFF" id="var_AC_10__0" /><circle cx="32" cy="0" r="10" fill="#87C7FF" id="var_AC_10__1" /><circle cx="64" cy="0" r="10" fill="#79B9FF" id="var_AC_10__2" /><circle cx="96" cy="0" r="10" fill="#74B4FF" id="var_AC_10__3" /><circle cx="128" cy="0" r="10" fill="#5F9FFF" id="var_AC_10__4" /><circle cx="160" cy="0" r="10" fill="#5595FF" id="var_AC_10__5" /><circle cx="192" cy="0" r="10" fill="#5292FF" id="var_AC_10__6" /><circle cx="224" cy="0" r="10" fill="#4080F0" id="var_AC_10__7" /></g><g font-size="14" font-family="sans-serif" fill="#ffffff"><text id="text_AC_10__0" x="0" y="0" dominant-baseline="central" text-anchor="middle">0</text><text id="text_AC_10__1" x="32" y="0" dominant-baseline="central" text-anchor="middle">3</text><text id="text_AC_10__2" x="64" y="0" dominant-baseline="central" text-anchor="middle">8</text><text id="text_AC_10__3" x="96" y="0" dominant-baseline="central" text-anchor="middle">10</text><text id="text_AC_10__4" x="128" y="0" dominant-baseline="central" text-anchor="middle">18</text><text id="text_AC_10__5" x="160" y="0" dominant-baseline="central" text-anchor="middle">22</text><text id="text_AC_10__6" x="192" y="0" dominant-baseline="central" text-anchor="middle">23</text><text id="text_AC_10__7" x="224" y="0" dominant-baseline="central" text-anchor="middle">30</text></g><g font-size="14" font-family="sans-serif" fill="#4080f0"><text id="" x="-28" y="0" dominant-baseline="central" text-anchor="end">AC</text></g></g><g transform="translate(140,153) scale(0.86)"><g stroke-width="0"><circle cx="0" cy="0" r="10" fill="#6FAFFF" id="var_sum_2__0" /></g><g font-size="14" font-family="sans-serif" fill="#ffffff"><text id="text_sum_2__0" x="0" y="0" dominant-baseline="central" text-anchor="middle">12</text></g><g font-size="14" font-family="sans-serif" fill="#4080f0"><text id="" x="-28" y="0" dominant-baseline="central" text-anchor="end">sum</text></g></g></g><text x="336" y="20" font-size="16" text-anchor="middle" fill="#888888" font-family="sans-serif" >3-2</text><text x="460" y="184" font-size="9" text-anchor="middle" font-family="SimSun, 宋体, serif">区间 [4, 5] 的和为AC[5] - AC[3] = 12</text><rect x ="0" y="216" width="280" height="200" fill="#ffffff" stroke="#888888" stroke-width="1"/><path fill="#0088e0" d="M 292 316 L 292 296 L 312 316 L 292 336 z" /><g transform="translate(0,216)"><g transform="translate(56,33) scale(0.86)"><g fill="#ffc0c0" stroke-width="0"><rect x="44" y="-19" width="167" height="38" /></g></g><g transform="translate(56,33) scale(0.86)"><g fill="#ffffff" stroke="#a0a0a0" stroke-width="1"><rect x="-14" y="-14" width="28" height="28" rx="4" ry="4" /><rect x="18" y="-14" width="28" height="28" rx="4" ry="4" /><rect x="50" y="-14" width="28" height="28" rx="4" ry="4" /><rect x="82" y="-14" width="28" height="28" rx="4" ry="4" /><rect x="114" y="-14" width="28" height="28" rx="4" ry="4" /><rect x="146" y="-14" width="28" height="28" rx="4" ry="4" /><rect x="178" y="-14" width="28" height="28" rx="4" ry="4" /><rect x="210" y="-14" width="28" height="28" rx="4" ry="4" /></g><g font-size="9" font-family="Verdana" fill="#888888"><text id="" x="0" y="-22" dominant-baseline="central" text-anchor="middle">0</text><text id="" x="32" y="-22" dominant-baseline="central" text-anchor="middle">1</text><text id="" x="64" y="-22" dominant-baseline="central" text-anchor="middle">2</text><text id="" x="96" y="-22" dominant-baseline="central" text-anchor="middle">3</text><text id="" x="128" y="-22" dominant-baseline="central" text-anchor="middle">4</text><text id="" x="160" y="-22" dominant-baseline="central" text-anchor="middle">5</text><text id="" x="192" y="-22" dominant-baseline="central" text-anchor="middle">6</text><text id="" x="224" y="-22" dominant-baseline="central" text-anchor="middle">7</text></g></g><g transform="translate(56,93) scale(0.86)"><g fill="#ffffff" stroke="#a0a0a0" stroke-width="1"><rect x="-14" y="-14" width="28" height="28" rx="4" ry="4" /><rect x="18" y="-14" width="28" height="28" rx="4" ry="4" /><rect x="50" y="-14" width="28" height="28" rx="4" ry="4" /><rect x="82" y="-14" width="28" height="28" rx="4" ry="4" /><rect x="114" y="-14" width="28" height="28" rx="4" ry="4" /><rect x="146" y="-14" width="28" height="28" rx="4" ry="4" /><rect x="178" y="-14" width="28" height="28" rx="4" ry="4" /><rect x="210" y="-14" width="28" height="28" rx="4" ry="4" /></g><g font-size="9" font-family="Verdana" fill="#888888"><text id="" x="0" y="-22" dominant-baseline="central" text-anchor="middle">0</text><text id="" x="32" y="-22" dominant-baseline="central" text-anchor="middle">1</text><text id="" x="64" y="-22" dominant-baseline="central" text-anchor="middle">2</text><text id="" x="96" y="-22" dominant-baseline="central" text-anchor="middle">3</text><text id="" x="128" y="-22" dominant-baseline="central" text-anchor="middle">4</text><text id="" x="160" y="-22" dominant-baseline="central" text-anchor="middle">5</text><text id="" x="192" y="-22" dominant-baseline="central" text-anchor="middle">6</text><text id="" x="224" y="-22" dominant-baseline="central" text-anchor="middle">7</text></g></g><g transform="translate(56,93) scale(0.86)"><g class="flash_g" fill="#ffffff" stroke="#ff1493" stroke-width="2"><rect x="18" y="-14" width="28" height="28" rx="4" ry="4" /></g></g><g transform="translate(56,93) scale(0.86)"><g class="flash_g" fill="#ffffff" stroke="#ff1493" stroke-width="2"><rect x="178" y="-14" width="28" height="28" rx="4" ry="4" /></g></g><g transform="translate(140,153) scale(0.86)"><g class="flash_g" fill="#ff1493" stroke="#ff1493" stroke-width="1"><rect x="-14" y="-14" width="28" height="28" rx="4" ry="4" /></g><g fill="none" stroke="#a0a0a0" stroke-width="1"><rect x="-14" y="-14" width="28" height="28" rx="4" ry="4" /></g></g><g transform="translate(56,93) scale(0.86)"><g class="flash_g" transform="translate(64,14) rotate(180)" fill="#00a0ff"><path d="M 0 0 L 8 -10 L 4 -10 L 4 -26 L -4 -26 L -4 -10 L -8 -10 z"/></g></g><g transform="translate(56,93) scale(0.86)"><g class="flash_g" transform="translate(192,14) rotate(180)" fill="#0000ff"><path d="M 0 0 L 8 -10 L 4 -10 L 4 -26 L -4 -26 L -4 -10 L -8 -10 z"/></g></g><g transform="translate(56,33) scale(0.86)"><g stroke-width="0"><circle cx="32" cy="0" r="10" fill="#87C7FF" id="var_A_11__1" /><circle cx="64" cy="0" r="10" fill="#81C1FF" id="var_A_11__2" /><circle cx="96" cy="0" r="10" fill="#89C9FF" id="var_A_11__3" /><circle cx="128" cy="0" r="10" fill="#79B9FF" id="var_A_11__4" /><circle cx="160" cy="0" r="10" fill="#84C4FF" id="var_A_11__5" /><circle cx="192" cy="0" r="10" fill="#8CCCFF" id="var_A_11__6" /><circle cx="224" cy="0" r="10" fill="#7CBCFF" id="var_A_11__7" /></g><g font-size="14" font-family="sans-serif" fill="#ffffff"><text id="text_A_11__1" x="32" y="0" dominant-baseline="central" text-anchor="middle">3</text><text id="text_A_11__2" x="64" y="0" dominant-baseline="central" text-anchor="middle">5</text><text id="text_A_11__3" x="96" y="0" dominant-baseline="central" text-anchor="middle">2</text><text id="text_A_11__4" x="128" y="0" dominant-baseline="central" text-anchor="middle">8</text><text id="text_A_11__5" x="160" y="0" dominant-baseline="central" text-anchor="middle">4</text><text id="text_A_11__6" x="192" y="0" dominant-baseline="central" text-anchor="middle">1</text><text id="text_A_11__7" x="224" y="0" dominant-baseline="central" text-anchor="middle">7</text></g><g font-size="14" font-family="sans-serif" fill="#4080f0"><text id="" x="-28" y="0" dominant-baseline="central" text-anchor="end">A</text></g></g><g transform="translate(56,93) scale(0.86)"><g stroke-width="0"><circle cx="0" cy="0" r="10" fill="#8FCFFF" id="var_AC_11__0" /><circle cx="32" cy="0" r="10" fill="#87C7FF" id="var_AC_11__1" /><circle cx="64" cy="0" r="10" fill="#79B9FF" id="var_AC_11__2" /><circle cx="96" cy="0" r="10" fill="#74B4FF" id="var_AC_11__3" /><circle cx="128" cy="0" r="10" fill="#5F9FFF" id="var_AC_11__4" /><circle cx="160" cy="0" r="10" fill="#5595FF" id="var_AC_11__5" /><circle cx="192" cy="0" r="10" fill="#5292FF" id="var_AC_11__6" /><circle cx="224" cy="0" r="10" fill="#4080F0" id="var_AC_11__7" /></g><g font-size="14" font-family="sans-serif" fill="#ffffff"><text id="text_AC_11__0" x="0" y="0" dominant-baseline="central" text-anchor="middle">0</text><text id="text_AC_11__1" x="32" y="0" dominant-baseline="central" text-anchor="middle">3</text><text id="text_AC_11__2" x="64" y="0" dominant-baseline="central" text-anchor="middle">8</text><text id="text_AC_11__3" x="96" y="0" dominant-baseline="central" text-anchor="middle">10</text><text id="text_AC_11__4" x="128" y="0" dominant-baseline="central" text-anchor="middle">18</text><text id="text_AC_11__5" x="160" y="0" dominant-baseline="central" text-anchor="middle">22</text><text id="text_AC_11__6" x="192" y="0" dominant-baseline="central" text-anchor="middle">23</text><text id="text_AC_11__7" x="224" y="0" dominant-baseline="central" text-anchor="middle">30</text></g><g font-size="14" font-family="sans-serif" fill="#4080f0"><text id="" x="-28" y="0" dominant-baseline="central" text-anchor="end">AC</text></g></g><g transform="translate(140,153) scale(0.86)"><g stroke-width="0"><circle cx="0" cy="0" r="10" fill="#5A9AFF" id="var_sum_3__0" /></g><g font-size="14" font-family="sans-serif" fill="#ffffff"><text id="text_sum_3__0" x="0" y="0" dominant-baseline="central" text-anchor="middle">20</text></g><g font-size="14" font-family="sans-serif" fill="#4080f0"><text id="" x="-28" y="0" dominant-baseline="central" text-anchor="end">sum</text></g></g></g><text x="16" y="236" font-size="16" text-anchor="middle" fill="#888888" font-family="sans-serif" >3-3</text><text x="140" y="400" font-size="9" text-anchor="middle" font-family="SimSun, 宋体, serif">区间 [2, 6] 的和为AC[6] - AC[1] = 20</text><rect x ="320" y="216" width="280" height="200" fill="#ffffff" stroke="#888888" stroke-width="1"/><g transform="translate(320,216)"><g transform="translate(56,33) scale(0.86)"><g fill="#ffc0c0" stroke-width="0"><rect x="12" y="-19" width="231" height="38" /></g></g><g transform="translate(56,33) scale(0.86)"><g fill="#ffffff" stroke="#a0a0a0" stroke-width="1"><rect x="-14" y="-14" width="28" height="28" rx="4" ry="4" /><rect x="18" y="-14" width="28" height="28" rx="4" ry="4" /><rect x="50" y="-14" width="28" height="28" rx="4" ry="4" /><rect x="82" y="-14" width="28" height="28" rx="4" ry="4" /><rect x="114" y="-14" width="28" height="28" rx="4" ry="4" /><rect x="146" y="-14" width="28" height="28" rx="4" ry="4" /><rect x="178" y="-14" width="28" height="28" rx="4" ry="4" /><rect x="210" y="-14" width="28" height="28" rx="4" ry="4" /></g><g font-size="9" font-family="Verdana" fill="#888888"><text id="" x="0" y="-22" dominant-baseline="central" text-anchor="middle">0</text><text id="" x="32" y="-22" dominant-baseline="central" text-anchor="middle">1</text><text id="" x="64" y="-22" dominant-baseline="central" text-anchor="middle">2</text><text id="" x="96" y="-22" dominant-baseline="central" text-anchor="middle">3</text><text id="" x="128" y="-22" dominant-baseline="central" text-anchor="middle">4</text><text id="" x="160" y="-22" dominant-baseline="central" text-anchor="middle">5</text><text id="" x="192" y="-22" dominant-baseline="central" text-anchor="middle">6</text><text id="" x="224" y="-22" dominant-baseline="central" text-anchor="middle">7</text></g></g><g transform="translate(56,93) scale(0.86)"><g fill="#ffffff" stroke="#a0a0a0" stroke-width="1"><rect x="-14" y="-14" width="28" height="28" rx="4" ry="4" /><rect x="18" y="-14" width="28" height="28" rx="4" ry="4" /><rect x="50" y="-14" width="28" height="28" rx="4" ry="4" /><rect x="82" y="-14" width="28" height="28" rx="4" ry="4" /><rect x="114" y="-14" width="28" height="28" rx="4" ry="4" /><rect x="146" y="-14" width="28" height="28" rx="4" ry="4" /><rect x="178" y="-14" width="28" height="28" rx="4" ry="4" /><rect x="210" y="-14" width="28" height="28" rx="4" ry="4" /></g><g font-size="9" font-family="Verdana" fill="#888888"><text id="" x="0" y="-22" dominant-baseline="central" text-anchor="middle">0</text><text id="" x="32" y="-22" dominant-baseline="central" text-anchor="middle">1</text><text id="" x="64" y="-22" dominant-baseline="central" text-anchor="middle">2</text><text id="" x="96" y="-22" dominant-baseline="central" text-anchor="middle">3</text><text id="" x="128" y="-22" dominant-baseline="central" text-anchor="middle">4</text><text id="" x="160" y="-22" dominant-baseline="central" text-anchor="middle">5</text><text id="" x="192" y="-22" dominant-baseline="central" text-anchor="middle">6</text><text id="" x="224" y="-22" dominant-baseline="central" text-anchor="middle">7</text></g></g><g transform="translate(56,93) scale(0.86)"><g class="flash_g" fill="#ffffff" stroke="#ff1493" stroke-width="2"><rect x="-14" y="-14" width="28" height="28" rx="4" ry="4" /></g></g><g transform="translate(56,93) scale(0.86)"><g class="flash_g" fill="#ffffff" stroke="#ff1493" stroke-width="2"><rect x="210" y="-14" width="28" height="28" rx="4" ry="4" /></g></g><g transform="translate(140,153) scale(0.86)"><g class="flash_g" fill="#ff1493" stroke="#ff1493" stroke-width="1"><rect x="-14" y="-14" width="28" height="28" rx="4" ry="4" /></g><g fill="none" stroke="#a0a0a0" stroke-width="1"><rect x="-14" y="-14" width="28" height="28" rx="4" ry="4" /></g></g><g transform="translate(56,93) scale(0.86)"><g class="flash_g" transform="translate(32,14) rotate(180)" fill="#00a0ff"><path d="M 0 0 L 8 -10 L 4 -10 L 4 -26 L -4 -26 L -4 -10 L -8 -10 z"/></g></g><g transform="translate(56,93) scale(0.86)"><g class="flash_g" transform="translate(224,14) rotate(180)" fill="#0000ff"><path d="M 0 0 L 8 -10 L 4 -10 L 4 -26 L -4 -26 L -4 -10 L -8 -10 z"/></g></g><g transform="translate(56,33) scale(0.86)"><g stroke-width="0"><circle cx="32" cy="0" r="10" fill="#87C7FF" id="var_A_12__1" /><circle cx="64" cy="0" r="10" fill="#81C1FF" id="var_A_12__2" /><circle cx="96" cy="0" r="10" fill="#89C9FF" id="var_A_12__3" /><circle cx="128" cy="0" r="10" fill="#79B9FF" id="var_A_12__4" /><circle cx="160" cy="0" r="10" fill="#84C4FF" id="var_A_12__5" /><circle cx="192" cy="0" r="10" fill="#8CCCFF" id="var_A_12__6" /><circle cx="224" cy="0" r="10" fill="#7CBCFF" id="var_A_12__7" /></g><g font-size="14" font-family="sans-serif" fill="#ffffff"><text id="text_A_12__1" x="32" y="0" dominant-baseline="central" text-anchor="middle">3</text><text id="text_A_12__2" x="64" y="0" dominant-baseline="central" text-anchor="middle">5</text><text id="text_A_12__3" x="96" y="0" dominant-baseline="central" text-anchor="middle">2</text><text id="text_A_12__4" x="128" y="0" dominant-baseline="central" text-anchor="middle">8</text><text id="text_A_12__5" x="160" y="0" dominant-baseline="central" text-anchor="middle">4</text><text id="text_A_12__6" x="192" y="0" dominant-baseline="central" text-anchor="middle">1</text><text id="text_A_12__7" x="224" y="0" dominant-baseline="central" text-anchor="middle">7</text></g><g font-size="14" font-family="sans-serif" fill="#4080f0"><text id="" x="-28" y="0" dominant-baseline="central" text-anchor="end">A</text></g></g><g transform="translate(56,93) scale(0.86)"><g stroke-width="0"><circle cx="0" cy="0" r="10" fill="#8FCFFF" id="var_AC_12__0" /><circle cx="32" cy="0" r="10" fill="#87C7FF" id="var_AC_12__1" /><circle cx="64" cy="0" r="10" fill="#79B9FF" id="var_AC_12__2" /><circle cx="96" cy="0" r="10" fill="#74B4FF" id="var_AC_12__3" /><circle cx="128" cy="0" r="10" fill="#5F9FFF" id="var_AC_12__4" /><circle cx="160" cy="0" r="10" fill="#5595FF" id="var_AC_12__5" /><circle cx="192" cy="0" r="10" fill="#5292FF" id="var_AC_12__6" /><circle cx="224" cy="0" r="10" fill="#4080F0" id="var_AC_12__7" /></g><g font-size="14" font-family="sans-serif" fill="#ffffff"><text id="text_AC_12__0" x="0" y="0" dominant-baseline="central" text-anchor="middle">0</text><text id="text_AC_12__1" x="32" y="0" dominant-baseline="central" text-anchor="middle">3</text><text id="text_AC_12__2" x="64" y="0" dominant-baseline="central" text-anchor="middle">8</text><text id="text_AC_12__3" x="96" y="0" dominant-baseline="central" text-anchor="middle">10</text><text id="text_AC_12__4" x="128" y="0" dominant-baseline="central" text-anchor="middle">18</text><text id="text_AC_12__5" x="160" y="0" dominant-baseline="central" text-anchor="middle">22</text><text id="text_AC_12__6" x="192" y="0" dominant-baseline="central" text-anchor="middle">23</text><text id="text_AC_12__7" x="224" y="0" dominant-baseline="central" text-anchor="middle">30</text></g><g font-size="14" font-family="sans-serif" fill="#4080f0"><text id="" x="-28" y="0" dominant-baseline="central" text-anchor="end">AC</text></g></g><g transform="translate(140,153) scale(0.86)"><g stroke-width="0"><circle cx="0" cy="0" r="10" fill="#4080F0" id="var_sum_4__0" /></g><g font-size="14" font-family="sans-serif" fill="#ffffff"><text id="text_sum_4__0" x="0" y="0" dominant-baseline="central" text-anchor="middle">30</text></g><g font-size="14" font-family="sans-serif" fill="#4080f0"><text id="" x="-28" y="0" dominant-baseline="central" text-anchor="end">sum</text></g></g></g><text x="336" y="236" font-size="16" text-anchor="middle" fill="#888888" font-family="sans-serif" >3-4</text><text x="460" y="400" font-size="9" text-anchor="middle" font-family="SimSun, 宋体, serif">区间 [1, 7] 的和为AC[7] - AC[0] = 30</text></svg>

