<?xml version='1.0' encoding='UTF-8'?>
<svg width="45mm" height="45mm" version="1.1" viewBox="0 0 45 45" xmlns="http://www.w3.org/2000/svg"><path d="M4,4H5V5H4zM5,4H6V5H5zM6,4H7V5H6zM7,4H8V5H7zM8,4H9V5H8zM9,4H10V5H9zM10,4H11V5H10zM12,4H13V5H12zM13,4H14V5H13zM14,4H15V5H14zM16,4H17V5H16zM17,4H18V5H17zM20,4H21V5H20zM22,4H23V5H22zM25,4H26V5H25zM26,4H27V5H26zM29,4H30V5H29zM30,4H31V5H30zM32,4H33V5H32zM34,4H35V5H34zM35,4H36V5H35zM36,4H37V5H36zM37,4H38V5H37zM38,4H39V5H38zM39,4H40V5H39zM40,4H41V5H40zM4,5H5V6H4zM10,5H11V6H10zM12,5H13V6H12zM13,5H14V6H13zM16,5H17V6H16zM17,5H18V6H17zM19,5H20V6H19zM21,5H22V6H21zM23,5H24V6H23zM24,5H25V6H24zM25,5H26V6H25zM30,5H31V6H30zM32,5H33V6H32zM34,5H35V6H34zM40,5H41V6H40zM4,6H5V7H4zM6,6H7V7H6zM7,6H8V7H7zM8,6H9V7H8zM10,6H11V7H10zM12,6H13V7H12zM13,6H14V7H13zM15,6H16V7H15zM16,6H17V7H16zM18,6H19V7H18zM19,6H20V7H19zM20,6H21V7H20zM24,6H25V7H24zM25,6H26V7H25zM27,6H28V7H27zM28,6H29V7H28zM29,6H30V7H29zM32,6H33V7H32zM34,6H35V7H34zM36,6H37V7H36zM37,6H38V7H37zM38,6H39V7H38zM40,6H41V7H40zM4,7H5V8H4zM6,7H7V8H6zM7,7H8V8H7zM8,7H9V8H8zM10,7H11V8H10zM13,7H14V8H13zM16,7H17V8H16zM17,7H18V8H17zM21,7H22V8H21zM23,7H24V8H23zM24,7H25V8H24zM25,7H26V8H25zM28,7H29V8H28zM29,7H30V8H29zM34,7H35V8H34zM36,7H37V8H36zM37,7H38V8H37zM38,7H39V8H38zM40,7H41V8H40zM4,8H5V9H4zM6,8H7V9H6zM7,8H8V9H7zM8,8H9V9H8zM10,8H11V9H10zM12,8H13V9H12zM13,8H14V9H13zM14,8H15V9H14zM17,8H18V9H17zM19,8H20V9H19zM22,8H23V9H22zM23,8H24V9H23zM24,8H25V9H24zM25,8H26V9H25zM29,8H30V9H29zM30,8H31V9H30zM32,8H33V9H32zM34,8H35V9H34zM36,8H37V9H36zM37,8H38V9H37zM38,8H39V9H38zM40,8H41V9H40zM4,9H5V10H4zM10,9H11V10H10zM14,9H15V10H14zM20,9H21V10H20zM21,9H22V10H21zM22,9H23V10H22zM24,9H25V10H24zM25,9H26V10H25zM26,9H27V10H26zM27,9H28V10H27zM28,9H29V10H28zM29,9H30V10H29zM30,9H31V10H30zM34,9H35V10H34zM40,9H41V10H40zM4,10H5V11H4zM5,10H6V11H5zM6,10H7V11H6zM7,10H8V11H7zM8,10H9V11H8zM9,10H10V11H9zM10,10H11V11H10zM12,10H13V11H12zM14,10H15V11H14zM16,10H17V11H16zM18,10H19V11H18zM20,10H21V11H20zM22,10H23V11H22zM24,10H25V11H24zM26,10H27V11H26zM28,10H29V11H28zM30,10H31V11H30zM32,10H33V11H32zM34,10H35V11H34zM35,10H36V11H35zM36,10H37V11H36zM37,10H38V11H37zM38,10H39V11H38zM39,10H40V11H39zM40,10H41V11H40zM13,11H14V12H13zM15,11H16V12H15zM17,11H18V12H17zM18,11H19V12H18zM20,11H21V12H20zM22,11H23V12H22zM24,11H25V12H24zM26,11H27V12H26zM27,11H28V12H27zM29,11H30V12H29zM32,11H33V12H32zM4,12H5V13H4zM7,12H8V13H7zM8,12H9V13H8zM9,12H10V13H9zM10,12H11V13H10zM11,12H12V13H11zM12,12H13V13H12zM15,12H16V13H15zM17,12H18V13H17zM19,12H20V13H19zM21,12H22V13H21zM23,12H24V13H23zM27,12H28V13H27zM30,12H31V13H30zM31,12H32V13H31zM33,12H34V13H33zM36,12H37V13H36zM38,12H39V13H38zM39,12H40V13H39zM40,12H41V13H40zM4,13H5V14H4zM9,13H10V14H9zM11,13H12V14H11zM12,13H13V14H12zM15,13H16V14H15zM18,13H19V14H18zM20,13H21V14H20zM23,13H24V14H23zM24,13H25V14H24zM25,13H26V14H25zM26,13H27V14H26zM27,13H28V14H27zM29,13H30V14H29zM30,13H31V14H30zM31,13H32V14H31zM35,13H36V14H35zM36,13H37V14H36zM38,13H39V14H38zM39,13H40V14H39zM4,14H5V15H4zM6,14H7V15H6zM10,14H11V15H10zM12,14H13V15H12zM13,14H14V15H13zM15,14H16V15H15zM17,14H18V15H17zM18,14H19V15H18zM19,14H20V15H19zM20,14H21V15H20zM22,14H23V15H22zM26,14H27V15H26zM27,14H28V15H27zM30,14H31V15H30zM31,14H32V15H31zM32,14H33V15H32zM34,14H35V15H34zM35,14H36V15H35zM40,14H41V15H40zM5,15H6V16H5zM6,15H7V16H6zM7,15H8V16H7zM8,15H9V16H8zM9,15H10V16H9zM11,15H12V16H11zM13,15H14V16H13zM14,15H15V16H14zM16,15H17V16H16zM18,15H19V16H18zM20,15H21V16H20zM21,15H22V16H21zM22,15H23V16H22zM24,15H25V16H24zM26,15H27V16H26zM30,15H31V16H30zM35,15H36V16H35zM38,15H39V16H38zM39,15H40V16H39zM40,15H41V16H40zM6,16H7V17H6zM9,16H10V17H9zM10,16H11V17H10zM15,16H16V17H15zM17,16H18V17H17zM18,16H19V17H18zM19,16H20V17H19zM24,16H25V17H24zM26,16H27V17H26zM28,16H29V17H28zM34,16H35V17H34zM37,16H38V17H37zM40,16H41V17H40zM4,17H5V18H4zM11,17H12V18H11zM12,17H13V18H12zM13,17H14V18H13zM16,17H17V18H16zM18,17H19V18H18zM19,17H20V18H19zM22,17H23V18H22zM27,17H28V18H27zM28,17H29V18H28zM29,17H30V18H29zM30,17H31V18H30zM31,17H32V18H31zM32,17H33V18H32zM33,17H34V18H33zM36,17H37V18H36zM37,17H38V18H37zM39,17H40V18H39zM4,18H5V19H4zM5,18H6V19H5zM7,18H8V19H7zM10,18H11V19H10zM12,18H13V19H12zM14,18H15V19H14zM15,18H16V19H15zM17,18H18V19H17zM18,18H19V19H18zM19,18H20V19H19zM23,18H24V19H23zM24,18H25V19H24zM25,18H26V19H25zM26,18H27V19H26zM30,18H31V19H30zM31,18H32V19H31zM32,18H33V19H32zM33,18H34V19H33zM36,18H37V19H36zM37,18H38V19H37zM38,18H39V19H38zM40,18H41V19H40zM5,19H6V20H5zM6,19H7V20H6zM7,19H8V20H7zM8,19H9V20H8zM9,19H10V20H9zM12,19H13V20H12zM14,19H15V20H14zM16,19H17V20H16zM20,19H21V20H20zM22,19H23V20H22zM24,19H25V20H24zM33,19H34V20H33zM35,19H36V20H35zM37,19H38V20H37zM38,19H39V20H38zM39,19H40V20H39zM4,20H5V21H4zM6,20H7V21H6zM7,20H8V21H7zM8,20H9V21H8zM9,20H10V21H9zM10,20H11V21H10zM11,20H12V21H11zM12,20H13V21H12zM15,20H16V21H15zM17,20H18V21H17zM18,20H19V21H18zM23,20H24V21H23zM24,20H25V21H24zM26,20H27V21H26zM29,20H30V21H29zM31,20H32V21H31zM34,20H35V21H34zM38,20H39V21H38zM6,21H7V22H6zM8,21H9V22H8zM12,21H13V22H12zM17,21H18V22H17zM22,21H23V22H22zM23,21H24V22H23zM24,21H25V22H24zM25,21H26V22H25zM26,21H27V22H26zM27,21H28V22H27zM29,21H30V22H29zM30,21H31V22H30zM31,21H32V22H31zM35,21H36V22H35zM37,21H38V22H37zM5,22H6V23H5zM7,22H8V23H7zM8,22H9V23H8zM9,22H10V23H9zM10,22H11V23H10zM11,22H12V23H11zM16,22H17V23H16zM17,22H18V23H17zM18,22H19V23H18zM20,22H21V23H20zM23,22H24V23H23zM27,22H28V23H27zM31,22H32V23H31zM32,22H33V23H32zM34,22H35V23H34zM35,22H36V23H35zM36,22H37V23H36zM37,22H38V23H37zM40,22H41V23H40zM4,23H5V24H4zM5,23H6V24H5zM6,23H7V24H6zM11,23H12V24H11zM15,23H16V24H15zM16,23H17V24H16zM17,23H18V24H17zM19,23H20V24H19zM20,23H21V24H20zM23,23H24V24H23zM24,23H25V24H24zM26,23H27V24H26zM29,23H30V24H29zM30,23H31V24H30zM33,23H34V24H33zM40,23H41V24H40zM5,24H6V25H5zM6,24H7V25H6zM7,24H8V25H7zM9,24H10V25H9zM10,24H11V25H10zM11,24H12V25H11zM15,24H16V25H15zM16,24H17V25H16zM17,24H18V25H17zM18,24H19V25H18zM21,24H22V25H21zM27,24H28V25H27zM28,24H29V25H28zM30,24H31V25H30zM33,24H34V25H33zM34,24H35V25H34zM35,24H36V25H35zM36,24H37V25H36zM7,25H8V26H7zM12,25H13V26H12zM14,25H15V26H14zM17,25H18V26H17zM18,25H19V26H18zM19,25H20V26H19zM20,25H21V26H20zM21,25H22V26H21zM22,25H23V26H22zM23,25H24V26H23zM25,25H26V26H25zM27,25H28V26H27zM30,25H31V26H30zM31,25H32V26H31zM33,25H34V26H33zM36,25H37V26H36zM38,25H39V26H38zM10,26H11V27H10zM12,26H13V27H12zM14,26H15V27H14zM16,26H17V27H16zM17,26H18V27H17zM19,26H20V27H19zM21,26H22V27H21zM24,26H25V27H24zM26,26H27V27H26zM27,26H28V27H27zM29,26H30V27H29zM30,26H31V27H30zM31,26H32V27H31zM32,26H33V27H32zM33,26H34V27H33zM34,26H35V27H34zM35,26H36V27H35zM37,26H38V27H37zM39,26H40V27H39zM40,26H41V27H40zM4,27H5V28H4zM5,27H6V28H5zM7,27H8V28H7zM8,27H9V28H8zM14,27H15V28H14zM17,27H18V28H17zM18,27H19V28H18zM19,27H20V28H19zM20,27H21V28H20zM21,27H22V28H21zM24,27H25V28H24zM26,27H27V28H26zM32,27H33V28H32zM33,27H34V28H33zM35,27H36V28H35zM36,27H37V28H36zM37,27H38V28H37zM38,27H39V28H38zM39,27H40V28H39zM40,27H41V28H40zM6,28H7V29H6zM7,28H8V29H7zM10,28H11V29H10zM13,28H14V29H13zM16,28H17V29H16zM19,28H20V29H19zM23,28H24V29H23zM24,28H25V29H24zM26,28H27V29H26zM28,28H29V29H28zM32,28H33V29H32zM34,28H35V29H34zM35,28H36V29H35zM40,28H41V29H40zM4,29H5V30H4zM7,29H8V30H7zM13,29H14V30H13zM14,29H15V30H14zM16,29H17V30H16zM17,29H18V30H17zM18,29H19V30H18zM21,29H22V30H21zM22,29H23V30H22zM27,29H28V30H27zM29,29H30V30H29zM30,29H31V30H30zM31,29H32V30H31zM32,29H33V30H32zM36,29H37V30H36zM4,30H5V31H4zM5,30H6V31H5zM7,30H8V31H7zM10,30H11V31H10zM12,30H13V31H12zM13,30H14V31H13zM15,30H16V31H15zM16,30H17V31H16zM19,30H20V31H19zM21,30H22V31H21zM23,30H24V31H23zM26,30H27V31H26zM30,30H31V31H30zM31,30H32V31H31zM32,30H33V31H32zM33,30H34V31H33zM34,30H35V31H34zM37,30H38V31H37zM38,30H39V31H38zM39,30H40V31H39zM40,30H41V31H40zM4,31H5V32H4zM6,31H7V32H6zM8,31H9V32H8zM9,31H10V32H9zM11,31H12V32H11zM13,31H14V32H13zM15,31H16V32H15zM20,31H21V32H20zM23,31H24V32H23zM28,31H29V32H28zM33,31H34V32H33zM36,31H37V32H36zM38,31H39V32H38zM40,31H41V32H40zM4,32H5V33H4zM6,32H7V33H6zM8,32H9V33H8zM10,32H11V33H10zM13,32H14V33H13zM14,32H15V33H14zM19,32H20V33H19zM20,32H21V33H20zM23,32H24V33H23zM26,32H27V33H26zM27,32H28V33H27zM28,32H29V33H28zM29,32H30V33H29zM30,32H31V33H30zM31,32H32V33H31zM32,32H33V33H32zM33,32H34V33H33zM34,32H35V33H34zM35,32H36V33H35zM36,32H37V33H36zM37,32H38V33H37zM38,32H39V33H38zM39,32H40V33H39zM40,32H41V33H40zM12,33H13V34H12zM13,33H14V34H13zM14,33H15V34H14zM19,33H20V34H19zM20,33H21V34H20zM22,33H23V34H22zM23,33H24V34H23zM24,33H25V34H24zM25,33H26V34H25zM32,33H33V34H32zM36,33H37V34H36zM38,33H39V34H38zM4,34H5V35H4zM5,34H6V35H5zM6,34H7V35H6zM7,34H8V35H7zM8,34H9V35H8zM9,34H10V35H9zM10,34H11V35H10zM12,34H13V35H12zM16,34H17V35H16zM19,34H20V35H19zM21,34H22V35H21zM23,34H24V35H23zM27,34H28V35H27zM29,34H30V35H29zM30,34H31V35H30zM32,34H33V35H32zM34,34H35V35H34zM36,34H37V35H36zM39,34H40V35H39zM40,34H41V35H40zM4,35H5V36H4zM10,35H11V36H10zM12,35H13V36H12zM13,35H14V36H13zM17,35H18V36H17zM18,35H19V36H18zM19,35H20V36H19zM20,35H21V36H20zM22,35H23V36H22zM23,35H24V36H23zM24,35H25V36H24zM26,35H27V36H26zM27,35H28V36H27zM28,35H29V36H28zM29,35H30V36H29zM31,35H32V36H31zM32,35H33V36H32zM36,35H37V36H36zM39,35H40V36H39zM40,35H41V36H40zM4,36H5V37H4zM6,36H7V37H6zM7,36H8V37H7zM8,36H9V37H8zM10,36H11V37H10zM12,36H13V37H12zM13,36H14V37H13zM16,36H17V37H16zM20,36H21V37H20zM22,36H23V37H22zM23,36H24V37H23zM28,36H29V37H28zM30,36H31V37H30zM31,36H32V37H31zM32,36H33V37H32zM33,36H34V37H33zM34,36H35V37H34zM35,36H36V37H35zM36,36H37V37H36zM39,36H40V37H39zM40,36H41V37H40zM4,37H5V38H4zM6,37H7V38H6zM7,37H8V38H7zM8,37H9V38H8zM10,37H11V38H10zM12,37H13V38H12zM13,37H14V38H13zM16,37H17V38H16zM21,37H22V38H21zM22,37H23V38H22zM23,37H24V38H23zM26,37H27V38H26zM27,37H28V38H27zM29,37H30V38H29zM30,37H31V38H30zM34,37H35V38H34zM37,37H38V38H37zM39,37H40V38H39zM40,37H41V38H40zM4,38H5V39H4zM6,38H7V39H6zM7,38H8V39H7zM8,38H9V39H8zM10,38H11V39H10zM14,38H15V39H14zM16,38H17V39H16zM18,38H19V39H18zM22,38H23V39H22zM25,38H26V39H25zM26,38H27V39H26zM27,38H28V39H27zM28,38H29V39H28zM29,38H30V39H29zM32,38H33V39H32zM33,38H34V39H33zM36,38H37V39H36zM38,38H39V39H38zM40,38H41V39H40zM4,39H5V40H4zM10,39H11V40H10zM16,39H17V40H16zM19,39H20V40H19zM21,39H22V40H21zM26,39H27V40H26zM27,39H28V40H27zM28,39H29V40H28zM31,39H32V40H31zM33,39H34V40H33zM36,39H37V40H36zM37,39H38V40H37zM38,39H39V40H38zM39,39H40V40H39zM40,39H41V40H40zM4,40H5V41H4zM5,40H6V41H5zM6,40H7V41H6zM7,40H8V41H7zM8,40H9V41H8zM9,40H10V41H9zM10,40H11V41H10zM12,40H13V41H12zM13,40H14V41H13zM14,40H15V41H14zM15,40H16V41H15zM16,40H17V41H16zM20,40H21V41H20zM22,40H23V41H22zM23,40H24V41H23zM24,40H25V41H24zM28,40H29V41H28zM32,40H33V41H32zM34,40H35V41H34zM35,40H36V41H35zM37,40H38V41H37zM40,40H41V41H40z" id="qr-path" fill="#000000" fill-opacity="1" fill-rule="nonzero" stroke="none"/></svg>