<?xml version="1.0" encoding="UTF-8" standalone="no"?>
<svg
xmlns:svg="http://www.w3.org/2000/svg"
xmlns="http://www.w3.org/2000/svg"
xmlns:xlink="http://www.w3.org/1999/xlink"
width ="640"
height ="216"
viewBox ="0 0 640 216"
>
<defs><polygon points="0,0 6,8, 0,16 20,8" id="m_tmpl2"/><marker id="token_arrow"  markerUnits="userSpaceOnUse" markerWidth="20" markerHeight="16" viewBox="0 0 20 16" refX="14" refY="8" orient="auto"><use xlink:href="#m_tmpl2" fill="#60a0ff"/></marker></defs><defs><polygon points="0,0 0,4 0,8 12,4" id="m_tmpl3"/><marker id="link_arrow" markerUnits="strokeWidth" markerWidth="12" markerHeight="8" viewBox="0 0 12 8" refX="12" refY="4" orient="auto"><use xlink:href="#m_tmpl3" fill="#888888"/></marker></defs><rect x ="0" y="0" width="600" height="200" fill="#ffffff" stroke="#888888" stroke-width="1"/><g transform="translate(0,0)"><g transform="translate(340,40) scale(0.7)"><g stroke="#F0F8FF" stroke-width="0" fill="#F0F8FF"><circle cx="160" cy="0" r="16" /><circle cx="64" cy="40" r="16" /><circle cx="0" cy="80" r="16" /><circle cx="32" cy="120" r="16" /><circle cx="96" cy="80" r="16" /><circle cx="128" cy="120" r="16" /><circle cx="288" cy="40" r="16" /><circle cx="256" cy="80" r="16" /><circle cx="192" cy="120" r="16" /><circle cx="224" cy="160" r="16" /><circle cx="320" cy="80" r="16" /><circle cx="352" cy="120" r="16" /></g><g stroke="#F0F8FF" stroke-width="32" fill="#F0F8FF"><line x1="160" y1="0" x2="64" y2="40" stroke-linecap="round"/><line x1="160" y1="0" x2="288" y2="40" stroke-linecap="round"/><line x1="64" y1="40" x2="0" y2="80" stroke-linecap="round"/><line x1="64" y1="40" x2="96" y2="80" stroke-linecap="round"/><line x1="64" y1="40" x2="160" y2="0" stroke-linecap="round"/><line x1="0" y1="80" x2="32" y2="120" stroke-linecap="round"/><line x1="0" y1="80" x2="64" y2="40" stroke-linecap="round"/><line x1="32" y1="120" x2="0" y2="80" stroke-linecap="round"/><line x1="96" y1="80" x2="128" y2="120" stroke-linecap="round"/><line x1="96" y1="80" x2="64" y2="40" stroke-linecap="round"/><line x1="128" y1="120" x2="96" y2="80" stroke-linecap="round"/><line x1="288" y1="40" x2="256" y2="80" stroke-linecap="round"/><line x1="288" y1="40" x2="320" y2="80" stroke-linecap="round"/><line x1="288" y1="40" x2="160" y2="0" stroke-linecap="round"/><line x1="256" y1="80" x2="192" y2="120" stroke-linecap="round"/><line x1="256" y1="80" x2="288" y2="40" stroke-linecap="round"/><line x1="192" y1="120" x2="224" y2="160" stroke-linecap="round"/><line x1="192" y1="120" x2="256" y2="80" stroke-linecap="round"/><line x1="224" y1="160" x2="192" y2="120" stroke-linecap="round"/><line x1="320" y1="80" x2="352" y2="120" stroke-linecap="round"/><line x1="320" y1="80" x2="288" y2="40" stroke-linecap="round"/><line x1="352" y1="120" x2="320" y2="80" stroke-linecap="round"/></g></g><g transform="translate(40,150) scale(0.7)"><g fill="#ffffff" stroke="#a0a0a0" stroke-width="1"><rect x="-14" y="-14" width="28" height="28" rx="4" ry="4" /><rect x="18" y="-14" width="28" height="28" rx="4" ry="4" /><rect x="50" y="-14" width="28" height="28" rx="4" ry="4" /><rect x="82" y="-14" width="28" height="28" rx="4" ry="4" /><rect x="114" y="-14" width="28" height="28" rx="4" ry="4" /><rect x="146" y="-14" width="28" height="28" rx="4" ry="4" /><rect x="178" y="-14" width="28" height="28" rx="4" ry="4" /><rect x="210" y="-14" width="28" height="28" rx="4" ry="4" /><rect x="242" y="-14" width="28" height="28" rx="4" ry="4" /><rect x="274" y="-14" width="28" height="28" rx="4" ry="4" /><rect x="306" y="-14" width="28" height="28" rx="4" ry="4" /><rect x="338" y="-14" width="28" height="28" rx="4" ry="4" /></g><g font-size="9" font-family="Verdana" fill="#888888"><text id="" x="0" y="-22" dominant-baseline="central" text-anchor="middle">0</text><text id="" x="32" y="-22" dominant-baseline="central" text-anchor="middle">1</text><text id="" x="64" y="-22" dominant-baseline="central" text-anchor="middle">2</text><text id="" x="96" y="-22" dominant-baseline="central" text-anchor="middle">3</text><text id="" x="128" y="-22" dominant-baseline="central" text-anchor="middle">4</text><text id="" x="160" y="-22" dominant-baseline="central" text-anchor="middle">5</text><text id="" x="192" y="-22" dominant-baseline="central" text-anchor="middle">6</text><text id="" x="224" y="-22" dominant-baseline="central" text-anchor="middle">7</text><text id="" x="256" y="-22" dominant-baseline="central" text-anchor="middle">8</text><text id="" x="288" y="-22" dominant-baseline="central" text-anchor="middle">9</text><text id="" x="320" y="-22" dominant-baseline="central" text-anchor="middle">10</text><text id="" x="352" y="-22" dominant-baseline="central" text-anchor="middle">11</text></g></g><g transform="translate(340,40) scale(0.7)"><g fill="#ffffff" stroke="#a0a0a0" stroke-width="1"><line x1="160" y1="0" x2="64" y2="40" /><line x1="160" y1="0" x2="288" y2="40" /><circle cx="160" cy="0" r="10" /><line x1="64" y1="40" x2="0" y2="80" /><line x1="64" y1="40" x2="96" y2="80" /><circle cx="64" cy="40" r="10" /><line x1="0" y1="80" x2="32" y2="120" /><circle cx="0" cy="80" r="10" /><circle cx="32" cy="120" r="10" /><line x1="96" y1="80" x2="128" y2="120" /><circle cx="96" cy="80" r="10" /><circle cx="128" cy="120" r="10" /><line x1="288" y1="40" x2="256" y2="80" /><line x1="288" y1="40" x2="320" y2="80" /><circle cx="288" cy="40" r="10" /><line x1="256" y1="80" x2="192" y2="120" /><circle cx="256" cy="80" r="10" /><line x1="192" y1="120" x2="224" y2="160" /><circle cx="192" cy="120" r="10" /><circle cx="224" cy="160" r="10" /><line x1="320" y1="80" x2="352" y2="120" /><circle cx="320" cy="80" r="10" /><circle cx="352" cy="120" r="10" /></g></g>
<g transform="translate(40,150) scale(0.7)"><g class="flash_g" fill="#ffffff" stroke="#ffd700" stroke-width="2"><rect x="-14" y="-14" width="28" height="28" rx="4" ry="4" /><rect x="18" y="-14" width="28" height="28" rx="4" ry="4" /><rect x="50" y="-14" width="28" height="28" rx="4" ry="4" /><rect x="82" y="-14" width="28" height="28" rx="4" ry="4" /><rect x="114" y="-14" width="28" height="28" rx="4" ry="4" /><rect x="146" y="-14" width="28" height="28" rx="4" ry="4" /><rect x="178" y="-14" width="28" height="28" rx="4" ry="4" /><rect x="210" y="-14" width="28" height="28" rx="4" ry="4" /><rect x="242" y="-14" width="28" height="28" rx="4" ry="4" /><rect x="274" y="-14" width="28" height="28" rx="4" ry="4" /><rect x="306" y="-14" width="28" height="28" rx="4" ry="4" /><rect x="338" y="-14" width="28" height="28" rx="4" ry="4" /></g></g><g transform="translate(40,150) scale(0.7)"><g stroke-width="0"><circle cx="0" cy="0" r="10" fill="#8BCBFF" id="var_A_14__0" /><circle cx="32" cy="0" r="10" fill="#88C8FF" id="var_A_14__1" /><circle cx="64" cy="0" r="10" fill="#85C5FF" id="var_A_14__2" /><circle cx="96" cy="0" r="10" fill="#7FBFFF" id="var_A_14__3" /><circle cx="128" cy="0" r="10" fill="#7CBCFF" id="var_A_14__4" /><circle cx="160" cy="0" r="10" fill="#78B8FF" id="var_A_14__5" /><circle cx="192" cy="0" r="10" fill="#72B2FF" id="var_A_14__6" /><circle cx="224" cy="0" r="10" fill="#6CACFF" id="var_A_14__7" /><circle cx="256" cy="0" r="10" fill="#62A2FF" id="var_A_14__8" /><circle cx="288" cy="0" r="10" fill="#5696FF" id="var_A_14__9" /><circle cx="320" cy="0" r="10" fill="#4C8CFC" id="var_A_14__10" /><circle cx="352" cy="0" r="10" fill="#4080F0" id="var_A_14__11" /></g><g font-size="14" font-family="sans-serif" fill="#ffffff"><text id="text_A_14__0" x="0" y="0" dominant-baseline="central" text-anchor="middle">1</text><text id="text_A_14__1" x="32" y="0" dominant-baseline="central" text-anchor="middle">2</text><text id="text_A_14__2" x="64" y="0" dominant-baseline="central" text-anchor="middle">3</text><text id="text_A_14__3" x="96" y="0" dominant-baseline="central" text-anchor="middle">5</text><text id="text_A_14__4" x="128" y="0" dominant-baseline="central" text-anchor="middle">6</text><text id="text_A_14__5" x="160" y="0" dominant-baseline="central" text-anchor="middle">7</text><text id="text_A_14__6" x="192" y="0" dominant-baseline="central" text-anchor="middle">9</text><text id="text_A_14__7" x="224" y="0" dominant-baseline="central" text-anchor="middle">11</text><text id="text_A_14__8" x="256" y="0" dominant-baseline="central" text-anchor="middle">14</text><text id="text_A_14__9" x="288" y="0" dominant-baseline="central" text-anchor="middle">18</text><text id="text_A_14__10" x="320" y="0" dominant-baseline="central" text-anchor="middle">21</text><text id="text_A_14__11" x="352" y="0" dominant-baseline="central" text-anchor="middle">25</text></g><g font-size="14" font-family="sans-serif" fill="#4080f0"><text id="" x="-28" y="0" dominant-baseline="central" text-anchor="end">A</text></g></g><g transform="translate(40,150) scale(0.7)"><g fill="#4080f0" stroke-width="0"><rect x="-10" y="-38" width="20" height="2" opacity="0.04" rx="2" ry="2" id="bar_A_0" /><rect x="22" y="-41" width="20" height="5" opacity="0.08" rx="2" ry="2" id="bar_A_1" /><rect x="54" y="-44" width="20" height="8" opacity="0.12" rx="2" ry="2" id="bar_A_2" /><rect x="86" y="-50" width="20" height="14" opacity="0.2" rx="2" ry="2" id="bar_A_3" /><rect x="118" y="-52" width="20" height="16" opacity="0.24" rx="2" ry="2" id="bar_A_4" /><rect x="150" y="-55" width="20" height="19" opacity="0.28" rx="2" ry="2" id="bar_A_5" /><rect x="182" y="-61" width="20" height="25" opacity="0.36" rx="2" ry="2" id="bar_A_6" /><rect x="214" y="-66" width="20" height="30" opacity="0.44" rx="2" ry="2" id="bar_A_7" /><rect x="246" y="-75" width="20" height="39" opacity="0.56" rx="2" ry="2" id="bar_A_8" /><rect x="278" y="-86" width="20" height="50" opacity="0.72" rx="2" ry="2" id="bar_A_9" /><rect x="310" y="-94" width="20" height="58" opacity="0.84" rx="2" ry="2" id="bar_A_10" /><rect x="342" y="-106" width="20" height="70" opacity="1" rx="2" ry="2" id="bar_A_11" /></g></g></g><text x="16" y="20" font-size="16" text-anchor="middle" fill="#888888" font-family="sans-serif" >3-1</text><text x="300" y="184" font-size="9" text-anchor="middle" font-family="SimSun, 宋体, serif">输出已排序的整数列</text></svg>

