<?xml version="1.0" encoding="UTF-8" standalone="no"?>
<svg
xmlns:svg="http://www.w3.org/2000/svg"
xmlns="http://www.w3.org/2000/svg"
xmlns:xlink="http://www.w3.org/1999/xlink"
width ="920"
height ="216"
viewBox ="0 0 920 216"
>
<defs><polygon points="0,0 6,8, 0,16 20,8" id="m_tmpl2"/><marker id="token_arrow"  markerUnits="userSpaceOnUse" markerWidth="20" markerHeight="16" viewBox="0 0 20 16" refX="14" refY="8" orient="auto"><use xlink:href="#m_tmpl2" fill="#60a0ff"/></marker></defs><defs><polygon points="0,0 0,4 0,8 12,4" id="m_tmpl3"/><marker id="link_arrow" markerUnits="strokeWidth" markerWidth="12" markerHeight="8" viewBox="0 0 12 8" refX="12" refY="4" orient="auto"><use xlink:href="#m_tmpl3" fill="#888888"/></marker></defs><rect x ="0" y="0" width="420" height="200" fill="#ffffff" stroke="#888888" stroke-width="1"/><g transform="translate(0,0)"><g transform="translate(0,0) scale(1)"><g fill="#ffffff" stroke="#a0a0a0" stroke-width="1"><line x1="252" y1="154" x2="280" y2="112" stroke-linecap="round"/><rect x="238" y="140" width="28" height="28" rx="4" ry="4" /><line x1="196" y1="154" x2="168" y2="112" stroke-linecap="round"/><rect x="182" y="140" width="28" height="28" rx="4" ry="4" /><line x1="140" y1="154" x2="168" y2="112" stroke-linecap="round"/><rect x="126" y="140" width="28" height="28" rx="4" ry="4" /><line x1="84" y1="154" x2="56" y2="112" stroke-linecap="round"/><rect x="70" y="140" width="28" height="28" rx="4" ry="4" /><line x1="28" y1="154" x2="56" y2="112" stroke-linecap="round"/><rect x="14" y="140" width="28" height="28" rx="4" ry="4" /><line x1="392" y1="112" x2="336" y2="70" stroke-linecap="round"/><rect x="378" y="98" width="28" height="28" rx="4" ry="4" /><line x1="280" y1="112" x2="336" y2="70" stroke-linecap="round"/><rect x="266" y="98" width="28" height="28" rx="4" ry="4" /><line x1="168" y1="112" x2="112" y2="70" stroke-linecap="round"/><rect x="154" y="98" width="28" height="28" rx="4" ry="4" /><line x1="56" y1="112" x2="112" y2="70" stroke-linecap="round"/><rect x="42" y="98" width="28" height="28" rx="4" ry="4" /><line x1="336" y1="70" x2="224" y2="28" stroke-linecap="round"/><rect x="322" y="56" width="28" height="28" rx="4" ry="4" /><line x1="112" y1="70" x2="224" y2="28" stroke-linecap="round"/><rect x="98" y="56" width="28" height="28" rx="4" ry="4" /><rect x="210" y="14" width="28" height="28" rx="4" ry="4" /></g><g font-size="9" font-family="Verdana" fill="#888888"><text id="" x="224" y="5" dominant-baseline="central" text-anchor="middle">0</text><text id="" x="112" y="47" dominant-baseline="central" text-anchor="middle">1</text><text id="" x="336" y="47" dominant-baseline="central" text-anchor="middle">2</text><text id="" x="56" y="89" dominant-baseline="central" text-anchor="middle">3</text><text id="" x="168" y="89" dominant-baseline="central" text-anchor="middle">4</text><text id="" x="280" y="89" dominant-baseline="central" text-anchor="middle">5</text><text id="" x="392" y="89" dominant-baseline="central" text-anchor="middle">6</text><text id="" x="28" y="131" dominant-baseline="central" text-anchor="middle">7</text><text id="" x="84" y="131" dominant-baseline="central" text-anchor="middle">8</text><text id="" x="140" y="131" dominant-baseline="central" text-anchor="middle">9</text><text id="" x="196" y="131" dominant-baseline="central" text-anchor="middle">10</text><text id="" x="252" y="131" dominant-baseline="central" text-anchor="middle">11</text></g></g><g transform="translate(392,28) scale(1)"><g fill="#ffffff" stroke="#a0a0a0" stroke-width="1"><path d="M -14 0 L 0-14 L 14 0 L 0 14 L -14 0 z" /></g></g><g transform="translate(0,0) scale(1)"><g class="flash_g" fill="#ffffff" stroke="#ffd700" stroke-width="2"><rect x="210" y="14" width="28" height="28" rx="4" ry="4" /><rect x="98" y="56" width="28" height="28" rx="4" ry="4" /><rect x="322" y="56" width="28" height="28" rx="4" ry="4" /><rect x="42" y="98" width="28" height="28" rx="4" ry="4" /><rect x="154" y="98" width="28" height="28" rx="4" ry="4" /><rect x="266" y="98" width="28" height="28" rx="4" ry="4" /><rect x="378" y="98" width="28" height="28" rx="4" ry="4" /><rect x="14" y="140" width="28" height="28" rx="4" ry="4" /><rect x="70" y="140" width="28" height="28" rx="4" ry="4" /><rect x="126" y="140" width="28" height="28" rx="4" ry="4" /><rect x="182" y="140" width="28" height="28" rx="4" ry="4" /><rect x="238" y="140" width="28" height="28" rx="4" ry="4" /></g></g><g transform="translate(0,0) scale(1)"><g stroke-width="0"><circle cx="224" cy="28" r="10" fill="#4383F3" id="var_A_8__0" /><circle cx="112" cy="70" r="10" fill="#4A8AFA" id="var_A_8__1" /><circle cx="336" cy="70" r="10" fill="#6CACFF" id="var_A_8__2" /><circle cx="56" cy="112" r="10" fill="#73B3FF" id="var_A_8__3" /><circle cx="168" cy="112" r="10" fill="#5B9BFF" id="var_A_8__4" /><circle cx="280" cy="112" r="10" fill="#84C4FF" id="var_A_8__5" /><circle cx="392" cy="112" r="10" fill="#70B0FF" id="var_A_8__6" /><circle cx="28" cy="154" r="10" fill="#7ABAFF" id="var_A_8__7" /><circle cx="84" cy="154" r="10" fill="#7DBDFF" id="var_A_8__8" /><circle cx="140" cy="154" r="10" fill="#8BCBFF" id="var_A_8__9" /><circle cx="196" cy="154" r="10" fill="#73B3FF" id="var_A_8__10" /><circle cx="252" cy="154" r="10" fill="#88C8FF" id="var_A_8__11" /></g><g font-size="14" font-family="sans-serif" fill="#ffffff"><text id="text_A_8__0" x="224" y="28" dominant-baseline="central" text-anchor="middle">22</text><text id="text_A_8__1" x="112" y="70" dominant-baseline="central" text-anchor="middle">20</text><text id="text_A_8__2" x="336" y="70" dominant-baseline="central" text-anchor="middle">10</text><text id="text_A_8__3" x="56" y="112" dominant-baseline="central" text-anchor="middle">8</text><text id="text_A_8__4" x="168" y="112" dominant-baseline="central" text-anchor="middle">15</text><text id="text_A_8__5" x="280" y="112" dominant-baseline="central" text-anchor="middle">3</text><text id="text_A_8__6" x="392" y="112" dominant-baseline="central" text-anchor="middle">9</text><text id="text_A_8__7" x="28" y="154" dominant-baseline="central" text-anchor="middle">6</text><text id="text_A_8__8" x="84" y="154" dominant-baseline="central" text-anchor="middle">5</text><text id="text_A_8__9" x="140" y="154" dominant-baseline="central" text-anchor="middle">1</text><text id="text_A_8__10" x="196" y="154" dominant-baseline="central" text-anchor="middle">8</text><text id="text_A_8__11" x="252" y="154" dominant-baseline="central" text-anchor="middle">2</text></g></g><g transform="translate(0,0) scale(1)"><g stroke-width="0"></g><g font-size="14" font-family="sans-serif" fill="#ffffff"></g></g></g><text x="16" y="20" font-size="16" text-anchor="middle" fill="#888888" font-family="sans-serif" >3-1</text><text x="210" y="184" font-size="9" text-anchor="middle" font-family="SimSun, 宋体, serif">输出已成为堆的整数列</text></svg>

