<?xml version="1.0" encoding="UTF-8" standalone="no"?>
<!-- Created with Inkscape (http://www.inkscape.org/) -->

<svg
   xmlns:dc="http://purl.org/dc/elements/1.1/"
   xmlns:cc="http://creativecommons.org/ns#"
   xmlns:rdf="http://www.w3.org/1999/02/22-rdf-syntax-ns#"
   xmlns:svg="http://www.w3.org/2000/svg"
   xmlns="http://www.w3.org/2000/svg"
   xmlns:sodipodi="http://sodipodi.sourceforge.net/DTD/sodipodi-0.dtd"
   xmlns:inkscape="http://www.inkscape.org/namespaces/inkscape"
   width="360pt"
   height="240pt"
   viewBox="0 0 127 84.66666"
   version="1.1"
   id="svg8"
   inkscape:version="0.92.4 (5da689c313, 2019-01-14)"
   sodipodi:docname="input.svg">
  <defs
     id="defs2" />
  <sodipodi:namedview
     id="base"
     pagecolor="#ffffff"
     bordercolor="#666666"
     borderopacity="1.0"
     inkscape:pageopacity="0.0"
     inkscape:pageshadow="2"
     inkscape:zoom="2.3493624"
     inkscape:cx="51.780542"
     inkscape:cy="136.29704"
     inkscape:document-units="pt"
     inkscape:current-layer="layer1"
     showgrid="true"
     units="pt"
     inkscape:window-width="2170"
     inkscape:window-height="1138"
     inkscape:window-x="108"
     inkscape:window-y="103"
     inkscape:window-maximized="0">
    <inkscape:grid
       type="xygrid"
       id="grid4518" />
  </sodipodi:namedview>
  <metadata
     id="metadata5">
    <rdf:RDF>
      <cc:Work
         rdf:about="">
        <dc:format>image/svg+xml</dc:format>
        <dc:type
           rdf:resource="http://purl.org/dc/dcmitype/StillImage" />
        <dc:title />
      </cc:Work>
    </rdf:RDF>
  </metadata>
  <g
     inkscape:label="Layer 1"
     inkscape:groupmode="layer"
     id="layer1"
     transform="translate(0,-212.33335)"
     style="opacity:0.99">
    <rect
       style="opacity:1;fill:#505050;fill-opacity:1;stroke:none;stroke-width:0.70555556;stroke-linecap:square;stroke-linejoin:miter;stroke-miterlimit:4;stroke-dasharray:none;stroke-dashoffset:0;stroke-opacity:1"
       id="rect831"
       width="29.104166"
       height="1.3229166"
       x="47.624996"
       y="289.06268" />
    <rect
       style="opacity:1;fill:#505050;fill-opacity:1;stroke:none;stroke-width:0.74709272;stroke-linecap:square;stroke-linejoin:miter;stroke-miterlimit:4;stroke-dasharray:none;stroke-dashoffset:0;stroke-opacity:1"
       id="rect833"
       width="1.3229166"
       height="48.947769"
       x="47.625"
       y="241.43752" />
    <rect
       style="opacity:1;fill:#505050;fill-opacity:1;stroke:none;stroke-width:0.74709284;stroke-linecap:square;stroke-linejoin:miter;stroke-miterlimit:4;stroke-dasharray:none;stroke-dashoffset:0;stroke-opacity:1"
       id="rect833-2"
       width="1.3229166"
       height="48.947781"
       x="75.40625"
       y="241.43752" />
    <path
       style="fill:#207bee;fill-opacity:1;stroke:none;stroke-width:0.26458332px;stroke-linecap:butt;stroke-linejoin:miter;stroke-opacity:1"
       d="m 58.208331,242.76043 -3.968749,-5.29166 h 2.645833 v -5.29167 c 0,0 0,-2.64583 -2.645834,-2.64583 h -7.937499 v -2.64584 h 7.937499 c 0,0 5.291667,0 5.291667,5.29167 v 5.29167 h 2.645834 z"
       id="path879"
       inkscape:connector-curvature="0"
       sodipodi:nodetypes="ccccscccsccc" />
    <path
       style="fill:#e5e587;stroke:none;stroke-width:0.26458332px;stroke-linecap:butt;stroke-linejoin:miter;stroke-opacity:1;fill-opacity:1"
       d="m 51.593747,278.47918 c 0,0 -1.322916,0 -1.322916,1.32292 0,1.32291 0,6.61458 0,6.61458 0,0 0,1.32292 1.322916,1.32292 1.322917,0 21.166666,0 21.166666,0 0,0 1.322917,0 1.322917,-1.32292 0,-1.32292 0,-6.61458 0,-6.61458 0,0 0,-1.32292 -1.322917,-1.32292 -1.322917,0 -21.166666,0 -21.166666,0 z"
       id="path881"
       inkscape:connector-curvature="0" />
    <path
       style="opacity:0.98999999;fill:#7bc5e3;fill-opacity:1;stroke:none;stroke-width:0.26458332px;stroke-linecap:butt;stroke-linejoin:miter;stroke-opacity:1"
       d="m 51.593748,267.89585 c 0,0 -1.322916,0 -1.322916,1.32292 0,1.32291 0,6.61458 0,6.61458 0,0 0,1.32292 1.322916,1.32292 1.322917,0 21.166666,0 21.166666,0 0,0 1.322917,0 1.322917,-1.32292 0,-1.32292 0,-6.61458 0,-6.61458 0,0 0,-1.32292 -1.322917,-1.32292 -1.322917,0 -21.166666,0 -21.166666,0 z"
       id="path881-0"
       inkscape:connector-curvature="0" />
    <path
       style="opacity:0.98999999;fill:#ec8a99;fill-opacity:1;stroke:none;stroke-width:0.26458332px;stroke-linecap:butt;stroke-linejoin:miter;stroke-opacity:1"
       d="m 51.593748,257.31251 c 0,0 -1.322916,0 -1.322916,1.32292 0,1.32291 0,6.61458 0,6.61458 0,0 0,1.32292 1.322916,1.32292 1.322917,0 21.166666,0 21.166666,0 0,0 1.322917,0 1.322917,-1.32292 0,-1.32292 0,-6.61458 0,-6.61458 0,0 0,-1.32292 -1.322917,-1.32292 -1.322917,0 -21.166666,0 -21.166666,0 z"
       id="path881-4"
       inkscape:connector-curvature="0" />
    <path
       style="opacity:0.98999999;fill:#4ed574;fill-opacity:1;stroke:none;stroke-width:0.26458332px;stroke-linecap:butt;stroke-linejoin:miter;stroke-opacity:1"
       d="m 51.593748,246.72918 c 0,0 -1.322916,0 -1.322916,1.32292 0,1.32291 0,6.61458 0,6.61458 0,0 0,1.32292 1.322916,1.32292 1.322917,0 21.166666,0 21.166666,0 0,0 1.322917,0 1.322917,-1.32292 0,-1.32292 0,-6.61458 0,-6.61458 0,0 0,-1.32292 -1.322917,-1.32292 -1.322917,0 -21.166666,0 -21.166666,0 z"
       id="path881-7"
       inkscape:connector-curvature="0" />
    <path
       style="opacity:0.98999999;fill:#4ed574;fill-opacity:0.31372549;stroke:none;stroke-width:0.26458332px;stroke-linecap:butt;stroke-linejoin:miter;stroke-opacity:1"
       d="m 19.84375,224.2396 c 0,0 -1.322916,0 -1.322916,1.32292 0,1.32291 0,6.61458 0,6.61458 0,0 0,1.32292 1.322916,1.32292 1.322917,0 21.166664,0 21.166664,0 0,0 1.32292,0 1.32292,-1.32292 0,-1.32292 0,-6.61458 0,-6.61458 0,0 0,-1.32292 -1.32292,-1.32292 -1.32291,0 -21.166664,0 -21.166664,0 z"
       id="path881-7-4"
       inkscape:connector-curvature="0" />
  </g>
</svg>
