<?xml version='1.0' encoding='UTF-8'?>
<svg width="49mm" height="49mm" version="1.1" viewBox="0 0 49 49" xmlns="http://www.w3.org/2000/svg"><path d="M4,4H5V5H4zM5,4H6V5H5zM6,4H7V5H6zM7,4H8V5H7zM8,4H9V5H8zM9,4H10V5H9zM10,4H11V5H10zM14,4H15V5H14zM16,4H17V5H16zM17,4H18V5H17zM18,4H19V5H18zM23,4H24V5H23zM24,4H25V5H24zM26,4H27V5H26zM27,4H28V5H27zM29,4H30V5H29zM32,4H33V5H32zM33,4H34V5H33zM34,4H35V5H34zM35,4H36V5H35zM36,4H37V5H36zM38,4H39V5H38zM39,4H40V5H39zM40,4H41V5H40zM41,4H42V5H41zM42,4H43V5H42zM43,4H44V5H43zM44,4H45V5H44zM4,5H5V6H4zM10,5H11V6H10zM13,5H14V6H13zM14,5H15V6H14zM15,5H16V6H15zM16,5H17V6H16zM18,5H19V6H18zM19,5H20V6H19zM20,5H21V6H20zM22,5H23V6H22zM26,5H27V6H26zM28,5H29V6H28zM30,5H31V6H30zM31,5H32V6H31zM32,5H33V6H32zM38,5H39V6H38zM44,5H45V6H44zM4,6H5V7H4zM6,6H7V7H6zM7,6H8V7H7zM8,6H9V7H8zM10,6H11V7H10zM12,6H13V7H12zM13,6H14V7H13zM14,6H15V7H14zM15,6H16V7H15zM17,6H18V7H17zM19,6H20V7H19zM23,6H24V7H23zM27,6H28V7H27zM32,6H33V7H32zM35,6H36V7H35zM36,6H37V7H36zM38,6H39V7H38zM40,6H41V7H40zM41,6H42V7H41zM42,6H43V7H42zM44,6H45V7H44zM4,7H5V8H4zM6,7H7V8H6zM7,7H8V8H7zM8,7H9V8H8zM10,7H11V8H10zM12,7H13V8H12zM13,7H14V8H13zM14,7H15V8H14zM16,7H17V8H16zM18,7H19V8H18zM19,7H20V8H19zM22,7H23V8H22zM25,7H26V8H25zM26,7H27V8H26zM27,7H28V8H27zM28,7H29V8H28zM32,7H33V8H32zM33,7H34V8H33zM34,7H35V8H34zM35,7H36V8H35zM38,7H39V8H38zM40,7H41V8H40zM41,7H42V8H41zM42,7H43V8H42zM44,7H45V8H44zM4,8H5V9H4zM6,8H7V9H6zM7,8H8V9H7zM8,8H9V9H8zM10,8H11V9H10zM12,8H13V9H12zM14,8H15V9H14zM15,8H16V9H15zM16,8H17V9H16zM21,8H22V9H21zM23,8H24V9H23zM24,8H25V9H24zM25,8H26V9H25zM27,8H28V9H27zM28,8H29V9H28zM34,8H35V9H34zM35,8H36V9H35zM36,8H37V9H36zM38,8H39V9H38zM40,8H41V9H40zM41,8H42V9H41zM42,8H43V9H42zM44,8H45V9H44zM4,9H5V10H4zM10,9H11V10H10zM12,9H13V10H12zM14,9H15V10H14zM15,9H16V10H15zM16,9H17V10H16zM17,9H18V10H17zM18,9H19V10H18zM19,9H20V10H19zM20,9H21V10H20zM21,9H22V10H21zM26,9H27V10H26zM30,9H31V10H30zM31,9H32V10H31zM33,9H34V10H33zM38,9H39V10H38zM44,9H45V10H44zM4,10H5V11H4zM5,10H6V11H5zM6,10H7V11H6zM7,10H8V11H7zM8,10H9V11H8zM9,10H10V11H9zM10,10H11V11H10zM12,10H13V11H12zM14,10H15V11H14zM16,10H17V11H16zM18,10H19V11H18zM20,10H21V11H20zM22,10H23V11H22zM24,10H25V11H24zM26,10H27V11H26zM28,10H29V11H28zM30,10H31V11H30zM32,10H33V11H32zM34,10H35V11H34zM36,10H37V11H36zM38,10H39V11H38zM39,10H40V11H39zM40,10H41V11H40zM41,10H42V11H41zM42,10H43V11H42zM43,10H44V11H43zM44,10H45V11H44zM12,11H13V12H12zM14,11H15V12H14zM15,11H16V12H15zM17,11H18V12H17zM19,11H20V12H19zM20,11H21V12H20zM22,11H23V12H22zM24,11H25V12H24zM25,11H26V12H25zM26,11H27V12H26zM28,11H29V12H28zM35,11H36V12H35zM4,12H5V13H4zM6,12H7V13H6zM7,12H8V13H7zM8,12H9V13H8zM9,12H10V13H9zM10,12H11V13H10zM14,12H15V13H14zM17,12H18V13H17zM18,12H19V13H18zM21,12H22V13H21zM23,12H24V13H23zM28,12H29V13H28zM29,12H30V13H29zM30,12H31V13H30zM31,12H32V13H31zM32,12H33V13H32zM33,12H34V13H33zM36,12H37V13H36zM38,12H39V13H38zM39,12H40V13H39zM40,12H41V13H40zM41,12H42V13H41zM42,12H43V13H42zM4,13H5V14H4zM5,13H6V14H5zM7,13H8V14H7zM8,13H9V14H8zM11,13H12V14H11zM13,13H14V14H13zM14,13H15V14H14zM17,13H18V14H17zM19,13H20V14H19zM22,13H23V14H22zM23,13H24V14H23zM27,13H28V14H27zM29,13H30V14H29zM30,13H31V14H30zM32,13H33V14H32zM33,13H34V14H33zM35,13H36V14H35zM36,13H37V14H36zM37,13H38V14H37zM38,13H39V14H38zM40,13H41V14H40zM42,13H43V14H42zM43,13H44V14H43zM44,13H45V14H44zM5,14H6V15H5zM6,14H7V15H6zM8,14H9V15H8zM10,14H11V15H10zM11,14H12V15H11zM12,14H13V15H12zM14,14H15V15H14zM15,14H16V15H15zM16,14H17V15H16zM21,14H22V15H21zM24,14H25V15H24zM26,14H27V15H26zM28,14H29V15H28zM31,14H32V15H31zM32,14H33V15H32zM33,14H34V15H33zM36,14H37V15H36zM38,14H39V15H38zM39,14H40V15H39zM4,15H5V16H4zM9,15H10V16H9zM11,15H12V16H11zM15,15H16V16H15zM16,15H17V16H16zM17,15H18V16H17zM24,15H25V16H24zM25,15H26V16H25zM27,15H28V16H27zM30,15H31V16H30zM31,15H32V16H31zM35,15H36V16H35zM36,15H37V16H36zM38,15H39V16H38zM40,15H41V16H40zM41,15H42V16H41zM43,15H44V16H43zM44,15H45V16H44zM4,16H5V17H4zM5,16H6V17H5zM6,16H7V17H6zM7,16H8V17H7zM8,16H9V17H8zM10,16H11V17H10zM11,16H12V17H11zM12,16H13V17H12zM13,16H14V17H13zM14,16H15V17H14zM18,16H19V17H18zM19,16H20V17H19zM20,16H21V17H20zM21,16H22V17H21zM23,16H24V17H23zM27,16H28V17H27zM29,16H30V17H29zM33,16H34V17H33zM35,16H36V17H35zM41,16H42V17H41zM42,16H43V17H42zM44,16H45V17H44zM5,17H6V18H5zM6,17H7V18H6zM7,17H8V18H7zM9,17H10V18H9zM11,17H12V18H11zM13,17H14V18H13zM14,17H15V18H14zM15,17H16V18H15zM18,17H19V18H18zM20,17H21V18H20zM22,17H23V18H22zM24,17H25V18H24zM25,17H26V18H25zM26,17H27V18H26zM28,17H29V18H28zM29,17H30V18H29zM30,17H31V18H30zM32,17H33V18H32zM33,17H34V18H33zM34,17H35V18H34zM35,17H36V18H35zM36,17H37V18H36zM37,17H38V18H37zM38,17H39V18H38zM39,17H40V18H39zM40,17H41V18H40zM44,17H45V18H44zM4,18H5V19H4zM5,18H6V19H5zM7,18H8V19H7zM9,18H10V19H9zM10,18H11V19H10zM14,18H15V19H14zM17,18H18V19H17zM19,18H20V19H19zM21,18H22V19H21zM22,18H23V19H22zM23,18H24V19H23zM25,18H26V19H25zM26,18H27V19H26zM29,18H30V19H29zM30,18H31V19H30zM31,18H32V19H31zM32,18H33V19H32zM34,18H35V19H34zM36,18H37V19H36zM37,18H38V19H37zM40,18H41V19H40zM41,18H42V19H41zM42,18H43V19H42zM4,19H5V20H4zM5,19H6V20H5zM6,19H7V20H6zM12,19H13V20H12zM15,19H16V20H15zM16,19H17V20H16zM17,19H18V20H17zM19,19H20V20H19zM20,19H21V20H20zM23,19H24V20H23zM24,19H25V20H24zM25,19H26V20H25zM28,19H29V20H28zM30,19H31V20H30zM31,19H32V20H31zM32,19H33V20H32zM38,19H39V20H38zM39,19H40V20H39zM40,19H41V20H40zM41,19H42V20H41zM6,20H7V21H6zM10,20H11V21H10zM11,20H12V21H11zM12,20H13V21H12zM13,20H14V21H13zM14,20H15V21H14zM15,20H16V21H15zM17,20H18V21H17zM19,20H20V21H19zM23,20H24V21H23zM24,20H25V21H24zM26,20H27V21H26zM28,20H29V21H28zM29,20H30V21H29zM30,20H31V21H30zM32,20H33V21H32zM33,20H34V21H33zM35,20H36V21H35zM37,20H38V21H37zM39,20H40V21H39zM41,20H42V21H41zM42,20H43V21H42zM43,20H44V21H43zM44,20H45V21H44zM4,21H5V22H4zM5,21H6V22H5zM9,21H10V22H9zM12,21H13V22H12zM14,21H15V22H14zM15,21H16V22H15zM16,21H17V22H16zM17,21H18V22H17zM18,21H19V22H18zM21,21H22V22H21zM23,21H24V22H23zM24,21H25V22H24zM25,21H26V22H25zM27,21H28V22H27zM29,21H30V22H29zM31,21H32V22H31zM32,21H33V22H32zM33,21H34V22H33zM34,21H35V22H34zM35,21H36V22H35zM36,21H37V22H36zM38,21H39V22H38zM39,21H40V22H39zM40,21H41V22H40zM41,21H42V22H41zM44,21H45V22H44zM4,22H5V23H4zM6,22H7V23H6zM7,22H8V23H7zM9,22H10V23H9zM10,22H11V23H10zM12,22H13V23H12zM17,22H18V23H17zM18,22H19V23H18zM20,22H21V23H20zM21,22H22V23H21zM24,22H25V23H24zM25,22H26V23H25zM29,22H30V23H29zM30,22H31V23H30zM31,22H32V23H31zM32,22H33V23H32zM33,22H34V23H33zM36,22H37V23H36zM37,22H38V23H37zM38,22H39V23H38zM40,22H41V23H40zM4,23H5V24H4zM5,23H6V24H5zM7,23H8V24H7zM9,23H10V24H9zM13,23H14V24H13zM15,23H16V24H15zM16,23H17V24H16zM18,23H19V24H18zM20,23H21V24H20zM21,23H22V24H21zM22,23H23V24H22zM24,23H25V24H24zM25,23H26V24H25zM26,23H27V24H26zM28,23H29V24H28zM29,23H30V24H29zM31,23H32V24H31zM32,23H33V24H32zM34,23H35V24H34zM40,23H41V24H40zM41,23H42V24H41zM44,23H45V24H44zM4,24H5V25H4zM5,24H6V25H5zM8,24H9V25H8zM10,24H11V25H10zM11,24H12V25H11zM12,24H13V25H12zM13,24H14V25H13zM16,24H17V25H16zM19,24H20V25H19zM25,24H26V25H25zM27,24H28V25H27zM30,24H31V25H30zM32,24H33V25H32zM33,24H34V25H33zM35,24H36V25H35zM42,24H43V25H42zM44,24H45V25H44zM4,25H5V26H4zM5,25H6V26H5zM7,25H8V26H7zM8,25H9V26H8zM11,25H12V26H11zM12,25H13V26H12zM15,25H16V26H15zM18,25H19V26H18zM20,25H21V26H20zM22,25H23V26H22zM23,25H24V26H23zM24,25H25V26H24zM26,25H27V26H26zM27,25H28V26H27zM28,25H29V26H28zM34,25H35V26H34zM35,25H36V26H35zM36,25H37V26H36zM37,25H38V26H37zM38,25H39V26H38zM40,25H41V26H40zM41,25H42V26H41zM43,25H44V26H43zM44,25H45V26H44zM9,26H10V27H9zM10,26H11V27H10zM11,26H12V27H11zM12,26H13V27H12zM13,26H14V27H13zM15,26H16V27H15zM19,26H20V27H19zM21,26H22V27H21zM22,26H23V27H22zM24,26H25V27H24zM26,26H27V27H26zM30,26H31V27H30zM31,26H32V27H31zM32,26H33V27H32zM33,26H34V27H33zM36,26H37V27H36zM38,26H39V27H38zM40,26H41V27H40zM4,27H5V28H4zM9,27H10V28H9zM12,27H13V28H12zM13,27H14V28H13zM14,27H15V28H14zM15,27H16V28H15zM16,27H17V28H16zM17,27H18V28H17zM18,27H19V28H18zM20,27H21V28H20zM25,27H26V28H25zM27,27H28V28H27zM30,27H31V28H30zM32,27H33V28H32zM35,27H36V28H35zM36,27H37V28H36zM38,27H39V28H38zM41,27H42V28H41zM43,27H44V28H43zM44,27H45V28H44zM6,28H7V29H6zM7,28H8V29H7zM10,28H11V29H10zM11,28H12V29H11zM14,28H15V29H14zM15,28H16V29H15zM20,28H21V29H20zM21,28H22V29H21zM26,28H27V29H26zM27,28H28V29H27zM28,28H29V29H28zM29,28H30V29H29zM30,28H31V29H30zM33,28H34V29H33zM35,28H36V29H35zM39,28H40V29H39zM42,28H43V29H42zM44,28H45V29H44zM4,29H5V30H4zM6,29H7V30H6zM8,29H9V30H8zM12,29H13V30H12zM15,29H16V30H15zM16,29H17V30H16zM17,29H18V30H17zM19,29H20V30H19zM20,29H21V30H20zM21,29H22V30H21zM22,29H23V30H22zM23,29H24V30H23zM24,29H25V30H24zM25,29H26V30H25zM27,29H28V30H27zM30,29H31V30H30zM32,29H33V30H32zM33,29H34V30H33zM35,29H36V30H35zM37,29H38V30H37zM38,29H39V30H38zM39,29H40V30H39zM40,29H41V30H40zM41,29H42V30H41zM43,29H44V30H43zM44,29H45V30H44zM6,30H7V31H6zM7,30H8V31H7zM9,30H10V31H9zM10,30H11V31H10zM13,30H14V31H13zM16,30H17V31H16zM18,30H19V31H18zM21,30H22V31H21zM24,30H25V31H24zM25,30H26V31H25zM30,30H31V31H30zM31,30H32V31H31zM33,30H34V31H33zM36,30H37V31H36zM37,30H38V31H37zM39,30H40V31H39zM40,30H41V31H40zM4,31H5V32H4zM7,31H8V32H7zM8,31H9V32H8zM9,31H10V32H9zM14,31H15V32H14zM15,31H16V32H15zM19,31H20V32H19zM20,31H21V32H20zM23,31H24V32H23zM24,31H25V32H24zM25,31H26V32H25zM28,31H29V32H28zM30,31H31V32H30zM32,31H33V32H32zM35,31H36V32H35zM36,31H37V32H36zM39,31H40V32H39zM41,31H42V32H41zM5,32H6V33H5zM10,32H11V33H10zM11,32H12V33H11zM12,32H13V33H12zM16,32H17V33H16zM19,32H20V33H19zM21,32H22V33H21zM23,32H24V33H23zM24,32H25V33H24zM27,32H28V33H27zM28,32H29V33H28zM29,32H30V33H29zM33,32H34V33H33zM35,32H36V33H35zM39,32H40V33H39zM41,32H42V33H41zM42,32H43V33H42zM43,32H44V33H43zM44,32H45V33H44zM4,33H5V34H4zM12,33H13V34H12zM15,33H16V34H15zM16,33H17V34H16zM17,33H18V34H17zM18,33H19V34H18zM20,33H21V34H20zM21,33H22V34H21zM25,33H26V34H25zM30,33H31V34H30zM32,33H33V34H32zM33,33H34V34H33zM34,33H35V34H34zM35,33H36V34H35zM36,33H37V34H36zM37,33H38V34H37zM38,33H39V34H38zM39,33H40V34H39zM40,33H41V34H40zM41,33H42V34H41zM43,33H44V34H43zM44,33H45V34H44zM4,34H5V35H4zM6,34H7V35H6zM7,34H8V35H7zM10,34H11V35H10zM11,34H12V35H11zM12,34H13V35H12zM13,34H14V35H13zM14,34H15V35H14zM16,34H17V35H16zM18,34H19V35H18zM19,34H20V35H19zM21,34H22V35H21zM24,34H25V35H24zM25,34H26V35H25zM26,34H27V35H26zM27,34H28V35H27zM28,34H29V35H28zM29,34H30V35H29zM30,34H31V35H30zM31,34H32V35H31zM37,34H38V35H37zM38,34H39V35H38zM39,34H40V35H39zM40,34H41V35H40zM4,35H5V36H4zM6,35H7V36H6zM12,35H13V36H12zM13,35H14V36H13zM18,35H19V36H18zM19,35H20V36H19zM25,35H26V36H25zM26,35H27V36H26zM27,35H28V36H27zM31,35H32V36H31zM32,35H33V36H32zM35,35H36V36H35zM36,35H37V36H36zM37,35H38V36H37zM38,35H39V36H38zM40,35H41V36H40zM41,35H42V36H41zM43,35H44V36H43zM44,35H45V36H44zM4,36H5V37H4zM8,36H9V37H8zM9,36H10V37H9zM10,36H11V37H10zM13,36H14V37H13zM14,36H15V37H14zM15,36H16V37H15zM17,36H18V37H17zM18,36H19V37H18zM21,36H22V37H21zM26,36H27V37H26zM27,36H28V37H27zM28,36H29V37H28zM30,36H31V37H30zM31,36H32V37H31zM33,36H34V37H33zM35,36H36V37H35zM36,36H37V37H36zM37,36H38V37H37zM38,36H39V37H38zM39,36H40V37H39zM40,36H41V37H40zM42,36H43V37H42zM43,36H44V37H43zM12,37H13V38H12zM17,37H18V38H17zM19,37H20V38H19zM22,37H23V38H22zM23,37H24V38H23zM24,37H25V38H24zM27,37H28V38H27zM30,37H31V38H30zM32,37H33V38H32zM33,37H34V38H33zM36,37H37V38H36zM40,37H41V38H40zM42,37H43V38H42zM43,37H44V38H43zM44,37H45V38H44zM4,38H5V39H4zM5,38H6V39H5zM6,38H7V39H6zM7,38H8V39H7zM8,38H9V39H8zM9,38H10V39H9zM10,38H11V39H10zM15,38H16V39H15zM17,38H18V39H17zM18,38H19V39H18zM19,38H20V39H19zM20,38H21V39H20zM22,38H23V39H22zM24,38H25V39H24zM26,38H27V39H26zM31,38H32V39H31zM32,38H33V39H32zM34,38H35V39H34zM35,38H36V39H35zM36,38H37V39H36zM38,38H39V39H38zM40,38H41V39H40zM43,38H44V39H43zM4,39H5V40H4zM10,39H11V40H10zM12,39H13V40H12zM15,39H16V40H15zM23,39H24V40H23zM24,39H25V40H24zM27,39H28V40H27zM30,39H31V40H30zM31,39H32V40H31zM32,39H33V40H32zM34,39H35V40H34zM35,39H36V40H35zM36,39H37V40H36zM40,39H41V40H40zM41,39H42V40H41zM43,39H44V40H43zM44,39H45V40H44zM4,40H5V41H4zM6,40H7V41H6zM7,40H8V41H7zM8,40H9V41H8zM10,40H11V41H10zM12,40H13V41H12zM15,40H16V41H15zM16,40H17V41H16zM20,40H21V41H20zM22,40H23V41H22zM25,40H26V41H25zM26,40H27V41H26zM27,40H28V41H27zM28,40H29V41H28zM31,40H32V41H31zM33,40H34V41H33zM36,40H37V41H36zM37,40H38V41H37zM38,40H39V41H38zM39,40H40V41H39zM40,40H41V41H40zM42,40H43V41H42zM44,40H45V41H44zM4,41H5V42H4zM6,41H7V42H6zM7,41H8V42H7zM8,41H9V42H8zM10,41H11V42H10zM12,41H13V42H12zM14,41H15V42H14zM17,41H18V42H17zM18,41H19V42H18zM20,41H21V42H20zM21,41H22V42H21zM23,41H24V42H23zM24,41H25V42H24zM25,41H26V42H25zM27,41H28V42H27zM28,41H29V42H28zM30,41H31V42H30zM35,41H36V42H35zM37,41H38V42H37zM39,41H40V42H39zM41,41H42V42H41zM4,42H5V43H4zM6,42H7V43H6zM7,42H8V43H7zM8,42H9V43H8zM10,42H11V43H10zM12,42H13V43H12zM14,42H15V43H14zM16,42H17V43H16zM18,42H19V43H18zM21,42H22V43H21zM22,42H23V43H22zM24,42H25V43H24zM28,42H29V43H28zM29,42H30V43H29zM31,42H32V43H31zM32,42H33V43H32zM33,42H34V43H33zM35,42H36V43H35zM36,42H37V43H36zM37,42H38V43H37zM38,42H39V43H38zM39,42H40V43H39zM40,42H41V43H40zM41,42H42V43H41zM4,43H5V44H4zM10,43H11V44H10zM19,43H20V44H19zM20,43H21V44H20zM23,43H24V44H23zM24,43H25V44H24zM25,43H26V44H25zM26,43H27V44H26zM36,43H37V44H36zM37,43H38V44H37zM40,43H41V44H40zM41,43H42V44H41zM43,43H44V44H43zM4,44H5V45H4zM5,44H6V45H5zM6,44H7V45H6zM7,44H8V45H7zM8,44H9V45H8zM9,44H10V45H9zM10,44H11V45H10zM12,44H13V45H12zM13,44H14V45H13zM14,44H15V45H14zM15,44H16V45H15zM16,44H17V45H16zM17,44H18V45H17zM20,44H21V45H20zM21,44H22V45H21zM22,44H23V45H22zM23,44H24V45H23zM26,44H27V45H26zM28,44H29V45H28zM29,44H30V45H29zM30,44H31V45H30zM33,44H34V45H33zM34,44H35V45H34zM38,44H39V45H38zM39,44H40V45H39zM40,44H41V45H40zM41,44H42V45H41zM42,44H43V45H42z" id="qr-path" fill="#000000" fill-opacity="1" fill-rule="nonzero" stroke="none"/></svg>