<?xml version="1.0" encoding="UTF-8" standalone="no"?>
<svg
xmlns:svg="http://www.w3.org/2000/svg"
xmlns="http://www.w3.org/2000/svg"
xmlns:xlink="http://www.w3.org/1999/xlink"
width ="640"
height ="276"
viewBox ="0 0 640 276"
>
<defs><polygon points="0,0 6,8, 0,16 20,8" id="m_tmpl2"/><marker id="token_arrow"  markerUnits="userSpaceOnUse" markerWidth="20" markerHeight="16" viewBox="0 0 20 16" refX="14" refY="8" orient="auto"><use xlink:href="#m_tmpl2" fill="#60a0ff"/></marker></defs><defs><polygon points="0,0 0,4 0,8 12,4" id="m_tmpl3"/><marker id="link_arrow" markerUnits="strokeWidth" markerWidth="12" markerHeight="8" viewBox="0 0 12 8" refX="12" refY="4" orient="auto"><use xlink:href="#m_tmpl3" fill="#888888"/></marker></defs><rect x ="0" y="0" width="280" height="260" fill="#ffffff" stroke="#888888" stroke-width="1"/><g transform="translate(0,0)"><g transform="translate(40,30) scale(1)"><g fill="none" stroke="#a0a0a0" stroke-width="1"><path d="M 90.1005 29.8995 Q 80 40 69.8995 50.1005"  marker-end="url(#link_arrow)"/><path d="M 100 34 Q 100 60 100 86"  marker-end="url(#link_arrow)"/><path d="M 109.899 29.8995 Q 120 40 130.101 50.1005"  marker-end="url(#link_arrow)"/><path d="M 69.8995 69.8995 Q 80 80 90.1005 90.1005"  marker-end="url(#link_arrow)"/><path d="M 149.899 69.8995 Q 160 80 170.101 90.1005"  marker-end="url(#link_arrow)"/><path d="M 34 100 Q 60 100 86 100"  marker-end="url(#link_arrow)"/><path d="M 114 100 Q 140 100 166 100"  marker-end="url(#link_arrow)"/></g><g fill="#ffffff" stroke="#a0a0a0" stroke-width="1"><circle cx="100" cy="20" r="14" /><circle cx="60" cy="60" r="14" /><circle cx="140" cy="60" r="14" /><circle cx="20" cy="100" r="14" /><circle cx="100" cy="100" r="14" /><circle cx="180" cy="100" r="14" /></g><g font-size="9" font-family="Verdana" fill="#888888"><text id="" x="100" y="-5" dominant-baseline="central" text-anchor="middle">0</text><text id="" x="60" y="34" dominant-baseline="central" text-anchor="middle">1</text><text id="" x="140" y="34" dominant-baseline="central" text-anchor="middle">2</text><text id="" x="20" y="74" dominant-baseline="central" text-anchor="middle">3</text><text id="" x="100" y="74" dominant-baseline="central" text-anchor="middle">4</text><text id="" x="180" y="74" dominant-baseline="central" text-anchor="middle">5</text></g></g><g transform="translate(40,30) scale(1)"><g class="flash_g" fill="#ffd700" stroke="#ffd700" stroke-width="1"><circle cx="100" cy="20" r="14" /><circle cx="60" cy="60" r="14" /><circle cx="140" cy="60" r="14" /><circle cx="20" cy="100" r="14" /><circle cx="100" cy="100" r="14" /><circle cx="180" cy="100" r="14" /></g><g fill="none" stroke="#a0a0a0" stroke-width="1"><circle cx="100" cy="20" r="14" /><circle cx="60" cy="60" r="14" /><circle cx="140" cy="60" r="14" /><circle cx="20" cy="100" r="14" /><circle cx="100" cy="100" r="14" /><circle cx="180" cy="100" r="14" /></g></g><g transform="translate(40,30) scale(1)"><g stroke-width="0"><circle cx="100" cy="20" r="10" fill="#8FCFFF" id="var_deg_1__0" /><circle cx="60" cy="60" r="10" fill="#7BBBFF" id="var_deg_1__1" /><circle cx="140" cy="60" r="10" fill="#7BBBFF" id="var_deg_1__2" /><circle cx="20" cy="100" r="10" fill="#8FCFFF" id="var_deg_1__3" /><circle cx="100" cy="100" r="10" fill="#5393FF" id="var_deg_1__4" /><circle cx="180" cy="100" r="10" fill="#67A7FF" id="var_deg_1__5" /></g><g font-size="14" font-family="sans-serif" fill="#ffffff"><text id="text_deg_1__0" x="100" y="20" dominant-baseline="central" text-anchor="middle">0</text><text id="text_deg_1__1" x="60" y="60" dominant-baseline="central" text-anchor="middle">1</text><text id="text_deg_1__2" x="140" y="60" dominant-baseline="central" text-anchor="middle">1</text><text id="text_deg_1__3" x="20" y="100" dominant-baseline="central" text-anchor="middle">0</text><text id="text_deg_1__4" x="100" y="100" dominant-baseline="central" text-anchor="middle">3</text><text id="text_deg_1__5" x="180" y="100" dominant-baseline="central" text-anchor="middle">2</text></g></g></g><text x="16" y="20" font-size="16" text-anchor="middle" fill="#888888" font-family="sans-serif" >1-1</text><text x="140" y="244" font-size="9" text-anchor="middle" font-family="SimSun, 宋体, serif">计算入度</text></svg>

