<?xml version="1.0" encoding="UTF-8" standalone="no"?>
<svg
xmlns:svg="http://www.w3.org/2000/svg"
xmlns="http://www.w3.org/2000/svg"
xmlns:xlink="http://www.w3.org/1999/xlink"
width ="840"
height ="296"
viewBox ="0 0 840 296"
>
<defs><polygon points="0,0 6,8, 0,16 20,8" id="m_tmpl2"/><marker id="token_arrow"  markerUnits="userSpaceOnUse" markerWidth="20" markerHeight="16" viewBox="0 0 20 16" refX="14" refY="8" orient="auto"><use xlink:href="#m_tmpl2" fill="#60a0ff"/></marker></defs><defs><polygon points="0,0 0,4 0,8 12,4" id="m_tmpl3"/><marker id="link_arrow" markerUnits="strokeWidth" markerWidth="12" markerHeight="8" viewBox="0 0 12 8" refX="12" refY="4" orient="auto"><use xlink:href="#m_tmpl3" fill="#888888"/></marker></defs><rect x ="0" y="0" width="380" height="280" fill="#ffffff" stroke="#888888" stroke-width="1"/><g transform="translate(0,0)"><g transform="translate(78,56) scale(1)"><g fill="#ffffff" stroke="#a0a0a0" stroke-width="1"><line x1="0" y1="0" x2="224" y2="0"/><line x1="0" y1="56" x2="224" y2="56"/><line x1="0" y1="112" x2="224" y2="112"/><line x1="0" y1="168" x2="224" y2="168"/><line x1="0" y1="0" x2="0" y2="168"/><line x1="56" y1="0" x2="56" y2="168"/><line x1="112" y1="0" x2="112" y2="168"/><line x1="168" y1="0" x2="168" y2="168"/><line x1="224" y1="0" x2="224" y2="168"/><circle cx="0" cy="0" r="14" /><circle cx="56" cy="0" r="14" /><circle cx="112" cy="0" r="14" /><circle cx="168" cy="0" r="14" /><circle cx="224" cy="0" r="14" /><circle cx="0" cy="56" r="14" /><circle cx="56" cy="56" r="14" /><circle cx="112" cy="56" r="14" /><circle cx="168" cy="56" r="14" /><circle cx="224" cy="56" r="14" /><circle cx="0" cy="112" r="14" /><circle cx="56" cy="112" r="14" /><circle cx="112" cy="112" r="14" /><circle cx="168" cy="112" r="14" /><circle cx="224" cy="112" r="14" /><circle cx="0" cy="168" r="14" /><circle cx="56" cy="168" r="14" /><circle cx="112" cy="168" r="14" /><circle cx="168" cy="168" r="14" /><circle cx="224" cy="168" r="14" /></g></g><g transform="translate(78,56) scale(1)"><g class="flash_g" fill="#ffffff" stroke="#ffd700" stroke-width="2"><circle cx="224" cy="168" r="14" /></g></g><g transform="translate(78,56) scale(1)"><g stroke-width="0"><circle cx="0" cy="0" r="10" fill="#88C8FF" id="var_P_19__0" /><circle cx="56" cy="0" r="10" fill="#88C8FF" id="var_P_19__1" /><circle cx="112" cy="0" r="10" fill="#88C8FF" id="var_P_19__2" /><circle cx="168" cy="0" r="10" fill="#88C8FF" id="var_P_19__3" /><circle cx="224" cy="0" r="10" fill="#88C8FF" id="var_P_19__4" /><circle cx="0" cy="56" r="10" fill="#88C8FF" id="var_P_19__5" /><circle cx="56" cy="56" r="10" fill="#81C1FF" id="var_P_19__6" /><circle cx="112" cy="56" r="10" fill="#7BBBFF" id="var_P_19__7" /><circle cx="168" cy="56" r="10" fill="#8FCFFF" id="var_P_19__8" /><circle cx="224" cy="56" r="10" fill="#88C8FF" id="var_P_19__9" /><circle cx="0" cy="112" r="10" fill="#88C8FF" id="var_P_19__10" /><circle cx="56" cy="112" r="10" fill="#8FCFFF" id="var_P_19__11" /><circle cx="112" cy="112" r="10" fill="#7BBBFF" id="var_P_19__12" /><circle cx="168" cy="112" r="10" fill="#7BBBFF" id="var_P_19__13" /><circle cx="224" cy="112" r="10" fill="#74B4FF" id="var_P_19__14" /><circle cx="0" cy="168" r="10" fill="#88C8FF" id="var_P_19__15" /><circle cx="56" cy="168" r="10" fill="#88C8FF" id="var_P_19__16" /><circle cx="112" cy="168" r="10" fill="#74B4FF" id="var_P_19__17" /><circle cx="168" cy="168" r="10" fill="#60A0FF" id="var_P_19__18" /><circle cx="224" cy="168" r="10" fill="#4686F6" id="var_P_19__19" /></g><g font-size="14" font-family="sans-serif" fill="#ffffff"><text id="text_P_19__0" x="0" y="0" dominant-baseline="central" text-anchor="middle">1</text><text id="text_P_19__1" x="56" y="0" dominant-baseline="central" text-anchor="middle">1</text><text id="text_P_19__2" x="112" y="0" dominant-baseline="central" text-anchor="middle">1</text><text id="text_P_19__3" x="168" y="0" dominant-baseline="central" text-anchor="middle">1</text><text id="text_P_19__4" x="224" y="0" dominant-baseline="central" text-anchor="middle">1</text><text id="text_P_19__5" x="0" y="56" dominant-baseline="central" text-anchor="middle">1</text><text id="text_P_19__6" x="56" y="56" dominant-baseline="central" text-anchor="middle">2</text><text id="text_P_19__7" x="112" y="56" dominant-baseline="central" text-anchor="middle">3</text><text id="text_P_19__8" x="168" y="56" dominant-baseline="central" text-anchor="middle">0</text><text id="text_P_19__9" x="224" y="56" dominant-baseline="central" text-anchor="middle">1</text><text id="text_P_19__10" x="0" y="112" dominant-baseline="central" text-anchor="middle">1</text><text id="text_P_19__11" x="56" y="112" dominant-baseline="central" text-anchor="middle">0</text><text id="text_P_19__12" x="112" y="112" dominant-baseline="central" text-anchor="middle">3</text><text id="text_P_19__13" x="168" y="112" dominant-baseline="central" text-anchor="middle">3</text><text id="text_P_19__14" x="224" y="112" dominant-baseline="central" text-anchor="middle">4</text><text id="text_P_19__15" x="0" y="168" dominant-baseline="central" text-anchor="middle">1</text><text id="text_P_19__16" x="56" y="168" dominant-baseline="central" text-anchor="middle">1</text><text id="text_P_19__17" x="112" y="168" dominant-baseline="central" text-anchor="middle">4</text><text id="text_P_19__18" x="168" y="168" dominant-baseline="central" text-anchor="middle">7</text><text id="text_P_19__19" x="224" y="168" dominant-baseline="central" text-anchor="middle">11</text></g></g><g fill="#aaaaaa" stroke="#aaaaaa"><rect x="221" y="87" width="50" height="50" /><rect x="109" y="143" width="50" height="50" /></g></g><text x="16" y="20" font-size="16" text-anchor="middle" fill="#888888" font-family="sans-serif" >3-1</text><text x="190" y="264" font-size="9" text-anchor="middle" font-family="SimSun, 宋体, serif">输出从起点到终点的路径数</text></svg>

