<?xml version='1.0' encoding='UTF-8'?>
<svg width="49mm" height="49mm" version="1.1" viewBox="0 0 49 49" xmlns="http://www.w3.org/2000/svg"><path d="M4,4H5V5H4zM5,4H6V5H5zM6,4H7V5H6zM7,4H8V5H7zM8,4H9V5H8zM9,4H10V5H9zM10,4H11V5H10zM13,4H14V5H13zM14,4H15V5H14zM15,4H16V5H15zM16,4H17V5H16zM18,4H19V5H18zM19,4H20V5H19zM20,4H21V5H20zM21,4H22V5H21zM22,4H23V5H22zM23,4H24V5H23zM24,4H25V5H24zM25,4H26V5H25zM27,4H28V5H27zM29,4H30V5H29zM30,4H31V5H30zM32,4H33V5H32zM34,4H35V5H34zM35,4H36V5H35zM36,4H37V5H36zM38,4H39V5H38zM39,4H40V5H39zM40,4H41V5H40zM41,4H42V5H41zM42,4H43V5H42zM43,4H44V5H43zM44,4H45V5H44zM4,5H5V6H4zM10,5H11V6H10zM14,5H15V6H14zM17,5H18V6H17zM18,5H19V6H18zM20,5H21V6H20zM21,5H22V6H21zM24,5H25V6H24zM25,5H26V6H25zM29,5H30V6H29zM30,5H31V6H30zM31,5H32V6H31zM32,5H33V6H32zM34,5H35V6H34zM38,5H39V6H38zM44,5H45V6H44zM4,6H5V7H4zM6,6H7V7H6zM7,6H8V7H7zM8,6H9V7H8zM10,6H11V7H10zM12,6H13V7H12zM13,6H14V7H13zM15,6H16V7H15zM16,6H17V7H16zM17,6H18V7H17zM18,6H19V7H18zM19,6H20V7H19zM21,6H22V7H21zM22,6H23V7H22zM25,6H26V7H25zM26,6H27V7H26zM27,6H28V7H27zM28,6H29V7H28zM29,6H30V7H29zM31,6H32V7H31zM32,6H33V7H32zM36,6H37V7H36zM38,6H39V7H38zM40,6H41V7H40zM41,6H42V7H41zM42,6H43V7H42zM44,6H45V7H44zM4,7H5V8H4zM6,7H7V8H6zM7,7H8V8H7zM8,7H9V8H8zM10,7H11V8H10zM12,7H13V8H12zM15,7H16V8H15zM16,7H17V8H16zM25,7H26V8H25zM28,7H29V8H28zM30,7H31V8H30zM32,7H33V8H32zM34,7H35V8H34zM38,7H39V8H38zM40,7H41V8H40zM41,7H42V8H41zM42,7H43V8H42zM44,7H45V8H44zM4,8H5V9H4zM6,8H7V9H6zM7,8H8V9H7zM8,8H9V9H8zM10,8H11V9H10zM12,8H13V9H12zM13,8H14V9H13zM15,8H16V9H15zM16,8H17V9H16zM17,8H18V9H17zM21,8H22V9H21zM22,8H23V9H22zM23,8H24V9H23zM24,8H25V9H24zM25,8H26V9H25zM26,8H27V9H26zM27,8H28V9H27zM28,8H29V9H28zM35,8H36V9H35zM36,8H37V9H36zM38,8H39V9H38zM40,8H41V9H40zM41,8H42V9H41zM42,8H43V9H42zM44,8H45V9H44zM4,9H5V10H4zM10,9H11V10H10zM12,9H13V10H12zM15,9H16V10H15zM16,9H17V10H16zM17,9H18V10H17zM19,9H20V10H19zM20,9H21V10H20zM21,9H22V10H21zM26,9H27V10H26zM30,9H31V10H30zM31,9H32V10H31zM33,9H34V10H33zM38,9H39V10H38zM44,9H45V10H44zM4,10H5V11H4zM5,10H6V11H5zM6,10H7V11H6zM7,10H8V11H7zM8,10H9V11H8zM9,10H10V11H9zM10,10H11V11H10zM12,10H13V11H12zM14,10H15V11H14zM16,10H17V11H16zM18,10H19V11H18zM20,10H21V11H20zM22,10H23V11H22zM24,10H25V11H24zM26,10H27V11H26zM28,10H29V11H28zM30,10H31V11H30zM32,10H33V11H32zM34,10H35V11H34zM36,10H37V11H36zM38,10H39V11H38zM39,10H40V11H39zM40,10H41V11H40zM41,10H42V11H41zM42,10H43V11H42zM43,10H44V11H43zM44,10H45V11H44zM12,11H13V12H12zM13,11H14V12H13zM15,11H16V12H15zM17,11H18V12H17zM18,11H19V12H18zM19,11H20V12H19zM20,11H21V12H20zM22,11H23V12H22zM24,11H25V12H24zM25,11H26V12H25zM26,11H27V12H26zM28,11H29V12H28zM35,11H36V12H35zM4,12H5V13H4zM6,12H7V13H6zM7,12H8V13H7zM8,12H9V13H8zM9,12H10V13H9zM10,12H11V13H10zM17,12H18V13H17zM21,12H22V13H21zM23,12H24V13H23zM28,12H29V13H28zM29,12H30V13H29zM30,12H31V13H30zM31,12H32V13H31zM32,12H33V13H32zM33,12H34V13H33zM36,12H37V13H36zM38,12H39V13H38zM39,12H40V13H39zM40,12H41V13H40zM41,12H42V13H41zM42,12H43V13H42zM4,13H5V14H4zM5,13H6V14H5zM7,13H8V14H7zM8,13H9V14H8zM11,13H12V14H11zM13,13H14V14H13zM15,13H16V14H15zM16,13H17V14H16zM17,13H18V14H17zM18,13H19V14H18zM19,13H20V14H19zM22,13H23V14H22zM23,13H24V14H23zM27,13H28V14H27zM29,13H30V14H29zM30,13H31V14H30zM32,13H33V14H32zM33,13H34V14H33zM35,13H36V14H35zM36,13H37V14H36zM37,13H38V14H37zM38,13H39V14H38zM40,13H41V14H40zM42,13H43V14H42zM43,13H44V14H43zM44,13H45V14H44zM4,14H5V15H4zM5,14H6V15H5zM6,14H7V15H6zM10,14H11V15H10zM11,14H12V15H11zM14,14H15V15H14zM19,14H20V15H19zM21,14H22V15H21zM24,14H25V15H24zM26,14H27V15H26zM28,14H29V15H28zM31,14H32V15H31zM32,14H33V15H32zM33,14H34V15H33zM36,14H37V15H36zM38,14H39V15H38zM39,14H40V15H39zM4,15H5V16H4zM6,15H7V16H6zM11,15H12V16H11zM12,15H13V16H12zM15,15H16V16H15zM17,15H18V16H17zM19,15H20V16H19zM20,15H21V16H20zM24,15H25V16H24zM25,15H26V16H25zM27,15H28V16H27zM30,15H31V16H30zM31,15H32V16H31zM35,15H36V16H35zM36,15H37V16H36zM37,15H38V16H37zM40,15H41V16H40zM41,15H42V16H41zM43,15H44V16H43zM44,15H45V16H44zM4,16H5V17H4zM6,16H7V17H6zM7,16H8V17H7zM8,16H9V17H8zM9,16H10V17H9zM10,16H11V17H10zM11,16H12V17H11zM12,16H13V17H12zM13,16H14V17H13zM14,16H15V17H14zM15,16H16V17H15zM16,16H17V17H16zM18,16H19V17H18zM21,16H22V17H21zM23,16H24V17H23zM24,16H25V17H24zM27,16H28V17H27zM28,16H29V17H28zM29,16H30V17H29zM32,16H33V17H32zM33,16H34V17H33zM35,16H36V17H35zM37,16H38V17H37zM41,16H42V17H41zM42,16H43V17H42zM44,16H45V17H44zM4,17H5V18H4zM6,17H7V18H6zM7,17H8V18H7zM9,17H10V18H9zM11,17H12V18H11zM13,17H14V18H13zM14,17H15V18H14zM15,17H16V18H15zM16,17H17V18H16zM18,17H19V18H18zM19,17H20V18H19zM20,17H21V18H20zM21,17H22V18H21zM22,17H23V18H22zM26,17H27V18H26zM30,17H31V18H30zM31,17H32V18H31zM33,17H34V18H33zM34,17H35V18H34zM36,17H37V18H36zM37,17H38V18H37zM39,17H40V18H39zM40,17H41V18H40zM44,17H45V18H44zM4,18H5V19H4zM5,18H6V19H5zM7,18H8V19H7zM10,18H11V19H10zM13,18H14V19H13zM14,18H15V19H14zM15,18H16V19H15zM16,18H17V19H16zM18,18H19V19H18zM19,18H20V19H19zM21,18H22V19H21zM24,18H25V19H24zM25,18H26V19H25zM27,18H28V19H27zM28,18H29V19H28zM31,18H32V19H31zM32,18H33V19H32zM34,18H35V19H34zM35,18H36V19H35zM37,18H38V19H37zM40,18H41V19H40zM41,18H42V19H41zM42,18H43V19H42zM5,19H6V20H5zM6,19H7V20H6zM8,19H9V20H8zM12,19H13V20H12zM13,19H14V20H13zM15,19H16V20H15zM16,19H17V20H16zM17,19H18V20H17zM18,19H19V20H18zM20,19H21V20H20zM22,19H23V20H22zM25,19H26V20H25zM26,19H27V20H26zM27,19H28V20H27zM31,19H32V20H31zM34,19H35V20H34zM35,19H36V20H35zM36,19H37V20H36zM38,19H39V20H38zM39,19H40V20H39zM40,19H41V20H40zM41,19H42V20H41zM4,20H5V21H4zM6,20H7V21H6zM10,20H11V21H10zM11,20H12V21H11zM13,20H14V21H13zM14,20H15V21H14zM16,20H17V21H16zM18,20H19V21H18zM19,20H20V21H19zM20,20H21V21H20zM21,20H22V21H21zM26,20H27V21H26zM27,20H28V21H27zM29,20H30V21H29zM30,20H31V21H30zM31,20H32V21H31zM35,20H36V21H35zM36,20H37V21H36zM37,20H38V21H37zM39,20H40V21H39zM41,20H42V21H41zM42,20H43V21H42zM43,20H44V21H43zM44,20H45V21H44zM4,21H5V22H4zM6,21H7V22H6zM7,21H8V22H7zM9,21H10V22H9zM11,21H12V22H11zM14,21H15V22H14zM15,21H16V22H15zM16,21H17V22H16zM17,21H18V22H17zM19,21H20V22H19zM22,21H23V22H22zM23,21H24V22H23zM24,21H25V22H24zM27,21H28V22H27zM30,21H31V22H30zM32,21H33V22H32zM33,21H34V22H33zM35,21H36V22H35zM36,21H37V22H36zM38,21H39V22H38zM39,21H40V22H39zM40,21H41V22H40zM41,21H42V22H41zM44,21H45V22H44zM4,22H5V23H4zM6,22H7V23H6zM7,22H8V23H7zM9,22H10V23H9zM10,22H11V23H10zM11,22H12V23H11zM12,22H13V23H12zM13,22H14V23H13zM14,22H15V23H14zM15,22H16V23H15zM16,22H17V23H16zM17,22H18V23H17zM19,22H20V23H19zM20,22H21V23H20zM22,22H23V23H22zM24,22H25V23H24zM26,22H27V23H26zM31,22H32V23H31zM32,22H33V23H32zM33,22H34V23H33zM36,22H37V23H36zM37,22H38V23H37zM38,22H39V23H38zM40,22H41V23H40zM4,23H5V24H4zM5,23H6V24H5zM9,23H10V24H9zM12,23H13V24H12zM14,23H15V24H14zM15,23H16V24H15zM16,23H17V24H16zM17,23H18V24H17zM18,23H19V24H18zM19,23H20V24H19zM20,23H21V24H20zM23,23H24V24H23zM24,23H25V24H24zM27,23H28V24H27zM28,23H29V24H28zM30,23H31V24H30zM32,23H33V24H32zM33,23H34V24H33zM34,23H35V24H34zM40,23H41V24H40zM41,23H42V24H41zM44,23H45V24H44zM4,24H5V25H4zM5,24H6V25H5zM8,24H9V25H8zM10,24H11V25H10zM12,24H13V25H12zM13,24H14V25H13zM16,24H17V25H16zM19,24H20V25H19zM22,24H23V25H22zM23,24H24V25H23zM25,24H26V25H25zM26,24H27V25H26zM32,24H33V25H32zM42,24H43V25H42zM44,24H45V25H44zM5,25H6V26H5zM6,25H7V26H6zM11,25H12V26H11zM15,25H16V26H15zM20,25H21V26H20zM23,25H24V26H23zM24,25H25V26H24zM27,25H28V26H27zM28,25H29V26H28zM30,25H31V26H30zM34,25H35V26H34zM35,25H36V26H35zM36,25H37V26H36zM37,25H38V26H37zM38,25H39V26H38zM39,25H40V26H39zM40,25H41V26H40zM42,25H43V26H42zM43,25H44V26H43zM44,25H45V26H44zM4,26H5V27H4zM5,26H6V27H5zM10,26H11V27H10zM12,26H13V27H12zM13,26H14V27H13zM14,26H15V27H14zM15,26H16V27H15zM18,26H19V27H18zM19,26H20V27H19zM21,26H22V27H21zM22,26H23V27H22zM24,26H25V27H24zM26,26H27V27H26zM30,26H31V27H30zM31,26H32V27H31zM32,26H33V27H32zM33,26H34V27H33zM36,26H37V27H36zM38,26H39V27H38zM39,26H40V27H39zM40,26H41V27H40zM4,27H5V28H4zM6,27H7V28H6zM7,27H8V28H7zM11,27H12V28H11zM13,27H14V28H13zM15,27H16V28H15zM16,27H17V28H16zM17,27H18V28H17zM18,27H19V28H18zM20,27H21V28H20zM25,27H26V28H25zM27,27H28V28H27zM30,27H31V28H30zM32,27H33V28H32zM35,27H36V28H35zM36,27H37V28H36zM38,27H39V28H38zM39,27H40V28H39zM41,27H42V28H41zM5,28H6V29H5zM8,28H9V29H8zM10,28H11V29H10zM11,28H12V29H11zM12,28H13V29H12zM14,28H15V29H14zM15,28H16V29H15zM17,28H18V29H17zM18,28H19V29H18zM21,28H22V29H21zM26,28H27V29H26zM27,28H28V29H27zM28,28H29V29H28zM29,28H30V29H29zM30,28H31V29H30zM33,28H34V29H33zM35,28H36V29H35zM39,28H40V29H39zM41,28H42V29H41zM42,28H43V29H42zM4,29H5V30H4zM5,29H6V30H5zM6,29H7V30H6zM9,29H10V30H9zM12,29H13V30H12zM15,29H16V30H15zM17,29H18V30H17zM20,29H21V30H20zM21,29H22V30H21zM22,29H23V30H22zM23,29H24V30H23zM24,29H25V30H24zM25,29H26V30H25zM27,29H28V30H27zM30,29H31V30H30zM32,29H33V30H32zM33,29H34V30H33zM35,29H36V30H35zM38,29H39V30H38zM39,29H40V30H39zM40,29H41V30H40zM41,29H42V30H41zM43,29H44V30H43zM44,29H45V30H44zM9,30H10V31H9zM10,30H11V31H10zM13,30H14V31H13zM15,30H16V31H15zM16,30H17V31H16zM18,30H19V31H18zM19,30H20V31H19zM21,30H22V31H21zM24,30H25V31H24zM25,30H26V31H25zM30,30H31V31H30zM31,30H32V31H31zM33,30H34V31H33zM36,30H37V31H36zM38,30H39V31H38zM39,30H40V31H39zM40,30H41V31H40zM43,30H44V31H43zM4,31H5V32H4zM6,31H7V32H6zM9,31H10V32H9zM14,31H15V32H14zM15,31H16V32H15zM19,31H20V32H19zM23,31H24V32H23zM24,31H25V32H24zM25,31H26V32H25zM28,31H29V32H28zM30,31H31V32H30zM32,31H33V32H32zM35,31H36V32H35zM36,31H37V32H36zM37,31H38V32H37zM38,31H39V32H38zM39,31H40V32H39zM41,31H42V32H41zM4,32H5V33H4zM5,32H6V33H5zM10,32H11V33H10zM11,32H12V33H11zM12,32H13V33H12zM16,32H17V33H16zM19,32H20V33H19zM20,32H21V33H20zM21,32H22V33H21zM23,32H24V33H23zM27,32H28V33H27zM29,32H30V33H29zM33,32H34V33H33zM35,32H36V33H35zM36,32H37V33H36zM38,32H39V33H38zM39,32H40V33H39zM41,32H42V33H41zM42,32H43V33H42zM44,32H45V33H44zM4,33H5V34H4zM5,33H6V34H5zM9,33H10V34H9zM12,33H13V34H12zM13,33H14V34H13zM15,33H16V34H15zM17,33H18V34H17zM18,33H19V34H18zM19,33H20V34H19zM20,33H21V34H20zM21,33H22V34H21zM24,33H25V34H24zM28,33H29V34H28zM30,33H31V34H30zM31,33H32V34H31zM32,33H33V34H32zM33,33H34V34H33zM34,33H35V34H34zM37,33H38V34H37zM39,33H40V34H39zM40,33H41V34H40zM41,33H42V34H41zM43,33H44V34H43zM44,33H45V34H44zM4,34H5V35H4zM6,34H7V35H6zM7,34H8V35H7zM8,34H9V35H8zM9,34H10V35H9zM10,34H11V35H10zM11,34H12V35H11zM12,34H13V35H12zM13,34H14V35H13zM14,34H15V35H14zM16,34H17V35H16zM17,34H18V35H17zM18,34H19V35H18zM20,34H21V35H20zM22,34H23V35H22zM23,34H24V35H23zM26,34H27V35H26zM29,34H30V35H29zM33,34H34V35H33zM36,34H37V35H36zM37,34H38V35H37zM38,34H39V35H38zM39,34H40V35H39zM40,34H41V35H40zM4,35H5V36H4zM6,35H7V36H6zM8,35H9V36H8zM12,35H13V36H12zM14,35H15V36H14zM15,35H16V36H15zM17,35H18V36H17zM23,35H24V36H23zM24,35H25V36H24zM25,35H26V36H25zM26,35H27V36H26zM28,35H29V36H28zM32,35H33V36H32zM37,35H38V36H37zM38,35H39V36H38zM40,35H41V36H40zM41,35H42V36H41zM43,35H44V36H43zM44,35H45V36H44zM4,36H5V37H4zM10,36H11V37H10zM14,36H15V37H14zM15,36H16V37H15zM16,36H17V37H16zM19,36H20V37H19zM21,36H22V37H21zM23,36H24V37H23zM26,36H27V37H26zM29,36H30V37H29zM30,36H31V37H30zM33,36H34V37H33zM36,36H37V37H36zM37,36H38V37H37zM38,36H39V37H38zM39,36H40V37H39zM40,36H41V37H40zM42,36H43V37H42zM43,36H44V37H43zM12,37H13V38H12zM13,37H14V38H13zM14,37H15V38H14zM15,37H16V38H15zM17,37H18V38H17zM18,37H19V38H18zM19,37H20V38H19zM20,37H21V38H20zM21,37H22V38H21zM22,37H23V38H22zM23,37H24V38H23zM25,37H26V38H25zM27,37H28V38H27zM29,37H30V38H29zM32,37H33V38H32zM34,37H35V38H34zM36,37H37V38H36zM40,37H41V38H40zM42,37H43V38H42zM43,37H44V38H43zM44,37H45V38H44zM4,38H5V39H4zM5,38H6V39H5zM6,38H7V39H6zM7,38H8V39H7zM8,38H9V39H8zM9,38H10V39H9zM10,38H11V39H10zM16,38H17V39H16zM17,38H18V39H17zM18,38H19V39H18zM21,38H22V39H21zM25,38H26V39H25zM29,38H30V39H29zM30,38H31V39H30zM31,38H32V39H31zM32,38H33V39H32zM34,38H35V39H34zM35,38H36V39H35zM36,38H37V39H36zM38,38H39V39H38zM40,38H41V39H40zM43,38H44V39H43zM4,39H5V40H4zM10,39H11V40H10zM12,39H13V40H12zM13,39H14V40H13zM14,39H15V40H14zM15,39H16V40H15zM19,39H20V40H19zM21,39H22V40H21zM22,39H23V40H22zM23,39H24V40H23zM24,39H25V40H24zM25,39H26V40H25zM26,39H27V40H26zM29,39H30V40H29zM35,39H36V40H35zM36,39H37V40H36zM40,39H41V40H40zM41,39H42V40H41zM43,39H44V40H43zM44,39H45V40H44zM4,40H5V41H4zM6,40H7V41H6zM7,40H8V41H7zM8,40H9V41H8zM10,40H11V41H10zM12,40H13V41H12zM15,40H16V41H15zM16,40H17V41H16zM18,40H19V41H18zM19,40H20V41H19zM20,40H21V41H20zM23,40H24V41H23zM25,40H26V41H25zM28,40H29V41H28zM30,40H31V41H30zM31,40H32V41H31zM34,40H35V41H34zM36,40H37V41H36zM37,40H38V41H37zM38,40H39V41H38zM39,40H40V41H39zM40,40H41V41H40zM42,40H43V41H42zM44,40H45V41H44zM4,41H5V42H4zM6,41H7V42H6zM7,41H8V42H7zM8,41H9V42H8zM10,41H11V42H10zM12,41H13V42H12zM13,41H14V42H13zM17,41H18V42H17zM18,41H19V42H18zM20,41H21V42H20zM21,41H22V42H21zM22,41H23V42H22zM23,41H24V42H23zM24,41H25V42H24zM25,41H26V42H25zM26,41H27V42H26zM27,41H28V42H27zM28,41H29V42H28zM37,41H38V42H37zM39,41H40V42H39zM41,41H42V42H41zM4,42H5V43H4zM6,42H7V43H6zM7,42H8V43H7zM8,42H9V43H8zM10,42H11V43H10zM12,42H13V43H12zM16,42H17V43H16zM17,42H18V43H17zM18,42H19V43H18zM21,42H22V43H21zM22,42H23V43H22zM24,42H25V43H24zM28,42H29V43H28zM29,42H30V43H29zM31,42H32V43H31zM32,42H33V43H32zM33,42H34V43H33zM37,42H38V43H37zM38,42H39V43H38zM39,42H40V43H39zM40,42H41V43H40zM4,43H5V44H4zM10,43H11V44H10zM14,43H15V44H14zM18,43H19V44H18zM19,43H20V44H19zM20,43H21V44H20zM21,43H22V44H21zM22,43H23V44H22zM23,43H24V44H23zM24,43H25V44H24zM25,43H26V44H25zM26,43H27V44H26zM36,43H37V44H36zM37,43H38V44H37zM40,43H41V44H40zM41,43H42V44H41zM43,43H44V44H43zM4,44H5V45H4zM5,44H6V45H5zM6,44H7V45H6zM7,44H8V45H7zM8,44H9V45H8zM9,44H10V45H9zM10,44H11V45H10zM12,44H13V45H12zM13,44H14V45H13zM15,44H16V45H15zM17,44H18V45H17zM20,44H21V45H20zM23,44H24V45H23zM26,44H27V45H26zM28,44H29V45H28zM29,44H30V45H29zM30,44H31V45H30zM33,44H34V45H33zM34,44H35V45H34zM38,44H39V45H38zM39,44H40V45H39zM40,44H41V45H40zM42,44H43V45H42z" id="qr-path" fill="#000000" fill-opacity="1" fill-rule="nonzero" stroke="none"/></svg>