<?xml version="1.0" encoding="UTF-8" standalone="no"?>
<svg
xmlns:svg="http://www.w3.org/2000/svg"
xmlns="http://www.w3.org/2000/svg"
xmlns:xlink="http://www.w3.org/1999/xlink"
width ="920"
height ="432"
viewBox ="0 0 920 432"
>
<defs><polygon points="0,0 6,8, 0,16 20,8" id="m_tmpl2"/><marker id="token_arrow"  markerUnits="userSpaceOnUse" markerWidth="20" markerHeight="16" viewBox="0 0 20 16" refX="14" refY="8" orient="auto"><use xlink:href="#m_tmpl2" fill="#60a0ff"/></marker></defs><defs><polygon points="0,0 0,4 0,8 12,4" id="m_tmpl3"/><marker id="link_arrow" markerUnits="strokeWidth" markerWidth="12" markerHeight="8" viewBox="0 0 12 8" refX="12" refY="4" orient="auto"><use xlink:href="#m_tmpl3" fill="#888888"/></marker></defs><rect x ="0" y="0" width="420" height="200" fill="#ffffff" stroke="#888888" stroke-width="1"/><path fill="#0088e0" d="M 432 100 L 432 80 L 452 100 L 432 120 z" /><g transform="translate(0,0)"><g transform="translate(0,0) scale(1)"><g stroke="#F0F8FF" stroke-width="0" fill="#F0F8FF"></g><g stroke="#F0F8FF" stroke-width="44.8" fill="#F0F8FF"></g></g><g transform="translate(0,0) scale(1)"><g stroke="#98FB98" stroke-width="0" fill="#98FB98"><circle cx="56" cy="112" r="22" /><circle cx="28" cy="154" r="22" /></g><g stroke="#98FB98" stroke-width="44.8" fill="#98FB98"><line x1="56" y1="112" x2="28" y2="154" stroke-linecap="round"/></g></g><g transform="translate(0,0) scale(1)"><g fill="#ffffff" stroke="#a0a0a0" stroke-width="1"><line x1="84" y1="154" x2="56" y2="112" stroke-linecap="round"/><rect x="70" y="140" width="28" height="28" rx="4" ry="4" /><line x1="28" y1="154" x2="56" y2="112" stroke-linecap="round"/><rect x="14" y="140" width="28" height="28" rx="4" ry="4" /><line x1="392" y1="112" x2="336" y2="70" stroke-linecap="round"/><rect x="378" y="98" width="28" height="28" rx="4" ry="4" /><line x1="280" y1="112" x2="336" y2="70" stroke-linecap="round"/><rect x="266" y="98" width="28" height="28" rx="4" ry="4" /><line x1="168" y1="112" x2="112" y2="70" stroke-linecap="round"/><rect x="154" y="98" width="28" height="28" rx="4" ry="4" /><line x1="56" y1="112" x2="112" y2="70" stroke-linecap="round"/><rect x="42" y="98" width="28" height="28" rx="4" ry="4" /><line x1="336" y1="70" x2="224" y2="28" stroke-linecap="round"/><rect x="322" y="56" width="28" height="28" rx="4" ry="4" /><line x1="112" y1="70" x2="224" y2="28" stroke-linecap="round"/><rect x="98" y="56" width="28" height="28" rx="4" ry="4" /><rect x="210" y="14" width="28" height="28" rx="4" ry="4" /></g><g font-size="9" font-family="Verdana" fill="#888888"><text id="" x="224" y="5" dominant-baseline="central" text-anchor="middle">0</text><text id="" x="112" y="47" dominant-baseline="central" text-anchor="middle">1</text><text id="" x="336" y="47" dominant-baseline="central" text-anchor="middle">2</text><text id="" x="56" y="89" dominant-baseline="central" text-anchor="middle">3</text><text id="" x="168" y="89" dominant-baseline="central" text-anchor="middle">4</text><text id="" x="280" y="89" dominant-baseline="central" text-anchor="middle">5</text><text id="" x="392" y="89" dominant-baseline="central" text-anchor="middle">6</text><text id="" x="28" y="131" dominant-baseline="central" text-anchor="middle">7</text><text id="" x="84" y="131" dominant-baseline="central" text-anchor="middle">8</text></g></g><g transform="translate(392,28) scale(1)"><g fill="#ffffff" stroke="#a0a0a0" stroke-width="1"><path d="M -14 0 L 0-14 L 14 0 L 0 14 L -14 0 z" /></g></g><g transform="translate(0,0) scale(1)"><g class="flash_g" fill="#ff8c00" stroke="#ff8c00" stroke-width="1"><rect x="42" y="98" width="28" height="28" rx="4" ry="4" /><rect x="14" y="140" width="28" height="28" rx="4" ry="4" /></g><g fill="none" stroke="#a0a0a0" stroke-width="1"><rect x="42" y="98" width="28" height="28" rx="4" ry="4" /><rect x="14" y="140" width="28" height="28" rx="4" ry="4" /></g></g><g transform="translate(0,0) scale(1)"><g stroke-width="0"><circle cx="224" cy="28" r="10" fill="#7DBDFF" id="var_A_2__0" /><circle cx="112" cy="70" r="10" fill="#4A8AFA" id="var_A_2__1" /><circle cx="336" cy="70" r="10" fill="#7ABAFF" id="var_A_2__2" /><circle cx="56" cy="112" r="10" fill="#4080F0" id="var_A_2__3" /><circle cx="168" cy="112" r="10" fill="#8BCBFF" id="var_A_2__4" /><circle cx="280" cy="112" r="10" fill="#73B3FF" id="var_A_2__5" /><circle cx="392" cy="112" r="10" fill="#5B9BFF" id="var_A_2__6" /><circle cx="28" cy="154" r="10" fill="#69A9FF" id="var_A_2__7" /><circle cx="84" cy="154" r="10" fill="#84C4FF" id="var_A_2__8" /></g><g font-size="14" font-family="sans-serif" fill="#ffffff"><text id="text_A_2__0" x="224" y="28" dominant-baseline="central" text-anchor="middle">5</text><text id="text_A_2__1" x="112" y="70" dominant-baseline="central" text-anchor="middle">20</text><text id="text_A_2__2" x="336" y="70" dominant-baseline="central" text-anchor="middle">6</text><text id="text_A_2__3" x="56" y="112" dominant-baseline="central" text-anchor="middle">23</text><text id="text_A_2__4" x="168" y="112" dominant-baseline="central" text-anchor="middle">1</text><text id="text_A_2__5" x="280" y="112" dominant-baseline="central" text-anchor="middle">8</text><text id="text_A_2__6" x="392" y="112" dominant-baseline="central" text-anchor="middle">15</text><text id="text_A_2__7" x="28" y="154" dominant-baseline="central" text-anchor="middle">11</text><text id="text_A_2__8" x="84" y="154" dominant-baseline="central" text-anchor="middle">3</text></g><animateMotion xlink:href="#var_A_2__3" path="M-28 42 L 0 0" dur="0.9s" repeatCount="1"/><animateMotion xlink:href="#text_A_2__3" path="M-28 42 L 0 0" dur="0.9s" repeatCount="1"/><g fill="none" stroke="#60a0ff" stroke-width="4" stroke-linecap="round" stroke-dasharray="0.1, 8"><path class="for_print" d="M 35.7658 142.351 L 48.2342 123.649"  marker-end="url(#token_arrow)"/></g><animateMotion xlink:href="#var_A_2__7" path="M 28,-42 Q -6.80126,-34.8675 0,0" dur="0.9s" repeatCount="1"/><animateMotion xlink:href="#text_A_2__7" path="M 28,-42 Q -6.80126,-34.8675 0,0" dur="0.9s" repeatCount="1"/><g fill="none" stroke="#60a0ff" stroke-width="4" stroke-linecap="round" stroke-dasharray="0.1, 8"><path class="for_print" d="M 42.2719 114.746 Q 21 119 25.2544 140.272"  marker-end="url(#token_arrow)"/></g></g><g transform="translate(0,0) scale(1)"><g stroke-width="0"></g><g font-size="14" font-family="sans-serif" fill="#ffffff"></g><animateMotion xlink:href="#var_nodeId_1__3" path="M-28 42 L 0 0" dur="0.9s" repeatCount="1"/><animateMotion xlink:href="#text_nodeId_1__3" path="M-28 42 L 0 0" dur="0.9s" repeatCount="1"/><g fill="none" stroke="#60a0ff" stroke-width="4" stroke-linecap="round" stroke-dasharray="0.1, 8"><path class="for_print" d="M 35.7658 142.351 L 48.2342 123.649"  marker-end="url(#token_arrow)"/></g><animateMotion xlink:href="#var_nodeId_1__7" path="M 28,-42 Q -6.80126,-34.8675 0,0" dur="0.9s" repeatCount="1"/><animateMotion xlink:href="#text_nodeId_1__7" path="M 28,-42 Q -6.80126,-34.8675 0,0" dur="0.9s" repeatCount="1"/><g fill="none" stroke="#60a0ff" stroke-width="4" stroke-linecap="round" stroke-dasharray="0.1, 8"><path class="for_print" d="M 42.2719 114.746 Q 21 119 25.2544 140.272"  marker-end="url(#token_arrow)"/></g></g></g><text x="16" y="20" font-size="16" text-anchor="middle" fill="#888888" font-family="sans-serif" >2-1</text><text x="210" y="184" font-size="9" text-anchor="middle" font-family="SimSun, 宋体, serif">通过插入的方式使起点的元素朝叶子节点下降。downHeap(3)</text><rect x ="460" y="0" width="420" height="200" fill="#ffffff" stroke="#888888" stroke-width="1"/><path fill="#0088e0" d="M 892 100 L 892 80 L 912 100 L 892 120 z" /><g transform="translate(460,0)"><g transform="translate(0,0) scale(1)"><g stroke="#F0F8FF" stroke-width="0" fill="#F0F8FF"><circle cx="56" cy="112" r="22" /><circle cx="28" cy="154" r="22" /><circle cx="84" cy="154" r="22" /></g><g stroke="#F0F8FF" stroke-width="44.8" fill="#F0F8FF"><line x1="56" y1="112" x2="28" y2="154" stroke-linecap="round"/><line x1="56" y1="112" x2="84" y2="154" stroke-linecap="round"/></g></g><g transform="translate(0,0) scale(1)"><g stroke="#98FB98" stroke-width="0" fill="#98FB98"><circle cx="336" cy="70" r="22" /><circle cx="392" cy="112" r="22" /></g><g stroke="#98FB98" stroke-width="44.8" fill="#98FB98"><line x1="336" y1="70" x2="392" y2="112" stroke-linecap="round"/></g></g><g transform="translate(0,0) scale(1)"><g fill="#ffffff" stroke="#a0a0a0" stroke-width="1"><line x1="84" y1="154" x2="56" y2="112" stroke-linecap="round"/><rect x="70" y="140" width="28" height="28" rx="4" ry="4" /><line x1="28" y1="154" x2="56" y2="112" stroke-linecap="round"/><rect x="14" y="140" width="28" height="28" rx="4" ry="4" /><line x1="392" y1="112" x2="336" y2="70" stroke-linecap="round"/><rect x="378" y="98" width="28" height="28" rx="4" ry="4" /><line x1="280" y1="112" x2="336" y2="70" stroke-linecap="round"/><rect x="266" y="98" width="28" height="28" rx="4" ry="4" /><line x1="168" y1="112" x2="112" y2="70" stroke-linecap="round"/><rect x="154" y="98" width="28" height="28" rx="4" ry="4" /><line x1="56" y1="112" x2="112" y2="70" stroke-linecap="round"/><rect x="42" y="98" width="28" height="28" rx="4" ry="4" /><line x1="336" y1="70" x2="224" y2="28" stroke-linecap="round"/><rect x="322" y="56" width="28" height="28" rx="4" ry="4" /><line x1="112" y1="70" x2="224" y2="28" stroke-linecap="round"/><rect x="98" y="56" width="28" height="28" rx="4" ry="4" /><rect x="210" y="14" width="28" height="28" rx="4" ry="4" /></g><g font-size="9" font-family="Verdana" fill="#888888"><text id="" x="224" y="5" dominant-baseline="central" text-anchor="middle">0</text><text id="" x="112" y="47" dominant-baseline="central" text-anchor="middle">1</text><text id="" x="336" y="47" dominant-baseline="central" text-anchor="middle">2</text><text id="" x="56" y="89" dominant-baseline="central" text-anchor="middle">3</text><text id="" x="168" y="89" dominant-baseline="central" text-anchor="middle">4</text><text id="" x="280" y="89" dominant-baseline="central" text-anchor="middle">5</text><text id="" x="392" y="89" dominant-baseline="central" text-anchor="middle">6</text><text id="" x="28" y="131" dominant-baseline="central" text-anchor="middle">7</text><text id="" x="84" y="131" dominant-baseline="central" text-anchor="middle">8</text></g></g><g transform="translate(392,28) scale(1)"><g fill="#ffffff" stroke="#a0a0a0" stroke-width="1"><path d="M -14 0 L 0-14 L 14 0 L 0 14 L -14 0 z" /></g></g><g transform="translate(0,0) scale(1)"><g class="flash_g" fill="#ff8c00" stroke="#ff8c00" stroke-width="1"><rect x="322" y="56" width="28" height="28" rx="4" ry="4" /><rect x="378" y="98" width="28" height="28" rx="4" ry="4" /></g><g fill="none" stroke="#a0a0a0" stroke-width="1"><rect x="322" y="56" width="28" height="28" rx="4" ry="4" /><rect x="378" y="98" width="28" height="28" rx="4" ry="4" /></g></g><g transform="translate(0,0) scale(1)"><g stroke-width="0"><circle cx="224" cy="28" r="10" fill="#7DBDFF" id="var_A_3__0" /><circle cx="112" cy="70" r="10" fill="#4A8AFA" id="var_A_3__1" /><circle cx="336" cy="70" r="10" fill="#5B9BFF" id="var_A_3__2" /><circle cx="56" cy="112" r="10" fill="#4080F0" id="var_A_3__3" /><circle cx="168" cy="112" r="10" fill="#8BCBFF" id="var_A_3__4" /><circle cx="280" cy="112" r="10" fill="#73B3FF" id="var_A_3__5" /><circle cx="392" cy="112" r="10" fill="#7ABAFF" id="var_A_3__6" /><circle cx="28" cy="154" r="10" fill="#69A9FF" id="var_A_3__7" /><circle cx="84" cy="154" r="10" fill="#84C4FF" id="var_A_3__8" /></g><g font-size="14" font-family="sans-serif" fill="#ffffff"><text id="text_A_3__0" x="224" y="28" dominant-baseline="central" text-anchor="middle">5</text><text id="text_A_3__1" x="112" y="70" dominant-baseline="central" text-anchor="middle">20</text><text id="text_A_3__2" x="336" y="70" dominant-baseline="central" text-anchor="middle">15</text><text id="text_A_3__3" x="56" y="112" dominant-baseline="central" text-anchor="middle">23</text><text id="text_A_3__4" x="168" y="112" dominant-baseline="central" text-anchor="middle">1</text><text id="text_A_3__5" x="280" y="112" dominant-baseline="central" text-anchor="middle">8</text><text id="text_A_3__6" x="392" y="112" dominant-baseline="central" text-anchor="middle">6</text><text id="text_A_3__7" x="28" y="154" dominant-baseline="central" text-anchor="middle">11</text><text id="text_A_3__8" x="84" y="154" dominant-baseline="central" text-anchor="middle">3</text></g><animateMotion xlink:href="#var_A_3__2" path="M56 42 L 0 0" dur="0.9s" repeatCount="1"/><animateMotion xlink:href="#text_A_3__2" path="M56 42 L 0 0" dur="0.9s" repeatCount="1"/><g fill="none" stroke="#60a0ff" stroke-width="4" stroke-linecap="round" stroke-dasharray="0.1, 8"><path class="for_print" d="M 380.8 103.6 L 347.2 78.4"  marker-end="url(#token_arrow)"/></g><animateMotion xlink:href="#var_A_3__6" path="M -56,-42 Q -49,7 0,0" dur="0.9s" repeatCount="1"/><animateMotion xlink:href="#text_A_3__6" path="M -56,-42 Q -49,7 0,0" dur="0.9s" repeatCount="1"/><g fill="none" stroke="#60a0ff" stroke-width="4" stroke-linecap="round" stroke-dasharray="0.1, 8"><path class="for_print" d="M 337.98 83.8593 Q 343 119 378.141 113.98"  marker-end="url(#token_arrow)"/></g></g><g transform="translate(0,0) scale(1)"><g stroke-width="0"></g><g font-size="14" font-family="sans-serif" fill="#ffffff"></g><animateMotion xlink:href="#var_nodeId_2__2" path="M56 42 L 0 0" dur="0.9s" repeatCount="1"/><animateMotion xlink:href="#text_nodeId_2__2" path="M56 42 L 0 0" dur="0.9s" repeatCount="1"/><g fill="none" stroke="#60a0ff" stroke-width="4" stroke-linecap="round" stroke-dasharray="0.1, 8"><path class="for_print" d="M 380.8 103.6 L 347.2 78.4"  marker-end="url(#token_arrow)"/></g><animateMotion xlink:href="#var_nodeId_2__6" path="M -56,-42 Q -49,7 0,0" dur="0.9s" repeatCount="1"/><animateMotion xlink:href="#text_nodeId_2__6" path="M -56,-42 Q -49,7 0,0" dur="0.9s" repeatCount="1"/><g fill="none" stroke="#60a0ff" stroke-width="4" stroke-linecap="round" stroke-dasharray="0.1, 8"><path class="for_print" d="M 337.98 83.8593 Q 343 119 378.141 113.98"  marker-end="url(#token_arrow)"/></g></g></g><text x="476" y="20" font-size="16" text-anchor="middle" fill="#888888" font-family="sans-serif" >2-2</text><text x="670" y="184" font-size="9" text-anchor="middle" font-family="SimSun, 宋体, serif">通过插入的方式使起点的元素朝叶子节点下降。downHeap(2)</text><rect x ="0" y="216" width="420" height="200" fill="#ffffff" stroke="#888888" stroke-width="1"/><path fill="#0088e0" d="M 432 316 L 432 296 L 452 316 L 432 336 z" /><g transform="translate(0,216)"><g transform="translate(0,0) scale(1)"><g stroke="#F0F8FF" stroke-width="0" fill="#F0F8FF"><circle cx="336" cy="70" r="22" /><circle cx="56" cy="112" r="22" /><circle cx="280" cy="112" r="22" /><circle cx="392" cy="112" r="22" /><circle cx="28" cy="154" r="22" /><circle cx="84" cy="154" r="22" /></g><g stroke="#F0F8FF" stroke-width="44.8" fill="#F0F8FF"><line x1="336" y1="70" x2="280" y2="112" stroke-linecap="round"/><line x1="336" y1="70" x2="392" y2="112" stroke-linecap="round"/><line x1="56" y1="112" x2="28" y2="154" stroke-linecap="round"/><line x1="56" y1="112" x2="84" y2="154" stroke-linecap="round"/></g></g><g transform="translate(0,0) scale(1)"><g stroke="#98FB98" stroke-width="0" fill="#98FB98"><circle cx="112" cy="70" r="22" /><circle cx="56" cy="112" r="22" /></g><g stroke="#98FB98" stroke-width="44.8" fill="#98FB98"><line x1="112" y1="70" x2="56" y2="112" stroke-linecap="round"/></g></g><g transform="translate(0,0) scale(1)"><g fill="#ffffff" stroke="#a0a0a0" stroke-width="1"><line x1="84" y1="154" x2="56" y2="112" stroke-linecap="round"/><rect x="70" y="140" width="28" height="28" rx="4" ry="4" /><line x1="28" y1="154" x2="56" y2="112" stroke-linecap="round"/><rect x="14" y="140" width="28" height="28" rx="4" ry="4" /><line x1="392" y1="112" x2="336" y2="70" stroke-linecap="round"/><rect x="378" y="98" width="28" height="28" rx="4" ry="4" /><line x1="280" y1="112" x2="336" y2="70" stroke-linecap="round"/><rect x="266" y="98" width="28" height="28" rx="4" ry="4" /><line x1="168" y1="112" x2="112" y2="70" stroke-linecap="round"/><rect x="154" y="98" width="28" height="28" rx="4" ry="4" /><line x1="56" y1="112" x2="112" y2="70" stroke-linecap="round"/><rect x="42" y="98" width="28" height="28" rx="4" ry="4" /><line x1="336" y1="70" x2="224" y2="28" stroke-linecap="round"/><rect x="322" y="56" width="28" height="28" rx="4" ry="4" /><line x1="112" y1="70" x2="224" y2="28" stroke-linecap="round"/><rect x="98" y="56" width="28" height="28" rx="4" ry="4" /><rect x="210" y="14" width="28" height="28" rx="4" ry="4" /></g><g font-size="9" font-family="Verdana" fill="#888888"><text id="" x="224" y="5" dominant-baseline="central" text-anchor="middle">0</text><text id="" x="112" y="47" dominant-baseline="central" text-anchor="middle">1</text><text id="" x="336" y="47" dominant-baseline="central" text-anchor="middle">2</text><text id="" x="56" y="89" dominant-baseline="central" text-anchor="middle">3</text><text id="" x="168" y="89" dominant-baseline="central" text-anchor="middle">4</text><text id="" x="280" y="89" dominant-baseline="central" text-anchor="middle">5</text><text id="" x="392" y="89" dominant-baseline="central" text-anchor="middle">6</text><text id="" x="28" y="131" dominant-baseline="central" text-anchor="middle">7</text><text id="" x="84" y="131" dominant-baseline="central" text-anchor="middle">8</text></g></g><g transform="translate(392,28) scale(1)"><g fill="#ffffff" stroke="#a0a0a0" stroke-width="1"><path d="M -14 0 L 0-14 L 14 0 L 0 14 L -14 0 z" /></g></g><g transform="translate(0,0) scale(1)"><g class="flash_g" fill="#ff8c00" stroke="#ff8c00" stroke-width="1"><rect x="98" y="56" width="28" height="28" rx="4" ry="4" /><rect x="42" y="98" width="28" height="28" rx="4" ry="4" /></g><g fill="none" stroke="#a0a0a0" stroke-width="1"><rect x="98" y="56" width="28" height="28" rx="4" ry="4" /><rect x="42" y="98" width="28" height="28" rx="4" ry="4" /></g></g><g transform="translate(0,0) scale(1)"><g stroke-width="0"><circle cx="224" cy="28" r="10" fill="#7DBDFF" id="var_A_4__0" /><circle cx="112" cy="70" r="10" fill="#4080F0" id="var_A_4__1" /><circle cx="336" cy="70" r="10" fill="#5B9BFF" id="var_A_4__2" /><circle cx="56" cy="112" r="10" fill="#4A8AFA" id="var_A_4__3" /><circle cx="168" cy="112" r="10" fill="#8BCBFF" id="var_A_4__4" /><circle cx="280" cy="112" r="10" fill="#73B3FF" id="var_A_4__5" /><circle cx="392" cy="112" r="10" fill="#7ABAFF" id="var_A_4__6" /><circle cx="28" cy="154" r="10" fill="#69A9FF" id="var_A_4__7" /><circle cx="84" cy="154" r="10" fill="#84C4FF" id="var_A_4__8" /></g><g font-size="14" font-family="sans-serif" fill="#ffffff"><text id="text_A_4__0" x="224" y="28" dominant-baseline="central" text-anchor="middle">5</text><text id="text_A_4__1" x="112" y="70" dominant-baseline="central" text-anchor="middle">23</text><text id="text_A_4__2" x="336" y="70" dominant-baseline="central" text-anchor="middle">15</text><text id="text_A_4__3" x="56" y="112" dominant-baseline="central" text-anchor="middle">20</text><text id="text_A_4__4" x="168" y="112" dominant-baseline="central" text-anchor="middle">1</text><text id="text_A_4__5" x="280" y="112" dominant-baseline="central" text-anchor="middle">8</text><text id="text_A_4__6" x="392" y="112" dominant-baseline="central" text-anchor="middle">6</text><text id="text_A_4__7" x="28" y="154" dominant-baseline="central" text-anchor="middle">11</text><text id="text_A_4__8" x="84" y="154" dominant-baseline="central" text-anchor="middle">3</text></g><animateMotion xlink:href="#var_A_4__1" path="M-56 42 L 0 0" dur="0.9s" repeatCount="1"/><animateMotion xlink:href="#text_A_4__1" path="M-56 42 L 0 0" dur="0.9s" repeatCount="1"/><g fill="none" stroke="#60a0ff" stroke-width="4" stroke-linecap="round" stroke-dasharray="0.1, 8"><path class="for_print" d="M 67.2 103.6 L 100.8 78.4"  marker-end="url(#token_arrow)"/></g><animateMotion xlink:href="#var_A_4__3" path="M 56,-42 Q 7,-49 0,0" dur="0.9s" repeatCount="1"/><animateMotion xlink:href="#text_A_4__3" path="M 56,-42 Q 7,-49 0,0" dur="0.9s" repeatCount="1"/><g fill="none" stroke="#60a0ff" stroke-width="4" stroke-linecap="round" stroke-dasharray="0.1, 8"><path class="for_print" d="M 98.1407 68.0201 Q 63 63 57.9799 98.1407"  marker-end="url(#token_arrow)"/></g></g><g transform="translate(0,0) scale(1)"><g stroke-width="0"></g><g font-size="14" font-family="sans-serif" fill="#ffffff"></g><animateMotion xlink:href="#var_nodeId_3__1" path="M-56 42 L 0 0" dur="0.9s" repeatCount="1"/><animateMotion xlink:href="#text_nodeId_3__1" path="M-56 42 L 0 0" dur="0.9s" repeatCount="1"/><g fill="none" stroke="#60a0ff" stroke-width="4" stroke-linecap="round" stroke-dasharray="0.1, 8"><path class="for_print" d="M 67.2 103.6 L 100.8 78.4"  marker-end="url(#token_arrow)"/></g><animateMotion xlink:href="#var_nodeId_3__3" path="M 56,-42 Q 7,-49 0,0" dur="0.9s" repeatCount="1"/><animateMotion xlink:href="#text_nodeId_3__3" path="M 56,-42 Q 7,-49 0,0" dur="0.9s" repeatCount="1"/><g fill="none" stroke="#60a0ff" stroke-width="4" stroke-linecap="round" stroke-dasharray="0.1, 8"><path class="for_print" d="M 98.1407 68.0201 Q 63 63 57.9799 98.1407"  marker-end="url(#token_arrow)"/></g></g></g><text x="16" y="236" font-size="16" text-anchor="middle" fill="#888888" font-family="sans-serif" >2-3</text><text x="210" y="400" font-size="9" text-anchor="middle" font-family="SimSun, 宋体, serif">通过插入的方式使起点的元素朝叶子节点下降。downHeap(1)</text><rect x ="460" y="216" width="420" height="200" fill="#ffffff" stroke="#888888" stroke-width="1"/><g transform="translate(460,216)"><g transform="translate(0,0) scale(1)"><g stroke="#F0F8FF" stroke-width="0" fill="#F0F8FF"><circle cx="112" cy="70" r="22" /><circle cx="336" cy="70" r="22" /><circle cx="56" cy="112" r="22" /><circle cx="168" cy="112" r="22" /><circle cx="280" cy="112" r="22" /><circle cx="392" cy="112" r="22" /><circle cx="28" cy="154" r="22" /><circle cx="84" cy="154" r="22" /></g><g stroke="#F0F8FF" stroke-width="44.8" fill="#F0F8FF"><line x1="112" y1="70" x2="56" y2="112" stroke-linecap="round"/><line x1="112" y1="70" x2="168" y2="112" stroke-linecap="round"/><line x1="336" y1="70" x2="280" y2="112" stroke-linecap="round"/><line x1="336" y1="70" x2="392" y2="112" stroke-linecap="round"/><line x1="56" y1="112" x2="28" y2="154" stroke-linecap="round"/><line x1="56" y1="112" x2="84" y2="154" stroke-linecap="round"/></g></g><g transform="translate(0,0) scale(1)"><g stroke="#98FB98" stroke-width="0" fill="#98FB98"><circle cx="224" cy="28" r="22" /><circle cx="112" cy="70" r="22" /><circle cx="56" cy="112" r="22" /><circle cx="28" cy="154" r="22" /></g><g stroke="#98FB98" stroke-width="44.8" fill="#98FB98"><line x1="224" y1="28" x2="112" y2="70" stroke-linecap="round"/><line x1="112" y1="70" x2="56" y2="112" stroke-linecap="round"/><line x1="56" y1="112" x2="28" y2="154" stroke-linecap="round"/></g></g><g transform="translate(0,0) scale(1)"><g fill="#ffffff" stroke="#a0a0a0" stroke-width="1"><line x1="84" y1="154" x2="56" y2="112" stroke-linecap="round"/><rect x="70" y="140" width="28" height="28" rx="4" ry="4" /><line x1="28" y1="154" x2="56" y2="112" stroke-linecap="round"/><rect x="14" y="140" width="28" height="28" rx="4" ry="4" /><line x1="392" y1="112" x2="336" y2="70" stroke-linecap="round"/><rect x="378" y="98" width="28" height="28" rx="4" ry="4" /><line x1="280" y1="112" x2="336" y2="70" stroke-linecap="round"/><rect x="266" y="98" width="28" height="28" rx="4" ry="4" /><line x1="168" y1="112" x2="112" y2="70" stroke-linecap="round"/><rect x="154" y="98" width="28" height="28" rx="4" ry="4" /><line x1="56" y1="112" x2="112" y2="70" stroke-linecap="round"/><rect x="42" y="98" width="28" height="28" rx="4" ry="4" /><line x1="336" y1="70" x2="224" y2="28" stroke-linecap="round"/><rect x="322" y="56" width="28" height="28" rx="4" ry="4" /><line x1="112" y1="70" x2="224" y2="28" stroke-linecap="round"/><rect x="98" y="56" width="28" height="28" rx="4" ry="4" /><rect x="210" y="14" width="28" height="28" rx="4" ry="4" /></g><g font-size="9" font-family="Verdana" fill="#888888"><text id="" x="224" y="5" dominant-baseline="central" text-anchor="middle">0</text><text id="" x="112" y="47" dominant-baseline="central" text-anchor="middle">1</text><text id="" x="336" y="47" dominant-baseline="central" text-anchor="middle">2</text><text id="" x="56" y="89" dominant-baseline="central" text-anchor="middle">3</text><text id="" x="168" y="89" dominant-baseline="central" text-anchor="middle">4</text><text id="" x="280" y="89" dominant-baseline="central" text-anchor="middle">5</text><text id="" x="392" y="89" dominant-baseline="central" text-anchor="middle">6</text><text id="" x="28" y="131" dominant-baseline="central" text-anchor="middle">7</text><text id="" x="84" y="131" dominant-baseline="central" text-anchor="middle">8</text></g></g><g transform="translate(392,28) scale(1)"><g fill="#ffffff" stroke="#a0a0a0" stroke-width="1"><path d="M -14 0 L 0-14 L 14 0 L 0 14 L -14 0 z" /></g></g><g transform="translate(0,0) scale(1)"><g class="flash_g" fill="#ff8c00" stroke="#ff8c00" stroke-width="1"><rect x="210" y="14" width="28" height="28" rx="4" ry="4" /><rect x="98" y="56" width="28" height="28" rx="4" ry="4" /><rect x="42" y="98" width="28" height="28" rx="4" ry="4" /><rect x="14" y="140" width="28" height="28" rx="4" ry="4" /></g><g fill="none" stroke="#a0a0a0" stroke-width="1"><rect x="210" y="14" width="28" height="28" rx="4" ry="4" /><rect x="98" y="56" width="28" height="28" rx="4" ry="4" /><rect x="42" y="98" width="28" height="28" rx="4" ry="4" /><rect x="14" y="140" width="28" height="28" rx="4" ry="4" /></g></g><g transform="translate(0,0) scale(1)"><g stroke-width="0"><circle cx="224" cy="28" r="10" fill="#4080F0" id="var_A_5__0" /><circle cx="112" cy="70" r="10" fill="#4A8AFA" id="var_A_5__1" /><circle cx="336" cy="70" r="10" fill="#5B9BFF" id="var_A_5__2" /><circle cx="56" cy="112" r="10" fill="#69A9FF" id="var_A_5__3" /><circle cx="168" cy="112" r="10" fill="#8BCBFF" id="var_A_5__4" /><circle cx="280" cy="112" r="10" fill="#73B3FF" id="var_A_5__5" /><circle cx="392" cy="112" r="10" fill="#7ABAFF" id="var_A_5__6" /><circle cx="28" cy="154" r="10" fill="#7DBDFF" id="var_A_5__7" /><circle cx="84" cy="154" r="10" fill="#84C4FF" id="var_A_5__8" /></g><g font-size="14" font-family="sans-serif" fill="#ffffff"><text id="text_A_5__0" x="224" y="28" dominant-baseline="central" text-anchor="middle">23</text><text id="text_A_5__1" x="112" y="70" dominant-baseline="central" text-anchor="middle">20</text><text id="text_A_5__2" x="336" y="70" dominant-baseline="central" text-anchor="middle">15</text><text id="text_A_5__3" x="56" y="112" dominant-baseline="central" text-anchor="middle">11</text><text id="text_A_5__4" x="168" y="112" dominant-baseline="central" text-anchor="middle">1</text><text id="text_A_5__5" x="280" y="112" dominant-baseline="central" text-anchor="middle">8</text><text id="text_A_5__6" x="392" y="112" dominant-baseline="central" text-anchor="middle">6</text><text id="text_A_5__7" x="28" y="154" dominant-baseline="central" text-anchor="middle">5</text><text id="text_A_5__8" x="84" y="154" dominant-baseline="central" text-anchor="middle">3</text></g><animateMotion xlink:href="#var_A_5__0" path="M-112 42 L 0 0" dur="0.9s" repeatCount="1"/><animateMotion xlink:href="#text_A_5__0" path="M-112 42 L 0 0" dur="0.9s" repeatCount="1"/><g fill="none" stroke="#60a0ff" stroke-width="4" stroke-linecap="round" stroke-dasharray="0.1, 8"><path class="for_print" d="M 125.109 65.0843 L 210.891 32.9157"  marker-end="url(#token_arrow)"/></g><animateMotion xlink:href="#var_A_5__1" path="M-56 42 L 0 0" dur="0.9s" repeatCount="1"/><animateMotion xlink:href="#text_A_5__1" path="M-56 42 L 0 0" dur="0.9s" repeatCount="1"/><g fill="none" stroke="#60a0ff" stroke-width="4" stroke-linecap="round" stroke-dasharray="0.1, 8"><path class="for_print" d="M 67.2 103.6 L 100.8 78.4"  marker-end="url(#token_arrow)"/></g><animateMotion xlink:href="#var_A_5__3" path="M-28 42 L 0 0" dur="0.9s" repeatCount="1"/><animateMotion xlink:href="#text_A_5__3" path="M-28 42 L 0 0" dur="0.9s" repeatCount="1"/><g fill="none" stroke="#60a0ff" stroke-width="4" stroke-linecap="round" stroke-dasharray="0.1, 8"><path class="for_print" d="M 35.7658 142.351 L 48.2342 123.649"  marker-end="url(#token_arrow)"/></g><animateMotion xlink:href="#var_A_5__7" path="M196 -126 L 0 0" dur="0.9s" repeatCount="1"/><animateMotion xlink:href="#text_A_5__7" path="M196 -126 L 0 0" dur="0.9s" repeatCount="1"/><g fill="none" stroke="#60a0ff" stroke-width="4" stroke-linecap="round" stroke-dasharray="0.1, 8"><path class="for_print" d="M 212.224 35.5706 L 39.7765 146.429"  marker-end="url(#token_arrow)"/></g></g><g transform="translate(0,0) scale(1)"><g stroke-width="0"></g><g font-size="14" font-family="sans-serif" fill="#ffffff"></g><animateMotion xlink:href="#var_nodeId_4__0" path="M-112 42 L 0 0" dur="0.9s" repeatCount="1"/><animateMotion xlink:href="#text_nodeId_4__0" path="M-112 42 L 0 0" dur="0.9s" repeatCount="1"/><g fill="none" stroke="#60a0ff" stroke-width="4" stroke-linecap="round" stroke-dasharray="0.1, 8"><path class="for_print" d="M 125.109 65.0843 L 210.891 32.9157"  marker-end="url(#token_arrow)"/></g><animateMotion xlink:href="#var_nodeId_4__1" path="M-56 42 L 0 0" dur="0.9s" repeatCount="1"/><animateMotion xlink:href="#text_nodeId_4__1" path="M-56 42 L 0 0" dur="0.9s" repeatCount="1"/><g fill="none" stroke="#60a0ff" stroke-width="4" stroke-linecap="round" stroke-dasharray="0.1, 8"><path class="for_print" d="M 67.2 103.6 L 100.8 78.4"  marker-end="url(#token_arrow)"/></g><animateMotion xlink:href="#var_nodeId_4__3" path="M-28 42 L 0 0" dur="0.9s" repeatCount="1"/><animateMotion xlink:href="#text_nodeId_4__3" path="M-28 42 L 0 0" dur="0.9s" repeatCount="1"/><g fill="none" stroke="#60a0ff" stroke-width="4" stroke-linecap="round" stroke-dasharray="0.1, 8"><path class="for_print" d="M 35.7658 142.351 L 48.2342 123.649"  marker-end="url(#token_arrow)"/></g><animateMotion xlink:href="#var_nodeId_4__7" path="M196 -126 L 0 0" dur="0.9s" repeatCount="1"/><animateMotion xlink:href="#text_nodeId_4__7" path="M196 -126 L 0 0" dur="0.9s" repeatCount="1"/><g fill="none" stroke="#60a0ff" stroke-width="4" stroke-linecap="round" stroke-dasharray="0.1, 8"><path class="for_print" d="M 212.224 35.5706 L 39.7765 146.429"  marker-end="url(#token_arrow)"/></g></g></g><text x="476" y="236" font-size="16" text-anchor="middle" fill="#888888" font-family="sans-serif" >2-4</text><text x="670" y="400" font-size="9" text-anchor="middle" font-family="SimSun, 宋体, serif">通过插入的方式使起点的元素朝叶子节点下降。downHeap(0)</text></svg>

