<?xml version='1.0' encoding='UTF-8'?>
<svg width="45mm" height="45mm" version="1.1" viewBox="0 0 45 45" xmlns="http://www.w3.org/2000/svg"><path d="M4,4H5V5H4zM5,4H6V5H5zM6,4H7V5H6zM7,4H8V5H7zM8,4H9V5H8zM9,4H10V5H9zM10,4H11V5H10zM13,4H14V5H13zM15,4H16V5H15zM18,4H19V5H18zM19,4H20V5H19zM20,4H21V5H20zM21,4H22V5H21zM22,4H23V5H22zM23,4H24V5H23zM26,4H27V5H26zM27,4H28V5H27zM30,4H31V5H30zM31,4H32V5H31zM32,4H33V5H32zM34,4H35V5H34zM35,4H36V5H35zM36,4H37V5H36zM37,4H38V5H37zM38,4H39V5H38zM39,4H40V5H39zM40,4H41V5H40zM4,5H5V6H4zM10,5H11V6H10zM12,5H13V6H12zM13,5H14V6H13zM16,5H17V6H16zM17,5H18V6H17zM20,5H21V6H20zM22,5H23V6H22zM23,5H24V6H23zM24,5H25V6H24zM27,5H28V6H27zM31,5H32V6H31zM32,5H33V6H32zM34,5H35V6H34zM40,5H41V6H40zM4,6H5V7H4zM6,6H7V7H6zM7,6H8V7H7zM8,6H9V7H8zM10,6H11V7H10zM13,6H14V7H13zM14,6H15V7H14zM18,6H19V7H18zM20,6H21V7H20zM24,6H25V7H24zM27,6H28V7H27zM30,6H31V7H30zM31,6H32V7H31zM32,6H33V7H32zM34,6H35V7H34zM36,6H37V7H36zM37,6H38V7H37zM38,6H39V7H38zM40,6H41V7H40zM4,7H5V8H4zM6,7H7V8H6zM7,7H8V8H7zM8,7H9V8H8zM10,7H11V8H10zM14,7H15V8H14zM17,7H18V8H17zM18,7H19V8H18zM22,7H23V8H22zM26,7H27V8H26zM30,7H31V8H30zM31,7H32V8H31zM32,7H33V8H32zM34,7H35V8H34zM36,7H37V8H36zM37,7H38V8H37zM38,7H39V8H38zM40,7H41V8H40zM4,8H5V9H4zM6,8H7V9H6zM7,8H8V9H7zM8,8H9V9H8zM10,8H11V9H10zM12,8H13V9H12zM14,8H15V9H14zM15,8H16V9H15zM17,8H18V9H17zM18,8H19V9H18zM21,8H22V9H21zM22,8H23V9H22zM23,8H24V9H23zM24,8H25V9H24zM25,8H26V9H25zM26,8H27V9H26zM27,8H28V9H27zM29,8H30V9H29zM30,8H31V9H30zM31,8H32V9H31zM34,8H35V9H34zM36,8H37V9H36zM37,8H38V9H37zM38,8H39V9H38zM40,8H41V9H40zM4,9H5V10H4zM10,9H11V10H10zM13,9H14V10H13zM14,9H15V10H14zM16,9H17V10H16zM19,9H20V10H19zM20,9H21V10H20zM21,9H22V10H21zM22,9H23V10H22zM23,9H24V10H23zM24,9H25V10H24zM26,9H27V10H26zM27,9H28V10H27zM30,9H31V10H30zM31,9H32V10H31zM32,9H33V10H32zM34,9H35V10H34zM40,9H41V10H40zM4,10H5V11H4zM5,10H6V11H5zM6,10H7V11H6zM7,10H8V11H7zM8,10H9V11H8zM9,10H10V11H9zM10,10H11V11H10zM12,10H13V11H12zM14,10H15V11H14zM16,10H17V11H16zM18,10H19V11H18zM20,10H21V11H20zM22,10H23V11H22zM24,10H25V11H24zM26,10H27V11H26zM28,10H29V11H28zM30,10H31V11H30zM32,10H33V11H32zM34,10H35V11H34zM35,10H36V11H35zM36,10H37V11H36zM37,10H38V11H37zM38,10H39V11H38zM39,10H40V11H39zM40,10H41V11H40zM14,11H15V12H14zM15,11H16V12H15zM16,11H17V12H16zM17,11H18V12H17zM18,11H19V12H18zM21,11H22V12H21zM22,11H23V12H22zM25,11H26V12H25zM26,11H27V12H26zM28,11H29V12H28zM29,11H30V12H29zM30,11H31V12H30zM31,11H32V12H31zM32,11H33V12H32zM4,12H5V13H4zM6,12H7V13H6zM8,12H9V13H8zM10,12H11V13H10zM13,12H14V13H13zM15,12H16V13H15zM16,12H17V13H16zM17,12H18V13H17zM18,12H19V13H18zM21,12H22V13H21zM22,12H23V13H22zM24,12H25V13H24zM25,12H26V13H25zM27,12H28V13H27zM28,12H29V13H28zM29,12H30V13H29zM36,12H37V13H36zM39,12H40V13H39zM4,13H5V14H4zM6,13H7V14H6zM8,13H9V14H8zM9,13H10V14H9zM14,13H15V14H14zM15,13H16V14H15zM16,13H17V14H16zM17,13H18V14H17zM19,13H20V14H19zM21,13H22V14H21zM24,13H25V14H24zM26,13H27V14H26zM28,13H29V14H28zM32,13H33V14H32zM33,13H34V14H33zM34,13H35V14H34zM37,13H38V14H37zM40,13H41V14H40zM4,14H5V15H4zM7,14H8V15H7zM8,14H9V15H8zM9,14H10V15H9zM10,14H11V15H10zM11,14H12V15H11zM12,14H13V15H12zM13,14H14V15H13zM18,14H19V15H18zM21,14H22V15H21zM22,14H23V15H22zM24,14H25V15H24zM25,14H26V15H25zM30,14H31V15H30zM33,14H34V15H33zM34,14H35V15H34zM35,14H36V15H35zM37,14H38V15H37zM38,14H39V15H38zM39,14H40V15H39zM40,14H41V15H40zM4,15H5V16H4zM8,15H9V16H8zM14,15H15V16H14zM16,15H17V16H16zM17,15H18V16H17zM19,15H20V16H19zM21,15H22V16H21zM24,15H25V16H24zM25,15H26V16H25zM27,15H28V16H27zM29,15H30V16H29zM30,15H31V16H30zM31,15H32V16H31zM32,15H33V16H32zM34,15H35V16H34zM37,15H38V16H37zM39,15H40V16H39zM9,16H10V17H9zM10,16H11V17H10zM13,16H14V17H13zM15,16H16V17H15zM16,16H17V17H16zM17,16H18V17H17zM21,16H22V17H21zM23,16H24V17H23zM24,16H25V17H24zM25,16H26V17H25zM26,16H27V17H26zM27,16H28V17H27zM28,16H29V17H28zM29,16H30V17H29zM31,16H32V17H31zM33,16H34V17H33zM34,16H35V17H34zM35,16H36V17H35zM39,16H40V17H39zM40,16H41V17H40zM4,17H5V18H4zM6,17H7V18H6zM7,17H8V18H7zM8,17H9V18H8zM9,17H10V18H9zM12,17H13V18H12zM13,17H14V18H13zM14,17H15V18H14zM16,17H17V18H16zM17,17H18V18H17zM18,17H19V18H18zM24,17H25V18H24zM25,17H26V18H25zM29,17H30V18H29zM32,17H33V18H32zM34,17H35V18H34zM40,17H41V18H40zM6,18H7V19H6zM8,18H9V19H8zM10,18H11V19H10zM12,18H13V19H12zM14,18H15V19H14zM16,18H17V19H16zM21,18H22V19H21zM25,18H26V19H25zM26,18H27V19H26zM29,18H30V19H29zM30,18H31V19H30zM32,18H33V19H32zM33,18H34V19H33zM35,18H36V19H35zM38,18H39V19H38zM40,18H41V19H40zM5,19H6V20H5zM6,19H7V20H6zM8,19H9V20H8zM13,19H14V20H13zM15,19H16V20H15zM16,19H17V20H16zM18,19H19V20H18zM19,19H20V20H19zM21,19H22V20H21zM23,19H24V20H23zM25,19H26V20H25zM27,19H28V20H27zM28,19H29V20H28zM29,19H30V20H29zM31,19H32V20H31zM32,19H33V20H32zM34,19H35V20H34zM36,19H37V20H36zM40,19H41V20H40zM7,20H8V21H7zM10,20H11V21H10zM11,20H12V21H11zM12,20H13V21H12zM14,20H15V21H14zM16,20H17V21H16zM19,20H20V21H19zM20,20H21V21H20zM21,20H22V21H21zM23,20H24V21H23zM24,20H25V21H24zM25,20H26V21H25zM27,20H28V21H27zM28,20H29V21H28zM29,20H30V21H29zM32,20H33V21H32zM33,20H34V21H33zM34,20H35V21H34zM37,20H38V21H37zM39,20H40V21H39zM4,21H5V22H4zM8,21H9V22H8zM9,21H10V22H9zM11,21H12V22H11zM13,21H14V22H13zM14,21H15V22H14zM15,21H16V22H15zM16,21H17V22H16zM18,21H19V22H18zM19,21H20V22H19zM20,21H21V22H20zM24,21H25V22H24zM28,21H29V22H28zM30,21H31V22H30zM32,21H33V22H32zM34,21H35V22H34zM38,21H39V22H38zM40,21H41V22H40zM4,22H5V23H4zM5,22H6V23H5zM6,22H7V23H6zM8,22H9V23H8zM10,22H11V23H10zM12,22H13V23H12zM17,22H18V23H17zM19,22H20V23H19zM20,22H21V23H20zM21,22H22V23H21zM25,22H26V23H25zM29,22H30V23H29zM32,22H33V23H32zM33,22H34V23H33zM34,22H35V23H34zM36,22H37V23H36zM39,22H40V23H39zM40,22H41V23H40zM6,23H7V24H6zM7,23H8V24H7zM12,23H13V24H12zM13,23H14V24H13zM14,23H15V24H14zM15,23H16V24H15zM16,23H17V24H16zM17,23H18V24H17zM20,23H21V24H20zM21,23H22V24H21zM22,23H23V24H22zM23,23H24V24H23zM25,23H26V24H25zM26,23H27V24H26zM28,23H29V24H28zM29,23H30V24H29zM31,23H32V24H31zM34,23H35V24H34zM36,23H37V24H36zM37,23H38V24H37zM39,23H40V24H39zM4,24H5V25H4zM8,24H9V25H8zM9,24H10V25H9zM10,24H11V25H10zM12,24H13V25H12zM15,24H16V25H15zM17,24H18V25H17zM19,24H20V25H19zM21,24H22V25H21zM24,24H25V25H24zM25,24H26V25H25zM27,24H28V25H27zM28,24H29V25H28zM29,24H30V25H29zM31,24H32V25H31zM33,24H34V25H33zM34,24H35V25H34zM37,24H38V25H37zM4,25H5V26H4zM5,25H6V26H5zM6,25H7V26H6zM7,25H8V26H7zM13,25H14V26H13zM14,25H15V26H14zM16,25H17V26H16zM18,25H19V26H18zM24,25H25V26H24zM25,25H26V26H25zM26,25H27V26H26zM28,25H29V26H28zM29,25H30V26H29zM32,25H33V26H32zM34,25H35V26H34zM35,25H36V26H35zM37,25H38V26H37zM39,25H40V26H39zM40,25H41V26H40zM5,26H6V27H5zM6,26H7V27H6zM7,26H8V27H7zM9,26H10V27H9zM10,26H11V27H10zM12,26H13V27H12zM14,26H15V27H14zM15,26H16V27H15zM17,26H18V27H17zM20,26H21V27H20zM22,26H23V27H22zM24,26H25V27H24zM34,26H35V27H34zM35,26H36V27H35zM38,26H39V27H38zM40,26H41V27H40zM5,27H6V28H5zM8,27H9V28H8zM11,27H12V28H11zM12,27H13V28H12zM15,27H16V28H15zM16,27H17V28H16zM21,27H22V28H21zM23,27H24V28H23zM24,27H25V28H24zM25,27H26V28H25zM28,27H29V28H28zM29,27H30V28H29zM31,27H32V28H31zM33,27H34V28H33zM34,27H35V28H34zM36,27H37V28H36zM39,27H40V28H39zM7,28H8V29H7zM10,28H11V29H10zM12,28H13V29H12zM13,28H14V29H13zM14,28H15V29H14zM16,28H17V29H16zM20,28H21V29H20zM21,28H22V29H21zM24,28H25V29H24zM25,28H26V29H25zM27,28H28V29H27zM29,28H30V29H29zM31,28H32V29H31zM32,28H33V29H32zM33,28H34V29H33zM34,28H35V29H34zM37,28H38V29H37zM39,28H40V29H39zM40,28H41V29H40zM5,29H6V30H5zM6,29H7V30H6zM11,29H12V30H11zM13,29H14V30H13zM16,29H17V30H16zM19,29H20V30H19zM22,29H23V30H22zM24,29H25V30H24zM25,29H26V30H25zM27,29H28V30H27zM28,29H29V30H28zM29,29H30V30H29zM30,29H31V30H30zM32,29H33V30H32zM33,29H34V30H33zM34,29H35V30H34zM37,29H38V30H37zM39,29H40V30H39zM40,29H41V30H40zM4,30H5V31H4zM7,30H8V31H7zM8,30H9V31H8zM10,30H11V31H10zM11,30H12V31H11zM12,30H13V31H12zM13,30H14V31H13zM14,30H15V31H14zM16,30H17V31H16zM17,30H18V31H17zM18,30H19V31H18zM20,30H21V31H20zM21,30H22V31H21zM25,30H26V31H25zM26,30H27V31H26zM29,30H30V31H29zM32,30H33V31H32zM33,30H34V31H33zM34,30H35V31H34zM35,30H36V31H35zM36,30H37V31H36zM38,30H39V31H38zM39,30H40V31H39zM40,30H41V31H40zM5,31H6V32H5zM7,31H8V32H7zM8,31H9V32H8zM18,31H19V32H18zM19,31H20V32H19zM20,31H21V32H20zM21,31H22V32H21zM22,31H23V32H22zM24,31H25V32H24zM25,31H26V32H25zM26,31H27V32H26zM27,31H28V32H27zM28,31H29V32H28zM29,31H30V32H29zM30,31H31V32H30zM31,31H32V32H31zM32,31H33V32H32zM34,31H35V32H34zM35,31H36V32H35zM37,31H38V32H37zM39,31H40V32H39zM40,31H41V32H40zM4,32H5V33H4zM6,32H7V33H6zM7,32H8V33H7zM8,32H9V33H8zM10,32H11V33H10zM12,32H13V33H12zM16,32H17V33H16zM17,32H18V33H17zM18,32H19V33H18zM19,32H20V33H19zM21,32H22V33H21zM23,32H24V33H23zM25,32H26V33H25zM28,32H29V33H28zM29,32H30V33H29zM30,32H31V33H30zM32,32H33V33H32zM33,32H34V33H33zM34,32H35V33H34zM35,32H36V33H35zM36,32H37V33H36zM40,32H41V33H40zM12,33H13V34H12zM14,33H15V34H14zM16,33H17V34H16zM17,33H18V34H17zM21,33H22V34H21zM24,33H25V34H24zM25,33H26V34H25zM26,33H27V34H26zM28,33H29V34H28zM29,33H30V34H29zM31,33H32V34H31zM32,33H33V34H32zM36,33H37V34H36zM37,33H38V34H37zM40,33H41V34H40zM4,34H5V35H4zM5,34H6V35H5zM6,34H7V35H6zM7,34H8V35H7zM8,34H9V35H8zM9,34H10V35H9zM10,34H11V35H10zM16,34H17V35H16zM17,34H18V35H17zM18,34H19V35H18zM29,34H30V35H29zM30,34H31V35H30zM31,34H32V35H31zM32,34H33V35H32zM34,34H35V35H34zM36,34H37V35H36zM37,34H38V35H37zM40,34H41V35H40zM4,35H5V36H4zM10,35H11V36H10zM13,35H14V36H13zM15,35H16V36H15zM17,35H18V36H17zM20,35H21V36H20zM21,35H22V36H21zM23,35H24V36H23zM25,35H26V36H25zM26,35H27V36H26zM29,35H30V36H29zM32,35H33V36H32zM36,35H37V36H36zM37,35H38V36H37zM4,36H5V37H4zM6,36H7V37H6zM7,36H8V37H7zM8,36H9V37H8zM10,36H11V37H10zM12,36H13V37H12zM16,36H17V37H16zM17,36H18V37H17zM18,36H19V37H18zM19,36H20V37H19zM20,36H21V37H20zM21,36H22V37H21zM24,36H25V37H24zM25,36H26V37H25zM28,36H29V37H28zM29,36H30V37H29zM32,36H33V37H32zM33,36H34V37H33zM34,36H35V37H34zM35,36H36V37H35zM36,36H37V37H36zM37,36H38V37H37zM39,36H40V37H39zM40,36H41V37H40zM4,37H5V38H4zM6,37H7V38H6zM7,37H8V38H7zM8,37H9V38H8zM10,37H11V38H10zM16,37H17V38H16zM17,37H18V38H17zM20,37H21V38H20zM25,37H26V38H25zM26,37H27V38H26zM28,37H29V38H28zM31,37H32V38H31zM32,37H33V38H32zM33,37H34V38H33zM35,37H36V38H35zM36,37H37V38H36zM38,37H39V38H38zM4,38H5V39H4zM6,38H7V39H6zM7,38H8V39H7zM8,38H9V39H8zM10,38H11V39H10zM12,38H13V39H12zM14,38H15V39H14zM15,38H16V39H15zM16,38H17V39H16zM17,38H18V39H17zM18,38H19V39H18zM21,38H22V39H21zM22,38H23V39H22zM24,38H25V39H24zM29,38H30V39H29zM31,38H32V39H31zM36,38H37V39H36zM37,38H38V39H37zM39,38H40V39H39zM40,38H41V39H40zM4,39H5V40H4zM10,39H11V40H10zM17,39H18V40H17zM18,39H19V40H18zM19,39H20V40H19zM20,39H21V40H20zM21,39H22V40H21zM22,39H23V40H22zM25,39H26V40H25zM27,39H28V40H27zM28,39H29V40H28zM29,39H30V40H29zM32,39H33V40H32zM33,39H34V40H33zM34,39H35V40H34zM35,39H36V40H35zM36,39H37V40H36zM39,39H40V40H39zM4,40H5V41H4zM5,40H6V41H5zM6,40H7V41H6zM7,40H8V41H7zM8,40H9V41H8zM9,40H10V41H9zM10,40H11V41H10zM12,40H13V41H12zM13,40H14V41H13zM14,40H15V41H14zM16,40H17V41H16zM18,40H19V41H18zM19,40H20V41H19zM20,40H21V41H20zM21,40H22V41H21zM22,40H23V41H22zM24,40H25V41H24zM25,40H26V41H25zM28,40H29V41H28zM29,40H30V41H29zM31,40H32V41H31zM32,40H33V41H32zM33,40H34V41H33zM34,40H35V41H34zM39,40H40V41H39zM40,40H41V41H40z" id="qr-path" fill="#000000" fill-opacity="1" fill-rule="nonzero" stroke="none"/></svg>