<!--?xml version="1.0" encoding="utf-8"?-->
<!-- Generator: Adobe Illustrator 15.1.0, SVG Export Plug-In . SVG Version: 6.00 Build 0)  -->

<svg version="1.1" id="_x32_" xmlns="http://www.w3.org/2000/svg" xmlns:xlink="http://www.w3.org/1999/xlink" x="0px" y="0px" width="512px" height="512px" viewBox="0 0 512 512" style="width: 24px; height: 24px; opacity: 1;" xml:space="preserve">
<style type="text/css">

	.st0{fill:#4B4B4B;}

</style>
<g>
	<polygon class="st0" points="186,144 136.188,72 186,0 117.375,0 67.563,72 117.375,144 	" style="fill: rgb(58, 171, 210);"></polygon>
	<polygon class="st0" points="308.891,144 259.094,72 308.891,0 240.25,0 190.438,72 240.25,144 	" style="fill: rgb(58, 171, 210);"></polygon>
	<path class="st0" d="M13.313,72L63.125,0H40C17.906,0,0,17.906,0,40v104h63.125L13.313,72z" style="fill: rgb(58, 171, 210);"></path>
	<path class="st0" d="M484.516,2.188L436.219,72l49.813,72H512V40C512,22.313,500.438,7.469,484.516,2.188z" style="fill: rgb(58, 171, 210);"></path>
	<polygon class="st0" points="431.781,144 381.969,72 431.781,0 363.156,0 313.344,72 363.156,144 	" style="fill: rgb(58, 171, 210);"></polygon>
	<path class="st0" d="M0,472c0,22.094,17.906,40,40,40h432c22.094,0,40-17.906,40-40V176H0V472z M214.5,347.688v-60.719
		c0-0.875,0.469-1.672,1.188-2.094c0.75-0.422,1.672-0.406,2.406,0.031l101.75,60.734c0.719,0.422,1.156,1.203,1.156,2.047
		s-0.438,1.625-1.156,2.031l-101.75,60.75c-0.734,0.438-1.656,0.453-2.406,0.031c-0.719-0.438-1.188-1.219-1.188-2.094V347.688z" style="fill: rgb(58, 171, 210);"></path>
</g>
</svg>
