<?xml version="1.0" encoding="UTF-8" standalone="no"?>
<svg
xmlns:svg="http://www.w3.org/2000/svg"
xmlns="http://www.w3.org/2000/svg"
xmlns:xlink="http://www.w3.org/1999/xlink"
width ="640"
height ="512"
viewBox ="0 0 640 512"
>
<defs><polygon points="0,0 6,8, 0,16 20,8" id="m_tmpl2"/><marker id="token_arrow"  markerUnits="userSpaceOnUse" markerWidth="20" markerHeight="16" viewBox="0 0 20 16" refX="14" refY="8" orient="auto"><use xlink:href="#m_tmpl2" fill="#60a0ff"/></marker></defs><defs><polygon points="0,0 0,4 0,8 12,4" id="m_tmpl3"/><marker id="link_arrow" markerUnits="strokeWidth" markerWidth="12" markerHeight="8" viewBox="0 0 12 8" refX="12" refY="4" orient="auto"><use xlink:href="#m_tmpl3" fill="#888888"/></marker></defs><rect x ="0" y="0" width="280" height="240" fill="#ffffff" stroke="#888888" stroke-width="1"/><path fill="#0088e0" d="M 292 120 L 292 100 L 312 120 L 292 140 z" /><g transform="translate(0,0)"><g transform="translate(60,40) scale(0.8)"><g fill="#ffffff" stroke="#a0a0a0" stroke-width="1"><rect x="-14" y="-14" width="28" height="28" rx="0" ry="0" /><rect x="14" y="-14" width="28" height="28" rx="0" ry="0" /><rect x="42" y="-14" width="28" height="28" rx="0" ry="0" /><rect x="70" y="-14" width="28" height="28" rx="0" ry="0" /><rect x="98" y="-14" width="28" height="28" rx="0" ry="0" /><rect x="126" y="-14" width="28" height="28" rx="0" ry="0" /><rect x="154" y="-14" width="28" height="28" rx="0" ry="0" /><rect x="182" y="-14" width="28" height="28" rx="0" ry="0" /><rect x="-14" y="14" width="28" height="28" rx="0" ry="0" /><rect x="14" y="14" width="28" height="28" rx="0" ry="0" /><rect x="42" y="14" width="28" height="28" rx="0" ry="0" /><rect x="70" y="14" width="28" height="28" rx="0" ry="0" /><rect x="98" y="14" width="28" height="28" rx="0" ry="0" /><rect x="126" y="14" width="28" height="28" rx="0" ry="0" /><rect x="154" y="14" width="28" height="28" rx="0" ry="0" /><rect x="182" y="14" width="28" height="28" rx="0" ry="0" /><rect x="-14" y="42" width="28" height="28" rx="0" ry="0" /><rect x="14" y="42" width="28" height="28" rx="0" ry="0" /><rect x="42" y="42" width="28" height="28" rx="0" ry="0" /><rect x="70" y="42" width="28" height="28" rx="0" ry="0" /><rect x="98" y="42" width="28" height="28" rx="0" ry="0" /><rect x="126" y="42" width="28" height="28" rx="0" ry="0" /><rect x="154" y="42" width="28" height="28" rx="0" ry="0" /><rect x="182" y="42" width="28" height="28" rx="0" ry="0" /><rect x="-14" y="70" width="28" height="28" rx="0" ry="0" /><rect x="14" y="70" width="28" height="28" rx="0" ry="0" /><rect x="42" y="70" width="28" height="28" rx="0" ry="0" /><rect x="70" y="70" width="28" height="28" rx="0" ry="0" /><rect x="98" y="70" width="28" height="28" rx="0" ry="0" /><rect x="126" y="70" width="28" height="28" rx="0" ry="0" /><rect x="154" y="70" width="28" height="28" rx="0" ry="0" /><rect x="182" y="70" width="28" height="28" rx="0" ry="0" /><rect x="-14" y="98" width="28" height="28" rx="0" ry="0" /><rect x="14" y="98" width="28" height="28" rx="0" ry="0" /><rect x="42" y="98" width="28" height="28" rx="0" ry="0" /><rect x="70" y="98" width="28" height="28" rx="0" ry="0" /><rect x="98" y="98" width="28" height="28" rx="0" ry="0" /><rect x="126" y="98" width="28" height="28" rx="0" ry="0" /><rect x="154" y="98" width="28" height="28" rx="0" ry="0" /><rect x="182" y="98" width="28" height="28" rx="0" ry="0" /><rect x="-14" y="126" width="28" height="28" rx="0" ry="0" /><rect x="14" y="126" width="28" height="28" rx="0" ry="0" /><rect x="42" y="126" width="28" height="28" rx="0" ry="0" /><rect x="70" y="126" width="28" height="28" rx="0" ry="0" /><rect x="98" y="126" width="28" height="28" rx="0" ry="0" /><rect x="126" y="126" width="28" height="28" rx="0" ry="0" /><rect x="154" y="126" width="28" height="28" rx="0" ry="0" /><rect x="182" y="126" width="28" height="28" rx="0" ry="0" /><rect x="-14" y="154" width="28" height="28" rx="0" ry="0" /><rect x="14" y="154" width="28" height="28" rx="0" ry="0" /><rect x="42" y="154" width="28" height="28" rx="0" ry="0" /><rect x="70" y="154" width="28" height="28" rx="0" ry="0" /><rect x="98" y="154" width="28" height="28" rx="0" ry="0" /><rect x="126" y="154" width="28" height="28" rx="0" ry="0" /><rect x="154" y="154" width="28" height="28" rx="0" ry="0" /><rect x="182" y="154" width="28" height="28" rx="0" ry="0" /></g><g font-size="9" font-family="Verdana" fill="#888888"><text id="" x="0" y="-25" dominant-baseline="central" text-anchor="middle">0</text><text id="" x="28" y="-25" dominant-baseline="central" text-anchor="middle">1</text><text id="" x="56" y="-25" dominant-baseline="central" text-anchor="middle">2</text><text id="" x="84" y="-25" dominant-baseline="central" text-anchor="middle">3</text><text id="" x="112" y="-25" dominant-baseline="central" text-anchor="middle">4</text><text id="" x="140" y="-25" dominant-baseline="central" text-anchor="middle">5</text><text id="" x="168" y="-25" dominant-baseline="central" text-anchor="middle">6</text><text id="" x="196" y="-25" dominant-baseline="central" text-anchor="middle">7</text><text id="" x="-25" y="0" dominant-baseline="end" text-anchor="middle">0</text><text id="" x="-25" y="28" dominant-baseline="end" text-anchor="middle">1</text><text id="" x="-25" y="56" dominant-baseline="end" text-anchor="middle">2</text><text id="" x="-25" y="84" dominant-baseline="end" text-anchor="middle">3</text><text id="" x="-25" y="112" dominant-baseline="end" text-anchor="middle">4</text><text id="" x="-25" y="140" dominant-baseline="end" text-anchor="middle">5</text><text id="" x="-25" y="168" dominant-baseline="end" text-anchor="middle">6</text></g></g><g transform="translate(60,40) scale(0.8)"><g class="flash_g" fill="#ff8c00" stroke="#ff8c00" stroke-width="1"><rect x="14" y="14" width="28" height="28" rx="0" ry="0" /></g><g fill="none" stroke="#a0a0a0" stroke-width="1"><rect x="14" y="14" width="28" height="28" rx="0" ry="0" /></g></g><g transform="translate(60,40) scale(0.8)"><g class="flash_g" fill="#ffd700" stroke="#ffd700" stroke-width="1"><rect x="14" y="98" width="28" height="28" rx="0" ry="0" /></g><g fill="none" stroke="#a0a0a0" stroke-width="1"><rect x="14" y="98" width="28" height="28" rx="0" ry="0" /></g></g><g transform="translate(60,40) scale(0.8)"><g class="flash_g" fill="#ffd700" stroke="#ffd700" stroke-width="1"><rect x="126" y="14" width="28" height="28" rx="0" ry="0" /></g><g fill="none" stroke="#a0a0a0" stroke-width="1"><rect x="126" y="14" width="28" height="28" rx="0" ry="0" /></g></g><g transform="translate(60,40) scale(0.8)"><g class="flash_g" fill="#ff8c00" stroke="#ff8c00" stroke-width="1"><rect x="126" y="98" width="28" height="28" rx="0" ry="0" /></g><g fill="none" stroke="#a0a0a0" stroke-width="1"><rect x="126" y="98" width="28" height="28" rx="0" ry="0" /></g></g><g transform="translate(60,40) scale(0.8)"><g stroke-width="0"><circle cx="28" cy="28" r="10" fill="#74B4FF" id="var_A_1__9" /><circle cx="140" cy="28" r="10" fill="#ffaaff" id="var_A_1__13" /><circle cx="28" cy="112" r="10" fill="#ffaaff" id="var_A_1__33" /><circle cx="140" cy="112" r="10" fill="#74B4FF" id="var_A_1__37" /></g><g font-size="14" font-family="sans-serif" fill="#ffffff"><text id="text_A_1__9" x="28" y="28" dominant-baseline="central" text-anchor="middle">1</text><text id="text_A_1__13" x="140" y="28" dominant-baseline="central" text-anchor="middle">-1</text><text id="text_A_1__33" x="28" y="112" dominant-baseline="central" text-anchor="middle">-1</text><text id="text_A_1__37" x="140" y="112" dominant-baseline="central" text-anchor="middle">1</text></g></g><g transform="translate(60,40) scale(0.8)"><g fill="none" stroke="#6080ff" stroke-width="2"><rect x="14" y="14" width="112" height="84" /></g></g></g><text x="16" y="20" font-size="16" text-anchor="middle" fill="#888888" font-family="sans-serif" >1-1</text><text x="140" y="224" font-size="9" text-anchor="middle" font-family="SimSun, 宋体, serif">添加左上角坐标为 (1, 1)，右下角坐标为 (5, 4) 的矩形</text><rect x ="320" y="0" width="280" height="240" fill="#ffffff" stroke="#888888" stroke-width="1"/><path fill="#0088e0" d="M 612 120 L 612 100 L 632 120 L 612 140 z" /><g transform="translate(320,0)"><g transform="translate(60,40) scale(0.8)"><g fill="#ffffff" stroke="#a0a0a0" stroke-width="1"><rect x="-14" y="-14" width="28" height="28" rx="0" ry="0" /><rect x="14" y="-14" width="28" height="28" rx="0" ry="0" /><rect x="42" y="-14" width="28" height="28" rx="0" ry="0" /><rect x="70" y="-14" width="28" height="28" rx="0" ry="0" /><rect x="98" y="-14" width="28" height="28" rx="0" ry="0" /><rect x="126" y="-14" width="28" height="28" rx="0" ry="0" /><rect x="154" y="-14" width="28" height="28" rx="0" ry="0" /><rect x="182" y="-14" width="28" height="28" rx="0" ry="0" /><rect x="-14" y="14" width="28" height="28" rx="0" ry="0" /><rect x="14" y="14" width="28" height="28" rx="0" ry="0" /><rect x="42" y="14" width="28" height="28" rx="0" ry="0" /><rect x="70" y="14" width="28" height="28" rx="0" ry="0" /><rect x="98" y="14" width="28" height="28" rx="0" ry="0" /><rect x="126" y="14" width="28" height="28" rx="0" ry="0" /><rect x="154" y="14" width="28" height="28" rx="0" ry="0" /><rect x="182" y="14" width="28" height="28" rx="0" ry="0" /><rect x="-14" y="42" width="28" height="28" rx="0" ry="0" /><rect x="14" y="42" width="28" height="28" rx="0" ry="0" /><rect x="42" y="42" width="28" height="28" rx="0" ry="0" /><rect x="70" y="42" width="28" height="28" rx="0" ry="0" /><rect x="98" y="42" width="28" height="28" rx="0" ry="0" /><rect x="126" y="42" width="28" height="28" rx="0" ry="0" /><rect x="154" y="42" width="28" height="28" rx="0" ry="0" /><rect x="182" y="42" width="28" height="28" rx="0" ry="0" /><rect x="-14" y="70" width="28" height="28" rx="0" ry="0" /><rect x="14" y="70" width="28" height="28" rx="0" ry="0" /><rect x="42" y="70" width="28" height="28" rx="0" ry="0" /><rect x="70" y="70" width="28" height="28" rx="0" ry="0" /><rect x="98" y="70" width="28" height="28" rx="0" ry="0" /><rect x="126" y="70" width="28" height="28" rx="0" ry="0" /><rect x="154" y="70" width="28" height="28" rx="0" ry="0" /><rect x="182" y="70" width="28" height="28" rx="0" ry="0" /><rect x="-14" y="98" width="28" height="28" rx="0" ry="0" /><rect x="14" y="98" width="28" height="28" rx="0" ry="0" /><rect x="42" y="98" width="28" height="28" rx="0" ry="0" /><rect x="70" y="98" width="28" height="28" rx="0" ry="0" /><rect x="98" y="98" width="28" height="28" rx="0" ry="0" /><rect x="126" y="98" width="28" height="28" rx="0" ry="0" /><rect x="154" y="98" width="28" height="28" rx="0" ry="0" /><rect x="182" y="98" width="28" height="28" rx="0" ry="0" /><rect x="-14" y="126" width="28" height="28" rx="0" ry="0" /><rect x="14" y="126" width="28" height="28" rx="0" ry="0" /><rect x="42" y="126" width="28" height="28" rx="0" ry="0" /><rect x="70" y="126" width="28" height="28" rx="0" ry="0" /><rect x="98" y="126" width="28" height="28" rx="0" ry="0" /><rect x="126" y="126" width="28" height="28" rx="0" ry="0" /><rect x="154" y="126" width="28" height="28" rx="0" ry="0" /><rect x="182" y="126" width="28" height="28" rx="0" ry="0" /><rect x="-14" y="154" width="28" height="28" rx="0" ry="0" /><rect x="14" y="154" width="28" height="28" rx="0" ry="0" /><rect x="42" y="154" width="28" height="28" rx="0" ry="0" /><rect x="70" y="154" width="28" height="28" rx="0" ry="0" /><rect x="98" y="154" width="28" height="28" rx="0" ry="0" /><rect x="126" y="154" width="28" height="28" rx="0" ry="0" /><rect x="154" y="154" width="28" height="28" rx="0" ry="0" /><rect x="182" y="154" width="28" height="28" rx="0" ry="0" /></g><g font-size="9" font-family="Verdana" fill="#888888"><text id="" x="0" y="-25" dominant-baseline="central" text-anchor="middle">0</text><text id="" x="28" y="-25" dominant-baseline="central" text-anchor="middle">1</text><text id="" x="56" y="-25" dominant-baseline="central" text-anchor="middle">2</text><text id="" x="84" y="-25" dominant-baseline="central" text-anchor="middle">3</text><text id="" x="112" y="-25" dominant-baseline="central" text-anchor="middle">4</text><text id="" x="140" y="-25" dominant-baseline="central" text-anchor="middle">5</text><text id="" x="168" y="-25" dominant-baseline="central" text-anchor="middle">6</text><text id="" x="196" y="-25" dominant-baseline="central" text-anchor="middle">7</text><text id="" x="-25" y="0" dominant-baseline="end" text-anchor="middle">0</text><text id="" x="-25" y="28" dominant-baseline="end" text-anchor="middle">1</text><text id="" x="-25" y="56" dominant-baseline="end" text-anchor="middle">2</text><text id="" x="-25" y="84" dominant-baseline="end" text-anchor="middle">3</text><text id="" x="-25" y="112" dominant-baseline="end" text-anchor="middle">4</text><text id="" x="-25" y="140" dominant-baseline="end" text-anchor="middle">5</text><text id="" x="-25" y="168" dominant-baseline="end" text-anchor="middle">6</text></g></g><g transform="translate(60,40) scale(0.8)"><g class="flash_g" fill="#ff8c00" stroke="#ff8c00" stroke-width="1"><rect x="70" y="42" width="28" height="28" rx="0" ry="0" /></g><g fill="none" stroke="#a0a0a0" stroke-width="1"><rect x="70" y="42" width="28" height="28" rx="0" ry="0" /></g></g><g transform="translate(60,40) scale(0.8)"><g class="flash_g" fill="#ffd700" stroke="#ffd700" stroke-width="1"><rect x="70" y="154" width="28" height="28" rx="0" ry="0" /></g><g fill="none" stroke="#a0a0a0" stroke-width="1"><rect x="70" y="154" width="28" height="28" rx="0" ry="0" /></g></g><g transform="translate(60,40) scale(0.8)"><g class="flash_g" fill="#ffd700" stroke="#ffd700" stroke-width="1"><rect x="182" y="42" width="28" height="28" rx="0" ry="0" /></g><g fill="none" stroke="#a0a0a0" stroke-width="1"><rect x="182" y="42" width="28" height="28" rx="0" ry="0" /></g></g><g transform="translate(60,40) scale(0.8)"><g class="flash_g" fill="#ff8c00" stroke="#ff8c00" stroke-width="1"><rect x="182" y="154" width="28" height="28" rx="0" ry="0" /></g><g fill="none" stroke="#a0a0a0" stroke-width="1"><rect x="182" y="154" width="28" height="28" rx="0" ry="0" /></g></g><g transform="translate(60,40) scale(0.8)"><g stroke-width="0"><circle cx="28" cy="28" r="10" fill="#74B4FF" id="var_A_2__9" /><circle cx="140" cy="28" r="10" fill="#ffaaff" id="var_A_2__13" /><circle cx="84" cy="56" r="10" fill="#74B4FF" id="var_A_2__19" /><circle cx="196" cy="56" r="10" fill="#ffaaff" id="var_A_2__23" /><circle cx="28" cy="112" r="10" fill="#ffaaff" id="var_A_2__33" /><circle cx="140" cy="112" r="10" fill="#74B4FF" id="var_A_2__37" /><circle cx="84" cy="168" r="10" fill="#ffaaff" id="var_A_2__51" /><circle cx="196" cy="168" r="10" fill="#74B4FF" id="var_A_2__55" /></g><g font-size="14" font-family="sans-serif" fill="#ffffff"><text id="text_A_2__9" x="28" y="28" dominant-baseline="central" text-anchor="middle">1</text><text id="text_A_2__13" x="140" y="28" dominant-baseline="central" text-anchor="middle">-1</text><text id="text_A_2__19" x="84" y="56" dominant-baseline="central" text-anchor="middle">1</text><text id="text_A_2__23" x="196" y="56" dominant-baseline="central" text-anchor="middle">-1</text><text id="text_A_2__33" x="28" y="112" dominant-baseline="central" text-anchor="middle">-1</text><text id="text_A_2__37" x="140" y="112" dominant-baseline="central" text-anchor="middle">1</text><text id="text_A_2__51" x="84" y="168" dominant-baseline="central" text-anchor="middle">-1</text><text id="text_A_2__55" x="196" y="168" dominant-baseline="central" text-anchor="middle">1</text></g></g><g transform="translate(60,40) scale(0.8)"><g fill="none" stroke="#6080ff" stroke-width="2"><rect x="14" y="14" width="112" height="84" /><rect x="70" y="42" width="112" height="112" /></g></g></g><text x="336" y="20" font-size="16" text-anchor="middle" fill="#888888" font-family="sans-serif" >1-2</text><text x="460" y="224" font-size="9" text-anchor="middle" font-family="SimSun, 宋体, serif">添加左上角坐标为 (3, 2)，右下角坐标为 (7, 6) 的矩形</text><rect x ="0" y="256" width="280" height="240" fill="#ffffff" stroke="#888888" stroke-width="1"/><g transform="translate(0,256)"><g transform="translate(60,40) scale(0.8)"><g fill="#ffffff" stroke="#a0a0a0" stroke-width="1"><rect x="-14" y="-14" width="28" height="28" rx="0" ry="0" /><rect x="14" y="-14" width="28" height="28" rx="0" ry="0" /><rect x="42" y="-14" width="28" height="28" rx="0" ry="0" /><rect x="70" y="-14" width="28" height="28" rx="0" ry="0" /><rect x="98" y="-14" width="28" height="28" rx="0" ry="0" /><rect x="126" y="-14" width="28" height="28" rx="0" ry="0" /><rect x="154" y="-14" width="28" height="28" rx="0" ry="0" /><rect x="182" y="-14" width="28" height="28" rx="0" ry="0" /><rect x="-14" y="14" width="28" height="28" rx="0" ry="0" /><rect x="14" y="14" width="28" height="28" rx="0" ry="0" /><rect x="42" y="14" width="28" height="28" rx="0" ry="0" /><rect x="70" y="14" width="28" height="28" rx="0" ry="0" /><rect x="98" y="14" width="28" height="28" rx="0" ry="0" /><rect x="126" y="14" width="28" height="28" rx="0" ry="0" /><rect x="154" y="14" width="28" height="28" rx="0" ry="0" /><rect x="182" y="14" width="28" height="28" rx="0" ry="0" /><rect x="-14" y="42" width="28" height="28" rx="0" ry="0" /><rect x="14" y="42" width="28" height="28" rx="0" ry="0" /><rect x="42" y="42" width="28" height="28" rx="0" ry="0" /><rect x="70" y="42" width="28" height="28" rx="0" ry="0" /><rect x="98" y="42" width="28" height="28" rx="0" ry="0" /><rect x="126" y="42" width="28" height="28" rx="0" ry="0" /><rect x="154" y="42" width="28" height="28" rx="0" ry="0" /><rect x="182" y="42" width="28" height="28" rx="0" ry="0" /><rect x="-14" y="70" width="28" height="28" rx="0" ry="0" /><rect x="14" y="70" width="28" height="28" rx="0" ry="0" /><rect x="42" y="70" width="28" height="28" rx="0" ry="0" /><rect x="70" y="70" width="28" height="28" rx="0" ry="0" /><rect x="98" y="70" width="28" height="28" rx="0" ry="0" /><rect x="126" y="70" width="28" height="28" rx="0" ry="0" /><rect x="154" y="70" width="28" height="28" rx="0" ry="0" /><rect x="182" y="70" width="28" height="28" rx="0" ry="0" /><rect x="-14" y="98" width="28" height="28" rx="0" ry="0" /><rect x="14" y="98" width="28" height="28" rx="0" ry="0" /><rect x="42" y="98" width="28" height="28" rx="0" ry="0" /><rect x="70" y="98" width="28" height="28" rx="0" ry="0" /><rect x="98" y="98" width="28" height="28" rx="0" ry="0" /><rect x="126" y="98" width="28" height="28" rx="0" ry="0" /><rect x="154" y="98" width="28" height="28" rx="0" ry="0" /><rect x="182" y="98" width="28" height="28" rx="0" ry="0" /><rect x="-14" y="126" width="28" height="28" rx="0" ry="0" /><rect x="14" y="126" width="28" height="28" rx="0" ry="0" /><rect x="42" y="126" width="28" height="28" rx="0" ry="0" /><rect x="70" y="126" width="28" height="28" rx="0" ry="0" /><rect x="98" y="126" width="28" height="28" rx="0" ry="0" /><rect x="126" y="126" width="28" height="28" rx="0" ry="0" /><rect x="154" y="126" width="28" height="28" rx="0" ry="0" /><rect x="182" y="126" width="28" height="28" rx="0" ry="0" /><rect x="-14" y="154" width="28" height="28" rx="0" ry="0" /><rect x="14" y="154" width="28" height="28" rx="0" ry="0" /><rect x="42" y="154" width="28" height="28" rx="0" ry="0" /><rect x="70" y="154" width="28" height="28" rx="0" ry="0" /><rect x="98" y="154" width="28" height="28" rx="0" ry="0" /><rect x="126" y="154" width="28" height="28" rx="0" ry="0" /><rect x="154" y="154" width="28" height="28" rx="0" ry="0" /><rect x="182" y="154" width="28" height="28" rx="0" ry="0" /></g><g font-size="9" font-family="Verdana" fill="#888888"><text id="" x="0" y="-25" dominant-baseline="central" text-anchor="middle">0</text><text id="" x="28" y="-25" dominant-baseline="central" text-anchor="middle">1</text><text id="" x="56" y="-25" dominant-baseline="central" text-anchor="middle">2</text><text id="" x="84" y="-25" dominant-baseline="central" text-anchor="middle">3</text><text id="" x="112" y="-25" dominant-baseline="central" text-anchor="middle">4</text><text id="" x="140" y="-25" dominant-baseline="central" text-anchor="middle">5</text><text id="" x="168" y="-25" dominant-baseline="central" text-anchor="middle">6</text><text id="" x="196" y="-25" dominant-baseline="central" text-anchor="middle">7</text><text id="" x="-25" y="0" dominant-baseline="end" text-anchor="middle">0</text><text id="" x="-25" y="28" dominant-baseline="end" text-anchor="middle">1</text><text id="" x="-25" y="56" dominant-baseline="end" text-anchor="middle">2</text><text id="" x="-25" y="84" dominant-baseline="end" text-anchor="middle">3</text><text id="" x="-25" y="112" dominant-baseline="end" text-anchor="middle">4</text><text id="" x="-25" y="140" dominant-baseline="end" text-anchor="middle">5</text><text id="" x="-25" y="168" dominant-baseline="end" text-anchor="middle">6</text></g></g><g transform="translate(60,40) scale(0.8)"><g class="flash_g" fill="#ff8c00" stroke="#ff8c00" stroke-width="1"><rect x="70" y="70" width="28" height="28" rx="0" ry="0" /></g><g fill="none" stroke="#a0a0a0" stroke-width="1"><rect x="70" y="70" width="28" height="28" rx="0" ry="0" /></g></g><g transform="translate(60,40) scale(0.8)"><g class="flash_g" fill="#ffd700" stroke="#ffd700" stroke-width="1"><rect x="70" y="154" width="28" height="28" rx="0" ry="0" /></g><g fill="none" stroke="#a0a0a0" stroke-width="1"><rect x="70" y="154" width="28" height="28" rx="0" ry="0" /></g></g><g transform="translate(60,40) scale(0.8)"><g class="flash_g" fill="#ffd700" stroke="#ffd700" stroke-width="1"><rect x="154" y="70" width="28" height="28" rx="0" ry="0" /></g><g fill="none" stroke="#a0a0a0" stroke-width="1"><rect x="154" y="70" width="28" height="28" rx="0" ry="0" /></g></g><g transform="translate(60,40) scale(0.8)"><g class="flash_g" fill="#ff8c00" stroke="#ff8c00" stroke-width="1"><rect x="154" y="154" width="28" height="28" rx="0" ry="0" /></g><g fill="none" stroke="#a0a0a0" stroke-width="1"><rect x="154" y="154" width="28" height="28" rx="0" ry="0" /></g></g><g transform="translate(60,40) scale(0.8)"><g stroke-width="0"><circle cx="28" cy="28" r="10" fill="#74B4FF" id="var_A_3__9" /><circle cx="140" cy="28" r="10" fill="#ffaaff" id="var_A_3__13" /><circle cx="84" cy="56" r="10" fill="#74B4FF" id="var_A_3__19" /><circle cx="196" cy="56" r="10" fill="#ffaaff" id="var_A_3__23" /><circle cx="84" cy="84" r="10" fill="#74B4FF" id="var_A_3__27" /><circle cx="168" cy="84" r="10" fill="#ffaaff" id="var_A_3__30" /><circle cx="28" cy="112" r="10" fill="#ffaaff" id="var_A_3__33" /><circle cx="140" cy="112" r="10" fill="#74B4FF" id="var_A_3__37" /><circle cx="84" cy="168" r="10" fill="#ffaaff" id="var_A_3__51" /><circle cx="168" cy="168" r="10" fill="#74B4FF" id="var_A_3__54" /><circle cx="196" cy="168" r="10" fill="#74B4FF" id="var_A_3__55" /></g><g font-size="14" font-family="sans-serif" fill="#ffffff"><text id="text_A_3__9" x="28" y="28" dominant-baseline="central" text-anchor="middle">1</text><text id="text_A_3__13" x="140" y="28" dominant-baseline="central" text-anchor="middle">-1</text><text id="text_A_3__19" x="84" y="56" dominant-baseline="central" text-anchor="middle">1</text><text id="text_A_3__23" x="196" y="56" dominant-baseline="central" text-anchor="middle">-1</text><text id="text_A_3__27" x="84" y="84" dominant-baseline="central" text-anchor="middle">1</text><text id="text_A_3__30" x="168" y="84" dominant-baseline="central" text-anchor="middle">-1</text><text id="text_A_3__33" x="28" y="112" dominant-baseline="central" text-anchor="middle">-1</text><text id="text_A_3__37" x="140" y="112" dominant-baseline="central" text-anchor="middle">1</text><text id="text_A_3__51" x="84" y="168" dominant-baseline="central" text-anchor="middle">-2</text><text id="text_A_3__54" x="168" y="168" dominant-baseline="central" text-anchor="middle">1</text><text id="text_A_3__55" x="196" y="168" dominant-baseline="central" text-anchor="middle">1</text></g></g><g transform="translate(60,40) scale(0.8)"><g fill="none" stroke="#6080ff" stroke-width="2"><rect x="14" y="14" width="112" height="84" /><rect x="70" y="42" width="112" height="112" /><rect x="70" y="70" width="84" height="84" /></g></g></g><text x="16" y="276" font-size="16" text-anchor="middle" fill="#888888" font-family="sans-serif" >1-3</text><text x="140" y="480" font-size="9" text-anchor="middle" font-family="SimSun, 宋体, serif">添加左上角坐标为 (3, 3)，右下角坐标为 (6, 6) 的矩形</text></svg>

