<?xml version="1.0" encoding="UTF-8" standalone="no"?>
<svg
xmlns:svg="http://www.w3.org/2000/svg"
xmlns="http://www.w3.org/2000/svg"
xmlns:xlink="http://www.w3.org/1999/xlink"
width ="640"
height ="648"
viewBox ="0 0 640 648"
>
<defs><polygon points="0,0 6,8, 0,16 20,8" id="m_tmpl2"/><marker id="token_arrow"  markerUnits="userSpaceOnUse" markerWidth="20" markerHeight="16" viewBox="0 0 20 16" refX="14" refY="8" orient="auto"><use xlink:href="#m_tmpl2" fill="#60a0ff"/></marker></defs><defs><polygon points="0,0 0,4 0,8 12,4" id="m_tmpl3"/><marker id="link_arrow" markerUnits="strokeWidth" markerWidth="12" markerHeight="8" viewBox="0 0 12 8" refX="12" refY="4" orient="auto"><use xlink:href="#m_tmpl3" fill="#888888"/></marker></defs><rect x ="0" y="0" width="280" height="200" fill="#ffffff" stroke="#888888" stroke-width="1"/><path fill="#0088e0" d="M 292 100 L 292 80 L 312 100 L 292 120 z" /><g transform="translate(0,0)"><g transform="translate(80,100) scale(1)"><g fill="#ffffff" stroke="#a0a0a0" stroke-width="1"><rect x="-14" y="-14" width="28" height="28" rx="4" ry="4" /></g></g><g transform="translate(140,100) scale(1)"><g fill="#ffffff" stroke="#a0a0a0" stroke-width="1"><rect x="-14" y="-14" width="28" height="28" rx="4" ry="4" /></g></g><g transform="translate(200,100) scale(1)"><g fill="#ffffff" stroke="#a0a0a0" stroke-width="1"><rect x="-14" y="-14" width="28" height="28" rx="4" ry="4" /></g></g><g transform="translate(252,28) scale(1)"><g fill="#ffffff" stroke="#a0a0a0" stroke-width="1"><path d="M -14 0 L 0-14 L 14 0 L 0 14 L -14 0 z" /></g></g><g transform="translate(252,28) scale(1)"><g class="flash_g" fill="#ffffff" stroke="#ff1493" stroke-width="1"  ><path d="M 0 -14 L -14 0 L 0 14 z" fill="#ff1493" stroke-width="0" /></g><g fill="none" stroke="#a0a0a0" stroke-width="1"><path d="M 0 -14 L 14 0 L 0 14 L -14 0 z"  /></g></g><g transform="translate(80,100) scale(1)"><g class="flash_g" fill="#ffffff" stroke="#ff1493" stroke-width="2"><rect x="-14" y="-14" width="28" height="28" rx="4" ry="4" /></g></g><g transform="translate(140,100) scale(1)"><g class="flash_g" fill="#ffffff" stroke="#ff1493" stroke-width="2"><rect x="-14" y="-14" width="28" height="28" rx="4" ry="4" /></g></g><g transform="translate(80,100) scale(1)"><g stroke-width="0"><circle cx="0" cy="0" r="10" fill="#4080F0" id="var_a_3__0" /></g><g font-size="14" font-family="sans-serif" fill="#ffffff"><text id="text_a_3__0" x="0" y="0" dominant-baseline="central" text-anchor="middle">8</text></g><g font-size="14" font-family="sans-serif" fill="#4080f0"><text id="" x="0" y="-28" dominant-baseline="central" text-anchor="middle">a</text></g></g><g transform="translate(140,100) scale(1)"><g stroke-width="0"><circle cx="0" cy="0" r="10" fill="#71B1FF" id="var_b_3__0" /></g><g font-size="14" font-family="sans-serif" fill="#ffffff"><text id="text_b_3__0" x="0" y="0" dominant-baseline="central" text-anchor="middle">3</text></g><g font-size="14" font-family="sans-serif" fill="#4080f0"><text id="" x="0" y="-28" dominant-baseline="central" text-anchor="middle">b</text></g></g><g transform="translate(200,100) scale(1)"><g stroke-width="0"><circle cx="0" cy="0" r="10" fill="#7BBBFF" id="var_c_3__0" /></g><g font-size="14" font-family="sans-serif" fill="#ffffff"><text id="text_c_3__0" x="0" y="0" dominant-baseline="central" text-anchor="middle">2</text></g><g font-size="14" font-family="sans-serif" fill="#4080f0"><text id="" x="0" y="-28" dominant-baseline="central" text-anchor="middle">c</text></g></g></g><text x="16" y="20" font-size="16" text-anchor="middle" fill="#888888" font-family="sans-serif" >2-1</text><text x="140" y="184" font-size="9" text-anchor="middle" font-family="SimSun, 宋体, serif">if a &gt; b:</text><rect x ="320" y="0" width="280" height="200" fill="#ffffff" stroke="#888888" stroke-width="1"/><path fill="#0088e0" d="M 612 100 L 612 80 L 632 100 L 612 120 z" /><g transform="translate(320,0)"><g transform="translate(80,100) scale(1)"><g fill="#ffffff" stroke="#a0a0a0" stroke-width="1"><rect x="-14" y="-14" width="28" height="28" rx="4" ry="4" /></g></g><g transform="translate(140,100) scale(1)"><g fill="#ffffff" stroke="#a0a0a0" stroke-width="1"><rect x="-14" y="-14" width="28" height="28" rx="4" ry="4" /></g></g><g transform="translate(200,100) scale(1)"><g fill="#ffffff" stroke="#a0a0a0" stroke-width="1"><rect x="-14" y="-14" width="28" height="28" rx="4" ry="4" /></g></g><g transform="translate(252,28) scale(1)"><g fill="#ffffff" stroke="#a0a0a0" stroke-width="1"><path d="M -14 0 L 0-14 L 14 0 L 0 14 L -14 0 z" /></g></g><g transform="translate(80,100) scale(1)"><g class="flash_g" fill="#ff1493" stroke="#ff1493" stroke-width="1"><rect x="-14" y="-14" width="28" height="28" rx="4" ry="4" /></g><g fill="none" stroke="#a0a0a0" stroke-width="1"><rect x="-14" y="-14" width="28" height="28" rx="4" ry="4" /></g></g><g transform="translate(140,100) scale(1)"><g class="flash_g" fill="#ff1493" stroke="#ff1493" stroke-width="1"><rect x="-14" y="-14" width="28" height="28" rx="4" ry="4" /></g><g fill="none" stroke="#a0a0a0" stroke-width="1"><rect x="-14" y="-14" width="28" height="28" rx="4" ry="4" /></g></g><g transform="translate(80,100) scale(1)"><g stroke-width="0"><circle cx="0" cy="0" r="10" fill="#71B1FF" id="var_a_4__0" /></g><g font-size="14" font-family="sans-serif" fill="#ffffff"><text id="text_a_4__0" x="0" y="0" dominant-baseline="central" text-anchor="middle">3</text></g><g font-size="14" font-family="sans-serif" fill="#4080f0"><text id="" x="0" y="-28" dominant-baseline="central" text-anchor="middle">a</text></g><animateMotion xlink:href="#var_a_4__0" path="M 60,0 Q 30,-30 0,0" dur="0.9s" repeatCount="1"/><animateMotion xlink:href="#text_a_4__0" path="M 60,0 Q 30,-30 0,0" dur="0.9s" repeatCount="1"/><g fill="none" stroke="#60a0ff" stroke-width="4" stroke-linecap="round" stroke-dasharray="0.1, 8"><path class="for_print" d="M 50.1005 -9.89949 Q 30 -30 9.89949 -9.89949"  marker-end="url(#token_arrow)"/></g></g><g transform="translate(140,100) scale(1)"><g stroke-width="0"><circle cx="0" cy="0" r="10" fill="#4080F0" id="var_b_4__0" /></g><g font-size="14" font-family="sans-serif" fill="#ffffff"><text id="text_b_4__0" x="0" y="0" dominant-baseline="central" text-anchor="middle">8</text></g><g font-size="14" font-family="sans-serif" fill="#4080f0"><text id="" x="0" y="-28" dominant-baseline="central" text-anchor="middle">b</text></g><animateMotion xlink:href="#var_b_4__0" path="M -60,0 Q -30,30 0,0" dur="0.9s" repeatCount="1"/><animateMotion xlink:href="#text_b_4__0" path="M -60,0 Q -30,30 0,0" dur="0.9s" repeatCount="1"/><g fill="none" stroke="#60a0ff" stroke-width="4" stroke-linecap="round" stroke-dasharray="0.1, 8"><path class="for_print" d="M -50.1005 9.89949 Q -30 30 -9.89949 9.89949"  marker-end="url(#token_arrow)"/></g></g><g transform="translate(200,100) scale(1)"><g stroke-width="0"><circle cx="0" cy="0" r="10" fill="#7BBBFF" id="var_c_4__0" /></g><g font-size="14" font-family="sans-serif" fill="#ffffff"><text id="text_c_4__0" x="0" y="0" dominant-baseline="central" text-anchor="middle">2</text></g><g font-size="14" font-family="sans-serif" fill="#4080f0"><text id="" x="0" y="-28" dominant-baseline="central" text-anchor="middle">c</text></g></g></g><text x="336" y="20" font-size="16" text-anchor="middle" fill="#888888" font-family="sans-serif" >2-2</text><text x="460" y="184" font-size="9" text-anchor="middle" font-family="SimSun, 宋体, serif">Yes!    swap(a,  b)</text><rect x ="0" y="216" width="280" height="200" fill="#ffffff" stroke="#888888" stroke-width="1"/><path fill="#0088e0" d="M 292 316 L 292 296 L 312 316 L 292 336 z" /><g transform="translate(0,216)"><g transform="translate(80,100) scale(1)"><g fill="#ffffff" stroke="#a0a0a0" stroke-width="1"><rect x="-14" y="-14" width="28" height="28" rx="4" ry="4" /></g></g><g transform="translate(140,100) scale(1)"><g fill="#ffffff" stroke="#a0a0a0" stroke-width="1"><rect x="-14" y="-14" width="28" height="28" rx="4" ry="4" /></g></g><g transform="translate(200,100) scale(1)"><g fill="#ffffff" stroke="#a0a0a0" stroke-width="1"><rect x="-14" y="-14" width="28" height="28" rx="4" ry="4" /></g></g><g transform="translate(252,28) scale(1)"><g fill="#ffffff" stroke="#a0a0a0" stroke-width="1"><path d="M -14 0 L 0-14 L 14 0 L 0 14 L -14 0 z" /></g></g><g transform="translate(252,28) scale(1)"><g class="flash_g" fill="#ffffff" stroke="#ff1493" stroke-width="1"  ><path d="M 0 -14 L -14 0 L 0 14 z" fill="#ff1493" stroke-width="0" /></g><g fill="none" stroke="#a0a0a0" stroke-width="1"><path d="M 0 -14 L 14 0 L 0 14 L -14 0 z"  /></g></g><g transform="translate(140,100) scale(1)"><g class="flash_g" fill="#ffffff" stroke="#ff1493" stroke-width="2"><rect x="-14" y="-14" width="28" height="28" rx="4" ry="4" /></g></g><g transform="translate(200,100) scale(1)"><g class="flash_g" fill="#ffffff" stroke="#ff1493" stroke-width="2"><rect x="-14" y="-14" width="28" height="28" rx="4" ry="4" /></g></g><g transform="translate(80,100) scale(1)"><g stroke-width="0"><circle cx="0" cy="0" r="10" fill="#71B1FF" id="var_a_5__0" /></g><g font-size="14" font-family="sans-serif" fill="#ffffff"><text id="text_a_5__0" x="0" y="0" dominant-baseline="central" text-anchor="middle">3</text></g><g font-size="14" font-family="sans-serif" fill="#4080f0"><text id="" x="0" y="-28" dominant-baseline="central" text-anchor="middle">a</text></g></g><g transform="translate(140,100) scale(1)"><g stroke-width="0"><circle cx="0" cy="0" r="10" fill="#4080F0" id="var_b_5__0" /></g><g font-size="14" font-family="sans-serif" fill="#ffffff"><text id="text_b_5__0" x="0" y="0" dominant-baseline="central" text-anchor="middle">8</text></g><g font-size="14" font-family="sans-serif" fill="#4080f0"><text id="" x="0" y="-28" dominant-baseline="central" text-anchor="middle">b</text></g></g><g transform="translate(200,100) scale(1)"><g stroke-width="0"><circle cx="0" cy="0" r="10" fill="#7BBBFF" id="var_c_5__0" /></g><g font-size="14" font-family="sans-serif" fill="#ffffff"><text id="text_c_5__0" x="0" y="0" dominant-baseline="central" text-anchor="middle">2</text></g><g font-size="14" font-family="sans-serif" fill="#4080f0"><text id="" x="0" y="-28" dominant-baseline="central" text-anchor="middle">c</text></g></g></g><text x="16" y="236" font-size="16" text-anchor="middle" fill="#888888" font-family="sans-serif" >2-3</text><text x="140" y="400" font-size="9" text-anchor="middle" font-family="SimSun, 宋体, serif">if b &gt; c:</text><rect x ="320" y="216" width="280" height="200" fill="#ffffff" stroke="#888888" stroke-width="1"/><path fill="#0088e0" d="M 612 316 L 612 296 L 632 316 L 612 336 z" /><g transform="translate(320,216)"><g transform="translate(80,100) scale(1)"><g fill="#ffffff" stroke="#a0a0a0" stroke-width="1"><rect x="-14" y="-14" width="28" height="28" rx="4" ry="4" /></g></g><g transform="translate(140,100) scale(1)"><g fill="#ffffff" stroke="#a0a0a0" stroke-width="1"><rect x="-14" y="-14" width="28" height="28" rx="4" ry="4" /></g></g><g transform="translate(200,100) scale(1)"><g fill="#ffffff" stroke="#a0a0a0" stroke-width="1"><rect x="-14" y="-14" width="28" height="28" rx="4" ry="4" /></g></g><g transform="translate(252,28) scale(1)"><g fill="#ffffff" stroke="#a0a0a0" stroke-width="1"><path d="M -14 0 L 0-14 L 14 0 L 0 14 L -14 0 z" /></g></g><g transform="translate(140,100) scale(1)"><g class="flash_g" fill="#ff1493" stroke="#ff1493" stroke-width="1"><rect x="-14" y="-14" width="28" height="28" rx="4" ry="4" /></g><g fill="none" stroke="#a0a0a0" stroke-width="1"><rect x="-14" y="-14" width="28" height="28" rx="4" ry="4" /></g></g><g transform="translate(200,100) scale(1)"><g class="flash_g" fill="#ff1493" stroke="#ff1493" stroke-width="1"><rect x="-14" y="-14" width="28" height="28" rx="4" ry="4" /></g><g fill="none" stroke="#a0a0a0" stroke-width="1"><rect x="-14" y="-14" width="28" height="28" rx="4" ry="4" /></g></g><g transform="translate(80,100) scale(1)"><g stroke-width="0"><circle cx="0" cy="0" r="10" fill="#71B1FF" id="var_a_6__0" /></g><g font-size="14" font-family="sans-serif" fill="#ffffff"><text id="text_a_6__0" x="0" y="0" dominant-baseline="central" text-anchor="middle">3</text></g><g font-size="14" font-family="sans-serif" fill="#4080f0"><text id="" x="0" y="-28" dominant-baseline="central" text-anchor="middle">a</text></g></g><g transform="translate(140,100) scale(1)"><g stroke-width="0"><circle cx="0" cy="0" r="10" fill="#7BBBFF" id="var_b_6__0" /></g><g font-size="14" font-family="sans-serif" fill="#ffffff"><text id="text_b_6__0" x="0" y="0" dominant-baseline="central" text-anchor="middle">2</text></g><g font-size="14" font-family="sans-serif" fill="#4080f0"><text id="" x="0" y="-28" dominant-baseline="central" text-anchor="middle">b</text></g><animateMotion xlink:href="#var_b_6__0" path="M 60,0 Q 30,-30 0,0" dur="0.9s" repeatCount="1"/><animateMotion xlink:href="#text_b_6__0" path="M 60,0 Q 30,-30 0,0" dur="0.9s" repeatCount="1"/><g fill="none" stroke="#60a0ff" stroke-width="4" stroke-linecap="round" stroke-dasharray="0.1, 8"><path class="for_print" d="M 50.1005 -9.89949 Q 30 -30 9.89949 -9.89949"  marker-end="url(#token_arrow)"/></g></g><g transform="translate(200,100) scale(1)"><g stroke-width="0"><circle cx="0" cy="0" r="10" fill="#4080F0" id="var_c_6__0" /></g><g font-size="14" font-family="sans-serif" fill="#ffffff"><text id="text_c_6__0" x="0" y="0" dominant-baseline="central" text-anchor="middle">8</text></g><g font-size="14" font-family="sans-serif" fill="#4080f0"><text id="" x="0" y="-28" dominant-baseline="central" text-anchor="middle">c</text></g><animateMotion xlink:href="#var_c_6__0" path="M -60,0 Q -30,30 0,0" dur="0.9s" repeatCount="1"/><animateMotion xlink:href="#text_c_6__0" path="M -60,0 Q -30,30 0,0" dur="0.9s" repeatCount="1"/><g fill="none" stroke="#60a0ff" stroke-width="4" stroke-linecap="round" stroke-dasharray="0.1, 8"><path class="for_print" d="M -50.1005 9.89949 Q -30 30 -9.89949 9.89949"  marker-end="url(#token_arrow)"/></g></g></g><text x="336" y="236" font-size="16" text-anchor="middle" fill="#888888" font-family="sans-serif" >2-4</text><text x="460" y="400" font-size="9" text-anchor="middle" font-family="SimSun, 宋体, serif">Yes!    swap(b, c)</text><rect x ="0" y="432" width="280" height="200" fill="#ffffff" stroke="#888888" stroke-width="1"/><path fill="#0088e0" d="M 292 532 L 292 512 L 312 532 L 292 552 z" /><g transform="translate(0,432)"><g transform="translate(80,100) scale(1)"><g fill="#ffffff" stroke="#a0a0a0" stroke-width="1"><rect x="-14" y="-14" width="28" height="28" rx="4" ry="4" /></g></g><g transform="translate(140,100) scale(1)"><g fill="#ffffff" stroke="#a0a0a0" stroke-width="1"><rect x="-14" y="-14" width="28" height="28" rx="4" ry="4" /></g></g><g transform="translate(200,100) scale(1)"><g fill="#ffffff" stroke="#a0a0a0" stroke-width="1"><rect x="-14" y="-14" width="28" height="28" rx="4" ry="4" /></g></g><g transform="translate(252,28) scale(1)"><g fill="#ffffff" stroke="#a0a0a0" stroke-width="1"><path d="M -14 0 L 0-14 L 14 0 L 0 14 L -14 0 z" /></g></g><g transform="translate(252,28) scale(1)"><g class="flash_g" fill="#ffffff" stroke="#ff1493" stroke-width="1"  ><path d="M 0 -14 L -14 0 L 0 14 z" fill="#ff1493" stroke-width="0" /></g><g fill="none" stroke="#a0a0a0" stroke-width="1"><path d="M 0 -14 L 14 0 L 0 14 L -14 0 z"  /></g></g><g transform="translate(80,100) scale(1)"><g class="flash_g" fill="#ffffff" stroke="#ff1493" stroke-width="2"><rect x="-14" y="-14" width="28" height="28" rx="4" ry="4" /></g></g><g transform="translate(140,100) scale(1)"><g class="flash_g" fill="#ffffff" stroke="#ff1493" stroke-width="2"><rect x="-14" y="-14" width="28" height="28" rx="4" ry="4" /></g></g><g transform="translate(80,100) scale(1)"><g stroke-width="0"><circle cx="0" cy="0" r="10" fill="#71B1FF" id="var_a_7__0" /></g><g font-size="14" font-family="sans-serif" fill="#ffffff"><text id="text_a_7__0" x="0" y="0" dominant-baseline="central" text-anchor="middle">3</text></g><g font-size="14" font-family="sans-serif" fill="#4080f0"><text id="" x="0" y="-28" dominant-baseline="central" text-anchor="middle">a</text></g></g><g transform="translate(140,100) scale(1)"><g stroke-width="0"><circle cx="0" cy="0" r="10" fill="#7BBBFF" id="var_b_7__0" /></g><g font-size="14" font-family="sans-serif" fill="#ffffff"><text id="text_b_7__0" x="0" y="0" dominant-baseline="central" text-anchor="middle">2</text></g><g font-size="14" font-family="sans-serif" fill="#4080f0"><text id="" x="0" y="-28" dominant-baseline="central" text-anchor="middle">b</text></g></g><g transform="translate(200,100) scale(1)"><g stroke-width="0"><circle cx="0" cy="0" r="10" fill="#4080F0" id="var_c_7__0" /></g><g font-size="14" font-family="sans-serif" fill="#ffffff"><text id="text_c_7__0" x="0" y="0" dominant-baseline="central" text-anchor="middle">8</text></g><g font-size="14" font-family="sans-serif" fill="#4080f0"><text id="" x="0" y="-28" dominant-baseline="central" text-anchor="middle">c</text></g></g></g><text x="16" y="452" font-size="16" text-anchor="middle" fill="#888888" font-family="sans-serif" >2-5</text><text x="140" y="616" font-size="9" text-anchor="middle" font-family="SimSun, 宋体, serif">if a &gt; b:</text><rect x ="320" y="432" width="280" height="200" fill="#ffffff" stroke="#888888" stroke-width="1"/><g transform="translate(320,432)"><g transform="translate(80,100) scale(1)"><g fill="#ffffff" stroke="#a0a0a0" stroke-width="1"><rect x="-14" y="-14" width="28" height="28" rx="4" ry="4" /></g></g><g transform="translate(140,100) scale(1)"><g fill="#ffffff" stroke="#a0a0a0" stroke-width="1"><rect x="-14" y="-14" width="28" height="28" rx="4" ry="4" /></g></g><g transform="translate(200,100) scale(1)"><g fill="#ffffff" stroke="#a0a0a0" stroke-width="1"><rect x="-14" y="-14" width="28" height="28" rx="4" ry="4" /></g></g><g transform="translate(252,28) scale(1)"><g fill="#ffffff" stroke="#a0a0a0" stroke-width="1"><path d="M -14 0 L 0-14 L 14 0 L 0 14 L -14 0 z" /></g></g><g transform="translate(80,100) scale(1)"><g class="flash_g" fill="#ff1493" stroke="#ff1493" stroke-width="1"><rect x="-14" y="-14" width="28" height="28" rx="4" ry="4" /></g><g fill="none" stroke="#a0a0a0" stroke-width="1"><rect x="-14" y="-14" width="28" height="28" rx="4" ry="4" /></g></g><g transform="translate(140,100) scale(1)"><g class="flash_g" fill="#ff1493" stroke="#ff1493" stroke-width="1"><rect x="-14" y="-14" width="28" height="28" rx="4" ry="4" /></g><g fill="none" stroke="#a0a0a0" stroke-width="1"><rect x="-14" y="-14" width="28" height="28" rx="4" ry="4" /></g></g><g transform="translate(80,100) scale(1)"><g stroke-width="0"><circle cx="0" cy="0" r="10" fill="#7BBBFF" id="var_a_8__0" /></g><g font-size="14" font-family="sans-serif" fill="#ffffff"><text id="text_a_8__0" x="0" y="0" dominant-baseline="central" text-anchor="middle">2</text></g><g font-size="14" font-family="sans-serif" fill="#4080f0"><text id="" x="0" y="-28" dominant-baseline="central" text-anchor="middle">a</text></g><animateMotion xlink:href="#var_a_8__0" path="M 60,0 Q 30,-30 0,0" dur="0.9s" repeatCount="1"/><animateMotion xlink:href="#text_a_8__0" path="M 60,0 Q 30,-30 0,0" dur="0.9s" repeatCount="1"/><g fill="none" stroke="#60a0ff" stroke-width="4" stroke-linecap="round" stroke-dasharray="0.1, 8"><path class="for_print" d="M 50.1005 -9.89949 Q 30 -30 9.89949 -9.89949"  marker-end="url(#token_arrow)"/></g></g><g transform="translate(140,100) scale(1)"><g stroke-width="0"><circle cx="0" cy="0" r="10" fill="#71B1FF" id="var_b_8__0" /></g><g font-size="14" font-family="sans-serif" fill="#ffffff"><text id="text_b_8__0" x="0" y="0" dominant-baseline="central" text-anchor="middle">3</text></g><g font-size="14" font-family="sans-serif" fill="#4080f0"><text id="" x="0" y="-28" dominant-baseline="central" text-anchor="middle">b</text></g><animateMotion xlink:href="#var_b_8__0" path="M -60,0 Q -30,30 0,0" dur="0.9s" repeatCount="1"/><animateMotion xlink:href="#text_b_8__0" path="M -60,0 Q -30,30 0,0" dur="0.9s" repeatCount="1"/><g fill="none" stroke="#60a0ff" stroke-width="4" stroke-linecap="round" stroke-dasharray="0.1, 8"><path class="for_print" d="M -50.1005 9.89949 Q -30 30 -9.89949 9.89949"  marker-end="url(#token_arrow)"/></g></g><g transform="translate(200,100) scale(1)"><g stroke-width="0"><circle cx="0" cy="0" r="10" fill="#4080F0" id="var_c_8__0" /></g><g font-size="14" font-family="sans-serif" fill="#ffffff"><text id="text_c_8__0" x="0" y="0" dominant-baseline="central" text-anchor="middle">8</text></g><g font-size="14" font-family="sans-serif" fill="#4080f0"><text id="" x="0" y="-28" dominant-baseline="central" text-anchor="middle">c</text></g></g></g><text x="336" y="452" font-size="16" text-anchor="middle" fill="#888888" font-family="sans-serif" >2-6</text><text x="460" y="616" font-size="9" text-anchor="middle" font-family="SimSun, 宋体, serif">Yes!    swap(a, b)</text></svg>

