<?xml version="1.0" encoding="UTF-8" standalone="no"?>
<!-- Created with Inkscape (http://www.inkscape.org/) -->

<svg
   xmlns:dc="http://purl.org/dc/elements/1.1/"
   xmlns:cc="http://creativecommons.org/ns#"
   xmlns:rdf="http://www.w3.org/1999/02/22-rdf-syntax-ns#"
   xmlns:svg="http://www.w3.org/2000/svg"
   xmlns="http://www.w3.org/2000/svg"
   xmlns:sodipodi="http://sodipodi.sourceforge.net/DTD/sodipodi-0.dtd"
   xmlns:inkscape="http://www.inkscape.org/namespaces/inkscape"
   width="64pt"
   height="64pt"
   viewBox="0 0 22.577778 22.577776"
   version="1.1"
   id="svg8"
   inkscape:version="0.92.4 (5da689c313, 2019-01-14)"
   sodipodi:docname="euclidean_algorithm.svg">
  <defs
     id="defs2" />
  <sodipodi:namedview
     id="base"
     pagecolor="#ffffff"
     bordercolor="#666666"
     borderopacity="1.0"
     inkscape:pageopacity="0.0"
     inkscape:pageshadow="2"
     inkscape:zoom="9.4453125"
     inkscape:cx="30.205955"
     inkscape:cy="40.047383"
     inkscape:document-units="pt"
     inkscape:current-layer="layer1"
     showgrid="true"
     units="pt"
     inkscape:window-width="2170"
     inkscape:window-height="1138"
     inkscape:window-x="108"
     inkscape:window-y="103"
     inkscape:window-maximized="0">
    <inkscape:grid
       type="xygrid"
       id="grid4518" />
  </sodipodi:namedview>
  <metadata
     id="metadata5">
    <rdf:RDF>
      <cc:Work
         rdf:about="">
        <dc:format>image/svg+xml</dc:format>
        <dc:type
           rdf:resource="http://purl.org/dc/dcmitype/StillImage" />
        <dc:title />
      </cc:Work>
    </rdf:RDF>
  </metadata>
  <g
     inkscape:label="Layer 1"
     inkscape:groupmode="layer"
     id="layer1"
     transform="translate(0,-274.42224)"
     style="opacity:0.98">
    <path
       inkscape:connector-curvature="0"
       id="path1130-5-9-5-2-3"
       d="m 1.2279024,280.13979 10.0541586,-5.02708 10.05417,5.02708 v 11.37709 l -10.05417,5.02708 -10.0541586,-5.02708 z"
       style="opacity:0.98000004;fill:#4372c3;fill-opacity:1;stroke:none;stroke-width:0.26458332px;stroke-linecap:butt;stroke-linejoin:miter;stroke-opacity:1" />
    <path
       sodipodi:nodetypes="ccccccc"
       inkscape:connector-curvature="0"
       id="path1132-8-6-2-9-3"
       d="m 11.282061,276.43563 -8.9958287,4.49791 v 9.78959 l 8.9958287,4.49791 8.99583,-4.49791 v -9.78959 z"
       style="opacity:0.98000004;fill:#e1ebff;fill-opacity:1;stroke:none;stroke-width:0.26458332;stroke-linecap:butt;stroke-linejoin:miter;stroke-miterlimit:4;stroke-dasharray:none;stroke-opacity:1" />
    <path
       inkscape:connector-curvature="0"
       id="path1134-3-1-9-4-8"
       d="m 11.282061,276.43563 -8.9958287,4.49791 v 9.78959 l 8.9958287,4.49791 z"
       style="opacity:0.98000004;fill:#fafaff;fill-opacity:1;stroke:none;stroke-width:0.26458332px;stroke-linecap:butt;stroke-linejoin:miter;stroke-opacity:1" />
    <path
       sodipodi:nodetypes="ccccccc"
       inkscape:connector-curvature="0"
       id="path1136-5-6-0-5-8"
       d="m 11.282061,276.43563 -8.9958287,4.49791 v 9.78959 l 8.9958287,4.49791 8.99583,-4.49791 v -9.78959 z"
       style="opacity:0.98000004;fill:none;fill-opacity:1;stroke:#ffffff;stroke-width:0.26458332;stroke-linecap:butt;stroke-linejoin:miter;stroke-miterlimit:4;stroke-dasharray:none;stroke-opacity:1" />
    <rect
       style="opacity:1;fill:#fbfcfe;fill-opacity:0.98039216;fill-rule:nonzero;stroke:none;stroke-width:1.58750463;stroke-linecap:round;stroke-linejoin:round;stroke-miterlimit:4;stroke-dasharray:none;stroke-dashoffset:0;stroke-opacity:1;paint-order:fill markers stroke"
       id="rect10464-0"
       width="7.9375"
       height="7.9375458"
       x="5.6558299"
       y="279.83008" />
    <rect
       style="opacity:1;fill:#ccdcf8;fill-opacity:0.98039216;fill-rule:nonzero;stroke:none;stroke-width:0.63499951;stroke-linecap:round;stroke-linejoin:round;stroke-miterlimit:4;stroke-dasharray:none;stroke-dashoffset:0;stroke-opacity:1;paint-order:fill markers stroke"
       id="rect10464-2-5-0"
       width="3.1750019"
       height="3.1749945"
       x="13.59333"
       y="283.00513" />
    <rect
       style="opacity:1;fill:#94b5e3;fill-opacity:0.98039216;fill-rule:nonzero;stroke:none;stroke-width:0.3175002;stroke-linecap:round;stroke-linejoin:round;stroke-miterlimit:4;stroke-dasharray:none;stroke-dashoffset:0;stroke-opacity:1;paint-order:fill markers stroke"
       id="rect10464-2-5-2-6"
       width="1.587497"
       height="1.5875053"
       x="13.59333"
       y="286.18011" />
    <rect
       style="opacity:1;fill:#ccdcf8;fill-opacity:0.98039216;fill-rule:nonzero;stroke:none;stroke-width:0.63499951;stroke-linecap:round;stroke-linejoin:round;stroke-miterlimit:4;stroke-dasharray:none;stroke-dashoffset:0;stroke-opacity:1;paint-order:fill markers stroke"
       id="rect10464-2-5-0-5"
       width="3.1750019"
       height="3.1749945"
       x="13.59333"
       y="279.83011" />
    <rect
       style="opacity:1;fill:#5480c9;fill-opacity:0.98039216;fill-rule:nonzero;stroke:none;stroke-width:0.49640214;stroke-linecap:round;stroke-linejoin:round;stroke-miterlimit:4;stroke-dasharray:none;stroke-dashoffset:0;stroke-opacity:1;paint-order:fill markers stroke"
       id="rect10464-2-5-2-7-1-8-7"
       width="11.641667"
       height="0.5291664"
       x="5.3912425"
       y="279.56552" />
    <rect
       style="opacity:1;fill:#94b5e3;fill-opacity:0.98039216;fill-rule:nonzero;stroke:none;stroke-width:0.3175002;stroke-linecap:round;stroke-linejoin:round;stroke-miterlimit:4;stroke-dasharray:none;stroke-dashoffset:0;stroke-opacity:1;paint-order:fill markers stroke"
       id="rect10464-2-5-2-6-9"
       width="1.587497"
       height="1.5875053"
       x="15.180832"
       y="286.18011" />
    <rect
       style="opacity:1;fill:#5480c9;fill-opacity:0.98039216;fill-rule:nonzero;stroke:none;stroke-width:0.49640214;stroke-linecap:round;stroke-linejoin:round;stroke-miterlimit:4;stroke-dasharray:none;stroke-dashoffset:0;stroke-opacity:1;paint-order:fill markers stroke"
       id="rect10464-2-5-2-7-1-8-7-0"
       width="11.641667"
       height="0.5291664"
       x="5.3912501"
       y="287.50302" />
    <rect
       style="opacity:1;fill:#5480c9;fill-opacity:0.98039216;fill-rule:nonzero;stroke:none;stroke-width:0.42333511;stroke-linecap:round;stroke-linejoin:round;stroke-miterlimit:4;stroke-dasharray:none;stroke-dashoffset:0;stroke-opacity:1;paint-order:fill markers stroke"
       id="rect10464-2-5-2-7-1-8-7-0-5"
       width="0.52916843"
       height="8.466713"
       x="13.328742"
       y="279.56552" />
    <rect
       style="opacity:1;fill:#5480c9;fill-opacity:0.98039216;fill-rule:nonzero;stroke:none;stroke-width:0.42333511;stroke-linecap:round;stroke-linejoin:round;stroke-miterlimit:4;stroke-dasharray:none;stroke-dashoffset:0;stroke-opacity:1;paint-order:fill markers stroke"
       id="rect10464-2-5-2-7-1-8-7-0-5-0"
       width="0.52916843"
       height="8.466713"
       x="16.503733"
       y="279.56552" />
    <rect
       style="opacity:1;fill:#5480c9;fill-opacity:0.98039216;fill-rule:nonzero;stroke:none;stroke-width:0.25923768;stroke-linecap:round;stroke-linejoin:round;stroke-miterlimit:4;stroke-dasharray:none;stroke-dashoffset:0;stroke-opacity:1;paint-order:fill markers stroke"
       id="rect10464-2-5-2-7-1-8-7-8"
       width="3.1750023"
       height="0.5291664"
       x="13.59333"
       y="282.74051" />
    <rect
       style="opacity:1;fill:#5480c9;fill-opacity:0.98039216;fill-rule:nonzero;stroke:none;stroke-width:0.25923768;stroke-linecap:round;stroke-linejoin:round;stroke-miterlimit:4;stroke-dasharray:none;stroke-dashoffset:0;stroke-opacity:1;paint-order:fill markers stroke"
       id="rect10464-2-5-2-7-1-8-7-8-5"
       width="3.1750023"
       height="0.5291664"
       x="13.59333"
       y="285.91553" />
    <rect
       style="opacity:1;fill:#5480c9;fill-opacity:0.98039216;fill-rule:nonzero;stroke:none;stroke-width:0.42333511;stroke-linecap:round;stroke-linejoin:round;stroke-miterlimit:4;stroke-dasharray:none;stroke-dashoffset:0;stroke-opacity:1;paint-order:fill markers stroke"
       id="rect10464-2-5-2-7-1-8-7-0-5-0-9"
       width="0.52916843"
       height="8.466713"
       x="5.3912501"
       y="279.56552" />
    <rect
       style="opacity:1;fill:#5480c9;fill-opacity:0.98039216;fill-rule:nonzero;stroke:none;stroke-width:0.14966942;stroke-linecap:round;stroke-linejoin:round;stroke-miterlimit:4;stroke-dasharray:none;stroke-dashoffset:0;stroke-opacity:1;paint-order:fill markers stroke"
       id="rect10464-2-5-2-7-1-8-7-8-5-4"
       width="0.52916652"
       height="1.0583123"
       x="14.916245"
       y="286.4447" />
    <path
       style="opacity:0.98000004;fill:#4472c3;fill-opacity:1;stroke:none;stroke-width:0.26458332px;stroke-linecap:butt;stroke-linejoin:miter;stroke-opacity:1"
       d="m 15.180828,289.35509 c 0,0 -0.52916,0 -0.52916,0.52916 0,0.52917 0,1.5875 0,1.5875 0,0 0,0.52917 0.52916,0.52917 0.52917,0 1.5875,0 1.5875,0 0,0 0.52917,0 0.52917,-0.52917 0,-0.52916 0,-1.5875 0,-1.5875 0,0 0,-0.52916 -0.52917,-0.52916 -0.52916,0 -1.5875,0 -1.5875,0"
       id="path1439-9-3-3-0"
       inkscape:connector-curvature="0" />
    <path
       style="opacity:0.98000004;fill:#ffffff;fill-opacity:1;stroke:none;stroke-width:0.03527777;stroke-linecap:butt;stroke-linejoin:miter;stroke-miterlimit:4;stroke-dasharray:none;stroke-opacity:1"
       d="m 15.180828,289.61967 c 0,0 -0.26458,0 -0.26458,0.26458 0,0.26459 0,1.5875 0,1.5875 0,0 0,0.26459 0.26458,0.26459 0.26459,0 1.5875,0 1.5875,0 0,0 0.26459,0 0.26459,-0.26459 0,-0.26458 0,-1.5875 0,-1.5875 0,0 0,-0.26458 -0.26459,-0.26458 -0.26458,0 -1.5875,0 -1.5875,0 z"
       id="path1437-2-8-3-2"
       inkscape:connector-curvature="0" />
    <circle
       style="opacity:1;fill:#cbdbf7;fill-opacity:0.98039216;fill-rule:nonzero;stroke:none;stroke-width:0.03527777;stroke-linecap:round;stroke-linejoin:round;stroke-miterlimit:4;stroke-dasharray:none;stroke-dashoffset:0;stroke-opacity:0.98039216;paint-order:fill markers stroke"
       id="path1441-2-2-4-1"
       cx="15.974769"
       cy="290.67804"
       r="0.79374999" />
    <path
       inkscape:connector-curvature="0"
       id="path1443-9-4-0-0"
       d="m 10.418328,289.35509 c 0,0 -0.5291583,0 -0.5291583,0.52916 0,0.52917 0,1.5875 0,1.5875 0,0 0,0.52917 0.5291583,0.52917 0.52917,0 1.5875,0 1.5875,0 0,0 0.52917,0 0.52917,-0.52917 0,-0.52916 0,-1.5875 0,-1.5875 0,0 0,-0.52916 -0.52917,-0.52916 -0.52916,0 -1.5875,0 -1.5875,0"
       style="opacity:0.98000004;fill:#4472c3;fill-opacity:1;stroke:none;stroke-width:0.26458332px;stroke-linecap:butt;stroke-linejoin:miter;stroke-opacity:1" />
    <path
       inkscape:connector-curvature="0"
       id="path1445-8-0-0-8"
       d="m 10.418328,289.61967 c 0,0 -0.264579,0 -0.264579,0.26458 0,0.26459 0,1.5875 0,1.5875 0,0 0,0.26459 0.264579,0.26459 0.26459,0 1.5875,0 1.5875,0 0,0 0.26458,0 0.26458,-0.26459 0,-0.26458 0,-1.5875 0,-1.5875 0,0 0,-0.26458 -0.26458,-0.26458 -0.26458,0 -1.5875,0 -1.5875,0 z"
       style="opacity:0.98000004;fill:#ffffff;fill-opacity:1;stroke:none;stroke-width:0.03527777;stroke-linecap:butt;stroke-linejoin:miter;stroke-miterlimit:4;stroke-dasharray:none;stroke-opacity:1" />
    <circle
       r="0.79374999"
       cy="290.67804"
       cx="11.212218"
       id="circle1447-2-1-7-9"
       style="opacity:1;fill:#94b5e3;fill-opacity:1;fill-rule:nonzero;stroke:none;stroke-width:0.03527777;stroke-linecap:round;stroke-linejoin:round;stroke-miterlimit:4;stroke-dasharray:none;stroke-dashoffset:0;stroke-opacity:0.98039216;paint-order:fill markers stroke" />
    <path
       style="opacity:0.98000004;fill:#4472c3;fill-opacity:1;stroke:none;stroke-width:0.26458332px;stroke-linecap:butt;stroke-linejoin:miter;stroke-opacity:1"
       d="m 5.6558303,289.35509 c 0,0 -0.52916,0 -0.52916,0.52916 0,0.52917 0,1.5875 0,1.5875 0,0 0,0.52917 0.52916,0.52917 0.52917,0 1.5875,0 1.5875,0 0,0 0.52917,0 0.52917,-0.52917 0,-0.52916 0,-1.5875 0,-1.5875 0,0 0,-0.52916 -0.52917,-0.52916 -0.52916,0 -1.5875,0 -1.5875,0"
       id="path4845-2-0"
       inkscape:connector-curvature="0" />
    <path
       style="opacity:0.98000004;fill:#ffffff;fill-opacity:1;stroke:none;stroke-width:0.03527777;stroke-linecap:butt;stroke-linejoin:miter;stroke-miterlimit:4;stroke-dasharray:none;stroke-opacity:1"
       d="m 5.6558303,289.61967 c 0,0 -0.26458,0 -0.26458,0.26458 0,0.26459 0,1.5875 0,1.5875 0,0 0,0.26459 0.26458,0.26459 0.26459,0 1.5875,0 1.5875,0 0,0 0.26458,0 0.26458,-0.26459 0,-0.26458 0,-1.5875 0,-1.5875 0,0 0,-0.26458 -0.26458,-0.26458 -0.26458,0 -1.5875,0 -1.5875,0 z"
       id="path4847-1-0"
       inkscape:connector-curvature="0" />
    <circle
       style="opacity:1;fill:#517cc8;fill-opacity:0.98039216;fill-rule:nonzero;stroke:none;stroke-width:0.03527777;stroke-linecap:round;stroke-linejoin:round;stroke-miterlimit:4;stroke-dasharray:none;stroke-dashoffset:0;stroke-opacity:0.98039216;paint-order:fill markers stroke"
       id="circle4849-1-2"
       cx="6.4497066"
       cy="290.67804"
       r="0.79374999" />
  </g>
</svg>
