<?xml version="1.0" encoding="UTF-8" standalone="no"?>
<!-- Created with Inkscape (http://www.inkscape.org/) -->

<svg
   xmlns:dc="http://purl.org/dc/elements/1.1/"
   xmlns:cc="http://creativecommons.org/ns#"
   xmlns:rdf="http://www.w3.org/1999/02/22-rdf-syntax-ns#"
   xmlns:svg="http://www.w3.org/2000/svg"
   xmlns="http://www.w3.org/2000/svg"
   xmlns:sodipodi="http://sodipodi.sourceforge.net/DTD/sodipodi-0.dtd"
   xmlns:inkscape="http://www.inkscape.org/namespaces/inkscape"
   width="64pt"
   height="64pt"
   viewBox="0 0 22.577778 22.577776"
   version="1.1"
   id="svg8"
   inkscape:version="0.92.4 (5da689c313, 2019-01-14)"
   sodipodi:docname="hash_simulation.svg">
  <defs
     id="defs2" />
  <sodipodi:namedview
     id="base"
     pagecolor="#ffffff"
     bordercolor="#666666"
     borderopacity="1.0"
     inkscape:pageopacity="0.0"
     inkscape:pageshadow="2"
     inkscape:zoom="9.4453125"
     inkscape:cx="9.1373029"
     inkscape:cy="40.047383"
     inkscape:document-units="pt"
     inkscape:current-layer="layer1"
     showgrid="true"
     units="pt"
     inkscape:window-width="2170"
     inkscape:window-height="1138"
     inkscape:window-x="108"
     inkscape:window-y="103"
     inkscape:window-maximized="0">
    <inkscape:grid
       type="xygrid"
       id="grid4518" />
  </sodipodi:namedview>
  <metadata
     id="metadata5">
    <rdf:RDF>
      <cc:Work
         rdf:about="">
        <dc:format>image/svg+xml</dc:format>
        <dc:type
           rdf:resource="http://purl.org/dc/dcmitype/StillImage" />
        <dc:title />
      </cc:Work>
    </rdf:RDF>
  </metadata>
  <g
     inkscape:label="Layer 1"
     inkscape:groupmode="layer"
     id="layer1"
     transform="translate(0,-274.42224)"
     style="opacity:0.98">
    <path
       inkscape:connector-curvature="0"
       id="path1130-5-9-2-2-9-8-4-4-0-5"
       d="m 1.2726633,280.06668 10.0541597,-5.02708 10.05417,5.02708 v 11.37709 l -10.05417,5.02708 -10.0541597,-5.02708 z"
       style="opacity:0.98000004;fill:#1f804b;fill-opacity:0.98039216;stroke:none;stroke-width:0.26458332px;stroke-linecap:butt;stroke-linejoin:miter;stroke-opacity:1" />
    <path
       sodipodi:nodetypes="ccccccc"
       inkscape:connector-curvature="0"
       id="path1132-8-6-7-7-2-8-9-4-3-4"
       d="m 11.326823,276.36252 -8.99583,4.49791 v 9.78959 l 8.99583,4.49791 8.99583,-4.49791 v -9.78959 z"
       style="opacity:0.98000004;fill:#bfddc2;fill-opacity:0.98039216;stroke:none;stroke-width:0.26458332;stroke-linecap:butt;stroke-linejoin:miter;stroke-miterlimit:4;stroke-dasharray:none;stroke-opacity:1" />
    <path
       inkscape:connector-curvature="0"
       id="path1134-3-1-6-73-2-3-0-6-9-5"
       d="m 11.326823,276.36252 -8.99583,4.49791 v 9.78959 l 8.99583,4.49791 z"
       style="opacity:0.98000004;fill:#e6f6ed;fill-opacity:1;stroke:none;stroke-width:0.26458332px;stroke-linecap:butt;stroke-linejoin:miter;stroke-opacity:1" />
    <path
       sodipodi:nodetypes="ccccccc"
       inkscape:connector-curvature="0"
       id="path1136-5-6-6-2-0-8-8-9-1-0"
       d="m 11.326823,276.36252 -8.99583,4.49791 v 9.78959 l 8.99583,4.49791 8.99583,-4.49791 v -9.78959 z"
       style="opacity:0.98000004;fill:none;fill-opacity:1;stroke:#ffffff;stroke-width:0.26458332;stroke-linecap:butt;stroke-linejoin:miter;stroke-miterlimit:4;stroke-dasharray:none;stroke-opacity:1" />
    <path
       style="opacity:0.98000004;fill:#21824e;fill-opacity:0.98039216;stroke:none;stroke-width:0.26458332px;stroke-linecap:butt;stroke-linejoin:miter;stroke-opacity:1"
       d="m 4.6784631,288.53336 c 0,0 -0.5291601,0 -0.5291601,0.52916 0,0.52917 0,1.5875 0,1.5875 0,0 0,0.52917 0.5291601,0.52917 0.52917,0 1.5874999,0 1.5874999,0 0,0 0.52917,0 0.52917,-0.52917 0,-0.52916 0,-1.5875 0,-1.5875 0,0 0,-0.52916 -0.52917,-0.52916 -0.5291601,0 -1.5874999,0 -1.5874999,0"
       id="path1439-9-3-4-5"
       inkscape:connector-curvature="0" />
    <path
       style="opacity:0.98000004;fill:#ffffff;fill-opacity:1;stroke:none;stroke-width:0.03527777;stroke-linecap:butt;stroke-linejoin:miter;stroke-miterlimit:4;stroke-dasharray:none;stroke-opacity:1"
       d="m 4.6784631,288.79794 c 0,0 -0.2645802,0 -0.2645802,0.26458 0,0.26459 0,1.5875 0,1.5875 0,0 0,0.26459 0.2645802,0.26459 0.2645899,0 1.5874999,0 1.5874999,0 0,0 0.2645899,0 0.2645899,-0.26459 0,-0.26458 0,-1.5875 0,-1.5875 0,0 0,-0.26458 -0.2645899,-0.26458 -0.2645799,0 -1.5874999,0 -1.5874999,0 z"
       id="path1437-2-8-1-9"
       inkscape:connector-curvature="0" />
    <path
       inkscape:connector-curvature="0"
       id="path1443-9-4-5-8"
       d="m 7.588883,288.53336 c 0,0 -0.52916,0 -0.52916,0.52916 0,0.52917 0,1.5875 0,1.5875 0,0 0,0.52917 0.52916,0.52917 0.52917,0 1.5874999,0 1.5874999,0 0,0 0.52917,0 0.52917,-0.52917 0,-0.52916 0,-1.5875 0,-1.5875 0,0 0,-0.52916 -0.52917,-0.52916 -0.5291598,0 -1.5874999,0 -1.5874999,0"
       style="opacity:0.98000004;fill:#21824e;fill-opacity:0.98039216;stroke:none;stroke-width:0.26458332px;stroke-linecap:butt;stroke-linejoin:miter;stroke-opacity:1" />
    <path
       inkscape:connector-curvature="0"
       id="path1445-8-0-8-3"
       d="m 7.588883,288.79794 c 0,0 -0.2645799,0 -0.2645799,0.26458 0,0.26459 0,1.5875 0,1.5875 0,0 0,0.26459 0.2645799,0.26459 0.2645899,0 1.5874999,0 1.5874999,0 0,0 0.2645801,0 0.2645801,-0.26459 0,-0.26458 0,-1.5875 0,-1.5875 0,0 0,-0.26458 -0.2645801,-0.26458 -0.2645799,0 -1.5874999,0 -1.5874999,0 z"
       style="opacity:0.98000004;fill:#ffffff;fill-opacity:1;stroke:none;stroke-width:0.03527777;stroke-linecap:butt;stroke-linejoin:miter;stroke-miterlimit:4;stroke-dasharray:none;stroke-opacity:1" />
    <circle
       r="0.79374999"
       cy="289.85635"
       cx="8.3827534"
       id="circle1447-2-1-4-7"
       style="opacity:1;fill:#74b28f;fill-opacity:0.98039216;fill-rule:nonzero;stroke:none;stroke-width:0.03527777;stroke-linecap:round;stroke-linejoin:round;stroke-miterlimit:4;stroke-dasharray:none;stroke-dashoffset:0;stroke-opacity:0.98039216;paint-order:fill markers stroke" />
    <path
       style="opacity:0.98000004;fill:#21824e;fill-opacity:0.98039216;stroke:none;stroke-width:0.26458332px;stroke-linecap:butt;stroke-linejoin:miter;stroke-opacity:1"
       d="m 13.409713,288.53336 c 0,0 -0.52916,0 -0.52916,0.52916 0,0.52917 0,1.5875 0,1.5875 0,0 0,0.52917 0.52916,0.52917 0.52917,0 1.5875,0 1.5875,0 0,0 0.52917,0 0.52917,-0.52917 0,-0.52916 0,-1.5875 0,-1.5875 0,0 0,-0.52916 -0.52917,-0.52916 -0.52916,0 -1.5875,0 -1.5875,0"
       id="path1455-2-8-8-6"
       inkscape:connector-curvature="0" />
    <path
       style="opacity:0.98000004;fill:#ffffff;fill-opacity:1;stroke:none;stroke-width:0.03527777;stroke-linecap:butt;stroke-linejoin:miter;stroke-miterlimit:4;stroke-dasharray:none;stroke-opacity:1"
       d="m 13.409713,288.79794 c 0,0 -0.26458,0 -0.26458,0.26458 0,0.26459 0,1.5875 0,1.5875 0,0 0,0.26459 0.26458,0.26459 0.26459,0 1.5875,0 1.5875,0 0,0 0.26459,0 0.26459,-0.26459 0,-0.26458 0,-1.5875 0,-1.5875 0,0 0,-0.26458 -0.26459,-0.26458 -0.26458,0 -1.5875,0 -1.5875,0 z"
       id="path1457-7-5-6-7"
       inkscape:connector-curvature="0" />
    <path
       inkscape:connector-curvature="0"
       id="path1461-3-8-6-4"
       d="m 16.320133,288.53336 c 0,0 -0.52917,0 -0.52917,0.52916 0,0.52917 0,1.5875 0,1.5875 0,0 0,0.52917 0.52917,0.52917 0.52917,0 1.5875,0 1.5875,0 0,0 0.52917,0 0.52917,-0.52917 0,-0.52916 0,-1.5875 0,-1.5875 0,0 0,-0.52916 -0.52917,-0.52916 -0.52917,0 -1.5875,0 -1.5875,0"
       style="opacity:0.98000004;fill:#21824e;fill-opacity:0.98039216;stroke:none;stroke-width:0.26458332px;stroke-linecap:butt;stroke-linejoin:miter;stroke-opacity:1" />
    <path
       inkscape:connector-curvature="0"
       id="path1463-0-4-8-1"
       d="m 16.320133,288.79794 c 0,0 -0.26458,0 -0.26458,0.26458 0,0.26459 0,1.5875 0,1.5875 0,0 0,0.26459 0.26458,0.26459 0.26458,0 1.5875,0 1.5875,0 0,0 0.26458,0 0.26458,-0.26459 0,-0.26458 0,-1.5875 0,-1.5875 0,0 0,-0.26458 -0.26458,-0.26458 -0.26458,0 -1.5875,0 -1.5875,0 z"
       style="opacity:0.98000004;fill:#ffffff;fill-opacity:1;stroke:none;stroke-width:0.03527777;stroke-linecap:butt;stroke-linejoin:miter;stroke-miterlimit:4;stroke-dasharray:none;stroke-opacity:1" />
    <circle
       r="0.79374999"
       cy="289.85635"
       cx="17.114019"
       id="circle1465-5-1-1-9"
       style="opacity:1;fill:#74b28f;fill-opacity:0.98039216;fill-rule:nonzero;stroke:none;stroke-width:0.03527777;stroke-linecap:round;stroke-linejoin:round;stroke-miterlimit:4;stroke-dasharray:none;stroke-dashoffset:0;stroke-opacity:0.98039216;paint-order:fill markers stroke" />
    <path
       style="opacity:0.98000004;fill:#21824e;fill-opacity:0.98039216;stroke:none;stroke-width:0.26458332px;stroke-linecap:butt;stroke-linejoin:miter;stroke-opacity:1"
       d="m 10.499303,288.53336 c 0,0 -0.5291602,0 -0.5291602,0.52916 0,0.52917 0,1.5875 0,1.5875 0,0 0,0.52917 0.5291602,0.52917 0.52917,0 1.5875,0 1.5875,0 0,0 0.52917,0 0.52917,-0.52917 0,-0.52916 0,-1.5875 0,-1.5875 0,0 0,-0.52916 -0.52917,-0.52916 -0.52916,0 -1.5875,0 -1.5875,0"
       id="path4845-1-3"
       inkscape:connector-curvature="0" />
    <path
       style="opacity:0.98000004;fill:#ffffff;fill-opacity:1;stroke:none;stroke-width:0.03527777;stroke-linecap:butt;stroke-linejoin:miter;stroke-miterlimit:4;stroke-dasharray:none;stroke-opacity:1"
       d="m 10.499303,288.79794 c 0,0 -0.26458,0 -0.26458,0.26458 0,0.26459 0,1.5875 0,1.5875 0,0 0,0.26459 0.26458,0.26459 0.26459,0 1.5875,0 1.5875,0 0,0 0.26458,0 0.26458,-0.26459 0,-0.26458 0,-1.5875 0,-1.5875 0,0 0,-0.26458 -0.26458,-0.26458 -0.26458,0 -1.5875,0 -1.5875,0 z"
       id="path4847-8-0"
       inkscape:connector-curvature="0" />
    <circle
       style="opacity:1;fill:#308b59;fill-opacity:0.98039216;fill-rule:nonzero;stroke:none;stroke-width:0.03527777;stroke-linecap:round;stroke-linejoin:round;stroke-miterlimit:4;stroke-dasharray:none;stroke-dashoffset:0;stroke-opacity:0.98039216;paint-order:fill markers stroke"
       id="circle4849-8-1"
       cx="11.293154"
       cy="289.85635"
       r="0.79374999" />
    <path
       style="opacity:0.98000004;fill:#308b59;fill-opacity:0.98039216;stroke:none;stroke-width:0.26458332px;stroke-linecap:butt;stroke-linejoin:miter;stroke-opacity:1"
       d="m 7.324293,280.86044 h 7.9375 l -1.32292,2.64583 H 8.6472131 L 7.324293,280.86044"
       id="path20077"
       inkscape:connector-curvature="0" />
    <path
       style="opacity:0.98000004;fill:#1e814b;fill-opacity:0.94117647;stroke:none;stroke-width:0.26458332px;stroke-linecap:butt;stroke-linejoin:miter;stroke-opacity:1"
       d="m 10.763883,277.68545 1.05833,-10e-6 v 1.5875 h 0.79375 l -1.32291,1.58751 -1.3229102,-1.5875 h 0.7937502 z"
       id="path11150-9-3-1"
       inkscape:connector-curvature="0"
       sodipodi:nodetypes="cccccccc" />
    <path
       style="opacity:0.98000004;fill:#268552;fill-opacity:1;stroke:none;stroke-width:0.26458332px;stroke-linecap:butt;stroke-linejoin:miter;stroke-opacity:1"
       d="M 7.8534631,285.88752 H 8.911803 v 1.05833 h 0.7937499 l -1.3229099,1.58751 -1.32291,-1.5875 h 0.79375 z"
       id="path11150-9-3-1-4"
       inkscape:connector-curvature="0"
       sodipodi:nodetypes="cccccccc" />
    <path
       style="opacity:0.98000004;fill:#268552;fill-opacity:1;stroke:none;stroke-width:0.26458332px;stroke-linecap:butt;stroke-linejoin:miter;stroke-opacity:1"
       d="m 8.911803,284.82919 v 1.05833 H 7.8534729 c 0,0 0,-1.05833 1.0583301,-1.05833 z"
       id="path20117"
       inkscape:connector-curvature="0" />
    <rect
       style="opacity:1;fill:#268552;fill-opacity:1;fill-rule:nonzero;stroke:none;stroke-width:0.17638889;stroke-linecap:round;stroke-linejoin:round;stroke-miterlimit:4;stroke-dasharray:none;stroke-dashoffset:0;stroke-opacity:1;paint-order:fill markers stroke"
       id="rect20119"
       width="1.0583333"
       height="1.3229166"
       x="10.763887"
       y="283.50629" />
    <rect
       style="opacity:1;fill:#268552;fill-opacity:1;fill-rule:nonzero;stroke:none;stroke-width:0.20870595;stroke-linecap:round;stroke-linejoin:round;stroke-miterlimit:4;stroke-dasharray:none;stroke-dashoffset:0;stroke-opacity:1;paint-order:fill markers stroke"
       id="rect20119-9"
       width="1.8520888"
       height="1.0583283"
       x="8.9117908"
       y="284.82922" />
    <path
       style="opacity:0.98000004;fill:#268552;fill-opacity:1;stroke:none;stroke-width:0.26458332px;stroke-linecap:butt;stroke-linejoin:miter;stroke-opacity:1"
       d="m 10.763883,285.88752 v -1.05833 h 1.05833 c 0,0 0,1.05833 -1.05833,1.05833 z"
       id="path20117-5"
       inkscape:connector-curvature="0" />
  </g>
</svg>
