<?xml version="1.0" encoding="UTF-8" standalone="no"?>
<!-- Created with Inkscape (http://www.inkscape.org/) -->

<svg
   xmlns:dc="http://purl.org/dc/elements/1.1/"
   xmlns:cc="http://creativecommons.org/ns#"
   xmlns:rdf="http://www.w3.org/1999/02/22-rdf-syntax-ns#"
   xmlns:svg="http://www.w3.org/2000/svg"
   xmlns="http://www.w3.org/2000/svg"
   xmlns:sodipodi="http://sodipodi.sourceforge.net/DTD/sodipodi-0.dtd"
   xmlns:inkscape="http://www.inkscape.org/namespaces/inkscape"
   width="64pt"
   height="64pt"
   viewBox="0 0 22.577778 22.577776"
   version="1.1"
   id="svg8"
   inkscape:version="0.92.4 (5da689c313, 2019-01-14)"
   sodipodi:docname="list_simulation.svg">
  <defs
     id="defs2" />
  <sodipodi:namedview
     id="base"
     pagecolor="#ffffff"
     bordercolor="#666666"
     borderopacity="1.0"
     inkscape:pageopacity="0.0"
     inkscape:pageshadow="2"
     inkscape:zoom="9.4453125"
     inkscape:cx="9.1373029"
     inkscape:cy="40.047383"
     inkscape:document-units="pt"
     inkscape:current-layer="layer1"
     showgrid="true"
     units="pt"
     inkscape:window-width="2170"
     inkscape:window-height="1138"
     inkscape:window-x="108"
     inkscape:window-y="103"
     inkscape:window-maximized="0">
    <inkscape:grid
       type="xygrid"
       id="grid4518" />
  </sodipodi:namedview>
  <metadata
     id="metadata5">
    <rdf:RDF>
      <cc:Work
         rdf:about="">
        <dc:format>image/svg+xml</dc:format>
        <dc:type
           rdf:resource="http://purl.org/dc/dcmitype/StillImage" />
        <dc:title />
      </cc:Work>
    </rdf:RDF>
  </metadata>
  <g
     inkscape:label="Layer 1"
     inkscape:groupmode="layer"
     id="layer1"
     transform="translate(0,-274.42224)"
     style="opacity:0.98">
    <path
       inkscape:connector-curvature="0"
       id="path1130-5-9-2-2-9-8-4-4-0"
       d="m 1.3229152,280.06667 10.0541608,-5.02708 10.05417,5.02708 v 11.37709 l -10.05417,5.02708 -10.0541608,-5.02708 z"
       style="opacity:0.98000004;fill:#1f804b;fill-opacity:0.98039216;stroke:none;stroke-width:0.26458332px;stroke-linecap:butt;stroke-linejoin:miter;stroke-opacity:1" />
    <path
       sodipodi:nodetypes="ccccccc"
       inkscape:connector-curvature="0"
       id="path1132-8-6-7-7-2-8-9-4-3"
       d="m 11.377076,276.36251 -8.9958308,4.49791 v 9.78959 l 8.9958308,4.49791 8.99583,-4.49791 v -9.78959 z"
       style="opacity:0.98000004;fill:#bfddc2;fill-opacity:0.98039216;stroke:none;stroke-width:0.26458332;stroke-linecap:butt;stroke-linejoin:miter;stroke-miterlimit:4;stroke-dasharray:none;stroke-opacity:1" />
    <path
       inkscape:connector-curvature="0"
       id="path1134-3-1-6-73-2-3-0-6-9"
       d="m 11.377076,276.36251 -8.9958308,4.49791 v 9.78959 l 8.9958308,4.49791 z"
       style="opacity:0.98000004;fill:#e6f6ed;fill-opacity:1;stroke:none;stroke-width:0.26458332px;stroke-linecap:butt;stroke-linejoin:miter;stroke-opacity:1" />
    <path
       sodipodi:nodetypes="ccccccc"
       inkscape:connector-curvature="0"
       id="path1136-5-6-6-2-0-8-8-9-1"
       d="m 11.377076,276.36251 -8.9958308,4.49791 v 9.78959 l 8.9958308,4.49791 8.99583,-4.49791 v -9.78959 z"
       style="opacity:0.98000004;fill:none;fill-opacity:1;stroke:#ffffff;stroke-width:0.26458332;stroke-linecap:butt;stroke-linejoin:miter;stroke-miterlimit:4;stroke-dasharray:none;stroke-opacity:1" />
    <path
       style="opacity:0.98000004;fill:none;stroke:#288652;stroke-width:0.17638886;stroke-linecap:butt;stroke-linejoin:miter;stroke-miterlimit:4;stroke-dasharray:none;stroke-opacity:1"
       d="m 5.2916652,284.82918 h 1.553731"
       id="path19799"
       inkscape:connector-curvature="0" />
    <path
       style="opacity:0.98000004;fill:none;stroke:#288652;stroke-width:0.17638886;stroke-linecap:butt;stroke-linejoin:miter;stroke-miterlimit:4;stroke-dasharray:none;stroke-opacity:1"
       d="m 6.3837752,286.41668 h 1.55372"
       id="path19799-2"
       inkscape:connector-curvature="0" />
    <path
       style="opacity:0.98000004;fill:none;stroke:#288652;stroke-width:0.17638886;stroke-linecap:butt;stroke-linejoin:miter;stroke-miterlimit:4;stroke-dasharray:none;stroke-opacity:1"
       d="m 10.020386,284.82918 h 1.55373"
       id="path19799-26"
       inkscape:connector-curvature="0" />
    <path
       style="opacity:0.98000004;fill:none;stroke:#288652;stroke-width:0.17638886;stroke-linecap:butt;stroke-linejoin:miter;stroke-miterlimit:4;stroke-dasharray:none;stroke-opacity:1"
       d="m 11.112496,286.41668 h 1.55372"
       id="path19799-2-1"
       inkscape:connector-curvature="0" />
    <path
       style="opacity:0.98000004;fill:none;stroke:#288652;stroke-width:0.17638886;stroke-linecap:butt;stroke-linejoin:miter;stroke-miterlimit:4;stroke-dasharray:none;stroke-opacity:1"
       d="m 14.816666,284.82918 h 1.55373"
       id="path19799-9"
       inkscape:connector-curvature="0" />
    <path
       style="opacity:0.98000004;fill:none;stroke:#288652;stroke-width:0.17638886;stroke-linecap:butt;stroke-linejoin:miter;stroke-miterlimit:4;stroke-dasharray:none;stroke-opacity:1"
       d="m 15.908776,286.41668 h 1.55372"
       id="path19799-2-2"
       inkscape:connector-curvature="0" />
    <path
       style="opacity:0.98000004;fill:#1e814b;fill-opacity:1;stroke:none;stroke-width:0.26458332px;stroke-linecap:butt;stroke-linejoin:miter;stroke-opacity:1"
       d="m 3.4395852,284.30001 c 0,0 -0.52916,0 -0.52916,0.52916 0,0.52917 0,1.5875 0,1.5875 0,0 0,0.52917 0.52916,0.52917 0.52917,0 1.5875,0 1.5875,0 0,0 0.52917,0 0.52917,-0.52917 0,-0.52916 0,-1.5875 0,-1.5875 0,0 0,-0.52916 -0.52917,-0.52916 -0.529159,0 -1.5875,0 -1.5875,0"
       id="path1439-9-3-4-8"
       inkscape:connector-curvature="0" />
    <path
       style="opacity:0.98000004;fill:#ffffff;fill-opacity:1;stroke:none;stroke-width:0.03527777;stroke-linecap:butt;stroke-linejoin:miter;stroke-miterlimit:4;stroke-dasharray:none;stroke-opacity:1"
       d="m 3.4395852,284.56459 c 0,0 -0.26458,0 -0.26458,0.26458 0,0.26459 0,1.5875 0,1.5875 0,0 0,0.26459 0.26458,0.26459 0.26459,0 1.5875,0 1.5875,0 0,0 0.264591,0 0.264591,-0.26459 0,-0.26458 0,-1.5875 0,-1.5875 0,0 0,-0.26458 -0.264591,-0.26458 -0.26458,0 -1.5875,0 -1.5875,0 z"
       id="path1437-2-8-1-7"
       inkscape:connector-curvature="0" />
    <circle
       style="opacity:1;fill:#288652;fill-opacity:0.96078431;fill-rule:nonzero;stroke:none;stroke-width:0.03527777;stroke-linecap:round;stroke-linejoin:round;stroke-miterlimit:4;stroke-dasharray:none;stroke-dashoffset:0;stroke-opacity:0.98039216;paint-order:fill markers stroke"
       id="path1441-2-2-6-1"
       cx="4.2335467"
       cy="285.62302"
       r="0.79374999" />
    <path
       inkscape:connector-curvature="0"
       id="path1443-9-4-5-5"
       d="m 8.2020852,284.30001 c 0,0 -0.52916,0 -0.52916,0.52916 0,0.52917 0,1.5875 0,1.5875 0,0 0,0.52917 0.52916,0.52917 0.52917,0 1.5875006,0 1.5875006,0 0,0 0.5291702,0 0.5291702,-0.52917 0,-0.52916 0,-1.5875 0,-1.5875 0,0 0,-0.52916 -0.5291702,-0.52916 -0.52916,0 -1.5875006,0 -1.5875006,0"
       style="opacity:0.98000004;fill:#1e814b;fill-opacity:1;stroke:none;stroke-width:0.26458332px;stroke-linecap:butt;stroke-linejoin:miter;stroke-opacity:1" />
    <path
       inkscape:connector-curvature="0"
       id="path1445-8-0-8-4"
       d="m 8.2020852,284.56459 c 0,0 -0.264579,0 -0.264579,0.26458 0,0.26459 0,1.5875 0,1.5875 0,0 0,0.26459 0.264579,0.26459 0.264591,0 1.5875006,0 1.5875006,0 0,0 0.2645802,0 0.2645802,-0.26459 0,-0.26458 0,-1.5875 0,-1.5875 0,0 0,-0.26458 -0.2645802,-0.26458 -0.2645801,0 -1.5875006,0 -1.5875006,0 z"
       style="opacity:0.98000004;fill:#ffffff;fill-opacity:1;stroke:none;stroke-width:0.03527777;stroke-linecap:butt;stroke-linejoin:miter;stroke-miterlimit:4;stroke-dasharray:none;stroke-opacity:1" />
    <circle
       r="0.79374999"
       cy="285.62302"
       cx="8.9959841"
       id="circle1447-2-1-4-8"
       style="opacity:1;fill:#6eb08a;fill-opacity:0.96078431;fill-rule:nonzero;stroke:none;stroke-width:0.03527777;stroke-linecap:round;stroke-linejoin:round;stroke-miterlimit:4;stroke-dasharray:none;stroke-dashoffset:0;stroke-opacity:0.98039216;paint-order:fill markers stroke" />
    <path
       style="opacity:0.98000004;fill:#1e814b;fill-opacity:1;stroke:none;stroke-width:0.26458332px;stroke-linecap:butt;stroke-linejoin:miter;stroke-opacity:1"
       d="m 17.727086,284.30001 c 0,0 -0.52916,0 -0.52916,0.52916 0,0.52917 0,1.5875 0,1.5875 0,0 0,0.52917 0.52916,0.52917 0.52917,0 1.5875,0 1.5875,0 0,0 0.52917,0 0.52917,-0.52917 0,-0.52916 0,-1.5875 0,-1.5875 0,0 0,-0.52916 -0.52917,-0.52916 -0.52916,0 -1.5875,0 -1.5875,0"
       id="path1455-2-8-8-5"
       inkscape:connector-curvature="0" />
    <path
       style="opacity:0.98000004;fill:#ffffff;fill-opacity:1;stroke:none;stroke-width:0.03527777;stroke-linecap:butt;stroke-linejoin:miter;stroke-miterlimit:4;stroke-dasharray:none;stroke-opacity:1"
       d="m 17.727086,284.56459 c 0,0 -0.26458,0 -0.26458,0.26458 0,0.26459 0,1.5875 0,1.5875 0,0 0,0.26459 0.26458,0.26459 0.26459,0 1.5875,0 1.5875,0 0,0 0.26459,0 0.26459,-0.26459 0,-0.26458 0,-1.5875 0,-1.5875 0,0 0,-0.26458 -0.26459,-0.26458 -0.26458,0 -1.5875,0 -1.5875,0 z"
       id="path1457-7-5-6-5"
       inkscape:connector-curvature="0" />
    <circle
       style="opacity:1;fill:#74b28f;fill-opacity:0.98039216;fill-rule:nonzero;stroke:none;stroke-width:0.03527777;stroke-linecap:round;stroke-linejoin:round;stroke-miterlimit:4;stroke-dasharray:none;stroke-dashoffset:0;stroke-opacity:0.98039216;paint-order:fill markers stroke"
       id="circle1459-9-2-1-0"
       cx="18.521038"
       cy="285.62302"
       r="0.79374999" />
    <path
       style="opacity:0.98000004;fill:#1e814b;fill-opacity:1;stroke:none;stroke-width:0.26458332px;stroke-linecap:butt;stroke-linejoin:miter;stroke-opacity:1"
       d="m 12.964586,284.30001 c 0,0 -0.52916,0 -0.52916,0.52916 0,0.52917 0,1.5875 0,1.5875 0,0 0,0.52917 0.52916,0.52917 0.52917,0 1.5875,0 1.5875,0 0,0 0.52917,0 0.52917,-0.52917 0,-0.52916 0,-1.5875 0,-1.5875 0,0 0,-0.52916 -0.52917,-0.52916 -0.52916,0 -1.5875,0 -1.5875,0"
       id="path4845-1-4"
       inkscape:connector-curvature="0" />
    <path
       style="opacity:0.98000004;fill:#ffffff;fill-opacity:1;stroke:none;stroke-width:0.03527777;stroke-linecap:butt;stroke-linejoin:miter;stroke-miterlimit:4;stroke-dasharray:none;stroke-opacity:1"
       d="m 12.964586,284.56459 c 0,0 -0.26458,0 -0.26458,0.26458 0,0.26459 0,1.5875 0,1.5875 0,0 0,0.26459 0.26458,0.26459 0.26459,0 1.5875,0 1.5875,0 0,0 0.26458,0 0.26458,-0.26459 0,-0.26458 0,-1.5875 0,-1.5875 0,0 0,-0.26458 -0.26458,-0.26458 -0.26458,0 -1.5875,0 -1.5875,0 z"
       id="path4847-8-8"
       inkscape:connector-curvature="0" />
    <circle
       style="opacity:1;fill:#288652;fill-opacity:0.96078431;fill-rule:nonzero;stroke:none;stroke-width:0.03527777;stroke-linecap:round;stroke-linejoin:round;stroke-miterlimit:4;stroke-dasharray:none;stroke-dashoffset:0;stroke-opacity:0.98039216;paint-order:fill markers stroke"
       id="circle4849-8-5"
       cx="13.758465"
       cy="285.62302"
       r="0.79374999" />
    <path
       style="opacity:0.98000004;fill:#1d824b;fill-opacity:1;stroke:none;stroke-width:0.26458332px;stroke-linecap:butt;stroke-linejoin:miter;stroke-opacity:1"
       d="m 7.6729162,284.82918 -1.058331,-0.52917 v 1.05834 z"
       id="path19752"
       inkscape:connector-curvature="0"
       sodipodi:nodetypes="cccc" />
    <path
       style="opacity:0.98000004;fill:#1d824b;fill-opacity:1;stroke:none;stroke-width:0.26458332px;stroke-linecap:butt;stroke-linejoin:miter;stroke-opacity:1"
       d="m 5.5562552,286.41668 1.05833,0.52917 v -1.05834 z"
       id="path19752-8"
       inkscape:connector-curvature="0"
       sodipodi:nodetypes="cccc" />
    <path
       style="opacity:0.98000004;fill:#1d824b;fill-opacity:1;stroke:none;stroke-width:0.26458332px;stroke-linecap:butt;stroke-linejoin:miter;stroke-opacity:1"
       d="m 12.401636,284.82918 -1.05833,-0.52917 v 1.05834 z"
       id="path19752-9"
       inkscape:connector-curvature="0"
       sodipodi:nodetypes="cccc" />
    <path
       style="opacity:0.98000004;fill:#1d824b;fill-opacity:1;stroke:none;stroke-width:0.26458332px;stroke-linecap:butt;stroke-linejoin:miter;stroke-opacity:1"
       d="m 10.284976,286.41668 1.05833,0.52917 v -1.05834 z"
       id="path19752-8-6"
       inkscape:connector-curvature="0"
       sodipodi:nodetypes="cccc" />
    <path
       style="opacity:0.98000004;fill:#1d824b;fill-opacity:1;stroke:none;stroke-width:0.26458332px;stroke-linecap:butt;stroke-linejoin:miter;stroke-opacity:1"
       d="m 17.197916,284.82918 -1.05833,-0.52917 v 1.05834 z"
       id="path19752-2"
       inkscape:connector-curvature="0"
       sodipodi:nodetypes="cccc" />
    <path
       style="opacity:0.98000004;fill:#1d824b;fill-opacity:1;stroke:none;stroke-width:0.26458332px;stroke-linecap:butt;stroke-linejoin:miter;stroke-opacity:1"
       d="m 15.081256,286.41668 1.05833,0.52917 v -1.05834 z"
       id="path19752-8-3"
       inkscape:connector-curvature="0"
       sodipodi:nodetypes="cccc" />
    <path
       style="opacity:0.98000004;fill:none;stroke:#288652;stroke-width:0.17638886;stroke-linecap:butt;stroke-linejoin:miter;stroke-miterlimit:4;stroke-dasharray:none;stroke-opacity:1"
       d="m 18.520836,284.3827 c 0,0 -2.91042,-2.11666 -7.14375,-2.11666 -4.2333298,0 -6.8791698,2.11666 -6.8791698,2.11666"
       id="path19873"
       inkscape:connector-curvature="0" />
    <path
       style="opacity:0.98000004;fill:#1d824b;fill-opacity:1;stroke:none;stroke-width:0.26458332px;stroke-linecap:butt;stroke-linejoin:miter;stroke-opacity:1"
       d="m 4.3751262,284.3709 1.181129,-0.0709 -0.52917,-0.91655 z"
       id="path19752-8-7"
       inkscape:connector-curvature="0"
       sodipodi:nodetypes="cccc" />
    <path
       style="opacity:0.98000004;fill:none;stroke:#288652;stroke-width:0.17638886;stroke-linecap:butt;stroke-linejoin:miter;stroke-miterlimit:4;stroke-dasharray:none;stroke-opacity:1"
       d="m 4.2333262,286.86314 c 0,0 2.910419,2.11666 7.1437498,2.11666 4.23333,0 6.87917,-2.11666 6.87917,-2.11666"
       id="path19873-7"
       inkscape:connector-curvature="0" />
    <path
       style="opacity:0.98000004;fill:#1d824b;fill-opacity:1;stroke:none;stroke-width:0.26458332px;stroke-linecap:butt;stroke-linejoin:miter;stroke-opacity:1"
       d="m 18.379046,286.87494 -1.18113,0.0709 0.52917,0.91655 z"
       id="path19752-8-7-7"
       inkscape:connector-curvature="0"
       sodipodi:nodetypes="cccc" />
  </g>
</svg>
