<?xml version="1.0" encoding="UTF-8" standalone="no"?>
<!-- Created with Inkscape (http://www.inkscape.org/) -->

<svg
   xmlns:dc="http://purl.org/dc/elements/1.1/"
   xmlns:cc="http://creativecommons.org/ns#"
   xmlns:rdf="http://www.w3.org/1999/02/22-rdf-syntax-ns#"
   xmlns:svg="http://www.w3.org/2000/svg"
   xmlns="http://www.w3.org/2000/svg"
   xmlns:sodipodi="http://sodipodi.sourceforge.net/DTD/sodipodi-0.dtd"
   xmlns:inkscape="http://www.inkscape.org/namespaces/inkscape"
   width="64pt"
   height="64pt"
   viewBox="0 0 22.577778 22.577776"
   version="1.1"
   id="svg8"
   inkscape:version="0.92.4 (5da689c313, 2019-01-14)"
   sodipodi:docname="max.svg">
  <defs
     id="defs2" />
  <sodipodi:namedview
     id="base"
     pagecolor="#ffffff"
     bordercolor="#666666"
     borderopacity="1.0"
     inkscape:pageopacity="0.0"
     inkscape:pageshadow="2"
     inkscape:zoom="9.4453125"
     inkscape:cx="19.358913"
     inkscape:cy="47.502658"
     inkscape:document-units="pt"
     inkscape:current-layer="layer1"
     showgrid="true"
     units="pt"
     inkscape:window-width="2170"
     inkscape:window-height="1138"
     inkscape:window-x="111"
     inkscape:window-y="169"
     inkscape:window-maximized="0">
    <inkscape:grid
       type="xygrid"
       id="grid4518" />
  </sodipodi:namedview>
  <metadata
     id="metadata5">
    <rdf:RDF>
      <cc:Work
         rdf:about="">
        <dc:format>image/svg+xml</dc:format>
        <dc:type
           rdf:resource="http://purl.org/dc/dcmitype/StillImage" />
        <dc:title />
      </cc:Work>
    </rdf:RDF>
  </metadata>
  <g
     inkscape:label="Layer 1"
     inkscape:groupmode="layer"
     id="layer1"
     transform="translate(0,-274.42224)"
     style="opacity:0.98">
    <path
       inkscape:connector-curvature="0"
       id="path1130"
       d="m 1.3229136,280.06668 10.0541674,-5.02708 10.054169,5.02708 v 11.37709 l -10.054169,5.02708 -10.0541674,-5.02708 z"
       style="opacity:0.98000004;fill:#4372c3;fill-opacity:1;stroke:none;stroke-width:0.26458332px;stroke-linecap:butt;stroke-linejoin:miter;stroke-opacity:1" />
    <path
       sodipodi:nodetypes="ccccccc"
       inkscape:connector-curvature="0"
       id="path1132"
       d="m 11.377081,276.36252 -8.9958334,4.49791 v 9.78959 l 8.9958334,4.49791 8.995829,-4.49791 v -9.78959 z"
       style="opacity:0.98000004;fill:#e1ebff;fill-opacity:1;stroke:none;stroke-width:0.26458332;stroke-linecap:butt;stroke-linejoin:miter;stroke-miterlimit:4;stroke-dasharray:none;stroke-opacity:1" />
    <path
       inkscape:connector-curvature="0"
       id="path1134"
       d="m 11.377081,276.36252 -8.9958334,4.49791 v 9.78959 l 8.9958334,4.49791 z"
       style="opacity:0.98000004;fill:#fafaff;fill-opacity:1;stroke:none;stroke-width:0.26458332px;stroke-linecap:butt;stroke-linejoin:miter;stroke-opacity:1" />
    <path
       sodipodi:nodetypes="ccccccc"
       inkscape:connector-curvature="0"
       id="path1136"
       d="m 11.377081,276.36252 -8.9958334,4.49791 v 9.78959 l 8.9958334,4.49791 8.995829,-4.49791 v -9.78959 z"
       style="opacity:0.98000004;fill:none;fill-opacity:1;stroke:#ffffff;stroke-width:0.26458332;stroke-linecap:butt;stroke-linejoin:miter;stroke-miterlimit:4;stroke-dasharray:none;stroke-opacity:1" />
    <path
       inkscape:connector-curvature="0"
       id="path1089"
       d="m 5.5562496,282.44793 c 0,0 -0.52917,0 -0.52917,0.52916 0,0.52917 0,3.175 0,3.175 0,0 0,0.52917 0.52917,0.52917 0.52916,0 3.175,0 3.175,0 0,0 0.52916,0 0.52916,-0.52917 0,-0.52916 0,-3.175 0,-3.175 0,0 0,-0.52916 -0.52916,-0.52916 -0.52917,0 -3.175,0 -3.175,0"
       style="opacity:0.98000004;fill:#4876c5;fill-opacity:1;stroke:none;stroke-width:0.26458332px;stroke-linecap:butt;stroke-linejoin:miter;stroke-opacity:1" />
    <path
       inkscape:connector-curvature="0"
       id="path1091"
       d="m 5.5562496,282.71251 c 0,0 -0.26459,0 -0.26459,0.26458 0,0.26459 0,3.175 0,3.175 0,0 0,0.26459 0.26459,0.26459 0.26458,0 3.175,0 3.175,0 0,0 0.26458,0 0.26458,-0.26459 0,-0.26458 0,-3.175 0,-3.175 0,0 0,-0.26458 -0.26458,-0.26458 -0.26459,0 -3.175,0 -3.175,0"
       style="opacity:0.98000004;fill:#ffffff;fill-opacity:1;stroke:none;stroke-width:0.26458332px;stroke-linecap:butt;stroke-linejoin:miter;stroke-opacity:1" />
    <path
       style="opacity:0.98000004;fill:#4876c5;fill-opacity:1;stroke:none;stroke-width:0.26458332px;stroke-linecap:butt;stroke-linejoin:miter;stroke-opacity:1"
       d="m 14.022919,283.77085 c 0,0 -0.52917,0 -0.52917,0.52916 0,0.52917 0,3.175 0,3.175 0,0 0,0.52917 0.52917,0.52917 0.52916,0 3.175,0 3.175,0 0,0 0.52916,0 0.52916,-0.52917 0,-0.52916 0,-3.175 0,-3.175 0,0 0,-0.52916 -0.52916,-0.52916 -0.52917,0 -3.175,0 -3.175,0"
       id="path1093"
       inkscape:connector-curvature="0" />
    <path
       style="opacity:0.98000004;fill:#ffffff;fill-opacity:1;stroke:none;stroke-width:0.26458332px;stroke-linecap:butt;stroke-linejoin:miter;stroke-opacity:1"
       d="m 14.022919,284.03543 c 0,0 -0.26459,0 -0.26459,0.26458 0,0.26459 0,3.175 0,3.175 0,0 0,0.26459 0.26459,0.26459 0.26458,0 3.175,0 3.175,0 0,0 0.26458,0 0.26458,-0.26459 0,-0.26458 0,-3.175 0,-3.175 0,0 0,-0.26458 -0.26458,-0.26458 -0.26459,0 -3.175,0 -3.175,0"
       id="path1095"
       inkscape:connector-curvature="0" />
    <circle
       style="opacity:1;fill:#4876c5;fill-opacity:1;fill-rule:nonzero;stroke:none;stroke-width:0.35277778;stroke-linecap:round;stroke-linejoin:round;stroke-miterlimit:4;stroke-dasharray:none;stroke-dashoffset:0;stroke-opacity:1;paint-order:fill markers stroke"
       id="circle1097"
       cx="15.610429"
       cy="285.88751"
       r="1.0583333" />
    <ellipse
       ry="1.0493606"
       rx="1.0563637"
       cy="284.56067"
       cx="7.164422"
       id="ellipse1099"
       style="opacity:1;fill:#c9d9f5;fill-opacity:0.98039216;fill-rule:nonzero;stroke:none;stroke-width:0.46793616;stroke-linecap:round;stroke-linejoin:round;stroke-miterlimit:4;stroke-dasharray:none;stroke-dashoffset:0;stroke-opacity:1;paint-order:fill markers stroke" />
    <path
       style="opacity:0.98000004;fill:#4876c5;fill-opacity:1;stroke:none;stroke-width:0.26458332px;stroke-linecap:butt;stroke-linejoin:miter;stroke-opacity:1"
       d="m 4.7625006,286.94584 h 4.7625 l -0.529167,0.52917 h -3.704166 l -0.529167,-0.52917"
       id="path1101"
       inkscape:connector-curvature="0" />
    <path
       inkscape:connector-curvature="0"
       id="path1103"
       d="m 13.229166,288.26876 h 4.762503 l -0.52917,0.52917 h -3.70417 l -0.529163,-0.52917"
       style="opacity:0.98000004;fill:#4876c5;fill-opacity:1;stroke:none;stroke-width:0.26458332px;stroke-linecap:butt;stroke-linejoin:miter;stroke-opacity:1" />
    <rect
       style="opacity:1;fill:#4876c5;fill-opacity:1;fill-rule:nonzero;stroke:none;stroke-width:0.03527777;stroke-linecap:round;stroke-linejoin:round;stroke-miterlimit:4;stroke-dasharray:none;stroke-dashoffset:0;stroke-opacity:0.98039216;paint-order:fill markers stroke"
       id="rect1105"
       width="0.52916664"
       height="0.52916664"
       x="6.8791666"
       y="287.47507" />
    <rect
       style="opacity:1;fill:#4876c5;fill-opacity:1;fill-rule:nonzero;stroke:none;stroke-width:0.03527777;stroke-linecap:round;stroke-linejoin:round;stroke-miterlimit:4;stroke-dasharray:none;stroke-dashoffset:0;stroke-opacity:0.98039216;paint-order:fill markers stroke"
       id="rect1105-3"
       width="0.52916664"
       height="0.52916664"
       x="15.345826"
       y="288.79797" />
    <path
       style="opacity:0.98000004;fill:#4876c5;fill-opacity:1;stroke:none;stroke-width:0.26458332px;stroke-linecap:butt;stroke-linejoin:miter;stroke-opacity:1"
       d="m 6.8791676,287.73959 8.9958314,1.5875 v 0.52917 l -8.9958314,-1.5875 v -0.52917"
       id="path1124"
       inkscape:connector-curvature="0" />
    <rect
       style="opacity:1;fill:#4876c5;fill-opacity:1;fill-rule:nonzero;stroke:none;stroke-width:0.03527777;stroke-linecap:round;stroke-linejoin:round;stroke-miterlimit:4;stroke-dasharray:none;stroke-dashoffset:0;stroke-opacity:0.98039216;paint-order:fill markers stroke"
       id="rect1126"
       width="0.52916664"
       height="1.5875"
       x="11.112494"
       y="288.79797" />
    <path
       style="opacity:0.98000004;fill:#4876c5;fill-opacity:1;stroke:none;stroke-width:0.26458332px;stroke-linecap:butt;stroke-linejoin:miter;stroke-opacity:1"
       d="m 8.9958336,291.70834 c 0,0 0.79375,-1.32291 2.3812504,-1.32291 1.5875,0 2.381245,1.32291 2.381245,1.32291 z"
       id="path1128"
       inkscape:connector-curvature="0" />
    <path
       style="opacity:0.98000004;fill:#4472c3;fill-opacity:0.94117647;stroke:none;stroke-width:0.26458332px;stroke-linecap:butt;stroke-linejoin:miter;stroke-opacity:1"
       d="m 15.610418,283.77085 -1.5875,-1.85209 h 1.058334 v -2.38125 h 1.058333 v 2.38125 h 1.058333 l -1.5875,1.85209"
       id="path3769-9"
       inkscape:connector-curvature="0"
       sodipodi:nodetypes="cccccccc" />
  </g>
</svg>
