<?xml version="1.0" encoding="UTF-8" standalone="no"?>
<!-- Created with Inkscape (http://www.inkscape.org/) -->

<svg
   xmlns:dc="http://purl.org/dc/elements/1.1/"
   xmlns:cc="http://creativecommons.org/ns#"
   xmlns:rdf="http://www.w3.org/1999/02/22-rdf-syntax-ns#"
   xmlns:svg="http://www.w3.org/2000/svg"
   xmlns="http://www.w3.org/2000/svg"
   xmlns:sodipodi="http://sodipodi.sourceforge.net/DTD/sodipodi-0.dtd"
   xmlns:inkscape="http://www.inkscape.org/namespaces/inkscape"
   width="64pt"
   height="64pt"
   viewBox="0 0 22.577778 22.577776"
   version="1.1"
   id="svg8"
   inkscape:version="0.92.4 (5da689c313, 2019-01-14)"
   sodipodi:docname="partition.svg">
  <defs
     id="defs2" />
  <sodipodi:namedview
     id="base"
     pagecolor="#ffffff"
     bordercolor="#666666"
     borderopacity="1.0"
     inkscape:pageopacity="0.0"
     inkscape:pageshadow="2"
     inkscape:zoom="9.4453125"
     inkscape:cx="9.1373029"
     inkscape:cy="40.047383"
     inkscape:document-units="pt"
     inkscape:current-layer="layer1"
     showgrid="true"
     units="pt"
     inkscape:window-width="2170"
     inkscape:window-height="1138"
     inkscape:window-x="108"
     inkscape:window-y="103"
     inkscape:window-maximized="0">
    <inkscape:grid
       type="xygrid"
       id="grid4518" />
  </sodipodi:namedview>
  <metadata
     id="metadata5">
    <rdf:RDF>
      <cc:Work
         rdf:about="">
        <dc:format>image/svg+xml</dc:format>
        <dc:type
           rdf:resource="http://purl.org/dc/dcmitype/StillImage" />
        <dc:title />
      </cc:Work>
    </rdf:RDF>
  </metadata>
  <g
     inkscape:label="Layer 1"
     inkscape:groupmode="layer"
     id="layer1"
     transform="translate(0,-274.42224)"
     style="opacity:0.98">
    <path
       inkscape:connector-curvature="0"
       id="path1130-5-9-2-2-9"
       d="m 1.1673021,280.07885 10.0541589,-5.02708 10.05417,5.02708 v 11.37709 l -10.05417,5.02708 -10.0541589,-5.02708 z"
       style="opacity:0.98000004;fill:#4372c3;fill-opacity:1;stroke:none;stroke-width:0.26458332px;stroke-linecap:butt;stroke-linejoin:miter;stroke-opacity:1" />
    <path
       sodipodi:nodetypes="ccccccc"
       inkscape:connector-curvature="0"
       id="path1132-8-6-7-7-2"
       d="m 11.221461,276.37469 -8.9958289,4.49791 v 9.78959 l 8.9958289,4.49791 8.99583,-4.49791 v -9.78959 z"
       style="opacity:0.98000004;fill:#e1ebff;fill-opacity:1;stroke:none;stroke-width:0.26458332;stroke-linecap:butt;stroke-linejoin:miter;stroke-miterlimit:4;stroke-dasharray:none;stroke-opacity:1" />
    <path
       inkscape:connector-curvature="0"
       id="path1134-3-1-6-73-2"
       d="m 11.221461,276.37469 -8.9958289,4.49791 v 9.78959 l 8.9958289,4.49791 z"
       style="opacity:0.98000004;fill:#fafaff;fill-opacity:1;stroke:none;stroke-width:0.26458332px;stroke-linecap:butt;stroke-linejoin:miter;stroke-opacity:1" />
    <path
       sodipodi:nodetypes="ccccccc"
       inkscape:connector-curvature="0"
       id="path1136-5-6-6-2-0"
       d="m 11.221461,276.37469 -8.9958289,4.49791 v 9.78959 l 8.9958289,4.49791 8.99583,-4.49791 v -9.78959 z"
       style="opacity:0.98000004;fill:none;fill-opacity:1;stroke:#ffffff;stroke-width:0.26458332;stroke-linecap:butt;stroke-linejoin:miter;stroke-miterlimit:4;stroke-dasharray:none;stroke-opacity:1" />
    <rect
       y="289.98785"
       x="7.7809033"
       height="1.0582998"
       width="1.0583329"
       id="rect3974-6"
       style="opacity:1;fill:#94b5e3;fill-opacity:1;fill-rule:nonzero;stroke:none;stroke-width:0.01821708;stroke-linecap:round;stroke-linejoin:round;stroke-miterlimit:4;stroke-dasharray:none;stroke-dashoffset:0;stroke-opacity:0.98039216;paint-order:fill markers stroke" />
    <rect
       y="288.66489"
       x="4.6059151"
       height="2.3812456"
       width="1.0583351"
       id="rect3976-5"
       style="opacity:1;fill:#94b5e3;fill-opacity:1;fill-rule:nonzero;stroke:none;stroke-width:0.02732605;stroke-linecap:round;stroke-linejoin:round;stroke-miterlimit:4;stroke-dasharray:none;stroke-dashoffset:0;stroke-opacity:0.98039216;paint-order:fill markers stroke" />
    <rect
       y="286.01907"
       x="15.718406"
       height="5.0270691"
       width="1.0583334"
       id="rect3978-5"
       style="opacity:1;fill:#4b79c6;fill-opacity:0.96078431;fill-rule:nonzero;stroke:none;stroke-width:0.0397038;stroke-linecap:round;stroke-linejoin:round;stroke-miterlimit:4;stroke-dasharray:none;stroke-dashoffset:0;stroke-opacity:0.98039216;paint-order:fill markers stroke" />
    <rect
       y="287.34198"
       x="6.193409"
       height="3.7041698"
       width="1.0583357"
       id="rect3980-9"
       style="opacity:1;fill:#94b5e3;fill-opacity:1;fill-rule:nonzero;stroke:none;stroke-width:0.03408163;stroke-linecap:round;stroke-linejoin:round;stroke-miterlimit:4;stroke-dasharray:none;stroke-dashoffset:0;stroke-opacity:0.98039216;paint-order:fill markers stroke" />
    <rect
       style="opacity:1;fill:#4472c3;fill-opacity:0.96078431;fill-rule:nonzero;stroke:none;stroke-width:0.04073524;stroke-linecap:round;stroke-linejoin:round;stroke-miterlimit:4;stroke-dasharray:none;stroke-dashoffset:0;stroke-opacity:0.98039216;paint-order:fill markers stroke"
       id="rect3982-7"
       width="1.0583329"
       height="5.2916641"
       x="10.955906"
       y="285.75449" />
    <rect
       style="opacity:1;fill:#4472c3;fill-opacity:0.96078431;fill-rule:nonzero;stroke:none;stroke-width:0.04272358;stroke-linecap:round;stroke-linejoin:round;stroke-miterlimit:4;stroke-dasharray:none;stroke-dashoffset:0;stroke-opacity:0.98039216;paint-order:fill markers stroke"
       id="rect3986-7"
       width="1.0583334"
       height="5.820847"
       x="12.543416"
       y="285.22531" />
    <rect
       style="opacity:1;fill:#4472c3;fill-opacity:0.96078431;fill-rule:nonzero;stroke:none;stroke-width:0.04174125;stroke-linecap:round;stroke-linejoin:round;stroke-miterlimit:4;stroke-dasharray:none;stroke-dashoffset:0;stroke-opacity:0.98039216;paint-order:fill markers stroke"
       id="rect3988-1"
       width="1.0583357"
       height="5.556241"
       x="14.130909"
       y="285.4899" />
    <rect
       y="288.13574"
       x="9.368413"
       height="2.910398"
       width="1.0583334"
       id="rect3978-6-3"
       style="opacity:1;fill:#94b5e3;fill-opacity:0.98039216;fill-rule:nonzero;stroke:none;stroke-width:0.03021001;stroke-linecap:round;stroke-linejoin:round;stroke-miterlimit:4;stroke-dasharray:none;stroke-dashoffset:0;stroke-opacity:0.98039216;paint-order:fill markers stroke" />
    <rect
       style="opacity:1;fill:#94b5e3;fill-opacity:1;fill-rule:nonzero;stroke:none;stroke-width:0.03643477;stroke-linecap:round;stroke-linejoin:round;stroke-miterlimit:4;stroke-dasharray:none;stroke-dashoffset:0;stroke-opacity:0.98039216;paint-order:fill markers stroke"
       id="rect3982-7-4"
       width="1.0583329"
       height="4.2333441"
       x="17.305922"
       y="286.81281" />
    <rect
       style="opacity:1;fill:#4472c3;fill-opacity:0.96078431;fill-rule:nonzero;stroke:none;stroke-width:0.09048557;stroke-linecap:round;stroke-linejoin:round;stroke-miterlimit:4;stroke-dasharray:none;stroke-dashoffset:0;stroke-opacity:1;paint-order:fill markers stroke"
       id="rect7884"
       width="15.874995"
       height="0.26458332"
       x="3.2829919"
       y="286.54822" />
    <circle
       style="opacity:1;fill:#000000;fill-opacity:0;fill-rule:nonzero;stroke:#4b77c6;stroke-width:0.27047643;stroke-linecap:round;stroke-linejoin:round;stroke-miterlimit:4;stroke-dasharray:none;stroke-dashoffset:0;stroke-opacity:1;paint-order:fill markers stroke"
       id="path4474-00"
       cx="11.135139"
       cy="281.33221"
       r="3.0789435" />
    <path
       inkscape:connector-curvature="0"
       id="path1443-9-8"
       d="m 7.2265421,280.022 c 0,0 -0.52916,0 -0.52916,0.52916 0,0.52917 0,1.5875 0,1.5875 0,0 0,0.52917 0.52916,0.52917 0.529171,0 1.5875,0 1.5875,0 0,0 0.52917,0 0.52917,-0.52917 0,-0.52916 0,-1.5875 0,-1.5875 0,0 0,-0.52916 -0.52917,-0.52916 -0.52916,0 -1.5875,0 -1.5875,0"
       style="opacity:0.98000004;fill:#4472c3;fill-opacity:1;stroke:none;stroke-width:0.26458332px;stroke-linecap:butt;stroke-linejoin:miter;stroke-opacity:1" />
    <path
       inkscape:connector-curvature="0"
       id="path1445-8-6"
       d="m 7.2265421,280.28658 c 0,0 -0.264579,0 -0.264579,0.26458 0,0.26459 0,1.5875 0,1.5875 0,0 0,0.26459 0.264579,0.26459 0.26459,0 1.5875,0 1.5875,0 0,0 0.26458,0 0.26458,-0.26459 0,-0.26458 0,-1.5875 0,-1.5875 0,0 0,-0.26458 -0.26458,-0.26458 -0.26458,0 -1.5875,0 -1.5875,0 z"
       style="opacity:0.98000004;fill:#ffffff;fill-opacity:1;stroke:none;stroke-width:0.03527777;stroke-linecap:butt;stroke-linejoin:miter;stroke-miterlimit:4;stroke-dasharray:none;stroke-opacity:1" />
    <circle
       r="0.79374999"
       cy="281.34488"
       cx="8.0203285"
       id="circle1447-2-4"
       style="opacity:1;fill:#94b5e3;fill-opacity:1;fill-rule:nonzero;stroke:none;stroke-width:0.03527777;stroke-linecap:round;stroke-linejoin:round;stroke-miterlimit:4;stroke-dasharray:none;stroke-dashoffset:0;stroke-opacity:0.98039216;paint-order:fill markers stroke" />
    <path
       style="opacity:0.98000004;fill:#4472c3;fill-opacity:1;stroke:none;stroke-width:0.26458332px;stroke-linecap:butt;stroke-linejoin:miter;stroke-opacity:1"
       d="m 13.572731,279.9827 c 0,0 -0.52916,0 -0.52916,0.52916 0,0.52917 0,1.5875 0,1.5875 0,0 0,0.52917 0.52916,0.52917 0.52917,0 1.5875,0 1.5875,0 0,0 0.52917,0 0.52917,-0.52917 0,-0.52916 0,-1.5875 0,-1.5875 0,0 0,-0.52916 -0.52917,-0.52916 -0.52916,0 -1.5875,0 -1.5875,0"
       id="path1455-2-1"
       inkscape:connector-curvature="0" />
    <path
       style="opacity:0.98000004;fill:#ffffff;fill-opacity:1;stroke:none;stroke-width:0.03527777;stroke-linecap:butt;stroke-linejoin:miter;stroke-miterlimit:4;stroke-dasharray:none;stroke-opacity:1"
       d="m 13.572731,280.24728 c 0,0 -0.26458,0 -0.26458,0.26458 0,0.26459 0,1.5875 0,1.5875 0,0 0,0.26459 0.26458,0.26459 0.26459,0 1.5875,0 1.5875,0 0,0 0.26459,0 0.26459,-0.26459 0,-0.26458 0,-1.5875 0,-1.5875 0,0 0,-0.26458 -0.26459,-0.26458 -0.26458,0 -1.5875,0 -1.5875,0 z"
       id="path1457-7-8"
       inkscape:connector-curvature="0" />
    <circle
       style="opacity:1;fill:#4875c4;fill-opacity:0.98039216;fill-rule:nonzero;stroke:none;stroke-width:0.03527777;stroke-linecap:round;stroke-linejoin:round;stroke-miterlimit:4;stroke-dasharray:none;stroke-dashoffset:0;stroke-opacity:0.98039216;paint-order:fill markers stroke"
       id="circle1459-9-3"
       cx="14.366581"
       cy="281.30557"
       r="0.79374999" />
    <path
       style="opacity:0.98000004;fill:#4472c3;fill-opacity:1;stroke:none;stroke-width:0.26458332px;stroke-linecap:butt;stroke-linejoin:miter;stroke-opacity:1"
       d="m 8.1055721,280.77644 0.1503,-2.6015 0.69827,0.95524 1.1831699,0.0145 -2.0317399,1.63172"
       id="path4491-6-4"
       inkscape:connector-curvature="0"
       sodipodi:nodetypes="ccccc" />
    <path
       style="opacity:0.98000004;fill:#4472c3;fill-opacity:1;stroke:none;stroke-width:0.26458332px;stroke-linecap:butt;stroke-linejoin:miter;stroke-opacity:1"
       d="m 14.214961,281.81532 -0.1503,2.6015 -0.69827,-0.95524 -1.18317,-0.0145 2.03174,-1.63172"
       id="path4491-6-1-0"
       inkscape:connector-curvature="0"
       sodipodi:nodetypes="ccccc" />
    <circle
       style="opacity:1;fill:#4472c3;fill-opacity:0.98039216;fill-rule:nonzero;stroke:none;stroke-width:0.26458332;stroke-linecap:round;stroke-linejoin:round;stroke-miterlimit:4;stroke-dasharray:none;stroke-dashoffset:0;stroke-opacity:1;paint-order:fill markers stroke"
       id="path4533-0"
       cx="10.13474"
       cy="281.31253"
       r="0.26458332" />
    <circle
       style="opacity:1;fill:#4472c3;fill-opacity:0.98039216;fill-rule:nonzero;stroke:none;stroke-width:0.26458332;stroke-linecap:round;stroke-linejoin:round;stroke-miterlimit:4;stroke-dasharray:none;stroke-dashoffset:0;stroke-opacity:1;paint-order:fill markers stroke"
       id="path4535-7"
       cx="12.249852"
       cy="281.30554"
       r="0.26458332" />
    <circle
       style="opacity:1;fill:#4472c3;fill-opacity:0.98039216;fill-rule:nonzero;stroke:none;stroke-width:0.26458332;stroke-linecap:round;stroke-linejoin:round;stroke-miterlimit:4;stroke-dasharray:none;stroke-dashoffset:0;stroke-opacity:1;paint-order:fill markers stroke"
       id="path4537-6"
       cx="11.186042"
       cy="281.30554"
       r="0.26458332" />
  </g>
</svg>
