<?xml version="1.0" encoding="UTF-8" standalone="no"?>
<!-- Created with Inkscape (http://www.inkscape.org/) -->

<svg
   xmlns:dc="http://purl.org/dc/elements/1.1/"
   xmlns:cc="http://creativecommons.org/ns#"
   xmlns:rdf="http://www.w3.org/1999/02/22-rdf-syntax-ns#"
   xmlns:svg="http://www.w3.org/2000/svg"
   xmlns="http://www.w3.org/2000/svg"
   xmlns:sodipodi="http://sodipodi.sourceforge.net/DTD/sodipodi-0.dtd"
   xmlns:inkscape="http://www.inkscape.org/namespaces/inkscape"
   width="64pt"
   height="64pt"
   viewBox="0 0 22.577778 22.577776"
   version="1.1"
   id="svg8"
   inkscape:version="0.92.4 (5da689c313, 2019-01-14)"
   sodipodi:docname="prim_n2.svg">
  <defs
     id="defs2" />
  <sodipodi:namedview
     id="base"
     pagecolor="#ffffff"
     bordercolor="#666666"
     borderopacity="1.0"
     inkscape:pageopacity="0.0"
     inkscape:pageshadow="2"
     inkscape:zoom="9.4453125"
     inkscape:cx="34.920901"
     inkscape:cy="40.047383"
     inkscape:document-units="pt"
     inkscape:current-layer="layer1"
     showgrid="true"
     units="pt"
     inkscape:window-width="2170"
     inkscape:window-height="1138"
     inkscape:window-x="108"
     inkscape:window-y="103"
     inkscape:window-maximized="0">
    <inkscape:grid
       type="xygrid"
       id="grid4518" />
  </sodipodi:namedview>
  <metadata
     id="metadata5">
    <rdf:RDF>
      <cc:Work
         rdf:about="">
        <dc:format>image/svg+xml</dc:format>
        <dc:type
           rdf:resource="http://purl.org/dc/dcmitype/StillImage" />
        <dc:title />
      </cc:Work>
    </rdf:RDF>
  </metadata>
  <g
     inkscape:label="Layer 1"
     inkscape:groupmode="layer"
     id="layer1"
     transform="translate(0,-274.42224)"
     style="opacity:0.98">
    <path
       inkscape:connector-curvature="0"
       id="path1130-5-9-2-2-9-8-49-5-7-6-7-7-7-6-7"
       d="m 1.2110689,280.06143 10.0541601,-5.02708 10.05418,5.02708 v 11.37709 l -10.05418,5.02708 -10.0541601,-5.02708 z"
       style="opacity:0.98000004;fill:#4372c3;fill-opacity:1;stroke:none;stroke-width:0.26458332px;stroke-linecap:butt;stroke-linejoin:miter;stroke-opacity:1" />
    <path
       sodipodi:nodetypes="ccccccc"
       inkscape:connector-curvature="0"
       id="path1132-8-6-7-7-2-8-4-5-1-1-8-9-4-8-9"
       d="m 11.265229,276.35727 -8.9958301,4.49791 v 9.78959 l 8.9958301,4.49791 8.99584,-4.49791 v -9.78959 z"
       style="opacity:0.98000004;fill:#e1ebff;fill-opacity:1;stroke:none;stroke-width:0.26458332;stroke-linecap:butt;stroke-linejoin:miter;stroke-miterlimit:4;stroke-dasharray:none;stroke-opacity:1" />
    <path
       inkscape:connector-curvature="0"
       id="path1134-3-1-6-73-2-3-5-3-4-0-1-4-0-0-4"
       d="m 11.265229,276.35727 -8.9958301,4.49791 v 9.78959 l 8.9958301,4.49791 z"
       style="opacity:0.98000004;fill:#fafaff;fill-opacity:1;stroke:none;stroke-width:0.26458332px;stroke-linecap:butt;stroke-linejoin:miter;stroke-opacity:1" />
    <path
       sodipodi:nodetypes="ccccccc"
       inkscape:connector-curvature="0"
       id="path1136-5-6-6-2-0-8-3-9-9-8-8-4-5-4-2"
       d="m 11.265229,276.35727 -8.9958301,4.49791 v 9.78959 l 8.9958301,4.49791 8.99584,-4.49791 v -9.78959 z"
       style="opacity:0.98000004;fill:none;fill-opacity:1;stroke:#ffffff;stroke-width:0.26458332;stroke-linecap:butt;stroke-linejoin:miter;stroke-miterlimit:4;stroke-dasharray:none;stroke-opacity:1" />
    <path
       style="opacity:0.98000004;fill:#96b8e5;fill-opacity:0.94117647;stroke:none;stroke-width:0.26458332px;stroke-linecap:butt;stroke-linejoin:miter;stroke-opacity:1"
       d="m 9.4986689,278.20549 -6.11511,3.07207 0.0297,5.13001 7.1140401,6.24707 0.0297,-3.07207 3.40988,-3.27793 -4.4682201,-3.86582 z"
       id="path18037-6"
       inkscape:connector-curvature="0"
       sodipodi:nodetypes="cccccccc" />
    <path
       style="opacity:0.98000004;fill:#bccef8;fill-opacity:0.98039216;stroke:none;stroke-width:0.26458332px;stroke-linecap:butt;stroke-linejoin:miter;stroke-opacity:1"
       d="m 10.618769,276.88018 -0.0618,5.29406 4.76249,3.96875 -3.96875,3.96875 v 3.96875 l 8.20208,-4.23334 0.0618,-8.20447 z"
       id="path18039-8"
       inkscape:connector-curvature="0"
       sodipodi:nodetypes="cccccccc" />
    <circle
       style="opacity:1;fill:#4472c3;fill-opacity:1;fill-rule:nonzero;stroke:none;stroke-width:0.03527777;stroke-linecap:round;stroke-linejoin:round;stroke-miterlimit:4;stroke-dasharray:none;stroke-dashoffset:0;stroke-opacity:0.98039216;paint-order:fill markers stroke"
       id="path1441-2-2-4-13-4-5-8-2-1-6-9-2-2-2-54-7"
       cx="15.856133"
       cy="281.84265"
       r="0.79374999" />
    <circle
       style="opacity:1;fill:#4472c3;fill-opacity:1;fill-rule:nonzero;stroke:none;stroke-width:0.03527777;stroke-linecap:round;stroke-linejoin:round;stroke-miterlimit:4;stroke-dasharray:none;stroke-dashoffset:0;stroke-opacity:0.98039216;paint-order:fill markers stroke"
       id="path1441-2-2-4-13-4-5-8-2-1-6-9-2-2-2-6-9-0"
       cx="17.286451"
       cy="286.5329"
       r="0.79374999" />
    <path
       style="opacity:0.98000004;fill:none;stroke:#4372c6;stroke-width:0.17638886;stroke-linecap:butt;stroke-linejoin:miter;stroke-miterlimit:4;stroke-dasharray:none;stroke-opacity:1"
       d="m 7.8814689,280.74839 7.9375001,1.05833"
       id="path18152"
       inkscape:connector-curvature="0" />
    <path
       style="opacity:0.98000004;fill:none;stroke:#4372c6;stroke-width:0.17638886;stroke-linecap:butt;stroke-linejoin:miter;stroke-miterlimit:4;stroke-dasharray:none;stroke-opacity:1"
       d="m 10.527299,286.30464 6.87916,0.26458"
       id="path18154"
       inkscape:connector-curvature="0" />
    <path
       style="opacity:0.98000004;fill:none;stroke:#4372c6;stroke-width:0.35277772;stroke-linecap:butt;stroke-linejoin:miter;stroke-miterlimit:4;stroke-dasharray:none;stroke-opacity:1"
       d="m 15.818969,281.80672 -5.29166,4.49792"
       id="path18156"
       inkscape:connector-curvature="0" />
    <path
       style="opacity:0.98000004;fill:none;stroke:#4372c6;stroke-width:0.17638886;stroke-linecap:butt;stroke-linejoin:miter;stroke-miterlimit:4;stroke-dasharray:none;stroke-opacity:1"
       d="m 10.626539,286.30464 2.5466,5.02708"
       id="path18158"
       inkscape:connector-curvature="0"
       sodipodi:nodetypes="cc" />
    <circle
       style="opacity:1;fill:#ffffff;fill-opacity:0.98148151;fill-rule:nonzero;stroke:none;stroke-width:0.03527777;stroke-linecap:round;stroke-linejoin:round;stroke-miterlimit:4;stroke-dasharray:none;stroke-dashoffset:0;stroke-opacity:0.98039216;paint-order:fill markers stroke"
       id="path1441-2-2-4-1-2-9-2-2-0-8-0-9-8-5-0-3"
       cx="10.585093"
       cy="286.28296"
       r="0.79374999" />
    <path
       style="opacity:1;fill:#4472c3;fill-opacity:0.98039216;fill-rule:nonzero;stroke:none;stroke-width:0.03527777;stroke-linecap:round;stroke-linejoin:round;stroke-miterlimit:4;stroke-dasharray:none;stroke-dashoffset:0;stroke-opacity:0.98039216;paint-order:fill markers stroke"
       d="m 10.592349,285.49717 a 0.79375,0.79375 0 0 0 -0.7937501,0.79375 0.79375,0.79375 0 0 0 0.7937501,0.79375 0.79375,0.79375 0 0 0 0.79375,-0.79375 0.79375,0.79375 0 0 0 -0.79375,-0.79375 z m 0.002,0.25477 a 0.5238719,0.5238719 0 0 1 0.52399,0.52398 0.5238719,0.5238719 0 0 1 -0.52399,0.52348 0.5238719,0.5238719 0 0 1 -0.524,-0.52348 0.5238719,0.5238719 0 0 1 0.524,-0.52398 z"
       id="circle4849-1-2-7-5-0-8-7-6-2-2-2-7-8-3"
       inkscape:connector-curvature="0" />
    <circle
       style="opacity:1;fill:#ffffff;fill-opacity:0.98148151;fill-rule:nonzero;stroke:none;stroke-width:0.03527777;stroke-linecap:round;stroke-linejoin:round;stroke-miterlimit:4;stroke-dasharray:none;stroke-dashoffset:0;stroke-opacity:0.98039216;paint-order:fill markers stroke"
       id="path1441-2-2-4-1-2-9-2-2-0-8-0-9-8-5-0-2-0"
       cx="7.9019251"
       cy="280.77045"
       r="0.79374999" />
    <path
       style="opacity:1;fill:#517cc8;fill-opacity:0.98039216;fill-rule:nonzero;stroke:none;stroke-width:0.03527777;stroke-linecap:round;stroke-linejoin:round;stroke-miterlimit:4;stroke-dasharray:none;stroke-dashoffset:0;stroke-opacity:0.98039216;paint-order:fill markers stroke"
       d="m 7.9091689,279.98468 a 0.79375,0.79375 0 0 0 -0.79375,0.79375 0.79375,0.79375 0 0 0 0.79375,0.79375 0.79375,0.79375 0 0 0 0.79375,-0.79375 0.79375,0.79375 0 0 0 -0.79375,-0.79375 z m 0.002,0.25477 a 0.5238719,0.5238719 0 0 1 0.52399,0.52398 0.5238719,0.5238719 0 0 1 -0.52399,0.52348 0.5238719,0.5238719 0 0 1 -0.524,-0.52348 0.5238719,0.5238719 0 0 1 0.524,-0.52398 z"
       id="circle4849-1-2-7-5-0-8-7-6-2-2-2-7-8-8-1"
       inkscape:connector-curvature="0" />
    <path
       style="opacity:0.98000004;fill:#4572c3;fill-opacity:0.96078431;stroke:none;stroke-width:0.26458332px;stroke-linecap:butt;stroke-linejoin:miter;stroke-opacity:1"
       d="m 11.400379,281.4953 -0.81943,0.66979 1.00469,1.22913 -0.61457,0.50235 2.02895,0.39194 0.0196,-2.06637 -0.61457,0.50235 z"
       id="path4679-7-4-3-1"
       inkscape:connector-curvature="0" />
    <path
       style="opacity:0.98000004;fill:none;stroke:#4372c6;stroke-width:0.17638886;stroke-linecap:butt;stroke-linejoin:miter;stroke-miterlimit:4;stroke-dasharray:none;stroke-opacity:1"
       d="M 13.173139,291.33172 8.1460489,288.95047"
       id="path18156-0"
       inkscape:connector-curvature="0"
       sodipodi:nodetypes="cc" />
    <circle
       style="opacity:1;fill:#ffffff;fill-opacity:0.98148151;fill-rule:nonzero;stroke:none;stroke-width:0.03527777;stroke-linecap:round;stroke-linejoin:round;stroke-miterlimit:4;stroke-dasharray:none;stroke-dashoffset:0;stroke-opacity:0.98039216;paint-order:fill markers stroke"
       id="path1441-2-2-4-1-2-9-2-2-0-8-0-9-8-5-0-3-0"
       cx="8.1367903"
       cy="288.95233"
       r="0.79374999" />
    <path
       style="opacity:1;fill:#517cc8;fill-opacity:0.98039216;fill-rule:nonzero;stroke:none;stroke-width:0.03527777;stroke-linecap:round;stroke-linejoin:round;stroke-miterlimit:4;stroke-dasharray:none;stroke-dashoffset:0;stroke-opacity:0.98039216;paint-order:fill markers stroke"
       d="m 8.1440489,288.16653 a 0.79375,0.79375 0 0 0 -0.79375,0.79375 0.79375,0.79375 0 0 0 0.79375,0.79375 0.79375,0.79375 0 0 0 0.79375,-0.79375 0.79375,0.79375 0 0 0 -0.79375,-0.79375 z m 0.002,0.25477 a 0.5238719,0.5238719 0 0 1 0.52399,0.52398 0.5238719,0.5238719 0 0 1 -0.52399,0.52348 0.5238719,0.5238719 0 0 1 -0.524,-0.52348 0.5238719,0.5238719 0 0 1 0.524,-0.52398 z"
       id="circle4849-1-2-7-5-0-8-7-6-2-2-2-7-8-3-0"
       inkscape:connector-curvature="0" />
    <circle
       style="opacity:1;fill:#4472c3;fill-opacity:1;fill-rule:nonzero;stroke:none;stroke-width:0.03527777;stroke-linecap:round;stroke-linejoin:round;stroke-miterlimit:4;stroke-dasharray:none;stroke-dashoffset:0;stroke-opacity:0.98039216;paint-order:fill markers stroke"
       id="path1441-2-2-4-13-4-5-8-2-1-6-9-2-2-2-8-1-5"
       cx="13.203975"
       cy="291.39832"
       r="0.79374999" />
    <circle
       style="opacity:1;fill:#ffffff;fill-opacity:0.98148151;fill-rule:nonzero;stroke:none;stroke-width:0.03527777;stroke-linecap:round;stroke-linejoin:round;stroke-miterlimit:4;stroke-dasharray:none;stroke-dashoffset:0;stroke-opacity:0.98039216;paint-order:fill markers stroke"
       id="path1441-2-2-4-1-2-9-2-2-0-8-0-9-8-5-0-3-0-4"
       cx="15.854426"
       cy="281.83295"
       r="0.79374999" />
    <path
       style="opacity:1;fill:#4372c6;fill-opacity:0.98039216;fill-rule:nonzero;stroke:none;stroke-width:0.03527777;stroke-linecap:round;stroke-linejoin:round;stroke-miterlimit:4;stroke-dasharray:none;stroke-dashoffset:0;stroke-opacity:0.98039216;paint-order:fill markers stroke"
       d="m 15.861639,281.04728 a 0.79375,0.79375 0 0 0 -0.79375,0.79375 0.79375,0.79375 0 0 0 0.79375,0.79375 0.79375,0.79375 0 0 0 0.79375,-0.79375 0.79375,0.79375 0 0 0 -0.79375,-0.79375 z m 0.002,0.25477 a 0.5238719,0.5238719 0 0 1 0.52398,0.52398 0.5238719,0.5238719 0 0 1 -0.52399,0.52348 0.5238719,0.5238719 0 0 1 -0.524,-0.52348 0.5238719,0.5238719 0 0 1 0.52401,-0.52398 z"
       id="circle4849-1-2-7-5-0-8-7-6-2-2-2-7-8-3-0-6"
       inkscape:connector-curvature="0" />
    <circle
       style="opacity:1;fill:#4472c3;fill-opacity:1;fill-rule:nonzero;stroke:none;stroke-width:0.03527777;stroke-linecap:round;stroke-linejoin:round;stroke-miterlimit:4;stroke-dasharray:none;stroke-dashoffset:0;stroke-opacity:0.98039216;paint-order:fill markers stroke"
       id="path1441-2-2-4-13-4-5-8-2-1-6-9-2-2-2-8-1-5-33"
       cx="8.1477747"
       cy="288.95569"
       r="0.79374999" />
    <circle
       style="opacity:1;fill:#4472c3;fill-opacity:1;fill-rule:nonzero;stroke:none;stroke-width:0.03527777;stroke-linecap:round;stroke-linejoin:round;stroke-miterlimit:4;stroke-dasharray:none;stroke-dashoffset:0;stroke-opacity:0.98039216;paint-order:fill markers stroke"
       id="path1441-2-2-4-13-4-5-8-2-1-6-9-2-2-2-8-1-5-0"
       cx="7.9152937"
       cy="280.76672"
       r="0.79374999" />
  </g>
</svg>
