<?xml version="1.0" encoding="UTF-8" standalone="no"?>
<!-- Created with Inkscape (http://www.inkscape.org/) -->

<svg
   xmlns:dc="http://purl.org/dc/elements/1.1/"
   xmlns:cc="http://creativecommons.org/ns#"
   xmlns:rdf="http://www.w3.org/1999/02/22-rdf-syntax-ns#"
   xmlns:svg="http://www.w3.org/2000/svg"
   xmlns="http://www.w3.org/2000/svg"
   xmlns:sodipodi="http://sodipodi.sourceforge.net/DTD/sodipodi-0.dtd"
   xmlns:inkscape="http://www.inkscape.org/namespaces/inkscape"
   width="64pt"
   height="64pt"
   viewBox="0 0 22.577778 22.577776"
   version="1.1"
   id="svg8"
   inkscape:version="0.92.4 (5da689c313, 2019-01-14)"
   sodipodi:docname="reverse.svg">
  <defs
     id="defs2" />
  <sodipodi:namedview
     id="base"
     pagecolor="#ffffff"
     bordercolor="#666666"
     borderopacity="1.0"
     inkscape:pageopacity="0.0"
     inkscape:pageshadow="2"
     inkscape:zoom="9.4453125"
     inkscape:cx="9.1373029"
     inkscape:cy="40.047383"
     inkscape:document-units="pt"
     inkscape:current-layer="layer1"
     showgrid="true"
     units="pt"
     inkscape:window-width="2170"
     inkscape:window-height="1138"
     inkscape:window-x="108"
     inkscape:window-y="103"
     inkscape:window-maximized="0">
    <inkscape:grid
       type="xygrid"
       id="grid4518" />
  </sodipodi:namedview>
  <metadata
     id="metadata5">
    <rdf:RDF>
      <cc:Work
         rdf:about="">
        <dc:format>image/svg+xml</dc:format>
        <dc:type
           rdf:resource="http://purl.org/dc/dcmitype/StillImage" />
        <dc:title />
      </cc:Work>
    </rdf:RDF>
  </metadata>
  <g
     inkscape:label="Layer 1"
     inkscape:groupmode="layer"
     id="layer1"
     transform="translate(0,-274.42224)"
     style="opacity:0.98">
    <path
       inkscape:connector-curvature="0"
       id="path1130-5-9-5"
       d="m 1.2216591,280.09948 10.0541599,-5.02708 10.05417,5.02708 v 11.37709 l -10.05417,5.02708 -10.0541599,-5.02708 z"
       style="opacity:0.98000004;fill:#4372c3;fill-opacity:1;stroke:none;stroke-width:0.26458332px;stroke-linecap:butt;stroke-linejoin:miter;stroke-opacity:1" />
    <path
       sodipodi:nodetypes="ccccccc"
       inkscape:connector-curvature="0"
       id="path1132-8-6-2"
       d="m 11.275819,276.39532 -8.9958299,4.49791 v 9.78959 l 8.9958299,4.49791 8.99583,-4.49791 v -9.78959 z"
       style="opacity:0.98000004;fill:#e1ebff;fill-opacity:1;stroke:none;stroke-width:0.26458332;stroke-linecap:butt;stroke-linejoin:miter;stroke-miterlimit:4;stroke-dasharray:none;stroke-opacity:1" />
    <path
       inkscape:connector-curvature="0"
       id="path1134-3-1-9"
       d="m 11.275819,276.39532 -8.9958299,4.49791 v 9.78959 l 8.9958299,4.49791 z"
       style="opacity:0.98000004;fill:#fafaff;fill-opacity:1;stroke:none;stroke-width:0.26458332px;stroke-linecap:butt;stroke-linejoin:miter;stroke-opacity:1" />
    <path
       sodipodi:nodetypes="ccccccc"
       inkscape:connector-curvature="0"
       id="path1136-5-6-0"
       d="m 11.275819,276.39532 -8.9958299,4.49791 v 9.78959 l 8.9958299,4.49791 8.99583,-4.49791 v -9.78959 z"
       style="opacity:0.98000004;fill:none;fill-opacity:1;stroke:#ffffff;stroke-width:0.26458332;stroke-linecap:butt;stroke-linejoin:miter;stroke-miterlimit:4;stroke-dasharray:none;stroke-opacity:1" />
    <circle
       style="opacity:1;fill:#000000;fill-opacity:0;fill-rule:nonzero;stroke:#4b77c6;stroke-width:0.27047643;stroke-linecap:round;stroke-linejoin:round;stroke-miterlimit:4;stroke-dasharray:none;stroke-dashoffset:0;stroke-opacity:1;paint-order:fill markers stroke"
       id="path4474"
       cx="11.165401"
       cy="285.81384"
       r="3.0789435" />
    <circle
       style="opacity:1;fill:#000000;fill-opacity:0;fill-rule:nonzero;stroke:#4b77c6;stroke-width:0.26858619;stroke-linecap:round;stroke-linejoin:round;stroke-miterlimit:4;stroke-dasharray:none;stroke-dashoffset:0;stroke-opacity:1;paint-order:fill markers stroke"
       id="path4474-0"
       cx="11.200573"
       cy="285.81094"
       r="5.974298" />
    <path
       style="opacity:0.98000004;fill:#4472c3;fill-opacity:1;stroke:none;stroke-width:0.26458332px;stroke-linecap:butt;stroke-linejoin:miter;stroke-opacity:1"
       d="m 4.3463691,284.50356 c 0,0 -0.52916,0 -0.52916,0.52916 0,0.52917 0,1.5875 0,1.5875 0,0 0,0.52917 0.52916,0.52917 0.52917,0 1.5875,0 1.5875,0 0,0 0.52917,0 0.52917,-0.52917 0,-0.52916 0,-1.5875 0,-1.5875 0,0 0,-0.52916 -0.52917,-0.52916 -0.52916,0 -1.5875,0 -1.5875,0"
       id="path1439-9"
       inkscape:connector-curvature="0" />
    <path
       style="opacity:0.98000004;fill:#ffffff;fill-opacity:1;stroke:none;stroke-width:0.03527777;stroke-linecap:butt;stroke-linejoin:miter;stroke-miterlimit:4;stroke-dasharray:none;stroke-opacity:1"
       d="m 4.3463691,284.76814 c 0,0 -0.26458,0 -0.26458,0.26458 0,0.26459 0,1.5875 0,1.5875 0,0 0,0.26459 0.26458,0.26459 0.26459,0 1.5875,0 1.5875,0 0,0 0.26459,0 0.26459,-0.26459 0,-0.26458 0,-1.5875 0,-1.5875 0,0 0,-0.26458 -0.26459,-0.26458 -0.26458,0 -1.5875,0 -1.5875,0 z"
       id="path1437-2"
       inkscape:connector-curvature="0" />
    <circle
       style="opacity:1;fill:#94b5e3;fill-opacity:1;fill-rule:nonzero;stroke:none;stroke-width:0.03527777;stroke-linecap:round;stroke-linejoin:round;stroke-miterlimit:4;stroke-dasharray:none;stroke-dashoffset:0;stroke-opacity:0.98039216;paint-order:fill markers stroke"
       id="path1441-2"
       cx="5.1402168"
       cy="285.82651"
       r="0.79374999" />
    <path
       inkscape:connector-curvature="0"
       id="path1443-9"
       d="m 7.2567891,284.50356 c 0,0 -0.52916,0 -0.52916,0.52916 0,0.52917 0,1.5875 0,1.5875 0,0 0,0.52917 0.52916,0.52917 0.52917,0 1.5875,0 1.5875,0 0,0 0.52917,0 0.52917,-0.52917 0,-0.52916 0,-1.5875 0,-1.5875 0,0 0,-0.52916 -0.52917,-0.52916 -0.52916,0 -1.5875,0 -1.5875,0"
       style="opacity:0.98000004;fill:#4472c3;fill-opacity:1;stroke:none;stroke-width:0.26458332px;stroke-linecap:butt;stroke-linejoin:miter;stroke-opacity:1" />
    <path
       inkscape:connector-curvature="0"
       id="path1445-8"
       d="m 7.2567891,284.76814 c 0,0 -0.26458,0 -0.26458,0.26458 0,0.26459 0,1.5875 0,1.5875 0,0 0,0.26459 0.26458,0.26459 0.26459,0 1.5875,0 1.5875,0 0,0 0.26458,0 0.26458,-0.26459 0,-0.26458 0,-1.5875 0,-1.5875 0,0 0,-0.26458 -0.26458,-0.26458 -0.26458,0 -1.5875,0 -1.5875,0 z"
       style="opacity:0.98000004;fill:#ffffff;fill-opacity:1;stroke:none;stroke-width:0.03527777;stroke-linecap:butt;stroke-linejoin:miter;stroke-miterlimit:4;stroke-dasharray:none;stroke-opacity:1" />
    <circle
       r="0.79374999"
       cy="285.82651"
       cx="8.0505867"
       id="circle1447-2"
       style="opacity:1;fill:#94b5e3;fill-opacity:1;fill-rule:nonzero;stroke:none;stroke-width:0.03527777;stroke-linecap:round;stroke-linejoin:round;stroke-miterlimit:4;stroke-dasharray:none;stroke-dashoffset:0;stroke-opacity:0.98039216;paint-order:fill markers stroke" />
    <path
       style="opacity:0.98000004;fill:#4472c3;fill-opacity:1;stroke:none;stroke-width:0.26458332px;stroke-linecap:butt;stroke-linejoin:miter;stroke-opacity:1"
       d="m 13.602979,284.46426 c 0,0 -0.52916,0 -0.52916,0.52916 0,0.52917 0,1.5875 0,1.5875 0,0 0,0.52917 0.52916,0.52917 0.52917,0 1.5875,0 1.5875,0 0,0 0.52917,0 0.52917,-0.52917 0,-0.52916 0,-1.5875 0,-1.5875 0,0 0,-0.52916 -0.52917,-0.52916 -0.52916,0 -1.5875,0 -1.5875,0"
       id="path1455-2"
       inkscape:connector-curvature="0" />
    <path
       style="opacity:0.98000004;fill:#ffffff;fill-opacity:1;stroke:none;stroke-width:0.03527777;stroke-linecap:butt;stroke-linejoin:miter;stroke-miterlimit:4;stroke-dasharray:none;stroke-opacity:1"
       d="m 13.602979,284.72884 c 0,0 -0.26458,0 -0.26458,0.26458 0,0.26459 0,1.5875 0,1.5875 0,0 0,0.26459 0.26458,0.26459 0.26459,0 1.5875,0 1.5875,0 0,0 0.26459,0 0.26459,-0.26459 0,-0.26458 0,-1.5875 0,-1.5875 0,0 0,-0.26458 -0.26459,-0.26458 -0.26458,0 -1.5875,0 -1.5875,0 z"
       id="path1457-7"
       inkscape:connector-curvature="0" />
    <circle
       style="opacity:1;fill:#94b5e3;fill-opacity:1;fill-rule:nonzero;stroke:none;stroke-width:0.03527777;stroke-linecap:round;stroke-linejoin:round;stroke-miterlimit:4;stroke-dasharray:none;stroke-dashoffset:0;stroke-opacity:0.98039216;paint-order:fill markers stroke"
       id="circle1459-9"
       cx="14.396846"
       cy="285.7872"
       r="0.79374999" />
    <path
       inkscape:connector-curvature="0"
       id="path1461-3"
       d="m 16.513399,284.46426 c 0,0 -0.52917,0 -0.52917,0.52916 0,0.52917 0,1.5875 0,1.5875 0,0 0,0.52917 0.52917,0.52917 0.52917,0 1.5875,0 1.5875,0 0,0 0.52917,0 0.52917,-0.52917 0,-0.52916 0,-1.5875 0,-1.5875 0,0 0,-0.52916 -0.52917,-0.52916 -0.52917,0 -1.5875,0 -1.5875,0"
       style="opacity:0.98000004;fill:#4472c3;fill-opacity:1;stroke:none;stroke-width:0.26458332px;stroke-linecap:butt;stroke-linejoin:miter;stroke-opacity:1" />
    <path
       inkscape:connector-curvature="0"
       id="path1463-0"
       d="m 16.513399,284.72884 c 0,0 -0.26458,0 -0.26458,0.26458 0,0.26459 0,1.5875 0,1.5875 0,0 0,0.26459 0.26458,0.26459 0.26458,0 1.5875,0 1.5875,0 0,0 0.26458,0 0.26458,-0.26459 0,-0.26458 0,-1.5875 0,-1.5875 0,0 0,-0.26458 -0.26458,-0.26458 -0.26458,0 -1.5875,0 -1.5875,0 z"
       style="opacity:0.98000004;fill:#ffffff;fill-opacity:1;stroke:none;stroke-width:0.03527777;stroke-linecap:butt;stroke-linejoin:miter;stroke-miterlimit:4;stroke-dasharray:none;stroke-opacity:1" />
    <circle
       r="0.79374999"
       cy="285.7872"
       cx="17.307243"
       id="circle1465-5"
       style="opacity:1;fill:#94b5e3;fill-opacity:1;fill-rule:nonzero;stroke:none;stroke-width:0.03527777;stroke-linecap:round;stroke-linejoin:round;stroke-miterlimit:4;stroke-dasharray:none;stroke-dashoffset:0;stroke-opacity:0.98039216;paint-order:fill markers stroke" />
    <path
       style="opacity:0.98000004;fill:#4472c3;fill-opacity:1;stroke:none;stroke-width:0.26458332px;stroke-linecap:butt;stroke-linejoin:miter;stroke-opacity:1"
       d="m 5.2360791,285.24593 -0.47199,-2.56274 0.9052,0.76203 1.15275,-0.26694 -1.58596,2.06765"
       id="path4491"
       inkscape:connector-curvature="0"
       sodipodi:nodetypes="ccccc" />
    <path
       style="opacity:0.98000004;fill:#4472c3;fill-opacity:1;stroke:none;stroke-width:0.26458332px;stroke-linecap:butt;stroke-linejoin:miter;stroke-opacity:1"
       d="m 8.1358191,285.258 0.1503,-2.6015 0.69827,0.95524 1.1831699,0.0145 -2.0317399,1.63172"
       id="path4491-6"
       inkscape:connector-curvature="0"
       sodipodi:nodetypes="ccccc" />
    <path
       style="opacity:0.98000004;fill:#4472c3;fill-opacity:1;stroke:none;stroke-width:0.26458332px;stroke-linecap:butt;stroke-linejoin:miter;stroke-opacity:1"
       d="m 17.144949,286.30895 0.47199,2.56274 -0.9052,-0.76203 -1.15275,0.26694 1.58596,-2.06765"
       id="path4491-5"
       inkscape:connector-curvature="0"
       sodipodi:nodetypes="ccccc" />
    <path
       style="opacity:0.98000004;fill:#4472c3;fill-opacity:1;stroke:none;stroke-width:0.26458332px;stroke-linecap:butt;stroke-linejoin:miter;stroke-opacity:1"
       d="m 14.245209,286.29688 -0.1503,2.6015 -0.69827,-0.95524 -1.18317,-0.0145 2.03174,-1.63172"
       id="path4491-6-1"
       inkscape:connector-curvature="0"
       sodipodi:nodetypes="ccccc" />
    <circle
       style="opacity:1;fill:#4472c3;fill-opacity:0.98039216;fill-rule:nonzero;stroke:none;stroke-width:0.26458332;stroke-linecap:round;stroke-linejoin:round;stroke-miterlimit:4;stroke-dasharray:none;stroke-dashoffset:0;stroke-opacity:1;paint-order:fill markers stroke"
       id="path4533"
       cx="10.164997"
       cy="285.79416"
       r="0.26458332" />
    <circle
       style="opacity:1;fill:#4472c3;fill-opacity:0.98039216;fill-rule:nonzero;stroke:none;stroke-width:0.26458332;stroke-linecap:round;stroke-linejoin:round;stroke-miterlimit:4;stroke-dasharray:none;stroke-dashoffset:0;stroke-opacity:1;paint-order:fill markers stroke"
       id="path4535"
       cx="12.280116"
       cy="285.78717"
       r="0.26458332" />
    <circle
       style="opacity:1;fill:#4472c3;fill-opacity:0.98039216;fill-rule:nonzero;stroke:none;stroke-width:0.26458332;stroke-linecap:round;stroke-linejoin:round;stroke-miterlimit:4;stroke-dasharray:none;stroke-dashoffset:0;stroke-opacity:1;paint-order:fill markers stroke"
       id="path4537"
       cx="11.216297"
       cy="285.78717"
       r="0.26458332" />
  </g>
</svg>
