<?xml version="1.0" encoding="UTF-8" standalone="no"?>
<!-- Created with Inkscape (http://www.inkscape.org/) -->

<svg
   xmlns:dc="http://purl.org/dc/elements/1.1/"
   xmlns:cc="http://creativecommons.org/ns#"
   xmlns:rdf="http://www.w3.org/1999/02/22-rdf-syntax-ns#"
   xmlns:svg="http://www.w3.org/2000/svg"
   xmlns="http://www.w3.org/2000/svg"
   xmlns:sodipodi="http://sodipodi.sourceforge.net/DTD/sodipodi-0.dtd"
   xmlns:inkscape="http://www.inkscape.org/namespaces/inkscape"
   width="64pt"
   height="64pt"
   viewBox="0 0 22.577778 22.577776"
   version="1.1"
   id="svg8"
   inkscape:version="0.92.4 (5da689c313, 2019-01-14)"
   sodipodi:docname="sorting_three_elements.svg">
  <defs
     id="defs2" />
  <sodipodi:namedview
     id="base"
     pagecolor="#ffffff"
     bordercolor="#666666"
     borderopacity="1.0"
     inkscape:pageopacity="0.0"
     inkscape:pageshadow="2"
     inkscape:zoom="9.4453125"
     inkscape:cx="23.587643"
     inkscape:cy="39.103161"
     inkscape:document-units="pt"
     inkscape:current-layer="layer1"
     showgrid="true"
     units="pt"
     inkscape:window-width="2170"
     inkscape:window-height="1138"
     inkscape:window-x="108"
     inkscape:window-y="103"
     inkscape:window-maximized="0">
    <inkscape:grid
       type="xygrid"
       id="grid4518" />
  </sodipodi:namedview>
  <metadata
     id="metadata5">
    <rdf:RDF>
      <cc:Work
         rdf:about="">
        <dc:format>image/svg+xml</dc:format>
        <dc:type
           rdf:resource="http://purl.org/dc/dcmitype/StillImage" />
        <dc:title />
      </cc:Work>
    </rdf:RDF>
  </metadata>
  <g
     inkscape:label="Layer 1"
     inkscape:groupmode="layer"
     id="layer1"
     transform="translate(0,-274.42224)"
     style="opacity:0.98">
    <path
       inkscape:connector-curvature="0"
       id="path1130-5"
       d="m 1.1983722,280.0667 10.0541698,-5.02708 10.05417,5.02708 v 11.37709 l -10.05417,5.02708 -10.0541698,-5.02708 z"
       style="opacity:0.98000004;fill:#4372c3;fill-opacity:1;stroke:none;stroke-width:0.26458332px;stroke-linecap:butt;stroke-linejoin:miter;stroke-opacity:1" />
    <path
       sodipodi:nodetypes="ccccccc"
       inkscape:connector-curvature="0"
       id="path1132-8"
       d="m 11.252542,276.36254 -8.9958298,4.49791 v 9.78959 l 8.9958298,4.49791 8.99583,-4.49791 v -9.78959 z"
       style="opacity:0.98000004;fill:#e1ebff;fill-opacity:1;stroke:none;stroke-width:0.26458332;stroke-linecap:butt;stroke-linejoin:miter;stroke-miterlimit:4;stroke-dasharray:none;stroke-opacity:1" />
    <path
       inkscape:connector-curvature="0"
       id="path1134-3"
       d="m 11.252542,276.36254 -8.9958298,4.49791 v 9.78959 l 8.9958298,4.49791 z"
       style="opacity:0.98000004;fill:#fafaff;fill-opacity:1;stroke:none;stroke-width:0.26458332px;stroke-linecap:butt;stroke-linejoin:miter;stroke-opacity:1" />
    <path
       sodipodi:nodetypes="ccccccc"
       inkscape:connector-curvature="0"
       id="path1136-5"
       d="m 11.252542,276.36254 -8.9958298,4.49791 v 9.78959 l 8.9958298,4.49791 8.99583,-4.49791 v -9.78959 z"
       style="opacity:0.98000004;fill:none;fill-opacity:1;stroke:#ffffff;stroke-width:0.26458332;stroke-linecap:butt;stroke-linejoin:miter;stroke-miterlimit:4;stroke-dasharray:none;stroke-opacity:1" />
    <path
       style="opacity:1;fill:#4372c3;fill-opacity:1;fill-rule:nonzero;stroke:none;stroke-width:0.0251084;stroke-linecap:round;stroke-linejoin:round;stroke-miterlimit:4;stroke-dasharray:none;stroke-dashoffset:0;stroke-opacity:1;paint-order:fill markers stroke"
       d="m 8.1344823,280.00124 a 3.2624353,3.3288566 0 0 0 -3.26243,3.32885 3.2624353,3.3288566 0 0 0 3.26243,3.32887 3.2624353,3.3288566 0 0 0 3.2624497,-3.32887 3.2624353,3.3288566 0 0 0 -3.2624497,-3.32885 z m 0,0.38044 a 2.8895856,2.9484157 0 0 1 2.8896097,2.94841 2.8895856,2.9484157 0 0 1 -2.8896097,2.94843 2.8895856,2.9484157 0 0 1 -2.88958,-2.94843 2.8895856,2.9484157 0 0 1 2.88958,-2.94841 z"
       id="path905-0-9-9"
       inkscape:connector-curvature="0" />
    <rect
       style="opacity:1;fill:#4a77c6;fill-opacity:1;fill-rule:nonzero;stroke:none;stroke-width:0.03810449;stroke-linecap:round;stroke-linejoin:round;stroke-miterlimit:4;stroke-dasharray:none;stroke-dashoffset:0;stroke-opacity:0.98039216;paint-order:fill markers stroke"
       id="rect1181"
       width="3.7041664"
       height="1.322926"
       x="4.1088028"
       y="289.0625" />
    <rect
       style="opacity:1;fill:#4a77c6;fill-opacity:1;fill-rule:nonzero;stroke:none;stroke-width:0.05388778;stroke-linecap:round;stroke-linejoin:round;stroke-miterlimit:4;stroke-dasharray:none;stroke-dashoffset:0;stroke-opacity:0.98039216;paint-order:fill markers stroke"
       id="rect1181-9"
       width="3.7041669"
       height="2.6458426"
       x="9.4004478"
       y="287.73959" />
    <rect
       style="opacity:1;fill:#4a77c6;fill-opacity:1;fill-rule:nonzero;stroke:none;stroke-width:0.06599872;stroke-linecap:round;stroke-linejoin:round;stroke-miterlimit:4;stroke-dasharray:none;stroke-dashoffset:0;stroke-opacity:0.98039216;paint-order:fill markers stroke"
       id="rect1181-9-9"
       width="3.7041628"
       height="3.9687593"
       x="14.692143"
       y="286.41669" />
    <path
       style="opacity:0.98000004;fill:#4372c3;fill-opacity:1;stroke:none;stroke-width:0.26458332px;stroke-linecap:butt;stroke-linejoin:miter;stroke-opacity:1"
       d="m 3.5796122,281.38962 c 0,0 -0.52917,0 -0.52917,0.52917 v 2.64583 c 0,0 -0.01,0.54954 0.51927,0.54616 l 2.65573,-0.017 c 0,0 0.51391,0.007 0.51645,-0.52207 l 0.0127,-2.65293 c 0,0 0.017,-0.51729 -0.5121801,-0.51926 z"
       id="path902-12"
       inkscape:connector-curvature="0"
       sodipodi:nodetypes="cscscscsc"
       inkscape:transform-center-x="-24.31453"
       inkscape:transform-center-y="-38.432644" />
    <path
       style="opacity:0.98000004;fill:#ffffff;fill-opacity:1;stroke:none;stroke-width:0.26458332px;stroke-linecap:butt;stroke-linejoin:miter;stroke-opacity:1"
       d="m 3.5796122,281.6542 c 0,0 -0.26458,0 -0.26458,0.26458 0,0.26459 0,2.64584 0,2.64584 0,0 0,0.26458 0.26458,0.26458 0.26459,0 2.6458401,0 2.6458401,0 0,0 0.2645799,0 0.2645799,-0.26458 0,-0.26459 0,-2.64584 0,-2.64584 0,0 0,-0.26458 -0.2645799,-0.26458 -0.2645902,0 -2.6458401,0 -2.6458401,0 z"
       id="path904-2"
       inkscape:connector-curvature="0"
       inkscape:transform-center-x="-24.314521"
       inkscape:transform-center-y="-38.441152" />
    <ellipse
       style="opacity:1;fill:#cadaf6;fill-opacity:0.98039216;fill-rule:nonzero;stroke:none;stroke-width:0.46793616;stroke-linecap:round;stroke-linejoin:round;stroke-miterlimit:4;stroke-dasharray:none;stroke-dashoffset:0;stroke-opacity:1;paint-order:fill markers stroke"
       id="path925-4"
       cx="4.8996205"
       cy="283.24597"
       rx="1.0563637"
       ry="1.0493606"
       inkscape:transform-center-x="-24.31161"
       inkscape:transform-center-y="-38.436848" />
    <path
       style="opacity:0.98000004;fill:#4372c3;fill-opacity:1;stroke:none;stroke-width:0.26458332px;stroke-linecap:butt;stroke-linejoin:miter;stroke-opacity:1"
       d="m 9.9296121,281.38962 c 0,0 -0.5291798,0 -0.5291798,0.52917 v 2.64583 c 0,0 -0.01,0.54954 0.5192799,0.54616 l 2.6557298,-0.017 c 0,0 0.51391,0.007 0.51645,-0.52207 l 0.0127,-2.65293 c 0,0 0.017,-0.51729 -0.51218,-0.51926 z"
       id="path902-12-3"
       inkscape:connector-curvature="0"
       sodipodi:nodetypes="cscscscsc"
       inkscape:transform-center-x="-24.31453"
       inkscape:transform-center-y="-38.432644" />
    <path
       style="opacity:0.98000004;fill:#ffffff;fill-opacity:1;stroke:none;stroke-width:0.26458332px;stroke-linecap:butt;stroke-linejoin:miter;stroke-opacity:1"
       d="m 9.9296121,281.6542 c 0,0 -0.2645799,0 -0.2645799,0.26458 0,0.26459 0,2.64584 0,2.64584 0,0 0,0.26458 0.2645799,0.26458 0.2645899,0 2.6458399,0 2.6458399,0 0,0 0.26458,0 0.26458,-0.26458 0,-0.26459 0,-2.64584 0,-2.64584 0,0 0,-0.26458 -0.26458,-0.26458 -0.26459,0 -2.6458399,0 -2.6458399,0 z"
       id="path904-2-4"
       inkscape:connector-curvature="0"
       inkscape:transform-center-x="-24.314521"
       inkscape:transform-center-y="-38.441152" />
    <ellipse
       style="opacity:1;fill:#4372c3;fill-opacity:1;fill-rule:nonzero;stroke:none;stroke-width:0.46793616;stroke-linecap:round;stroke-linejoin:round;stroke-miterlimit:4;stroke-dasharray:none;stroke-dashoffset:0;stroke-opacity:1;paint-order:fill markers stroke"
       id="path925-4-8"
       cx="11.249607"
       cy="283.24597"
       rx="1.0563637"
       ry="1.0493606"
       inkscape:transform-center-x="-24.31161"
       inkscape:transform-center-y="-38.436848" />
    <path
       inkscape:connector-curvature="0"
       id="path917-4-3"
       d="m 5.3491923,282.32879 1.5169599,-1.12245 -0.9052901,-0.0813 -0.5994598,-0.68324 -0.0122,1.88704"
       style="opacity:0.98000004;fill:#4372c3;fill-opacity:1;stroke:none;stroke-width:0.16878529px;stroke-linecap:butt;stroke-linejoin:miter;stroke-opacity:1" />
    <path
       inkscape:connector-curvature="0"
       id="path917-4-3-2"
       d="m 11.070972,284.15486 -1.5174399,1.12181 0.9052499,0.0817 0.59918,0.68351 0.013,-1.88704"
       style="opacity:0.98000004;fill:#4372c3;fill-opacity:1;stroke:none;stroke-width:0.16878529px;stroke-linecap:butt;stroke-linejoin:miter;stroke-opacity:1" />
  </g>
</svg>
