<?xml version="1.0" encoding="UTF-8" standalone="no"?>
<!-- Created with Inkscape (http://www.inkscape.org/) -->

<svg
   xmlns:dc="http://purl.org/dc/elements/1.1/"
   xmlns:cc="http://creativecommons.org/ns#"
   xmlns:rdf="http://www.w3.org/1999/02/22-rdf-syntax-ns#"
   xmlns:svg="http://www.w3.org/2000/svg"
   xmlns="http://www.w3.org/2000/svg"
   xmlns:sodipodi="http://sodipodi.sourceforge.net/DTD/sodipodi-0.dtd"
   xmlns:inkscape="http://www.inkscape.org/namespaces/inkscape"
   width="64pt"
   height="64pt"
   viewBox="0 0 22.577778 22.577776"
   version="1.1"
   id="svg8"
   inkscape:version="0.92.4 (5da689c313, 2019-01-14)"
   sodipodi:docname="swap.svg">
  <defs
     id="defs2" />
  <sodipodi:namedview
     id="base"
     pagecolor="#ffffff"
     bordercolor="#666666"
     borderopacity="1.0"
     inkscape:pageopacity="0.0"
     inkscape:pageshadow="2"
     inkscape:zoom="6.6788445"
     inkscape:cx="36.361604"
     inkscape:cy="21.453619"
     inkscape:document-units="pt"
     inkscape:current-layer="layer1"
     showgrid="true"
     units="pt"
     inkscape:window-width="2170"
     inkscape:window-height="1138"
     inkscape:window-x="99"
     inkscape:window-y="80"
     inkscape:window-maximized="0">
    <inkscape:grid
       type="xygrid"
       id="grid4518" />
  </sodipodi:namedview>
  <metadata
     id="metadata5">
    <rdf:RDF>
      <cc:Work
         rdf:about="">
        <dc:format>image/svg+xml</dc:format>
        <dc:type
           rdf:resource="http://purl.org/dc/dcmitype/StillImage" />
        <dc:title />
      </cc:Work>
    </rdf:RDF>
  </metadata>
  <g
     inkscape:label="Layer 1"
     inkscape:groupmode="layer"
     id="layer1"
     transform="translate(0,-274.42224)"
     style="opacity:0.98">
    <path
       style="opacity:0.98000004;fill:#4372c3;fill-opacity:1;stroke:none;stroke-width:0.26458332px;stroke-linecap:butt;stroke-linejoin:miter;stroke-opacity:1"
       d="m 1.2105724,280.06122 10.0541666,-5.02708 10.054169,5.02708 v 11.37709 l -10.054169,5.02708 -10.0541666,-5.02708 z"
       id="path888-4-8"
       inkscape:connector-curvature="0" />
    <path
       style="opacity:0.98000004;fill:#e1ebff;fill-opacity:1;stroke:none;stroke-width:0.26458332;stroke-linecap:butt;stroke-linejoin:miter;stroke-miterlimit:4;stroke-dasharray:none;stroke-opacity:1"
       d="m 11.264739,276.35706 -8.9958326,4.49791 v 9.78959 l 8.9958326,4.49791 8.995829,-4.49791 v -9.78959 z"
       id="path890-8-4"
       inkscape:connector-curvature="0"
       sodipodi:nodetypes="ccccccc" />
    <path
       style="opacity:0.98000004;fill:#fafaff;fill-opacity:1;stroke:none;stroke-width:0.26458332px;stroke-linecap:butt;stroke-linejoin:miter;stroke-opacity:1"
       d="m 11.264739,276.35706 -8.9958326,4.49791 v 9.78959 l 8.9958326,4.49791 z"
       id="path892-7-4"
       inkscape:connector-curvature="0" />
    <path
       style="opacity:0.98000004;fill:none;fill-opacity:1;stroke:#ffffff;stroke-width:0.26458332;stroke-linecap:butt;stroke-linejoin:miter;stroke-miterlimit:4;stroke-dasharray:none;stroke-opacity:1"
       d="m 11.264739,276.35706 -8.9958326,4.49791 v 9.78959 l 8.9958326,4.49791 8.995829,-4.49791 v -9.78959 z"
       id="path894-7-4"
       inkscape:connector-curvature="0"
       sodipodi:nodetypes="ccccccc" />
    <path
       style="opacity:1;fill:#4372c3;fill-opacity:1;fill-rule:nonzero;stroke:none;stroke-width:0.03527777;stroke-linecap:round;stroke-linejoin:round;stroke-miterlimit:4;stroke-dasharray:none;stroke-dashoffset:0;stroke-opacity:1;paint-order:fill markers stroke"
       d="m 11.211818,281.20746 a 4.630208,4.630208 0 0 0 -4.6302076,4.6302 4.630208,4.630208 0 0 0 4.6302076,4.63021 4.630208,4.630208 0 0 0 4.63021,-4.63021 4.630208,4.630208 0 0 0 -4.63021,-4.6302 z m 0,0.52916 a 4.1010414,4.1010414 0 0 1 4.10104,4.10104 4.1010414,4.1010414 0 0 1 -4.10104,4.10105 4.1010414,4.1010414 0 0 1 -4.1010416,-4.10105 4.1010414,4.1010414 0 0 1 4.1010416,-4.10104 z"
       id="path905-0-9-4"
       inkscape:connector-curvature="0" />
    <path
       style="opacity:0.98000004;fill:#4372c3;fill-opacity:1;stroke:none;stroke-width:0.26458332px;stroke-linecap:butt;stroke-linejoin:miter;stroke-opacity:1"
       d="m 5.3909864,283.58871 c 0,0 -0.52917,0 -0.52917,0.52916 0,0.52917 0,3.175 0,3.175 0,0 0,0.52917 0.52917,0.52917 0.52916,0 3.175,0 3.175,0 0,0 0.52916,0 0.52916,-0.52917 0,-0.52916 0,-3.175 0,-3.175 0,0 0,-0.52916 -0.52916,-0.52916 -0.52917,0 -3.175,0 -3.175,0"
       id="path866-3-1"
       inkscape:connector-curvature="0" />
    <path
       style="opacity:0.98000004;fill:#ffffff;fill-opacity:1;stroke:none;stroke-width:0.26458332px;stroke-linecap:butt;stroke-linejoin:miter;stroke-opacity:1"
       d="m 5.3909864,283.85329 c 0,0 -0.26459,0 -0.26459,0.26458 0,0.26459 0,3.175 0,3.175 0,0 0,0.26459 0.26459,0.26459 0.26458,0 3.175,0 3.175,0 0,0 0.26458,0 0.26458,-0.26459 0,-0.26458 0,-3.175 0,-3.175 0,0 0,-0.26458 -0.26458,-0.26458 -0.26459,0 -3.175,0 -3.175,0"
       id="path868-4-8"
       inkscape:connector-curvature="0" />
    <path
       inkscape:connector-curvature="0"
       id="path874-1-6"
       d="m 13.857648,283.58871 c 0,0 -0.52917,0 -0.52917,0.52916 0,0.52917 0,3.175 0,3.175 0,0 0,0.52917 0.52917,0.52917 0.52916,0 3.175,0 3.175,0 0,0 0.52916,0 0.52916,-0.52917 0,-0.52916 0,-3.175 0,-3.175 0,0 0,-0.52916 -0.52916,-0.52916 -0.52917,0 -3.175,0 -3.175,0"
       style="opacity:0.98000004;fill:#4372c3;fill-opacity:1;stroke:none;stroke-width:0.26458332px;stroke-linecap:butt;stroke-linejoin:miter;stroke-opacity:1" />
    <path
       inkscape:connector-curvature="0"
       id="path876-5-5"
       d="m 13.857648,283.85329 c 0,0 -0.26459,0 -0.26459,0.26458 0,0.26459 0,3.175 0,3.175 0,0 0,0.26459 0.26459,0.26459 0.26458,0 3.175,0 3.175,0 0,0 0.26458,0 0.26458,-0.26459 0,-0.26458 0,-3.175 0,-3.175 0,0 0,-0.26458 -0.26458,-0.26458 -0.26459,0 -3.175,0 -3.175,0"
       style="opacity:0.98000004;fill:#ffffff;fill-opacity:1;stroke:none;stroke-width:0.26458332px;stroke-linecap:butt;stroke-linejoin:miter;stroke-opacity:1" />
    <circle
       r="1.0583333"
       cy="285.70529"
       cx="15.445157"
       id="circle878-3-7"
       style="opacity:1;fill:#4372c3;fill-opacity:1;fill-rule:nonzero;stroke:none;stroke-width:0.35277778;stroke-linecap:round;stroke-linejoin:round;stroke-miterlimit:4;stroke-dasharray:none;stroke-dashoffset:0;stroke-opacity:1;paint-order:fill markers stroke" />
    <path
       inkscape:connector-curvature="0"
       id="path917-4-0"
       d="m 6.9817924,284.55447 2.377943,-1.75952 -1.419105,-0.12752 -0.939692,-1.07103 -0.01915,2.95807"
       style="opacity:0.98000004;fill:#4372c3;fill-opacity:1;stroke:none;stroke-width:0.26458332px;stroke-linecap:butt;stroke-linejoin:miter;stroke-opacity:1" />
    <path
       inkscape:connector-curvature="0"
       id="path917-0-5-1"
       d="m 15.345832,286.8525 -2.27081,1.89578 1.42414,0.0442 1.00081,1.01415 -0.15414,-2.95411"
       style="opacity:0.98000004;fill:#4372c3;fill-opacity:1;stroke:none;stroke-width:0.26458332px;stroke-linecap:butt;stroke-linejoin:miter;stroke-opacity:1" />
    <ellipse
       style="opacity:1;fill:#c9d9f5;fill-opacity:0.98039216;fill-rule:nonzero;stroke:none;stroke-width:0.46793616;stroke-linecap:round;stroke-linejoin:round;stroke-miterlimit:4;stroke-dasharray:none;stroke-dashoffset:0;stroke-opacity:1;paint-order:fill markers stroke"
       id="ellipse953-5-9"
       cx="6.9991651"
       cy="285.70135"
       rx="1.0563637"
       ry="1.0493606" />
  </g>
</svg>
