<?xml version="1.0" encoding="UTF-8" standalone="no"?>
<svg
xmlns:svg="http://www.w3.org/2000/svg"
xmlns="http://www.w3.org/2000/svg"
xmlns:xlink="http://www.w3.org/1999/xlink"
width ="640"
height ="216"
viewBox ="0 0 640 216"
>
<defs><polygon points="0,0 6,8, 0,16 20,8" id="m_tmpl2"/><marker id="token_arrow"  markerUnits="userSpaceOnUse" markerWidth="20" markerHeight="16" viewBox="0 0 20 16" refX="14" refY="8" orient="auto"><use xlink:href="#m_tmpl2" fill="#60a0ff"/></marker></defs><defs><polygon points="0,0 0,4 0,8 12,4" id="m_tmpl3"/><marker id="link_arrow" markerUnits="strokeWidth" markerWidth="12" markerHeight="8" viewBox="0 0 12 8" refX="12" refY="4" orient="auto"><use xlink:href="#m_tmpl3" fill="#888888"/></marker></defs><rect x ="0" y="0" width="600" height="200" fill="#ffffff" stroke="#888888" stroke-width="1"/><g transform="translate(0,0)"><g transform="translate(76,86) scale(1)"><g fill="#ffffff" stroke="#a0a0a0" stroke-width="1"><rect x="-14" y="-14" width="28" height="28" rx="4" ry="4" /><rect x="18" y="-14" width="28" height="28" rx="4" ry="4" /><rect x="50" y="-14" width="28" height="28" rx="4" ry="4" /><rect x="82" y="-14" width="28" height="28" rx="4" ry="4" /><rect x="114" y="-14" width="28" height="28" rx="4" ry="4" /><rect x="146" y="-14" width="28" height="28" rx="4" ry="4" /><rect x="178" y="-14" width="28" height="28" rx="4" ry="4" /><rect x="210" y="-14" width="28" height="28" rx="4" ry="4" /><rect x="242" y="-14" width="28" height="28" rx="4" ry="4" /><rect x="274" y="-14" width="28" height="28" rx="4" ry="4" /><rect x="306" y="-14" width="28" height="28" rx="4" ry="4" /><rect x="338" y="-14" width="28" height="28" rx="4" ry="4" /><rect x="370" y="-14" width="28" height="28" rx="4" ry="4" /><rect x="402" y="-14" width="28" height="28" rx="4" ry="4" /><rect x="434" y="-14" width="28" height="28" rx="4" ry="4" /><rect x="466" y="-14" width="28" height="28" rx="4" ry="4" /></g><g font-size="9" font-family="Verdana" fill="#888888"><text id="" x="0" y="-22" dominant-baseline="central" text-anchor="middle">0</text><text id="" x="32" y="-22" dominant-baseline="central" text-anchor="middle">1</text><text id="" x="64" y="-22" dominant-baseline="central" text-anchor="middle">2</text><text id="" x="96" y="-22" dominant-baseline="central" text-anchor="middle">3</text><text id="" x="128" y="-22" dominant-baseline="central" text-anchor="middle">4</text><text id="" x="160" y="-22" dominant-baseline="central" text-anchor="middle">5</text><text id="" x="192" y="-22" dominant-baseline="central" text-anchor="middle">6</text><text id="" x="224" y="-22" dominant-baseline="central" text-anchor="middle">7</text><text id="" x="256" y="-22" dominant-baseline="central" text-anchor="middle">8</text><text id="" x="288" y="-22" dominant-baseline="central" text-anchor="middle">9</text><text id="" x="320" y="-22" dominant-baseline="central" text-anchor="middle">10</text><text id="" x="352" y="-22" dominant-baseline="central" text-anchor="middle">11</text><text id="" x="384" y="-22" dominant-baseline="central" text-anchor="middle">12</text><text id="" x="416" y="-22" dominant-baseline="central" text-anchor="middle">13</text><text id="" x="448" y="-22" dominant-baseline="central" text-anchor="middle">14</text><text id="" x="480" y="-22" dominant-baseline="central" text-anchor="middle">15</text></g></g><g transform="translate(90,150) scale(1)"><g fill="#ffffff" stroke="#a0a0a0" stroke-width="1"><rect x="-14" y="-14" width="28" height="28" rx="4" ry="4" /></g><g font-size="9" font-family="Verdana" fill="#888888"></g></g><g transform="translate(76,86) scale(1)"><g class="flash_g" fill="#ffd700" stroke="#ffd700" stroke-width="1"><rect x="-14" y="-14" width="28" height="28" rx="4" ry="4" /><rect x="18" y="-14" width="28" height="28" rx="4" ry="4" /><rect x="50" y="-14" width="28" height="28" rx="4" ry="4" /><rect x="82" y="-14" width="28" height="28" rx="4" ry="4" /><rect x="114" y="-14" width="28" height="28" rx="4" ry="4" /><rect x="146" y="-14" width="28" height="28" rx="4" ry="4" /><rect x="178" y="-14" width="28" height="28" rx="4" ry="4" /><rect x="210" y="-14" width="28" height="28" rx="4" ry="4" /><rect x="242" y="-14" width="28" height="28" rx="4" ry="4" /><rect x="274" y="-14" width="28" height="28" rx="4" ry="4" /><rect x="306" y="-14" width="28" height="28" rx="4" ry="4" /><rect x="338" y="-14" width="28" height="28" rx="4" ry="4" /><rect x="370" y="-14" width="28" height="28" rx="4" ry="4" /><rect x="402" y="-14" width="28" height="28" rx="4" ry="4" /><rect x="434" y="-14" width="28" height="28" rx="4" ry="4" /><rect x="466" y="-14" width="28" height="28" rx="4" ry="4" /></g><g fill="none" stroke="#a0a0a0" stroke-width="1"><rect x="-14" y="-14" width="28" height="28" rx="4" ry="4" /><rect x="18" y="-14" width="28" height="28" rx="4" ry="4" /><rect x="50" y="-14" width="28" height="28" rx="4" ry="4" /><rect x="82" y="-14" width="28" height="28" rx="4" ry="4" /><rect x="114" y="-14" width="28" height="28" rx="4" ry="4" /><rect x="146" y="-14" width="28" height="28" rx="4" ry="4" /><rect x="178" y="-14" width="28" height="28" rx="4" ry="4" /><rect x="210" y="-14" width="28" height="28" rx="4" ry="4" /><rect x="242" y="-14" width="28" height="28" rx="4" ry="4" /><rect x="274" y="-14" width="28" height="28" rx="4" ry="4" /><rect x="306" y="-14" width="28" height="28" rx="4" ry="4" /><rect x="338" y="-14" width="28" height="28" rx="4" ry="4" /><rect x="370" y="-14" width="28" height="28" rx="4" ry="4" /><rect x="402" y="-14" width="28" height="28" rx="4" ry="4" /><rect x="434" y="-14" width="28" height="28" rx="4" ry="4" /><rect x="466" y="-14" width="28" height="28" rx="4" ry="4" /></g></g><g transform="translate(90,150) scale(1)"><g class="flash_g" fill="#ff8c00" stroke="#ff8c00" stroke-width="1"><rect x="-14" y="-14" width="28" height="28" rx="4" ry="4" /></g><g fill="none" stroke="#a0a0a0" stroke-width="1"><rect x="-14" y="-14" width="28" height="28" rx="4" ry="4" /></g></g><g transform="translate(76,86) scale(1)"><g stroke-width="0"><circle cx="0" cy="0" r="10" fill="#8CCCFF" id="var_A_2__0" /><circle cx="32" cy="0" r="10" fill="#88C8FF" id="var_A_2__1" /><circle cx="64" cy="0" r="10" fill="#85C5FF" id="var_A_2__2" /><circle cx="96" cy="0" r="10" fill="#7FBFFF" id="var_A_2__3" /><circle cx="128" cy="0" r="10" fill="#7ABAFF" id="var_A_2__4" /><circle cx="160" cy="0" r="10" fill="#73B3FF" id="var_A_2__5" /><circle cx="192" cy="0" r="10" fill="#71B1FF" id="var_A_2__6" /><circle cx="224" cy="0" r="10" fill="#68A8FF" id="var_A_2__7" /><circle cx="256" cy="0" r="10" fill="#66A6FF" id="var_A_2__8" /><circle cx="288" cy="0" r="10" fill="#5F9FFF" id="var_A_2__9" /><circle cx="320" cy="0" r="10" fill="#5B9BFF" id="var_A_2__10" /><circle cx="352" cy="0" r="10" fill="#5494FF" id="var_A_2__11" /><circle cx="384" cy="0" r="10" fill="#4D8DFD" id="var_A_2__12" /><circle cx="416" cy="0" r="10" fill="#4989F9" id="var_A_2__13" /><circle cx="448" cy="0" r="10" fill="#4686F6" id="var_A_2__14" /><circle cx="480" cy="0" r="10" fill="#4080F0" id="var_A_2__15" /></g><g font-size="14" font-family="sans-serif" fill="#ffffff"><text id="text_A_2__0" x="0" y="0" dominant-baseline="central" text-anchor="middle">1</text><text id="text_A_2__1" x="32" y="0" dominant-baseline="central" text-anchor="middle">3</text><text id="text_A_2__2" x="64" y="0" dominant-baseline="central" text-anchor="middle">4</text><text id="text_A_2__3" x="96" y="0" dominant-baseline="central" text-anchor="middle">7</text><text id="text_A_2__4" x="128" y="0" dominant-baseline="central" text-anchor="middle">9</text><text id="text_A_2__5" x="160" y="0" dominant-baseline="central" text-anchor="middle">12</text><text id="text_A_2__6" x="192" y="0" dominant-baseline="central" text-anchor="middle">13</text><text id="text_A_2__7" x="224" y="0" dominant-baseline="central" text-anchor="middle">17</text><text id="text_A_2__8" x="256" y="0" dominant-baseline="central" text-anchor="middle">18</text><text id="text_A_2__9" x="288" y="0" dominant-baseline="central" text-anchor="middle">21</text><text id="text_A_2__10" x="320" y="0" dominant-baseline="central" text-anchor="middle">23</text><text id="text_A_2__11" x="352" y="0" dominant-baseline="central" text-anchor="middle">26</text><text id="text_A_2__12" x="384" y="0" dominant-baseline="central" text-anchor="middle">29</text><text id="text_A_2__13" x="416" y="0" dominant-baseline="central" text-anchor="middle">31</text><text id="text_A_2__14" x="448" y="0" dominant-baseline="central" text-anchor="middle">32</text><text id="text_A_2__15" x="480" y="0" dominant-baseline="central" text-anchor="middle">35</text></g><g font-size="14" font-family="sans-serif" fill="#4080f0"><text id="" x="-28" y="0" dominant-baseline="central" text-anchor="end">A</text></g></g><g transform="translate(90,150) scale(1)"><g stroke-width="0"><circle cx="0" cy="0" r="10" fill="#5494FF" id="var_key_2__0" /></g><g font-size="14" font-family="sans-serif" fill="#ffffff"><text id="text_key_2__0" x="0" y="0" dominant-baseline="central" text-anchor="middle">26</text></g><g font-size="14" font-family="sans-serif" fill="#4080f0"><text id="" x="-28" y="0" dominant-baseline="central" text-anchor="end">key</text></g></g></g><text x="16" y="20" font-size="16" text-anchor="middle" fill="#888888" font-family="sans-serif" >1-1</text><text x="300" y="184" font-size="9" text-anchor="middle" font-family="SimSun, 宋体, serif">输入整数列和目标值</text></svg>

