<?xml version="1.0" encoding="UTF-8" standalone="no"?>
<svg
xmlns:svg="http://www.w3.org/2000/svg"
xmlns="http://www.w3.org/2000/svg"
xmlns:xlink="http://www.w3.org/1999/xlink"
width ="1200"
height ="432"
viewBox ="0 0 1200 432"
>
<defs><polygon points="0,0 6,8, 0,16 20,8" id="m_tmpl2"/><marker id="token_arrow"  markerUnits="userSpaceOnUse" markerWidth="20" markerHeight="16" viewBox="0 0 20 16" refX="14" refY="8" orient="auto"><use xlink:href="#m_tmpl2" fill="#60a0ff"/></marker></defs><defs><polygon points="0,0 0,4 0,8 12,4" id="m_tmpl3"/><marker id="link_arrow" markerUnits="strokeWidth" markerWidth="12" markerHeight="8" viewBox="0 0 12 8" refX="12" refY="4" orient="auto"><use xlink:href="#m_tmpl3" fill="#888888"/></marker></defs><rect x ="0" y="0" width="360" height="200" fill="#ffffff" stroke="#888888" stroke-width="1"/><path fill="#0088e0" d="M 372 100 L 372 80 L 392 100 L 372 120 z" /><g transform="translate(0,0)"><g transform="translate(24,76) scale(1)"><g fill="#ffd0d0" stroke-width="0"><rect x="39" y="-16" width="117" height="32" /></g></g><g transform="translate(24,76) scale(1)"><g fill="#ffffff" stroke="#a0a0a0" stroke-width="1"><rect x="-12" y="-12" width="24" height="24" rx="4" ry="4" /><rect x="16" y="-12" width="24" height="24" rx="4" ry="4" /><rect x="44" y="-12" width="24" height="24" rx="4" ry="4" /><rect x="72" y="-12" width="24" height="24" rx="4" ry="4" /><rect x="100" y="-12" width="24" height="24" rx="4" ry="4" /><rect x="128" y="-12" width="24" height="24" rx="4" ry="4" /><rect x="156" y="-12" width="24" height="24" rx="4" ry="4" /><rect x="184" y="-12" width="24" height="24" rx="4" ry="4" /><rect x="212" y="-12" width="24" height="24" rx="4" ry="4" /><rect x="240" y="-12" width="24" height="24" rx="4" ry="4" /><rect x="268" y="-12" width="24" height="24" rx="4" ry="4" /><rect x="296" y="-12" width="24" height="24" rx="4" ry="4" /></g><g font-size="9" font-family="Verdana" fill="#888888"><text id="" x="0" y="-19" dominant-baseline="central" text-anchor="middle">0</text><text id="" x="28" y="-19" dominant-baseline="central" text-anchor="middle">1</text><text id="" x="56" y="-19" dominant-baseline="central" text-anchor="middle">2</text><text id="" x="84" y="-19" dominant-baseline="central" text-anchor="middle">3</text><text id="" x="112" y="-19" dominant-baseline="central" text-anchor="middle">4</text><text id="" x="140" y="-19" dominant-baseline="central" text-anchor="middle">5</text><text id="" x="168" y="-19" dominant-baseline="central" text-anchor="middle">6</text><text id="" x="196" y="-19" dominant-baseline="central" text-anchor="middle">7</text><text id="" x="224" y="-19" dominant-baseline="central" text-anchor="middle">8</text><text id="" x="252" y="-19" dominant-baseline="central" text-anchor="middle">9</text><text id="" x="280" y="-19" dominant-baseline="central" text-anchor="middle">10</text><text id="" x="308" y="-19" dominant-baseline="central" text-anchor="middle">11</text></g></g><g transform="translate(24,76) scale(1)"><g class="flash_g" fill="#ff8c00" stroke="#ff8c00" stroke-width="1"><rect x="44" y="-12" width="24" height="24" rx="4" ry="4" /></g><g fill="none" stroke="#a0a0a0" stroke-width="1"><rect x="44" y="-12" width="24" height="24" rx="4" ry="4" /></g></g><g transform="translate(24,76) scale(1)"><g class="flash_g" fill="#ffd700" stroke="#ffd700" stroke-width="1"><rect x="156" y="-12" width="24" height="24" rx="4" ry="4" /></g><g fill="none" stroke="#a0a0a0" stroke-width="1"><rect x="156" y="-12" width="24" height="24" rx="4" ry="4" /></g></g><g transform="translate(24,76) scale(1)"><g stroke-width="0"><circle cx="56" cy="0" r="9" fill="#7BBBFF" id="var_A_1__2" /><circle cx="168" cy="0" r="9" fill="#ffaaff" id="var_A_1__6" /></g><g font-size="14" font-family="sans-serif" fill="#ffffff"><text id="text_A_1__2" x="56" y="0" dominant-baseline="central" text-anchor="middle">1</text><text id="text_A_1__6" x="168" y="0" dominant-baseline="central" text-anchor="middle">-1</text></g></g><g stroke="#888888" stroke-width="2"><line x1="68" y1="100" x2="180" y2="100" stroke-linecap="round"/></g></g><text x="16" y="20" font-size="16" text-anchor="middle" fill="#888888" font-family="sans-serif" >1-1</text><text x="180" y="184" font-size="9" text-anchor="middle" font-family="SimSun, 宋体, serif">添加起点为 2，终点为 6 的线段</text><rect x ="400" y="0" width="360" height="200" fill="#ffffff" stroke="#888888" stroke-width="1"/><path fill="#0088e0" d="M 772 100 L 772 80 L 792 100 L 772 120 z" /><g transform="translate(400,0)"><g transform="translate(24,76) scale(1)"><g fill="#ffd0d0" stroke-width="0"><rect x="95" y="-16" width="173" height="32" /></g></g><g transform="translate(24,76) scale(1)"><g fill="#ffffff" stroke="#a0a0a0" stroke-width="1"><rect x="-12" y="-12" width="24" height="24" rx="4" ry="4" /><rect x="16" y="-12" width="24" height="24" rx="4" ry="4" /><rect x="44" y="-12" width="24" height="24" rx="4" ry="4" /><rect x="72" y="-12" width="24" height="24" rx="4" ry="4" /><rect x="100" y="-12" width="24" height="24" rx="4" ry="4" /><rect x="128" y="-12" width="24" height="24" rx="4" ry="4" /><rect x="156" y="-12" width="24" height="24" rx="4" ry="4" /><rect x="184" y="-12" width="24" height="24" rx="4" ry="4" /><rect x="212" y="-12" width="24" height="24" rx="4" ry="4" /><rect x="240" y="-12" width="24" height="24" rx="4" ry="4" /><rect x="268" y="-12" width="24" height="24" rx="4" ry="4" /><rect x="296" y="-12" width="24" height="24" rx="4" ry="4" /></g><g font-size="9" font-family="Verdana" fill="#888888"><text id="" x="0" y="-19" dominant-baseline="central" text-anchor="middle">0</text><text id="" x="28" y="-19" dominant-baseline="central" text-anchor="middle">1</text><text id="" x="56" y="-19" dominant-baseline="central" text-anchor="middle">2</text><text id="" x="84" y="-19" dominant-baseline="central" text-anchor="middle">3</text><text id="" x="112" y="-19" dominant-baseline="central" text-anchor="middle">4</text><text id="" x="140" y="-19" dominant-baseline="central" text-anchor="middle">5</text><text id="" x="168" y="-19" dominant-baseline="central" text-anchor="middle">6</text><text id="" x="196" y="-19" dominant-baseline="central" text-anchor="middle">7</text><text id="" x="224" y="-19" dominant-baseline="central" text-anchor="middle">8</text><text id="" x="252" y="-19" dominant-baseline="central" text-anchor="middle">9</text><text id="" x="280" y="-19" dominant-baseline="central" text-anchor="middle">10</text><text id="" x="308" y="-19" dominant-baseline="central" text-anchor="middle">11</text></g></g><g transform="translate(24,76) scale(1)"><g class="flash_g" fill="#ff8c00" stroke="#ff8c00" stroke-width="1"><rect x="100" y="-12" width="24" height="24" rx="4" ry="4" /></g><g fill="none" stroke="#a0a0a0" stroke-width="1"><rect x="100" y="-12" width="24" height="24" rx="4" ry="4" /></g></g><g transform="translate(24,76) scale(1)"><g class="flash_g" fill="#ffd700" stroke="#ffd700" stroke-width="1"><rect x="268" y="-12" width="24" height="24" rx="4" ry="4" /></g><g fill="none" stroke="#a0a0a0" stroke-width="1"><rect x="268" y="-12" width="24" height="24" rx="4" ry="4" /></g></g><g transform="translate(24,76) scale(1)"><g stroke-width="0"><circle cx="56" cy="0" r="9" fill="#7BBBFF" id="var_A_2__2" /><circle cx="112" cy="0" r="9" fill="#7BBBFF" id="var_A_2__4" /><circle cx="168" cy="0" r="9" fill="#ffaaff" id="var_A_2__6" /><circle cx="280" cy="0" r="9" fill="#ffaaff" id="var_A_2__10" /></g><g font-size="14" font-family="sans-serif" fill="#ffffff"><text id="text_A_2__2" x="56" y="0" dominant-baseline="central" text-anchor="middle">1</text><text id="text_A_2__4" x="112" y="0" dominant-baseline="central" text-anchor="middle">1</text><text id="text_A_2__6" x="168" y="0" dominant-baseline="central" text-anchor="middle">-1</text><text id="text_A_2__10" x="280" y="0" dominant-baseline="central" text-anchor="middle">-1</text></g></g><g stroke="#888888" stroke-width="2"><line x1="68" y1="100" x2="180" y2="100" stroke-linecap="round"/><line x1="124" y1="116" x2="292" y2="116" stroke-linecap="round"/></g></g><text x="416" y="20" font-size="16" text-anchor="middle" fill="#888888" font-family="sans-serif" >1-2</text><text x="580" y="184" font-size="9" text-anchor="middle" font-family="SimSun, 宋体, serif">添加起点为 4，终点为 10 的线段</text><rect x ="800" y="0" width="360" height="200" fill="#ffffff" stroke="#888888" stroke-width="1"/><path fill="#0088e0" d="M 1172 100 L 1172 80 L 1192 100 L 1172 120 z" /><g transform="translate(800,0)"><g transform="translate(24,76) scale(1)"><g fill="#ffd0d0" stroke-width="0"><rect x="123" y="-16" width="117" height="32" /></g></g><g transform="translate(24,76) scale(1)"><g fill="#ffffff" stroke="#a0a0a0" stroke-width="1"><rect x="-12" y="-12" width="24" height="24" rx="4" ry="4" /><rect x="16" y="-12" width="24" height="24" rx="4" ry="4" /><rect x="44" y="-12" width="24" height="24" rx="4" ry="4" /><rect x="72" y="-12" width="24" height="24" rx="4" ry="4" /><rect x="100" y="-12" width="24" height="24" rx="4" ry="4" /><rect x="128" y="-12" width="24" height="24" rx="4" ry="4" /><rect x="156" y="-12" width="24" height="24" rx="4" ry="4" /><rect x="184" y="-12" width="24" height="24" rx="4" ry="4" /><rect x="212" y="-12" width="24" height="24" rx="4" ry="4" /><rect x="240" y="-12" width="24" height="24" rx="4" ry="4" /><rect x="268" y="-12" width="24" height="24" rx="4" ry="4" /><rect x="296" y="-12" width="24" height="24" rx="4" ry="4" /></g><g font-size="9" font-family="Verdana" fill="#888888"><text id="" x="0" y="-19" dominant-baseline="central" text-anchor="middle">0</text><text id="" x="28" y="-19" dominant-baseline="central" text-anchor="middle">1</text><text id="" x="56" y="-19" dominant-baseline="central" text-anchor="middle">2</text><text id="" x="84" y="-19" dominant-baseline="central" text-anchor="middle">3</text><text id="" x="112" y="-19" dominant-baseline="central" text-anchor="middle">4</text><text id="" x="140" y="-19" dominant-baseline="central" text-anchor="middle">5</text><text id="" x="168" y="-19" dominant-baseline="central" text-anchor="middle">6</text><text id="" x="196" y="-19" dominant-baseline="central" text-anchor="middle">7</text><text id="" x="224" y="-19" dominant-baseline="central" text-anchor="middle">8</text><text id="" x="252" y="-19" dominant-baseline="central" text-anchor="middle">9</text><text id="" x="280" y="-19" dominant-baseline="central" text-anchor="middle">10</text><text id="" x="308" y="-19" dominant-baseline="central" text-anchor="middle">11</text></g></g><g transform="translate(24,76) scale(1)"><g class="flash_g" fill="#ff8c00" stroke="#ff8c00" stroke-width="1"><rect x="128" y="-12" width="24" height="24" rx="4" ry="4" /></g><g fill="none" stroke="#a0a0a0" stroke-width="1"><rect x="128" y="-12" width="24" height="24" rx="4" ry="4" /></g></g><g transform="translate(24,76) scale(1)"><g class="flash_g" fill="#ffd700" stroke="#ffd700" stroke-width="1"><rect x="240" y="-12" width="24" height="24" rx="4" ry="4" /></g><g fill="none" stroke="#a0a0a0" stroke-width="1"><rect x="240" y="-12" width="24" height="24" rx="4" ry="4" /></g></g><g transform="translate(24,76) scale(1)"><g stroke-width="0"><circle cx="56" cy="0" r="9" fill="#7BBBFF" id="var_A_3__2" /><circle cx="112" cy="0" r="9" fill="#7BBBFF" id="var_A_3__4" /><circle cx="140" cy="0" r="9" fill="#7BBBFF" id="var_A_3__5" /><circle cx="168" cy="0" r="9" fill="#ffaaff" id="var_A_3__6" /><circle cx="252" cy="0" r="9" fill="#ffaaff" id="var_A_3__9" /><circle cx="280" cy="0" r="9" fill="#ffaaff" id="var_A_3__10" /></g><g font-size="14" font-family="sans-serif" fill="#ffffff"><text id="text_A_3__2" x="56" y="0" dominant-baseline="central" text-anchor="middle">1</text><text id="text_A_3__4" x="112" y="0" dominant-baseline="central" text-anchor="middle">1</text><text id="text_A_3__5" x="140" y="0" dominant-baseline="central" text-anchor="middle">1</text><text id="text_A_3__6" x="168" y="0" dominant-baseline="central" text-anchor="middle">-1</text><text id="text_A_3__9" x="252" y="0" dominant-baseline="central" text-anchor="middle">-1</text><text id="text_A_3__10" x="280" y="0" dominant-baseline="central" text-anchor="middle">-1</text></g></g><g stroke="#888888" stroke-width="2"><line x1="68" y1="100" x2="180" y2="100" stroke-linecap="round"/><line x1="124" y1="116" x2="292" y2="116" stroke-linecap="round"/><line x1="152" y1="132" x2="264" y2="132" stroke-linecap="round"/></g></g><text x="816" y="20" font-size="16" text-anchor="middle" fill="#888888" font-family="sans-serif" >1-3</text><text x="980" y="184" font-size="9" text-anchor="middle" font-family="SimSun, 宋体, serif">添加起点为 5，终点为 9 的线段</text><rect x ="0" y="216" width="360" height="200" fill="#ffffff" stroke="#888888" stroke-width="1"/><g transform="translate(0,216)"><g transform="translate(24,76) scale(1)"><g fill="#ffd0d0" stroke-width="0"><rect x="95" y="-16" width="89" height="32" /></g></g><g transform="translate(24,76) scale(1)"><g fill="#ffffff" stroke="#a0a0a0" stroke-width="1"><rect x="-12" y="-12" width="24" height="24" rx="4" ry="4" /><rect x="16" y="-12" width="24" height="24" rx="4" ry="4" /><rect x="44" y="-12" width="24" height="24" rx="4" ry="4" /><rect x="72" y="-12" width="24" height="24" rx="4" ry="4" /><rect x="100" y="-12" width="24" height="24" rx="4" ry="4" /><rect x="128" y="-12" width="24" height="24" rx="4" ry="4" /><rect x="156" y="-12" width="24" height="24" rx="4" ry="4" /><rect x="184" y="-12" width="24" height="24" rx="4" ry="4" /><rect x="212" y="-12" width="24" height="24" rx="4" ry="4" /><rect x="240" y="-12" width="24" height="24" rx="4" ry="4" /><rect x="268" y="-12" width="24" height="24" rx="4" ry="4" /><rect x="296" y="-12" width="24" height="24" rx="4" ry="4" /></g><g font-size="9" font-family="Verdana" fill="#888888"><text id="" x="0" y="-19" dominant-baseline="central" text-anchor="middle">0</text><text id="" x="28" y="-19" dominant-baseline="central" text-anchor="middle">1</text><text id="" x="56" y="-19" dominant-baseline="central" text-anchor="middle">2</text><text id="" x="84" y="-19" dominant-baseline="central" text-anchor="middle">3</text><text id="" x="112" y="-19" dominant-baseline="central" text-anchor="middle">4</text><text id="" x="140" y="-19" dominant-baseline="central" text-anchor="middle">5</text><text id="" x="168" y="-19" dominant-baseline="central" text-anchor="middle">6</text><text id="" x="196" y="-19" dominant-baseline="central" text-anchor="middle">7</text><text id="" x="224" y="-19" dominant-baseline="central" text-anchor="middle">8</text><text id="" x="252" y="-19" dominant-baseline="central" text-anchor="middle">9</text><text id="" x="280" y="-19" dominant-baseline="central" text-anchor="middle">10</text><text id="" x="308" y="-19" dominant-baseline="central" text-anchor="middle">11</text></g></g><g transform="translate(24,76) scale(1)"><g class="flash_g" fill="#ff8c00" stroke="#ff8c00" stroke-width="1"><rect x="100" y="-12" width="24" height="24" rx="4" ry="4" /></g><g fill="none" stroke="#a0a0a0" stroke-width="1"><rect x="100" y="-12" width="24" height="24" rx="4" ry="4" /></g></g><g transform="translate(24,76) scale(1)"><g class="flash_g" fill="#ffd700" stroke="#ffd700" stroke-width="1"><rect x="184" y="-12" width="24" height="24" rx="4" ry="4" /></g><g fill="none" stroke="#a0a0a0" stroke-width="1"><rect x="184" y="-12" width="24" height="24" rx="4" ry="4" /></g></g><g transform="translate(24,76) scale(1)"><g stroke-width="0"><circle cx="56" cy="0" r="9" fill="#7BBBFF" id="var_A_4__2" /><circle cx="112" cy="0" r="9" fill="#67A7FF" id="var_A_4__4" /><circle cx="140" cy="0" r="9" fill="#7BBBFF" id="var_A_4__5" /><circle cx="168" cy="0" r="9" fill="#ffaaff" id="var_A_4__6" /><circle cx="196" cy="0" r="9" fill="#ffaaff" id="var_A_4__7" /><circle cx="252" cy="0" r="9" fill="#ffaaff" id="var_A_4__9" /><circle cx="280" cy="0" r="9" fill="#ffaaff" id="var_A_4__10" /></g><g font-size="14" font-family="sans-serif" fill="#ffffff"><text id="text_A_4__2" x="56" y="0" dominant-baseline="central" text-anchor="middle">1</text><text id="text_A_4__4" x="112" y="0" dominant-baseline="central" text-anchor="middle">2</text><text id="text_A_4__5" x="140" y="0" dominant-baseline="central" text-anchor="middle">1</text><text id="text_A_4__6" x="168" y="0" dominant-baseline="central" text-anchor="middle">-1</text><text id="text_A_4__7" x="196" y="0" dominant-baseline="central" text-anchor="middle">-1</text><text id="text_A_4__9" x="252" y="0" dominant-baseline="central" text-anchor="middle">-1</text><text id="text_A_4__10" x="280" y="0" dominant-baseline="central" text-anchor="middle">-1</text></g></g><g stroke="#888888" stroke-width="2"><line x1="68" y1="100" x2="180" y2="100" stroke-linecap="round"/><line x1="124" y1="116" x2="292" y2="116" stroke-linecap="round"/><line x1="152" y1="132" x2="264" y2="132" stroke-linecap="round"/><line x1="124" y1="148" x2="208" y2="148" stroke-linecap="round"/></g></g><text x="16" y="236" font-size="16" text-anchor="middle" fill="#888888" font-family="sans-serif" >1-4</text><text x="180" y="400" font-size="9" text-anchor="middle" font-family="SimSun, 宋体, serif">添加起点为 4，终点为 7 的线段</text></svg>

