<?xml version='1.0' encoding='UTF-8'?>
<svg width="49mm" height="49mm" version="1.1" viewBox="0 0 49 49" xmlns="http://www.w3.org/2000/svg"><path d="M4,4H5V5H4zM5,4H6V5H5zM6,4H7V5H6zM7,4H8V5H7zM8,4H9V5H8zM9,4H10V5H9zM10,4H11V5H10zM12,4H13V5H12zM13,4H14V5H13zM14,4H15V5H14zM17,4H18V5H17zM19,4H20V5H19zM21,4H22V5H21zM22,4H23V5H22zM26,4H27V5H26zM29,4H30V5H29zM31,4H32V5H31zM34,4H35V5H34zM38,4H39V5H38zM39,4H40V5H39zM40,4H41V5H40zM41,4H42V5H41zM42,4H43V5H42zM43,4H44V5H43zM44,4H45V5H44zM4,5H5V6H4zM10,5H11V6H10zM12,5H13V6H12zM13,5H14V6H13zM14,5H15V6H14zM16,5H17V6H16zM18,5H19V6H18zM20,5H21V6H20zM22,5H23V6H22zM23,5H24V6H23zM25,5H26V6H25zM26,5H27V6H26zM29,5H30V6H29zM30,5H31V6H30zM33,5H34V6H33zM35,5H36V6H35zM38,5H39V6H38zM44,5H45V6H44zM4,6H5V7H4zM6,6H7V7H6zM7,6H8V7H7zM8,6H9V7H8zM10,6H11V7H10zM12,6H13V7H12zM13,6H14V7H13zM15,6H16V7H15zM20,6H21V7H20zM24,6H25V7H24zM26,6H27V7H26zM29,6H30V7H29zM30,6H31V7H30zM31,6H32V7H31zM32,6H33V7H32zM33,6H34V7H33zM34,6H35V7H34zM36,6H37V7H36zM38,6H39V7H38zM40,6H41V7H40zM41,6H42V7H41zM42,6H43V7H42zM44,6H45V7H44zM4,7H5V8H4zM6,7H7V8H6zM7,7H8V8H7zM8,7H9V8H8zM10,7H11V8H10zM13,7H14V8H13zM14,7H15V8H14zM16,7H17V8H16zM20,7H21V8H20zM22,7H23V8H22zM23,7H24V8H23zM24,7H25V8H24zM28,7H29V8H28zM30,7H31V8H30zM36,7H37V8H36zM38,7H39V8H38zM40,7H41V8H40zM41,7H42V8H41zM42,7H43V8H42zM44,7H45V8H44zM4,8H5V9H4zM6,8H7V9H6zM7,8H8V9H7zM8,8H9V9H8zM10,8H11V9H10zM12,8H13V9H12zM13,8H14V9H13zM16,8H17V9H16zM18,8H19V9H18zM23,8H24V9H23zM25,8H26V9H25zM28,8H29V9H28zM33,8H34V9H33zM34,8H35V9H34zM35,8H36V9H35zM38,8H39V9H38zM40,8H41V9H40zM41,8H42V9H41zM42,8H43V9H42zM44,8H45V9H44zM4,9H5V10H4zM10,9H11V10H10zM13,9H14V10H13zM16,9H17V10H16zM17,9H18V10H17zM18,9H19V10H18zM25,9H26V10H25zM27,9H28V10H27zM30,9H31V10H30zM32,9H33V10H32zM38,9H39V10H38zM44,9H45V10H44zM4,10H5V11H4zM5,10H6V11H5zM6,10H7V11H6zM7,10H8V11H7zM8,10H9V11H8zM9,10H10V11H9zM10,10H11V11H10zM12,10H13V11H12zM14,10H15V11H14zM16,10H17V11H16zM18,10H19V11H18zM20,10H21V11H20zM22,10H23V11H22zM24,10H25V11H24zM26,10H27V11H26zM28,10H29V11H28zM30,10H31V11H30zM32,10H33V11H32zM34,10H35V11H34zM36,10H37V11H36zM38,10H39V11H38zM39,10H40V11H39zM40,10H41V11H40zM41,10H42V11H41zM42,10H43V11H42zM43,10H44V11H43zM44,10H45V11H44zM13,11H14V12H13zM14,11H15V12H14zM15,11H16V12H15zM17,11H18V12H17zM20,11H21V12H20zM22,11H23V12H22zM23,11H24V12H23zM26,11H27V12H26zM28,11H29V12H28zM29,11H30V12H29zM30,11H31V12H30zM31,11H32V12H31zM36,11H37V12H36zM4,12H5V13H4zM7,12H8V13H7zM8,12H9V13H8zM9,12H10V13H9zM10,12H11V13H10zM11,12H12V13H11zM12,12H13V13H12zM13,12H14V13H13zM20,12H21V13H20zM21,12H22V13H21zM26,12H27V13H26zM28,12H29V13H28zM30,12H31V13H30zM31,12H32V13H31zM33,12H34V13H33zM35,12H36V13H35zM36,12H37V13H36zM37,12H38V13H37zM40,12H41V13H40zM42,12H43V13H42zM43,12H44V13H43zM44,12H45V13H44zM4,13H5V14H4zM5,13H6V14H5zM6,13H7V14H6zM7,13H8V14H7zM8,13H9V14H8zM11,13H12V14H11zM12,13H13V14H12zM14,13H15V14H14zM15,13H16V14H15zM17,13H18V14H17zM18,13H19V14H18zM20,13H21V14H20zM22,13H23V14H22zM23,13H24V14H23zM24,13H25V14H24zM25,13H26V14H25zM26,13H27V14H26zM27,13H28V14H27zM29,13H30V14H29zM31,13H32V14H31zM33,13H34V14H33zM35,13H36V14H35zM40,13H41V14H40zM4,14H5V15H4zM5,14H6V15H5zM7,14H8V15H7zM9,14H10V15H9zM10,14H11V15H10zM11,14H12V15H11zM14,14H15V15H14zM15,14H16V15H15zM18,14H19V15H18zM20,14H21V15H20zM26,14H27V15H26zM27,14H28V15H27zM28,14H29V15H28zM30,14H31V15H30zM31,14H32V15H31zM32,14H33V15H32zM37,14H38V15H37zM38,14H39V15H38zM42,14H43V15H42zM6,15H7V16H6zM7,15H8V16H7zM8,15H9V16H8zM9,15H10V16H9zM11,15H12V16H11zM12,15H13V16H12zM13,15H14V16H13zM14,15H15V16H14zM16,15H17V16H16zM17,15H18V16H17zM19,15H20V16H19zM21,15H22V16H21zM24,15H25V16H24zM26,15H27V16H26zM30,15H31V16H30zM32,15H33V16H32zM33,15H34V16H33zM35,15H36V16H35zM36,15H37V16H36zM38,15H39V16H38zM39,15H40V16H39zM40,15H41V16H40zM41,15H42V16H41zM4,16H5V17H4zM7,16H8V17H7zM9,16H10V17H9zM10,16H11V17H10zM11,16H12V17H11zM13,16H14V17H13zM15,16H16V17H15zM17,16H18V17H17zM19,16H20V17H19zM24,16H25V17H24zM26,16H27V17H26zM30,16H31V17H30zM32,16H33V17H32zM36,16H37V17H36zM38,16H39V17H38zM39,16H40V17H39zM5,17H6V18H5zM12,17H13V18H12zM13,17H14V18H13zM14,17H15V18H14zM15,17H16V18H15zM20,17H21V18H20zM21,17H22V18H21zM22,17H23V18H22zM23,17H24V18H23zM25,17H26V18H25zM26,17H27V18H26zM28,17H29V18H28zM32,17H33V18H32zM33,17H34V18H33zM34,17H35V18H34zM35,17H36V18H35zM36,17H37V18H36zM37,17H38V18H37zM38,17H39V18H38zM39,17H40V18H39zM40,17H41V18H40zM41,17H42V18H41zM42,17H43V18H42zM43,17H44V18H43zM44,17H45V18H44zM4,18H5V19H4zM7,18H8V19H7zM8,18H9V19H8zM9,18H10V19H9zM10,18H11V19H10zM11,18H12V19H11zM13,18H14V19H13zM15,18H16V19H15zM16,18H17V19H16zM17,18H18V19H17zM19,18H20V19H19zM20,18H21V19H20zM21,18H22V19H21zM25,18H26V19H25zM30,18H31V19H30zM32,18H33V19H32zM33,18H34V19H33zM35,18H36V19H35zM37,18H38V19H37zM38,18H39V19H38zM40,18H41V19H40zM42,18H43V19H42zM44,18H45V19H44zM4,19H5V20H4zM5,19H6V20H5zM7,19H8V20H7zM8,19H9V20H8zM9,19H10V20H9zM14,19H15V20H14zM16,19H17V20H16zM17,19H18V20H17zM19,19H20V20H19zM20,19H21V20H20zM22,19H23V20H22zM23,19H24V20H23zM26,19H27V20H26zM28,19H29V20H28zM31,19H32V20H31zM34,19H35V20H34zM37,19H38V20H37zM39,19H40V20H39zM40,19H41V20H40zM41,19H42V20H41zM42,19H43V20H42zM43,19H44V20H43zM44,19H45V20H44zM4,20H5V21H4zM7,20H8V21H7zM8,20H9V21H8zM9,20H10V21H9zM10,20H11V21H10zM11,20H12V21H11zM13,20H14V21H13zM14,20H15V21H14zM15,20H16V21H15zM17,20H18V21H17zM22,20H23V21H22zM23,20H24V21H23zM24,20H25V21H24zM26,20H27V21H26zM27,20H28V21H27zM29,20H30V21H29zM32,20H33V21H32zM35,20H36V21H35zM37,20H38V21H37zM41,20H42V21H41zM43,20H44V21H43zM44,20H45V21H44zM4,21H5V22H4zM6,21H7V22H6zM7,21H8V22H7zM8,21H9V22H8zM9,21H10V22H9zM11,21H12V22H11zM14,21H15V22H14zM18,21H19V22H18zM20,21H21V22H20zM22,21H23V22H22zM23,21H24V22H23zM24,21H25V22H24zM26,21H27V22H26zM29,21H30V22H29zM30,21H31V22H30zM31,21H32V22H31zM33,21H34V22H33zM34,21H35V22H34zM35,21H36V22H35zM36,21H37V22H36zM37,21H38V22H37zM40,21H41V22H40zM41,21H42V22H41zM43,21H44V22H43zM4,22H5V23H4zM5,22H6V23H5zM7,22H8V23H7zM8,22H9V23H8zM10,22H11V23H10zM13,22H14V23H13zM14,22H15V23H14zM15,22H16V23H15zM16,22H17V23H16zM20,22H21V23H20zM23,22H24V23H23zM25,22H26V23H25zM26,22H27V23H26zM27,22H28V23H27zM31,22H32V23H31zM33,22H34V23H33zM34,22H35V23H34zM35,22H36V23H35zM37,22H38V23H37zM39,22H40V23H39zM40,22H41V23H40zM41,22H42V23H41zM42,22H43V23H42zM44,22H45V23H44zM4,23H5V24H4zM9,23H10V24H9zM11,23H12V24H11zM16,23H17V24H16zM18,23H19V24H18zM20,23H21V24H20zM21,23H22V24H21zM22,23H23V24H22zM23,23H24V24H23zM24,23H25V24H24zM26,23H27V24H26zM30,23H31V24H30zM37,23H38V24H37zM40,23H41V24H40zM42,23H43V24H42zM43,23H44V24H43zM44,23H45V24H44zM4,24H5V25H4zM6,24H7V25H6zM7,24H8V25H7zM10,24H11V25H10zM13,24H14V25H13zM16,24H17V25H16zM17,24H18V25H17zM19,24H20V25H19zM20,24H21V25H20zM25,24H26V25H25zM26,24H27V25H26zM27,24H28V25H27zM29,24H30V25H29zM30,24H31V25H30zM31,24H32V25H31zM34,24H35V25H34zM38,24H39V25H38zM41,24H42V25H41zM42,24H43V25H42zM5,25H6V26H5zM7,25H8V26H7zM11,25H12V26H11zM15,25H16V26H15zM17,25H18V26H17zM18,25H19V26H18zM19,25H20V26H19zM22,25H23V26H22zM23,25H24V26H23zM25,25H26V26H25zM27,25H28V26H27zM28,25H29V26H28zM30,25H31V26H30zM31,25H32V26H31zM32,25H33V26H32zM35,25H36V26H35zM39,25H40V26H39zM40,25H41V26H40zM4,26H5V27H4zM5,26H6V27H5zM6,26H7V27H6zM8,26H9V27H8zM10,26H11V27H10zM11,26H12V27H11zM12,26H13V27H12zM17,26H18V27H17zM18,26H19V27H18zM19,26H20V27H19zM22,26H23V27H22zM26,26H27V27H26zM27,26H28V27H27zM31,26H32V27H31zM32,26H33V27H32zM38,26H39V27H38zM39,26H40V27H39zM41,26H42V27H41zM42,26H43V27H42zM4,27H5V28H4zM5,27H6V28H5zM6,27H7V28H6zM7,27H8V28H7zM8,27H9V28H8zM9,27H10V28H9zM13,27H14V28H13zM16,27H17V28H16zM17,27H18V28H17zM18,27H19V28H18zM19,27H20V28H19zM21,27H22V28H21zM26,27H27V28H26zM30,27H31V28H30zM31,27H32V28H31zM33,27H34V28H33zM35,27H36V28H35zM36,27H37V28H36zM37,27H38V28H37zM41,27H42V28H41zM44,27H45V28H44zM4,28H5V29H4zM6,28H7V29H6zM10,28H11V29H10zM11,28H12V29H11zM12,28H13V29H12zM13,28H14V29H13zM14,28H15V29H14zM18,28H19V29H18zM23,28H24V29H23zM24,28H25V29H24zM28,28H29V29H28zM32,28H33V29H32zM36,28H37V29H36zM38,28H39V29H38zM41,28H42V29H41zM43,28H44V29H43zM4,29H5V30H4zM13,29H14V30H13zM14,29H15V30H14zM19,29H20V30H19zM20,29H21V30H20zM21,29H22V30H21zM22,29H23V30H22zM27,29H28V30H27zM29,29H30V30H29zM31,29H32V30H31zM32,29H33V30H32zM33,29H34V30H33zM36,29H37V30H36zM38,29H39V30H38zM39,29H40V30H39zM40,29H41V30H40zM42,29H43V30H42zM44,29H45V30H44zM4,30H5V31H4zM9,30H10V31H9zM10,30H11V31H10zM11,30H12V31H11zM13,30H14V31H13zM14,30H15V31H14zM15,30H16V31H15zM17,30H18V31H17zM18,30H19V31H18zM19,30H20V31H19zM20,30H21V31H20zM21,30H22V31H21zM23,30H24V31H23zM24,30H25V31H24zM25,30H26V31H25zM26,30H27V31H26zM29,30H30V31H29zM30,30H31V31H30zM31,30H32V31H31zM32,30H33V31H32zM33,30H34V31H33zM35,30H36V31H35zM36,30H37V31H36zM38,30H39V31H38zM39,30H40V31H39zM40,30H41V31H40zM41,30H42V31H41zM44,30H45V31H44zM5,31H6V32H5zM7,31H8V32H7zM11,31H12V32H11zM13,31H14V32H13zM15,31H16V32H15zM16,31H17V32H16zM18,31H19V32H18zM23,31H24V32H23zM26,31H27V32H26zM28,31H29V32H28zM31,31H32V32H31zM35,31H36V32H35zM38,31H39V32H38zM39,31H40V32H39zM41,31H42V32H41zM42,31H43V32H42zM43,31H44V32H43zM44,31H45V32H44zM4,32H5V33H4zM6,32H7V33H6zM8,32H9V33H8zM10,32H11V33H10zM15,32H16V33H15zM16,32H17V33H16zM18,32H19V33H18zM23,32H24V33H23zM28,32H29V33H28zM29,32H30V33H29zM30,32H31V33H30zM32,32H33V33H32zM35,32H36V33H35zM36,32H37V33H36zM41,32H42V33H41zM43,32H44V33H43zM4,33H5V34H4zM5,33H6V34H5zM7,33H8V34H7zM8,33H9V34H8zM12,33H13V34H12zM13,33H14V34H13zM14,33H15V34H14zM16,33H17V34H16zM17,33H18V34H17zM18,33H19V34H18zM19,33H20V34H19zM26,33H27V34H26zM27,33H28V34H27zM30,33H31V34H30zM32,33H33V34H32zM34,33H35V34H34zM35,33H36V34H35zM36,33H37V34H36zM40,33H41V34H40zM41,33H42V34H41zM4,34H5V35H4zM5,34H6V35H5zM7,34H8V35H7zM10,34H11V35H10zM13,34H14V35H13zM14,34H15V35H14zM15,34H16V35H15zM16,34H17V35H16zM18,34H19V35H18zM23,34H24V35H23zM25,34H26V35H25zM26,34H27V35H26zM28,34H29V35H28zM30,34H31V35H30zM31,34H32V35H31zM33,34H34V35H33zM34,34H35V35H34zM35,34H36V35H35zM37,34H38V35H37zM40,34H41V35H40zM41,34H42V35H41zM42,34H43V35H42zM44,34H45V35H44zM4,35H5V36H4zM5,35H6V36H5zM7,35H8V36H7zM8,35H9V36H8zM9,35H10V36H9zM11,35H12V36H11zM13,35H14V36H13zM15,35H16V36H15zM16,35H17V36H16zM17,35H18V36H17zM18,35H19V36H18zM19,35H20V36H19zM20,35H21V36H20zM23,35H24V36H23zM24,35H25V36H24zM26,35H27V36H26zM27,35H28V36H27zM29,35H30V36H29zM34,35H35V36H34zM35,35H36V36H35zM38,35H39V36H38zM40,35H41V36H40zM42,35H43V36H42zM44,35H45V36H44zM4,36H5V37H4zM5,36H6V37H5zM8,36H9V37H8zM9,36H10V37H9zM10,36H11V37H10zM11,36H12V37H11zM12,36H13V37H12zM14,36H15V37H14zM16,36H17V37H16zM17,36H18V37H17zM19,36H20V37H19zM20,36H21V37H20zM21,36H22V37H21zM23,36H24V37H23zM27,36H28V37H27zM28,36H29V37H28zM30,36H31V37H30zM31,36H32V37H31zM32,36H33V37H32zM33,36H34V37H33zM36,36H37V37H36zM37,36H38V37H37zM38,36H39V37H38zM39,36H40V37H39zM40,36H41V37H40zM41,36H42V37H41zM42,36H43V37H42zM43,36H44V37H43zM44,36H45V37H44zM12,37H13V38H12zM16,37H17V38H16zM17,37H18V38H17zM20,37H21V38H20zM22,37H23V38H22zM23,37H24V38H23zM25,37H26V38H25zM27,37H28V38H27zM30,37H31V38H30zM31,37H32V38H31zM33,37H34V38H33zM34,37H35V38H34zM36,37H37V38H36zM40,37H41V38H40zM4,38H5V39H4zM5,38H6V39H5zM6,38H7V39H6zM7,38H8V39H7zM8,38H9V39H8zM9,38H10V39H9zM10,38H11V39H10zM12,38H13V39H12zM13,38H14V39H13zM14,38H15V39H14zM17,38H18V39H17zM19,38H20V39H19zM20,38H21V39H20zM21,38H22V39H21zM22,38H23V39H22zM24,38H25V39H24zM26,38H27V39H26zM27,38H28V39H27zM30,38H31V39H30zM31,38H32V39H31zM32,38H33V39H32zM35,38H36V39H35zM36,38H37V39H36zM38,38H39V39H38zM40,38H41V39H40zM42,38H43V39H42zM43,38H44V39H43zM4,39H5V40H4zM10,39H11V40H10zM12,39H13V40H12zM13,39H14V40H13zM14,39H15V40H14zM15,39H16V40H15zM16,39H17V40H16zM18,39H19V40H18zM19,39H20V40H19zM21,39H22V40H21zM24,39H25V40H24zM25,39H26V40H25zM26,39H27V40H26zM27,39H28V40H27zM28,39H29V40H28zM30,39H31V40H30zM34,39H35V40H34zM35,39H36V40H35zM36,39H37V40H36zM40,39H41V40H40zM41,39H42V40H41zM4,40H5V41H4zM6,40H7V41H6zM7,40H8V41H7zM8,40H9V41H8zM10,40H11V41H10zM12,40H13V41H12zM14,40H15V41H14zM15,40H16V41H15zM16,40H17V41H16zM19,40H20V41H19zM21,40H22V41H21zM22,40H23V41H22zM23,40H24V41H23zM24,40H25V41H24zM25,40H26V41H25zM28,40H29V41H28zM29,40H30V41H29zM30,40H31V41H30zM31,40H32V41H31zM32,40H33V41H32zM33,40H34V41H33zM35,40H36V41H35zM36,40H37V41H36zM37,40H38V41H37zM38,40H39V41H38zM39,40H40V41H39zM40,40H41V41H40zM41,40H42V41H41zM4,41H5V42H4zM6,41H7V42H6zM7,41H8V42H7zM8,41H9V42H8zM10,41H11V42H10zM12,41H13V42H12zM13,41H14V42H13zM14,41H15V42H14zM18,41H19V42H18zM19,41H20V42H19zM20,41H21V42H20zM27,41H28V42H27zM28,41H29V42H28zM29,41H30V42H29zM31,41H32V42H31zM34,41H35V42H34zM35,41H36V42H35zM36,41H37V42H36zM39,41H40V42H39zM43,41H44V42H43zM4,42H5V43H4zM6,42H7V43H6zM7,42H8V43H7zM8,42H9V43H8zM10,42H11V43H10zM13,42H14V43H13zM14,42H15V43H14zM16,42H17V43H16zM17,42H18V43H17zM18,42H19V43H18zM20,42H21V43H20zM21,42H22V43H21zM22,42H23V43H22zM23,42H24V43H23zM24,42H25V43H24zM26,42H27V43H26zM28,42H29V43H28zM31,42H32V43H31zM33,42H34V43H33zM37,42H38V43H37zM39,42H40V43H39zM40,42H41V43H40zM44,42H45V43H44zM4,43H5V44H4zM10,43H11V44H10zM14,43H15V44H14zM22,43H23V44H22zM23,43H24V44H23zM30,43H31V44H30zM31,43H32V44H31zM32,43H33V44H32zM38,43H39V44H38zM40,43H41V44H40zM42,43H43V44H42zM44,43H45V44H44zM4,44H5V45H4zM5,44H6V45H5zM6,44H7V45H6zM7,44H8V45H7zM8,44H9V45H8zM9,44H10V45H9zM10,44H11V45H10zM12,44H13V45H12zM14,44H15V45H14zM16,44H17V45H16zM18,44H19V45H18zM21,44H22V45H21zM22,44H23V45H22zM23,44H24V45H23zM24,44H25V45H24zM26,44H27V45H26zM27,44H28V45H27zM28,44H29V45H28zM29,44H30V45H29zM34,44H35V45H34zM36,44H37V45H36zM38,44H39V45H38zM40,44H41V45H40z" id="qr-path" fill="#000000" fill-opacity="1" fill-rule="nonzero" stroke="none"/></svg>