<?xml version="1.0" encoding="UTF-8" standalone="no"?>
<svg
xmlns:svg="http://www.w3.org/2000/svg"
xmlns="http://www.w3.org/2000/svg"
xmlns:xlink="http://www.w3.org/1999/xlink"
width ="640"
height ="276"
viewBox ="0 0 640 276"
>
<defs><polygon points="0,0 6,8, 0,16 20,8" id="m_tmpl2"/><marker id="token_arrow"  markerUnits="userSpaceOnUse" markerWidth="20" markerHeight="16" viewBox="0 0 20 16" refX="14" refY="8" orient="auto"><use xlink:href="#m_tmpl2" fill="#60a0ff"/></marker></defs><defs><polygon points="0,0 0,4 0,8 12,4" id="m_tmpl3"/><marker id="link_arrow" markerUnits="strokeWidth" markerWidth="12" markerHeight="8" viewBox="0 0 12 8" refX="12" refY="4" orient="auto"><use xlink:href="#m_tmpl3" fill="#888888"/></marker></defs><rect x ="0" y="0" width="280" height="260" fill="#ffffff" stroke="#888888" stroke-width="1"/><g transform="translate(0,0)"><g transform="translate(0,0) scale(1)"><g stroke="#c8e8ff" stroke-width="0" fill="#c8e8ff"><circle cx="50" cy="50" r="22" /><circle cx="120" cy="30" r="22" /><circle cx="100" cy="100" r="22" /><circle cx="30" cy="140" r="22" /><circle cx="80" cy="170" r="22" /><circle cx="170" cy="100" r="22" /><circle cx="220" cy="170" r="22" /></g><g stroke="#c8e8ff" stroke-width="44.8" fill="#c8e8ff"><line x1="50" y1="50" x2="120" y2="30" stroke-linecap="round"/><line x1="50" y1="50" x2="100" y2="100" stroke-linecap="round"/><line x1="50" y1="50" x2="80" y2="170" stroke-linecap="round"/><line x1="50" y1="50" x2="30" y2="140" stroke-linecap="round"/><line x1="120" y1="30" x2="50" y2="50" stroke-linecap="round"/><line x1="120" y1="30" x2="100" y2="100" stroke-linecap="round"/><line x1="120" y1="30" x2="170" y2="100" stroke-linecap="round"/><line x1="100" y1="100" x2="50" y2="50" stroke-linecap="round"/><line x1="100" y1="100" x2="120" y2="30" stroke-linecap="round"/><line x1="100" y1="100" x2="80" y2="170" stroke-linecap="round"/><line x1="100" y1="100" x2="170" y2="100" stroke-linecap="round"/><line x1="100" y1="100" x2="220" y2="170" stroke-linecap="round"/><line x1="30" y1="140" x2="50" y2="50" stroke-linecap="round"/><line x1="30" y1="140" x2="80" y2="170" stroke-linecap="round"/><line x1="80" y1="170" x2="50" y2="50" stroke-linecap="round"/><line x1="80" y1="170" x2="100" y2="100" stroke-linecap="round"/><line x1="80" y1="170" x2="30" y2="140" stroke-linecap="round"/><line x1="80" y1="170" x2="220" y2="170" stroke-linecap="round"/><line x1="170" y1="100" x2="120" y2="30" stroke-linecap="round"/><line x1="170" y1="100" x2="100" y2="100" stroke-linecap="round"/><line x1="170" y1="100" x2="220" y2="170" stroke-linecap="round"/><line x1="220" y1="170" x2="100" y2="100" stroke-linecap="round"/><line x1="220" y1="170" x2="80" y2="170" stroke-linecap="round"/><line x1="220" y1="170" x2="170" y2="100" stroke-linecap="round"/></g></g><g transform="translate(0,0) scale(1)"><g stroke="#888888" stroke-width="8"><line x1="100" y1="100" x2="120" y2="30" stroke-linecap="round"/><line x1="50" y1="50" x2="100" y2="100" stroke-linecap="round"/><line x1="80" y1="170" x2="30" y2="140" stroke-linecap="round"/><line x1="100" y1="100" x2="80" y2="170" stroke-linecap="round"/><line x1="120" y1="30" x2="170" y2="100" stroke-linecap="round"/><line x1="80" y1="170" x2="220" y2="170" stroke-linecap="round"/></g></g><g transform="translate(0,0) scale(1)"><g fill="#ffffff" stroke="#a0a0a0" stroke-width="1"><line x1="50" y1="50" x2="120" y2="30" stroke-linecap="round"/><line x1="50" y1="50" x2="100" y2="100" stroke-linecap="round"/><line x1="50" y1="50" x2="80" y2="170" stroke-linecap="round"/><line x1="50" y1="50" x2="30" y2="140" stroke-linecap="round"/><line x1="120" y1="30" x2="50" y2="50" stroke-linecap="round"/><line x1="120" y1="30" x2="100" y2="100" stroke-linecap="round"/><line x1="120" y1="30" x2="170" y2="100" stroke-linecap="round"/><line x1="100" y1="100" x2="50" y2="50" stroke-linecap="round"/><line x1="100" y1="100" x2="120" y2="30" stroke-linecap="round"/><line x1="100" y1="100" x2="80" y2="170" stroke-linecap="round"/><line x1="100" y1="100" x2="170" y2="100" stroke-linecap="round"/><line x1="100" y1="100" x2="220" y2="170" stroke-linecap="round"/><line x1="30" y1="140" x2="50" y2="50" stroke-linecap="round"/><line x1="30" y1="140" x2="80" y2="170" stroke-linecap="round"/><line x1="80" y1="170" x2="50" y2="50" stroke-linecap="round"/><line x1="80" y1="170" x2="100" y2="100" stroke-linecap="round"/><line x1="80" y1="170" x2="30" y2="140" stroke-linecap="round"/><line x1="80" y1="170" x2="220" y2="170" stroke-linecap="round"/><line x1="170" y1="100" x2="120" y2="30" stroke-linecap="round"/><line x1="170" y1="100" x2="100" y2="100" stroke-linecap="round"/><line x1="170" y1="100" x2="220" y2="170" stroke-linecap="round"/><line x1="220" y1="170" x2="100" y2="100" stroke-linecap="round"/><line x1="220" y1="170" x2="80" y2="170" stroke-linecap="round"/><line x1="220" y1="170" x2="170" y2="100" stroke-linecap="round"/><circle cx="50" cy="50" r="14" /><circle cx="120" cy="30" r="14" /><circle cx="100" cy="100" r="14" /><circle cx="30" cy="140" r="14" /><circle cx="80" cy="170" r="14" /><circle cx="170" cy="100" r="14" /><circle cx="220" cy="170" r="14" /><rect x="79" y="34" width="12" height="12" rx="2" ry="2" /><rect x="69" y="69" width="12" height="12" rx="2" ry="2" /><rect x="59" y="104" width="12" height="12" rx="2" ry="2" /><rect x="34" y="89" width="12" height="12" rx="2" ry="2" /><rect x="79" y="34" width="12" height="12" rx="2" ry="2" /><rect x="104" y="59" width="12" height="12" rx="2" ry="2" /><rect x="139" y="59" width="12" height="12" rx="2" ry="2" /><rect x="69" y="69" width="12" height="12" rx="2" ry="2" /><rect x="104" y="59" width="12" height="12" rx="2" ry="2" /><rect x="84" y="129" width="12" height="12" rx="2" ry="2" /><rect x="129" y="94" width="12" height="12" rx="2" ry="2" /><rect x="154" y="129" width="12" height="12" rx="2" ry="2" /><rect x="34" y="89" width="12" height="12" rx="2" ry="2" /><rect x="49" y="149" width="12" height="12" rx="2" ry="2" /><rect x="59" y="104" width="12" height="12" rx="2" ry="2" /><rect x="84" y="129" width="12" height="12" rx="2" ry="2" /><rect x="49" y="149" width="12" height="12" rx="2" ry="2" /><rect x="144" y="164" width="12" height="12" rx="2" ry="2" /><rect x="139" y="59" width="12" height="12" rx="2" ry="2" /><rect x="129" y="94" width="12" height="12" rx="2" ry="2" /><rect x="189" y="129" width="12" height="12" rx="2" ry="2" /><rect x="154" y="129" width="12" height="12" rx="2" ry="2" /><rect x="144" y="164" width="12" height="12" rx="2" ry="2" /><rect x="189" y="129" width="12" height="12" rx="2" ry="2" /></g><g font-size="9" font-family="Verdana" fill="#888888"><text id="" x="50" y="24" dominant-baseline="central" text-anchor="middle">0</text><text id="" x="120" y="4" dominant-baseline="central" text-anchor="middle">1</text><text id="" x="100" y="74" dominant-baseline="central" text-anchor="middle">2</text><text id="" x="30" y="114" dominant-baseline="central" text-anchor="middle">3</text><text id="" x="80" y="144" dominant-baseline="central" text-anchor="middle">4</text><text id="" x="170" y="74" dominant-baseline="central" text-anchor="middle">5</text><text id="" x="220" y="144" dominant-baseline="central" text-anchor="middle">6</text></g></g><g transform="translate(0,0) scale(1)"><g class="flash_g" fill="#ffffff" stroke="#ffd700" stroke-width="2"><circle cx="50" cy="50" r="14" /><circle cx="120" cy="30" r="14" /><circle cx="100" cy="100" r="14" /><circle cx="30" cy="140" r="14" /><circle cx="80" cy="170" r="14" /><circle cx="170" cy="100" r="14" /><circle cx="220" cy="170" r="14" /></g></g><g transform="translate(0,0) scale(1)"><g font-size="11" font-family="sans-serif" fill="#888888"><text id="" x="85" y="40" dominant-baseline="central" text-anchor="middle">3</text><text id="" x="75" y="75" dominant-baseline="central" text-anchor="middle">1</text><text id="" x="65" y="110" dominant-baseline="central" text-anchor="middle">11</text><text id="" x="40" y="95" dominant-baseline="central" text-anchor="middle">9</text><text id="" x="85" y="40" dominant-baseline="central" text-anchor="middle">3</text><text id="" x="110" y="65" dominant-baseline="central" text-anchor="middle">1</text><text id="" x="145" y="65" dominant-baseline="central" text-anchor="middle">4</text><text id="" x="75" y="75" dominant-baseline="central" text-anchor="middle">1</text><text id="" x="110" y="65" dominant-baseline="central" text-anchor="middle">1</text><text id="" x="90" y="135" dominant-baseline="central" text-anchor="middle">2</text><text id="" x="135" y="100" dominant-baseline="central" text-anchor="middle">8</text><text id="" x="160" y="135" dominant-baseline="central" text-anchor="middle">7</text><text id="" x="40" y="95" dominant-baseline="central" text-anchor="middle">9</text><text id="" x="55" y="155" dominant-baseline="central" text-anchor="middle">2</text><text id="" x="65" y="110" dominant-baseline="central" text-anchor="middle">11</text><text id="" x="90" y="135" dominant-baseline="central" text-anchor="middle">2</text><text id="" x="55" y="155" dominant-baseline="central" text-anchor="middle">2</text><text id="" x="150" y="170" dominant-baseline="central" text-anchor="middle">3</text><text id="" x="145" y="65" dominant-baseline="central" text-anchor="middle">4</text><text id="" x="135" y="100" dominant-baseline="central" text-anchor="middle">8</text><text id="" x="195" y="135" dominant-baseline="central" text-anchor="middle">1</text><text id="" x="160" y="135" dominant-baseline="central" text-anchor="middle">7</text><text id="" x="150" y="170" dominant-baseline="central" text-anchor="middle">3</text><text id="" x="195" y="135" dominant-baseline="central" text-anchor="middle">1</text></g></g><g transform="translate(0,0) scale(1)"><g stroke-width="0"><circle cx="120" cy="30" r="10" fill="#66c088" id="var_parent_1__1" /><circle cx="100" cy="100" r="10" fill="#66c088" id="var_parent_1__2" /><circle cx="30" cy="140" r="10" fill="#66c088" id="var_parent_1__3" /><circle cx="80" cy="170" r="10" fill="#66c088" id="var_parent_1__4" /><circle cx="170" cy="100" r="10" fill="#66c088" id="var_parent_1__5" /><circle cx="220" cy="170" r="10" fill="#66c088" id="var_parent_1__6" /></g><g font-size="14" font-family="sans-serif" fill="#ffffff"><text id="text_parent_1__1" x="120" y="30" dominant-baseline="central" text-anchor="middle">2</text><text id="text_parent_1__2" x="100" y="100" dominant-baseline="central" text-anchor="middle">0</text><text id="text_parent_1__3" x="30" y="140" dominant-baseline="central" text-anchor="middle">4</text><text id="text_parent_1__4" x="80" y="170" dominant-baseline="central" text-anchor="middle">2</text><text id="text_parent_1__5" x="170" y="100" dominant-baseline="central" text-anchor="middle">1</text><text id="text_parent_1__6" x="220" y="170" dominant-baseline="central" text-anchor="middle">4</text></g></g></g><text x="16" y="20" font-size="16" text-anchor="middle" fill="#888888" font-family="sans-serif" >3-1</text><text x="140" y="244" font-size="9" text-anchor="middle" font-family="SimSun, 宋体, serif">使用 parent 构建最短路径树</text></svg>

