<?xml version="1.0" encoding="UTF-8" standalone="no"?>
<svg
xmlns:svg="http://www.w3.org/2000/svg"
xmlns="http://www.w3.org/2000/svg"
xmlns:xlink="http://www.w3.org/1999/xlink"
width ="640"
height ="216"
viewBox ="0 0 640 216"
>
<defs><polygon points="0,0 6,8, 0,16 20,8" id="m_tmpl2"/><marker id="token_arrow"  markerUnits="userSpaceOnUse" markerWidth="20" markerHeight="16" viewBox="0 0 20 16" refX="14" refY="8" orient="auto"><use xlink:href="#m_tmpl2" fill="#60a0ff"/></marker></defs><defs><polygon points="0,0 0,4 0,8 12,4" id="m_tmpl3"/><marker id="link_arrow" markerUnits="strokeWidth" markerWidth="12" markerHeight="8" viewBox="0 0 12 8" refX="12" refY="4" orient="auto"><use xlink:href="#m_tmpl3" fill="#888888"/></marker></defs><rect x ="0" y="0" width="280" height="200" fill="#ffffff" stroke="#888888" stroke-width="1"/><g transform="translate(0,0)"><g transform="translate(28,150) scale(1)"><g fill="#ffffff" stroke="#a0a0a0" stroke-width="1"><rect x="-14" y="-14" width="28" height="28" rx="4" ry="4" /><rect x="18" y="-14" width="28" height="28" rx="4" ry="4" /><rect x="50" y="-14" width="28" height="28" rx="4" ry="4" /><rect x="82" y="-14" width="28" height="28" rx="4" ry="4" /><rect x="114" y="-14" width="28" height="28" rx="4" ry="4" /><rect x="146" y="-14" width="28" height="28" rx="4" ry="4" /><rect x="178" y="-14" width="28" height="28" rx="4" ry="4" /><rect x="210" y="-14" width="28" height="28" rx="4" ry="4" /></g><g font-size="9" font-family="Verdana" fill="#888888"><text id="" x="0" y="-22" dominant-baseline="central" text-anchor="middle">0</text><text id="" x="32" y="-22" dominant-baseline="central" text-anchor="middle">1</text><text id="" x="64" y="-22" dominant-baseline="central" text-anchor="middle">2</text><text id="" x="96" y="-22" dominant-baseline="central" text-anchor="middle">3</text><text id="" x="128" y="-22" dominant-baseline="central" text-anchor="middle">4</text><text id="" x="160" y="-22" dominant-baseline="central" text-anchor="middle">5</text><text id="" x="192" y="-22" dominant-baseline="central" text-anchor="middle">6</text><text id="" x="224" y="-22" dominant-baseline="central" text-anchor="middle">7</text></g></g><g transform="translate(28,150) scale(1)"><g class="flash_g" fill="#ffd700" stroke="#ffd700" stroke-width="1"><rect x="-14" y="-14" width="28" height="28" rx="4" ry="4" /><rect x="18" y="-14" width="28" height="28" rx="4" ry="4" /><rect x="50" y="-14" width="28" height="28" rx="4" ry="4" /><rect x="82" y="-14" width="28" height="28" rx="4" ry="4" /><rect x="114" y="-14" width="28" height="28" rx="4" ry="4" /><rect x="146" y="-14" width="28" height="28" rx="4" ry="4" /><rect x="178" y="-14" width="28" height="28" rx="4" ry="4" /><rect x="210" y="-14" width="28" height="28" rx="4" ry="4" /></g><g fill="none" stroke="#a0a0a0" stroke-width="1"><rect x="-14" y="-14" width="28" height="28" rx="4" ry="4" /><rect x="18" y="-14" width="28" height="28" rx="4" ry="4" /><rect x="50" y="-14" width="28" height="28" rx="4" ry="4" /><rect x="82" y="-14" width="28" height="28" rx="4" ry="4" /><rect x="114" y="-14" width="28" height="28" rx="4" ry="4" /><rect x="146" y="-14" width="28" height="28" rx="4" ry="4" /><rect x="178" y="-14" width="28" height="28" rx="4" ry="4" /><rect x="210" y="-14" width="28" height="28" rx="4" ry="4" /></g></g><g transform="translate(28,150) scale(1)"><g stroke-width="0"><circle cx="0" cy="0" r="10" fill="#4080F0" id="var_A_1__0" /><circle cx="32" cy="0" r="10" fill="#5F9FFF" id="var_A_1__1" /><circle cx="64" cy="0" r="10" fill="#4F8FFF" id="var_A_1__2" /><circle cx="96" cy="0" r="10" fill="#4787F7" id="var_A_1__3" /><circle cx="128" cy="0" r="10" fill="#6FAFFF" id="var_A_1__4" /><circle cx="160" cy="0" r="10" fill="#77B7FF" id="var_A_1__5" /><circle cx="192" cy="0" r="10" fill="#7FBFFF" id="var_A_1__6" /><circle cx="224" cy="0" r="10" fill="#87C7FF" id="var_A_1__7" /></g><g font-size="14" font-family="sans-serif" fill="#ffffff"><text id="text_A_1__0" x="0" y="0" dominant-baseline="central" text-anchor="middle">10</text><text id="text_A_1__1" x="32" y="0" dominant-baseline="central" text-anchor="middle">6</text><text id="text_A_1__2" x="64" y="0" dominant-baseline="central" text-anchor="middle">8</text><text id="text_A_1__3" x="96" y="0" dominant-baseline="central" text-anchor="middle">9</text><text id="text_A_1__4" x="128" y="0" dominant-baseline="central" text-anchor="middle">4</text><text id="text_A_1__5" x="160" y="0" dominant-baseline="central" text-anchor="middle">3</text><text id="text_A_1__6" x="192" y="0" dominant-baseline="central" text-anchor="middle">2</text><text id="text_A_1__7" x="224" y="0" dominant-baseline="central" text-anchor="middle">1</text></g></g><g transform="translate(28,150) scale(1)"><g fill="#4080f0" stroke-width="0"><rect x="-10" y="-106" width="20" height="70" opacity="1" rx="2" ry="2" id="bar__0" /><rect x="22" y="-78" width="20" height="42" opacity="0.6" rx="2" ry="2" id="bar__1" /><rect x="54" y="-92" width="20" height="56" opacity="0.8" rx="2" ry="2" id="bar__2" /><rect x="86" y="-99" width="20" height="63" opacity="0.9" rx="2" ry="2" id="bar__3" /><rect x="118" y="-64" width="20" height="28" opacity="0.4" rx="2" ry="2" id="bar__4" /><rect x="150" y="-57" width="20" height="21" opacity="0.3" rx="2" ry="2" id="bar__5" /><rect x="182" y="-50" width="20" height="14" opacity="0.2" rx="2" ry="2" id="bar__6" /><rect x="214" y="-43" width="20" height="7" opacity="0.1" rx="2" ry="2" id="bar__7" /></g></g></g><text x="16" y="20" font-size="16" text-anchor="middle" fill="#888888" font-family="sans-serif" >1-1</text><text x="140" y="184" font-size="9" text-anchor="middle" font-family="SimSun, 宋体, serif">输入整数列</text></svg>

