<?xml version="1.0" encoding="UTF-8" standalone="no"?>
<svg
xmlns:svg="http://www.w3.org/2000/svg"
xmlns="http://www.w3.org/2000/svg"
xmlns:xlink="http://www.w3.org/1999/xlink"
width ="800"
height ="216"
viewBox ="0 0 800 216"
>
<defs><polygon points="0,0 6,8, 0,16 20,8" id="m_tmpl2"/><marker id="token_arrow"  markerUnits="userSpaceOnUse" markerWidth="20" markerHeight="16" viewBox="0 0 20 16" refX="14" refY="8" orient="auto"><use xlink:href="#m_tmpl2" fill="#60a0ff"/></marker></defs><defs><polygon points="0,0 0,4 0,8 12,4" id="m_tmpl3"/><marker id="link_arrow" markerUnits="strokeWidth" markerWidth="12" markerHeight="8" viewBox="0 0 12 8" refX="12" refY="4" orient="auto"><use xlink:href="#m_tmpl3" fill="#888888"/></marker></defs><rect x ="0" y="0" width="360" height="200" fill="#ffffff" stroke="#888888" stroke-width="1"/><g transform="translate(0,0)"><g transform="translate(10,25) scale(1)"><g fill="none" stroke="#a0a0a0" stroke-width="1"><path d="M 30.7623 54.6921 Q 53.4853 43.4853 64.6921 20.7623"  marker-end="url(#link_arrow)"/><path d="M 23.6548 71.4299 Q 34.824 106.36 61.3275 131.706"  marker-end="url(#link_arrow)"/><path d="M 31.8275 62.0276 Q 90 72 148.173 62.0276"  marker-end="url(#link_arrow)"/><path d="M 78.893 18.057 Q 109.172 45.4899 148.461 56.7059"  marker-end="url(#link_arrow)"/><path d="M 59.2377 15.3079 Q 36.5147 26.5147 25.3079 49.2377"  marker-end="url(#link_arrow)"/><path d="M 67.8214 21.8006 Q 58 75 67.8214 128.199"  marker-end="url(#link_arrow)"/><path d="M 72.1786 128.199 Q 82 75 72.1786 21.8006"  marker-end="url(#link_arrow)"/><path d="M 80.3542 133.935 Q 122.972 108.969 152.762 69.5717"  marker-end="url(#link_arrow)"/><path d="M 66.3452 128.57 Q 55.176 93.64 28.6725 68.2938"  marker-end="url(#link_arrow)"/><path d="M 148.173 57.9724 Q 90 48 31.8275 57.9724"  marker-end="url(#link_arrow)"/><path d="M 151.107 51.943 Q 120.828 24.5101 81.539 13.2941"  marker-end="url(#link_arrow)"/><path d="M 149.646 66.0655 Q 107.028 91.0311 77.2376 130.428"  marker-end="url(#link_arrow)"/></g><g fill="#ffffff" stroke="#a0a0a0" stroke-width="1"><circle cx="20" cy="60" r="12" /><circle cx="70" cy="10" r="12" /><circle cx="70" cy="140" r="12" /><circle cx="160" cy="60" r="12" /><rect x="43" y="33" width="12" height="12" rx="2" ry="2" /><rect x="33" y="97" width="12" height="12" rx="2" ry="2" /><rect x="84" y="60" width="12" height="12" rx="2" ry="2" /><rect x="106" y="34" width="12" height="12" rx="2" ry="2" /><rect x="34" y="24" width="12" height="12" rx="2" ry="2" /><rect x="58" y="69" width="12" height="12" rx="2" ry="2" /><rect x="70" y="69" width="12" height="12" rx="2" ry="2" /><rect x="112" y="98" width="12" height="12" rx="2" ry="2" /><rect x="44" y="90" width="12" height="12" rx="2" ry="2" /><rect x="84" y="48" width="12" height="12" rx="2" ry="2" /><rect x="111" y="23" width="12" height="12" rx="2" ry="2" /><rect x="105" y="89" width="12" height="12" rx="2" ry="2" /></g><g font-size="9" font-family="Verdana" fill="#888888"><text id="" x="20" y="38" dominant-baseline="central" text-anchor="middle">0</text><text id="" x="70" y="-11" dominant-baseline="central" text-anchor="middle">1</text><text id="" x="70" y="118" dominant-baseline="central" text-anchor="middle">2</text><text id="" x="160" y="38" dominant-baseline="central" text-anchor="middle">3</text></g></g><g transform="translate(230,50) scale(1)"><g fill="#ffffff" stroke="#a0a0a0" stroke-width="1"><rect x="-14" y="-14" width="28" height="28" rx="0" ry="0" /><rect x="18" y="-14" width="28" height="28" rx="0" ry="0" /><rect x="50" y="-14" width="28" height="28" rx="0" ry="0" /><rect x="82" y="-14" width="28" height="28" rx="0" ry="0" /><rect x="-14" y="18" width="28" height="28" rx="0" ry="0" /><rect x="18" y="18" width="28" height="28" rx="0" ry="0" /><rect x="50" y="18" width="28" height="28" rx="0" ry="0" /><rect x="82" y="18" width="28" height="28" rx="0" ry="0" /><rect x="-14" y="50" width="28" height="28" rx="0" ry="0" /><rect x="18" y="50" width="28" height="28" rx="0" ry="0" /><rect x="50" y="50" width="28" height="28" rx="0" ry="0" /><rect x="82" y="50" width="28" height="28" rx="0" ry="0" /><rect x="-14" y="82" width="28" height="28" rx="0" ry="0" /><rect x="18" y="82" width="28" height="28" rx="0" ry="0" /><rect x="50" y="82" width="28" height="28" rx="0" ry="0" /><rect x="82" y="82" width="28" height="28" rx="0" ry="0" /></g><g font-size="9" font-family="Verdana" fill="#888888"><text id="" x="0" y="-25" dominant-baseline="central" text-anchor="middle">0</text><text id="" x="32" y="-25" dominant-baseline="central" text-anchor="middle">1</text><text id="" x="64" y="-25" dominant-baseline="central" text-anchor="middle">2</text><text id="" x="96" y="-25" dominant-baseline="central" text-anchor="middle">3</text><text id="" x="-25" y="0" dominant-baseline="end" text-anchor="middle">0</text><text id="" x="-25" y="32" dominant-baseline="end" text-anchor="middle">1</text><text id="" x="-25" y="64" dominant-baseline="end" text-anchor="middle">2</text><text id="" x="-25" y="96" dominant-baseline="end" text-anchor="middle">3</text></g></g><g transform="translate(230,50) scale(1)"><g class="flash_g" fill="#ffffff" stroke="#ffd700" stroke-width="2"><rect x="-14" y="-14" width="28" height="28" rx="0" ry="0" /><rect x="18" y="-14" width="28" height="28" rx="0" ry="0" /><rect x="50" y="-14" width="28" height="28" rx="0" ry="0" /><rect x="82" y="-14" width="28" height="28" rx="0" ry="0" /><rect x="-14" y="18" width="28" height="28" rx="0" ry="0" /><rect x="18" y="18" width="28" height="28" rx="0" ry="0" /><rect x="50" y="18" width="28" height="28" rx="0" ry="0" /><rect x="82" y="18" width="28" height="28" rx="0" ry="0" /><rect x="-14" y="50" width="28" height="28" rx="0" ry="0" /><rect x="18" y="50" width="28" height="28" rx="0" ry="0" /><rect x="50" y="50" width="28" height="28" rx="0" ry="0" /><rect x="82" y="50" width="28" height="28" rx="0" ry="0" /><rect x="-14" y="82" width="28" height="28" rx="0" ry="0" /><rect x="18" y="82" width="28" height="28" rx="0" ry="0" /><rect x="50" y="82" width="28" height="28" rx="0" ry="0" /><rect x="82" y="82" width="28" height="28" rx="0" ry="0" /></g></g><g transform="translate(10,25) scale(1)"><g font-size="11" font-family="sans-serif" fill="#888888"><text id="" x="49" y="39" dominant-baseline="central" text-anchor="middle">3</text><text id="" x="39" y="103" dominant-baseline="central" text-anchor="middle">1</text><text id="" x="90" y="66" dominant-baseline="central" text-anchor="middle">10</text><text id="" x="112" y="40" dominant-baseline="central" text-anchor="middle">7</text><text id="" x="40" y="30" dominant-baseline="central" text-anchor="middle">10</text><text id="" x="64" y="75" dominant-baseline="central" text-anchor="middle">11</text><text id="" x="76" y="75" dominant-baseline="central" text-anchor="middle">2</text><text id="" x="118" y="104" dominant-baseline="central" text-anchor="middle">9</text><text id="" x="50" y="96" dominant-baseline="central" text-anchor="middle">12</text><text id="" x="90" y="54" dominant-baseline="central" text-anchor="middle">3</text><text id="" x="117" y="29" dominant-baseline="central" text-anchor="middle">6</text><text id="" x="111" y="95" dominant-baseline="central" text-anchor="middle">4</text></g></g><g transform="translate(230,50) scale(1)"><g stroke-width="0"><circle cx="0" cy="0" r="10" fill="#8FCFFF" id="var_dist_12__0" /><circle cx="32" cy="0" r="10" fill="#80C0FF" id="var_dist_12__1" /><circle cx="64" cy="0" r="10" fill="#8ACAFF" id="var_dist_12__2" /><circle cx="96" cy="0" r="10" fill="#5D9DFF" id="var_dist_12__3" /><circle cx="0" cy="32" r="10" fill="#5D9DFF" id="var_dist_12__4" /><circle cx="32" cy="32" r="10" fill="#8FCFFF" id="var_dist_12__5" /><circle cx="64" cy="32" r="10" fill="#5898FF" id="var_dist_12__6" /><circle cx="96" cy="32" r="10" fill="#6CACFF" id="var_dist_12__7" /><circle cx="0" cy="64" r="10" fill="#5393FF" id="var_dist_12__8" /><circle cx="32" cy="64" r="10" fill="#85C5FF" id="var_dist_12__9" /><circle cx="64" cy="64" r="10" fill="#8FCFFF" id="var_dist_12__10" /><circle cx="96" cy="64" r="10" fill="#62A2FF" id="var_dist_12__11" /><circle cx="0" cy="96" r="10" fill="#80C0FF" id="var_dist_12__12" /><circle cx="32" cy="96" r="10" fill="#71B1FF" id="var_dist_12__13" /><circle cx="64" cy="96" r="10" fill="#7BBBFF" id="var_dist_12__14" /><circle cx="96" cy="96" r="10" fill="#8FCFFF" id="var_dist_12__15" /></g><g font-size="14" font-family="sans-serif" fill="#ffffff"><text id="text_dist_12__0" x="0" y="0" dominant-baseline="central" text-anchor="middle">0</text><text id="text_dist_12__1" x="32" y="0" dominant-baseline="central" text-anchor="middle">3</text><text id="text_dist_12__2" x="64" y="0" dominant-baseline="central" text-anchor="middle">1</text><text id="text_dist_12__3" x="96" y="0" dominant-baseline="central" text-anchor="middle">10</text><text id="text_dist_12__4" x="0" y="32" dominant-baseline="central" text-anchor="middle">10</text><text id="text_dist_12__5" x="32" y="32" dominant-baseline="central" text-anchor="middle">0</text><text id="text_dist_12__6" x="64" y="32" dominant-baseline="central" text-anchor="middle">11</text><text id="text_dist_12__7" x="96" y="32" dominant-baseline="central" text-anchor="middle">7</text><text id="text_dist_12__8" x="0" y="64" dominant-baseline="central" text-anchor="middle">12</text><text id="text_dist_12__9" x="32" y="64" dominant-baseline="central" text-anchor="middle">2</text><text id="text_dist_12__10" x="64" y="64" dominant-baseline="central" text-anchor="middle">0</text><text id="text_dist_12__11" x="96" y="64" dominant-baseline="central" text-anchor="middle">9</text><text id="text_dist_12__12" x="0" y="96" dominant-baseline="central" text-anchor="middle">3</text><text id="text_dist_12__13" x="32" y="96" dominant-baseline="central" text-anchor="middle">6</text><text id="text_dist_12__14" x="64" y="96" dominant-baseline="central" text-anchor="middle">4</text><text id="text_dist_12__15" x="96" y="96" dominant-baseline="central" text-anchor="middle">0</text></g></g></g><text x="16" y="20" font-size="16" text-anchor="middle" fill="#888888" font-family="sans-serif" >3-1</text><text x="180" y="184" font-size="9" text-anchor="middle" font-family="SimSun, 宋体, serif">输出矩阵</text></svg>

