<?xml version='1.0' encoding='UTF-8'?>
<svg width="45mm" height="45mm" version="1.1" viewBox="0 0 45 45" xmlns="http://www.w3.org/2000/svg">
    <path d="M4,4H5V5H4zM5,4H6V5H5zM6,4H7V5H6zM7,4H8V5H7zM8,4H9V5H8zM9,4H10V5H9zM10,4H11V5H10zM12,4H13V5H12zM14,4H15V5H14zM20,4H21V5H20zM21,4H22V5H21zM25,4H26V5H25zM27,4H28V5H27zM34,4H35V5H34zM35,4H36V5H35zM36,4H37V5H36zM37,4H38V5H37zM38,4H39V5H38zM39,4H40V5H39zM40,4H41V5H40zM4,5H5V6H4zM10,5H11V6H10zM12,5H13V6H12zM16,5H17V6H16zM17,5H18V6H17zM22,5H23V6H22zM25,5H26V6H25zM27,5H28V6H27zM29,5H30V6H29zM30,5H31V6H30zM32,5H33V6H32zM34,5H35V6H34zM40,5H41V6H40zM4,6H5V7H4zM6,6H7V7H6zM7,6H8V7H7zM8,6H9V7H8zM10,6H11V7H10zM14,6H15V7H14zM15,6H16V7H15zM18,6H19V7H18zM19,6H20V7H19zM20,6H21V7H20zM22,6H23V7H22zM23,6H24V7H23zM27,6H28V7H27zM28,6H29V7H28zM29,6H30V7H29zM31,6H32V7H31zM32,6H33V7H32zM34,6H35V7H34zM36,6H37V7H36zM37,6H38V7H37zM38,6H39V7H38zM40,6H41V7H40zM4,7H5V8H4zM6,7H7V8H6zM7,7H8V8H7zM8,7H9V8H8zM10,7H11V8H10zM12,7H13V8H12zM16,7H17V8H16zM18,7H19V8H18zM20,7H21V8H20zM21,7H22V8H21zM26,7H27V8H26zM27,7H28V8H27zM28,7H29V8H28zM29,7H30V8H29zM30,7H31V8H30zM31,7H32V8H31zM32,7H33V8H32zM34,7H35V8H34zM36,7H37V8H36zM37,7H38V8H37zM38,7H39V8H38zM40,7H41V8H40zM4,8H5V9H4zM6,8H7V9H6zM7,8H8V9H7zM8,8H9V9H8zM10,8H11V9H10zM13,8H14V9H13zM16,8H17V9H16zM19,8H20V9H19zM23,8H24V9H23zM24,8H25V9H24zM25,8H26V9H25zM28,8H29V9H28zM29,8H30V9H29zM30,8H31V9H30zM31,8H32V9H31zM32,8H33V9H32zM34,8H35V9H34zM36,8H37V9H36zM37,8H38V9H37zM38,8H39V9H38zM40,8H41V9H40zM4,9H5V10H4zM10,9H11V10H10zM13,9H14V10H13zM14,9H15V10H14zM16,9H17V10H16zM18,9H19V10H18zM19,9H20V10H19zM20,9H21V10H20zM21,9H22V10H21zM22,9H23V10H22zM23,9H24V10H23zM24,9H25V10H24zM26,9H27V10H26zM30,9H31V10H30zM34,9H35V10H34zM40,9H41V10H40zM4,10H5V11H4zM5,10H6V11H5zM6,10H7V11H6zM7,10H8V11H7zM8,10H9V11H8zM9,10H10V11H9zM10,10H11V11H10zM12,10H13V11H12zM14,10H15V11H14zM16,10H17V11H16zM18,10H19V11H18zM20,10H21V11H20zM22,10H23V11H22zM24,10H25V11H24zM26,10H27V11H26zM28,10H29V11H28zM30,10H31V11H30zM32,10H33V11H32zM34,10H35V11H34zM35,10H36V11H35zM36,10H37V11H36zM37,10H38V11H37zM38,10H39V11H38zM39,10H40V11H39zM40,10H41V11H40zM12,11H13V12H12zM13,11H14V12H13zM14,11H15V12H14zM17,11H18V12H17zM18,11H19V12H18zM19,11H20V12H19zM20,11H21V12H20zM23,11H24V12H23zM24,11H25V12H24zM26,11H27V12H26zM28,11H29V12H28zM32,11H33V12H32zM4,12H5V13H4zM6,12H7V13H6zM7,12H8V13H7zM9,12H10V13H9zM10,12H11V13H10zM11,12H12V13H11zM17,12H18V13H17zM18,12H19V13H18zM22,12H23V13H22zM23,12H24V13H23zM25,12H26V13H25zM27,12H28V13H27zM30,12H31V13H30zM34,12H35V13H34zM37,12H38V13H37zM39,12H40V13H39zM40,12H41V13H40zM8,13H9V14H8zM15,13H16V14H15zM16,13H17V14H16zM18,13H19V14H18zM19,13H20V14H19zM22,13H23V14H22zM24,13H25V14H24zM27,13H28V14H27zM29,13H30V14H29zM32,13H33V14H32zM35,13H36V14H35zM37,13H38V14H37zM39,13H40V14H39zM6,14H7V15H6zM7,14H8V15H7zM10,14H11V15H10zM11,14H12V15H11zM12,14H13V15H12zM14,14H15V15H14zM20,14H21V15H20zM23,14H24V15H23zM24,14H25V15H24zM25,14H26V15H25zM26,14H27V15H26zM27,14H28V15H27zM28,14H29V15H28zM30,14H31V15H30zM32,14H33V15H32zM35,14H36V15H35zM37,14H38V15H37zM4,15H5V16H4zM9,15H10V16H9zM12,15H13V16H12zM13,15H14V16H13zM16,15H17V16H16zM20,15H21V16H20zM24,15H25V16H24zM26,15H27V16H26zM29,15H30V16H29zM30,15H31V16H30zM33,15H34V16H33zM34,15H35V16H34zM38,15H39V16H38zM4,16H5V17H4zM6,16H7V17H6zM7,16H8V17H7zM9,16H10V17H9zM10,16H11V17H10zM11,16H12V17H11zM12,16H13V17H12zM19,16H20V17H19zM20,16H21V17H20zM21,16H22V17H21zM23,16H24V17H23zM28,16H29V17H28zM29,16H30V17H29zM30,16H31V17H30zM32,16H33V17H32zM33,16H34V17H33zM34,16H35V17H34zM35,16H36V17H35zM36,16H37V17H36zM37,16H38V17H37zM38,16H39V17H38zM39,16H40V17H39zM40,16H41V17H40zM5,17H6V18H5zM6,17H7V18H6zM7,17H8V18H7zM8,17H9V18H8zM9,17H10V18H9zM11,17H12V18H11zM13,17H14V18H13zM14,17H15V18H14zM15,17H16V18H15zM17,17H18V18H17zM18,17H19V18H18zM19,17H20V18H19zM21,17H22V18H21zM23,17H24V18H23zM25,17H26V18H25zM29,17H30V18H29zM30,17H31V18H30zM31,17H32V18H31zM32,17H33V18H32zM34,17H35V18H34zM35,17H36V18H35zM36,17H37V18H36zM37,17H38V18H37zM40,17H41V18H40zM4,18H5V19H4zM7,18H8V19H7zM10,18H11V19H10zM11,18H12V19H11zM12,18H13V19H12zM13,18H14V19H13zM15,18H16V19H15zM16,18H17V19H16zM18,18H19V19H18zM23,18H24V19H23zM24,18H25V19H24zM28,18H29V19H28zM29,18H30V19H29zM30,18H31V19H30zM32,18H33V19H32zM33,18H34V19H33zM34,18H35V19H34zM36,18H37V19H36zM38,18H39V19H38zM4,19H5V20H4zM5,19H6V20H5zM6,19H7V20H6zM8,19H9V20H8zM9,19H10V20H9zM11,19H12V20H11zM12,19H13V20H12zM13,19H14V20H13zM14,19H15V20H14zM18,19H19V20H18zM19,19H20V20H19zM25,19H26V20H25zM26,19H27V20H26zM30,19H31V20H30zM31,19H32V20H31zM32,19H33V20H32zM33,19H34V20H33zM35,19H36V20H35zM36,19H37V20H36zM39,19H40V20H39zM6,20H7V21H6zM7,20H8V21H7zM8,20H9V21H8zM9,20H10V21H9zM10,20H11V21H10zM11,20H12V21H11zM12,20H13V21H12zM13,20H14V21H13zM14,20H15V21H14zM16,20H17V21H16zM17,20H18V21H17zM19,20H20V21H19zM21,20H22V21H21zM23,20H24V21H23zM24,20H25V21H24zM25,20H26V21H25zM29,20H30V21H29zM37,20H38V21H37zM38,20H39V21H38zM40,20H41V21H40zM7,21H8V22H7zM9,21H10V22H9zM11,21H12V22H11zM15,21H16V22H15zM16,21H17V22H16zM17,21H18V22H17zM21,21H22V22H21zM22,21H23V22H22zM23,21H24V22H23zM25,21H26V22H25zM26,21H27V22H26zM27,21H28V22H27zM28,21H29V22H28zM31,21H32V22H31zM33,21H34V22H33zM34,21H35V22H34zM37,21H38V22H37zM39,21H40V22H39zM40,21H41V22H40zM4,22H5V23H4zM5,22H6V23H5zM6,22H7V23H6zM7,22H8V23H7zM8,22H9V23H8zM10,22H11V23H10zM18,22H19V23H18zM21,22H22V23H21zM26,22H27V23H26zM29,22H30V23H29zM30,22H31V23H30zM31,22H32V23H31zM33,22H34V23H33zM34,22H35V23H34zM37,22H38V23H37zM38,22H39V23H38zM39,22H40V23H39zM40,22H41V23H40zM4,23H5V24H4zM8,23H9V24H8zM13,23H14V24H13zM15,23H16V24H15zM16,23H17V24H16zM17,23H18V24H17zM19,23H20V24H19zM20,23H21V24H20zM21,23H22V24H21zM22,23H23V24H22zM26,23H27V24H26zM28,23H29V24H28zM30,23H31V24H30zM34,23H35V24H34zM35,23H36V24H35zM39,23H40V24H39zM4,24H5V25H4zM7,24H8V25H7zM8,24H9V25H8zM9,24H10V25H9zM10,24H11V25H10zM12,24H13V25H12zM15,24H16V25H15zM16,24H17V25H16zM18,24H19V25H18zM19,24H20V25H19zM21,24H22V25H21zM22,24H23V25H22zM25,24H26V25H25zM27,24H28V25H27zM30,24H31V25H30zM31,24H32V25H31zM33,24H34V25H33zM35,24H36V25H35zM36,24H37V25H36zM37,24H38V25H37zM40,24H41V25H40zM5,25H6V26H5zM7,25H8V26H7zM9,25H10V26H9zM11,25H12V26H11zM13,25H14V26H13zM14,25H15V26H14zM16,25H17V26H16zM18,25H19V26H18zM21,25H22V26H21zM22,25H23V26H22zM23,25H24V26H23zM24,25H25V26H24zM26,25H27V26H26zM27,25H28V26H27zM32,25H33V26H32zM33,25H34V26H33zM37,25H38V26H37zM5,26H6V27H5zM7,26H8V27H7zM8,26H9V27H8zM9,26H10V27H9zM10,26H11V27H10zM11,26H12V27H11zM12,26H13V27H12zM13,26H14V27H13zM14,26H15V27H14zM15,26H16V27H15zM16,26H17V27H16zM22,26H23V27H22zM24,26H25V27H24zM25,26H26V27H25zM26,26H27V27H26zM27,26H28V27H27zM28,26H29V27H28zM32,26H33V27H32zM33,26H34V27H33zM35,26H36V27H35zM39,26H40V27H39zM6,27H7V28H6zM8,27H9V28H8zM16,27H17V28H16zM17,27H18V28H17zM19,27H20V28H19zM20,27H21V28H20zM21,27H22V28H21zM23,27H24V28H23zM24,27H25V28H24zM26,27H27V28H26zM27,27H28V28H27zM28,27H29V28H28zM29,27H30V28H29zM30,27H31V28H30zM32,27H33V28H32zM34,27H35V28H34zM36,27H37V28H36zM37,27H38V28H37zM38,27H39V28H38zM5,28H6V29H5zM8,28H9V29H8zM9,28H10V29H9zM10,28H11V29H10zM12,28H13V29H12zM16,28H17V29H16zM17,28H18V29H17zM19,28H20V29H19zM20,28H21V29H20zM26,28H27V29H26zM27,28H28V29H27zM28,28H29V29H28zM29,28H30V29H29zM30,28H31V29H30zM33,28H34V29H33zM34,28H35V29H34zM36,28H37V29H36zM38,28H39V29H38zM39,28H40V29H39zM40,28H41V29H40zM5,29H6V30H5zM6,29H7V30H6zM11,29H12V30H11zM17,29H18V30H17zM23,29H24V30H23zM31,29H32V30H31zM32,29H33V30H32zM33,29H34V30H33zM34,29H35V30H34zM35,29H36V30H35zM36,29H37V30H36zM39,29H40V30H39zM40,29H41V30H40zM5,30H6V31H5zM6,30H7V31H6zM7,30H8V31H7zM8,30H9V31H8zM9,30H10V31H9zM10,30H11V31H10zM11,30H12V31H11zM12,30H13V31H12zM14,30H15V31H14zM15,30H16V31H15zM17,30H18V31H17zM18,30H19V31H18zM21,30H22V31H21zM22,30H23V31H22zM23,30H24V31H23zM24,30H25V31H24zM25,30H26V31H25zM26,30H27V31H26zM28,30H29V31H28zM30,30H31V31H30zM32,30H33V31H32zM33,30H34V31H33zM38,30H39V31H38zM39,30H40V31H39zM4,31H5V32H4zM6,31H7V32H6zM7,31H8V32H7zM9,31H10V32H9zM12,31H13V32H12zM13,31H14V32H13zM15,31H16V32H15zM16,31H17V32H16zM18,31H19V32H18zM19,31H20V32H19zM24,31H25V32H24zM25,31H26V32H25zM26,31H27V32H26zM30,31H31V32H30zM31,31H32V32H31zM32,31H33V32H32zM33,31H34V32H33zM37,31H38V32H37zM10,32H11V33H10zM11,32H12V33H11zM16,32H17V33H16zM17,32H18V33H17zM18,32H19V33H18zM20,32H21V33H20zM22,32H23V33H22zM23,32H24V33H23zM25,32H26V33H25zM26,32H27V33H26zM27,32H28V33H27zM29,32H30V33H29zM30,32H31V33H30zM32,32H33V33H32zM33,32H34V33H33zM34,32H35V33H34zM35,32H36V33H35zM36,32H37V33H36zM38,32H39V33H38zM39,32H40V33H39zM40,32H41V33H40zM12,33H13V34H12zM13,33H14V34H13zM14,33H15V34H14zM16,33H17V34H16zM19,33H20V34H19zM20,33H21V34H20zM24,33H25V34H24zM25,33H26V34H25zM27,33H28V34H27zM28,33H29V34H28zM29,33H30V34H29zM32,33H33V34H32zM36,33H37V34H36zM38,33H39V34H38zM39,33H40V34H39zM40,33H41V34H40zM4,34H5V35H4zM5,34H6V35H5zM6,34H7V35H6zM7,34H8V35H7zM8,34H9V35H8zM9,34H10V35H9zM10,34H11V35H10zM12,34H13V35H12zM14,34H15V35H14zM15,34H16V35H15zM16,34H17V35H16zM17,34H18V35H17zM18,34H19V35H18zM19,34H20V35H19zM20,34H21V35H20zM22,34H23V35H22zM24,34H25V35H24zM25,34H26V35H25zM29,34H30V35H29zM32,34H33V35H32zM34,34H35V35H34zM36,34H37V35H36zM38,34H39V35H38zM40,34H41V35H40zM4,35H5V36H4zM10,35H11V36H10zM12,35H13V36H12zM15,35H16V36H15zM16,35H17V36H16zM19,35H20V36H19zM20,35H21V36H20zM21,35H22V36H21zM22,35H23V36H22zM24,35H25V36H24zM30,35H31V36H30zM31,35H32V36H31zM32,35H33V36H32zM36,35H37V36H36zM4,36H5V37H4zM6,36H7V37H6zM7,36H8V37H7zM8,36H9V37H8zM10,36H11V37H10zM14,36H15V37H14zM15,36H16V37H15zM18,36H19V37H18zM19,36H20V37H19zM20,36H21V37H20zM23,36H24V37H23zM25,36H26V37H25zM30,36H31V37H30zM32,36H33V37H32zM33,36H34V37H33zM34,36H35V37H34zM35,36H36V37H35zM36,36H37V37H36zM37,36H38V37H37zM39,36H40V37H39zM4,37H5V38H4zM6,37H7V38H6zM7,37H8V38H7zM8,37H9V38H8zM10,37H11V38H10zM12,37H13V38H12zM13,37H14V38H13zM14,37H15V38H14zM15,37H16V38H15zM17,37H18V38H17zM19,37H20V38H19zM20,37H21V38H20zM21,37H22V38H21zM23,37H24V38H23zM24,37H25V38H24zM25,37H26V38H25zM26,37H27V38H26zM27,37H28V38H27zM29,37H30V38H29zM31,37H32V38H31zM32,37H33V38H32zM34,37H35V38H34zM36,37H37V38H36zM38,37H39V38H38zM40,37H41V38H40zM4,38H5V39H4zM6,38H7V39H6zM7,38H8V39H7zM8,38H9V39H8zM10,38H11V39H10zM12,38H13V39H12zM14,38H15V39H14zM15,38H16V39H15zM17,38H18V39H17zM18,38H19V39H18zM19,38H20V39H19zM24,38H25V39H24zM26,38H27V39H26zM27,38H28V39H27zM28,38H29V39H28zM29,38H30V39H29zM31,38H32V39H31zM32,38H33V39H32zM33,38H34V39H33zM34,38H35V39H34zM36,38H37V39H36zM37,38H38V39H37zM38,38H39V39H38zM4,39H5V40H4zM10,39H11V40H10zM13,39H14V40H13zM16,39H17V40H16zM19,39H20V40H19zM22,39H23V40H22zM23,39H24V40H23zM24,39H25V40H24zM26,39H27V40H26zM27,39H28V40H27zM28,39H29V40H28zM29,39H30V40H29zM31,39H32V40H31zM34,39H35V40H34zM35,39H36V40H35zM36,39H37V40H36zM37,39H38V40H37zM38,39H39V40H38zM4,40H5V41H4zM5,40H6V41H5zM6,40H7V41H6zM7,40H8V41H7zM8,40H9V41H8zM9,40H10V41H9zM10,40H11V41H10zM12,40H13V41H12zM14,40H15V41H14zM16,40H17V41H16zM18,40H19V41H18zM21,40H22V41H21zM22,40H23V41H22zM26,40H27V41H26zM28,40H29V41H28zM29,40H30V41H29zM30,40H31V41H30zM33,40H34V41H33zM34,40H35V41H34zM36,40H37V41H36zM37,40H38V41H37zM38,40H39V41H38zM39,40H40V41H39zM40,40H41V41H40z"
          id="qr-path" fill="#000000" fill-opacity="1" fill-rule="nonzero" stroke="none"/>
</svg>